<svg width="15" height="13" viewBox="0 0 15 13" fill="none" xmlns="http://www.w3.org/2000/svg">
<path d="M0.52043 3.82031C0.52043 3.86031 0.51043 3.89031 0.51043 3.92031C0.49043 6.42031 0.46043 8.93031 0.44043 11.4303C0.44043 11.5903 0.47043 11.7503 0.51043 11.9103C0.65043 12.4003 1.08043 12.6703 1.67043 12.6803L12.9404 12.7903C12.9604 12.7903 12.9904 12.7903 13.0104 12.7903C13.8704 12.7803 14.4904 12.2003 14.5004 11.4203L14.5704 3.96031L0.52043 3.82031ZM6.45043 5.76031C6.45043 5.74031 6.45043 5.71031 6.46043 5.69031C6.48043 5.62031 6.51043 5.56031 6.56043 5.52031C6.57043 5.51031 6.58043 5.50031 6.60043 5.49031C6.62043 5.48031 6.63043 5.47031 6.65043 5.47031C6.66043 5.47031 6.67043 5.46031 6.68043 5.46031C6.72043 5.45031 6.77043 5.44031 6.82043 5.44031C7.18043 5.44031 7.54043 5.44031 7.89043 5.45031C8.00043 5.45031 8.08043 5.48031 8.15043 5.54031C8.16043 5.55031 8.18043 5.57031 8.19043 5.58031C8.19043 5.58031 8.19043 5.58031 8.19043 5.59031C8.20043 5.61031 8.21043 5.62031 8.22043 5.64031C8.23043 5.66031 8.24043 5.68031 8.24043 5.70031C8.24043 5.72031 8.25043 5.75031 8.25043 5.77031C8.26043 6.03031 8.25043 6.30031 8.25043 6.56031C8.25043 6.65031 8.24043 6.75031 8.24043 6.84031C8.24043 6.94031 8.21043 7.01031 8.15043 7.06031C8.09043 7.11031 8.02043 7.13031 7.91043 7.13031C7.53043 7.14031 7.16043 7.13031 6.78043 7.12031C6.67043 7.12031 6.59043 7.08031 6.54043 7.02031C6.51043 6.99031 6.49043 6.95031 6.47043 6.91031C6.46043 6.87031 6.45043 6.82031 6.45043 6.78031V6.27031C6.45043 6.16031 6.45043 6.05031 6.45043 5.95031C6.45043 5.88031 6.45043 5.82031 6.45043 5.76031ZM2.99043 5.73031C3.00043 5.52031 3.13043 5.40031 3.36043 5.40031C3.71043 5.40031 4.07043 5.40031 4.42043 5.41031C4.45043 5.41031 4.48043 5.41031 4.50043 5.42031C4.55043 5.43031 4.59043 5.44031 4.63043 5.46031C4.65043 5.47031 4.66043 5.48031 4.67043 5.49031L4.68043 5.50031C4.70043 5.51031 4.71043 5.53031 4.72043 5.54031C4.74043 5.56031 4.75043 5.58031 4.76043 5.60031C4.77043 5.62031 4.78043 5.64031 4.78043 5.67031C4.79043 5.69031 4.79043 5.71031 4.79043 5.74031C4.80043 6.08031 4.79043 6.41031 4.78043 6.75031C4.78043 6.80031 4.77043 6.85031 4.75043 6.89031C4.72043 6.93031 4.70043 6.97031 4.66043 7.00031C4.63043 7.03031 4.59043 7.06031 4.54043 7.07031C4.49043 7.09031 4.44043 7.10031 4.38043 7.10031C4.03043 7.11031 3.68043 7.10031 3.34043 7.09031C3.22043 7.09031 3.13043 7.05031 3.07043 6.99031C3.06043 6.97031 3.04043 6.96031 3.03043 6.94031C3.02043 6.92031 3.01043 6.90031 3.00043 6.88031C3.00043 6.86031 2.99043 6.84031 2.99043 6.82031C2.98043 6.79031 2.98043 6.76031 2.98043 6.73031C2.98043 6.57031 2.98043 6.41031 2.98043 6.25031C2.98043 6.16031 2.98043 6.08031 2.98043 5.99031C2.99043 5.90031 2.99043 5.82031 2.99043 5.73031ZM4.74043 10.4803C4.73043 10.7003 4.53043 10.8603 4.29043 10.8603C3.97043 10.8603 3.66043 10.8603 3.35043 10.8503C3.23043 10.8503 3.13043 10.8103 3.06043 10.7503C3.04043 10.7303 3.03043 10.7103 3.01043 10.7003C3.00043 10.6703 2.98043 10.6403 2.98043 10.6203C2.97043 10.6003 2.96043 10.5703 2.96043 10.5503C2.96043 10.5203 2.95043 10.5003 2.95043 10.4703C2.95043 10.3103 2.95043 10.1403 2.95043 9.97031C2.95043 9.80031 2.95043 9.64031 2.95043 9.47031C2.95043 9.42031 2.96043 9.37031 2.98043 9.33031C3.00043 9.29031 3.02043 9.25031 3.05043 9.22031C3.11043 9.16031 3.19043 9.13031 3.30043 9.13031C3.67043 9.12031 4.03043 9.13031 4.40043 9.14031C4.45043 9.14031 4.50043 9.15031 4.55043 9.17031C4.57043 9.18031 4.59043 9.18031 4.60043 9.19031C4.62043 9.20031 4.63043 9.21031 4.65043 9.23031L4.66043 9.24031C4.67043 9.25031 4.68043 9.26031 4.69043 9.28031C4.70043 9.30031 4.71043 9.31031 4.72043 9.33031C4.73043 9.35031 4.74043 9.38031 4.74043 9.40031C4.75043 9.42031 4.75043 9.44031 4.75043 9.46031C4.75043 9.81031 4.75043 10.1403 4.74043 10.4803ZM8.19043 10.5703C8.19043 10.6203 8.18043 10.6703 8.16043 10.7103C8.15043 10.7303 8.14043 10.7503 8.13043 10.7603C8.12043 10.7703 8.11043 10.7903 8.09043 10.8003L8.08043 10.8103C8.06043 10.8203 8.05043 10.8303 8.03043 10.8403C8.00043 10.8603 7.96043 10.8703 7.91043 10.8803C7.90043 10.8803 7.89043 10.8803 7.88043 10.8803C7.86043 10.8803 7.83043 10.8803 7.81043 10.8803C7.47043 10.8803 7.12043 10.8803 6.78043 10.8703C6.68043 10.8703 6.58043 10.8303 6.52043 10.7703C6.51043 10.7603 6.51043 10.7603 6.50043 10.7503C6.49043 10.7403 6.49043 10.7403 6.49043 10.7303C6.48043 10.7203 6.48043 10.7103 6.47043 10.7003C6.45043 10.6703 6.43043 10.6403 6.43043 10.6103C6.43043 10.6003 6.42043 10.5903 6.42043 10.5803C6.42043 10.5703 6.41043 10.5603 6.42043 10.5503V10.5403V10.5303C6.42043 10.4703 6.42043 10.4103 6.42043 10.3603C6.42043 10.2403 6.42043 10.1303 6.43043 10.0103C6.43043 9.92031 6.43043 9.84031 6.43043 9.75031C6.43043 9.66031 6.43043 9.58031 6.43043 9.49031C6.43043 9.47031 6.43043 9.44031 6.44043 9.42031C6.44043 9.40031 6.45043 9.39031 6.45043 9.37031C6.45043 9.36031 6.45043 9.36031 6.46043 9.35031C6.47043 9.33031 6.48043 9.32031 6.49043 9.30031C6.50043 9.28031 6.51043 9.27031 6.53043 9.25031C6.59043 9.19031 6.67043 9.16031 6.78043 9.16031C7.15043 9.15031 7.51043 9.16031 7.88043 9.17031C7.93043 9.17031 7.98043 9.18031 8.02043 9.19031C8.06043 9.20031 8.10043 9.23031 8.13043 9.25031C8.16043 9.28031 8.18043 9.31031 8.20043 9.35031C8.22043 9.39031 8.23043 9.43031 8.23043 9.48031C8.21043 9.85031 8.21043 10.2103 8.19043 10.5703ZM11.7004 10.3203C11.7004 10.4103 11.7004 10.4903 11.7004 10.5803C11.7004 10.6103 11.7004 10.6303 11.6904 10.6603C11.6804 10.7103 11.6604 10.7503 11.6304 10.7903C11.6204 10.8003 11.6104 10.8103 11.6004 10.8203C11.5904 10.8303 11.5904 10.8303 11.5804 10.8403C11.5704 10.8503 11.5604 10.8603 11.5404 10.8603C11.5304 10.8703 11.5304 10.8703 11.5204 10.8703C11.5004 10.8803 11.4804 10.8903 11.4704 10.8903C11.4504 10.9003 11.4404 10.9003 11.4204 10.9003C11.4104 10.9003 11.4104 10.9003 11.4004 10.9103C11.4004 10.9103 11.3904 10.9103 11.3804 10.9103C11.3604 10.9103 11.3304 10.9103 11.3104 10.9103C10.9704 10.9103 10.6304 10.9103 10.2904 10.9003C10.1704 10.9003 10.0604 10.8503 9.99043 10.7703C9.96043 10.7303 9.93043 10.6903 9.92043 10.6403C9.91043 10.6203 9.91043 10.5903 9.91043 10.5703C9.90043 10.2103 9.90043 9.84031 9.92043 9.48031C9.92043 9.46031 9.92043 9.44031 9.93043 9.42031C9.93043 9.40031 9.94043 9.38031 9.95043 9.37031V9.36031C9.96043 9.34031 9.97043 9.33031 9.98043 9.31031C9.99043 9.29031 10.0104 9.28031 10.0204 9.27031C10.0804 9.22031 10.1604 9.19031 10.2604 9.19031C10.6304 9.19031 11.0004 9.19031 11.3604 9.20031C11.4704 9.20031 11.5504 9.24031 11.6104 9.30031C11.6704 9.36031 11.7004 9.44031 11.7004 9.55031V10.3203ZM11.7404 6.32031V6.58031C11.7404 6.67031 11.7404 6.75031 11.7404 6.84031C11.7404 6.87031 11.7404 6.89031 11.7304 6.91031C11.7304 6.93031 11.7204 6.96031 11.7104 6.97031C11.7004 7.00031 11.6904 7.02031 11.6704 7.04031C11.6704 7.05031 11.6604 7.06031 11.6504 7.07031C11.6004 7.12031 11.5204 7.15031 11.4104 7.16031C11.0304 7.17031 10.6604 7.16031 10.2804 7.15031C10.0704 7.14031 9.95043 7.02031 9.95043 6.83031C9.95043 6.49031 9.95043 6.14031 9.96043 5.80031C9.96043 5.72031 9.98043 5.66031 10.0204 5.60031C10.0304 5.58031 10.0504 5.57031 10.0604 5.55031C10.1204 5.49031 10.2204 5.47031 10.3304 5.47031C10.6804 5.47031 11.0204 5.47031 11.3704 5.48031C11.4904 5.48031 11.5804 5.51031 11.6504 5.57031C11.7104 5.63031 11.7504 5.72031 11.7504 5.83031C11.7504 5.99031 11.7404 6.16031 11.7404 6.32031Z" fill="white"/>
<path d="M14.5307 3.05996L0.510742 2.92996C0.570742 2.26996 0.440742 1.61996 0.620742 0.979963C0.730742 0.559963 1.15074 0.229962 1.62074 0.219962C2.06074 0.209962 2.50074 0.219963 2.94074 0.229963C2.95074 0.229963 2.97074 0.239963 3.00074 0.249963L2.99074 1.35996C2.99074 1.68996 3.15074 1.87996 3.43074 1.87996C3.71074 1.87996 3.87074 1.69996 3.87074 1.35996L3.88074 0.249963L10.8707 0.319963C10.8707 0.369963 10.8807 0.409963 10.8807 0.459963C10.8807 0.819963 10.8707 1.17996 10.8707 1.53996C10.8707 1.73996 11.0007 1.88996 11.1907 1.94996C11.3607 1.99996 11.5707 1.93996 11.6607 1.79996C11.7107 1.71996 11.7407 1.60996 11.7507 1.50996C11.7607 1.16996 11.7607 0.829962 11.7607 0.489962V0.329963C11.9507 0.329963 12.1207 0.329963 12.3007 0.339963C12.6307 0.349963 12.9607 0.339962 13.2907 0.369962C13.6807 0.409963 14.0007 0.599963 14.2607 0.869963C14.4307 1.04996 14.5407 1.26996 14.5507 1.49996C14.5507 2.00996 14.5307 2.52996 14.5307 3.05996Z" fill="white"/>
<path d="M9.91087 10.59C9.90087 10.23 9.90087 9.86 9.92087 9.5C9.91087 9.86 9.90087 10.22 9.91087 10.59Z" fill="white"/>
<path d="M9.9209 10.6602C9.9309 10.7102 9.9609 10.7502 9.9909 10.7902C9.9609 10.7502 9.9309 10.7002 9.9209 10.6602Z" fill="white"/>
<path d="M2.95073 9.96973C2.95073 10.1397 2.95073 10.2997 2.95073 10.4697C2.94073 10.2997 2.95073 10.1297 2.95073 9.96973Z" fill="white"/>
<path d="M9.95043 5.79004C9.94043 6.13004 9.94043 6.48004 9.94043 6.82004C9.94043 6.48004 9.94043 6.14004 9.95043 5.79004Z" fill="white"/>
<path d="M6.4707 6.91016C6.4807 6.95016 6.5107 6.99016 6.5407 7.02016C6.5007 6.99016 6.4807 6.96016 6.4707 6.91016Z" fill="white"/>
</svg>
