<svg width="15" height="11" viewBox="0 0 15 11" fill="none" xmlns="http://www.w3.org/2000/svg">
<path d="M14.1402 0.449835C13.9902 0.599835 13.8402 0.749835 13.6802 0.909835C13.2302 1.34983 12.7902 1.79983 12.3402 2.23983C12.1402 2.43983 11.9402 2.63983 11.7402 2.83983C11.3102 3.26983 10.8802 3.70983 10.4502 4.13983C10.1802 4.40983 9.90016 4.67984 9.63016 4.94984C9.15016 5.42984 8.67016 5.89983 8.19016 6.37983C8.06016 6.50983 7.93016 6.62983 7.80016 6.74983C7.62016 6.89983 7.31016 6.86984 7.14016 6.69984C6.75016 6.28984 6.35016 5.88983 5.95016 5.47984C5.67016 5.19983 5.39016 4.91983 5.11016 4.62983C4.74016 4.25983 4.36016 3.86983 3.98016 3.48984C3.71016 3.21984 3.44016 2.93983 3.17016 2.66983C2.79016 2.27983 2.41016 1.88983 2.02016 1.49983C1.68016 1.14983 1.33016 0.799835 0.990156 0.459835C0.970156 0.439835 0.960156 0.419835 0.910156 0.369835C1.08016 0.339835 1.23016 0.299835 1.38016 0.279835C1.43016 0.269835 1.48016 0.279835 1.53016 0.279835C5.53016 0.299835 9.53016 0.319835 13.5302 0.339835C13.7302 0.339835 13.9302 0.399835 14.1302 0.419835C14.1302 0.429835 14.1302 0.439835 14.1402 0.449835Z" fill="white"/>
<path d="M14.0904 10.5801V10.6401C13.8904 10.6701 13.6804 10.7201 13.4804 10.7101C10.1204 10.7001 6.76039 10.6801 3.40039 10.6701C2.75039 10.6701 2.09039 10.6701 1.44039 10.6601C1.26039 10.6601 1.08039 10.6101 0.900391 10.5801C0.900391 10.5601 0.900391 10.5401 0.900391 10.5301C1.05039 10.3801 1.20039 10.2201 1.34039 10.0701C1.46039 9.94012 1.60039 9.83012 1.72039 9.70012C2.06039 9.36012 2.40039 9.02012 2.74039 8.67012C3.11039 8.29012 3.49039 7.91012 3.87039 7.54012C4.15039 7.26012 4.44039 6.98012 4.72039 6.70012C4.90039 6.52012 5.09039 6.34012 5.27039 6.16012C5.32039 6.11012 5.35039 6.11012 5.40039 6.17012C5.63039 6.41012 5.85039 6.65012 6.09039 6.88012C6.33039 7.11012 6.55039 7.37012 6.82039 7.54012C7.33039 7.86012 7.86039 7.82012 8.35039 7.44012C8.50039 7.32012 8.64039 7.18012 8.78039 7.04012C9.08039 6.74012 9.38039 6.43012 9.69039 6.12012C9.86039 6.29012 10.0204 6.44012 10.1804 6.60012C10.5204 6.95012 10.8504 7.30012 11.1804 7.64012C11.5504 8.02012 11.9304 8.40012 12.3004 8.77012C12.6804 9.15012 13.0504 9.53012 13.4304 9.91012C13.6404 10.1301 13.8604 10.3601 14.0904 10.5801Z" fill="white"/>
<path d="M4.71012 5.47973C4.55012 5.63973 4.40012 5.79973 4.25012 5.94973C4.12012 6.07973 3.99012 6.18973 3.87012 6.31973C3.53012 6.65973 3.20012 6.99973 2.86012 7.34973C2.48012 7.72973 2.09012 8.10973 1.71012 8.48973C1.43012 8.75973 1.16012 9.03973 0.880117 9.30973C0.700117 9.48973 0.510117 9.66973 0.330117 9.84973C0.260117 9.92973 0.220117 9.89973 0.200117 9.80973C0.170117 9.65973 0.120117 9.51973 0.120117 9.36973C0.120117 6.74973 0.130117 4.13973 0.160117 1.51973C0.160117 1.34973 0.220118 1.16973 0.260118 0.969727C0.320118 1.01973 0.340117 1.03973 0.370117 1.05973C0.610117 1.30973 0.840117 1.55973 1.08012 1.78973C1.48012 2.19973 1.89012 2.60973 2.30012 3.01973C2.53012 3.24973 2.75012 3.48973 2.99012 3.72973C3.30012 4.04973 3.63012 4.36973 3.95012 4.68973C4.20012 4.94973 4.45012 5.20973 4.71012 5.47973Z" fill="white"/>
<path d="M14.8905 1.65957L14.8605 9.37957C14.8605 9.58957 14.8205 9.78957 14.7305 9.98957C14.5605 9.81957 14.4005 9.65957 14.2405 9.49957C13.8205 9.06957 13.4005 8.63957 12.9705 8.20957C12.6905 7.91957 12.4105 7.63957 12.1305 7.35957C11.7505 6.97957 11.3705 6.58957 11.0005 6.20957C10.7905 5.99957 10.5705 5.77957 10.3505 5.56957C10.3305 5.55957 10.3205 5.52957 10.3105 5.50957C10.4305 5.37957 10.5405 5.25957 10.6605 5.13957C10.8905 4.90957 11.1205 4.68957 11.3505 4.46957C11.7805 4.04957 12.2005 3.60957 12.6205 3.18957C12.8805 2.91957 13.1505 2.65957 13.4105 2.39957C13.8505 1.95957 14.3005 1.51957 14.7605 1.05957C14.8505 1.25957 14.8905 1.45957 14.8905 1.65957Z" fill="white"/>
</svg>
