<svg width="15" height="16" viewBox="0 0 15 16" fill="none" xmlns="http://www.w3.org/2000/svg">
<path d="M5.35045 2.31953C5.17045 3.25953 4.38045 3.91953 3.43045 3.90953C2.50045 3.90953 1.70045 3.24953 1.52045 2.33953C1.31045 1.26953 2.04045 0.219531 3.11045 0.0395312C3.15045 0.0395312 3.18045 0.0295312 3.21045 0.0195312H3.68045C3.84045 0.0595312 4.01045 0.0995314 4.16045 0.159531C5.03045 0.509531 5.53045 1.41953 5.35045 2.31953Z" fill="white"/>
<path d="M12.3703 2.31953C12.1803 3.25953 11.3903 3.91953 10.4503 3.90953C9.51034 3.90953 8.72034 3.24953 8.54034 2.33953C8.33034 1.26953 9.05034 0.219531 10.1303 0.0395312C10.1603 0.0395312 10.1903 0.0295312 10.2203 0.0195312H10.6903C10.8503 0.0595312 11.0203 0.0995314 11.1803 0.159531C12.0403 0.509531 12.5403 1.41953 12.3703 2.31953Z" fill="white"/>
<path d="M14.2303 10.1491C14.3603 10.7591 13.8903 11.3391 13.2603 11.3591H12.4003V14.0291C12.4003 14.6691 12.0503 15.0091 11.4203 15.0091H9.4303C8.8703 15.0091 8.5003 14.6391 8.5003 14.0791V11.3591H7.7103C6.9903 11.3491 6.5103 10.7591 6.6903 10.0691C7.0103 8.74914 7.3603 7.42914 7.6903 6.10914C7.7303 5.95914 7.7603 5.79914 7.8003 5.64914C8.0203 4.89914 8.6903 4.37914 9.4803 4.37914C10.1103 4.36914 10.7503 4.36914 11.3903 4.36914C12.2203 4.37914 12.9003 4.89914 13.1103 5.70914C13.4003 6.82914 13.6803 7.94914 13.9603 9.06914C14.0503 9.42914 14.1603 9.78914 14.2303 10.1491Z" fill="white"/>
<path d="M6.11043 6.04859C6.13043 7.13859 6.12043 8.23859 6.11043 9.32859C6.11043 9.71859 5.88043 10.0186 5.52043 10.1386C5.41043 10.1686 5.38043 10.2186 5.39043 10.3286C5.39043 11.5586 5.39043 12.7986 5.38043 14.0286C5.38043 14.1686 5.37043 14.3086 5.33043 14.4386C5.21043 14.7786 4.90043 15.0086 4.55043 15.0086C3.81043 15.0186 3.07043 15.0186 2.33043 15.0086C1.86043 14.9986 1.49043 14.6086 1.49043 14.1286C1.48043 13.4986 1.49043 12.8686 1.49043 12.2286V10.3186C1.49043 10.2286 1.48043 10.1786 1.37043 10.1486C1.00043 10.0286 0.76043 9.69859 0.76043 9.30859C0.75043 8.24859 0.75043 7.17859 0.76043 6.10859C0.77043 5.15859 1.54043 4.38859 2.49043 4.37859C3.12043 4.36859 3.75043 4.36859 4.38043 4.37859C5.32043 4.38859 6.08043 5.10859 6.11043 6.04859Z" fill="white"/>
</svg>
