<svg width="15" height="11" viewBox="0 0 15 11" fill="none" xmlns="http://www.w3.org/2000/svg">
<path d="M14.1402 0.449835C13.9902 0.599835 13.8402 0.749835 13.6802 0.909835C13.2302 1.34983 12.7902 1.79983 12.3402 2.23983C12.1402 2.43983 11.9402 2.63983 11.7402 2.83983C11.3102 3.26983 10.8802 3.70983 10.4502 4.13983C10.1802 4.40983 9.90016 4.67984 9.63016 4.94984C9.15016 5.42984 8.67016 5.89983 8.19016 6.37983C8.06016 6.50983 7.93016 6.62983 7.80016 6.74983C7.62016 6.89983 7.31016 6.86984 7.14016 6.69984C6.75016 6.28984 6.35016 5.88983 5.95016 5.47984C5.67016 5.19983 5.39016 4.91983 5.11016 4.62983C4.74016 4.25983 4.36016 3.86983 3.98016 3.48984C3.71016 3.21984 3.44016 2.93983 3.17016 2.66983C2.79016 2.27983 2.41016 1.88983 2.02016 1.49983C1.68016 1.14983 1.33016 0.799835 0.990156 0.459835C0.970156 0.439835 0.960156 0.419835 0.910156 0.369835C1.08016 0.339835 1.23016 0.299835 1.38016 0.279835C1.43016 0.269835 1.48016 0.279835 1.53016 0.279835C5.53016 0.299835 9.53016 0.319835 13.5302 0.339835C13.7302 0.339835 13.9302 0.399835 14.1302 0.419835C14.1302 0.429835 14.1302 0.439835 14.1402 0.449835Z" fill="white"/>
<path d="M14.0904 10.5791V10.6391C13.8904 10.6691 13.6804 10.7191 13.4804 10.7091C10.1204 10.6991 6.76039 10.6791 3.40039 10.6691C2.75039 10.6691 2.09039 10.6691 1.44039 10.6591C1.26039 10.6591 1.08039 10.6091 0.900391 10.5791C0.900391 10.5591 0.900391 10.5391 0.900391 10.5291C1.05039 10.3791 1.20039 10.2191 1.34039 10.0691C1.46039 9.93914 1.60039 9.82914 1.72039 9.69914C2.06039 9.35914 2.40039 9.01914 2.74039 8.66914C3.11039 8.28914 3.49039 7.90914 3.87039 7.53914C4.15039 7.25914 4.44039 6.97914 4.72039 6.69914C4.90039 6.51914 5.09039 6.33914 5.27039 6.15914C5.32039 6.10914 5.35039 6.10914 5.40039 6.16914C5.63039 6.40914 5.85039 6.64914 6.09039 6.87914C6.33039 7.10914 6.55039 7.36914 6.82039 7.53914C7.33039 7.85914 7.86039 7.81914 8.35039 7.43914C8.50039 7.31914 8.64039 7.17914 8.78039 7.03914C9.08039 6.73914 9.38039 6.42914 9.69039 6.11914C9.86039 6.28914 10.0204 6.43914 10.1804 6.59914C10.5204 6.94914 10.8504 7.29914 11.1804 7.63914C11.5504 8.01914 11.9304 8.39914 12.3004 8.76914C12.6804 9.14914 13.0504 9.52914 13.4304 9.90914C13.6404 10.1291 13.8604 10.3591 14.0904 10.5791Z" fill="white"/>
<path d="M4.71012 5.4807C4.55012 5.6407 4.40012 5.8007 4.25012 5.9507C4.12012 6.0807 3.99012 6.1907 3.87012 6.3207C3.53012 6.6607 3.20012 7.0007 2.86012 7.3507C2.48012 7.7307 2.09012 8.1107 1.71012 8.4907C1.43012 8.7607 1.16012 9.0407 0.880117 9.3107C0.700117 9.4907 0.510117 9.6707 0.330117 9.8507C0.260117 9.9307 0.220117 9.9007 0.200117 9.8107C0.170117 9.6607 0.120117 9.5207 0.120117 9.3707C0.120117 6.7507 0.130117 4.1407 0.160117 1.5207C0.160117 1.3507 0.220118 1.1707 0.260118 0.970703C0.320118 1.0207 0.340117 1.0407 0.370117 1.0607C0.610117 1.3107 0.840117 1.5607 1.08012 1.7907C1.48012 2.2007 1.89012 2.6107 2.30012 3.0207C2.53012 3.2507 2.75012 3.4907 2.99012 3.7307C3.30012 4.0507 3.63012 4.3707 3.95012 4.6907C4.20012 4.9507 4.45012 5.2107 4.71012 5.4807Z" fill="white"/>
<path d="M14.8905 1.66055L14.8605 9.38055C14.8605 9.59055 14.8205 9.79055 14.7305 9.99055C14.5605 9.82055 14.4005 9.66055 14.2405 9.50055C13.8205 9.07055 13.4005 8.64055 12.9705 8.21055C12.6905 7.92055 12.4105 7.64055 12.1305 7.36055C11.7505 6.98055 11.3705 6.59055 11.0005 6.21055C10.7905 6.00055 10.5705 5.78055 10.3505 5.57055C10.3305 5.56055 10.3205 5.53055 10.3105 5.51055C10.4305 5.38055 10.5405 5.26055 10.6605 5.14055C10.8905 4.91055 11.1205 4.69055 11.3505 4.47055C11.7805 4.05055 12.2005 3.61055 12.6205 3.19055C12.8805 2.92055 13.1505 2.66055 13.4105 2.40055C13.8505 1.96055 14.3005 1.52055 14.7605 1.06055C14.8505 1.26055 14.8905 1.46055 14.8905 1.66055Z" fill="white"/>
</svg>
