<svg width="18" height="18" viewBox="0 0 18 18" fill="none" xmlns="http://www.w3.org/2000/svg">
<g clip-path="url(#clip0_51_1403)">
<path d="M8.99988 17.125C13.4844 17.125 17.1199 13.4896 17.1199 9.00501C17.1199 4.52046 13.4844 0.88501 8.99988 0.88501C4.51533 0.88501 0.879883 4.52046 0.879883 9.00501C0.879883 13.4896 4.51533 17.125 8.99988 17.125Z" fill="#CEEFEB"/>
<path d="M4.3999 7.28516C4.3999 7.31516 4.3999 7.33516 4.3999 7.35516C4.3999 8.99516 4.3999 10.6352 4.3999 12.2752C4.3999 12.3752 4.4199 12.4852 4.4499 12.5852C4.5499 12.9052 4.8299 13.0852 5.2099 13.0852H12.5899C12.6099 13.0852 12.6199 13.0852 12.6399 13.0852C13.1999 13.0752 13.6099 12.6952 13.6099 12.1752V7.28516H4.3999ZM8.2999 8.51516C8.2999 8.49516 8.2999 8.48516 8.2999 8.46516C8.3099 8.42516 8.3299 8.38516 8.3699 8.36516C8.3699 8.35516 8.3799 8.34516 8.3899 8.34516C8.3999 8.33516 8.4099 8.33516 8.4199 8.32516C8.4299 8.32516 8.4299 8.32516 8.4399 8.31516C8.4699 8.30516 8.4999 8.30516 8.5299 8.30516C8.7599 8.30516 8.9999 8.30516 9.2299 8.30516C9.2999 8.30516 9.3599 8.32516 9.3999 8.35516C9.4099 8.36516 9.4199 8.37516 9.4299 8.38516C9.4399 8.39516 9.4399 8.40516 9.4499 8.41516C9.4599 8.42516 9.4599 8.44516 9.4599 8.45516C9.4599 8.46516 9.4599 8.48516 9.4599 8.50516C9.4599 8.67516 9.4699 8.85516 9.4599 9.02516C9.4599 9.08516 9.4599 9.14516 9.4599 9.20516C9.4599 9.26516 9.4399 9.31516 9.3999 9.34516C9.3799 9.38516 9.3299 9.40516 9.2599 9.40516C9.0099 9.41516 8.7699 9.41516 8.5199 9.40516C8.4499 9.40516 8.3999 9.38516 8.3599 9.34516C8.3399 9.32516 8.3199 9.30516 8.3099 9.27516C8.2999 9.24516 8.2999 9.21516 8.2999 9.18516V8.85516C8.2999 8.78516 8.2999 8.71516 8.2999 8.64516C8.2999 8.60516 8.2999 8.55516 8.2999 8.51516ZM6.0299 8.52516C6.0299 8.38516 6.1199 8.30516 6.2699 8.30516C6.4999 8.30516 6.7299 8.30516 6.9599 8.30516C6.9799 8.30516 6.9999 8.30516 7.0099 8.30516C7.0399 8.30516 7.0699 8.31516 7.0999 8.33516C7.1099 8.34516 7.1199 8.34516 7.1299 8.35516C7.1299 8.35516 7.1299 8.35516 7.1399 8.36516C7.1499 8.36516 7.1599 8.37516 7.1699 8.38516C7.1699 8.39516 7.1799 8.41516 7.1899 8.42516C7.1999 8.43516 7.1999 8.45516 7.1999 8.46516C7.1999 8.47516 7.1999 8.49516 7.1999 8.50516C7.2099 8.72516 7.2099 8.94516 7.1999 9.16516C7.1999 9.20516 7.1899 9.23516 7.1799 9.26516C7.1699 9.29516 7.1599 9.32516 7.1299 9.34516C7.1099 9.36516 7.0899 9.37516 7.0599 9.38516C7.0299 9.39516 6.9899 9.40516 6.9599 9.40516C6.7299 9.41516 6.4999 9.41516 6.2799 9.40516C6.1999 9.40516 6.1499 9.38516 6.1099 9.34516C6.0799 9.33516 6.0699 9.32516 6.0699 9.31516C6.0599 9.29516 6.0499 9.28516 6.0499 9.27516C6.0499 9.26516 6.0399 9.25516 6.0399 9.23516C6.0399 9.21516 6.0299 9.19516 6.0299 9.17516C6.0299 9.06516 6.0299 8.96516 6.0299 8.85516C6.0299 8.79516 6.0299 8.74516 6.0299 8.68516C6.0299 8.63516 6.0299 8.57516 6.0299 8.52516ZM7.2099 11.6252C7.2099 11.7752 7.0799 11.8752 6.9199 11.8752C6.7099 11.8752 6.5099 11.8752 6.2999 11.8752C6.2199 11.8752 6.1599 11.8552 6.1099 11.8052C6.0999 11.7952 6.0899 11.7852 6.0799 11.7652C6.0699 11.7552 6.0599 11.7352 6.0599 11.7252C6.0499 11.7152 6.0499 11.6952 6.0499 11.6752C6.0499 11.6552 6.0499 11.6452 6.0499 11.6252C6.0499 11.5152 6.0499 11.4052 6.0499 11.2952C6.0499 11.1852 6.0499 11.0752 6.0499 10.9652C6.0499 10.9352 6.0599 10.9052 6.0699 10.8752C6.0799 10.8452 6.0899 10.8252 6.1099 10.8052C6.1499 10.7652 6.1999 10.7452 6.2699 10.7452C6.5099 10.7352 6.7499 10.7352 6.9899 10.7452C7.0299 10.7452 7.0599 10.7552 7.0899 10.7652C7.0999 10.7652 7.1099 10.7752 7.1199 10.7852C7.1199 10.7852 7.1299 10.7952 7.1399 10.8052C7.1399 10.8052 7.1499 10.8052 7.1499 10.8152C7.1599 10.8252 7.1599 10.8352 7.1699 10.8452C7.1799 10.8452 7.1799 10.8552 7.1899 10.8752C7.1999 10.8852 7.1999 10.9052 7.1999 10.9252C7.1999 10.9352 7.2099 10.9552 7.2099 10.9652C7.2099 11.1852 7.2099 11.4052 7.2099 11.6252ZM9.4699 11.6552C9.4699 11.6852 9.4599 11.7252 9.4499 11.7452C9.4499 11.7552 9.4399 11.7752 9.4299 11.7852C9.4199 11.7952 9.4199 11.8052 9.4099 11.8152C9.4099 11.8152 9.4099 11.8252 9.3999 11.8252C9.3899 11.8352 9.3799 11.8352 9.3699 11.8452C9.3499 11.8552 9.3199 11.8652 9.2899 11.8752C9.2799 11.8752 9.2799 11.8752 9.2699 11.8752C9.2599 11.8752 9.2399 11.8752 9.2199 11.8752C8.9899 11.8752 8.7699 11.8752 8.5399 11.8752C8.4699 11.8752 8.4099 11.8552 8.3699 11.8052L8.3599 11.7952L8.3499 11.7852C8.3499 11.7752 8.3399 11.7752 8.3399 11.7652C8.3299 11.7452 8.3199 11.7252 8.3099 11.7052C8.3099 11.6952 8.3099 11.6952 8.3099 11.6852C8.3099 11.6752 8.3099 11.6752 8.3099 11.6652C8.3099 11.6652 8.3099 11.6652 8.3099 11.6552V11.6452C8.3099 11.6052 8.3099 11.5652 8.3099 11.5352C8.3099 11.4552 8.3099 11.3852 8.3099 11.3052C8.3099 11.2452 8.3099 11.1952 8.3099 11.1352C8.3099 11.0752 8.3099 11.0252 8.3099 10.9652C8.3099 10.9452 8.3099 10.9352 8.3099 10.9152C8.3099 10.9052 8.3099 10.8952 8.3199 10.8852V10.8752C8.3199 10.8652 8.3299 10.8552 8.3399 10.8452C8.3499 10.8352 8.3599 10.8252 8.3699 10.8152C8.4099 10.7752 8.4599 10.7552 8.5299 10.7552C8.7699 10.7452 9.0099 10.7552 9.2499 10.7552C9.2799 10.7552 9.3099 10.7652 9.3399 10.7652C9.3599 10.7752 9.3899 10.7852 9.4099 10.8052C9.4299 10.8252 9.4399 10.8452 9.4599 10.8652C9.4699 10.8952 9.4799 10.9152 9.4799 10.9452C9.4799 11.1852 9.4799 11.4252 9.4699 11.6552ZM11.7699 11.4752C11.7699 11.5352 11.7699 11.5852 11.7699 11.6452C11.7699 11.6652 11.7699 11.6752 11.7699 11.6952C11.7599 11.7252 11.7499 11.7552 11.7299 11.7752C11.7199 11.7852 11.7199 11.7952 11.7099 11.7952C11.7099 11.8052 11.6999 11.8052 11.6999 11.8052C11.6899 11.8152 11.6899 11.8152 11.6799 11.8252L11.6699 11.8352C11.6599 11.8452 11.6499 11.8452 11.6299 11.8552C11.6199 11.8552 11.6099 11.8652 11.5999 11.8652H11.5899H11.5799C11.5699 11.8652 11.5499 11.8652 11.5299 11.8652C11.3099 11.8652 11.0899 11.8652 10.8599 11.8652C10.7799 11.8652 10.7099 11.8352 10.6599 11.7852C10.6399 11.7652 10.6199 11.7352 10.6099 11.7052C10.6099 11.6952 10.6099 11.6752 10.5999 11.6552C10.5899 11.4152 10.5899 11.1752 10.5999 10.9452C10.5999 10.9352 10.5999 10.9152 10.5999 10.9052C10.5999 10.8952 10.6099 10.8752 10.6099 10.8652C10.6099 10.8652 10.6099 10.8652 10.6099 10.8552C10.6099 10.8452 10.6199 10.8352 10.6299 10.8252C10.6399 10.8152 10.6499 10.8052 10.6599 10.7952C10.6999 10.7652 10.7499 10.7452 10.8199 10.7452C11.0599 10.7452 11.2999 10.7352 11.5399 10.7452C11.6099 10.7452 11.6699 10.7652 11.7099 10.8052C11.7499 10.8452 11.7699 10.8952 11.7699 10.9652V11.4752ZM11.7699 8.85516V9.02516C11.7699 9.08516 11.7699 9.13516 11.7699 9.19516C11.7699 9.21516 11.7699 9.22516 11.7699 9.24516C11.7699 9.25516 11.7599 9.27516 11.7599 9.28516C11.7599 9.30516 11.7499 9.31516 11.7299 9.33516C11.7299 9.34516 11.7199 9.34516 11.7199 9.35516C11.6899 9.39516 11.6299 9.40516 11.5599 9.41516C11.3099 9.42516 11.0699 9.42516 10.8199 9.41516C10.6899 9.41516 10.5999 9.33516 10.5999 9.20516C10.5999 8.97516 10.5999 8.75516 10.5999 8.52516C10.5999 8.47516 10.6099 8.42516 10.6399 8.39516C10.6499 8.38516 10.6599 8.37516 10.6699 8.36516C10.7099 8.32516 10.7699 8.30516 10.8499 8.30516C11.0799 8.30516 11.2999 8.30516 11.5299 8.30516C11.6099 8.30516 11.6699 8.32516 11.7099 8.36516C11.7499 8.40516 11.7699 8.46516 11.7799 8.53516C11.7699 8.64516 11.7699 8.74516 11.7699 8.85516Z" fill="#169668"/>
<path d="M13.5699 6.7051H4.38989C4.42989 6.2751 4.33989 5.8451 4.44989 5.4251C4.51989 5.1551 4.79989 4.9351 5.09989 4.9251C5.38989 4.9151 5.67989 4.9251 5.96989 4.9251C5.97989 4.9251 5.98989 4.9251 6.00989 4.9351V5.6651C6.00989 5.8851 6.11989 6.0051 6.29989 6.0051C6.47989 6.0051 6.58989 5.8851 6.58989 5.6651V4.9251H11.1699C11.1699 4.9551 11.1799 4.9851 11.1799 5.0151C11.1799 5.2451 11.1799 5.4851 11.1799 5.7251C11.1799 5.8551 11.2599 5.9551 11.3899 5.9851C11.4899 6.0151 11.6199 5.9851 11.6799 5.8851C11.7099 5.8351 11.7299 5.7551 11.7299 5.6951C11.7399 5.4751 11.7299 5.2451 11.7299 5.0251V4.9251C11.8499 4.9251 11.9699 4.9251 12.0799 4.9251C12.2999 4.9251 12.5099 4.9251 12.7299 4.9451C12.9799 4.9651 13.1999 5.0851 13.3699 5.2651C13.4799 5.3851 13.5599 5.5251 13.5599 5.6751C13.5799 6.0151 13.5699 6.3551 13.5699 6.7051Z" fill="#169668"/>
</g>
<defs>
<clipPath id="clip0_51_1403">
<rect width="16.23" height="16.23" fill="white" transform="translate(0.879883 0.88501)"/>
</clipPath>
</defs>
</svg>
