<svg width="18" height="18" viewBox="0 0 18 18" fill="none" xmlns="http://www.w3.org/2000/svg">
<g clip-path="url(#clip0_51_1224)">
<path d="M9 17.125C13.4846 17.125 17.12 13.4896 17.12 9.00501C17.12 4.52046 13.4846 0.88501 9 0.88501C4.51545 0.88501 0.880005 4.52046 0.880005 9.00501C0.880005 13.4896 4.51545 17.125 9 17.125Z" fill="#EFD4CE"/>
<path d="M4.40002 7.28516C4.40002 7.31516 4.40002 7.33516 4.40002 7.35516C4.40002 8.99516 4.40002 10.6352 4.40002 12.2752C4.40002 12.3752 4.42002 12.4852 4.45002 12.5852C4.55002 12.9052 4.83002 13.0852 5.21002 13.0852H12.59C12.61 13.0852 12.62 13.0852 12.64 13.0852C13.2 13.0752 13.61 12.6952 13.61 12.1752V7.28516H4.40002ZM8.30002 8.51516C8.30002 8.49516 8.30002 8.48516 8.30002 8.46516C8.31002 8.42516 8.33002 8.38516 8.37002 8.36516C8.37002 8.35516 8.38002 8.34516 8.39002 8.34516C8.40002 8.33516 8.41002 8.33516 8.42002 8.32516C8.43002 8.32516 8.43002 8.32516 8.44002 8.31516C8.47002 8.30516 8.50002 8.30516 8.53002 8.30516C8.76002 8.30516 9.00002 8.30516 9.23002 8.30516C9.30002 8.30516 9.36002 8.32516 9.40002 8.35516C9.41003 8.36516 9.42002 8.37516 9.43002 8.38516C9.44002 8.39516 9.44002 8.40516 9.45002 8.41516C9.46002 8.42516 9.46002 8.44516 9.46002 8.45516C9.46002 8.46516 9.46002 8.48516 9.46002 8.50516C9.46002 8.67516 9.47002 8.85516 9.46002 9.02516C9.46002 9.08516 9.46002 9.14516 9.46002 9.20516C9.46002 9.26516 9.44002 9.31516 9.40002 9.34516C9.38002 9.38516 9.33002 9.40516 9.26002 9.40516C9.01002 9.41516 8.77002 9.41516 8.52002 9.40516C8.45002 9.40516 8.40002 9.38516 8.36002 9.34516C8.34002 9.32516 8.32002 9.30516 8.31002 9.27516C8.30002 9.24516 8.30002 9.21516 8.30002 9.18516V8.85516C8.30002 8.78516 8.30002 8.71516 8.30002 8.64516C8.30002 8.60516 8.30002 8.55516 8.30002 8.51516ZM6.03002 8.52516C6.03002 8.38516 6.12002 8.30516 6.27002 8.30516C6.50002 8.30516 6.73002 8.30516 6.96002 8.30516C6.98002 8.30516 7.00002 8.30516 7.01002 8.30516C7.04002 8.30516 7.07002 8.31516 7.10002 8.33516C7.11002 8.34516 7.12002 8.34516 7.13002 8.35516C7.13002 8.35516 7.13002 8.35516 7.14002 8.36516C7.15002 8.36516 7.16002 8.37516 7.17002 8.38516C7.17002 8.39516 7.18002 8.41516 7.19002 8.42516C7.20002 8.43516 7.20002 8.45516 7.20002 8.46516C7.20002 8.47516 7.20002 8.49516 7.20002 8.50516C7.21002 8.72516 7.21002 8.94516 7.20002 9.16516C7.20002 9.20516 7.19002 9.23516 7.18002 9.26516C7.17002 9.29516 7.16002 9.32516 7.13002 9.34516C7.11002 9.36516 7.09002 9.37516 7.06002 9.38516C7.03002 9.39516 6.99002 9.40516 6.96002 9.40516C6.73002 9.41516 6.50002 9.41516 6.28002 9.40516C6.20002 9.40516 6.15002 9.38516 6.11002 9.34516C6.08002 9.33516 6.07002 9.32516 6.07002 9.31516C6.06002 9.29516 6.05002 9.28516 6.05002 9.27516C6.05002 9.26516 6.04002 9.25516 6.04002 9.23516C6.04002 9.21516 6.03002 9.19516 6.03002 9.17516C6.03002 9.06516 6.03002 8.96516 6.03002 8.85516C6.03002 8.79516 6.03002 8.74516 6.03002 8.68516C6.03002 8.63516 6.03002 8.57516 6.03002 8.52516ZM7.21002 11.6252C7.21002 11.7752 7.08002 11.8752 6.92002 11.8752C6.71002 11.8752 6.51002 11.8752 6.30002 11.8752C6.22002 11.8752 6.16002 11.8552 6.11002 11.8052C6.10002 11.7952 6.09002 11.7852 6.08002 11.7652C6.07002 11.7552 6.06002 11.7352 6.06002 11.7252C6.05002 11.7152 6.05002 11.6952 6.05002 11.6752C6.05002 11.6552 6.05002 11.6452 6.05002 11.6252C6.05002 11.5152 6.05002 11.4052 6.05002 11.2952C6.05002 11.1852 6.05002 11.0752 6.05002 10.9652C6.05002 10.9352 6.06002 10.9052 6.07002 10.8752C6.08002 10.8452 6.09002 10.8252 6.11002 10.8052C6.15002 10.7652 6.20002 10.7452 6.27002 10.7452C6.51002 10.7352 6.75002 10.7352 6.99002 10.7452C7.03002 10.7452 7.06002 10.7552 7.09002 10.7652C7.10002 10.7652 7.11002 10.7752 7.12002 10.7852C7.12002 10.7852 7.13002 10.7952 7.14002 10.8052C7.14002 10.8052 7.15002 10.8052 7.15002 10.8152C7.16002 10.8252 7.16002 10.8352 7.17002 10.8452C7.18002 10.8452 7.18002 10.8552 7.19002 10.8752C7.20002 10.8852 7.20002 10.9052 7.20002 10.9252C7.20002 10.9352 7.21002 10.9552 7.21002 10.9652C7.21002 11.1852 7.21002 11.4052 7.21002 11.6252ZM9.47002 11.6552C9.47002 11.6852 9.46002 11.7252 9.45002 11.7452C9.45002 11.7552 9.44002 11.7752 9.43002 11.7852C9.42002 11.7952 9.42002 11.8052 9.41002 11.8152C9.41002 11.8152 9.41003 11.8252 9.40002 11.8252C9.39002 11.8352 9.38002 11.8352 9.37002 11.8452C9.35002 11.8552 9.32002 11.8652 9.29002 11.8752C9.28002 11.8752 9.28003 11.8752 9.27002 11.8752C9.26002 11.8752 9.24002 11.8752 9.22002 11.8752C8.99002 11.8752 8.77002 11.8752 8.54002 11.8752C8.47002 11.8752 8.41002 11.8552 8.37002 11.8052L8.36002 11.7952L8.35002 11.7852C8.35002 11.7752 8.34002 11.7752 8.34002 11.7652C8.33002 11.7452 8.32002 11.7252 8.31002 11.7052C8.31002 11.6952 8.31002 11.6952 8.31002 11.6852C8.31002 11.6752 8.31002 11.6752 8.31002 11.6652C8.31002 11.6652 8.31002 11.6652 8.31002 11.6552V11.6452C8.31002 11.6052 8.31002 11.5652 8.31002 11.5352C8.31002 11.4552 8.31002 11.3852 8.31002 11.3052C8.31002 11.2452 8.31002 11.1952 8.31002 11.1352C8.31002 11.0752 8.31002 11.0252 8.31002 10.9652C8.31002 10.9452 8.31002 10.9352 8.31002 10.9152C8.31002 10.9052 8.31002 10.8952 8.32002 10.8852V10.8752C8.32002 10.8652 8.33002 10.8552 8.34002 10.8452C8.35002 10.8352 8.36002 10.8252 8.37002 10.8152C8.41002 10.7752 8.46002 10.7552 8.53002 10.7552C8.77002 10.7452 9.01002 10.7552 9.25002 10.7552C9.28002 10.7552 9.31002 10.7652 9.34002 10.7652C9.36002 10.7752 9.39002 10.7852 9.41002 10.8052C9.43002 10.8252 9.44002 10.8452 9.46002 10.8652C9.47002 10.8952 9.48002 10.9152 9.48002 10.9452C9.48002 11.1852 9.48002 11.4252 9.47002 11.6552ZM11.77 11.4752C11.77 11.5352 11.77 11.5852 11.77 11.6452C11.77 11.6652 11.77 11.6752 11.77 11.6952C11.76 11.7252 11.75 11.7552 11.73 11.7752C11.72 11.7852 11.72 11.7952 11.71 11.7952C11.71 11.8052 11.7 11.8052 11.7 11.8052C11.69 11.8152 11.69 11.8152 11.68 11.8252L11.67 11.8352C11.66 11.8452 11.65 11.8452 11.63 11.8552C11.62 11.8552 11.61 11.8652 11.6 11.8652H11.59H11.58C11.57 11.8652 11.55 11.8652 11.53 11.8652C11.31 11.8652 11.09 11.8652 10.86 11.8652C10.78 11.8652 10.71 11.8352 10.66 11.7852C10.64 11.7652 10.62 11.7352 10.61 11.7052C10.61 11.6952 10.61 11.6752 10.6 11.6552C10.59 11.4152 10.59 11.1752 10.6 10.9452C10.6 10.9352 10.6 10.9152 10.6 10.9052C10.6 10.8952 10.61 10.8752 10.61 10.8652C10.61 10.8652 10.61 10.8652 10.61 10.8552C10.61 10.8452 10.62 10.8352 10.63 10.8252C10.64 10.8152 10.65 10.8052 10.66 10.7952C10.7 10.7652 10.75 10.7452 10.82 10.7452C11.06 10.7452 11.3 10.7352 11.54 10.7452C11.61 10.7452 11.67 10.7652 11.71 10.8052C11.75 10.8452 11.77 10.8952 11.77 10.9652V11.4752ZM11.77 8.85516V9.02516C11.77 9.08516 11.77 9.13516 11.77 9.19516C11.77 9.21516 11.77 9.22516 11.77 9.24516C11.77 9.25516 11.76 9.27516 11.76 9.28516C11.76 9.30516 11.75 9.31516 11.73 9.33516C11.73 9.34516 11.72 9.34516 11.72 9.35516C11.69 9.39516 11.63 9.40516 11.56 9.41516C11.31 9.42516 11.07 9.42516 10.82 9.41516C10.69 9.41516 10.6 9.33516 10.6 9.20516C10.6 8.97516 10.6 8.75516 10.6 8.52516C10.6 8.47516 10.61 8.42516 10.64 8.39516C10.65 8.38516 10.66 8.37516 10.67 8.36516C10.71 8.32516 10.77 8.30516 10.85 8.30516C11.08 8.30516 11.3 8.30516 11.53 8.30516C11.61 8.30516 11.67 8.32516 11.71 8.36516C11.75 8.40516 11.77 8.46516 11.78 8.53516C11.77 8.64516 11.77 8.74516 11.77 8.85516Z" fill="#B14426"/>
<path d="M13.57 6.7051H4.39001C4.43001 6.2751 4.34001 5.8451 4.45001 5.4251C4.52001 5.1551 4.80001 4.9351 5.10001 4.9251C5.39001 4.9151 5.68001 4.9251 5.97001 4.9251C5.98001 4.9251 5.99001 4.9251 6.01001 4.9351V5.6651C6.01001 5.8851 6.12001 6.0051 6.30001 6.0051C6.48001 6.0051 6.59001 5.8851 6.59001 5.6651V4.9251H11.17C11.17 4.9551 11.18 4.9851 11.18 5.0151C11.18 5.2451 11.18 5.4851 11.18 5.7251C11.18 5.8551 11.26 5.9551 11.39 5.9851C11.49 6.0151 11.62 5.9851 11.68 5.8851C11.71 5.8351 11.73 5.7551 11.73 5.6951C11.74 5.4751 11.73 5.2451 11.73 5.0251V4.9251C11.85 4.9251 11.97 4.9251 12.08 4.9251C12.3 4.9251 12.51 4.9251 12.73 4.9451C12.98 4.9651 13.2 5.0851 13.37 5.2651C13.48 5.3851 13.56 5.5251 13.56 5.6751C13.58 6.0151 13.57 6.3551 13.57 6.7051Z" fill="#B14426"/>
</g>
<defs>
<clipPath id="clip0_51_1224">
<rect width="16.23" height="16.23" fill="white" transform="translate(0.880005 0.88501)"/>
</clipPath>
</defs>
</svg>
