<svg width="15" height="16" viewBox="0 0 15 16" fill="none" xmlns="http://www.w3.org/2000/svg">
<path d="M7.44 15.4401C11.549 15.4401 14.88 12.1091 14.88 8.00006C14.88 3.89106 11.549 0.560059 7.44 0.560059C3.331 0.560059 0 3.89106 0 8.00006C0 12.1091 3.331 15.4401 7.44 15.4401Z" fill="#CEEFEB"/>
<path d="M11.85 4.62011C11.75 4.72011 11.65 4.82011 11.55 4.93011C11.25 5.23011 10.96 5.52011 10.66 5.82011C10.53 5.95011 10.39 6.08011 10.26 6.22011C9.97004 6.51011 9.69004 6.80011 9.40004 7.09011C9.22004 7.27011 9.04004 7.45011 8.86004 7.64011C8.54004 7.96011 8.23004 8.28011 7.91004 8.60011C7.83004 8.68011 7.74004 8.77011 7.65004 8.85011C7.53004 8.95011 7.32004 8.93011 7.21004 8.82011C6.94004 8.54011 6.67004 8.27011 6.41004 8.01011C6.22004 7.82011 6.03004 7.64011 5.85004 7.45011C5.60004 7.20011 5.34004 6.94011 5.09004 6.69011C4.91004 6.51011 4.73004 6.33011 4.55004 6.14011C4.30004 5.89011 4.04004 5.63011 3.78004 5.37011C3.55004 5.14011 3.32004 4.91011 3.09004 4.68011C3.08004 4.67011 3.07004 4.65011 3.04004 4.62011C3.15004 4.60011 3.25004 4.57011 3.35004 4.56011C3.38004 4.55011 3.42004 4.56011 3.45004 4.56011C6.12004 4.56011 8.78004 4.56011 11.45 4.56011C11.58 4.56011 11.72 4.60011 11.85 4.61011C11.85 4.60011 11.85 4.61011 11.85 4.62011Z" fill="#169668"/>
<path d="M11.85 11.3702V11.4102C11.72 11.4302 11.58 11.4602 11.44 11.4602C9.20005 11.4602 6.96005 11.4602 4.72005 11.4602C4.28005 11.4602 3.85005 11.4602 3.41005 11.4602C3.29005 11.4602 3.17005 11.4302 3.05005 11.4102C3.05005 11.4002 3.05005 11.3802 3.05005 11.3702C3.15005 11.2702 3.25005 11.1602 3.35005 11.0602C3.43005 10.9802 3.52005 10.9002 3.60005 10.8102C3.82005 10.5802 4.05005 10.3502 4.28005 10.1202C4.53005 9.87016 4.78005 9.61015 5.03005 9.36015C5.22005 9.17015 5.41005 8.98016 5.59005 8.80016C5.71005 8.68016 5.83005 8.56016 5.95005 8.44016C5.99005 8.40016 6.01005 8.41016 6.04005 8.44016C6.19005 8.60016 6.34005 8.76016 6.50005 8.91016C6.66005 9.06016 6.81005 9.24016 6.99005 9.35016C7.33005 9.56016 7.69005 9.53016 8.01005 9.28016C8.11005 9.20016 8.20005 9.11016 8.29005 9.02016C8.49005 8.82016 8.69005 8.61016 8.89005 8.41016C9.00005 8.52016 9.11005 8.62016 9.22005 8.73016C9.44005 8.96016 9.67005 9.19016 9.89005 9.42016C10.14 9.67016 10.39 9.92016 10.64 10.1702C10.89 10.4202 11.14 10.6802 11.39 10.9302C11.55 11.0702 11.69 11.2202 11.85 11.3702Z" fill="#169668"/>
<path d="M5.57997 8.00001C5.46997 8.11001 5.37997 8.21001 5.27997 8.32001C5.19997 8.40001 5.10997 8.48001 5.02997 8.57001C4.80997 8.80001 4.57997 9.03001 4.35997 9.26001C4.10997 9.51001 3.84997 9.77001 3.59997 10.02C3.41997 10.2 3.22997 10.39 3.04997 10.57C2.92997 10.69 2.79997 10.81 2.67997 10.93C2.62997 10.98 2.59997 10.96 2.58997 10.9C2.56997 10.8 2.53997 10.71 2.53997 10.61C2.52997 8.86 2.52997 7.12001 2.53997 5.38001C2.53997 5.26001 2.57997 5.15001 2.59997 5.01001C2.63997 5.04001 2.65997 5.05001 2.66997 5.06001C2.82997 5.22001 2.98997 5.39001 3.13997 5.55001C3.40997 5.82001 3.68997 6.09001 3.95997 6.37001C4.10997 6.52001 4.25997 6.68001 4.41997 6.84001C4.62997 7.06001 4.84997 7.27001 5.06997 7.48001C5.23997 7.65001 5.40997 7.82001 5.57997 8.00001Z" fill="#169668"/>
<path d="M12.3501 5.42003V10.56C12.3501 10.7 12.3301 10.83 12.2701 10.97C12.1601 10.86 12.0501 10.75 11.9401 10.65C11.6601 10.37 11.3801 10.08 11.0901 9.79003C10.9001 9.60003 10.7201 9.41003 10.5301 9.23003C10.2801 8.98003 10.0201 8.72003 9.77006 8.47003C9.63006 8.33003 9.48006 8.19003 9.34006 8.05003C9.33006 8.04003 9.32006 8.02003 9.31006 8.01003C9.39006 7.93003 9.46006 7.84003 9.54006 7.76003C9.69006 7.61003 9.85006 7.46003 10.0001 7.31003C10.2801 7.03003 10.5601 6.74003 10.8401 6.45003C11.0201 6.27003 11.1901 6.10003 11.3701 5.92003C11.6701 5.63003 11.9601 5.33003 12.2601 5.03003C12.3301 5.16003 12.3501 5.29003 12.3501 5.42003Z" fill="#169668"/>
</svg>
