<svg width="15" height="16" viewBox="0 0 15 16" fill="none" xmlns="http://www.w3.org/2000/svg">
<path d="M7.44 15.4401C11.549 15.4401 14.88 12.1091 14.88 8.00006C14.88 3.89106 11.549 0.560059 7.44 0.560059C3.331 0.560059 0 3.89106 0 8.00006C0 12.1091 3.331 15.4401 7.44 15.4401Z" fill="#EFD4CE"/>
<path d="M10.23 12.3502C9.55 12.7802 8.8 13.0402 7.99001 13.1202C7.76 13.1402 7.54 13.1502 7.32 13.1602C6.36 13.1202 5.48 12.8602 4.66 12.3702C3.76 11.8202 3.59 10.6002 4.31 9.82023C5.00001 9.08023 5.85 8.62023 6.85 8.49023C8.32 8.31023 9.57001 8.76023 10.58 9.84023C11.28 10.5902 11.11 11.8102 10.23 12.3502Z" fill="#B14426"/>
<path d="M9.51998 5.76017C9.51998 6.90017 8.57998 7.84017 7.44998 7.84017C6.27998 7.84017 5.35998 6.91017 5.34998 5.73017C5.34998 4.61017 6.29998 3.67017 7.42998 3.67017C8.58998 3.67017 9.51998 4.60017 9.51998 5.76017Z" fill="#B14426"/>
</svg>
