<svg width="15" height="16" viewBox="0 0 15 16" fill="none" xmlns="http://www.w3.org/2000/svg">
<path d="M7.44 15.4401C11.549 15.4401 14.88 12.1091 14.88 8.00006C14.88 3.89106 11.549 0.560059 7.44 0.560059C3.331 0.560059 0 3.89106 0 8.00006C0 12.1091 3.331 15.4401 7.44 15.4401Z" fill="#CEEFEB"/>
<path d="M12.2099 7.52007C12.1299 7.85007 11.8199 8.11006 11.4799 8.17006C11.3699 8.19006 11.2499 8.19007 11.1199 8.20007V11.0101C11.1199 11.2401 11.0799 11.4401 10.9499 11.6301C10.8299 11.8001 10.6799 11.9301 10.4999 12.0101C10.3899 12.0501 10.2699 12.0801 10.1499 12.1201H8.30991C8.12991 12.0501 8.04991 11.9301 8.04991 11.7301C8.05991 11.0401 8.03991 10.3401 8.05991 9.65007C8.06991 9.31007 7.83991 9.11007 7.55991 9.11007C7.22991 9.10007 6.90991 9.10007 6.58991 9.11007C6.30991 9.11007 6.06991 9.31007 6.07991 9.66007C6.09991 10.3501 6.07991 11.0601 6.08991 11.7601C6.08991 11.9501 6.03991 12.0501 5.82991 12.1301H3.98991C3.85991 12.0901 3.72991 12.0501 3.59991 12.0001C3.31991 11.8701 3.12991 11.6401 3.04991 11.3301C3.01991 11.2401 3.01991 11.1301 3.01991 11.0301V8.20007C2.92991 8.20007 2.85991 8.21007 2.78991 8.20007C2.45991 8.17007 2.17991 8.02007 2.00991 7.70007C1.97991 7.62007 1.94991 7.53007 1.90991 7.45007V7.19007C1.91991 7.16007 1.92991 7.13007 1.92991 7.11007C1.98991 6.98007 2.04991 6.84006 2.13991 6.74006C2.31991 6.55006 2.50991 6.38007 2.70991 6.20007C2.83991 6.08007 2.96991 5.96007 3.08991 5.84007C3.34991 5.60007 3.59991 5.36007 3.85991 5.12007C3.97991 5.01007 4.08991 4.90007 4.20991 4.79007C4.44991 4.57007 4.69991 4.36007 4.93991 4.13007C5.12991 3.95007 5.30991 3.77007 5.50991 3.59007C5.79991 3.32007 6.09991 3.05006 6.38991 2.78006C6.56991 2.60006 6.78991 2.52006 7.02991 2.50006C7.34991 2.48006 7.60991 2.61007 7.83991 2.83007C7.96991 2.96007 8.09991 3.09006 8.23991 3.21006C8.49991 3.44006 8.73991 3.67007 8.99991 3.90007C9.11991 4.02007 9.24991 4.13006 9.36991 4.25006C9.60991 4.48006 9.84991 4.69006 10.0899 4.92006C10.2799 5.10006 10.4599 5.27006 10.6599 5.46006C10.9199 5.70006 11.1899 5.95007 11.4399 6.19007C11.5799 6.31007 11.7099 6.42007 11.8299 6.54007C11.9499 6.66007 12.0699 6.78006 12.1599 6.92006C12.2499 7.11006 12.2499 7.32007 12.2099 7.52007Z" fill="#169668"/>
</svg>
