<svg width="15" height="13" viewBox="0 0 15 13" fill="none" xmlns="http://www.w3.org/2000/svg">
<path d="M14.22 6.8107C14.12 7.2407 13.71 7.5907 13.27 7.6607C13.12 7.6807 12.97 7.6807 12.8 7.7007V11.3707C12.8 11.6707 12.75 11.9407 12.58 12.1807C12.42 12.4007 12.23 12.5707 11.99 12.6707C11.84 12.7207 11.69 12.7607 11.53 12.8107H9.12C8.88 12.7207 8.79 12.5607 8.79 12.3007C8.8 11.3907 8.78 10.4807 8.8 9.5807C8.81 9.1307 8.52 8.8807 8.14 8.8707C7.71 8.8607 7.3 8.8607 6.87 8.8707C6.51 8.8707 6.19 9.1307 6.2 9.5907C6.22 10.5007 6.2 11.4207 6.21 12.3307C6.21 12.5807 6.15 12.7107 5.88 12.8107H3.47C3.3 12.7607 3.13 12.7107 2.96 12.6407C2.6 12.4607 2.35 12.1707 2.24 11.7707C2.2 11.6507 2.2 11.5107 2.2 11.3807V7.6807C2.09 7.6807 1.99 7.6907 1.9 7.6807C1.46 7.6407 1.1 7.4507 0.88 7.0307C0.84 6.9207 0.8 6.8107 0.75 6.7007V6.3607C0.76 6.3307 0.77 6.2807 0.78 6.2607C0.86 6.1007 0.94 5.9107 1.05 5.7807C1.29 5.5307 1.55 5.3107 1.8 5.0807C1.96 4.9307 2.13 4.7607 2.3 4.6107C2.63 4.2907 2.97 3.9907 3.31 3.6707C3.46 3.5307 3.61 3.3907 3.77 3.2307C4.08 2.9507 4.4 2.6607 4.71 2.3707C4.96 2.1407 5.2 1.9007 5.45 1.6707C5.83 1.3207 6.22 0.970697 6.6 0.610697C6.84 0.380697 7.12 0.270697 7.43 0.250697C7.85 0.230697 8.19 0.390697 8.49 0.690697C8.66 0.860697 8.83 1.0307 9.01 1.1907C9.34 1.5007 9.67 1.7907 10 2.1007C10.16 2.2507 10.32 2.4107 10.49 2.5607C10.8 2.8607 11.12 3.1407 11.43 3.4307C11.68 3.6607 11.92 3.8907 12.17 4.1307C12.51 4.4507 12.86 4.7607 13.19 5.0807C13.37 5.2307 13.54 5.3807 13.7 5.5407C13.86 5.6907 14.01 5.8607 14.13 6.0407C14.27 6.2707 14.28 6.5507 14.22 6.8107Z" fill="white"/>
</svg>
