<svg width="14" height="14" viewBox="0 0 14 14" fill="none" xmlns="http://www.w3.org/2000/svg">
<path d="M0.205078 4.46289C0.205078 4.50725 0.205078 4.53683 0.205078 4.5664C0.205078 6.99154 0.205078 9.41668 0.205078 11.8418C0.205078 11.9897 0.234653 12.1524 0.279015 12.3002C0.42689 12.7734 0.840938 13.0396 1.40286 13.0396H12.316C12.3456 13.0396 12.3603 13.0396 12.3899 13.0396C13.218 13.0248 13.8243 12.4629 13.8243 11.6939V4.46289H0.205078ZM5.97218 6.28174C5.97218 6.25217 5.97218 6.23738 5.97218 6.20781C5.98696 6.14866 6.01654 6.08951 6.07569 6.05993C6.07569 6.04515 6.09048 6.03036 6.10526 6.03036C6.12005 6.01557 6.13484 6.01557 6.14963 6.00078C6.16441 6.00078 6.16441 6.00078 6.1792 5.986C6.22356 5.97121 6.26792 5.97121 6.31229 5.97121C6.6524 5.97121 7.0073 5.97121 7.34741 5.97121C7.45092 5.97121 7.53964 6.00078 7.59879 6.04515C7.61358 6.05993 7.62837 6.07472 7.64316 6.08951C7.65794 6.1043 7.65794 6.11908 7.67273 6.13387C7.68752 6.14866 7.68752 6.17823 7.68752 6.19302C7.68752 6.20781 7.68752 6.23738 7.68752 6.26696C7.68752 6.51834 7.70231 6.78452 7.68752 7.0359C7.68752 7.12463 7.68752 7.21335 7.68752 7.30208C7.68752 7.3908 7.65794 7.46474 7.59879 7.5091C7.56922 7.56825 7.49528 7.59783 7.39177 7.59783C7.02208 7.61261 6.66719 7.61261 6.2975 7.59783C6.19399 7.59783 6.12005 7.56825 6.0609 7.5091C6.03133 7.47953 6.00175 7.44995 5.98696 7.40559C5.97218 7.36123 5.97218 7.31686 5.97218 7.2725V6.78452C5.97218 6.681 5.97218 6.57749 5.97218 6.47398C5.97218 6.41483 5.97218 6.34089 5.97218 6.28174ZM2.61543 6.29653C2.61543 6.08951 2.74852 5.97121 2.97033 5.97121C3.31044 5.97121 3.65055 5.97121 3.99066 5.97121C4.02024 5.97121 4.04981 5.97121 4.0646 5.97121C4.10896 5.97121 4.15332 5.986 4.19768 6.01557C4.21247 6.03036 4.22726 6.03036 4.24205 6.04515C4.24205 6.04515 4.24205 6.04515 4.25683 6.05993C4.27162 6.05993 4.28641 6.07472 4.3012 6.08951C4.3012 6.1043 4.31598 6.13387 4.33077 6.14866C4.34556 6.16344 4.34556 6.19302 4.34556 6.20781C4.34556 6.22259 4.34556 6.25217 4.34556 6.26696C4.36035 6.59228 4.36035 6.9176 4.34556 7.24293C4.34556 7.30208 4.33077 7.34644 4.31598 7.3908C4.3012 7.43516 4.28641 7.47953 4.24205 7.5091C4.21247 7.53868 4.1829 7.55346 4.13853 7.56825C4.09417 7.58304 4.03502 7.59783 3.99066 7.59783C3.65055 7.61261 3.31044 7.61261 2.98512 7.59783C2.86682 7.59783 2.79288 7.56825 2.73373 7.5091C2.68937 7.49431 2.67458 7.47953 2.67458 7.46474C2.65979 7.43516 2.645 7.42038 2.645 7.40559C2.645 7.3908 2.63022 7.37601 2.63022 7.34644C2.63022 7.31687 2.61543 7.28729 2.61543 7.25771C2.61543 7.09505 2.61543 6.94718 2.61543 6.78452C2.61543 6.69579 2.61543 6.62186 2.61543 6.53313C2.61543 6.45919 2.61543 6.37047 2.61543 6.29653ZM4.36035 10.8806C4.36035 11.1024 4.16811 11.2503 3.93151 11.2503C3.62097 11.2503 3.32523 11.2503 3.01469 11.2503C2.89639 11.2503 2.80767 11.2207 2.73373 11.1468C2.71894 11.132 2.70415 11.1172 2.68937 11.0877C2.67458 11.0729 2.65979 11.0433 2.65979 11.0285C2.645 11.0137 2.645 10.9841 2.645 10.9546C2.645 10.925 2.645 10.9102 2.645 10.8806C2.645 10.718 2.645 10.5553 2.645 10.3927C2.645 10.23 2.645 10.0673 2.645 9.90466C2.645 9.8603 2.65979 9.81594 2.67458 9.77158C2.68937 9.72722 2.70415 9.69764 2.73373 9.66807C2.79288 9.60892 2.86682 9.57934 2.97033 9.57934C3.32523 9.56455 3.68012 9.56455 4.03502 9.57934C4.09417 9.57934 4.13853 9.59413 4.1829 9.60892C4.19768 9.60892 4.21247 9.6237 4.22726 9.63849C4.22726 9.63849 4.24205 9.65328 4.25683 9.66807C4.25683 9.66807 4.27162 9.66807 4.27162 9.68285C4.28641 9.69764 4.28641 9.71243 4.3012 9.72722C4.31598 9.72722 4.31598 9.742 4.33077 9.77158C4.34556 9.78637 4.34556 9.81594 4.34556 9.84552C4.34556 9.8603 4.36035 9.88988 4.36035 9.90466C4.36035 10.23 4.36035 10.5553 4.36035 10.8806ZM7.70231 10.925C7.70231 10.9694 7.68752 11.0285 7.67273 11.0581C7.67273 11.0729 7.65794 11.1024 7.64316 11.1172C7.62837 11.132 7.62837 11.1468 7.61358 11.1616C7.61358 11.1616 7.61358 11.1764 7.59879 11.1764C7.58401 11.1912 7.56922 11.1912 7.55443 11.206C7.52486 11.2207 7.48049 11.2355 7.43613 11.2503C7.42134 11.2503 7.42134 11.2503 7.40656 11.2503C7.39177 11.2503 7.3622 11.2503 7.33262 11.2503C6.99251 11.2503 6.66719 11.2503 6.32707 11.2503C6.22356 11.2503 6.13484 11.2207 6.07569 11.1468L6.0609 11.132L6.04611 11.1172C6.04611 11.1024 6.03133 11.1024 6.03133 11.0877C6.01654 11.0581 6.00175 11.0285 5.98696 10.9989C5.98696 10.9841 5.98696 10.9841 5.98696 10.9694C5.98696 10.9546 5.98696 10.9546 5.98696 10.9398C5.98696 10.9398 5.98696 10.9398 5.98696 10.925V10.9102C5.98696 10.8511 5.98696 10.7919 5.98696 10.7475C5.98696 10.6292 5.98696 10.5257 5.98696 10.4074C5.98696 10.3187 5.98696 10.2448 5.98696 10.1561C5.98696 10.0673 5.98696 9.99339 5.98696 9.90466C5.98696 9.87509 5.98696 9.8603 5.98696 9.83073C5.98696 9.81594 5.98696 9.80115 6.00175 9.78637V9.77158C6.00175 9.75679 6.01654 9.742 6.03133 9.72722C6.04611 9.71243 6.0609 9.69764 6.07569 9.68285C6.13484 9.6237 6.20878 9.59413 6.31229 9.59413C6.66719 9.57934 7.02208 9.59413 7.37698 9.59413C7.42134 9.59413 7.46571 9.60892 7.51007 9.60892C7.53964 9.6237 7.58401 9.63849 7.61358 9.66807C7.64316 9.69764 7.65794 9.72722 7.68752 9.75679C7.70231 9.80115 7.71709 9.83073 7.71709 9.87509C7.71709 10.23 7.71709 10.5849 7.70231 10.925ZM11.1034 10.6588C11.1034 10.7475 11.1034 10.8215 11.1034 10.9102C11.1034 10.9398 11.1034 10.9546 11.1034 10.9841C11.0886 11.0285 11.0738 11.0729 11.0443 11.1024C11.0295 11.1172 11.0295 11.132 11.0147 11.132C11.0147 11.1468 10.9999 11.1468 10.9999 11.1468C10.9851 11.1616 10.9851 11.1616 10.9703 11.1764L10.9555 11.1912C10.9408 11.206 10.926 11.206 10.8964 11.2207C10.8816 11.2207 10.8668 11.2355 10.852 11.2355H10.8372H10.8225C10.8077 11.2355 10.7781 11.2355 10.7485 11.2355C10.4232 11.2355 10.0979 11.2355 9.75776 11.2355C9.63946 11.2355 9.53595 11.1912 9.46201 11.1172C9.43243 11.0877 9.40286 11.0433 9.38807 10.9989C9.38807 10.9841 9.38807 10.9546 9.37329 10.925C9.3585 10.5701 9.3585 10.2152 9.37329 9.87509C9.37329 9.8603 9.37329 9.83073 9.37329 9.81594C9.37329 9.80115 9.38807 9.77158 9.38807 9.75679C9.38807 9.75679 9.38807 9.75679 9.38807 9.742C9.38807 9.72722 9.40286 9.71243 9.41765 9.69764C9.43244 9.68285 9.44722 9.66807 9.46201 9.65328C9.52116 9.60892 9.5951 9.57934 9.69861 9.57934C10.0535 9.57934 10.4084 9.56455 10.7633 9.57934C10.8668 9.57934 10.9555 9.60892 11.0147 9.66807C11.0738 9.72722 11.1034 9.80115 11.1034 9.90466V10.6588ZM11.1034 6.78452V7.0359C11.1034 7.12463 11.1034 7.19857 11.1034 7.28729C11.1034 7.31687 11.1034 7.33165 11.1034 7.36123C11.1034 7.37601 11.0886 7.40559 11.0886 7.42038C11.0886 7.44995 11.0738 7.46474 11.0443 7.49431C11.0443 7.5091 11.0295 7.5091 11.0295 7.52389C10.9851 7.58304 10.8964 7.59783 10.7929 7.61261C10.4232 7.6274 10.0683 7.6274 9.69861 7.61261C9.50637 7.61261 9.37329 7.49431 9.37329 7.30208C9.37329 6.96197 9.37329 6.63664 9.37329 6.29653C9.37329 6.22259 9.38807 6.14866 9.43244 6.1043C9.44722 6.08951 9.46201 6.07472 9.4768 6.05993C9.53595 6.00078 9.62467 5.97121 9.74297 5.97121C10.0831 5.97121 10.4084 5.97121 10.7485 5.97121C10.8668 5.97121 10.9555 6.00078 11.0147 6.05993C11.0738 6.11908 11.1034 6.20781 11.1182 6.31132C11.1034 6.47398 11.1034 6.62186 11.1034 6.78452Z" fill="white"/>
<path d="M13.7653 3.60553H0.19043C0.249579 2.96967 0.116492 2.33381 0.279154 1.71274C0.382666 1.31348 0.796714 0.988156 1.24034 0.973369C1.66917 0.958582 2.09801 0.973369 2.52684 0.973369C2.54163 0.973369 2.55642 0.973369 2.58599 0.988157V2.06764C2.58599 2.39296 2.74866 2.57041 3.01483 2.57041C3.281 2.57041 3.44366 2.39296 3.44366 2.06764V0.973369H10.2163C10.2163 1.01773 10.2311 1.06209 10.2311 1.10646C10.2311 1.44657 10.2311 1.80147 10.2311 2.15636C10.2311 2.3486 10.3494 2.49647 10.5416 2.54084C10.6895 2.5852 10.8817 2.54084 10.9705 2.39296C11.0148 2.31903 11.0444 2.20073 11.0444 2.112C11.0592 1.78668 11.0444 1.44657 11.0444 1.12124V0.973369C11.2219 0.973369 11.3993 0.973369 11.562 0.973369C11.8873 0.973369 12.1978 0.973369 12.5231 1.00294C12.8928 1.03252 13.2182 1.20997 13.4695 1.47614C13.6322 1.65359 13.7505 1.86061 13.7505 2.08243C13.7801 2.5852 13.7653 3.08797 13.7653 3.60553Z" fill="white"/>
</svg>
