<svg width="16" height="16" viewBox="0 0 16 16" fill="none" xmlns="http://www.w3.org/2000/svg">
<path d="M15.5371 12.5212V12.5951C15.5371 12.6394 15.5223 12.6837 15.5075 12.7281C15.478 13.0975 15.3302 13.4226 15.079 13.6886C14.6504 14.1468 14.1923 14.5754 13.7489 15.0335C13.5568 15.2108 13.3351 15.3882 13.0691 15.4768C12.8918 15.5359 12.6701 15.5803 12.478 15.6394H11.7982C11.4878 15.5655 11.1923 15.5212 10.8819 15.4473C10.0839 15.2404 9.31541 14.8857 8.59127 14.4571C6.68487 13.334 5.04447 11.9005 3.61098 10.2157C2.69472 9.16648 1.91147 8.04333 1.29078 6.78717C0.891764 6.00392 0.581419 5.19111 0.492749 4.31919C0.404079 3.68372 0.389301 3.0187 0.817872 2.51623C1.37945 1.86599 2.00014 1.27485 2.63561 0.698497C2.82772 0.535936 3.09373 0.447266 3.35974 0.447266C3.68487 0.447266 4.00999 0.550715 4.26122 0.728055C4.37945 0.801946 4.4829 0.890617 4.58635 0.994065C5.23659 1.64431 5.87206 2.29456 6.52231 2.94481C7.0691 3.4916 7.12822 4.30441 6.68487 4.86599C6.53708 5.05811 6.33019 5.22067 6.09373 5.30934C5.66516 5.4719 5.35482 5.72313 5.1627 6.13693C5.04447 6.40294 5.0297 6.66894 5.10359 6.94973C5.2957 7.73298 5.73906 8.39801 6.2563 8.98914C6.86221 9.68372 7.54201 10.2749 8.38437 10.6886C8.73905 10.8512 9.09373 10.999 9.49275 10.9399C10.01 10.866 10.3942 10.6148 10.6159 10.1419C10.7341 9.93495 10.808 9.68372 10.9558 9.52116C11.4583 8.95958 12.3154 8.90047 12.9065 9.38815C12.9657 9.43249 13.0248 9.50638 13.0839 9.55072L15.0198 11.5015C15.2859 11.7675 15.478 12.0778 15.4928 12.4916C15.5223 12.4768 15.5371 12.5064 15.5371 12.5212Z" fill="white"/>
</svg>
