<svg width="17" height="16" viewBox="0 0 17 16" fill="none" xmlns="http://www.w3.org/2000/svg">
<path d="M16.6935 8.22503C16.5644 8.75729 16.0644 9.17664 15.516 9.27341C15.3386 9.30567 15.1451 9.30568 14.9354 9.32181V13.8541C14.9354 14.225 14.8709 14.5476 14.6612 14.8541C14.4677 15.1283 14.2257 15.3379 13.9354 15.467C13.758 15.5315 13.5644 15.5799 13.3709 15.6444H10.4031C10.1128 15.5315 9.98379 15.3379 9.98379 15.0154C9.99992 13.9024 9.96766 12.7734 9.99992 11.6605C10.016 11.1121 9.64508 10.7895 9.19347 10.7895C8.66121 10.7734 8.14508 10.7734 7.62895 10.7895C7.17734 10.7895 6.79024 11.1121 6.80637 11.6766C6.83863 12.7895 6.80637 13.9347 6.8225 15.0637C6.8225 15.3702 6.74186 15.5315 6.40315 15.6605H3.4354C3.22573 15.596 3.01605 15.5315 2.80637 15.4508C2.35476 15.2412 2.04831 14.8702 1.91928 14.3702C1.87089 14.225 1.87089 14.0476 1.87089 13.8863V9.32181C1.72573 9.32181 1.61282 9.33794 1.49992 9.32181C0.967663 9.27342 0.51605 9.03149 0.241857 8.51536C0.19347 8.38632 0.145083 8.24116 0.0805664 8.11213V7.69277C0.0966954 7.64439 0.112824 7.596 0.112824 7.56374C0.209599 7.35406 0.306373 7.12825 0.451534 6.96696C0.741857 6.66051 1.04831 6.38633 1.37089 6.096C1.58057 5.90245 1.79024 5.70891 1.98379 5.51536C2.40315 5.12826 2.80637 4.74116 3.22573 4.35406C3.41928 4.17665 3.59669 3.99922 3.79024 3.8218C4.17734 3.46697 4.58057 3.12826 4.96766 2.75729C5.27411 2.46697 5.56444 2.17665 5.88702 1.88633C6.35476 1.45084 6.83863 1.01535 7.30637 0.579866C7.59669 0.289543 7.95153 0.160513 8.33863 0.128255C8.85476 0.095997 9.27411 0.305677 9.64508 0.660516C9.85476 0.870193 10.0644 1.07987 10.2902 1.27341C10.7096 1.64438 11.0967 2.01535 11.516 2.38632C11.7096 2.57987 11.9193 2.75729 12.1128 2.95083C12.4999 3.3218 12.887 3.66051 13.2741 4.03148C13.5806 4.3218 13.8709 4.59599 14.1935 4.90245C14.6128 5.28954 15.0483 5.69277 15.4515 6.07987C15.6773 6.27342 15.887 6.45084 16.0806 6.64438C16.2741 6.83793 16.4677 7.03148 16.6128 7.25728C16.758 7.56373 16.758 7.90245 16.6935 8.22503Z" fill="#FDFEFF"/>
</svg>
