<svg width="23" height="20" viewBox="0 0 23 20" fill="none" xmlns="http://www.w3.org/2000/svg">
<g filter="url(#filter0_d_282_2303)">
<path d="M18.5101 13.2405C18.0601 13.6905 17.6101 14.1405 17.1601 14.5905C16.8401 14.9105 16.4401 15.0705 16.0001 15.1305C15.9601 15.1405 15.9301 15.1505 15.8901 15.1605H15.2801C14.9101 15.0805 14.5401 15.0205 14.1801 14.9205C13.4401 14.7205 12.7501 14.3805 12.0901 14.0005C10.2101 12.9105 8.60007 11.5005 7.18007 9.87055C6.25007 8.82055 5.44007 7.68055 4.82007 6.42055C4.44007 5.64055 4.14007 4.84055 4.03007 3.97055C3.97007 3.43055 3.99007 2.89055 4.25007 2.39055C4.34007 2.23055 4.45007 2.08055 4.57007 1.96055C5.00007 1.51055 5.45007 1.08055 5.89007 0.630548C6.49007 0.0105482 7.43007 0.0805482 8.00007 0.630548C8.69007 1.30055 9.35007 1.97055 10.0201 2.65055C10.6101 3.24055 10.6101 4.14055 10.0301 4.68055C9.91007 4.80055 9.75007 4.89055 9.59007 4.95055C9.18007 5.11055 8.86007 5.36055 8.68007 5.77055C8.56007 6.04055 8.55007 6.32055 8.62007 6.61055C8.84007 7.42055 9.30007 8.09055 9.86007 8.70055C10.4301 9.34055 11.0901 9.88055 11.8701 10.2605C12.2101 10.4305 12.5601 10.5805 12.9601 10.5305C13.4901 10.4605 13.9001 10.2005 14.1101 9.69055C14.2401 9.37055 14.4001 9.08055 14.7001 8.89055C15.2701 8.54055 15.9601 8.60055 16.4601 9.09055C17.1601 9.77055 17.8601 10.4605 18.5401 11.1705C19.1001 11.7405 19.0801 12.6605 18.5101 13.2405Z" fill="white"/>
</g>
<defs>
<filter id="filter0_d_282_2303" x="0.00195312" y="0.191406" width="22.9473" height="22.9688" filterUnits="userSpaceOnUse" color-interpolation-filters="sRGB">
<feFlood flood-opacity="0" result="BackgroundImageFix"/>
<feColorMatrix in="SourceAlpha" type="matrix" values="0 0 0 0 0 0 0 0 0 0 0 0 0 0 0 0 0 0 127 0" result="hardAlpha"/>
<feOffset dy="4"/>
<feGaussianBlur stdDeviation="2"/>
<feComposite in2="hardAlpha" operator="out"/>
<feColorMatrix type="matrix" values="0 0 0 0 0 0 0 0 0 0 0 0 0 0 0 0 0 0 0.25 0"/>
<feBlend mode="normal" in2="BackgroundImageFix" result="effect1_dropShadow_282_2303"/>
<feBlend mode="normal" in="SourceGraphic" in2="effect1_dropShadow_282_2303" result="shape"/>
</filter>
</defs>
</svg>
