<svg width="24" height="24" viewBox="0 0 24 24" fill="none" xmlns="http://www.w3.org/2000/svg">
<path d="M10.7882 19.2651L10.7874 19.2645C8.30989 17.0179 6.2937 15.1863 4.89104 13.4702C3.49388 11.7609 2.75781 10.2274 2.75781 8.58529C2.75781 5.90077 4.85253 3.81445 7.52865 3.81445C9.04499 3.81445 10.5086 4.52293 11.4617 5.63343L11.8411 6.0755L12.2206 5.63343C13.1737 4.52293 14.6373 3.81445 16.1536 3.81445C18.8298 3.81445 20.9245 5.90077 20.9245 8.58529C20.9245 10.2274 20.1884 11.7609 18.7913 13.4702C17.3886 15.1863 15.3724 17.0179 12.8949 19.2645L12.8941 19.2651L11.8411 20.2237L10.7882 19.2651Z" stroke="#fff"/>
</svg>
