<svg width="25" height="25" viewBox="0 0 25 25" fill="none" xmlns="http://www.w3.org/2000/svg">
<path fill-rule="evenodd" clip-rule="evenodd" d="M21.5154 15.973L22.2754 21.253C22.3302 21.6595 22.2066 22.07 21.9364 22.3786C21.6661 22.6872 21.2756 22.8638 20.8654 22.863H20.6554L15.3754 22.103C14.6597 22.0043 13.9959 21.6742 13.4854 21.163L3.74536 11.413C1.8505 9.45112 1.8776 6.33259 3.80626 4.40392C5.73493 2.47525 8.85346 2.44815 10.8154 4.34301L20.5754 14.083C21.0866 14.5935 21.4167 15.2573 21.5154 15.973ZM14.5954 20.103C14.8719 20.3686 15.2191 20.5491 15.5954 20.623L20.8054 21.313L20.0754 16.143C20.0015 15.7667 19.821 15.4196 19.5554 15.143L9.80536 5.40301C9.14842 4.72859 8.24686 4.34819 7.30536 4.34819C6.36386 4.34819 5.4623 4.72859 4.80536 5.40301C4.14644 6.05809 3.77594 6.94887 3.77594 7.87801C3.77594 8.80715 4.14644 9.69794 4.80536 10.353L14.5954 20.103Z" fill="#00b14f"/>
<path d="M7.77536 7.31301C7.47985 7.03765 7.01935 7.04578 6.73374 7.33139C6.44812 7.617 6.44 8.0775 6.71536 8.37301L10.9254 12.583C11.2182 12.8755 11.6925 12.8755 11.9854 12.583C12.2778 12.2902 12.2778 11.8158 11.9854 11.523L7.77536 7.31301Z" fill="#00b14f"/>
</svg>
