<svg width="25" height="25" viewBox="0 0 25 25" fill="none" xmlns="http://www.w3.org/2000/svg">
<path fill-rule="evenodd" clip-rule="evenodd" d="M18.3418 4.93945H6.3418C4.13266 4.93945 2.3418 6.73031 2.3418 8.93945V17.9395C2.3418 20.1486 4.13266 21.9395 6.3418 21.9395H18.3418C20.5509 21.9395 22.3418 20.1486 22.3418 17.9395V8.93945C22.3418 6.73031 20.5509 4.93945 18.3418 4.93945ZM6.3418 6.52945H18.3418C19.4075 6.53149 20.3443 7.23608 20.6418 8.25945L13.1018 13.8495C12.8952 14.0515 12.615 14.1604 12.3261 14.151C12.0373 14.1415 11.7648 14.0146 11.5718 13.7995L4.0618 8.26945C4.35355 7.24918 5.2807 6.54162 6.3418 6.52945ZM3.9318 17.9395C3.9318 19.2705 5.01079 20.3495 6.3418 20.3495H18.3418C19.6689 20.3439 20.7418 19.2666 20.7418 17.9395V9.90945L13.9418 14.9095C13.5072 15.314 12.9356 15.5391 12.3418 15.5395C11.7245 15.5296 11.1329 15.2908 10.6818 14.8695L3.9318 9.86945V17.9395Z" fill="#00b14f"/>
</svg>
