<svg width="25" height="25" viewBox="0 0 25 25" fill="none" xmlns="http://www.w3.org/2000/svg">
<path d="M18.3418 7.93945H6.3418V3.93945H18.3418V7.93945ZM18.3418 13.4395C18.6251 13.4395 18.8628 13.3435 19.0548 13.1515C19.2468 12.9595 19.3425 12.7221 19.3418 12.4395C19.3418 12.1561 19.2458 11.9188 19.0538 11.7275C18.8618 11.5361 18.6245 11.4401 18.3418 11.4395C18.0585 11.4395 17.8211 11.5355 17.6298 11.7275C17.4385 11.9195 17.3425 12.1568 17.3418 12.4395C17.3418 12.7228 17.4378 12.9605 17.6298 13.1525C17.8218 13.3445 18.0591 13.4401 18.3418 13.4395ZM16.3418 19.9395V15.9395H8.3418V19.9395H16.3418ZM18.3418 21.9395H6.3418V17.9395H2.3418V11.9395C2.3418 11.0895 2.63346 10.3771 3.2168 9.80245C3.80013 9.22779 4.50846 8.94012 5.3418 8.93945H19.3418C20.1918 8.93945 20.9045 9.22712 21.4798 9.80245C22.0551 10.3778 22.3425 11.0901 22.3418 11.9395V17.9395H18.3418V21.9395Z" fill="#00b14f"/>
</svg>
