<svg width="34" height="33" viewBox="0 0 34 33" fill="none" xmlns="http://www.w3.org/2000/svg">
<path fill-rule="evenodd" clip-rule="evenodd" d="M7.2932 18.2463H12.7932C14.5271 18.2156 15.9594 19.5925 15.997 21.3263V26.8263C15.9894 28.5621 14.5841 29.9675 12.8482 29.975H7.3482C5.61442 29.998 4.18834 28.6149 4.1582 26.8813V21.3813C4.1582 19.6498 5.56179 18.2463 7.2932 18.2463ZM12.7932 27.9125C13.3931 27.9125 13.8795 27.4262 13.8795 26.8263V21.3263C13.8795 21.0394 13.7646 20.7645 13.5605 20.563C13.3564 20.3615 13.08 20.2501 12.7932 20.2538H7.2932C7.00876 20.2538 6.73596 20.3668 6.53483 20.5679C6.3337 20.769 6.2207 21.0418 6.2207 21.3263V26.8263C6.22066 27.4208 6.69866 27.905 7.2932 27.9125H12.7932Z" fill="black"/>
<path d="M11.102 23.0725V22.2888C11.102 21.7192 10.6402 21.2575 10.0707 21.2575C9.50116 21.2575 9.03945 21.7192 9.03945 22.2888V23.0725H8.26945C7.69991 23.0725 7.2382 23.5342 7.2382 24.1038C7.2382 24.6733 7.69991 25.135 8.26945 25.135H9.0532V25.9325C9.0532 26.5021 9.51491 26.9638 10.0845 26.9638C10.654 26.9638 11.1157 26.5021 11.1157 25.9325V25.135H11.9132C12.4827 25.135 12.9445 24.6733 12.9445 24.1038C12.9445 23.5342 12.4827 23.0725 11.9132 23.0725H11.102Z" fill="black"/>
<path fill-rule="evenodd" clip-rule="evenodd" d="M17.9632 3.34126L27.5882 12.9663C27.7928 13.1746 27.9023 13.4582 27.8907 13.75V23.375C27.8907 26.9821 24.9666 29.9063 21.3595 29.9063H17.4132C16.8437 29.9063 16.382 29.4446 16.382 28.875C16.382 28.3055 16.8437 27.8438 17.4132 27.8438H21.3595C23.8275 27.8438 25.8282 25.843 25.8282 23.375V14.7813H19.9845C17.8961 14.7813 16.2032 13.0883 16.2032 11V5.14251H13.1095C10.6392 5.15008 8.64069 7.15475 8.6407 9.62501V16.5C8.6407 17.0696 8.179 17.5313 7.60945 17.5313C7.03991 17.5313 6.5782 17.0696 6.5782 16.5V9.62501C6.56354 7.8833 7.24517 6.20789 8.47161 4.97112C9.69805 3.73435 11.3677 3.0387 13.1095 3.03876H17.2345C17.5079 3.039 17.77 3.14781 17.9632 3.34126ZM18.2657 6.55876V11C18.2733 11.9439 19.0406 12.705 19.9845 12.705H24.412L18.2657 6.55876Z" fill="black"/>
</svg>
