<svg width="25" height="25" viewBox="0 0 25 25" fill="none" xmlns="http://www.w3.org/2000/svg">
<path d="M20.7401 11.2106L13.7401 4.21059C13.3596 3.83189 12.806 3.68494 12.2878 3.8251C11.7696 3.96526 11.3655 4.37124 11.2278 4.8901C11.0901 5.40897 11.2396 5.96189 11.6201 6.34059L16.0501 10.7606H4.64014C3.81171 10.7606 3.14014 11.4322 3.14014 12.2606C3.14014 13.089 3.81171 13.7606 4.64014 13.7606H16.0501L11.6201 18.1806C11.1917 18.6096 11.0636 19.2543 11.2956 19.8144C11.5275 20.3746 12.0739 20.7401 12.6801 20.7406C13.0827 20.7346 13.4654 20.5649 13.7401 20.2706L20.7401 13.2706C21.325 12.685 21.325 11.7362 20.7401 11.1506V11.2106Z" fill="white"/>
</svg>
