<svg width="21" height="20" viewBox="0 0 21 20" fill="none" xmlns="http://www.w3.org/2000/svg">
<path d="M10.9227 6.66667L10.1418 5.17928C9.91704 4.7512 9.80466 4.53715 9.63702 4.38078C9.48876 4.24249 9.31008 4.13732 9.11391 4.07287C8.89207 4 8.6408 4 8.13826 4H5.46266C4.67858 4 4.28655 4 3.98707 4.14532C3.72364 4.27316 3.50947 4.47713 3.37525 4.72801C3.22266 5.01323 3.22266 5.3866 3.22266 6.13333V6.66667M3.22266 6.66667H13.8627C15.0388 6.66667 15.6268 6.66667 16.076 6.88465C16.4712 7.0764 16.7924 7.38236 16.9938 7.75869C17.2227 8.18651 17.2227 8.74656 17.2227 9.86667V12.8C17.2227 13.9201 17.2227 14.4802 16.9938 14.908C16.7924 15.2843 16.4712 15.5903 16.076 15.782C15.6268 16 15.0388 16 13.8627 16H6.58266C5.40655 16 4.81849 16 4.36928 15.782C3.97414 15.5903 3.65288 15.2843 3.45154 14.908C3.22266 14.4802 3.22266 13.9201 3.22266 12.8V6.66667Z" stroke="#474747" stroke-linecap="round" stroke-linejoin="round"/>
</svg>
