<svg width="21" height="20" viewBox="0 0 21 20" fill="none" xmlns="http://www.w3.org/2000/svg">
<path d="M3.22266 7.36336C3.22266 7.12367 3.22266 7.00383 3.23289 6.90288C3.33158 5.92929 4.11954 5.1591 5.1156 5.06263C5.21888 5.05263 5.34811 5.05263 5.60656 5.05263C5.70615 5.05263 5.75595 5.05263 5.79823 5.05013C6.33808 5.01817 6.81082 4.68513 7.01256 4.19463C7.02836 4.15622 7.04312 4.11292 7.07266 4.02632C7.10219 3.93971 7.11696 3.89641 7.13275 3.858C7.33449 3.36751 7.80723 3.03446 8.34709 3.0025C8.38936 3 8.43606 3 8.52945 3H11.9159C12.0093 3 12.0559 3 12.0982 3.0025C12.6381 3.03446 13.1108 3.36751 13.3126 3.858C13.3284 3.89641 13.3431 3.93971 13.3727 4.02632C13.4022 4.11292 13.417 4.15622 13.4328 4.19463C13.6345 4.68513 14.1072 5.01817 14.6471 5.05013C14.6894 5.05263 14.7392 5.05263 14.8387 5.05263C15.0972 5.05263 15.2264 5.05263 15.3297 5.06263C16.3258 5.1591 17.1137 5.92929 17.2124 6.90288C17.2227 7.00383 17.2227 7.12367 17.2227 7.36336V12.7158C17.2227 13.8654 17.2227 14.4402 16.9938 14.8792C16.7924 15.2655 16.4712 15.5795 16.076 15.7763C15.6268 16 15.0388 16 13.8627 16H6.58266C5.40655 16 4.81849 16 4.36928 15.7763C3.97414 15.5795 3.65288 15.2655 3.45154 14.8792C3.22266 14.4402 3.22266 13.8654 3.22266 12.7158V7.36336Z" stroke="#474747" stroke-linecap="round" stroke-linejoin="round"/>
<path d="M10.2227 12.9211C11.7691 12.9211 13.0227 11.6957 13.0227 10.1842C13.0227 8.67269 11.7691 7.44737 10.2227 7.44737C8.67626 7.44737 7.42266 8.67269 7.42266 10.1842C7.42266 11.6957 8.67626 12.9211 10.2227 12.9211Z" stroke="#474747" stroke-linecap="round" stroke-linejoin="round"/>
</svg>
