<svg width="21" height="21" viewBox="0 0 21 21" fill="none" xmlns="http://www.w3.org/2000/svg">
<path d="M20.391 18.8577L15.9388 14.4037C17.2737 12.6641 17.897 10.4819 17.6821 8.29975C17.4672 6.11758 16.4304 4.09884 14.7818 2.65304C13.1333 1.20725 10.9965 0.442667 8.80493 0.514391C6.61338 0.586116 4.53117 1.48878 2.98068 3.03927C1.43018 4.58976 0.527522 6.67198 0.455798 8.86353C0.384073 11.0551 1.14866 13.1919 2.59445 14.8404C4.04024 16.489 6.05898 17.5258 8.24116 17.7407C10.4233 17.9556 12.6055 17.3323 14.3451 15.9974L18.801 20.4543C18.9057 20.559 19.0299 20.642 19.1666 20.6986C19.3034 20.7552 19.4499 20.7844 19.5979 20.7844C19.7459 20.7844 19.8924 20.7552 20.0292 20.6986C20.1659 20.642 20.2901 20.559 20.3948 20.4543C20.4994 20.3497 20.5824 20.2254 20.6391 20.0887C20.6957 19.952 20.7248 19.8054 20.7248 19.6574C20.7248 19.5094 20.6957 19.3629 20.6391 19.2262C20.5824 19.0894 20.4994 18.9652 20.3948 18.8606L20.391 18.8577ZM2.72009 9.15368C2.72009 7.89282 3.09397 6.66028 3.79447 5.61192C4.49496 4.56356 5.4906 3.74646 6.65548 3.26395C7.82036 2.78144 9.10216 2.65519 10.3388 2.90117C11.5754 3.14716 12.7113 3.75431 13.6029 4.64587C14.4945 5.53743 15.1016 6.67335 15.3476 7.90998C15.5936 9.14661 15.4673 10.4284 14.9848 11.5933C14.5023 12.7582 13.6852 13.7538 12.6368 14.4543C11.5885 15.1548 10.3559 15.5287 9.09509 15.5287C7.40486 15.5269 5.78437 14.8547 4.5892 13.6596C3.39403 12.4644 2.72182 10.8439 2.72009 9.15368Z" fill="black"/>
</svg>
