<svg width="24" height="24" viewBox="0 0 24 24" fill="none" xmlns="http://www.w3.org/2000/svg">
<path d="M12.7843 17.0976L12.7826 17.0963C12.196 16.6503 11.384 16.6503 10.7974 17.0963L6.4675 20.3862L6.46739 20.386L6.45674 20.3946C6.28583 20.532 6.05282 20.5633 5.85173 20.4758C5.6554 20.3904 5.52113 20.2055 5.5 19.9933V5.96659C5.5353 5.2794 5.84161 4.63405 6.35205 4.17215C6.86526 3.70774 7.54246 3.46713 8.23364 3.50362L8.24681 3.50431H8.26H15.26H15.2714L15.2828 3.50379C15.9782 3.47202 16.6572 3.72039 17.168 4.19331C17.6769 4.66454 17.9764 5.3195 18 6.01248V19.9856C17.9725 20.1876 17.8424 20.3617 17.6553 20.445C17.4631 20.5305 17.2399 20.5072 17.0696 20.384L12.7843 17.0976Z" stroke="#00b14f"/>
</svg>
