<svg width="49" height="49" viewBox="0 0 49 49" fill="none" xmlns="http://www.w3.org/2000/svg">
<path d="M35.4853 31.0742C35.7381 33.2709 35.6155 35.4356 34.9675 37.5616C33.9952 40.7564 32.1324 43.373 29.7255 45.6375C28.8564 46.4483 27.921 47.1852 26.9291 47.8408C26.5716 48.078 26.1925 48.2824 25.8237 48.4999H25.0692C24.1949 48.1072 23.9893 47.37 23.9431 46.4896C23.811 43.953 23.629 41.4183 23.4658 38.8836L25.554 36.751C28.3645 35.6578 31.0299 34.2878 33.4943 32.5421C34.1696 32.0685 34.8232 31.5657 35.4853 31.0742Z" fill="#1A5AFE"/>
<path d="M17.5486 13.1601C18.0465 12.647 18.5624 12.1498 19.0397 11.6169C19.7438 10.8487 20.5025 10.1322 21.3098 9.47295C22.7917 8.23327 24.3845 7.13204 26.068 6.18311C27.8585 5.16661 29.7271 4.29385 31.6562 3.57307C32.7389 3.17133 33.8321 2.80193 34.9355 2.46484C34.9836 2.62491 35.1242 2.70871 35.2326 2.81699C36.4361 4.02597 37.6402 5.23024 38.8449 6.4298C39.4108 6.98909 39.9842 7.53803 40.5548 8.09167C40.5548 8.1218 40.5595 8.15287 40.5633 8.18583C40.5221 8.20671 40.4832 8.23196 40.4473 8.26115L35.3939 13.3004C35.3387 13.3437 35.2929 13.3977 35.2594 13.4592C35.2258 13.5208 35.2051 13.5885 35.1987 13.6582L35.0327 13.5716C33.6066 12.1282 31.8731 11.6461 29.8935 11.9333C26.9254 12.3636 24.6599 15.3634 25.023 18.336C25.19 19.7059 25.7625 20.865 26.6632 21.8838C26.6632 22.0825 26.5009 22.1776 26.3802 22.2962C23.9544 24.7217 21.5268 27.1456 19.0972 29.568C18.9784 29.6866 18.8812 29.8438 18.6832 29.8457L11.8896 23.0796C13.0623 19.9766 14.6608 17.0512 16.6394 14.387C16.943 13.9793 17.3269 13.629 17.5486 13.1601Z" fill="#E0F0F9"/>
<path d="M18.6882 29.8435C18.8863 29.8435 18.9834 29.6844 19.1023 29.5657C21.5318 27.1427 23.9595 24.7188 26.3853 22.294C26.5041 22.1753 26.6682 22.0802 26.6682 21.8816H26.7069L26.7446 21.8759C26.7655 21.9167 26.7915 21.9546 26.8219 21.9889C28.6752 23.6508 30.7964 24.1216 33.109 23.1885C35.398 22.262 36.6279 20.473 36.7967 18.0098C36.9118 16.3385 36.2855 14.9026 35.2018 13.6541C35.2083 13.5844 35.2289 13.5166 35.2625 13.4551C35.2961 13.3936 35.3419 13.3396 35.3971 13.2963L40.4476 8.25892C40.4835 8.22973 40.5224 8.20448 40.5637 8.18359C42.1808 9.78615 43.7987 11.3887 45.4171 12.9913C45.6699 13.2408 45.8887 13.527 46.1971 13.72C45.4788 16.2217 44.5278 18.6509 43.3563 20.9758C42.1402 23.4002 40.6299 25.666 38.8594 27.7221C37.9162 28.8162 36.908 29.8651 35.7602 30.7634C35.6564 30.8583 35.5616 30.9626 35.4772 31.0751C34.817 31.5666 34.1568 32.0694 33.4891 32.5458C31.0246 34.2915 28.3593 35.6615 25.5487 36.7546C23.3317 34.5356 21.1143 32.3164 18.8966 30.0968C18.8282 30.0356 18.7561 29.9787 18.6807 29.9263C18.6879 29.8994 18.6904 29.8713 18.6882 29.8435Z" fill="#CCEAFB"/>
<path d="M17.5481 13.1603C17.3264 13.6311 16.9426 13.9795 16.6389 14.3844C14.6603 17.0485 13.0619 19.974 11.8892 23.077C11.1743 23.7731 10.4587 24.4683 9.74255 25.1625L2.25865 24.6861C1.9757 24.6673 1.69276 24.6494 1.4183 24.6117C0.300668 24.4573 -0.249189 23.3933 0.314815 22.4132C0.662265 21.8205 1.04821 21.2512 1.47018 20.7089C3.96858 17.4501 7.02156 14.9371 11.013 13.7027C12.9894 13.0926 15.0715 12.9002 17.1265 13.1377C17.2661 13.1509 17.4075 13.1528 17.5481 13.1603Z" fill="#5BA6FE"/>
<path d="M9.74286 25.1628C10.4584 24.4686 11.1739 23.7743 11.8895 23.0801L18.6886 29.8434C18.6934 29.8708 18.6934 29.8988 18.6886 29.9262C18.5491 30.1955 18.3029 30.3697 18.0954 30.5759C16.5172 32.1452 14.9362 33.7114 13.3523 35.2744C13.1778 35.2198 13.0892 35.0634 12.975 34.9458C11.532 33.5234 10.0918 32.0988 8.65447 30.672C8.30864 30.3142 7.96282 29.9561 7.617 29.5976C6.91341 28.8679 6.90964 28.0525 7.617 27.3284C8.32436 26.6044 9.03173 25.8841 9.74286 25.1628Z" fill="#1C3B6B"/>
<path d="M13.352 35.2739C14.934 33.7084 16.515 32.1422 18.0951 30.5755C18.3026 30.3693 18.5488 30.1988 18.6884 29.9258C18.7637 29.9782 18.8359 30.0351 18.9043 30.0962C21.1226 32.3145 23.34 34.5338 25.5564 36.754L23.4711 38.8867C22.7794 39.5653 22.0878 40.2435 21.3961 40.9214C20.5473 41.7566 19.773 41.7519 18.9223 40.9092C18.6016 40.5919 18.2753 40.2802 17.9508 39.9676C16.4487 38.3983 14.9107 36.8604 13.3369 35.3539C13.3372 35.3266 13.3423 35.2995 13.352 35.2739Z" fill="#011135"/>
<path d="M13.3378 35.3555C14.9097 36.8582 16.4477 38.3961 17.9517 39.9692C15.8692 42.0538 13.3303 43.3494 10.5376 44.178C8.82873 44.6809 7.06827 44.9889 5.28991 45.096C4.77212 45.129 4.25245 45.0904 3.93555 44.5716C4.03662 44.5012 4.13361 44.4251 4.22604 44.3437C6.30726 42.2923 8.38753 40.24 10.4669 38.1868C11.4232 37.2414 12.3802 36.2977 13.3378 35.3555Z" fill="#FCBF01"/>
<path d="M13.338 35.3551C12.381 36.2967 11.4241 37.2382 10.4671 38.1798C8.3846 40.235 6.3059 42.2885 4.23096 44.3405C4.13853 44.4219 4.04155 44.498 3.94048 44.5684C3.56322 44.3226 3.50002 43.9093 3.51983 43.5326C3.63054 41.1807 4.10128 38.8595 4.91569 36.6498C5.75415 34.4051 6.94158 32.3713 8.65434 30.668C10.0936 32.0935 11.5338 33.5181 12.9749 34.9418C13.0938 35.0595 13.1824 35.2158 13.3522 35.2704C13.3422 35.2975 13.3374 35.3262 13.338 35.3551Z" fill="#FEF161"/>
<path d="M46.2005 13.7184C45.894 13.5301 45.6733 13.2391 45.4205 12.9896C43.8002 11.3896 42.1824 9.78701 40.5671 8.18195C40.5671 8.15182 40.5595 8.12074 40.5586 8.08779C40.7774 7.98422 40.9123 7.78743 41.0754 7.62265C42.5175 6.15851 43.9521 4.68683 45.3988 3.22834C46.1656 2.45437 46.9532 1.70017 47.7322 0.9375C48.0095 1.139 48.0802 1.41488 48.0859 1.74913C48.1576 5.68961 47.3578 9.49638 46.3344 13.2702C46.2948 13.4227 46.2449 13.5743 46.2005 13.7184Z" fill="#1A5AFE"/>
<path d="M47.7322 0.941302C46.9532 1.70397 46.1656 2.45817 45.3989 3.23214C43.9521 4.69064 42.5175 6.16231 41.0755 7.62645C40.9123 7.79123 40.7774 7.98802 40.5586 8.09159C39.9927 7.53795 39.4127 6.98901 38.8487 6.42972C37.6396 5.23015 36.4342 4.0262 35.2326 2.81785C35.1251 2.70957 34.9836 2.62954 34.9355 2.46571C38.3375 1.48741 41.7951 0.816072 45.3319 0.582563C45.7686 0.552432 46.2053 0.517594 46.6419 0.503471C46.8451 0.488826 47.0488 0.520653 47.2378 0.596526C47.4267 0.672399 47.5958 0.790319 47.7322 0.941302Z" fill="#5BA6FE"/>
<path d="M26.7431 21.8778L26.7054 21.8835H26.6667C25.766 20.8647 25.1935 19.7056 25.0266 18.3356C24.6634 15.3631 26.9289 12.3632 29.897 11.9329C31.8776 11.6505 33.6102 12.1279 35.0362 13.5713C34.4562 14.3302 33.7498 14.9648 33.0424 15.5985C33.0132 15.6041 32.983 15.6079 32.9537 15.6107C31.6607 14.4648 29.8998 14.5034 28.7548 15.7049C28.2217 16.2632 27.9296 17.0083 27.9416 17.7796C27.9536 18.5508 28.2687 19.2865 28.819 19.828C28.822 19.8533 28.8273 19.8782 28.835 19.9024C28.6964 20.0267 28.5521 20.1491 28.42 20.279C27.8522 20.7969 27.3646 21.407 26.7431 21.8778Z" fill="#1C3C6C"/>
<path d="M26.7432 21.8776C27.3647 21.4068 27.8523 20.7967 28.4201 20.2703C28.5568 20.1441 28.6964 20.0217 28.8351 19.8937C28.9483 19.9756 29.0605 20.0603 29.1765 20.1376C30.2583 20.8588 31.3684 20.8833 32.4851 20.2374C33.4641 19.6724 33.9734 18.4851 33.8347 17.3072C33.7555 16.6368 33.3735 16.1321 33.0425 15.5917C33.7498 14.958 34.4572 14.3234 35.0363 13.5645L35.2023 13.6511C36.286 14.9015 36.9122 16.3355 36.7972 18.0068C36.6283 20.468 35.3985 22.257 33.1094 23.1854C30.7968 24.1204 28.6766 23.6562 26.8205 21.9887C26.7902 21.955 26.7642 21.9177 26.7432 21.8776Z" fill="#011236"/>
<path d="M33.0418 15.5957C33.3728 16.1362 33.7548 16.6408 33.834 17.3112C33.9727 18.4892 33.4634 19.6755 32.4844 20.2414C31.3677 20.8873 30.2576 20.8628 29.1758 20.1416C29.0598 20.0644 28.9476 19.9797 28.8344 19.8977C28.8267 19.8735 28.8213 19.8486 28.8184 19.8234C28.94 19.684 29.056 19.5409 29.1862 19.4072C30.4406 18.1398 31.6962 16.8734 32.9531 15.6079C32.9824 15.6051 33.0125 15.6014 33.0418 15.5957Z" fill="#1DACB4"/>
<path d="M32.9539 15.6075C31.6963 16.8743 30.4407 18.1407 29.1869 19.4068C29.0568 19.5386 28.9408 19.6836 28.8191 19.8229C28.2688 19.2814 27.9538 18.5457 27.9418 17.7745C27.9298 17.0032 28.2218 16.2581 28.755 15.6998C29.9 14.5002 31.6608 14.4616 32.9539 15.6075Z" fill="#06CAAA"/>
</svg>
