<svg width="81" height="81" viewBox="0 0 81 81" fill="none" xmlns="http://www.w3.org/2000/svg">
<path d="M59.1832 51.457C59.6044 55.1182 59.4001 58.726 58.3202 62.2694C56.6995 67.594 53.595 71.955 49.5835 75.7292C48.1349 77.0805 46.5759 78.3088 44.9227 79.4013C44.327 79.7967 43.6951 80.1373 43.0804 80.4998H41.8229C40.3657 79.8454 40.023 78.6166 39.946 77.1494C39.726 72.9217 39.4226 68.6972 39.1506 64.4727L42.6309 60.9183C47.3152 59.0963 51.7574 56.813 55.8648 53.9035C56.9903 53.1142 58.0797 52.2762 59.1832 51.457Z" fill="#FE1A1A"/>
<path d="M29.2887 21.5999C30.1187 20.7447 30.9785 19.9161 31.7739 19.0279C32.9474 17.7475 34.2119 16.5534 35.5575 15.4546C38.0273 13.3885 40.6819 11.5531 43.4878 9.97152C46.472 8.27736 49.5863 6.82276 52.8014 5.62146C54.606 4.9519 56.4279 4.33622 58.267 3.77441C58.3472 4.04119 58.5814 4.18086 58.7622 4.36132C60.7679 6.37629 62.7747 8.3834 64.7826 10.3827C65.7257 11.3148 66.6815 12.2297 67.6325 13.1525C67.6325 13.2027 67.6403 13.2545 67.6466 13.3094C67.5779 13.3442 67.513 13.3863 67.4533 13.4349L59.0309 21.8337C58.9389 21.9058 58.8626 21.9959 58.8067 22.0984C58.7507 22.201 58.7163 22.3138 58.7056 22.4301L58.4289 22.2857C56.0522 19.88 53.163 19.0765 49.8635 19.5551C44.9167 20.2723 41.141 25.272 41.7461 30.2263C42.0244 32.5096 42.9785 34.4414 44.4797 36.1393C44.4797 36.4705 44.2093 36.629 44.0081 36.8267C39.9652 40.8692 35.919 44.909 31.8698 48.9463C31.6717 49.144 31.5098 49.4061 31.1797 49.4092L19.8572 38.1323C21.8117 32.9607 24.4758 28.0849 27.7734 23.6447C28.2795 22.9652 28.9193 22.3814 29.2887 21.5999Z" fill="#E0F0F9"/>
<path d="M31.1881 49.4045C31.5182 49.4045 31.6801 49.1393 31.8782 48.9416C35.9274 44.9033 39.9736 40.8634 44.0165 36.822C44.2146 36.6243 44.4881 36.4658 44.4881 36.1346H44.5526L44.6154 36.1252C44.6503 36.1932 44.6936 36.2564 44.7443 36.3135C47.8332 39.0833 51.3684 39.868 55.2227 38.3128C59.0378 36.7686 61.0876 33.787 61.3689 29.6817C61.5607 26.8963 60.517 24.5031 58.7108 22.4222C58.7216 22.306 58.756 22.1931 58.8119 22.0906C58.8679 21.988 58.9442 21.898 59.0362 21.8259L67.4538 13.4302C67.5136 13.3816 67.5784 13.3395 67.6472 13.3047C70.3425 15.9756 73.0389 18.6465 75.7363 21.3175C76.1575 21.7333 76.5222 22.2104 77.0363 22.5321C75.8391 26.7016 74.254 30.7502 72.3016 34.625C70.2748 38.6657 67.7576 42.4421 64.8067 45.8689C63.2348 47.6924 61.5544 49.4406 59.6414 50.9377C59.4684 51.0958 59.3105 51.2697 59.1698 51.4571C58.0695 52.2763 56.9691 53.1143 55.8562 53.9083C51.7488 56.8178 47.3066 59.1011 42.6223 60.9231C38.9272 57.2248 35.2316 53.526 31.5355 49.8266C31.4214 49.7248 31.3012 49.6299 31.1755 49.5426C31.1876 49.4976 31.1918 49.4509 31.1881 49.4045Z" fill="#CCEAFB"/>
<path d="M29.2878 21.6006C28.9184 22.3852 28.2786 22.9659 27.7725 23.6406C24.4749 28.0809 21.8108 32.9566 19.8563 38.1283C18.6648 39.2885 17.4722 40.4472 16.2786 41.6042L3.80543 40.8102C3.33386 40.7788 2.86228 40.749 2.40485 40.6862C0.542128 40.4289 -0.3743 38.6556 0.565708 37.0219C1.14479 36.0342 1.78804 35.0854 2.49131 34.1815C6.65532 28.7502 11.7436 24.5618 18.396 22.5045C21.69 21.4877 25.1601 21.167 28.5852 21.5629C28.8178 21.5849 29.0536 21.588 29.2878 21.6006Z" fill="#FE5B5B"/>
<path d="M16.2775 41.6041C17.4701 40.447 18.6626 39.2899 19.8552 38.1328L31.1871 49.405C31.195 49.4507 31.195 49.4974 31.1871 49.5431C30.9545 49.9919 30.5442 50.2822 30.1984 50.6259C27.5681 53.2414 24.933 55.8516 22.2932 58.4566C22.0024 58.3656 21.8547 58.1051 21.6645 57.9089C19.2594 55.5383 16.8591 53.1639 14.4635 50.786C13.8871 50.1896 13.3108 49.5928 12.7344 48.9954C11.5617 47.7792 11.5554 46.4202 12.7344 45.2134C13.9133 44.0066 15.0923 42.8061 16.2775 41.6041Z" fill="#1C3B6B"/>
<path d="M22.2944 58.4565C24.9311 55.8473 27.5661 53.2371 30.1996 50.6258C30.5454 50.2821 30.9557 49.9981 31.1884 49.543C31.314 49.6303 31.4342 49.7251 31.5483 49.827C35.2455 53.5242 38.9411 57.223 42.6351 60.9234L39.1596 64.4778C38.0068 65.6088 36.8541 66.7392 35.7013 67.8691C34.2866 69.261 32.9961 69.2532 31.5782 67.8487C31.0437 67.3198 30.4999 66.8004 29.9591 66.2794C27.4556 63.6639 24.8923 61.1007 22.2693 58.5899C22.2697 58.5443 22.2783 58.4991 22.2944 58.4565Z" fill="#011135"/>
<path d="M22.2723 58.5918C24.8921 61.0964 27.4554 63.6595 29.9621 66.2813C26.4913 69.7557 22.2597 71.915 17.6052 73.296C14.7571 74.1342 11.823 74.6475 8.85908 74.826C7.9961 74.881 7.12997 74.8166 6.60181 73.952C6.77026 73.8346 6.93191 73.7078 7.08596 73.5722C10.5547 70.1532 14.0218 66.7327 17.4873 63.3106C19.0813 61.7351 20.6762 60.1621 22.2723 58.5918Z" fill="#FCBF01"/>
<path d="M22.2711 58.5912C20.6762 60.1605 19.0812 61.7298 17.4862 63.299C14.0154 66.7243 10.5509 70.1469 7.0927 73.5669C6.93865 73.7025 6.77701 73.8293 6.60856 73.9466C5.97979 73.5371 5.87447 72.8481 5.90748 72.2204C6.09199 68.3005 6.87656 64.4318 8.23392 60.749C9.63135 57.0078 11.6104 53.6181 14.465 50.7793C16.8637 53.1552 19.2641 55.5295 21.666 57.9023C21.864 58.0984 22.0118 58.3589 22.2947 58.45C22.2781 58.4952 22.2702 58.5431 22.2711 58.5912Z" fill="#FEF161"/>
<path d="M77.0436 22.5319C76.5327 22.2181 76.1649 21.7332 75.7436 21.3173C73.0431 18.6506 70.3467 15.9797 67.6545 13.3045C67.6545 13.2543 67.642 13.2025 67.6404 13.1476C68.0051 12.975 68.2298 12.647 68.5018 12.3724C70.9053 9.93215 73.2961 7.47936 75.7075 5.04854C76.9854 3.75859 78.298 2.50159 79.5964 1.23047C80.0585 1.5663 80.1764 2.0261 80.1859 2.58319C80.3053 9.15065 78.9723 15.4953 77.2668 21.785C77.2008 22.0392 77.1175 22.2918 77.0436 22.5319Z" fill="#FE1A1A"/>
<path d="M79.5932 1.2355C78.2948 2.50662 76.9822 3.76362 75.7042 5.05357C73.2929 7.48439 70.902 9.93719 68.4986 12.3774C68.2266 12.652 68.0018 12.98 67.6372 13.1527C66.694 12.2299 65.7273 11.315 64.7873 10.3829C62.7721 8.38359 60.7632 6.377 58.7605 4.36309C58.5813 4.18262 58.3455 4.04923 58.2654 3.77618C63.9353 2.14569 69.6979 1.02679 75.5926 0.637604C76.3204 0.587387 77.0482 0.529324 77.776 0.505785C78.1146 0.481377 78.4542 0.534421 78.7691 0.660877C79.084 0.787332 79.3659 0.983864 79.5932 1.2355Z" fill="#FE5B5B"/>
<path d="M44.6112 36.1297L44.5483 36.1391H44.4839C42.9827 34.4411 42.0286 32.5094 41.7503 30.226C41.1451 25.2718 44.9209 20.2721 49.8677 19.5549C53.1687 19.0841 56.0564 19.8798 58.4331 22.2855C57.4664 23.5503 56.289 24.608 55.1101 25.6641C55.0613 25.6736 55.011 25.6798 54.9623 25.6845C52.8072 23.7747 49.8724 23.8391 47.9641 25.8415C47.0755 26.772 46.5888 28.0138 46.6088 29.2993C46.6288 30.5847 47.1539 31.8108 48.071 32.7134C48.076 32.7554 48.0849 32.7969 48.0977 32.8373C47.8667 33.0445 47.6262 33.2485 47.4061 33.4651C46.4598 34.3282 45.6471 35.3451 44.6112 36.1297Z" fill="#1C3C6C"/>
<path d="M44.613 36.1296C45.6489 35.345 46.4616 34.3281 47.4079 33.4509C47.6358 33.2406 47.8685 33.0366 48.0996 32.8231C48.2882 32.9597 48.4752 33.1009 48.6686 33.2296C50.4716 34.4317 52.3217 34.4725 54.1829 33.3959C55.8145 32.4544 56.6634 30.4755 56.4323 28.5123C56.3003 27.395 55.6636 26.5539 55.1119 25.6531C56.2908 24.597 57.4698 23.5393 58.4349 22.2744L58.7116 22.4188C60.5177 24.5028 61.5615 26.8928 61.3697 29.6783C61.0883 33.7804 59.0385 36.762 55.2235 38.3094C51.3691 39.8677 47.8355 39.094 44.7419 36.3148C44.6914 36.2587 44.6481 36.1965 44.613 36.1296Z" fill="#011236"/>
<path d="M55.1123 25.6602C55.664 26.5609 56.3007 27.4021 56.4327 28.5194C56.6638 30.4826 55.8149 32.4599 54.1833 33.403C52.3221 34.4795 50.472 34.4387 48.669 33.2367C48.4756 33.108 48.2886 32.9667 48.1 32.8302C48.0872 32.7898 48.0782 32.7483 48.0732 32.7062C48.276 32.474 48.4694 32.2355 48.6863 32.0126C50.7769 29.9004 52.8697 27.7897 54.9645 25.6806C55.0133 25.6758 55.0636 25.6696 55.1123 25.6602Z" fill="#1DACB4"/>
<path d="M54.9625 25.6802C52.8666 27.7914 50.7739 29.9021 48.6843 32.0123C48.4673 32.232 48.274 32.4736 48.0712 32.7059C47.1541 31.8034 46.629 30.5772 46.609 29.2918C46.589 28.0063 47.0758 26.7645 47.9643 25.834C49.8726 23.8347 52.8074 23.7704 54.9625 25.6802Z" fill="#06CAAA"/>
</svg>
