<svg width="23" height="23" viewBox="0 0 23 23" fill="none" xmlns="http://www.w3.org/2000/svg">
<g clip-path="url(#clip0_7607_50105)">
<path d="M19.4453 5.32812H13.9453V20.6059H20.6675V6.55035C20.6675 6.22619 20.5388 5.91532 20.3096 5.68611C20.0803 5.45689 19.7695 5.32813 19.4453 5.32812ZM16.3898 15.717H15.1675V14.4948H16.3898V15.717ZM16.3898 12.6615H15.1675V11.4392H16.3898V12.6615ZM16.3898 9.6059H15.1675V8.38368H16.3898V9.6059ZM18.8342 15.717H17.612V14.4948H18.8342V15.717ZM18.8342 12.6615H17.612V11.4392H18.8342V12.6615ZM18.8342 9.6059H17.612V8.38368H18.8342V9.6059Z" fill="#00b14f"/>
<path d="M11.4275 2.27344H4.24087C3.89727 2.27344 3.56774 2.40993 3.32477 2.6529C3.08181 2.89586 2.94531 3.22539 2.94531 3.56899V20.6068H6.00087V18.7734H9.66753V20.6068H12.7231V3.56899C12.7231 3.22539 12.5866 2.89586 12.3436 2.6529C12.1007 2.40993 11.7711 2.27344 11.4275 2.27344ZM6.00087 15.7179H4.77865V14.4957H6.00087V15.7179ZM6.00087 12.6623H4.77865V11.4401H6.00087V12.6623ZM6.00087 9.60677H4.77865V8.38455H6.00087V9.60677ZM6.00087 6.55122H4.77865V5.32899H6.00087V6.55122ZM8.44531 15.7179H7.22309V14.4957H8.44531V15.7179ZM8.44531 12.6623H7.22309V11.4401H8.44531V12.6623ZM8.44531 9.60677H7.22309V8.38455H8.44531V9.60677ZM8.44531 6.55122H7.22309V5.32899H8.44531V6.55122ZM10.8898 15.7179H9.66753V14.4957H10.8898V15.7179ZM10.8898 12.6623H9.66753V11.4401H10.8898V12.6623ZM10.8898 9.60677H9.66753V8.38455H10.8898V9.60677ZM10.8898 6.55122H9.66753V5.32899H10.8898V6.55122Z" fill="#00b14f"/>
</g>
<defs>
<clipPath id="clip0_7607_50105">
<rect width="22" height="22" fill="white" transform="translate(0.5 0.439453)"/>
</clipPath>
</defs>
</svg>
