<svg width="17" height="17" viewBox="0 0 17 17" fill="none" xmlns="http://www.w3.org/2000/svg">
<path fill-rule="evenodd" clip-rule="evenodd" d="M6.3003 2.15719H11.1326C11.7004 2.12817 12.2568 2.31843 12.679 2.68598C13.1012 3.05353 13.3546 3.56816 13.3831 4.11627V13.4852C13.3839 13.6729 13.3027 13.8521 13.1595 13.979C13.0162 14.1058 12.8242 14.1685 12.6307 14.1516C12.461 14.1516 12.296 14.0977 12.1612 13.9983L9.17209 11.806C8.88982 11.6017 8.5017 11.6017 8.21943 11.806L5.25789 13.9983C5.12685 14.095 4.9672 14.1487 4.80227 14.1516C4.60868 14.1685 4.41669 14.1058 4.27345 13.979C4.13022 13.8521 4.04902 13.6729 4.04981 13.4852V4.11627C4.07836 3.56816 4.3317 3.05353 4.75392 2.68598C5.17614 2.31843 5.73253 2.12817 6.3003 2.15719ZM9.8141 11.0131L12.3338 12.8789L12.32 4.11627C12.2547 3.53532 11.7223 3.11002 11.1188 3.15672H6.28649C5.68303 3.11002 5.15064 3.53532 5.08531 4.11627V12.8789L7.60503 11.0131C8.25748 10.5332 9.16165 10.5332 9.8141 11.0131Z" fill="#00BF71"/>
</svg>
