<svg width="25" height="25" viewBox="0 0 25 25" fill="none" xmlns="http://www.w3.org/2000/svg">
<path d="M9.08984 15.5H15.0898M21.0898 8.5H3.08984M16.0898 2.5V5.5M8.08984 2.5V5.5M7.88984 22.5H16.2898C17.97 22.5 18.8101 22.5 19.4518 22.173C20.0163 21.8854 20.4752 21.4265 20.7629 20.862C21.0898 20.2202 21.0898 19.3802 21.0898 17.7V9.3C21.0898 7.61984 21.0898 6.77976 20.7629 6.13803C20.4752 5.57354 20.0163 5.1146 19.4518 4.82698C18.8101 4.5 17.97 4.5 16.2898 4.5H7.88984C6.20969 4.5 5.36961 4.5 4.72787 4.82698C4.16339 5.1146 3.70444 5.57354 3.41682 6.13803C3.08984 6.77976 3.08984 7.61984 3.08984 9.3V17.7C3.08984 19.3802 3.08984 20.2202 3.41682 20.862C3.70444 21.4265 4.16339 21.8854 4.72787 22.173C5.36961 22.5 6.20969 22.5 7.88984 22.5Z" stroke="#666666" stroke-width="1.5" stroke-linecap="round" stroke-linejoin="round"/>
</svg>
