<svg width="59" height="75" viewBox="0 0 59 75" fill="none" xmlns="http://www.w3.org/2000/svg">
<path d="M48.4685 0.5C49.2296 0.986716 49.44 1.68174 49.438 2.57305C49.4179 17.1345 49.4132 31.6952 49.4239 46.2553C49.4239 47.8576 48.9552 48.3243 47.397 48.3243H11.6564C10.1282 48.3243 9.6795 47.8837 9.6795 46.3754C9.6795 31.7393 9.67549 17.1037 9.66748 2.4689C9.66748 1.59361 9.86777 0.906598 10.699 0.5H48.4685Z" fill="#4A4A4A"/>
<path d="M21.9118 50.6831C24.3914 50.7575 26.8042 51.5046 28.8921 52.8443C32.3151 55.0335 35.6921 57.2968 39.1071 59.5041C40.4611 60.3793 41.5106 61.4489 41.767 63.1094C41.8511 63.6582 42.1916 63.4559 42.4861 63.3777C46.0713 62.4223 49.6606 61.477 53.2399 60.4975C54.8703 60.0509 56.3144 60.2972 57.4981 61.539C59.6193 63.7703 58.4996 67.3896 55.4331 68.2229C52.2124 69.0982 48.9836 69.9374 45.7589 70.7967C41.8585 71.8369 37.9608 72.8784 34.0657 73.9212C31.9145 74.5001 29.8595 74.0294 27.8245 73.3845C23.8687 72.1326 20.1753 70.2739 16.4618 68.4632C15.0277 67.7662 13.5976 67.0612 12.1775 66.3421C12.0368 66.2693 11.8827 66.2259 11.7246 66.2145C11.5666 66.2031 11.4079 66.2241 11.2582 66.276C9.12102 66.8609 6.97787 67.4277 4.83672 67.9985C4.01151 68.2169 3.44667 67.9765 3.2584 67.3356C3.07012 66.6946 3.45869 66.2119 4.28791 65.9876C6.57327 65.3867 8.86464 64.7858 11.142 64.1449C11.6428 63.9863 12.1859 64.0309 12.6542 64.2691C15.915 65.8714 19.1698 67.4878 22.4506 69.0501C24.6883 70.1428 27.0122 71.0492 29.3988 71.7601C30.9073 72.2158 32.5144 72.2318 34.0316 71.8061C40.8417 69.9254 47.6877 68.1167 54.5178 66.282C54.7341 66.2239 54.9544 66.1719 55.1627 66.0937C56.036 65.7673 56.5648 64.8239 56.3645 64.0127C56.1201 63.0973 55.2629 62.4744 54.3175 62.6767C52.8573 62.9892 51.4172 63.3978 49.9731 63.7803C47.3492 64.476 44.7267 65.1764 42.1055 65.8814C41.777 65.9696 41.4926 66.0617 41.2943 66.4322C39.9443 68.9399 36.9119 69.8152 34.4963 68.307C30.9852 66.1178 27.5341 63.8304 24.057 61.5871L22.9273 60.856C22.0821 60.3072 21.8638 59.7564 22.2463 59.1515C22.6289 58.5466 23.2318 58.4966 24.067 59.0374L33.5369 65.1864C34.1378 65.587 34.7387 65.9876 35.3596 66.3621C36.7757 67.2394 38.4862 66.9029 39.3094 65.595C40.0966 64.3472 39.696 62.7148 38.354 61.8154C34.7707 59.4119 31.2235 56.9503 27.5762 54.6509C25.419 53.2889 22.9934 52.3575 20.3996 53.0486C17.8519 53.7276 15.3081 54.4286 12.7624 55.1236C9.30329 56.067 5.83418 56.9783 2.36909 57.9017C2.27295 57.9277 2.16879 57.9478 2.07866 57.9698C1.34158 58.14 0.786763 57.8797 0.636543 57.2988C0.464289 56.6258 0.770741 56.1151 1.51984 55.9108C3.65899 55.3279 5.80214 54.7691 7.94128 54.1882C11.9071 53.1087 15.8669 52.015 19.8328 50.9354C20.5089 50.7462 21.21 50.6611 21.9118 50.6831Z" fill="#4A4A4A"/>
<path d="M11.8949 24.4413C11.8949 17.447 11.9049 10.4527 11.8789 3.46041C11.8789 2.82748 12.0371 2.69528 12.652 2.69729C23.8926 2.71732 35.1331 2.71732 46.3736 2.69729C47.0166 2.69729 47.1948 2.82548 47.1928 3.49847C47.1715 17.4617 47.1715 31.4249 47.1928 45.3881C47.1928 46.057 47.0246 46.2033 46.3696 46.2033C35.1291 46.1819 23.8886 46.1819 12.648 46.2033C12.0131 46.2033 11.8789 46.037 11.8809 45.4241C11.9049 38.4298 11.8949 31.4355 11.8949 24.4413Z" fill="#FEFEFE"/>
<path d="M29.5592 36.7413H41.3926C41.6425 36.7312 41.8927 36.7373 42.1417 36.7593C42.3942 36.7739 42.6323 36.8814 42.8102 37.0611C42.9881 37.2409 43.0932 37.4801 43.1051 37.7328C43.1652 38.2996 42.9049 38.6841 42.3741 38.9005C42.087 38.9878 41.7853 39.0171 41.4868 38.9866H17.5956C17.2976 39.0157 16.9967 38.9892 16.7083 38.9085C16.4647 38.8397 16.2542 38.6849 16.1161 38.4727C15.978 38.2605 15.9215 38.0054 15.9572 37.7548C15.9616 37.4997 16.0612 37.2555 16.2365 37.0701C16.4118 36.8848 16.6502 36.7718 16.9046 36.7533C17.1529 36.7295 17.4025 36.7229 17.6517 36.7333L29.5592 36.7413Z" fill="#4A4A4A"/>
<path d="M29.555 27.7515H41.3844C41.6336 27.7401 41.8833 27.7468 42.1315 27.7715C42.3967 27.7912 42.6446 27.9102 42.8259 28.1048C43.0071 28.2994 43.1082 28.5552 43.109 28.8211C43.1369 29.0724 43.0703 29.3252 42.9222 29.5303C42.7742 29.7354 42.5552 29.8781 42.3078 29.9307C42.0657 29.9869 41.8169 30.0092 41.5687 29.9968H17.5333C17.3592 30.0068 17.1847 30.0068 17.0106 29.9968C16.3576 29.9167 15.937 29.456 15.951 28.8551C15.9547 28.565 16.0731 28.2882 16.2803 28.0852C16.4874 27.8821 16.7666 27.7694 17.0566 27.7715C17.9039 27.7415 18.7531 27.7575 19.6024 27.7575L29.555 27.7515Z" fill="#4A4A4A"/>
<path d="M29.5087 21.0407H17.5952C17.3709 21.0541 17.1458 21.0494 16.9222 21.0267C16.3214 20.9306 15.9809 20.57 15.9528 19.9691C15.9248 19.3683 16.2573 18.9817 16.8281 18.8315C17.0493 18.7912 17.2748 18.7791 17.4991 18.7954H41.5344C41.7348 18.78 41.9362 18.7861 42.1353 18.8134C42.7362 18.9436 43.1368 19.3022 43.1067 19.9511C43.0767 20.6001 42.7062 20.9526 42.0832 21.0347C41.8834 21.0512 41.6827 21.0545 41.4824 21.0447L29.5087 21.0407Z" fill="#4A4A4A"/>
<path d="M29.433 12.0916H17.6778C17.4036 12.1044 17.1288 12.0931 16.8566 12.0576C16.5913 12.0292 16.3479 11.8975 16.1792 11.6909C16.0105 11.4843 15.93 11.2195 15.9552 10.9539C15.9672 10.3671 16.3558 10.0646 16.8926 9.95247C17.0667 9.93171 17.2424 9.92701 17.4174 9.93845H41.6009C41.7759 9.92636 41.9515 9.93038 42.1257 9.95046C42.6945 10.0586 43.1112 10.3511 43.1072 10.984C43.1032 11.6169 42.7506 11.9534 42.1598 12.0556C41.9119 12.0857 41.6621 12.0958 41.4127 12.0856L29.433 12.0916Z" fill="#4A4A4A"/>
</svg>
