<svg width="21" height="21" viewBox="0 0 21 21" fill="none" xmlns="http://www.w3.org/2000/svg">
<path d="M10.3203 19.5C8.58973 19.5 6.89801 18.9868 5.45908 18.0254C4.02015 17.0639 2.89864 15.6973 2.23637 14.0985C1.5741 12.4996 1.40082 10.7403 1.73845 9.04296C2.07607 7.34563 2.90942 5.78653 4.13313 4.56282C5.35684 3.33911 6.91594 2.50575 8.61328 2.16813C10.3106 1.83051 12.0699 2.00379 13.6688 2.66606C15.2676 3.32832 16.6342 4.44983 17.5957 5.88876C18.5571 7.32769 19.0703 9.01942 19.0703 10.75C19.0703 13.0706 18.1484 15.2962 16.5075 16.9372C14.8666 18.5781 12.641 19.5 10.3203 19.5ZM10.3203 3.25C8.83696 3.25 7.38691 3.68987 6.15354 4.51398C4.92017 5.33809 3.95888 6.50943 3.39122 7.87988C2.82356 9.25032 2.67504 10.7583 2.96443 12.2132C3.25382 13.668 3.96812 15.0044 5.01702 16.0533C6.06591 17.1022 7.40228 17.8165 8.85714 18.1059C10.312 18.3953 11.82 18.2468 13.1904 17.6791C14.5609 17.1114 15.7322 16.1501 16.5563 14.9168C17.3804 13.6834 17.8203 12.2334 17.8203 10.75C17.8203 8.76088 17.0301 6.85323 15.6236 5.4467C14.2171 4.04018 12.3094 3.25 10.3203 3.25Z" fill="#4F4F4F"/>
<path d="M13.1891 14.5L9.69531 11.0062V5.125H10.9453V10.4875L14.0703 13.6187L13.1891 14.5Z" fill="#4F4F4F"/>
</svg>
