<svg width="57" height="21" viewBox="0 0 57 21" fill="none" xmlns="http://www.w3.org/2000/svg">
<path d="M20.8541 11.8576C20.2298 16.6312 15.5057 20.5 10.6879 20.5H3.74741C3.15833 20.5002 2.6124 20.1912 2.30963 19.6862C2.00686 19.1811 1.99175 18.5542 2.26983 18.0352L2.55078 17.5048C2.85254 16.9911 2.85254 16.3545 2.55078 15.8408C0.185645 12.1067 0.555054 7.2634 3.45918 3.93078C6.36331 0.598166 11.1126 -0.432449 15.1379 1.39643C19.1633 3.2253 21.509 7.4794 20.9061 11.8576H20.8541Z" fill="#00b14f" stroke="white"/>
<circle cx="32" cy="1.5" r="1" fill="#00b14f"/>
<circle cx="44" cy="1.5" r="1" fill="#00b14f"/>
<circle cx="56" cy="1.5" r="1" fill="#00b14f"/>
<circle cx="7.23828" cy="10.5" r="0.880859" fill="white"/>
<circle cx="11" cy="10.5" r="0.880859" fill="white"/>
<circle cx="14.7617" cy="10.5" r="0.880859" fill="white"/>
</svg>
