<svg width="36" height="36" viewBox="0 0 36 36" fill="none" xmlns="http://www.w3.org/2000/svg">
<path d="M20.288 6.45887C20.3262 6.31609 20.3921 6.18224 20.482 6.06496C20.572 5.94768 20.6841 5.84928 20.8121 5.77536C20.9401 5.70144 21.0814 5.65347 21.2279 5.63418C21.3745 5.61489 21.5234 5.62466 21.6661 5.66293C23.7517 6.20708 25.6545 7.29733 27.1786 8.82142C28.7026 10.3455 29.7929 12.2483 30.337 14.3339C30.3753 14.4766 30.3851 14.6255 30.3658 14.772C30.3465 14.9186 30.2985 15.0599 30.2246 15.1878C30.1507 15.3158 30.0523 15.428 29.935 15.5179C29.8177 15.6079 29.6839 15.6738 29.5411 15.712C29.4461 15.737 29.3483 15.7498 29.25 15.75C29.0023 15.75 28.7615 15.6683 28.5649 15.5176C28.3684 15.3668 28.2271 15.1553 28.163 14.9161C27.7194 13.2133 26.8297 11.6596 25.5856 10.4153C24.3415 9.17092 22.788 8.28091 21.0853 7.83699C20.9424 7.79895 20.8084 7.73312 20.691 7.64325C20.5736 7.55338 20.475 7.44123 20.4009 7.31324C20.3269 7.18524 20.2788 7.0439 20.2594 6.8973C20.24 6.7507 20.2497 6.60171 20.288 6.45887ZM19.9603 12.337C21.8995 12.8545 23.1455 14.1018 23.663 16.0411C23.7271 16.2803 23.8684 16.4918 24.0649 16.6426C24.2615 16.7933 24.5023 16.875 24.75 16.875C24.8483 16.8748 24.9461 16.862 25.0411 16.837C25.1839 16.7988 25.3177 16.7329 25.435 16.6429C25.5523 16.553 25.6507 16.4408 25.7246 16.3128C25.7985 16.1849 25.8465 16.0436 25.8658 15.897C25.8851 15.7505 25.8753 15.6016 25.837 15.4589C25.117 12.7645 23.2355 10.8829 20.5411 10.1629C20.2528 10.0859 19.9457 10.1266 19.6874 10.276C19.4291 10.4254 19.2407 10.6713 19.1637 10.9596C19.0867 11.2479 19.1273 11.555 19.2767 11.8133C19.4261 12.0716 19.672 12.26 19.9603 12.337ZM30.1458 23.4084L23.5209 20.4398L23.5027 20.4314C23.1587 20.2843 22.7836 20.2252 22.4111 20.2596C22.0386 20.294 21.6806 20.4207 21.3694 20.6282C21.3327 20.6524 21.2975 20.6787 21.2639 20.707L17.8411 23.625C15.6727 22.5717 13.4339 20.3498 12.3806 18.2095L15.3028 14.7346C15.3309 14.6995 15.3577 14.6643 15.383 14.6264C15.5861 14.316 15.7093 13.9603 15.7417 13.5908C15.7741 13.2213 15.7146 12.8495 15.5686 12.5086V12.4917L12.5916 5.85558C12.3986 5.41018 12.0667 5.03914 11.6454 4.79786C11.2242 4.55658 10.7362 4.458 10.2544 4.51683C8.34888 4.76758 6.5998 5.70338 5.33382 7.14947C4.06785 8.59555 3.37157 10.453 3.37501 12.375C3.37501 23.5406 12.4594 32.625 23.625 32.625C25.5469 32.6284 27.4044 31.9321 28.8505 30.6661C30.2966 29.4002 31.2324 27.6511 31.4831 25.7456C31.5421 25.2639 31.4437 24.7761 31.2027 24.3548C30.9617 23.9336 30.5909 23.6017 30.1458 23.4084Z" fill="white"/>
</svg>
