<?xml version="1.0" encoding="UTF-8"?>
<svg version="1.1" viewBox="0 0 2048 2043" width="1280" height="1280" xmlns="http://www.w3.org/2000/svg">
<path transform="translate(438,1)" d="m0 0 4 2 124 124 8 7 392 392 6 5 4 5 6 5 5 6 8 7 42 42 4-2 8-8 8-7 15-16 33-33 8-7 4-5 8-7 376-376h2v-2h2l1-3h2l1-3 8-7 9-9 7-8 11-11 11-9 13-10 18-11 21-9 17-5 22-4 21-2h53l26 3 24 5 25 8 20 8 16 8 18 10 15 10 14 11 13 11 22 22 9 11 11 15 11 17 14 27 10 25 6 20 6 28 3 29v39l-3 33-5 27-5 20-9 25-12 25-12 19-13 16-11 12-23 23h-2v2l-8 7-50 50h-2v2l-8 7-53 53-8 7-49 49-8 7-53 53-8 7-52 52-8 7-49 49-8 7-48 48-8 7-31 31-1 2 4 2 428 428 5 4v2h2l3 3v2l4 2 1 3h2l3 3v2l4 2 155 155-2 4-400 400-8 7-28 28-7-6-421-421-7-6-5-5-6-7-8-7-160-160-4 1-46 46-8 7-51 51-8 7-50 50-8 7-49 49-8 7-52 52-8 7-52 52-8 7-51 51-8 7-45 45-11 9-16 12-20 12-19 9-24 8-24 5-22 3-34 1-31-2-24-4-24-6-23-8-24-11-18-10-18-12-13-10-13-11-22-22-9-11-10-13-13-20-10-18-11-26-8-24-6-27-3-22-1-14v-36l2-27 4-24 5-17 6-16 9-17 11-16 11-13 7-8 12-13 32-32 7-6 404-404-6-7-308-308-8-7-6-7-8-7-261-261 2-4 275-275h2l1-3 5-5 4-2 1-3 8-7z" fill="#ED3501"/>
</svg>
