<?xml version="1.0" encoding="UTF-8"?>
<svg version="1.1" viewBox="0 0 900 900" width="1280" height="1280" xmlns="http://www.w3.org/2000/svg">
<path transform="translate(0)" d="m0 0h900v900h-900z" fill="#FEFEFE"/>
<path transform="translate(783,58)" d="m0 0h15l12 3 11 6 10 9 6 8 6 12 2 7v20l-4 12-10 16-12 17-13 18-11 16-13 19-8 11-84 120-12 17-16 23-12 17-16 23-12 17-16 23-9 13-12 17-42 60-13 19-8 11-9 13-12 17-84 120-22 32-13 19-7 10-13 18-11 10-10 6-13 4-15 1-16-3-14-7-12-11-10-13-8-12-182-260-9-16-6-18-1-6v-22l3-16 7-16 9-13 12-12 13-9 11-5 14-4 7-1h23l16 4 16 8 9 6 9 8 9 11 13 18 13 19 12 17 16 23 12 17 14 20 16 23 8 7 5 2h10l9-3 7-7 11-14 13-16 11-13 11-14 14-17 8-10 11-14 10-12 1-2h2l2-4 13-16 8-10 13-16 11-14 11-13 8-10 26-32 11-14 11-13 11-14 14-17 8-10 13-16 11-14 8-9 11-14 9-11 13-16 11-14 12-14 11-14 14-17 11-14 9-11 13-16 14-17 7-8 14-9 9-3z" fill="#08B94E"/>
</svg>
