<svg width="25" height="24" viewBox="0 0 25 24" fill="none" xmlns="http://www.w3.org/2000/svg">
<path d="M8.50007 21.5003C8.89754 21.4989 9.27842 21.3408 9.56007 21.0603L17.5601 13.0603C17.8434 12.7804 18.0029 12.3987 18.0029 12.0003C18.0029 11.602 17.8434 11.2203 17.5601 10.9403L9.56007 2.94035C9.18613 2.53904 8.62296 2.37385 8.09149 2.50958C7.56002 2.6453 7.14502 3.0603 7.0093 3.59177C6.87357 4.12324 7.03876 4.68641 7.44007 5.06035L14.3801 12.0003L7.44007 18.9403C7.1567 19.2203 6.99721 19.602 6.99721 20.0003C6.99721 20.3987 7.1567 20.7804 7.44007 21.0603C7.72172 21.3408 8.1026 21.4989 8.50007 21.5003Z" fill="#00b14f"/>
</svg>
