<svg width="24" height="24" viewBox="0 0 24 24" fill="none" xmlns="http://www.w3.org/2000/svg">
<path d="M15.9999 21.5003C15.6025 21.4989 15.2216 21.3408 14.9399 21.0603L6.93993 13.0603C6.65656 12.7804 6.49707 12.3987 6.49707 12.0003C6.49707 11.602 6.65656 11.2203 6.93993 10.9403L14.9399 2.94035C15.3139 2.53904 15.877 2.37385 16.4085 2.50958C16.94 2.6453 17.355 3.0603 17.4907 3.59177C17.6264 4.12324 17.4612 4.68641 17.0599 5.06035L10.1199 12.0003L17.0599 18.9403C17.3433 19.2203 17.5028 19.602 17.5028 20.0003C17.5028 20.3987 17.3433 20.7804 17.0599 21.0603C16.7783 21.3408 16.3974 21.4989 15.9999 21.5003Z" fill="#00b14f"/>
</svg>
