<svg width="22" height="21" viewBox="0 0 22 21" fill="none" xmlns="http://www.w3.org/2000/svg">
<path d="M21.4234 7.618C21.3297 7.32974 21.1527 7.07568 20.9148 6.88783C20.6769 6.69998 20.3887 6.58673 20.0866 6.56237L14.5553 6.11612L12.4197 0.951432C12.3042 0.670011 12.1076 0.42929 11.855 0.259874C11.6023 0.0904583 11.305 0 11.0008 0C10.6966 0 10.3992 0.0904583 10.1466 0.259874C9.89394 0.42929 9.69736 0.670011 9.58187 0.951432L7.44812 6.11518L1.91406 6.56237C1.61141 6.58797 1.32305 6.70231 1.0851 6.89106C0.847144 7.07982 0.670187 7.3346 0.576395 7.62348C0.482603 7.91237 0.476148 8.22251 0.557838 8.51504C0.639527 8.80758 0.805729 9.0695 1.03562 9.268L5.25437 12.9083L3.96906 18.3514C3.89717 18.6471 3.91477 18.9576 4.01962 19.2432C4.12448 19.5289 4.31185 19.777 4.55796 19.956C4.80407 20.135 5.09781 20.2369 5.40191 20.2486C5.70601 20.2604 6.00674 20.1815 6.26593 20.0221L11.0003 17.1083L15.7375 20.0221C15.9968 20.1796 16.2969 20.257 16.6001 20.2444C16.9032 20.2317 17.1958 20.1297 17.4411 19.951C17.6864 19.7724 17.8733 19.5252 17.9784 19.2406C18.0835 18.9559 18.102 18.6466 18.0316 18.3514L16.7416 12.9074L20.9603 9.26706C21.1921 9.06889 21.3598 8.8064 21.4422 8.51284C21.5247 8.21927 21.5181 7.90784 21.4234 7.618ZM19.9853 8.13081L15.4197 12.0683C15.3156 12.1581 15.2381 12.2747 15.1958 12.4055C15.1535 12.5362 15.1479 12.6761 15.1797 12.8099L16.5747 18.6974C16.5783 18.7055 16.5787 18.7147 16.5757 18.723C16.5727 18.7314 16.5667 18.7383 16.5587 18.7424C16.5419 18.7555 16.5372 18.7527 16.5231 18.7424L11.3931 15.5877C11.275 15.515 11.139 15.4766 11.0003 15.4766C10.8616 15.4766 10.7256 15.515 10.6075 15.5877L5.47749 18.7442C5.46343 18.7527 5.45968 18.7555 5.44187 18.7442C5.43396 18.7402 5.42789 18.7333 5.42493 18.7249C5.42196 18.7166 5.42232 18.7074 5.42593 18.6992L6.82093 12.8117C6.85273 12.678 6.84715 12.5381 6.80483 12.4073C6.7625 12.2766 6.68505 12.1599 6.58093 12.0702L2.01531 8.13268C2.00406 8.12331 1.99374 8.11487 2.00312 8.08581C2.01249 8.05675 2.01999 8.0605 2.03406 8.05862L8.02656 7.57487C8.164 7.56308 8.29554 7.51361 8.40669 7.4319C8.51783 7.35019 8.6043 7.23941 8.65656 7.11175L10.9647 1.52331C10.9722 1.50737 10.975 1.49987 10.9975 1.49987C11.02 1.49987 11.0228 1.50737 11.0303 1.52331L13.3441 7.11175C13.3968 7.23946 13.4838 7.35012 13.5955 7.43152C13.7072 7.51291 13.8391 7.56187 13.9769 7.573L19.9694 8.05675C19.9834 8.05675 19.9919 8.05675 20.0003 8.08393C20.0087 8.11112 20.0003 8.12143 19.9853 8.13081Z" fill="black"/>
</svg>
