<svg width="24" height="25" viewBox="0 0 24 25" fill="none" xmlns="http://www.w3.org/2000/svg">
<path d="M13.8747 12.125H10.1247C9.55003 12.125 8.99893 11.8967 8.59261 11.4904C8.18628 11.0841 7.95801 10.533 7.95801 9.95834C7.95801 9.38371 8.18628 8.83261 8.59261 8.42629C8.99893 8.01996 9.55003 7.79169 10.1247 7.79169H16.1247V6.29169H12.9372V3.5H11.4372V6.29169H10.1247C9.15221 6.29169 8.21958 6.67799 7.53195 7.36563C6.84431 8.05326 6.45801 8.98589 6.45801 9.95834C6.45801 10.9308 6.84431 11.8634 7.53195 12.5511C8.21958 13.2387 9.15221 13.625 10.1247 13.625H13.8747C14.4491 13.6256 14.9998 13.8541 15.406 14.2603C15.8122 14.6665 16.0407 15.2172 16.0413 15.7917V15.9583C16.0407 16.5328 15.8122 17.0835 15.406 17.4897C14.9998 17.8959 14.4491 18.1244 13.8747 18.125H7.52746V19.625H11.4372V22.25H12.9372V19.625H13.8747C14.8468 19.6239 15.7788 19.2372 16.4662 18.5499C17.1536 17.8625 17.5402 16.9305 17.5413 15.9583V15.7917C17.5402 14.8195 17.1536 13.8875 16.4662 13.2001C15.7788 12.5128 14.8468 12.1261 13.8747 12.125Z" fill="black"/>
</svg>
