<svg width="21" height="21" viewBox="0 0 21 21" fill="none" xmlns="http://www.w3.org/2000/svg">
<g clip-path="url(#clip0_7508_5768)">
<path d="M17.7218 4.94531H13.2773V6.05642H17.7218V17.7231H13.2773V18.8342H18.8329V6.05642C18.8329 5.76174 18.7158 5.47912 18.5075 5.27075C18.2991 5.06238 18.0165 4.94531 17.7218 4.94531Z" fill="white"/>
<path d="M11.5419 2.16797H3.8975C3.58514 2.16797 3.28557 2.29206 3.06469 2.51293C2.84381 2.73381 2.71973 3.03338 2.71973 3.34575V18.8346H12.7197V3.34575C12.7197 3.03338 12.5956 2.73381 12.3748 2.51293C12.1539 2.29206 11.8543 2.16797 11.5419 2.16797ZM11.6086 17.7235H9.94195V16.0569H5.4975V17.7235H3.83084V3.34575C3.83084 3.33699 3.83256 3.32832 3.83591 3.32023C3.83926 3.31215 3.84417 3.3048 3.85036 3.29861C3.85655 3.29242 3.8639 3.2875 3.87199 3.28415C3.88008 3.2808 3.88875 3.27908 3.8975 3.27908H11.5419C11.5507 3.27908 11.5594 3.2808 11.5675 3.28415C11.5756 3.2875 11.5829 3.29242 11.5891 3.29861C11.5953 3.3048 11.6002 3.31215 11.6035 3.32023C11.6069 3.32832 11.6086 3.33699 11.6086 3.34575V17.7235Z" fill="white"/>
<path d="M4.94434 4.94531H6.05545V6.05642H4.94434V4.94531Z" fill="white"/>
<path d="M7.16406 4.94531H8.27517V6.05642H7.16406V4.94531Z" fill="white"/>
<path d="M9.38867 4.94531H10.4998V6.05642H9.38867V4.94531Z" fill="white"/>
<path d="M4.94409 7.72266H6.0552V8.83377H4.94409V7.72266Z" fill="white"/>
<path d="M7.16418 7.72266H8.2753V8.83377H7.16418V7.72266Z" fill="white"/>
<path d="M9.38855 7.72266H10.4997V8.83377H9.38855V7.72266Z" fill="white"/>
<path d="M4.94434 10.5H6.05545V11.6111H4.94434V10.5Z" fill="white"/>
<path d="M7.16406 10.5H8.27517V11.6111H7.16406V10.5Z" fill="white"/>
<path d="M9.38867 10.5H10.4998V11.6111H9.38867V10.5Z" fill="white"/>
<path d="M4.94434 13.2773H6.05545V14.3885H4.94434V13.2773Z" fill="white"/>
<path d="M7.16406 13.2773H8.27517V14.3885H7.16406V13.2773Z" fill="white"/>
<path d="M9.38867 13.2773H10.4998V14.3885H9.38867V13.2773Z" fill="white"/>
<path d="M13.2775 7.72266H14.3886V8.83377H13.2775V7.72266Z" fill="white"/>
<path d="M15.5 7.72266H16.6111V8.83377H15.5V7.72266Z" fill="white"/>
<path d="M13.2773 10.5H14.3885V11.6111H13.2773V10.5Z" fill="white"/>
<path d="M15.5 10.5H16.6111V11.6111H15.5V10.5Z" fill="white"/>
<path d="M13.2773 13.2773H14.3885V14.3885H13.2773V13.2773Z" fill="white"/>
<path d="M15.5 13.2773H16.6111V14.3885H15.5V13.2773Z" fill="white"/>
</g>
<defs>
<clipPath id="clip0_7508_5768">
<rect width="20" height="20" fill="white" transform="translate(0.5 0.5)"/>
</clipPath>
</defs>
</svg>
