<?xml version="1.0" standalone="no"?>
<!DOCTYPE svg PUBLIC "-//W3C//DTD SVG 20010904//EN"
 "http://www.w3.org/TR/2001/REC-SVG-20010904/DTD/svg10.dtd">
<svg version="1.0" xmlns="http://www.w3.org/2000/svg"
 width="512.000000pt" height="512.000000pt" viewBox="0 0 512.000000 512.000000"
 preserveAspectRatio="xMidYMid meet">

<g transform="translate(0.000000,512.000000) scale(0.100000,-0.100000)"
fill="#474747" stroke="none">
<path d="M2624 4406 c-33 -33 -36 -40 -31 -79 9 -65 47 -93 138 -102 535 -54
1028 -410 1258 -907 206 -446 196 -949 -29 -1386 -263 -512 -765 -832 -1345
-859 -438 -20 -862 146 -1179 462 -416 414 -568 1032 -389 1588 43 134 70 197
77 177 3 -8 17 -66 31 -129 29 -127 35 -143 67 -165 54 -38 149 -2 163 62 7
33 -106 540 -132 590 -20 40 -64 65 -113 64 -45 0 -535 -193 -566 -223 -50
-47 -36 -132 26 -164 43 -22 58 -20 196 35 70 28 128 49 130 48 1 -2 -17 -53
-41 -113 -379 -947 127 -2030 1100 -2354 218 -73 299 -85 560 -85 202 -1 244
2 343 22 356 72 676 240 924 484 531 524 684 1311 388 1995 -110 257 -283 487
-500 668 -262 218 -640 377 -954 401 l-85 7 -37 -37z"/>
<path d="M2474 3371 c-17 -11 -36 -34 -43 -52 -14 -42 -15 -654 -1 -695 10
-28 407 -415 454 -441 38 -22 83 -15 118 16 28 25 33 36 33 76 l0 47 -198 192
-198 191 1 285 c0 170 -4 300 -11 323 -7 26 -21 44 -42 57 -40 25 -73 25 -113
1z"/>
</g>
</svg>
