<svg width="25" height="25" viewBox="0 0 25 25" fill="none" xmlns="http://www.w3.org/2000/svg">
<path d="M19.7383 18.8906L13.3445 12.5004L19.7383 6.15714C20.0588 5.78603 20.0414 5.22911 19.6985 4.87894C19.3556 4.52878 18.8028 4.50341 18.4297 4.82073L12.0172 11.1169L5.71687 4.77367C5.35228 4.40878 4.76345 4.40878 4.39886 4.77367C4.22189 4.95039 4.12236 5.19094 4.12236 5.44188C4.12236 5.69282 4.22189 5.93337 4.39886 6.11008L10.6898 12.4439L4.29603 18.7777C4.11907 18.9544 4.01953 19.195 4.01953 19.4459C4.01953 19.6969 4.11907 19.9374 4.29603 20.1141C4.47244 20.2903 4.71125 20.3885 4.95971 20.387C5.20362 20.3885 5.43844 20.294 5.61405 20.1235L12.0172 13.7709L18.4297 20.2271C18.6061 20.4032 18.8449 20.5014 19.0933 20.5C19.3386 20.4989 19.5736 20.4009 19.7477 20.2271C19.9234 20.0491 20.0213 19.8078 20.0195 19.5569C20.0178 19.3059 19.9165 19.0661 19.7383 18.8906Z" fill="black"/>
</svg>
