<svg width="31" height="32" viewBox="0 0 31 32" fill="none" xmlns="http://www.w3.org/2000/svg">
<path d="M30.0154 27.5681C30.4178 27.982 30.6439 28.5434 30.6439 29.1287C30.6439 29.714 30.4178 30.2754 30.0154 30.6893C29.613 31.1031 29.0672 31.3357 28.4981 31.3357C27.929 31.3357 27.3832 31.1031 26.9808 30.6893L15.6475 19.0291L4.31055 30.6856C3.90813 31.0995 3.36235 31.332 2.79325 31.332C2.22415 31.332 1.67836 31.0995 1.27595 30.6856C0.873535 30.2717 0.647461 29.7103 0.647461 29.125C0.647461 28.5397 0.873535 27.9783 1.27595 27.5645L12.6129 15.908L1.27952 4.24787C0.877104 3.83399 0.651031 3.27264 0.651031 2.68732C0.651031 2.10199 0.877104 1.54064 1.27952 1.12676C1.68193 0.71287 2.22772 0.480351 2.79682 0.480351C3.36592 0.480351 3.91171 0.71287 4.31412 1.12676L15.6475 12.7869L26.9844 1.12492C27.3868 0.711034 27.9326 0.478516 28.5017 0.478516C29.0708 0.478516 29.6166 0.711034 30.019 1.12492C30.4214 1.53881 30.6475 2.10016 30.6475 2.68548C30.6475 3.2708 30.4214 3.83215 30.019 4.24604L18.6821 15.908L30.0154 27.5681Z" fill="white"/>
</svg>
