<svg width="25" height="25" viewBox="0 0 25 25" fill="none" xmlns="http://www.w3.org/2000/svg">
<path d="M11.375 7.93945H11.75V11.6895H11.375C10.8777 11.6895 10.4008 11.4919 10.0492 11.1403C9.69755 10.7886 9.5 10.3117 9.5 9.81445C9.5 9.31717 9.69755 8.84026 10.0492 8.48863C10.4008 8.137 10.8777 7.93945 11.375 7.93945ZM14.375 13.1895H13.25V16.9395H14.375C14.8723 16.9395 15.3492 16.7419 15.7008 16.3903C16.0525 16.0386 16.25 15.5617 16.25 15.0645C16.25 14.5672 16.0525 14.0903 15.7008 13.7386C15.3492 13.387 14.8723 13.1895 14.375 13.1895ZM22.25 12.4395C22.25 14.3678 21.6782 16.2529 20.6068 17.8563C19.5355 19.4596 18.0127 20.7093 16.2312 21.4473C14.4496 22.1852 12.4892 22.3783 10.5979 22.0021C8.70656 21.6259 6.96928 20.6973 5.60571 19.3337C4.24215 17.9702 3.31355 16.2329 2.93735 14.3416C2.56114 12.4503 2.75422 10.4899 3.49218 8.70829C4.23013 6.92671 5.47982 5.40397 7.08319 4.33262C8.68657 3.26128 10.5716 2.68945 12.5 2.68945C15.085 2.69218 17.5634 3.72029 19.3913 5.54818C21.2192 7.37607 22.2473 9.85443 22.25 12.4395ZM17.75 15.0645C17.75 14.1693 17.3944 13.3109 16.7615 12.678C16.1286 12.045 15.2701 11.6895 14.375 11.6895H13.25V7.93945H13.625C14.1223 7.93945 14.5992 8.137 14.9508 8.48863C15.3025 8.84026 15.5 9.31717 15.5 9.81445C15.5 10.0134 15.579 10.2041 15.7197 10.3448C15.8603 10.4854 16.0511 10.5645 16.25 10.5645C16.4489 10.5645 16.6397 10.4854 16.7803 10.3448C16.921 10.2041 17 10.0134 17 9.81445C17 8.91935 16.6444 8.0609 16.0115 7.42797C15.3786 6.79503 14.5201 6.43945 13.625 6.43945H13.25V5.68945C13.25 5.49054 13.171 5.29978 13.0303 5.15912C12.8897 5.01847 12.6989 4.93945 12.5 4.93945C12.3011 4.93945 12.1103 5.01847 11.9697 5.15912C11.829 5.29978 11.75 5.49054 11.75 5.68945V6.43945H11.375C10.4799 6.43945 9.62145 6.79503 8.98852 7.42797C8.35558 8.0609 8 8.91935 8 9.81445C8 10.7096 8.35558 11.568 8.98852 12.2009C9.62145 12.8339 10.4799 13.1895 11.375 13.1895H11.75V16.9395H11C10.5027 16.9395 10.0258 16.7419 9.67418 16.3903C9.32255 16.0386 9.125 15.5617 9.125 15.0645C9.125 14.8655 9.04599 14.6748 8.90533 14.5341C8.76468 14.3935 8.57392 14.3145 8.375 14.3145C8.17609 14.3145 7.98533 14.3935 7.84467 14.5341C7.70402 14.6748 7.625 14.8655 7.625 15.0645C7.625 15.9596 7.98058 16.818 8.61352 17.4509C9.24645 18.0839 10.1049 18.4395 11 18.4395H11.75V19.1895C11.75 19.3884 11.829 19.5791 11.9697 19.7198C12.1103 19.8604 12.3011 19.9395 12.5 19.9395C12.6989 19.9395 12.8897 19.8604 13.0303 19.7198C13.171 19.5791 13.25 19.3884 13.25 19.1895V18.4395H14.375C15.2701 18.4395 16.1286 18.0839 16.7615 17.4509C17.3944 16.818 17.75 15.9596 17.75 15.0645Z" fill="#00b14f"/>
</svg>
