<svg width="11" height="13" viewBox="0 0 11 13" fill="none" xmlns="http://www.w3.org/2000/svg">
<path d="M5.78271 0.375C4.5068 0.376447 3.28357 0.883942 2.38136 1.78615C1.47916 2.68835 0.971662 3.91159 0.970215 5.1875C0.970215 9.30547 5.34521 12.4155 5.5317 12.5457C5.60526 12.5972 5.6929 12.6249 5.78271 12.6249C5.87253 12.6249 5.96017 12.5972 6.03373 12.5457C6.22021 12.4155 10.5952 9.30547 10.5952 5.1875C10.5938 3.91159 10.0863 2.68835 9.18407 1.78615C8.28186 0.883942 7.05862 0.376447 5.78271 0.375ZM5.78271 3.4375C6.12883 3.4375 6.46718 3.54014 6.75496 3.73243C7.04275 3.92472 7.26705 4.19803 7.3995 4.5178C7.53196 4.83757 7.56661 5.18944 7.49909 5.52891C7.43157 5.86837 7.26489 6.18019 7.02015 6.42494C6.77541 6.66968 6.46359 6.83635 6.12412 6.90387C5.78466 6.9714 5.43279 6.93674 5.11302 6.80429C4.79325 6.67184 4.51994 6.44753 4.32764 6.15975C4.13535 5.87196 4.03271 5.53362 4.03271 5.1875C4.03271 4.72337 4.21709 4.27825 4.54528 3.95006C4.87347 3.62187 5.31859 3.4375 5.78271 3.4375Z" fill="#7F878F"/>
</svg>
