<svg width="26" height="26" viewBox="0 0 26 26" fill="none" xmlns="http://www.w3.org/2000/svg">
<rect x="0.996094" y="1.25" width="24" height="24" rx="12" fill="white"/>
<rect x="0.996094" y="1.25" width="24" height="24" rx="12" stroke="#00b14f"/>
<path d="M19.3711 11.125H15.1211V6.875C15.1211 6.31141 14.8972 5.77091 14.4987 5.3724C14.1002 4.97388 13.5597 4.75 12.9961 4.75C12.4325 4.75 11.892 4.97388 11.4935 5.3724C11.095 5.77091 10.8711 6.31141 10.8711 6.875L10.9465 11.125H6.62109C6.05751 11.125 5.51701 11.3489 5.11849 11.7474C4.71998 12.1459 4.49609 12.6864 4.49609 13.25C4.49609 13.8136 4.71998 14.3541 5.11849 14.7526C5.51701 15.1511 6.05751 15.375 6.62109 15.375L10.9465 15.2996L10.8711 19.625C10.8711 20.1886 11.095 20.7291 11.4935 21.1276C11.892 21.5261 12.4325 21.75 12.9961 21.75C13.5597 21.75 14.1002 21.5261 14.4987 21.1276C14.8972 20.7291 15.1211 20.1886 15.1211 19.625V15.2996L19.3711 15.375C19.9347 15.375 20.4752 15.1511 20.8737 14.7526C21.2722 14.3541 21.4961 13.8136 21.4961 13.25C21.4961 12.6864 21.2722 12.1459 20.8737 11.7474C20.4752 11.3489 19.9347 11.125 19.3711 11.125Z" fill="#00b14f"/>
</svg>
