<svg width="61" height="61" viewBox="0 0 61 61" fill="none" xmlns="http://www.w3.org/2000/svg">
<path d="M60.589 51.5956C60.4324 51.663 60.4731 51.829 60.4324 51.948C59.8983 53.4719 58.6313 54.3943 57.0182 54.4053C55.6525 54.4147 54.2868 54.4053 52.8867 54.4053C53.236 55.5505 53.1387 56.7855 52.6142 57.8618C52.2944 58.5229 51.8233 59.0993 51.2391 59.5443C50.6549 59.9893 49.974 60.2903 49.2518 60.4231C48.5295 60.5558 47.7861 60.5164 47.0819 60.3081C46.3776 60.0998 45.7324 59.7286 45.1985 59.2243C43.6652 57.7772 42.1977 56.2596 40.7162 54.7577C40.6076 54.638 40.474 54.5438 40.3248 54.4818C40.1756 54.4198 40.0146 54.3915 39.8532 54.399C35.8689 54.4116 31.8852 54.4116 27.9019 54.399C26.8792 54.399 26.2512 53.5909 26.6302 52.7655C26.8792 52.2205 27.3444 52.0498 27.9238 52.0529C31.0561 52.0623 34.1744 52.0529 37.2988 52.0529H37.8924C37.8454 51.8305 37.6857 51.7397 37.5792 51.6285C36.0631 50.1062 34.5377 48.5933 33.0373 47.0616C32.793 46.8126 32.6223 46.7813 32.2981 46.9426C22.6945 51.7319 11.4072 46.6528 8.63828 36.31C6.13244 26.9241 12.5192 17.1607 22.1244 15.712C31.4273 14.3025 39.8767 20.5514 41.2314 29.8716C41.7248 33.2858 41.1468 36.5559 39.5854 39.6349C39.399 39.9999 39.4288 40.1862 39.717 40.4697C43.4841 44.2138 47.2428 47.9689 50.9932 51.735C51.088 51.8419 51.2052 51.9266 51.3366 51.9829C51.4679 52.0392 51.61 52.0658 51.7528 52.0608C53.4756 52.0451 55.1889 52.0608 56.9086 52.0514C57.8279 52.0514 58.268 51.6081 58.268 50.681C58.268 38.0067 58.2727 25.3318 58.2821 12.6565C58.2821 12.1584 58.0425 12.207 57.7183 12.207C49.614 12.207 41.5092 12.207 33.4038 12.207C23.465 12.207 13.5252 12.2033 3.58432 12.196C3.08628 12.196 2.9469 12.2884 2.9469 12.8225C2.96569 25.3611 2.97039 37.8991 2.96099 50.4367C2.96099 51.7146 3.30711 52.0561 4.60232 52.0561C8.70458 52.0561 12.8058 52.0561 16.906 52.0561C17.3555 52.0561 17.7658 52.1218 18.0649 52.4883C18.2067 52.6518 18.298 52.8529 18.3277 53.0672C18.3575 53.2816 18.3244 53.4999 18.2325 53.6958C18.1552 53.8987 18.0187 54.0737 17.8409 54.1982C17.6631 54.3227 17.452 54.391 17.2349 54.3943C16.7478 54.421 16.2592 54.4037 15.7705 54.4037H4.37679C2.04636 54.4037 0.589844 52.9394 0.589844 50.5948C0.589844 35.3238 0.589844 20.0518 0.589844 4.77872C0.589844 2.27288 1.2163 1.35668 3.51854 0.5H57.6603C58.8052 0.60963 59.6399 1.18284 60.2335 2.16012C60.4778 2.55949 60.4653 3.00897 60.589 3.43026V51.5956Z" fill="#4A4A4A"/>
<path d="M60.5887 3.43376C60.2754 2.36095 59.7508 1.44475 58.7093 0.927925C58.3741 0.757215 58.0077 0.647587 57.6553 0.509766C58.5339 0.509766 59.4125 0.522295 60.2911 0.509766C60.5448 0.509766 60.6043 0.558314 60.5918 0.810464C60.5777 1.67498 60.5887 2.55359 60.5887 3.43376Z" fill="white"/>
<path d="M48.64 25.3492C47.2305 25.3492 45.8319 25.3492 44.4286 25.3492C43.5954 25.3492 43.0426 24.8794 43.041 24.1809C43.0395 23.4824 43.6001 23.0094 44.4286 23.0078C47.255 23.0078 50.0819 23.0078 52.9093 23.0078C53.7206 23.0078 54.2406 23.4573 54.2593 24.148C54.2781 24.8386 53.7425 25.3445 52.9093 25.3476C51.4873 25.3539 50.0636 25.3492 48.64 25.3492Z" fill="#4A4A4A"/>
<path d="M51.2599 17.3817C51.8253 17.3817 52.3891 17.3817 52.9545 17.3817C53.7375 17.3927 54.2669 17.875 54.2591 18.5657C54.2512 19.2564 53.7407 19.7137 52.9858 19.7215C51.8174 19.7309 50.6491 19.7309 49.4807 19.7215C48.7384 19.7215 48.209 19.2282 48.1965 18.5688C48.184 17.9095 48.7353 17.3927 49.5074 17.3817C50.0915 17.3754 50.6757 17.3817 51.2599 17.3817Z" fill="#4A4A4A"/>
<path d="M51.5927 30.9719C51.1228 30.9719 50.653 30.986 50.1832 30.9719C50.0264 30.9776 49.8702 30.9517 49.7237 30.8957C49.5772 30.8397 49.4435 30.7547 49.3306 30.6459C49.2177 30.5371 49.1279 30.4066 49.0666 30.2622C49.0052 30.1179 48.9736 29.9627 48.9736 29.8059C48.9736 29.6491 49.0052 29.4938 49.0666 29.3495C49.1279 29.2052 49.2177 29.0747 49.3306 28.9659C49.4435 28.857 49.5772 28.7721 49.7237 28.716C49.8702 28.66 50.0264 28.6341 50.1832 28.6399C51.1364 28.62 52.0907 28.62 53.0461 28.6399C53.2024 28.635 53.358 28.6618 53.5037 28.7185C53.6494 28.7752 53.7821 28.8607 53.894 28.97C54.0059 29.0792 54.0945 29.2099 54.1547 29.3542C54.2149 29.4985 54.2453 29.6534 54.2442 29.8098C54.2442 30.4613 53.7461 30.9406 53.0398 30.975H52.9223C52.4744 30.975 52.0265 30.975 51.5786 30.975L51.5927 30.9719Z" fill="#4A4A4A"/>
<path d="M43.0185 19.7223C42.6097 19.7223 42.1994 19.7395 41.7922 19.7223C41.4836 19.7237 41.187 19.6025 40.9678 19.3853C40.7485 19.1681 40.6245 18.8727 40.6231 18.5641C40.6216 18.2555 40.7428 17.9589 40.96 17.7397C41.1772 17.5204 41.4726 17.3964 41.7812 17.395C42.5972 17.3683 43.4163 17.3683 44.2338 17.395C44.5354 17.4045 44.8215 17.5307 45.0319 17.7468C45.2423 17.963 45.3607 18.2524 45.3621 18.5541C45.3636 18.8558 45.2479 19.1463 45.0395 19.3645C44.8311 19.5826 44.5462 19.7114 44.2448 19.7238C43.8438 19.7395 43.4272 19.7223 43.0185 19.7223Z" fill="#4A4A4A"/>
<path d="M23.5741 53.2187C23.5788 53.3741 23.552 53.5289 23.4952 53.6737C23.4385 53.8185 23.3531 53.9503 23.2441 54.0612C23.135 54.1721 23.0047 54.2598 22.8609 54.3191C22.7171 54.3783 22.5628 54.4078 22.4074 54.4058C22.2503 54.4099 22.094 54.3823 21.9478 54.3247C21.8017 54.2671 21.6686 54.1806 21.5566 54.0704C21.4446 53.9602 21.3559 53.8286 21.2958 53.6834C21.2358 53.5383 21.2056 53.3825 21.2071 53.2253C21.2086 53.0682 21.2417 52.913 21.3044 52.769C21.3672 52.625 21.4583 52.495 21.5724 52.387C21.6864 52.2789 21.8211 52.195 21.9683 52.1401C22.1155 52.0852 22.2723 52.0605 22.4293 52.0676C22.7335 52.0692 23.0247 52.1912 23.2392 52.4069C23.4537 52.6226 23.5741 52.9145 23.5741 53.2187Z" fill="#4A4A4A"/>
<path d="M30.5658 9.88556C21.5636 9.88556 12.5619 9.88556 3.56074 9.88556C3.0674 9.88556 2.90765 9.79942 2.92175 9.2591C2.96403 7.60055 2.93584 5.94043 2.93741 4.28031C2.93741 3.26545 3.35244 2.83789 4.34694 2.83789H56.8317C57.8278 2.83789 58.2413 3.26389 58.2413 4.27405C58.2413 5.95296 58.224 7.63187 58.2554 9.31078C58.2632 9.77123 58.1395 9.8793 57.6853 9.8793C48.6455 9.8699 39.6057 9.87199 30.5658 9.88556Z" fill="white"/>
<path d="M24.7041 46.4393C21.8765 46.4337 19.1141 45.5897 16.7662 44.0141C14.4183 42.4385 12.5904 40.202 11.5137 37.5875C10.4369 34.9729 10.1596 32.0978 10.717 29.3257C11.2743 26.5536 12.6412 24.009 14.6447 22.0138C16.6483 20.0186 19.1985 18.6623 21.9729 18.1165C24.7473 17.5707 27.6213 17.8599 30.2313 18.9476C32.8413 20.0352 35.0702 21.8724 36.636 24.2269C38.2018 26.5813 39.0343 29.3472 39.0281 32.1748C39.0148 35.9642 37.4996 39.5937 34.8145 42.2677C32.1294 44.9416 28.4935 46.4418 24.7041 46.4393Z" fill="white"/>
<path d="M50.7506 55.844C50.6942 56.7837 50.262 57.5433 49.327 57.9489C48.392 58.3545 47.4789 58.1885 46.7366 57.4791C45.6121 56.3953 44.522 55.2771 43.4163 54.1729C41.9254 52.6819 40.4406 51.1847 38.9387 49.7047C38.6834 49.4525 38.6255 49.31 38.9168 49.025C39.8565 48.1354 40.7523 47.2161 41.6528 46.2936C41.8596 46.0822 41.9786 46.0509 42.2057 46.2795C44.8159 48.9107 47.4356 51.536 50.0646 54.1557C50.5064 54.6063 50.7529 55.2129 50.7506 55.844Z" fill="white"/>
<path d="M40.2422 44.3699C40.1513 44.467 40.0746 44.5516 39.9931 44.633C39.0707 45.5571 38.1404 46.4748 37.2273 47.4083C37.0253 47.615 36.9 47.6698 36.6745 47.4318C36.1122 46.8366 35.5249 46.265 34.9392 45.6933C34.7638 45.5226 34.7434 45.4239 34.9611 45.2564C36.0414 44.4202 37.0122 43.4516 37.8507 42.3731C37.9744 42.2165 38.0527 42.1147 38.2422 42.312C38.853 42.9385 39.4795 43.554 40.0981 44.1757C40.1509 44.2367 40.1991 44.3017 40.2422 44.3699Z" fill="white"/>
<path d="M40.4308 7.53666H28.1929C28.0175 7.5437 27.8417 7.54056 27.6667 7.52726C27.3765 7.50114 27.1066 7.36741 26.91 7.15237C26.7135 6.93732 26.6045 6.65652 26.6045 6.36518C26.6045 6.07384 26.7135 5.79304 26.91 5.57799C27.1066 5.36295 27.3765 5.22922 27.6667 5.2031C27.8423 5.19054 28.0185 5.18741 28.1945 5.1937H52.6749C52.8698 5.1845 53.0651 5.19025 53.2591 5.21093C53.5371 5.25067 53.7915 5.38936 53.9755 5.60154C54.1595 5.81371 54.2608 6.08512 54.2608 6.36596C54.2608 6.6468 54.1595 6.91821 53.9755 7.13039C53.7915 7.34256 53.5371 7.48125 53.2591 7.521C53.065 7.54034 52.8698 7.54557 52.6749 7.53666H40.4308Z" fill="#4A4A4A"/>
<path d="M8.11034 5.1875C8.343 5.19081 8.56938 5.26341 8.76056 5.39602C8.95174 5.52864 9.09904 5.71526 9.18362 5.93202C9.2682 6.14878 9.28623 6.38583 9.2354 6.61289C9.18456 6.83994 9.06718 7.04669 8.89825 7.20669C8.72932 7.36669 8.51652 7.47269 8.28704 7.51113C8.05756 7.54958 7.82183 7.51872 7.60998 7.42251C7.39812 7.32629 7.21977 7.1691 7.09772 6.97101C6.97566 6.77291 6.91545 6.54293 6.92477 6.31044C6.94045 6.00685 7.0723 5.72093 7.293 5.51188C7.5137 5.30284 7.80636 5.1867 8.11034 5.1875Z" fill="#4A4A4A"/>
<path d="M13.2715 5.18755C13.5041 5.19183 13.7302 5.26537 13.9208 5.39877C14.1114 5.53218 14.2579 5.71939 14.3416 5.93649C14.4253 6.15358 14.4423 6.3907 14.3906 6.61753C14.3388 6.84437 14.2206 7.05062 14.051 7.20992C13.8815 7.36923 13.6682 7.47436 13.4386 7.51187C13.209 7.54939 12.9734 7.51759 12.762 7.42053C12.5505 7.32347 12.3728 7.16557 12.2515 6.967C12.1303 6.76843 12.071 6.53822 12.0812 6.30578C12.0973 6.00195 12.2301 5.71606 12.4519 5.50773C12.6736 5.2994 12.9672 5.1847 13.2715 5.18755Z" fill="#4A4A4A"/>
<path d="M19.5689 6.3847C19.5643 6.61688 19.4907 6.84243 19.3573 7.03255C19.224 7.22268 19.037 7.36876 18.8203 7.45214C18.6035 7.53552 18.3669 7.55243 18.1405 7.50069C17.9141 7.44896 17.7083 7.33093 17.5493 7.16168C17.3903 6.99243 17.2853 6.77964 17.2478 6.55047C17.2103 6.32129 17.2419 6.08614 17.3386 5.87502C17.4353 5.66391 17.5928 5.48641 17.7909 5.36518C17.9889 5.24396 18.2186 5.18451 18.4507 5.19443C18.7544 5.21093 19.04 5.34383 19.2483 5.5655C19.4565 5.78717 19.5714 6.08056 19.5689 6.3847Z" fill="#4A4A4A"/>
<path d="M24.7084 44.0959C22.3446 44.0909 20.0353 43.3851 18.0726 42.0676C16.1099 40.7501 14.582 38.8802 13.6821 36.6943C12.7822 34.5084 12.5508 32.1048 13.017 29.7873C13.4833 27.4699 14.6263 25.3428 16.3015 23.675C17.9768 22.0072 20.1089 20.8737 22.4284 20.4178C24.7479 19.9618 27.1505 20.204 29.3324 21.1136C31.5142 22.0232 33.3773 23.5595 34.686 25.528C35.9948 27.4965 36.6903 29.8089 36.6848 32.1728C36.6736 35.3408 35.4065 38.375 33.1614 40.6102C30.9163 42.8453 27.8764 44.0988 24.7084 44.0959Z" fill="#4A4A4A"/>
<path d="M24.7099 41.7515C23.4384 41.7618 22.1774 41.5197 21.0001 41.0391C19.8229 40.5584 18.7527 39.8489 17.8517 38.9516C16.9507 38.0544 16.2368 36.9871 15.7513 35.8119C15.2658 34.6366 15.0184 33.3767 15.0235 32.1051C15.0286 30.8335 15.286 29.5756 15.7809 28.4043C16.2757 27.2329 16.9982 26.1714 17.9063 25.2814C18.8145 24.3913 19.8903 23.6904 21.0713 23.2192C22.2524 22.748 23.5152 22.5159 24.7866 22.5364C30.0614 22.5521 34.3543 26.8872 34.3402 32.1839C34.3265 34.728 33.3055 37.1631 31.5006 38.9562C29.6958 40.7493 27.2541 41.7544 24.7099 41.7515Z" fill="white"/>
<path d="M25.9047 34.7973C25.9047 35.4989 25.9047 36.2068 25.9047 36.9022C25.9047 37.7087 25.4458 38.2256 24.7504 38.235C24.0551 38.2444 23.5696 37.726 23.5649 36.9335C23.5565 35.4906 23.5565 34.0481 23.5649 32.6062C23.5649 31.856 24.0504 31.3376 24.7175 31.3282C25.3847 31.3189 25.8937 31.8482 25.9031 32.6344C25.911 33.3548 25.9047 34.0753 25.9047 34.7973Z" fill="#4A4A4A"/>
<path d="M25.9023 27.2455C25.8969 27.5554 25.7686 27.8504 25.5457 28.0657C25.3228 28.281 25.0235 28.3989 24.7136 28.3935C24.4037 28.3881 24.1087 28.2598 23.8934 28.0369C23.6781 27.814 23.5602 27.5147 23.5656 27.2048C23.5683 27.0514 23.6011 26.9 23.6623 26.7592C23.7235 26.6185 23.8118 26.4912 23.9222 26.3846C24.0326 26.278 24.1629 26.1942 24.3057 26.138C24.4484 26.0817 24.6009 26.0541 24.7543 26.0568C24.9077 26.0595 25.0591 26.0924 25.1999 26.1535C25.3406 26.2147 25.4679 26.303 25.5745 26.4134C25.6811 26.5238 25.7649 26.6541 25.8212 26.7969C25.8774 26.9396 25.905 27.0921 25.9023 27.2455Z" fill="#4A4A4A"/>
</svg>
