<svg width="57" height="60" viewBox="0 0 57 60" fill="none" xmlns="http://www.w3.org/2000/svg">
<path d="M10.7941 8.39002C10.7941 7.00482 10.7839 5.78892 10.7941 4.57474C10.8181 2.27633 12.5539 0.520037 14.8471 0.514907C22.1391 0.502936 29.4311 0.514904 36.7247 0.501223C36.9253 0.492071 37.1249 0.534414 37.3045 0.624216C37.4841 0.714019 37.6378 0.848292 37.7508 1.01426C38.5033 2.07112 39.502 2.31908 40.7777 2.28146C44.015 2.1874 47.2608 2.32421 50.4981 2.22674C53.2462 2.14465 54.9119 4.20535 54.8452 6.54138C54.7409 10.1856 54.823 13.8333 54.8093 17.4862C54.8093 17.8966 54.8709 18.2369 55.2214 18.4815C56.3621 19.2801 56.5998 20.3626 56.5895 21.7307C56.5348 33.8418 56.5587 45.9546 56.557 58.0674C56.557 59.2645 56.4698 59.3551 55.2402 59.3551H15.0113C12.8685 59.3551 11.2388 58.0554 10.8523 56.0306C10.7952 55.6515 10.774 55.2679 10.789 54.8848C10.789 45.6091 10.7936 36.3329 10.8027 27.056C10.8027 26.4609 10.6402 26.3326 10.0725 26.3412C7.7279 26.3737 5.38161 26.3583 3.03532 26.3532C1.5116 26.3532 0.598394 25.4605 0.596684 23.9402C0.587564 19.2476 0.587564 14.5562 0.596684 9.86586C0.596684 8.40028 1.46885 7.50076 2.93442 7.47168C4.81556 7.4409 6.68814 7.45971 8.56415 7.47168C8.97925 7.46148 9.39193 7.53787 9.77587 7.69599C10.1598 7.8541 10.5066 8.09046 10.7941 8.39002Z" fill="#333333"/>
<path d="M34.7636 58.0531H15.3212C13.1493 58.0531 12.0925 57.0048 12.0925 54.8518C12.0925 45.5772 12.0873 36.3021 12.0771 27.0264C12.0771 26.4518 12.2242 26.332 12.7748 26.3423C15.1194 26.3748 17.4657 26.3594 19.8103 26.3543C21.3801 26.3543 22.2831 25.4684 22.2865 23.9122C22.2945 20.671 22.2945 17.4297 22.2865 14.1885C22.2865 12.6647 21.3733 11.7669 19.8564 11.7635C17.8043 11.7635 15.7641 11.7515 13.7171 11.7738C13.5537 11.7818 13.3911 11.748 13.2444 11.6756C13.0978 11.6031 12.9721 11.4945 12.8791 11.3599C12.5829 11.0158 12.359 10.6156 12.2206 10.1831C12.0823 9.75065 12.0323 9.29478 12.0737 8.84262C12.1472 7.47452 12.0873 6.10642 12.0925 4.75029C12.101 2.97177 13.2229 1.82085 14.9997 1.81743C22.1001 1.80717 29.1937 1.81743 36.2993 1.80717C36.4348 1.80259 36.5698 1.8276 36.6947 1.88046C36.8196 1.93333 36.9315 2.01278 37.0226 2.11329C42.9876 8.08732 48.9576 14.0568 54.9328 20.0217C55.0385 20.1227 55.1208 20.2456 55.174 20.3818C55.2271 20.518 55.2499 20.6642 55.2406 20.8101C55.2406 33.0272 55.244 45.2443 55.2508 57.4614C55.2508 58.024 55.0371 58.0634 54.5856 58.0634C47.98 58.0497 41.3726 58.0463 34.7636 58.0531Z" fill="white"/>
<path d="M11.4099 25.0543C8.66228 25.0543 5.91411 25.0543 3.16537 25.0543C2.2231 25.0543 1.93066 24.7738 1.93066 23.8572C1.93066 19.233 1.93066 14.6089 1.93066 9.9847C1.93066 9.06636 2.19402 8.80642 3.10723 8.80471C4.89602 8.80471 6.68651 8.8201 8.4753 8.80471C8.79429 8.78334 9.11307 8.84946 9.39725 8.99592C9.68143 9.14238 9.92025 9.36364 10.0879 9.63583C10.7292 10.5867 11.4253 11.505 12.0512 12.4678C12.3556 12.9381 12.7147 13.0937 13.2636 13.0851C15.3722 13.0578 17.4808 13.0732 19.5911 13.0749C20.7044 13.0749 20.9592 13.3229 20.9592 14.4071C20.9592 17.5172 20.9592 20.6279 20.9592 23.7392C20.9592 24.8063 20.6976 25.0697 19.6527 25.0697L11.4099 25.0543Z" fill="white"/>
<path d="M53.5043 16.5902L40.4766 3.5625H50.6655C52.5278 3.5625 53.5282 4.57147 53.5282 6.45431C53.5282 9.80045 53.5282 13.1477 53.5282 16.4962C53.5254 16.5286 53.5173 16.5604 53.5043 16.5902Z" fill="white"/>
<path d="M46.3765 47.0635C46.3765 45.1823 45.3385 44.1289 43.4693 44.1289H33.6806C30.3544 44.1289 27.0282 44.1289 23.702 44.1289C22.1526 44.1289 21.0393 45.1345 20.9863 46.6684C20.9299 48.2657 20.9282 49.8681 20.9863 51.4568C21.0428 52.9548 22.1595 53.9792 23.6593 53.9809C30.3322 53.99 37.0051 53.99 43.678 53.9809C45.2564 53.9809 46.3594 52.8574 46.3731 51.2738C46.3851 49.8783 46.3782 48.4675 46.3765 47.0635ZM45.0768 51.137C45.0768 52.1785 44.5484 52.6932 43.4915 52.6949C40.2309 52.6949 36.9697 52.6949 33.7079 52.6949H23.9876C22.7324 52.6949 22.2929 52.2588 22.2894 51.007C22.2894 49.6389 22.2894 48.2708 22.2894 46.9147C22.2894 45.928 22.8025 45.4252 23.7943 45.4252C30.3795 45.4252 36.9657 45.4252 43.5531 45.4252C44.5587 45.4252 45.0683 45.9553 45.0734 46.9797C45.0848 48.366 45.086 49.7518 45.0768 51.137Z" fill="#333333"/>
<path d="M33.7065 36.9473C36.5385 36.9473 39.3716 36.9473 42.2058 36.9473C42.6932 36.9473 43.1652 37.0003 43.1498 37.6091C43.1344 38.2179 42.6641 38.2572 42.1785 38.2555C36.5111 38.2555 30.8449 38.2555 25.1798 38.2555C25.0738 38.2555 24.9661 38.2555 24.8601 38.2555C24.4667 38.2281 24.2119 38.0315 24.2051 37.6211C24.2051 37.1781 24.4548 36.9609 24.8891 36.9592C26.0862 36.9592 27.2747 36.9592 28.4684 36.9592L33.7065 36.9473Z" fill="#333333"/>
<path d="M33.6376 40.3706H38.426C38.8791 40.3706 39.334 40.41 39.3494 40.9914C39.3682 41.6002 38.9219 41.6943 38.4294 41.6926C35.2531 41.6926 32.0774 41.6926 28.9023 41.6926C28.4012 41.6926 27.9583 41.5763 27.972 40.9931C27.9857 40.4356 28.4354 40.3655 28.8989 40.3672C30.4842 40.3741 32.0609 40.3706 33.6376 40.3706Z" fill="#333333"/>
<path d="M6.31875 11.9061C5.48934 11.9061 4.65993 11.8959 3.83223 11.9061C3.38076 11.9061 3.04557 11.7351 3.0336 11.2837C3.01992 10.7911 3.36023 10.5996 3.84078 10.5996C5.52012 10.6099 7.19946 10.5996 8.8788 10.5996C9.31831 10.5996 9.65349 10.7364 9.66717 11.2255C9.68427 11.7539 9.34225 11.9096 8.87025 11.8993C8.02032 11.8993 7.17039 11.9061 6.31875 11.9061Z" fill="#333333"/>
<path d="M47.8033 6.15395C46.8439 6.15395 45.8846 6.15395 44.9269 6.15395C44.4686 6.15395 44.0872 6.04108 44.0821 5.51607C44.077 4.99107 44.4361 4.8457 44.9029 4.8457C46.8627 4.8457 48.8231 4.8457 50.7841 4.8457C51.2561 4.8457 51.6066 5.01672 51.5998 5.52975C51.5998 6.00346 51.2578 6.16079 50.808 6.15737C49.8076 6.14882 48.8054 6.15395 47.8033 6.15395Z" fill="#333333"/>
<path d="M49.1903 7.46864C49.7427 7.46864 50.295 7.46009 50.8491 7.46864C51.2835 7.4789 51.617 7.66531 51.6033 8.15269C51.5896 8.64008 51.2613 8.80083 50.8183 8.80254C49.7113 8.80254 48.6049 8.80254 47.499 8.80254C47.0646 8.80254 46.7328 8.63152 46.7192 8.1544C46.7055 7.67728 47.0321 7.48745 47.4665 7.47035C48.0411 7.46009 48.6157 7.46864 49.1903 7.46864Z" fill="#333333"/>
<path d="M50.1748 11.2606C49.8995 11.2606 49.6224 11.2743 49.3471 11.2606C49.2668 11.2616 49.1872 11.2458 49.1133 11.2142C49.0395 11.1826 48.973 11.1359 48.9183 11.0772C48.8635 11.0184 48.8217 10.9488 48.7954 10.8729C48.7691 10.797 48.759 10.7165 48.7657 10.6364C48.7657 10.2636 48.9623 10.0088 49.3283 9.98829C49.8978 9.95182 50.469 9.95182 51.0384 9.98829C51.1192 9.9915 51.1985 10.0114 51.2713 10.0467C51.344 10.082 51.4087 10.132 51.4612 10.1935C51.5137 10.255 51.553 10.3267 51.5764 10.4041C51.5999 10.4815 51.6071 10.5629 51.5976 10.6433C51.6004 10.7236 51.5868 10.8037 51.5577 10.8787C51.5286 10.9536 51.4846 11.0219 51.4283 11.0793C51.372 11.1367 51.3046 11.1821 51.2302 11.2127C51.1559 11.2433 51.0761 11.2584 50.9957 11.2572C50.7272 11.2743 50.4501 11.2606 50.1748 11.2606Z" fill="#333333"/>
</svg>
