<svg width="31" height="25" viewBox="0 0 31 25" fill="none" xmlns="http://www.w3.org/2000/svg">
<path d="M4.35355 2.76591C4.15829 2.57065 3.84171 2.57065 3.64645 2.76591L0.464466 5.94789C0.269204 6.14316 0.269204 6.45974 0.464466 6.655C0.659728 6.85026 0.976311 6.85026 1.17157 6.655L4 3.82657L6.82843 6.655C7.02369 6.85026 7.34027 6.85026 7.53553 6.655C7.7308 6.45974 7.7308 6.14316 7.53553 5.94789L4.35355 2.76591ZM3.64645 21.5754C3.84171 21.7707 4.15829 21.7707 4.35355 21.5754L7.53553 18.3935C7.7308 18.1982 7.7308 17.8816 7.53553 17.6863C7.34027 17.4911 7.02369 17.4911 6.82843 17.6863L4 20.5148L1.17157 17.6863C0.976311 17.4911 0.659729 17.4911 0.464467 17.6864C0.269205 17.8816 0.269205 18.1982 0.464467 18.3935L3.64645 21.5754ZM3.5 3.11947L3.5 21.2219L4.5 21.2219L4.5 3.11947L3.5 3.11947Z" fill="#333333"/>
<path d="M25.2702 5.27167C25.2782 4.71944 24.8369 4.26536 24.2847 4.25745L11.286 4.07122C10.7338 4.06331 10.2797 4.50456 10.2718 5.05679C10.2639 5.60902 10.7051 6.0631 11.2574 6.07101L24.256 6.25724C24.8082 6.26516 25.2623 5.8239 25.2702 5.27167Z" fill="#333333"/>
<path d="M25.17 12.271C25.1779 11.7187 24.7366 11.2646 24.1844 11.2567L11.1857 11.0705C10.6335 11.0626 10.1794 11.5038 10.1715 12.0561C10.1636 12.6083 10.6048 13.0624 11.1571 13.0703L24.1557 13.2565C24.708 13.2644 25.162 12.8232 25.17 12.271Z" fill="#333333"/>
<path d="M25.0697 19.2702C25.0776 18.718 24.6363 18.2639 24.0841 18.256L11.0854 18.0698C10.5332 18.0619 10.0791 18.5031 10.0712 19.0554C10.0633 19.6076 10.5046 20.0617 11.0568 20.0696L24.0555 20.2558C24.6077 20.2637 25.0618 19.8225 25.0697 19.2702Z" fill="#333333"/>
</svg>
