<svg width="16" height="15" viewBox="0 0 16 15" fill="none" xmlns="http://www.w3.org/2000/svg">
<path d="M8 0C12.1423 0 15.5 3.35775 15.5 7.5C15.5 11.6423 12.1423 15 8 15C3.85775 15 0.5 11.6423 0.5 7.5C0.5 3.35775 3.85775 0 8 0ZM8 3C7.80109 3 7.61032 3.07902 7.46967 3.21967C7.32902 3.36032 7.25 3.55109 7.25 3.75V7.5C7.25004 7.6989 7.32909 7.88963 7.46975 8.03025L9.71975 10.2802C9.8612 10.4169 10.0507 10.4925 10.2473 10.4908C10.4439 10.489 10.6321 10.4102 10.7711 10.2711C10.9102 10.1321 10.989 9.94395 10.9908 9.7473C10.9925 9.55065 10.9169 9.3612 10.7802 9.21975L8.75 7.1895V3.75C8.75 3.55109 8.67098 3.36032 8.53033 3.21967C8.38968 3.07902 8.19891 3 8 3Z" fill="#7F878F"/>
</svg>
