<?xml version="1.0" encoding="UTF-8"?>
<svg version="1.1" viewBox="0 0 900 900" width="1280" height="1280" xmlns="http://www.w3.org/2000/svg">
<path transform="translate(0)" d="m0 0h900v900h-900z" fill="#FE140D"/>
<path transform="translate(210,279)" d="m0 0h482l1 7v49l-1 442-1 25-2 9-6 9-8 6-7 3-384 1h-44l-10-2-9-6-7-8-3-7-1-8-1-104-1-225v-131l1-59z" fill="#FEFFFE"/>
<path transform="translate(0)" d="m0 0h442v1l-47 1-18 1-10 2-19 8-16 9-13 10-10 10-10 13-8 14-6 14-5 19-2 18v16l-1 4-6 1h-121l-18 1-11 4-8 7-4 8-2 8-1 11v28l-9 1h-21l-5-1v70h67l2 1 1 440 1 99 5 14 8 16 8 11 6 8 8 7 14 10 16 8 12 4 8 1 32 1 56 1v1h-315z" fill="#FEFFFE"/>
<path transform="translate(481)" d="m0 0h419v900h-320v-1l74-1 23-1 13-3 19-9 12-8 10-9 9-10 9-14 7-14 4-16v-344l1-189 1-2 41-1h27v-23l1-47-15 1h-17l-3-3-1-31-3-15-5-9-8-6-4-2-7-1-24-1h-115l-3-1-1-2-2-25-3-18-5-16-7-16-10-14-11-13-7-7-15-10-16-8-15-6-11-2-42-2z" fill="#FEFFFE"/>
<path transform="translate(416,346)" d="m0 0h68l2 1v409l-2 6h-66l-2-1-1-84v-329z" fill="#FE140D"/>
<path transform="translate(334,346)" d="m0 0h13l1 2v412l-3 2h-52l-14-1-1-413 1-1z" fill="#FE140D"/>
<path transform="translate(556,346)" d="m0 0 66 1 1 2v407l-2 6h-65l-2-2v-413z" fill="#FE140D"/>
<path transform="translate(407,72)" d="m0 0h48l53 1 9 1 12 6 11 10 7 11 4 12 1 9v18l-7 1h-190l-5-1-1-2v-14l3-15 5-12 8-11 9-7 8-4 8-2z" fill="#FEFFFE"/>
</svg>
