<svg width="25" height="25" viewBox="0 0 25 25" fill="none" xmlns="http://www.w3.org/2000/svg">
<path d="M15.99 2.99684V7.12684C15.99 7.8669 16.5899 8.46684 17.33 8.46684H21.5C21.7016 8.46256 21.8817 8.33989 21.9596 8.15389C22.0375 7.96788 21.9984 7.75346 21.86 7.60684L16.86 2.60684C16.7149 2.44405 16.4811 2.39403 16.2822 2.48322C16.0832 2.57241 15.965 2.78024 15.99 2.99684Z" fill="#00b14f"/>
<path d="M17.24 9.46684C16.0217 9.45586 15.04 8.46515 15.04 7.24684V2.93684C15.04 2.68831 14.8385 2.48684 14.59 2.48684H12.18C10.1863 2.48684 8.57 4.10309 8.57 6.09684V16.1668C8.57 18.1606 10.1863 19.7768 12.18 19.7768H18.4C20.3954 19.7768 22.0145 18.1622 22.02 16.1668V9.91684C22.0146 9.6667 21.8102 9.46678 21.56 9.46684H17.24Z" fill="#00b14f"/>
<path d="M7.33 16.5768C7.32999 18.9864 9.28042 20.9413 11.69 20.9468L16.28 20.9568C15.622 22.1849 14.3432 22.9529 12.95 22.9568H7.28C5.19236 22.9568 3.5 21.2645 3.5 19.1768V9.72684C3.5 8.72432 3.89825 7.76286 4.60714 7.05398C5.31602 6.34509 6.27748 5.94684 7.28 5.94684H7.39C7.35521 6.13499 7.33515 6.32557 7.33 6.51684V16.5768Z" fill="#00b14f"/>
</svg>
