<svg width="33" height="33" viewBox="0 0 33 33" fill="none" xmlns="http://www.w3.org/2000/svg">
<path fill-rule="evenodd" clip-rule="evenodd" d="M19.6262 3.0525L28.9595 12.6775C29.1242 12.8807 29.2055 13.1422 29.1862 13.4062V20.7762C29.1866 24.3385 26.4135 27.2411 22.9595 27.2938C22.0764 29.5399 19.9762 31.0235 17.6262 31.0613H10.3595C7.13939 31.0613 4.52688 28.3733 4.51953 25.0525V12.5675C4.52686 9.2445 7.13723 6.55256 10.3595 6.545H10.9329C11.9586 4.24411 14.1839 2.76425 16.6395 2.75H18.9195C19.1847 2.75024 19.4388 2.85905 19.6262 3.0525ZM25.7995 12.2788L20.1062 6.4075V10.67C20.1134 11.5554 20.8077 12.2713 21.6662 12.2788H25.7995ZM17.6262 28.9988H10.3595C8.24395 28.9988 6.52688 27.2342 6.51953 25.0525V12.5675C6.51953 10.3805 8.23876 8.6075 10.3595 8.6075V20.7763C10.3595 24.3834 13.1951 27.3075 16.6929 27.3075H20.8262C20.0972 28.3833 18.8987 29.0167 17.6262 28.9988ZM16.6395 25.245H22.9062C25.2994 25.245 27.2395 23.2443 27.2395 20.7762V14.5475H21.5995C19.526 14.54 17.8468 12.8084 17.8395 10.67V4.8125H16.6395C15.4844 4.81613 14.3782 5.29378 13.5651 6.13997C12.7521 6.98616 12.2991 8.13129 12.3062 9.3225V20.7762C12.3135 23.2411 14.2493 25.2374 16.6395 25.245Z" fill="black"/>
</svg>
