<svg width="21" height="20" viewBox="0 0 21 20" fill="none" xmlns="http://www.w3.org/2000/svg">
<path d="M3.70528 3.125C4.03284 3.125 4.34699 2.99989 4.57862 2.77719C4.81024 2.55449 4.94037 2.25244 4.94037 1.9375C4.94037 1.62256 4.81024 1.32051 4.57862 1.09781C4.34699 0.875111 4.03284 0.75 3.70528 0.75H1.23509C0.907526 0.75 0.593375 0.875111 0.36175 1.09781C0.130126 1.32051 0 1.62256 0 1.9375V18.5625C0 18.8774 0.130126 19.1795 0.36175 19.4022C0.593375 19.6249 0.907526 19.75 1.23509 19.75H3.70528C4.03284 19.75 4.34699 19.6249 4.57862 19.4022C4.81024 19.1795 4.94037 18.8774 4.94037 18.5625C4.94037 18.2476 4.81024 17.9455 4.57862 17.7228C4.34699 17.5001 4.03284 17.375 3.70528 17.375H2.47019V3.125H3.70528ZM20.7743 9.56125L17.2913 4.81125C17.1024 4.55524 16.8158 4.38154 16.4941 4.32814C16.1724 4.27473 15.8418 4.34596 15.5745 4.52625C15.4409 4.61625 15.3272 4.73079 15.2399 4.86327C15.1527 4.99575 15.0935 5.14354 15.066 5.29811C15.0384 5.45268 15.043 5.61096 15.0794 5.76383C15.1158 5.9167 15.1833 6.06112 15.2781 6.18875L17.4025 9.0625H7.41056C7.08299 9.0625 6.76884 9.18761 6.53721 9.41031C6.30559 9.63301 6.17546 9.93505 6.17546 10.25C6.17546 10.5649 6.30559 10.867 6.53721 11.0897C6.76884 11.3124 7.08299 11.4375 7.41056 11.4375H17.2913L15.0681 14.2875C14.9708 14.4123 14.9 14.5542 14.8598 14.7053C14.8195 14.8564 14.8106 15.0136 14.8335 15.1679C14.8565 15.3223 14.9108 15.4708 14.9934 15.605C15.0761 15.7392 15.1854 15.8564 15.3151 15.95C15.5289 16.1042 15.789 16.1875 16.0562 16.1875C16.2479 16.1875 16.4371 16.1446 16.6086 16.0621C16.7801 15.9797 16.9292 15.86 17.0443 15.7125L20.7496 10.9625C20.9077 10.7617 20.9954 10.5176 20.9998 10.2658C21.0043 10.0139 20.9253 9.76713 20.7743 9.56125Z" fill="white"/>
</svg>
