<?xml version="1.0" encoding="UTF-8"?>
<svg version="1.1" viewBox="0 0 900 900" width="1280" height="1280" xmlns="http://www.w3.org/2000/svg">
<path transform="translate(0)" d="m0 0h900v900h-900z" fill="#FEFEFE"/>
<path transform="translate(478,183)" d="m0 0 4 1 2 4 4 2v2l4 2v2l4 2v2l4 2v2l4 2v2l4 2 4 5 4 3v2l3 1 5 5 1 3-5 5-12 13-359 359-6 16-12 42-30 102 2 6 5 5v2l4 2v2l3 1 6 7 7 6 3 3 16-4 54-16 68-20 15-5 8-7 374-374 5-1 6 7 20 20 7 6 5 6 5 5 7 6-2 4-133 133-8 7-102 102-8 7-77 77h-2l-1 3-8 7-21 21-8 7-17 17-11 8-27 9-38 11-33 10-82 24-52 15-37 10-14 4-10 1-10-4-10-8-7-10-2-7v-7l6-25 15-53 19-65 12-41 25-85 6-18 6-8 227-227h2l2-4 5-4 6-7 7-6 5-6 7-6 5-6 7-6 74-74 6-5 5-5z" fill="#FEA408"/>
<path transform="translate(561,269)" d="m0 0 4 1 10 9 47 47 4 3-1 5-8 8-5 6-7 6-6 7h-2l-2 4h-2l-1 3-5 5h-2l-2 4h-2l-2 4h-2l-1 3-6 5-6 7-7 6-5 6-7 6-5 6-7 6-5 6-6 5-6 7-6 5-6 7-7 6-5 6-6 5-6 7-7 6-5 6-7 6-5 6-6 5-6 7-6 5-6 7-6 5-6 7-7 6-5 6-7 6-5 6-7 6-5 6-5 5h-2l-2 4-6 5-5 6-8 7-70 70h-2v2l-8 7-19 19-11 9-2 2h-3l-2-10-6-34-1-2-23-6-30-7 2-5 377-377z" fill="#FEA408"/>
<path transform="translate(690)" d="m0 0h16l13 3 12 4 17 9 15 14 12 11 14 14 8 7 43 43 7 8 13 13v2l3 1 7 8 8 8 9 12 6 12 5 15 1 7v20l-5 16-7 14-9 12-9 10-7 8-9 9-6 7-5 5-4-1-228-228-2-1 1-4 27-27 8-7 11-9 14-8 10-4z" fill="#FEA408"/>
<path transform="translate(569,94)" d="m0 0 4 2 234 234 3 2-1 4-7 7-6 7-8 7-12 12-8 7-10 9h-5l-6-7-7-6-5-6-7-6-7-8-66-66-7-6-5-6-128-128 1-4 5-5 10-9 17-17 8-7z" fill="#FEA408"/>
</svg>
