<svg width="21" height="21" viewBox="0 0 21 21" fill="none" xmlns="http://www.w3.org/2000/svg">
<path d="M5.48446 18.8102L6.68578 17.6089L3.58347 14.5066L2.38215 15.7079V17.1205H4.07192V18.8102H5.48446ZM12.3888 6.55941C12.3888 6.36579 12.2919 6.26898 12.0983 6.26898C12.0103 6.26898 11.9355 6.29978 11.8739 6.36139L4.71879 13.5165C4.65718 13.5781 4.62638 13.6529 4.62638 13.7409C4.62638 13.9345 4.72319 14.0314 4.91681 14.0314C5.00481 14.0314 5.07962 14.0006 5.14123 13.9389L12.2963 6.78383C12.3579 6.72222 12.3888 6.64742 12.3888 6.55941ZM11.6759 4.02475L17.1676 9.5165L6.18413 20.5H0.692383V15.0083L11.6759 4.02475ZM20.6924 5.29208C20.6924 5.75853 20.5296 6.15457 20.2039 6.4802L18.0125 8.67162L12.5208 3.17987L14.7122 1.00165C15.029 0.667217 15.4251 0.5 15.9003 0.5C16.3668 0.5 16.7672 0.667217 17.1016 1.00165L20.2039 4.09076C20.5296 4.43399 20.6924 4.83443 20.6924 5.29208Z" fill="#777777"/>
</svg>
