<svg width="41" height="41" viewBox="0 0 41 41" fill="none" xmlns="http://www.w3.org/2000/svg">
<path d="M34.007 18.834H7.17367C6.29921 18.834 5.59033 19.5429 5.59033 20.4173V20.584C5.59033 21.4584 6.29921 22.1673 7.17367 22.1673H34.007C34.8814 22.1673 35.5903 21.4584 35.5903 20.584V20.4173C35.5903 19.5429 34.8814 18.834 34.007 18.834Z" fill="#00b14f"/>
<path d="M34.007 27.166H7.17367C6.29921 27.166 5.59033 27.8749 5.59033 28.7494V28.916C5.59033 29.7905 6.29921 30.4993 7.17367 30.4993H34.007C34.8814 30.4993 35.5903 29.7905 35.5903 28.916V28.7494C35.5903 27.8749 34.8814 27.166 34.007 27.166Z" fill="#00b14f"/>
<path d="M34.007 10.5H7.17367C6.29921 10.5 5.59033 11.2089 5.59033 12.0833V12.25C5.59033 13.1245 6.29921 13.8333 7.17367 13.8333H34.007C34.8814 13.8333 35.5903 13.1245 35.5903 12.25V12.0833C35.5903 11.2089 34.8814 10.5 34.007 10.5Z" fill="#00b14f"/>
</svg>
