<svg width="9" height="14" viewBox="0 0 9 14" fill="none" xmlns="http://www.w3.org/2000/svg">
<path d="M0.602678 1.71428C0.602678 1.59375 0.656249 1.48661 0.736607 1.40625L1.40625 0.736606C1.48661 0.65625 1.60714 0.602677 1.71429 0.602677C1.82143 0.602677 1.94196 0.65625 2.02232 0.736606L8.26339 6.97768C8.34375 7.05804 8.39732 7.17857 8.39732 7.28571C8.39732 7.39286 8.34375 7.51339 8.26339 7.59375L2.02232 13.8348C1.94196 13.9152 1.82143 13.9687 1.71429 13.9687C1.60714 13.9687 1.48661 13.9152 1.40625 13.8348L0.736607 13.1652C0.656249 13.0848 0.602678 12.9643 0.602678 12.8571C0.602678 12.75 0.656249 12.6295 0.736607 12.5491L6 7.28571L0.736607 2.02232C0.656249 1.94196 0.602678 1.82143 0.602678 1.71428Z" fill="#00b14f"/>
</svg>
