<svg width="9" height="14" viewBox="0 0 9 14" fill="none" xmlns="http://www.w3.org/2000/svg">
<path d="M8.39732 1.71428C8.39732 1.59375 8.34375 1.48661 8.26339 1.40625L7.59375 0.736606C7.51339 0.65625 7.39286 0.602677 7.28571 0.602677C7.17857 0.602677 7.05804 0.65625 6.97768 0.736606L0.736607 6.97768C0.65625 7.05804 0.602679 7.17857 0.602679 7.28571C0.602679 7.39286 0.65625 7.51339 0.736607 7.59375L6.97768 13.8348C7.05804 13.9152 7.17857 13.9687 7.28571 13.9687C7.39286 13.9687 7.51339 13.9152 7.59375 13.8348L8.26339 13.1652C8.34375 13.0848 8.39732 12.9643 8.39732 12.8571C8.39732 12.75 8.34375 12.6295 8.26339 12.5491L3 7.28571L8.26339 2.02232C8.34375 1.94196 8.39732 1.82143 8.39732 1.71428Z" fill="#00b14f"/>
</svg>
