<svg width="44" height="44" viewBox="0 0 44 44" fill="none" xmlns="http://www.w3.org/2000/svg">
<g filter="url(#filter0_d_103_11013)">
<path d="M22.2969 37.5C31.9619 37.5 39.7969 29.665 39.7969 20C39.7969 10.335 31.9619 2.5 22.2969 2.5C12.6319 2.5 4.79688 10.335 4.79688 20C4.79688 29.665 12.6319 37.5 22.2969 37.5Z" fill="white" fill-opacity="0.28"/>
<path d="M20.707 26.364L20.6889 20.7958H18.3203V18.4094H20.6889V16.8185C20.6889 14.6714 22.0086 13.6367 23.9097 13.6367C24.8203 13.6367 25.6029 13.705 25.831 13.7356V15.9794L24.5125 15.98C23.4786 15.98 23.2784 16.475 23.2784 17.2013V18.4094H26.2156L25.426 20.7958H23.2784V26.364H20.707Z" fill="white"/>
</g>
<defs>
<filter id="filter0_d_103_11013" x="0.796875" y="0.5" width="43" height="43" filterUnits="userSpaceOnUse" color-interpolation-filters="sRGB">
<feFlood flood-opacity="0" result="BackgroundImageFix"/>
<feColorMatrix in="SourceAlpha" type="matrix" values="0 0 0 0 0 0 0 0 0 0 0 0 0 0 0 0 0 0 127 0" result="hardAlpha"/>
<feOffset dy="2"/>
<feGaussianBlur stdDeviation="2"/>
<feComposite in2="hardAlpha" operator="out"/>
<feColorMatrix type="matrix" values="0 0 0 0 0 0 0 0 0 0 0 0 0 0 0 0 0 0 0.15 0"/>
<feBlend mode="normal" in2="BackgroundImageFix" result="effect1_dropShadow_103_11013"/>
<feBlend mode="normal" in="SourceGraphic" in2="effect1_dropShadow_103_11013" result="shape"/>
</filter>
</defs>
</svg>
