<svg width="25" height="24" viewBox="0 0 25 24" fill="none" xmlns="http://www.w3.org/2000/svg">
<path d="M9.84959 5.71026H3.84959C3.43538 5.71026 3.09959 6.04605 3.09959 6.46026C3.09959 6.87448 3.43538 7.21026 3.84959 7.21026H9.84959C10.2638 7.21026 10.5996 6.87448 10.5996 6.46026C10.5996 6.04605 10.2638 5.71026 9.84959 5.71026Z" fill="white"/>
<path fill-rule="evenodd" clip-rule="evenodd" d="M5.75959 13.1003H3.84959C3.43538 13.1003 3.09959 12.7645 3.09959 12.3503C3.09959 11.936 3.43538 11.6003 3.84959 11.6003H5.75959C6.12442 10.5787 7.17143 9.96785 8.24027 10.153C9.30911 10.3381 10.0897 11.2655 10.0897 12.3503C10.0897 13.435 9.30911 14.3624 8.24027 14.5475C7.17143 14.7327 6.12442 14.1218 5.75959 13.1003ZM7.84959 13.0803C8.25276 13.0803 8.57959 12.7534 8.57959 12.3503C8.57959 11.9471 8.25276 11.6203 7.84959 11.6203C7.65598 11.6203 7.47031 11.6972 7.3334 11.8341C7.1965 11.971 7.11959 12.1567 7.11959 12.3503C7.11959 12.7534 7.44642 13.0803 7.84959 13.0803Z" fill="white"/>
<path fill-rule="evenodd" clip-rule="evenodd" d="M15.5696 7.17026C15.228 7.97715 14.4455 8.50922 13.5696 8.53026V8.46026C12.41 8.4647 11.4405 7.57964 11.3395 6.42442C11.2386 5.26919 12.0398 4.22938 13.1827 4.03262C14.3255 3.83585 15.4284 4.5478 15.7196 5.67026C15.7627 5.66461 15.8064 5.66461 15.8496 5.67026H19.7996C20.2138 5.67026 20.5496 6.00605 20.5496 6.42026C20.5496 6.83448 20.2138 7.17026 19.7996 7.17026H15.7996C15.7232 7.17978 15.646 7.17978 15.5696 7.17026ZM14.3033 6.22723C14.2855 5.83559 13.9616 5.52789 13.5696 5.53026V5.57026C13.3687 5.57254 13.1777 5.65748 13.0415 5.80507C12.9052 5.95267 12.8358 6.14987 12.8496 6.35026C12.8979 6.73931 13.2449 7.02071 13.6356 6.98765C14.0262 6.95459 14.321 6.61887 14.3033 6.22723Z" fill="white"/>
<path d="M9.84959 17.8103H3.84959C3.42433 17.8103 3.07959 18.155 3.07959 18.5803C3.07959 19.0055 3.42433 19.3503 3.84959 19.3503H9.84959C10.2638 19.3503 10.5996 19.0145 10.5996 18.6003C10.5996 18.1861 10.2638 17.8503 9.84959 17.8503V17.8103Z" fill="white"/>
<path fill-rule="evenodd" clip-rule="evenodd" d="M15.9796 17.8103H19.8496V17.8503C20.2638 17.8503 20.5996 18.1861 20.5996 18.6003C20.5996 19.0145 20.2638 19.3503 19.8496 19.3503H15.8496C15.3921 20.3227 14.3038 20.8278 13.2658 20.5495C12.2279 20.2711 11.5383 19.2893 11.6287 18.2185C11.7191 17.1476 12.5635 16.2953 13.6334 16.1949C14.7034 16.0945 15.6916 16.7749 15.9796 17.8103ZM13.1681 18.6866C13.2842 18.9591 13.5535 19.1343 13.8496 19.1303C14.2489 19.1248 14.5696 18.7996 14.5696 18.4003C14.5696 18.1041 14.3906 17.8373 14.1166 17.7249C13.8426 17.6125 13.5278 17.6769 13.3199 17.8877C13.1119 18.0986 13.0519 18.4142 13.1681 18.6866Z" fill="white"/>
<path d="M19.8496 11.6003H11.8496C11.4354 11.6003 11.0996 11.936 11.0996 12.3503C11.0996 12.7645 11.4354 13.1003 11.8496 13.1003H19.8496C20.2638 13.1003 20.5996 12.7645 20.5996 12.3503C20.5996 11.936 20.2638 11.6003 19.8496 11.6003Z" fill="white"/>
</svg>
