<svg width="25" height="25" viewBox="0 0 25 25" fill="none" xmlns="http://www.w3.org/2000/svg">
<path d="M16.4083 15.5759L18.3898 13.584C18.5858 13.3736 18.881 13.287 19.1596 13.3582C19.4382 13.4293 19.6558 13.6469 19.7269 13.9254C19.7981 14.204 19.7115 14.4993 19.5011 14.6953L17.5196 16.6872C17.373 16.8357 17.1727 16.9189 16.964 16.9179C16.7545 16.9226 16.5528 16.8389 16.4083 16.6872C16.2584 16.5412 16.1739 16.3408 16.1739 16.1316C16.1739 15.9223 16.2584 15.722 16.4083 15.5759Z" fill="#00b14f"/>
<path fill-rule="evenodd" clip-rule="evenodd" d="M19.4487 6.63306H14.4268C13.2688 6.63306 12.33 5.69429 12.33 4.53626C12.33 3.37822 11.3912 2.43945 10.2332 2.43945H5.21136C3.1681 2.44518 1.51152 4.09708 1.50001 6.14031V18.5639C1.49722 19.549 1.88734 20.4947 2.58396 21.1913C3.28058 21.8879 4.2262 22.278 5.21136 22.2752H19.4487C21.4984 22.2752 23.16 20.6136 23.16 18.5639V10.3549C23.16 8.30347 21.5001 6.63884 19.4487 6.63306ZM20.4447 15.5655L16.3664 19.455C16.1537 19.6668 15.8775 19.803 15.5801 19.8429L13.3784 20.1784C13.2039 20.21 13.0248 20.1564 12.8964 20.0342C12.7679 19.9119 12.7055 19.7357 12.7284 19.5599L13.0744 17.4631C13.1207 17.1775 13.2609 16.9156 13.4728 16.7187L17.572 12.8291C18.3705 12.0288 19.6598 12.0056 20.4866 12.7767C20.8675 13.1433 21.0793 13.6516 21.0713 14.1802C21.0634 14.7088 20.8364 15.2105 20.4447 15.5655Z" fill="#00b14f"/>
</svg>
