<svg width="30" height="31" viewBox="0 0 30 31" fill="none" xmlns="http://www.w3.org/2000/svg">
<path d="M27.2451 25.7553L21.6799 20.1877C23.3485 18.0133 24.1276 15.2855 23.859 12.5578C23.5904 9.83008 22.2943 7.30665 20.2336 5.49941C18.1729 3.69217 15.502 2.73644 12.7625 2.82609C10.0231 2.91575 7.4203 4.04408 5.48219 5.98219C3.54408 7.92031 2.41575 10.5231 2.32609 13.2625C2.23644 16.002 3.19217 18.6729 4.99941 20.7336C6.80665 22.7943 9.33008 24.0904 12.0578 24.359C14.7855 24.6276 17.5133 23.8485 19.6877 22.1799L25.2576 27.751C25.3884 27.8818 25.5437 27.9856 25.7146 28.0564C25.8855 28.1271 26.0687 28.1636 26.2537 28.1636C26.4387 28.1636 26.6219 28.1271 26.7928 28.0564C26.9637 27.9856 27.119 27.8818 27.2498 27.751C27.3806 27.6202 27.4844 27.4649 27.5552 27.294C27.626 27.1231 27.6624 26.9399 27.6624 26.7549C27.6624 26.5699 27.626 26.3867 27.5552 26.2158C27.4844 26.0449 27.3806 25.8896 27.2498 25.7588L27.2451 25.7553ZM5.15646 13.6252C5.15646 12.0491 5.62381 10.5085 6.49943 9.19801C7.37505 7.88755 8.6196 6.86618 10.0757 6.26304C11.5318 5.65991 13.134 5.5021 14.6798 5.80957C16.2256 6.11705 17.6455 6.876 18.76 7.99045C19.8744 9.1049 20.6334 10.5248 20.9408 12.0706C21.2483 13.6164 21.0905 15.2186 20.4874 16.6747C19.8842 18.1308 18.8629 19.3754 17.5524 20.251C16.242 21.1266 14.7013 21.594 13.1252 21.594C11.0124 21.5918 8.98681 20.7515 7.49285 19.2576C5.99889 17.7636 5.15863 15.738 5.15646 13.6252Z" fill="white"/>
</svg>
