<svg width="25" height="24" viewBox="0 0 25 24" fill="none" xmlns="http://www.w3.org/2000/svg">
<path fill-rule="evenodd" clip-rule="evenodd" d="M20.4392 7.66933C19.013 4.24469 15.6714 2.01004 11.9616 2.00013C7.96344 1.97907 4.40834 4.54006 3.16202 8.3391C1.9157 12.1381 3.26288 16.3074 6.49656 18.6588C9.73025 21.0103 14.1117 21.0068 17.3416 18.6501L20.2216 21.5301C20.5145 21.8226 20.9888 21.8226 21.2816 21.5301C21.5741 21.2373 21.5741 20.7629 21.2816 20.4701L18.4916 17.6801C21.0977 15.04 21.8654 11.094 20.4392 7.66933ZM19.1021 14.1691C17.9046 17.0547 15.0859 18.9342 11.9616 18.9301V18.8901C7.72135 18.8847 4.2791 15.4603 4.25164 11.2201C4.24759 8.09586 6.12703 5.27717 9.0127 4.0797C11.8984 2.88223 15.2213 3.54208 17.4305 5.75127C19.6397 7.96046 20.2995 11.2834 19.1021 14.1691Z" fill="#7D7D7D"/>
</svg>
