<svg width="20" height="20" viewBox="0 0 20 20" fill="none" xmlns="http://www.w3.org/2000/svg">
<path d="M5.90794 9.71432L9.70794 12.881L14.7746 6.54766M10.3413 18.581C9.17689 18.581 8.0239 18.3516 6.94815 17.9061C5.8724 17.4605 4.89494 16.8073 4.0716 15.984C3.24825 15.1607 2.59514 14.1832 2.14954 13.1074C1.70395 12.0317 1.47461 10.8787 1.47461 9.71432C1.47461 8.54994 1.70395 7.39695 2.14954 6.3212C2.59514 5.24544 3.24825 4.26799 4.0716 3.44464C4.89494 2.6213 5.8724 1.96818 6.94815 1.52259C8.0239 1.077 9.17689 0.847656 10.3413 0.847656C12.6929 0.847656 14.9481 1.78182 16.611 3.44464C18.2738 5.10747 19.2079 7.36274 19.2079 9.71432C19.2079 12.0659 18.2738 14.3212 16.611 15.984C14.9481 17.6468 12.6929 18.581 10.3413 18.581Z" stroke="#58A7A3"/>
</svg>
