<svg width="25" height="24" viewBox="0 0 25 24" fill="none" xmlns="http://www.w3.org/2000/svg">
<path d="M2.34961 4.25C2.34961 3.00736 3.35697 2 4.59961 2H8.76961C10.0123 2 11.0196 3.00736 11.0196 4.25V6.42C11.0196 7.66264 10.0122 8.67 8.76961 8.67H4.59961C3.35697 8.67 2.34961 7.66264 2.34961 6.42V4.25Z" fill="#333333"/>
<path d="M13.6896 4.25C13.6896 3.00736 14.697 2 15.9396 2H19.4396C20.6823 2 21.6896 3.00736 21.6896 4.25V11.08C21.6896 12.3226 20.6823 13.33 19.4396 13.33H15.9396C14.697 13.33 13.6896 12.3226 13.6896 11.08V4.25Z" fill="#333333"/>
<path d="M13.6896 18.25C13.6896 17.0074 14.697 16 15.9396 16H19.4396C20.6823 16 21.6896 17.0074 21.6896 18.25V19.75C21.6896 20.9926 20.6823 22 19.4396 22H15.9396C14.697 22 13.6896 20.9926 13.6896 19.75V18.25Z" fill="#333333"/>
<path d="M2.34961 13.58C2.34961 12.3374 3.35697 11.33 4.59961 11.33H8.76961C10.0123 11.33 11.0196 12.3374 11.0196 13.58V19.75C11.0196 20.9926 10.0122 22 8.76961 22H4.59961C3.35697 22 2.34961 20.9926 2.34961 19.75V13.58Z" fill="#333333"/>
</svg>
