<svg width="43" height="43" viewBox="0 0 43 43" fill="none" xmlns="http://www.w3.org/2000/svg">
<circle cx="21.2031" cy="21.5" r="21" fill="#00b14f"/>
<path d="M15.2033 11.5V11.8984C15.2033 16.2464 16.9332 19.9863 19.571 21.37V21.6299C16.9331 23.0136 15.2032 26.7535 15.2032 31.1015V31.5H28.2031V31.1015C28.2031 26.728 26.4439 22.9869 23.7815 21.6259V21.374C26.4437 20.0129 28.2031 16.2718 28.2031 11.8984V11.5H15.2031H15.2033ZM16.0618 12.2969H27.3447C27.2324 16.4099 25.407 19.7824 23.1766 20.7796L22.9344 20.8875V22.1137L23.1767 22.2216C25.4069 23.2188 27.2322 26.5902 27.3447 30.703H16.0618C16.1731 26.6133 17.9715 23.2365 20.1817 22.2189L20.4197 22.1097V20.8902L20.1817 20.781C17.9716 19.7634 16.1731 16.3866 16.0618 12.2969ZM25.748 15.9698C23.1364 17.1558 20.1025 17.1571 17.6981 16.1445C18.3625 18.3154 19.6846 19.8606 21.24 20.1159C21.1674 20.2061 21.1281 20.3161 21.128 20.4291C21.128 20.7174 21.3768 20.9516 21.6834 20.9516C21.99 20.9516 22.2388 20.7174 22.2388 20.4291C22.2388 20.3131 22.1976 20.2066 22.1297 20.1199C23.7357 19.8692 25.0986 18.2405 25.748 15.9698ZM21.6834 21.5926C21.3768 21.5926 21.128 21.8267 21.128 22.1151C21.128 22.4034 21.3768 22.6375 21.6834 22.6375C21.99 22.6375 22.2388 22.4034 22.2388 22.1151C22.2388 21.8267 21.99 21.5926 21.6834 21.5926ZM21.6834 23.2678C21.3768 23.2678 21.128 23.5019 21.128 23.7902C21.128 24.0786 21.3768 24.3126 21.6834 24.3126C21.99 24.3126 22.2388 24.0786 22.2388 23.7902C22.2388 23.5019 21.99 23.2678 21.6834 23.2678ZM21.6834 24.9538C21.3768 24.9538 21.128 25.1878 21.128 25.4762C21.128 25.7645 21.3768 25.9986 21.6834 25.9986C21.99 25.9986 22.2388 25.7645 22.2388 25.4762C22.2388 25.1878 21.99 24.9538 21.6834 24.9538ZM21.6891 26.6556C20.6368 26.6676 19.595 27.7546 18.252 29.8821H25.1884C23.8046 27.707 22.7413 26.6437 21.6891 26.6556Z" fill="white"/>
</svg>
