<svg width="43" height="43" viewBox="0 0 43 43" fill="none" xmlns="http://www.w3.org/2000/svg">
<circle cx="21.2031" cy="21.5" r="21" fill="#00b14f"/>
<path d="M21.2031 12.75C19.3804 12.7521 17.6329 13.4771 16.344 14.7659C15.0552 16.0548 14.3302 17.8023 14.3281 19.625C14.3281 25.5078 20.5781 29.9508 20.8445 30.1367C20.9496 30.2103 21.0748 30.2498 21.2031 30.2498C21.3314 30.2498 21.4566 30.2103 21.5617 30.1367C21.8281 29.9508 28.0781 25.5078 28.0781 19.625C28.0761 17.8023 27.3511 16.0548 26.0622 14.7659C24.7733 13.4771 23.0259 12.7521 21.2031 12.75ZM21.2031 17.125C21.6976 17.125 22.1809 17.2716 22.5921 17.5463C23.0032 17.821 23.3236 18.2115 23.5128 18.6683C23.702 19.1251 23.7516 19.6278 23.6551 20.1127C23.5586 20.5977 23.3205 21.0431 22.9709 21.3928C22.6213 21.7424 22.1758 21.9805 21.6909 22.077C21.2059 22.1734 20.7032 22.1239 20.2464 21.9347C19.7896 21.7455 19.3992 21.425 19.1245 21.0139C18.8497 20.6028 18.7031 20.1195 18.7031 19.625C18.7031 18.962 18.9665 18.3261 19.4354 17.8572C19.9042 17.3884 20.5401 17.125 21.2031 17.125Z" fill="white"/>
</svg>
