<svg width="43" height="43" viewBox="0 0 43 43" fill="none" xmlns="http://www.w3.org/2000/svg">
<circle cx="21.2031" cy="21.5" r="21" fill="#00b14f"/>
<g clip-path="url(#clip0_7559_48249)">
<path fill-rule="evenodd" clip-rule="evenodd" d="M30.4364 25.3459C30.4364 29.5916 26.5893 31.5002 21.2036 31.5002C15.8178 31.5002 11.9707 29.5916 11.9707 25.3759C11.9707 20.7602 14.2793 18.4216 18.895 16.083L17.2607 13.0388C17.1632 12.8863 17.1089 12.7102 17.1036 12.5293C17.0983 12.3484 17.1422 12.1694 17.2306 12.0115C17.319 11.8535 17.4487 11.7226 17.6057 11.6325C17.7627 11.5425 17.9412 11.4967 18.1221 11.5002H24.6464C24.816 11.5045 24.9818 11.5519 25.128 11.638C25.2742 11.724 25.3962 11.8459 25.4823 11.9921C25.5685 12.1382 25.616 12.3039 25.6205 12.4735C25.625 12.6431 25.5862 12.8111 25.5078 12.9616L23.5121 16.083C28.1264 18.3902 30.4364 20.7288 30.4364 25.3459ZM22.0964 18.4816C22.0964 18.2448 22.0023 18.0177 21.8349 17.8503C21.6675 17.6828 21.4404 17.5888 21.2036 17.5888C20.9668 17.5888 20.7397 17.6828 20.5722 17.8503C20.4048 18.0177 20.3107 18.2448 20.3107 18.4816V19.3773C19.7055 19.4006 19.1297 19.6441 18.6913 20.0619C18.253 20.4798 17.9822 21.0433 17.93 21.6467C17.8777 22.25 18.0475 22.8517 18.4075 23.3387C18.7675 23.8257 19.2928 24.1646 19.885 24.2916L21.9893 24.7516C22.205 24.798 22.3958 24.9227 22.525 25.1015C22.6543 25.2803 22.7127 25.5006 22.6891 25.72C22.6655 25.9393 22.5615 26.1422 22.3972 26.2894C22.2329 26.4367 22.0199 26.5178 21.7993 26.5173H20.6078C20.4231 26.5176 20.2429 26.4606 20.0919 26.3542C19.941 26.2477 19.8268 26.0971 19.765 25.923C19.7289 25.8088 19.6702 25.703 19.5924 25.612C19.5146 25.5209 19.4193 25.4464 19.3121 25.393C19.205 25.3395 19.0881 25.3081 18.9686 25.3008C18.849 25.2934 18.7292 25.3101 18.6163 25.35C18.5033 25.3899 18.3996 25.4521 18.3112 25.5329C18.2228 25.6137 18.1515 25.7115 18.1017 25.8204C18.0518 25.9293 18.0244 26.0472 18.0211 26.1669C18.0177 26.2866 18.0385 26.4058 18.0821 26.5173C18.2501 26.9918 18.5481 27.4094 18.9422 27.7224C19.3363 28.0354 19.8106 28.2312 20.3107 28.2873V29.1959C20.3107 29.4327 20.4048 29.6598 20.5722 29.8272C20.7397 29.9947 20.9668 30.0888 21.2036 30.0888C21.4404 30.0888 21.6675 29.9947 21.8349 29.8272C22.0023 29.6598 22.0964 29.4327 22.0964 29.1959V28.2873C22.7268 28.2157 23.3113 27.9227 23.7459 27.4606C24.1806 26.9984 24.4372 26.3971 24.4701 25.7635C24.503 25.1299 24.3101 24.5052 23.9257 24.0005C23.5412 23.4959 22.9902 23.1439 22.3707 23.0073L20.2664 22.5473C20.0957 22.5124 19.9441 22.415 19.8414 22.2742C19.7386 22.1335 19.6921 21.9595 19.7109 21.7862C19.7296 21.613 19.8123 21.4529 19.9428 21.3374C20.0733 21.2219 20.2422 21.1592 20.4164 21.1616H21.7993C21.9841 21.1607 22.1647 21.2174 22.3157 21.324C22.4668 21.4305 22.5809 21.5815 22.6421 21.7559C22.7252 21.9736 22.8901 22.1502 23.1017 22.248C23.3132 22.3458 23.5546 22.357 23.7742 22.2792C23.9939 22.2014 24.1745 22.0409 24.2774 21.8318C24.3803 21.6227 24.3974 21.3817 24.325 21.1602C24.1573 20.6857 23.8593 20.2682 23.4651 19.9554C23.0709 19.6425 22.5966 19.4472 22.0964 19.3916V18.4816Z" fill="white"/>
</g>
<defs>
<clipPath id="clip0_7559_48249">
<rect width="20" height="20" fill="white" transform="translate(11.2031 11.5)"/>
</clipPath>
</defs>
</svg>
