<svg width="20" height="19" viewBox="0 0 20 19" fill="none" xmlns="http://www.w3.org/2000/svg">
<path d="M9.36115 16.8257L9.36043 16.825C6.88289 14.5784 4.86669 12.7468 3.46404 11.0308C2.06687 9.32143 1.33081 7.78791 1.33081 6.14583C1.33081 3.46132 3.42552 1.375 6.10164 1.375C7.61799 1.375 9.08162 2.08348 10.0347 3.19397L10.4141 3.63605L10.7936 3.19397C11.7467 2.08348 13.2103 1.375 14.7266 1.375C17.4028 1.375 19.4975 3.46132 19.4975 6.14583C19.4975 7.78791 18.7614 9.32143 17.3643 11.0308C15.9616 12.7468 13.9454 14.5784 11.4679 16.825L11.4671 16.8257L10.4141 17.7843L9.36115 16.8257Z" stroke="#00b14f"/>
</svg>
