<svg width="38" height="38" viewBox="0 0 38 38" fill="none" xmlns="http://www.w3.org/2000/svg">
<circle cx="19" cy="19" r="19" fill="white"/>
<path d="M27 11.125C27 10.5037 26.4926 10 25.8667 10L11.1333 10C10.5074 10 10 10.5037 10 11.125C10 11.7463 10.5074 12.25 11.1333 12.25L25.8667 12.25C26.4926 12.25 27 11.7463 27 11.125Z" fill="black"/>
<path d="M27 19C27 18.3787 26.4926 17.875 25.8667 17.875L11.1333 17.875C10.5074 17.875 10 18.3787 10 19C10 19.6213 10.5074 20.125 11.1333 20.125L25.8667 20.125C26.4926 20.125 27 19.6213 27 19Z" fill="black"/>
<path d="M27 26.875C27 26.2537 26.4926 25.75 25.8667 25.75L11.1333 25.75C10.5074 25.75 10 26.2537 10 26.875C10 27.4963 10.5074 28 11.1333 28L25.8667 28C26.4926 28 27 27.4963 27 26.875Z" fill="black"/>
</svg>
