<svg width="17" height="18" viewBox="0 0 17 18" fill="none" xmlns="http://www.w3.org/2000/svg">
<path d="M17 1.125C17 0.50368 16.4926 -2.21796e-08 15.8667 -4.95396e-08L1.13333 -6.93554e-07C0.50741 -7.20914e-07 -2.20165e-08 0.503679 -4.91753e-08 1.125C-7.63341e-08 1.74632 0.50741 2.25 1.13333 2.25L15.8667 2.25C16.4926 2.25 17 1.74632 17 1.125Z" fill="black"/>
<path d="M17 9C17 8.37868 16.4926 7.875 15.8667 7.875L1.13333 7.875C0.50741 7.875 -3.66244e-07 8.37868 -3.93402e-07 9C-4.20561e-07 9.62132 0.50741 10.125 1.13333 10.125L15.8667 10.125C16.4926 10.125 17 9.62132 17 9Z" fill="black"/>
<path d="M17 16.875C17 16.2537 16.4926 15.75 15.8667 15.75L1.13333 15.75C0.507409 15.75 -7.10471e-07 16.2537 -7.3763e-07 16.875C-7.64788e-07 17.4963 0.507409 18 1.13333 18L15.8667 18C16.4926 18 17 17.4963 17 16.875Z" fill="black"/>
</svg>
