<svg width="83" height="81" viewBox="0 0 83 81" fill="none" xmlns="http://www.w3.org/2000/svg">
<path d="M44.8175 21.3558L63.5157 26.2279M40.8147 35.9071L50.1599 38.3451M41.2808 63.3269L45.0173 64.3044C55.5923 67.0644 60.8798 68.4406 65.0471 66.0984C69.2105 63.7601 70.6284 58.6119 73.4601 48.3233L77.4669 33.7681C80.3025 23.4756 81.7165 18.3313 79.3116 14.2756C76.9068 10.2199 71.6232 8.84376 61.0443 6.08759L57.3078 5.11009C46.7328 2.35009 41.4453 0.973925 37.2819 3.31609C33.1145 5.65443 31.6967 10.8026 28.861 21.0913L24.8582 35.6464C22.0225 45.9389 20.6047 51.0833 23.0135 55.1389C25.4183 59.1908 30.7058 60.5708 41.2808 63.3269Z" stroke="#00b14f" stroke-width="3" stroke-linecap="round" stroke-linejoin="round"/>
<path d="M41.3719 74.7493L37.6432 75.746C27.0917 78.5558 21.8198 79.9627 17.6603 77.5745C13.5087 75.1902 12.0908 69.9462 9.26693 59.4505L5.26802 44.6078C2.44018 34.116 1.02627 28.8682 3.42718 24.7358C5.50302 21.1593 10.0385 21.2897 15.9135 21.2897" stroke="#00b14f" stroke-width="3" stroke-linecap="round" stroke-linejoin="round"/>
</svg>
