<svg width="17" height="16" viewBox="0 0 17 16" fill="none" xmlns="http://www.w3.org/2000/svg">
<path d="M8.27062 14.0007H7.56196C4.88862 14.0007 3.55196 14.0007 2.72129 12.97C1.89062 11.9393 1.89062 10.2807 1.89062 6.96332V4.81398C1.89062 3.53598 1.89062 2.89665 2.10662 2.41732C2.24736 2.09111 2.47411 1.80929 2.76263 1.60198C3.14929 1.33398 3.66462 1.33398 4.69462 1.33398C5.35463 1.33398 5.68462 1.33398 5.97329 1.46865C6.63329 1.77532 6.90529 2.51865 7.20263 3.25732L7.56196 4.14865M5.22663 4.14865H10.9233C12.118 4.14865 12.7153 4.14865 13.1446 4.50465C13.33 4.65798 13.49 4.85665 13.614 5.08732C13.8073 5.44598 13.87 5.89998 13.8906 6.61198" stroke="#025351" stroke-width="1.5" stroke-linecap="round" stroke-linejoin="round"/>
<path d="M3.62062 8.38534C3.90729 7.61868 4.05196 7.23601 4.33196 6.99534C4.78529 6.60734 5.43662 6.67201 5.99462 6.67201H12.058C13.7093 6.67201 14.5353 6.67201 14.9473 7.20334C15.654 8.11534 14.82 9.59468 14.484 10.49C13.8813 12.0953 13.58 12.898 12.98 13.3873C12.066 14.1333 10.736 13.99 9.63262 13.99H7.18129C4.81929 13.99 3.63862 13.99 3.02396 13.2593C1.89062 11.9093 3.11062 9.74334 3.62062 8.38468" stroke="#025351" stroke-width="1.5" stroke-linecap="round" stroke-linejoin="round"/>
</svg>
