<svg width="21" height="20" viewBox="0 0 21 20" fill="none" xmlns="http://www.w3.org/2000/svg">
<g clip-path="url(#clip0_7508_25729)">
<path d="M12.272 7.58131C12.1573 7.25621 11.9445 6.97472 11.6631 6.77565C11.3816 6.57658 11.0453 6.46974 10.7006 6.46988H9.41057C9.04255 6.46795 8.68688 6.60256 8.41235 6.84767C8.13781 7.09278 7.96392 7.43098 7.92429 7.79687C7.88466 8.16276 7.98212 8.53035 8.19781 8.82856C8.41349 9.12676 8.7321 9.33439 9.092 9.41131L11.0563 9.83988C11.4579 9.92781 11.8129 10.1611 12.053 10.4948C12.2932 10.8286 12.4015 11.2393 12.3572 11.6481C12.3129 12.0568 12.1191 12.4348 11.8131 12.7094C11.507 12.9839 11.1103 13.1357 10.6991 13.1356H9.58915C8.86343 13.1356 8.24629 12.6727 8.01772 12.0256M10.1449 6.46988V4.80273M10.1449 14.8027V13.137M3.19629 19.2827V15.7113H6.76772" stroke="#EE1C51" stroke-linecap="round" stroke-linejoin="round"/>
<path d="M19.4673 8.29153C19.8465 10.3133 19.5437 12.4037 18.6064 14.2347C17.6691 16.0658 16.1504 17.5338 14.2885 18.4083C12.4267 19.2828 10.3272 19.5144 8.3195 19.0666C6.31183 18.6189 4.50966 17.5171 3.19584 15.9344M1.21584 11.7087C0.836589 9.68695 1.13938 7.59651 2.07668 5.76547C3.01398 3.93444 4.53274 2.46646 6.39458 1.59193C8.25642 0.717407 10.3559 0.485848 12.3636 0.933599C14.3713 1.38135 16.1735 2.48306 17.4873 4.06582" stroke="#EE1C51" stroke-linecap="round" stroke-linejoin="round"/>
<path d="M17.4874 0.716797V4.28823H13.916" stroke="#EE1C51" stroke-linecap="round" stroke-linejoin="round"/>
</g>
<defs>
<clipPath id="clip0_7508_25729">
<rect width="20" height="20" fill="white" transform="translate(0.341797)"/>
</clipPath>
</defs>
</svg>
