<svg width="28" height="24" viewBox="0 0 28 24" fill="none" xmlns="http://www.w3.org/2000/svg">
<path d="M12.5997 12.5853C12.3001 12.572 12.0006 12.5586 11.6874 12.5586C8.39246 12.5586 5.31532 13.4547 2.6875 14.9927C1.48932 15.6882 0.794922 16.9989 0.794922 18.3765V21.9207H13.403C12.4413 20.5732 11.8604 18.9993 11.7192 17.3595C11.5781 15.7196 11.8819 14.0724 12.5997 12.5853Z" fill="#333333"/>
<path d="M11.6875 11.2211C14.6954 11.2211 17.1337 8.82588 17.1337 5.87127C17.1337 2.91667 14.6954 0.521484 11.6875 0.521484C8.67958 0.521484 6.24121 2.91667 6.24121 5.87127C6.24121 8.82588 8.67958 11.2211 11.6875 11.2211Z" fill="#333333"/>
<path d="M26.3248 16.571C26.3248 16.2768 26.284 16.0093 26.2431 15.7284L27.7953 14.3776L26.4337 12.0638L24.4595 12.7192C24.0238 12.3581 23.5336 12.0772 22.989 11.8766L22.5805 9.88379H19.8574L19.4489 11.8766C18.9043 12.0772 18.4141 12.3581 17.9784 12.7192L16.0041 12.0638L14.6426 14.3776L16.1948 15.7284C16.1539 16.0093 16.1131 16.2768 16.1131 16.571C16.1131 16.8653 16.1539 17.1328 16.1948 17.4136L14.6426 18.7644L16.0041 21.0782L17.9784 20.4229C18.4141 20.784 18.9043 21.0648 19.4489 21.2655L19.8574 23.2583H22.5805L22.989 21.2655C23.5336 21.0648 24.0238 20.784 24.4595 20.4229L26.4337 21.0782L27.7953 18.7644L26.2431 17.4136C26.284 17.1328 26.3248 16.8653 26.3248 16.571ZM21.2189 19.2459C19.7212 19.2459 18.4958 18.0422 18.4958 16.571C18.4958 15.0998 19.7212 13.8961 21.2189 13.8961C22.7167 13.8961 23.9421 15.0998 23.9421 16.571C23.9421 18.0422 22.7167 19.2459 21.2189 19.2459Z" fill="#333333"/>
</svg>
