<svg width="32" height="32" viewBox="0 0 32 32" fill="none" xmlns="http://www.w3.org/2000/svg">
<path fill-rule="evenodd" clip-rule="evenodd" d="M16.9425 11.0575C16.6924 10.8076 16.3534 10.6671 15.9998 10.6671C15.6463 10.6671 15.3072 10.8076 15.0571 11.0575L7.51447 18.6002C7.38713 18.7232 7.28555 18.8703 7.21567 19.033C7.14579 19.1957 7.10901 19.3706 7.10747 19.5477C7.10593 19.7247 7.13967 19.9003 7.20671 20.0641C7.27375 20.228 7.37276 20.3769 7.49795 20.5021C7.62314 20.6272 7.77201 20.7262 7.93587 20.7933C8.09973 20.8603 8.2753 20.8941 8.45234 20.8925C8.62938 20.891 8.80434 20.8542 8.96701 20.7843C9.12968 20.7145 9.27681 20.6129 9.39981 20.4855L15.9998 13.8855L22.5998 20.4855C22.8513 20.7284 23.1881 20.8628 23.5377 20.8598C23.8873 20.8567 24.2217 20.7165 24.4689 20.4693C24.7161 20.2221 24.8563 19.8877 24.8594 19.5381C24.8624 19.1885 24.728 18.8517 24.4851 18.6002L16.9425 11.0575Z" fill="#F8F8F8"/>
</svg>
