<svg width="21" height="26" viewBox="0 0 21 26" fill="none" xmlns="http://www.w3.org/2000/svg">
<path d="M20.7949 10.0765C20.7949 9.84256 20.7236 9.62608 20.6014 9.44756L20.6034 9.45166C20.584 9.42363 20.5636 9.39626 20.5423 9.36958L20.5372 9.36343C20.5169 9.33886 20.4955 9.31524 20.4731 9.29263L20.4629 9.28237L20.4344 9.25262L12.4678 1.22841C12.4453 1.20552 12.4214 1.18394 12.3965 1.16377L12.3741 1.14325L12.3191 1.10221L12.2916 1.08272C12.2721 1.07037 12.2524 1.0584 12.2325 1.04681L12.2071 1.03142C12.1801 1.01705 12.1525 1.00371 12.1246 0.991407L12.0899 0.977043L12.0349 0.956523L11.9952 0.944211L11.9331 0.927796L11.9015 0.920614C11.8704 0.914748 11.8392 0.909957 11.8078 0.90625H1.90609C1.295 0.90625 0.798996 1.40283 0.794922 2.01739V24.4023C0.794922 25.021 1.29296 25.5216 1.90609 25.5216H19.6827C20.2969 25.5216 20.7939 25.0199 20.7939 24.4023V10.1052L20.7949 10.0765ZM12.7927 4.71572L16.999 8.95816H12.7927V4.71572ZM3.01624 23.284V3.13674H10.5734V10.0796C10.5734 10.6982 11.0714 11.1989 11.6846 11.1989H18.5767V23.284H3.01624Z" fill="#333333"/>
<path d="M14.4965 18.8064H7.05746C6.76276 18.8064 6.48013 18.9244 6.27174 19.1343C6.06336 19.3442 5.94629 19.6289 5.94629 19.9258C5.94629 20.2227 6.06336 20.5074 6.27174 20.7173C6.48013 20.9272 6.76276 21.0451 7.05746 21.0451H7.09005H7.08801H14.527C14.8217 21.0451 15.1044 20.9272 15.3127 20.7173C15.5211 20.5074 15.6382 20.2227 15.6382 19.9258C15.6382 19.6289 15.5211 19.3442 15.3127 19.1343C15.1044 18.9244 14.8217 18.8064 14.527 18.8064H14.4944H14.4965ZM14.4965 14.3301H7.05746C6.76276 14.3301 6.48013 14.448 6.27174 14.6579C6.06336 14.8678 5.94629 15.1526 5.94629 15.4494C5.94629 15.7463 6.06336 16.031 6.27174 16.2409C6.48013 16.4508 6.76276 16.5688 7.05746 16.5688H7.09005H7.08801H14.527C14.8217 16.5688 15.1044 16.4508 15.3127 16.2409C15.5211 16.031 15.6382 15.7463 15.6382 15.4494C15.6382 15.1526 15.5211 14.8678 15.3127 14.6579C15.1044 14.448 14.8217 14.3301 14.527 14.3301H14.4944H14.4965Z" fill="#333333"/>
</svg>
