<svg width="29" height="26" viewBox="0 0 29 26" fill="none" xmlns="http://www.w3.org/2000/svg">
<path d="M12.3718 19.1236L10.4488 23.9063M16.218 19.1236L18.1411 23.9063M8.52569 23.9063H20.0642M25.8334 1.90625H2.75646C2.50144 1.90625 2.25687 2.00703 2.07655 2.18641C1.89623 2.36579 1.79492 2.60909 1.79492 2.86277V18.1671C1.79492 18.4208 1.89623 18.6641 2.07655 18.8435C2.25687 19.0229 2.50144 19.1236 2.75646 19.1236H25.8334C26.0884 19.1236 26.333 19.0229 26.5133 18.8435C26.6936 18.6641 26.7949 18.4208 26.7949 18.1671V2.86277C26.7949 2.60909 26.6936 2.36579 26.5133 2.18641C26.333 2.00703 26.0884 1.90625 25.8334 1.90625Z" stroke="#333333" stroke-width="2.5" stroke-linecap="round" stroke-linejoin="round"/>
</svg>
