<svg width="19" height="20" viewBox="0 0 19 20" fill="none" xmlns="http://www.w3.org/2000/svg">
<path d="M10.0967 2.07422C10.0967 1.91675 10.0341 1.76572 9.92278 1.65437C9.81143 1.54302 9.6604 1.48047 9.50293 1.48047C9.34546 1.48047 9.19444 1.54302 9.08309 1.65437C8.97174 1.76572 8.90918 1.91675 8.90918 2.07422V3.24589C8.90918 3.40336 8.97174 3.55438 9.08309 3.66573C9.19444 3.77708 9.34546 3.83964 9.50293 3.83964C9.6604 3.83964 9.81143 3.77708 9.92278 3.66573C10.0341 3.55438 10.0967 3.40336 10.0967 3.24589V2.07422ZM14.1429 8.39964C13.9784 7.75794 13.6788 7.15876 13.2641 6.64214C12.8535 6.12162 12.3384 5.69284 11.7521 5.38339C11.1674 5.07576 10.5264 4.88993 9.86789 4.83714C9.20761 4.78753 8.54425 4.87652 7.92039 5.09839C7.29307 5.31713 6.71862 5.66504 6.23414 6.11964C5.75454 6.56626 5.36957 7.1047 5.10206 7.70297C4.84025 8.31023 4.70813 8.96546 4.71414 9.62672C4.69579 10.3905 4.85921 11.1477 5.19093 11.8359C5.52264 12.5241 6.01316 13.1236 6.62206 13.5851L6.89914 13.8463C7.13664 14.0917 7.13664 14.0917 7.12872 14.638V14.8913C7.11873 15.0665 7.1457 15.2418 7.20789 15.4059C7.26331 15.5816 7.36147 15.7423 7.49289 15.873C7.55306 15.9347 7.61956 15.9901 7.69081 16.0392V16.8309C7.67778 16.9745 7.69329 17.1192 7.73645 17.2567C7.77962 17.3943 7.84958 17.5219 7.9423 17.6323C8.03503 17.7427 8.14868 17.8337 8.27672 17.8999C8.40476 17.9662 8.54464 18.0064 8.68831 18.0184H10.2716C10.5624 17.9942 10.8317 17.8555 11.0202 17.6328C11.2088 17.4101 11.3012 17.1217 11.2771 16.8309V16.0392C11.3484 15.9905 11.4147 15.9348 11.475 15.873C11.5993 15.7416 11.6943 15.5848 11.7521 15.4138C11.8136 15.2468 11.8405 15.069 11.8312 14.8913V14.5984C11.8312 14.163 11.8312 14.163 12.0766 13.8859L12.3775 13.6088C13.3925 12.8194 14.0553 11.6617 14.2221 10.3867C14.3391 9.72638 14.3121 9.04857 14.1429 8.39964ZM10.1291 16.8151H8.87831V16.3163H10.1291V16.8151ZM9.50372 8.45505C9.24547 8.45505 8.99779 8.55764 8.81518 8.74026C8.63257 8.92287 8.52997 9.17055 8.52997 9.4288C8.52997 9.63877 8.44657 9.84013 8.2981 9.9886C8.14963 10.1371 7.94827 10.2205 7.73831 10.2205C7.52834 10.2205 7.32698 10.1371 7.17851 9.9886C7.03005 9.84013 6.94664 9.63877 6.94664 9.4288C6.94454 9.09241 7.00924 8.75896 7.137 8.44777C7.26477 8.13658 7.45304 7.85385 7.69091 7.61598C7.92877 7.37812 8.2115 7.18984 8.52269 7.06208C8.83388 6.93432 9.16734 6.86962 9.50372 6.87172C9.71369 6.87172 9.91505 6.95513 10.0635 7.10359C10.212 7.25206 10.2954 7.45342 10.2954 7.66339C10.2954 7.87335 10.212 8.07471 10.0635 8.22318C9.91505 8.37164 9.71369 8.45505 9.50372 8.45505ZM16.7554 10.4342H15.3066C15.1492 10.4342 14.9981 10.3717 14.8868 10.2603C14.7754 10.149 14.7129 9.99794 14.7129 9.84047C14.7129 9.683 14.7754 9.53197 14.8868 9.42062C14.9981 9.30927 15.1492 9.24672 15.3066 9.24672H16.7554C16.9129 9.24672 17.0639 9.30927 17.1752 9.42062C17.2866 9.53197 17.3491 9.683 17.3491 9.84047C17.3491 9.99794 17.2866 10.149 17.1752 10.2603C17.0639 10.3717 16.9129 10.4342 16.7554 10.4342ZM13.8421 5.6763C13.764 5.67667 13.6867 5.66145 13.6147 5.63155C13.5426 5.60164 13.4773 5.55764 13.4225 5.50214C13.3113 5.39081 13.2488 5.2399 13.2488 5.08255C13.2488 4.92521 13.3113 4.7743 13.4225 4.66297L14.4516 3.6338C14.5642 3.52892 14.7131 3.47182 14.8669 3.47454C15.0207 3.47725 15.1675 3.53957 15.2763 3.64835C15.385 3.75714 15.4474 3.9039 15.4501 4.05772C15.4528 4.21154 15.3957 4.36041 15.2908 4.47297L14.2616 5.50214C14.2071 5.55801 14.1418 5.60224 14.0697 5.63218C13.9976 5.66211 13.9201 5.67712 13.8421 5.6763ZM15.6629 15.5246C15.5061 15.5212 15.3564 15.4591 15.2433 15.3505L14.2141 14.3213C14.1446 14.2524 14.0932 14.1673 14.0645 14.0736C14.0357 13.98 14.0307 13.8807 14.0496 13.7846C14.0686 13.6885 14.111 13.5986 14.1732 13.5229C14.2353 13.4472 14.3152 13.3881 14.4057 13.3507C14.5144 13.3049 14.6343 13.293 14.7498 13.3164C14.8653 13.3399 14.9711 13.3976 15.0533 13.4821L16.0825 14.5113C16.1385 14.5659 16.183 14.6311 16.2134 14.7032C16.2438 14.7753 16.2595 14.8527 16.2595 14.9309C16.2595 15.0091 16.2438 15.0865 16.2134 15.1586C16.183 15.2306 16.1385 15.2959 16.0825 15.3505C15.9712 15.4619 15.8203 15.5245 15.6629 15.5246ZM5.17331 5.6763C5.01589 5.67616 4.86497 5.61352 4.75372 5.50214L3.72456 4.47297C3.61328 4.36064 3.55118 4.2087 3.55192 4.05059C3.55266 3.89247 3.61619 3.74112 3.72852 3.62984C3.84085 3.51856 3.99278 3.45646 4.1509 3.45721C4.30901 3.45795 4.46036 3.52147 4.57164 3.6338L5.59289 4.66297C5.67582 4.746 5.73229 4.85175 5.75515 4.96686C5.77802 5.08197 5.76626 5.20127 5.72137 5.3097C5.67647 5.41813 5.60045 5.51082 5.5029 5.57607C5.40536 5.64132 5.29066 5.6762 5.17331 5.6763ZM3.36039 15.5246C3.28218 15.5264 3.20447 15.5118 3.13222 15.4818C3.05997 15.4518 2.99477 15.4071 2.94081 15.3505C2.82962 15.2391 2.76716 15.0882 2.76716 14.9309C2.76716 14.7735 2.82962 14.6226 2.94081 14.5113L3.96997 13.4821C4.08253 13.3773 4.2314 13.3202 4.38522 13.3229C4.53904 13.3256 4.68581 13.3879 4.79459 13.4967C4.90338 13.6055 4.96569 13.7522 4.9684 13.9061C4.97112 14.0599 4.91402 14.2087 4.80914 14.3213L3.78789 15.3584C3.67159 15.4659 3.5188 15.5254 3.36039 15.5246ZM3.69289 10.4342H2.24414C2.08667 10.4342 1.93565 10.3717 1.8243 10.2603C1.71295 10.149 1.65039 9.99794 1.65039 9.84047C1.65039 9.683 1.71295 9.53197 1.8243 9.42062C1.93565 9.30927 2.08667 9.24672 2.24414 9.24672H3.69289C3.85036 9.24672 4.00139 9.30927 4.11274 9.42062C4.22409 9.53197 4.28664 9.683 4.28664 9.84047C4.28664 9.99794 4.22409 10.149 4.11274 10.2603C4.00139 10.3717 3.85036 10.4342 3.69289 10.4342Z" fill="#00b14f"/>
</svg>
