<svg width="21" height="20" viewBox="0 0 21 20" fill="none" xmlns="http://www.w3.org/2000/svg">
<path d="M10.3418 1.875C7.23633 1.875 4.7168 4.27305 4.7168 7.22656C4.7168 10.625 8.4668 16.0105 9.84375 17.8707C9.90091 17.9492 9.97582 18.0131 10.0624 18.0572C10.1489 18.1012 10.2447 18.1242 10.3418 18.1242C10.4389 18.1242 10.5347 18.1012 10.6212 18.0572C10.7078 18.0131 10.7827 17.9492 10.8398 17.8707C12.2168 16.0113 15.9668 10.6277 15.9668 7.22656C15.9668 4.27305 13.4473 1.875 10.3418 1.875Z" stroke="#00b14f" stroke-linecap="round" stroke-linejoin="round"/>
<path d="M10.3418 9.375C11.3773 9.375 12.2168 8.53553 12.2168 7.5C12.2168 6.46447 11.3773 5.625 10.3418 5.625C9.30626 5.625 8.4668 6.46447 8.4668 7.5C8.4668 8.53553 9.30626 9.375 10.3418 9.375Z" stroke="#00b14f" stroke-linecap="round" stroke-linejoin="round"/>
</svg>
