<svg width="25" height="24" viewBox="0 0 25 24" fill="none" xmlns="http://www.w3.org/2000/svg">
<path d="M12.3418 21C10.0418 21 8.0378 20.2377 6.3298 18.713C4.6218 17.1883 3.64246 15.284 3.3918 13H5.4418C5.67513 14.7333 6.44613 16.1667 7.7548 17.3C9.06346 18.4333 10.5925 19 12.3418 19C14.2918 19 15.9461 18.321 17.3048 16.963C18.6635 15.605 19.3425 13.9507 19.3418 12C19.3418 10.05 18.6628 8.396 17.3048 7.038C15.9468 5.68 14.2925 5.00067 12.3418 5C11.1918 5 10.1168 5.26667 9.1168 5.8C8.1168 6.33333 7.27513 7.06667 6.5918 8H9.3418V10H3.3418V4H5.3418V6.35C6.1918 5.28333 7.22946 4.45833 8.4548 3.875C9.68013 3.29167 10.9758 3 12.3418 3C13.5918 3 14.7628 3.23767 15.8548 3.713C16.9468 4.18833 17.8968 4.82967 18.7048 5.637C19.5128 6.44567 20.1545 7.39567 20.6298 8.487C21.1051 9.57833 21.3425 10.7493 21.3418 12C21.3418 13.25 21.1045 14.421 20.6298 15.513C20.1551 16.605 19.5135 17.555 18.7048 18.363C17.8961 19.171 16.9461 19.8127 15.8548 20.288C14.7635 20.7633 13.5925 21.0007 12.3418 21ZM15.1418 16.2L11.3418 12.4V7H13.3418V11.6L16.5418 14.8L15.1418 16.2Z" fill="black"/>
</svg>
