<svg width="25" height="24" viewBox="0 0 25 24" fill="none" xmlns="http://www.w3.org/2000/svg">
<path d="M16.8418 8.16H7.8418C7.42758 8.16 7.0918 8.49579 7.0918 8.91C7.0918 9.32421 7.42758 9.66 7.8418 9.66H16.8418C17.256 9.66 17.5918 9.32421 17.5918 8.91C17.5918 8.49579 17.256 8.16 16.8418 8.16Z" fill="black"/>
<path fill-rule="evenodd" clip-rule="evenodd" d="M17.2318 3.57H17.3418C20.1032 3.57 22.3418 5.80858 22.3418 8.57V17.57C22.3418 20.3314 20.1032 22.57 17.3418 22.57H7.3418C6.01571 22.57 4.74394 22.0432 3.80626 21.1055C2.86858 20.1679 2.3418 18.8961 2.3418 17.57V8.57C2.3418 5.80858 4.58037 3.57 7.3418 3.57H7.4318V1.75C7.4318 1.33579 7.76758 1 8.1818 1C8.59601 1 8.9318 1.33579 8.9318 1.75V3.57H15.7318V1.75C15.7318 1.33579 16.0676 1 16.4818 1C16.896 1 17.2318 1.33579 17.2318 1.75V3.57ZM17.3418 21.07C19.2748 21.07 20.8418 19.503 20.8418 17.57V8.57C20.8418 6.637 19.2748 5.07 17.3418 5.07H7.3418C5.4088 5.07 3.8418 6.637 3.8418 8.57V17.57C3.8418 19.503 5.4088 21.07 7.3418 21.07H17.3418Z" fill="black"/>
</svg>
