<svg width="20" height="21" viewBox="0 0 20 21" fill="none" xmlns="http://www.w3.org/2000/svg">
<path d="M10 2.625C6.89453 2.625 4.375 5.02305 4.375 7.97656C4.375 11.375 8.125 16.7605 9.50195 18.6207C9.55911 18.6992 9.63402 18.7631 9.72058 18.8072C9.80713 18.8512 9.90288 18.8742 10 18.8742C10.0971 18.8742 10.1929 18.8512 10.2794 18.8072C10.366 18.7631 10.4409 18.6992 10.498 18.6207C11.875 16.7613 15.625 11.3777 15.625 7.97656C15.625 5.02305 13.1055 2.625 10 2.625Z" stroke="#4F4F4F" stroke-linecap="round" stroke-linejoin="round"/>
<path d="M10 10.125C11.0355 10.125 11.875 9.28553 11.875 8.25C11.875 7.21447 11.0355 6.375 10 6.375C8.96447 6.375 8.125 7.21447 8.125 8.25C8.125 9.28553 8.96447 10.125 10 10.125Z" stroke="#4F4F4F" stroke-linecap="round" stroke-linejoin="round"/>
</svg>
