<svg width="43" height="42" viewBox="0 0 43 42" fill="none" xmlns="http://www.w3.org/2000/svg">
<circle cx="21.7827" cy="21" r="21" fill="#00b14f"/>
<path d="M18.7028 20.5004H18.7828C20.9919 20.5004 22.7828 18.7096 22.7828 16.5004V14.9304C22.7802 14.0332 22.4198 13.174 21.7816 12.5433C21.1434 11.9126 20.28 11.5625 19.3828 11.5704H18.0628C16.2094 11.5759 14.7083 13.077 14.7028 14.9304V16.5004C14.7028 18.7096 16.4937 20.5004 18.7028 20.5004Z" fill="white"/>
<path d="M27.2828 19.7504C28.9397 19.7504 30.2828 18.4073 30.2828 16.7504V15.6004C30.2829 14.2165 29.1667 13.0914 27.7828 13.0804H26.7828C25.3989 13.0914 24.2828 14.2165 24.2828 15.6004V16.7504C24.2828 18.4073 25.626 19.7504 27.2828 19.7504Z" fill="white"/>
<path d="M32.1728 23.9204L32.0128 23.1304C31.8237 22.046 30.8837 21.2535 29.7828 21.2504H23.6828C22.9374 21.252 22.2425 21.6276 21.8328 22.2504H14.7828C14.0755 22.251 13.3954 22.523 12.8828 23.0104C12.4424 23.414 12.1325 23.9397 11.9928 24.5204C11.9928 24.5704 11.9928 24.6204 11.9928 24.6604V24.9204L11.7828 25.7204C11.5689 26.5957 11.7597 27.5207 12.3025 28.2398C12.8452 28.959 13.6825 29.3961 14.5828 29.4304H22.8628C23.0753 29.4297 23.2869 29.4029 23.4928 29.3504H23.6228C23.7731 29.3076 23.9201 29.2542 24.0628 29.1904L24.2228 29.1004C24.3422 29.0331 24.4559 28.9562 24.5628 28.8704L24.7228 28.7404C24.8212 28.6488 24.9146 28.552 25.0028 28.4504C25.0028 28.4004 25.0928 28.3604 25.1328 28.3004C25.2446 28.1536 25.3417 27.9962 25.4228 27.8304C25.4655 27.7396 25.5022 27.6461 25.5328 27.5504C25.5721 27.4594 25.6055 27.3658 25.6328 27.2704C25.6328 27.1704 25.6828 27.0704 25.7028 26.9704V26.8204H29.9828C30.689 26.7995 31.3475 26.4594 31.7732 25.8956C32.199 25.3318 32.3459 24.6054 32.1728 23.9204Z" fill="white"/>
</svg>
