<svg width="26" height="31" viewBox="0 0 26 31" fill="none" xmlns="http://www.w3.org/2000/svg">
<path d="M19.899 25.4244L16.4137 21.9259C16.2765 21.795 16.2078 21.6277 16.2078 21.424C16.2078 21.2202 16.2765 21.049 16.4137 20.9102C16.551 20.7725 16.7152 20.6987 16.9064 20.6888C17.0966 20.679 17.2608 20.7434 17.399 20.8822L19.9946 23.4891V17.0131C19.9946 16.8035 20.0652 16.6283 20.2064 16.4876C20.3475 16.3459 20.5225 16.275 20.7314 16.275C20.9402 16.275 21.1147 16.3459 21.2549 16.4876C21.3951 16.6283 21.4652 16.8035 21.4652 17.0131V23.4891L24.0608 20.8822C24.1921 20.7444 24.3593 20.6755 24.5622 20.6755C24.7652 20.6755 24.9358 20.7444 25.074 20.8822C25.2122 21.02 25.2809 21.1912 25.2799 21.3959C25.2799 21.5996 25.2113 21.7669 25.074 21.8978L21.5608 25.4259C21.3235 25.6631 21.0466 25.7817 20.7299 25.7817C20.4132 25.7817 20.1363 25.6626 19.899 25.4244ZM16.3181 31C16.1093 31 15.9348 30.9291 15.7946 30.7874C15.6544 30.6457 15.5838 30.4705 15.5828 30.2619C15.5828 30.0533 15.6534 29.8781 15.7946 29.7364C15.9358 29.5956 16.1103 29.5253 16.3181 29.5253H25.1417C25.3505 29.5253 25.525 29.5961 25.6652 29.7379C25.8054 29.8796 25.876 30.0543 25.877 30.2619C25.877 30.4705 25.8064 30.6457 25.6652 30.7874C25.525 30.9282 25.3505 30.9985 25.1417 30.9985L16.3181 31ZM3.25195 25.0952C2.61274 25.0952 2.05735 24.8581 1.58578 24.3837C1.11323 23.9103 0.876953 23.3528 0.876953 22.7112V2.38405C0.876953 1.7424 1.11323 1.18489 1.58578 0.711524C2.05735 0.237175 2.61274 0 3.25195 0H12.3902C12.7147 0 13.0245 0.0639684 13.3196 0.191905C13.6137 0.32181 13.8676 0.49354 14.0814 0.707095L20.7593 7.41048C20.9721 7.62403 21.1426 7.87892 21.2711 8.17514C21.3995 8.47038 21.4637 8.78137 21.4637 9.1081V11.5615C21.4637 11.8991 21.35 12.182 21.1225 12.4103C20.8951 12.6386 20.6127 12.7528 20.2755 12.7528H14.4505C13.7966 12.7528 13.2372 12.9865 12.7725 13.454C12.3069 13.9205 12.074 14.4814 12.074 15.1369V23.901C12.074 24.2395 11.9603 24.523 11.7328 24.7513C11.5054 24.9796 11.2235 25.0938 10.8872 25.0938L3.25195 25.0952ZM14.424 8.85714H19.9946L12.6417 1.47619V7.068C12.6417 7.56498 12.8147 7.98767 13.1608 8.33605C13.5078 8.68344 13.9289 8.85714 14.424 8.85714Z" fill="white"/>
</svg>
