<svg width="25" height="24" viewBox="0 0 25 24" fill="none" xmlns="http://www.w3.org/2000/svg">
<path d="M11.0103 17.6L20.4103 8.2L18.5436 6.33333L11.0103 13.8667L7.21029 10.0667L5.34362 11.9333L11.0103 17.6ZM3.54362 24C2.81029 24 2.18273 23.7391 1.66095 23.2173C1.13918 22.6956 0.877842 22.0676 0.876953 21.3333V2.66667C0.876953 1.93333 1.13829 1.30578 1.66095 0.784C2.18362 0.262222 2.81118 0.000888889 3.54362 0H22.2103C22.9436 0 23.5716 0.261333 24.0943 0.784C24.6169 1.30667 24.8778 1.93422 24.8769 2.66667V21.3333C24.8769 22.0667 24.6161 22.6947 24.0943 23.2173C23.5725 23.74 22.9445 24.0009 22.2103 24H3.54362Z" fill="white"/>
</svg>
