<svg width="86" height="51" viewBox="0 0 86 51" fill="none" xmlns="http://www.w3.org/2000/svg">
<path d="M23.3594 0.144531C13.975 0.144531 6.29688 7.73828 6.29688 17.0195C6.29688 22.5995 9.07522 27.5664 13.3181 30.6433C5.81912 34.322 0.609375 41.9495 0.609375 50.7695H6.29688C6.29688 41.4208 13.9068 33.8945 23.3594 33.8945C32.812 33.8945 40.4219 41.4208 40.4219 50.7695H46.1094C46.1094 41.4208 53.7192 33.8945 63.1719 33.8945C72.6245 33.8945 80.2344 41.4208 80.2344 50.7695H85.9219C85.9219 41.9467 80.7121 34.322 73.2132 30.6433C75.3844 29.0786 77.1518 27.0294 78.3717 24.6622C79.5917 22.2949 80.2299 19.6765 80.2344 17.0195C80.2344 7.73828 72.5563 0.144531 63.1719 0.144531C53.7875 0.144531 46.1094 7.73828 46.1094 17.0195C46.1094 22.5995 48.8877 27.5664 53.1306 30.6433C48.9757 32.6636 45.5365 35.8807 43.2656 39.8711C40.9947 35.8807 37.5556 32.6636 33.4007 30.6433C35.5719 29.0786 37.3393 27.0294 38.5592 24.6622C39.7792 22.2949 40.4174 19.6765 40.4219 17.0195C40.4219 7.73828 32.7438 0.144531 23.3594 0.144531ZM23.3594 5.76953C29.681 5.76953 34.7344 10.7673 34.7344 17.0195C34.7344 23.2717 29.681 28.2695 23.3594 28.2695C17.0377 28.2695 11.9844 23.2717 11.9844 17.0195C11.9844 10.7673 17.0377 5.76953 23.3594 5.76953ZM63.1719 5.76953C69.4935 5.76953 74.5469 10.7673 74.5469 17.0195C74.5469 23.2717 69.4935 28.2695 63.1719 28.2695C56.8502 28.2695 51.7969 23.2717 51.7969 17.0195C51.7969 10.7673 56.8502 5.76953 63.1719 5.76953Z" fill="#00b14f"/>
</svg>
