<svg width="43" height="43" viewBox="0 0 43 43" fill="none" xmlns="http://www.w3.org/2000/svg">
<circle cx="21.7827" cy="21.5" r="21" fill="#00b14f"/>
<path d="M11.7827 31.5C11.7827 30.085 11.7827 29.378 12.2227 28.94C12.6617 28.5 13.3687 28.5 14.7827 28.5C16.1977 28.5 16.9047 28.5 17.3427 28.94C17.7827 29.379 17.7827 30.086 17.7827 31.5V22.5C17.7827 21.085 17.7827 20.378 18.2227 19.94C18.6617 19.5 19.3687 19.5 20.7827 19.5H22.7827C24.1977 19.5 24.9047 19.5 25.3427 19.94C25.7827 20.379 25.7827 21.086 25.7827 22.5V31.5V28.5C25.7827 27.085 25.7827 26.378 26.2227 25.94C26.6617 25.5 27.3687 25.5 28.7827 25.5C30.1977 25.5 30.9047 25.5 31.3427 25.94C31.7827 26.379 31.7827 27.086 31.7827 28.5V31.5" stroke="white" stroke-width="1.5" stroke-linecap="round"/>
<path d="M20.929 12.523C21.309 11.84 21.499 11.5 21.783 11.5C22.067 11.5 22.257 11.84 22.637 12.523L22.735 12.699C22.843 12.893 22.897 12.989 22.981 13.053C23.066 13.117 23.171 13.141 23.381 13.188L23.571 13.232C24.309 13.399 24.678 13.482 24.766 13.764C24.854 14.047 24.602 14.341 24.099 14.929L23.969 15.081C23.826 15.248 23.754 15.331 23.722 15.435C23.69 15.539 23.701 15.65 23.722 15.873L23.742 16.076C23.818 16.861 23.856 17.254 23.627 17.428C23.397 17.603 23.051 17.443 22.36 17.125L22.182 17.043C21.985 16.953 21.887 16.907 21.783 16.907C21.679 16.907 21.581 16.953 21.384 17.043L21.206 17.125C20.515 17.443 20.169 17.603 19.939 17.428C19.709 17.254 19.748 16.861 19.824 16.076L19.844 15.873C19.865 15.65 19.876 15.539 19.844 15.435C19.812 15.332 19.74 15.248 19.597 15.081L19.467 14.929C18.964 14.341 18.712 14.047 18.8 13.764C18.888 13.482 19.257 13.399 19.995 13.232L20.185 13.188C20.395 13.141 20.5 13.118 20.585 13.053C20.669 12.989 20.723 12.893 20.831 12.699L20.929 12.523Z" stroke="white" stroke-width="1.5"/>
</svg>
