<svg width="18" height="22" viewBox="0 0 18 22" fill="none" xmlns="http://www.w3.org/2000/svg">
<path d="M6.34286 18.7161C6.34286 18.0021 6.34286 17.6461 6.30386 17.4091C6.18186 16.6461 6.16086 16.5971 5.67386 15.9971C5.52186 15.8101 4.96186 15.3091 3.84186 14.3051C2.70974 13.2925 1.91174 11.96 1.55345 10.484C1.19516 9.00801 1.29347 7.45799 1.83536 6.03907C2.37725 4.62014 3.33719 3.39918 4.58816 2.53775C5.83913 1.67631 7.32217 1.215 8.84105 1.21484C10.3599 1.21469 11.8431 1.67571 13.0942 2.53689C14.3453 3.39808 15.3055 4.61885 15.8477 6.03766C16.3899 7.45648 16.4885 9.00648 16.1305 10.4826C15.7725 11.9587 14.9748 13.2913 13.8429 14.3041C12.7219 15.3081 12.1619 15.8101 12.0109 15.9961C11.5239 16.5961 11.5029 16.6451 11.3799 17.4081C11.3419 17.6451 11.3419 18.0021 11.3419 18.7151H6.34186C6.34186 19.6501 6.34186 20.1171 6.54286 20.4651C6.6745 20.6931 6.86385 20.8824 7.09186 21.0141C7.43986 21.2151 7.90686 21.2151 8.84186 21.2151C9.77686 21.2151 10.2439 21.2151 10.5929 21.0151C10.8209 20.8834 11.0102 20.6941 11.1419 20.4661C11.3429 20.1181 11.3429 19.6511 11.3429 18.7161" stroke="black" stroke-width="1.5"/>
</svg>
