<svg width="149" height="61" viewBox="0 0 149 61" fill="none" xmlns="http://www.w3.org/2000/svg">
<g clip-path="url(#clip0_7508_12119)">
<path d="M120.72 28.2773H102.351L101.225 33.8804H111.157L105.726 38.8256L104.819 43.4028H107.905C109.066 43.4028 109.918 43.5867 110.463 43.9522C111.007 44.3177 111.28 44.8571 111.28 45.5628C111.28 46.5155 110.885 47.2541 110.101 47.7783C109.314 48.3026 108.182 48.5647 106.706 48.5647C105.519 48.5647 104.34 48.3807 103.166 48.0152C101.992 47.6498 100.945 47.123 100.026 46.4399L96.6855 51.6044C97.9196 52.5319 99.3586 53.2352 101.005 53.7115C102.651 54.1879 104.392 54.4248 106.233 54.4248C108.604 54.4248 110.723 54.0215 112.586 53.215C114.45 52.4084 115.909 51.3045 116.96 49.9006C118.012 48.4966 118.539 46.9037 118.539 45.1217C118.539 43.7304 118.194 42.5206 117.505 41.4947C116.816 40.4689 115.836 39.6825 114.565 39.1331C114.187 38.9692 113.783 38.8331 113.361 38.7197L119.846 32.8167L120.72 28.2773Z" fill="#EE1C51"/>
<path d="M135.648 43.0385C134.886 42.673 134.069 42.3983 133.197 42.2143C132.325 42.0303 131.508 41.8715 130.746 41.7379C129.984 41.6043 129.355 41.4329 128.858 41.2262C128.361 41.0196 128.113 40.7322 128.113 40.3667C128.113 39.9509 128.356 39.598 128.84 39.3056C129.325 39.0132 130.134 38.8671 131.273 38.8671C132.168 38.8671 133.125 38.9704 134.141 39.1796C135.158 39.3863 136.15 39.7845 137.119 40.3693L139.552 35.4972C138.583 34.9855 137.446 34.5948 136.14 34.3252C134.833 34.0555 133.477 33.9219 132.073 33.9219C130.087 33.9219 128.303 34.1916 126.719 34.7284C125.133 35.2653 123.881 36.0718 122.962 37.1456C122.043 38.2193 121.583 39.5501 121.583 41.138C121.583 42.2621 121.831 43.1594 122.328 43.8299C122.822 44.5029 123.459 45.0196 124.234 45.3875C125.008 45.753 125.825 46.0353 126.684 46.2294C127.544 46.426 128.361 46.5848 129.135 46.7058C129.91 46.8293 130.544 46.9805 131.041 47.1645C131.536 47.3485 131.786 47.6358 131.786 48.024C131.786 48.4625 131.543 48.8104 131.059 49.0675C130.574 49.3245 129.765 49.4531 128.625 49.4531C127.464 49.4531 126.265 49.2943 125.031 48.9767C123.797 48.6591 122.72 48.208 121.801 47.6207L119.295 52.4928C120.142 53.0296 121.338 53.4884 122.89 53.8664C124.439 54.2445 126.085 54.4336 127.826 54.4336C129.787 54.4336 131.553 54.1639 133.127 53.627C134.701 53.0901 135.952 52.2836 136.884 51.2099C137.816 50.1361 138.281 48.8179 138.281 47.2552C138.281 46.1336 138.033 45.2414 137.536 44.581C137.039 43.9181 136.41 43.4039 135.648 43.0385Z" fill="#EE1C51"/>
<path d="M18.4845 36.0647L10.1235 15.7793H0.693359L13.8699 46.9002H22.4622L35.6815 15.7793H27.0447L18.4845 36.0647Z" fill="white"/>
<path d="M67.7148 9.5351L71.2015 12.9256H76.3106L71.0396 6.16797H64.39L59.1172 12.9256H64.2263L67.7148 9.5351Z" fill="white"/>
<path d="M64.1006 34.0897H77.8055V27.5098H64.1006V22.2634H79.6574V15.4609H55.4639V46.5836H80.2302V39.7811H64.1006V34.0897Z" fill="white"/>
<path d="M67.7148 49.3398C66.7453 49.3398 65.9216 49.6647 65.2474 50.318C64.5714 50.9696 64.2334 51.8149 64.2334 52.8524C64.2334 53.8898 64.5714 54.719 65.2474 55.3418C65.9234 55.9646 66.7453 56.2751 67.7148 56.2751C68.6843 56.2751 69.5062 55.9646 70.1822 55.3418C70.8582 54.719 71.1962 53.8898 71.1962 52.8524C71.1962 51.8149 70.8582 50.9696 70.1822 50.318C69.5062 49.6647 68.6843 49.3398 67.7148 49.3398Z" fill="white"/>
<path d="M44.1291 60.492C44.2678 60.3358 50.6453 53.0721 50.6453 48.7536C50.6453 46.2068 46.8473 22.8468 46.8473 22.8468C46.8473 22.8468 49.578 17.6005 49.2933 16.8825C49.1154 16.4356 48.0712 16.1556 46.9896 15.9833C45.2658 15.7087 43.5065 15.7087 41.7827 15.9833C40.7029 16.1556 39.6568 16.4356 39.4789 16.8825C39.1943 17.6005 41.925 22.8468 41.925 22.8468C41.925 22.8468 38.127 46.2086 38.127 48.7536C38.127 53.0685 43.985 60.3232 44.122 60.492V60.4991L44.1255 60.4955L44.1291 60.4991V60.492Z" fill="white"/>
<path d="M44.3868 0.5C43.001 0.5 41.8251 0.964866 40.8592 1.89819C39.8932 2.82971 39.4111 4.03765 39.4111 5.52019C39.4111 7.00274 39.8932 8.18913 40.8592 9.07938C41.8251 9.96962 43.001 10.4147 44.3868 10.4147C45.7726 10.4147 46.9467 9.96962 47.9144 9.07938C48.8804 8.18913 49.3625 7.00453 49.3625 5.52019C49.3625 4.03765 48.8786 2.82971 47.9144 1.89819C46.9485 0.964866 45.7726 0.5 44.3868 0.5Z" fill="white"/>
<path d="M95.9398 40.6587C92.4015 39.3161 89.8826 35.8718 89.8826 31.8334C89.8826 26.6265 94.0666 22.405 99.2273 22.405C102.362 22.405 105.132 23.963 106.827 26.3519L113.146 26.377C110.979 20.7538 105.566 16.7656 99.2273 16.7656C90.9802 16.7656 84.2949 23.5107 84.2949 31.8316C84.2949 37.8479 87.7905 43.0368 92.8427 45.4527L95.9398 40.6587Z" fill="white"/>
</g>
<defs>
<clipPath id="clip0_7508_12119">
<rect width="148" height="60" fill="white" transform="translate(0.693359 0.5)"/>
</clipPath>
</defs>
</svg>
