<svg width="29" height="27" viewBox="0 0 29 27" fill="none" xmlns="http://www.w3.org/2000/svg">
<path fill-rule="evenodd" clip-rule="evenodd" d="M12.5495 25.2917C12.5495 24.9049 12.3958 24.534 12.1223 24.2605C11.8489 23.987 11.4779 23.8333 11.0911 23.8333H3.79948V3.41667H11.0911C11.4779 3.41667 11.8489 3.26302 12.1223 2.98953C12.3958 2.71604 12.5495 2.34511 12.5495 1.95833C12.5495 1.57156 12.3958 1.20063 12.1223 0.927136C11.8489 0.653645 11.4779 0.5 11.0911 0.5H3.79948C3.02593 0.5 2.28407 0.807291 1.73708 1.35427C1.1901 1.90125 0.882813 2.64312 0.882812 3.41667V23.8333C0.882813 24.6069 1.1901 25.3487 1.73708 25.8957C2.28407 26.4427 3.02593 26.75 3.79948 26.75H11.0911C11.4779 26.75 11.8489 26.5964 12.1223 26.3229C12.3958 26.0494 12.5495 25.6784 12.5495 25.2917Z" fill="white"/>
<path d="M28.1744 14.6449C28.4411 14.3737 28.5909 14.0088 28.5915 13.6284V13.6197C28.5907 13.2343 28.437 12.8651 28.1642 12.593L22.3308 6.75967C22.1963 6.62038 22.0354 6.50928 21.8575 6.43285C21.6796 6.35642 21.4882 6.31619 21.2946 6.31451C21.1009 6.31283 20.9089 6.34972 20.7297 6.42305C20.5504 6.49638 20.3876 6.60466 20.2507 6.74159C20.1138 6.87852 20.0055 7.04134 19.9321 7.22057C19.8588 7.39979 19.8219 7.59182 19.8236 7.78546C19.8253 7.9791 19.8655 8.17046 19.9419 8.34838C20.0184 8.5263 20.1295 8.68722 20.2688 8.82175L23.6127 12.1657H9.63314C9.24636 12.1657 8.87543 12.3194 8.60194 12.5928C8.32845 12.8663 8.1748 13.2373 8.1748 13.624C8.1748 14.0108 8.32845 14.3817 8.60194 14.6552C8.87543 14.9287 9.24636 15.0824 9.63314 15.0824H23.6127L20.2688 18.4263C20.0031 18.7014 19.8561 19.0698 19.8594 19.4521C19.8628 19.8345 20.0161 20.2003 20.2865 20.4707C20.5569 20.741 20.9227 20.8944 21.3051 20.8977C21.6874 20.9011 22.0558 20.7541 22.3308 20.4884L28.1642 14.6551L28.1744 14.6449Z" fill="white"/>
</svg>
