<svg width="21" height="21" viewBox="0 0 21 21" fill="none" xmlns="http://www.w3.org/2000/svg">
<path d="M17.4911 10.0578L11.6578 4.22451C11.497 4.0682 11.2651 4.00954 11.0493 4.07062C10.8336 4.1317 10.6668 4.30324 10.6118 4.52062C10.5568 4.738 10.622 4.9682 10.7828 5.12451L15.5411 9.87451H4.51611C4.17094 9.87451 3.89111 10.1543 3.89111 10.4995C3.89111 10.8447 4.17094 11.1245 4.51611 11.1245H15.5328L10.7828 15.8745C10.6637 15.9906 10.5965 16.1499 10.5965 16.3162C10.5965 16.4825 10.6637 16.6418 10.7828 16.7578C10.8976 16.8784 11.058 16.9449 11.2244 16.9412C11.3903 16.942 11.5495 16.8759 11.6661 16.7578L17.4994 10.9245C17.7432 10.6805 17.7432 10.2852 17.4994 10.0412L17.4911 10.0578Z" fill="#00b14f"/>
</svg>
