<svg width="28" height="24" viewBox="0 0 28 24" fill="none" xmlns="http://www.w3.org/2000/svg">
<path d="M12.3946 12.5404C12.0951 12.527 11.7955 12.5137 11.4824 12.5137C8.18738 12.5137 5.11024 13.4098 2.48242 14.9478C1.28424 15.6433 0.589844 16.954 0.589844 18.3316V21.8758H13.1979C12.2363 20.5282 11.6553 18.9544 11.5142 17.3146C11.3731 15.6747 11.6768 14.0274 12.3946 12.5404Z" fill="white"/>
<path d="M11.4824 11.1761C14.4903 11.1761 16.9287 8.78096 16.9287 5.82635C16.9287 2.87174 14.4903 0.476562 11.4824 0.476562C8.47451 0.476562 6.03613 2.87174 6.03613 5.82635C6.03613 8.78096 8.47451 11.1761 11.4824 11.1761Z" fill="white"/>
<path d="M26.1192 16.5261C26.1192 16.2319 26.0784 15.9644 26.0375 15.6835L27.5897 14.3327L26.2282 12.0189L24.2539 12.6743C23.8182 12.3131 23.328 12.0323 22.7834 11.8317L22.3749 9.83887H19.6518L19.2433 11.8317C18.6987 12.0323 18.2085 12.3131 17.7728 12.6743L15.7986 12.0189L14.437 14.3327L15.9892 15.6835C15.9483 15.9644 15.9075 16.2319 15.9075 16.5261C15.9075 16.8203 15.9483 17.0878 15.9892 17.3687L14.437 18.7195L15.7986 21.0333L17.7728 20.3779C18.2085 20.7391 18.6987 21.0199 19.2433 21.2205L19.6518 23.2133H22.3749L22.7834 21.2205C23.328 21.0199 23.8182 20.7391 24.2539 20.3779L26.2282 21.0333L27.5897 18.7195L26.0375 17.3687C26.0784 17.0878 26.1192 16.8203 26.1192 16.5261ZM21.0134 19.201C19.5157 19.201 18.2902 17.9973 18.2902 16.5261C18.2902 15.0549 19.5157 13.8512 21.0134 13.8512C22.5111 13.8512 23.7365 15.0549 23.7365 16.5261C23.7365 17.9973 22.5111 19.201 21.0134 19.201Z" fill="white"/>
</svg>
