<svg width="22" height="27" viewBox="0 0 22 27" fill="none" xmlns="http://www.w3.org/2000/svg">
<path d="M2.40477 1.90477C2.59079 1.70325 2.81618 1.61523 3.02322 1.61523H15.6803L20.1791 6.48895V23.8407C20.1791 24.179 20.0539 24.4817 19.8642 24.6873C19.6782 24.8888 19.4528 24.9768 19.2457 24.9768H3.02322C2.81618 24.9768 2.59079 24.8888 2.40477 24.6873C2.21502 24.4817 2.08984 24.179 2.08984 23.8407V2.75139C2.08984 2.41304 2.21502 2.11032 2.40477 1.90477Z" stroke="white" stroke-width="3"/>
<path d="M10.042 15.2491C9.90361 15.2427 9.76527 15.2363 9.62063 15.2363C8.09882 15.2363 6.67762 15.6634 5.46394 16.3963C4.91056 16.7277 4.58984 17.3523 4.58984 18.0088V19.6978H10.413C9.96882 19.0556 9.70049 18.3056 9.63532 17.5241C9.57014 16.7427 9.71045 15.9577 10.042 15.2491Z" fill="white"/>
<path d="M9.62037 14.5988C11.0096 14.5988 12.1358 13.4574 12.1358 12.0494C12.1358 10.6414 11.0096 9.5 9.62037 9.5C8.23116 9.5 7.10498 10.6414 7.10498 12.0494C7.10498 13.4574 8.23116 14.5988 9.62037 14.5988Z" fill="white"/>
<path d="M16.3809 17.1486C16.3809 17.0084 16.362 16.881 16.3431 16.7471L17.06 16.1034L16.4312 15.0008L15.5193 15.3131C15.3181 15.141 15.0917 15.0072 14.8402 14.9116L14.6515 13.9619H13.3938L13.2052 14.9116C12.9536 15.0072 12.7273 15.141 12.526 15.3131L11.6142 15.0008L10.9854 16.1034L11.7022 16.7471C11.6834 16.881 11.6645 17.0084 11.6645 17.1486C11.6645 17.2889 11.6834 17.4163 11.7022 17.5502L10.9854 18.1939L11.6142 19.2965L12.526 18.9842C12.7273 19.1563 12.9536 19.2901 13.2052 19.3857L13.3938 20.3354H14.6515L14.8402 19.3857C15.0917 19.2901 15.3181 19.1563 15.5193 18.9842L16.4312 19.2965L17.06 18.1939L16.3431 17.5502C16.362 17.4163 16.3809 17.2889 16.3809 17.1486ZM14.0227 18.4233C13.331 18.4233 12.765 17.8497 12.765 17.1486C12.765 16.4476 13.331 15.874 14.0227 15.874C14.7144 15.874 15.2804 16.4476 15.2804 17.1486C15.2804 17.8497 14.7144 18.4233 14.0227 18.4233Z" fill="white"/>
</svg>
