<svg width="28" height="25" viewBox="0 0 28 25" fill="none" xmlns="http://www.w3.org/2000/svg">
<path d="M12.1668 18.7174L10.2437 23.5M16.0129 18.7174L17.936 23.5M8.32061 23.5H19.8591M25.6283 1.5H2.55138C2.29637 1.5 2.0518 1.60078 1.87147 1.78016C1.69115 1.95954 1.58984 2.20284 1.58984 2.45652V17.7609C1.58984 18.0146 1.69115 18.2579 1.87147 18.4372C2.0518 18.6166 2.29637 18.7174 2.55138 18.7174H25.6283C25.8833 18.7174 26.1279 18.6166 26.3082 18.4372C26.4885 18.2579 26.5898 18.0146 26.5898 17.7609V2.45652C26.5898 2.20284 26.4885 1.95954 26.3082 1.78016C26.1279 1.60078 25.8833 1.5 25.6283 1.5Z" stroke="white" stroke-width="2.5" stroke-linecap="round" stroke-linejoin="round"/>
</svg>
