<svg width="21" height="26" viewBox="0 0 21 26" fill="none" xmlns="http://www.w3.org/2000/svg">
<path d="M20.5898 9.67024C20.5898 9.43631 20.5185 9.21983 20.3963 9.04131L20.3984 9.04541C20.3789 9.01738 20.3585 8.99001 20.3373 8.96333L20.3322 8.95718C20.3119 8.93261 20.2904 8.90899 20.268 8.88638L20.2578 8.87612L20.2293 8.84637L12.2627 0.822159C12.2402 0.799271 12.2164 0.777691 12.1914 0.757522L12.169 0.737002L12.114 0.695963L12.0865 0.676469C12.067 0.664124 12.0473 0.652152 12.0274 0.64056L12.002 0.62517C11.975 0.610803 11.9475 0.597456 11.9195 0.585157L11.8848 0.570793L11.8298 0.550273L11.7901 0.537961L11.728 0.521546L11.6964 0.514364C11.6654 0.508498 11.6341 0.503707 11.6027 0.5H1.70101C1.08992 0.5 0.593918 0.996576 0.589844 1.61114V23.996C0.589844 24.6147 1.08788 25.1154 1.70101 25.1154H19.4777C20.0918 25.1154 20.5888 24.6137 20.5888 23.996V9.69896L20.5898 9.67024ZM12.5876 4.30947L16.7939 8.55191H12.5876V4.30947ZM2.81116 22.8777V2.73049H10.3683V9.67331C10.3683 10.292 10.8664 10.7927 11.4795 10.7927H18.3716V22.8777H2.81116Z" fill="white"/>
<path d="M14.2914 18.4002H6.85238C6.55768 18.4002 6.27505 18.5181 6.06666 18.728C5.85828 18.938 5.74121 19.2227 5.74121 19.5195C5.74121 19.8164 5.85828 20.1011 6.06666 20.311C6.27505 20.521 6.55768 20.6389 6.85238 20.6389H6.88497H6.88293H14.322C14.6167 20.6389 14.8993 20.521 15.1077 20.311C15.316 20.1011 15.4331 19.8164 15.4331 19.5195C15.4331 19.2227 15.316 18.938 15.1077 18.728C14.8993 18.5181 14.6167 18.4002 14.322 18.4002H14.2894H14.2914ZM14.2914 13.9238H6.85238C6.55768 13.9238 6.27505 14.0418 6.06666 14.2517C5.85828 14.4616 5.74121 14.7463 5.74121 15.0432C5.74121 15.34 5.85828 15.6248 6.06666 15.8347C6.27505 16.0446 6.55768 16.1625 6.85238 16.1625H6.88497H6.88293H14.322C14.6167 16.1625 14.8993 16.0446 15.1077 15.8347C15.316 15.6248 15.4331 15.34 15.4331 15.0432C15.4331 14.7463 15.316 14.4616 15.1077 14.2517C14.8993 14.0418 14.6167 13.9238 14.322 13.9238H14.2894H14.2914Z" fill="white"/>
</svg>
