<svg width="15" height="15" viewBox="0 0 15 15" fill="none" xmlns="http://www.w3.org/2000/svg">
<path d="M7.5 1.375C8.77591 1.37645 9.99915 1.88394 10.9014 2.78615C11.8036 3.68835 12.3111 4.91159 12.3125 6.1875C12.3125 10.3055 7.9375 13.4155 7.75101 13.5457C7.67745 13.5972 7.58981 13.6249 7.5 13.6249C7.41018 13.6249 7.32254 13.5972 7.24898 13.5457C7.0625 13.4155 2.6875 10.3055 2.6875 6.1875C2.68895 4.91159 3.19644 3.68835 4.09865 2.78615C5.00085 1.88394 6.22409 1.37645 7.5 1.375ZM7.5 4.4375C7.15388 4.4375 6.81554 4.54014 6.52775 4.73243C6.23997 4.92472 6.01566 5.19803 5.88321 5.5178C5.75076 5.83757 5.7161 6.18944 5.78363 6.52891C5.85115 6.86837 6.01782 7.18019 6.26256 7.42494C6.5073 7.66968 6.81912 7.83635 7.15859 7.90387C7.49806 7.9714 7.84992 7.93674 8.1697 7.80429C8.48947 7.67184 8.76278 7.44753 8.95507 7.15975C9.14736 6.87196 9.25 6.53362 9.25 6.1875C9.25 5.72337 9.06563 5.27825 8.73744 4.95006C8.40925 4.62187 7.96413 4.4375 7.5 4.4375Z" fill="black"/>
</svg>
