<svg width="24" height="24" viewBox="0 0 24 24" fill="none" xmlns="http://www.w3.org/2000/svg">
<path d="M11.378 19.0757L11.3773 19.075C8.89974 16.8284 6.88354 14.9968 5.48088 13.2808C4.08372 11.5714 3.34766 10.0379 3.34766 8.39583C3.34766 5.71132 5.44237 3.625 8.11849 3.625C9.63484 3.625 11.0985 4.33348 12.0516 5.44397L12.431 5.88605L12.8104 5.44397C13.7635 4.33348 15.2271 3.625 16.7435 3.625C19.4196 3.625 21.5143 5.71132 21.5143 8.39583C21.5143 10.0379 20.7783 11.5714 19.3811 13.2808C17.9784 14.9968 15.9622 16.8284 13.4847 19.075L13.484 19.0757L12.431 20.0343L11.378 19.0757Z" stroke="#00b14f"/>
</svg>
