<svg width="113" height="62" viewBox="0 0 113 62" fill="none" xmlns="http://www.w3.org/2000/svg">
<path d="M102.792 0.386719H42.125C36.9917 0.386719 32.7917 4.58672 32.7917 9.72005V51.7201C32.7917 54.1954 33.775 56.5694 35.5253 58.3197C37.2757 60.0701 39.6496 61.0534 42.125 61.0534H102.792C107.972 61.0534 112.125 56.9001 112.125 51.7201V9.72005C112.125 7.2447 111.142 4.87073 109.391 3.12039C107.641 1.37005 105.267 0.386719 102.792 0.386719ZM102.792 51.7201H42.125V17.5134L72.4583 33.0534L102.792 17.5134V51.7201ZM72.4583 25.1667L42.125 9.72005H102.792L72.4583 25.1667ZM23.4583 51.7201C23.4583 52.5134 23.5983 53.2601 23.6917 54.0534H4.79167C2.21567 54.0534 0.125 51.9534 0.125 49.3867C0.125 46.8201 2.21567 44.7201 4.79167 44.7201H23.4583V51.7201ZM14.125 7.38672H23.6917C23.5983 8.18005 23.4583 8.92672 23.4583 9.72005V16.7201H14.125C11.5583 16.7201 9.45833 14.6201 9.45833 12.0534C9.45833 9.48672 11.5583 7.38672 14.125 7.38672ZM4.79167 30.7201C4.79167 28.1534 6.89167 26.0534 9.45833 26.0534H23.4583V35.3867H9.45833C6.89167 35.3867 4.79167 33.2867 4.79167 30.7201Z" fill="#00b14f"/>
</svg>
