<svg width="23" height="22" viewBox="0 0 23 22" fill="none" xmlns="http://www.w3.org/2000/svg">
<path fill-rule="evenodd" clip-rule="evenodd" d="M6.14508 16.2314C5.97323 16.0595 5.87669 15.8264 5.87669 15.5833C5.87669 15.3402 5.97323 15.1071 6.14508 14.9352L10.0803 11L6.14508 7.0647C6.05753 6.98014 5.9877 6.87899 5.93966 6.76716C5.89161 6.65532 5.86633 6.53503 5.86527 6.41332C5.86421 6.2916 5.8874 6.1709 5.93349 6.05824C5.97959 5.94559 6.04765 5.84324 6.13372 5.75717C6.21979 5.6711 6.32214 5.60304 6.43479 5.55695C6.54745 5.51086 6.66815 5.48766 6.78987 5.48872C6.91158 5.48978 7.03187 5.51507 7.1437 5.56311C7.25554 5.61115 7.35669 5.68098 7.44125 5.76853L12.0246 10.3519C12.1964 10.5238 12.293 10.7569 12.293 11C12.293 11.243 12.1964 11.4761 12.0246 11.648L7.44125 16.2314C7.26935 16.4032 7.03623 16.4998 6.79317 16.4998C6.5501 16.4998 6.31698 16.4032 6.14508 16.2314ZM11.6451 16.2314C11.4732 16.0595 11.3767 15.8264 11.3767 15.5833C11.3767 15.3402 11.4732 15.1071 11.6451 14.9352L15.5803 11L11.6451 7.0647C11.4781 6.89182 11.3857 6.66026 11.3878 6.41992C11.3899 6.17957 11.4863 5.94966 11.6562 5.7797C11.8262 5.60974 12.0561 5.51334 12.2965 5.51125C12.5368 5.50916 12.7684 5.60156 12.9412 5.76853L17.5246 10.3519C17.6964 10.5238 17.793 10.7569 17.793 11C17.793 11.243 17.6964 11.4761 17.5246 11.648L12.9412 16.2314C12.7693 16.4032 12.5362 16.4998 12.2932 16.4998C12.0501 16.4998 11.817 16.4032 11.6451 16.2314Z" fill="#F39623"/>
</svg>
