<svg width="20" height="20" viewBox="0 0 20 20" fill="none" xmlns="http://www.w3.org/2000/svg">
<path d="M12.7143 6.35714C12.7143 7.97686 12.0709 9.53023 10.9255 10.6755C9.78023 11.8209 8.22686 12.4643 6.60714 12.4643C4.98743 12.4643 3.43405 11.8209 2.28874 10.6755C1.14343 9.53023 0.5 7.97686 0.5 6.35714C0.5 4.73743 1.14343 3.18405 2.28874 2.03874C3.43405 0.893429 4.98743 0.25 6.60714 0.25C8.22686 0.25 9.78023 0.893429 10.9255 2.03874C12.0709 3.18405 12.7143 4.73743 12.7143 6.35714ZM7.28571 3.64286C7.28571 3.46289 7.21422 3.29029 7.08697 3.16303C6.95971 3.03578 6.78711 2.96429 6.60714 2.96429C6.42717 2.96429 6.25458 3.03578 6.12732 3.16303C6.00006 3.29029 5.92857 3.46289 5.92857 3.64286V5.67857H3.89286C3.71289 5.67857 3.54029 5.75006 3.41303 5.87732C3.28578 6.00458 3.21429 6.17717 3.21429 6.35714C3.21429 6.53711 3.28578 6.70971 3.41303 6.83697C3.54029 6.96422 3.71289 7.03571 3.89286 7.03571H5.92857V9.07143C5.92857 9.2514 6.00006 9.42399 6.12732 9.55125C6.25458 9.67851 6.42717 9.75 6.60714 9.75C6.78711 9.75 6.95971 9.67851 7.08697 9.55125C7.21422 9.42399 7.28571 9.2514 7.28571 9.07143V7.03571H9.32143C9.5014 7.03571 9.67399 6.96422 9.80125 6.83697C9.92851 6.70971 10 6.53711 10 6.35714C10 6.17717 9.92851 6.00458 9.80125 5.87732C9.67399 5.75006 9.5014 5.67857 9.32143 5.67857H7.28571V3.64286ZM16.1071 4.32143H13.7905C13.6577 3.85263 13.4791 3.39805 13.2571 2.96429H16.1071C17.007 2.96429 17.87 3.32175 18.5063 3.95803C19.1425 4.59431 19.5 5.4573 19.5 6.35714V12.1739C19.4995 12.7136 19.2847 13.231 18.9029 13.6124L13.8624 18.6542C13.4808 19.0356 12.9634 19.2499 12.4239 19.25H6.60714C5.7073 19.25 4.84431 18.8925 4.20803 18.2563C3.57175 17.62 3.21429 16.757 3.21429 15.8571V13.0071C3.6445 13.227 4.09779 13.4061 4.57143 13.5405V15.8571C4.57143 16.397 4.7859 16.9148 5.16768 17.2966C5.54945 17.6784 6.06724 17.8929 6.60714 17.8929H11.3571V15.1786C11.3571 14.0988 11.7861 13.0632 12.5496 12.2996C13.3132 11.5361 14.3488 11.1071 15.4286 11.1071H18.1429V6.35714C18.1429 5.81724 17.9284 5.29945 17.5466 4.91768C17.1648 4.5359 16.647 4.32143 16.1071 4.32143ZM12.7143 17.8277C12.7848 17.7946 12.8491 17.7496 12.9043 17.6947L17.9447 12.6529C17.9995 12.5981 18.0445 12.5343 18.0777 12.4643H15.4286C14.7087 12.4643 14.0183 12.7503 13.5093 13.2593C13.0003 13.7683 12.7143 14.4587 12.7143 15.1786V17.8277Z" fill="#00b14f"/>
</svg>
