<?xml version="1.0" encoding="UTF-8"?>
<svg version="1.1" viewBox="0 0 2048 2048" width="100" height="100" xmlns="http://www.w3.org/2000/svg">
<path fill="#00b14f" transform="translate(254)" d="m0 0h1642l23 7 12 5 13 8 13 10 10 10 9 12 8 13 8 20 4 20 1 19v1212l-1 23-3 15-5 16-9 17-10 14-15 15-14 10-16 8-13 5-19 4-14 1-395 1-11 11-8 7-13 11-13 10-19 14-12 8-19 12-23 13-25 13-37 16-34 12-34 10-30 7-39 7-33 4-24 2-25 1h-24l-27-1-41-4-36-6-36-8-25-7-27-9-28-11-24-11-22-11-27-16-15-10-4-1-9 9-7 8-6 7h-2l-2 4-9 9-7 8-9 9-7 8-12 12-7 8-16 17-11 12-7 7-7 8-8 8-7 8-8 8-1 2h-2l-2 4-12 12-14 16-18 18-14 16h-2l-2 4-10 10-14 16-18 18-14 16h-2l-2 4-11 11-7 8-8 8-7 8-9 9-14 16h-2l-2 4-11 11-7 8-9 9-7 8-8 8-1 2h-2l-2 4-10 10-1 2h-2l-2 4-10 10-1 2h-2l-2 4-10 10-7 8-8 8-7 8-8 8-1 2h-2v2l-16 14-14 9-15 8-24 8-11 3h-50v-2l-21-6-15-6-18-10-14-11-18-18-12-17-8-15-7-19-4-17-2-15v-20l3-21 5-17 7-17 8-13 8-11 9-10 16-16 8-7 9-9 8-7 67-63 12-11 7-7 8-7 9-9 8-7 9-9 8-7 17-16 9-9 8-7 8-8 8-7 8-8 8-7 15-14 9-9 8-7 6-6h2v-2l8-7 51-48 3-3h2v-2l8-7 13-12-180-1-18-2-15-4-19-8-11-7-11-9-10-9-13-17-9-17-6-17-3-18-1-24v-1206l1-21 4-19 6-16 8-15 9-12 11-12 11-9 13-8 14-7zm21 80-12 2-8 4-10 9-5 8-3 11v125l654 1 18 2 12 6 8 9 4 8 2 6v18l-5 12-6 8-9 6-9 3-7 1-662 1v1030l3 10 6 9 7 7 10 5 10 2h265l8-6v-2l4-2 10-10 2-1v-2l4-2 6-6-1-5-12-19-12-21-12-23-12-25-15-38-9-28-8-30-7-35-5-36-3-39v-45l2-31 4-33 6-35 12-48 12-36 11-29 11-24 12-25 12-22 14-23 14-21 13-18 13-17 14-17 11-12v-2h2l7-8 2-4h2l7-8 7-7 2-1v-2h2v-2l4-2 16-15 22-18 21-16 24-16 19-12 25-14 15-8 24-11 27-11 36-12 29-8 33-7 33-5 30-3 17-1h65l40 3 36 5 34 7 34 9 35 12 34 14 29 14 22 12 21 13 18 12 14 10 17 13 11 9 13 11 13 12 12 11 14 14 1 2h2l2 4 7 7 9 11 9 10 13 17 12 16 20 30 9 15 12 21 10 19 13 28 13 32 12 35 10 37 6 28 6 36 3 27 1 15 1 42-1 32-3 31-3 23-5 27-7 30-9 30-11 31-12 28-12 25-8 15-16 27-7 11-8 12-14 19-3 5h321l11-2 10-5 7-6 6-9 3-10 1-20v-1010l-1-1-664-1-12-3-9-6-7-8-5-10-1-4v-15l3-10 6-10 9-7 9-4 13-2h656l3-1-1-128-5-12-7-9-9-6-9-3-8-1zm776 424-37 3-33 5-36 8-30 9-28 10-21 9-18 8-19 10-26 15-24 16-16 12-13 10-14 12-10 9-3 2v2l-4 2-20 20v2h-2l-7 8-10 11-11 14-12 15-11 16-11 17-11 18-6 11-14 28-12 28-12 34-10 37-6 28-4 27-3 37v54l3 35 6 38 7 30 7 25 10 29 11 26 7 16 10 19 10 18 10 16 8 12 12 17 14 18 12 14 9 10 11 12 18 18 8 7 15 13 18 14 12 9 24 16 15 9 19 11 16 8 29 13 29 11 25 8 32 8 32 6 33 4 33 2h19l39-3 38-5 32-6 36-9 40-13 29-12 22-10 22-12 14-8 19-12 17-12 18-14 28-24 21-21 7-8 12-14 12-15 13-18 12-18 9-15 12-22 11-22 12-29 9-25 10-34 8-36 5-33 3-30 1-17v-44l-2-30-4-33-6-33-9-36-12-36-11-28-13-28-12-22-14-23-13-19-12-16-13-16-11-12-7-8-25-25-11-9-9-8-17-13-18-13-26-16-18-10-17-9-32-14-27-10-29-9-32-8-31-6-37-5-38-3zm-431 913-14 14-2 1v2l-4 2-12 12-8 7-8 8-8 6 2 4 62 62 4-2 7-7 7-8 8-8 7-8 5-5v-2l3-1 7-8 7-7-2-4-7-7-8-7-29-29-7-8-6-7zm-116 110-8 7-16 15-4 3v2l-4 2-12 12-8 7-9 9-8 7-8 8-8 7-7 6v2h-2v2l-4 2-13 13-8 7-9 8v2l-4 2-9 9-8 7-9 9-2 1v2l-4 2-11 11-8 7-9 8v2l-4 2-11 11-2 1v2l-4 2-9 9-2 1v2l-4 2-11 11-8 7-9 8v2l-4 2-13 13-8 7-67 63-4 3v2l-4 2-8 11-4 8-3 12-1 7v10l4 17 7 14 11 12 9 7 13 6 12 3h17l10-2 12-5 9-6 6-5v-2l3-1 7-8 9-9 7-8 4-4v-2h2v-2h2l7-8 7-7 7-8 9-9 7-8 8-8 7-8 8-8 7-8 7-7 7-8 9-9v-2h2l7-8 6-6v-2l3-1 7-8 15-16 16-17 4-4v-2h2l7-8 9-9 7-8 5-5v-2h2v-2h2l7-8 15-16 4-4v-2l3-1 7-8 9-9 7-8 6-6v-2h2l7-8 15-16 4-4v-2h2l7-8 6-6v-2l3-1 7-8 2-4-67-67z"/>
<path fill="#00b14f" transform="translate(931,716)" d="m0 0h10l12 3 11 7 110 110 3 1 109-109 8-6 8-4 9-2h9l9 2 10 5 12 11 122 122 7 10 4 13v9l-2 8-4 9-11 13-102 102h-2l-1 3 7 8 103 103 7 10 4 9 1 6v9l-3 10-6 10-9 10-123 123-9 6-12 4h-13l-11-4-9-6-112-112-7 6-104 104-10 7-10 4-4 1h-12l-12-4-9-7-5-4-7-8-120-120-6-10-3-12 1-11 4-11 6-8 11-12 100-100-2-4-110-110-6-10-3-8-1-10 3-13 6-10 11-12 121-121 11-7 5-2zm4 99-68 68 2 4 110 110 6 9 3 9v16l-4 11-6 9-7 7v2l-4 2-100 100 2 4 66 66 4-1 111-111 10-6 6-2 13-1 10 2 10 5 10 9 101 101 5 4 5-2 7-8 58-58-2-4-106-106-1-2h-2l-2-4-5-8-3-10v-13l4-12 6-9 111-111-2-5h-2l-2-4-4-4h-2l-2-4-53-53-5 1-111 111-14 7-4 1h-16l-11-4-8-6-10-9-101-101z"/>
<path fill="#00b14f" transform="translate(1067,240)" d="m0 0h18l11 4 10 8 6 8 4 11v18l-5 12-6 8-8 6-10 4-6 1h-11l-13-4-8-6-7-8-5-10-1-4v-16l4-11 6-9 10-8z"/>
<path fill="#00b14f" transform="translate(1901)" d="m0 0 2 1z"/>
</svg>
