<svg width="27" height="31" viewBox="0 0 27 31" fill="none" xmlns="http://www.w3.org/2000/svg">
<path d="M10.8411 28.0208H16.6745C16.6745 29.625 15.362 30.9375 13.7578 30.9375C12.1536 30.9375 10.8411 29.625 10.8411 28.0208ZM26.8828 25.1042V26.5625H0.632812V25.1042L3.54948 22.1875V13.4375C3.54948 8.91667 6.46615 4.97917 10.8411 3.66667V3.22917C10.8411 1.625 12.1536 0.3125 13.7578 0.3125C15.362 0.3125 16.6745 1.625 16.6745 3.22917V3.66667C21.0495 4.97917 23.9661 8.91667 23.9661 13.4375V22.1875L26.8828 25.1042ZM21.0495 13.4375C21.0495 9.35417 17.8411 6.14583 13.7578 6.14583C9.67448 6.14583 6.46615 9.35417 6.46615 13.4375V23.6458H21.0495V13.4375Z" fill="#333333"/>
</svg>
