<svg width="51" height="48" viewBox="0 0 51 48" fill="none" xmlns="http://www.w3.org/2000/svg">
<rect x="0.647461" y="0.40625" width="50" height="47" rx="23.5" fill="white"/>
<path d="M22.7586 36.4539H28.5363C28.5363 38.0777 27.2364 39.4062 25.6475 39.4062C24.0586 39.4062 22.7586 38.0777 22.7586 36.4539ZM38.6475 33.5015V34.9777H12.6475V33.5015L15.5363 30.5491V21.692C15.5363 17.1158 18.4252 13.1301 22.7586 11.8015V11.3586C22.7586 9.73482 24.0586 8.40625 25.6475 8.40625C27.2364 8.40625 28.5363 9.73482 28.5363 11.3586V11.8015C32.8697 13.1301 35.7586 17.1158 35.7586 21.692V30.5491L38.6475 33.5015ZM32.8697 21.692C32.8697 17.5586 29.6919 14.311 25.6475 14.311C21.603 14.311 18.4252 17.5586 18.4252 21.692V32.0253H32.8697V21.692Z" fill="#00b14f"/>
</svg>
