<svg xmlns="http://www.w3.org/2000/svg" width="10" height="10" xmlns:xlink="http://www.w3.org/1999/xlink" version="1.1" x="0px" y="0px" viewBox="0 0 128 160" style="enable-background:new 0 0 128 128;" xml:space="preserve"><path d="M106.3383942,81.203598l0.1924057,0.1172028l-6.6074982,10.6000977  c1.6313934,4.2031021,1.3920975,8.8613052-0.7425995,12.9995041c-1.7807999,3.4506989-4.8051987,6.9779968-8.990303,10.4859009  c-0.7646027,0.6751938-6.6366959,5.6707993-15.9398956,8.3456955C73.6791992,123.9164963,73.0942001,124,72.5131989,124  c-2.0615005,0-3.9286957-1.0727997-4.8721008-2.7993011c-0.9603958-1.7573013-0.8368988-3.8916016,0.3296051-5.7089996  c0.3925934-0.6138,0.9882965-1.4125977,1.4667969-2.0541992c0.2012024-0.2695007,0.3730011-0.4965973,0.4614029-0.6255035  c3.0834961-4.7142944,4.2490005-9.9047928,5.4833984-15.3993988c1.1294022-5.0263977,3.1459961-8.7440948,5.9946976-11.0503006  c1.4653015-1.1865005,3.2114029-1.9389954,5.118103-2.2266006l4.6064987-10.9725952l0.0531998-0.1860046  c0.1483994-0.5185928,1.8662033-6.3731003,5.7993011-15.213398c-3.8130035-2.2851982-8.160202-4.1537971-13.1562042-5.4731979  C78.1996994,57.0903015,70.9355011,60,63.0004997,60c-8.0806007,0-15.4653015-3.0166016-21.1035004-7.9751015  C4.3447299,61.3061981,2.76367,100.5317001,4.41504,128h117.2285614c1.0394974-17.2919998,0.3421936-39.232399-9.7437057-55.4380035  C110.2094955,75.3163986,108.3681946,78.189003,106.3383942,81.203598z"/><path d="M93.4092026,78l-4.2266006,10.0669022C88.8769989,88.0332031,88.5708008,88,88.2650986,88  c-1.5712967,0-3.1166992,0.4555969-4.3711014,1.471199c-2.5921936,2.0986023-3.9150009,5.7294998-4.6087952,8.8179016  c-1.3370056,5.9521027-2.6231003,11.4901962-6.0551987,16.7372971c-0.2373047,0.3628006-1.3760071,1.8178024-1.8931046,2.6259003  C70.5166016,118.9307022,71.3041992,120,72.5131989,120c0.2006989,0,0.4136047-0.0292969,0.6317978-0.0923004  c8.9956055-2.5864029,14.4312057-7.5298004,14.4312057-7.5298004c3.044899-2.546402,6.2435989-5.7914963,8.0493011-9.2910004  c1.7514954-3.3955002,1.8617935-7.2811966,0.141098-10.7318954c-0.1176987-0.235405-0.2617035-0.4556046-0.4067001-0.6753006  L101,82.6317978L93.4092026,78z"/><path d="M63.0004997,56c15.463398,0,28.0000038-12.5351982,28.0000038-27.9995003C91.0005035,12.5361004,78.4638977,0,63.0004997,0  c-15.4628983,0-28,12.5361004-28,28.0004997C35.0004997,43.4648018,47.5376015,56,63.0004997,56z"/><path d="M103,79c20.5-30.4379997,22.375-46.8368988,24.8817978-58.7397003C128.2445984,18.8003006,127.7255936,18,126.9673004,18  c-0.4502029,0-0.985405,0.2826996-1.4697037,0.8773994C102.8485947,46.6996994,95,74.0791016,95,74.0791016L103,79z"/></svg>