<svg width="65" height="64" viewBox="0 0 65 64" fill="none" xmlns="http://www.w3.org/2000/svg">
<path d="M26.224 26.6667C27.4496 26.6667 28.6633 26.4253 29.7957 25.9562C30.928 25.4872 31.9569 24.7997 32.8236 23.933C33.6903 23.0663 34.3778 22.0374 34.8468 20.905C35.3159 19.7727 35.5573 18.559 35.5573 17.3333C35.5573 16.1077 35.3159 14.894 34.8468 13.7616C34.3778 12.6292 33.6903 11.6004 32.8236 10.7337C31.9569 9.86699 30.928 9.1795 29.7957 8.71046C28.6633 8.24141 27.4496 8 26.224 8C23.7486 8 21.3746 8.98333 19.6243 10.7337C17.874 12.484 16.8906 14.858 16.8906 17.3333C16.8906 19.8087 17.874 22.1827 19.6243 23.933C21.3746 25.6833 23.7486 26.6667 26.224 26.6667Z" fill="white" stroke="white" stroke-width="4" stroke-linejoin="round"/>
<path d="M36.8906 37.333H25.9573C19.984 37.333 16.9973 37.333 14.7146 38.4957C12.7077 39.5183 11.0759 41.15 10.0533 43.157C8.89063 45.4397 8.89062 48.4263 8.89062 54.3997V55.9997H36.8906M54.224 54.6663L49.9946 50.4383" stroke="white" stroke-width="4" stroke-linecap="round" stroke-linejoin="round"/>
<path d="M51.5573 46.6668C51.5581 47.3672 51.4204 48.0609 51.1523 48.708C50.8841 49.3551 50.4907 49.9429 49.9946 50.4374C49.122 51.3098 47.9739 51.8526 46.7459 51.9734C45.5179 52.0941 44.286 51.7853 43.2602 51.0996C42.2343 50.4139 41.478 49.3938 41.12 48.2129C40.762 47.0321 40.8246 45.7636 41.297 44.6237C41.7694 43.4838 42.6224 42.543 43.7107 41.9616C44.7991 41.3801 46.0553 41.194 47.2655 41.435C48.4756 41.6759 49.5648 42.329 50.3474 43.283C51.13 44.237 51.5576 45.4328 51.5573 46.6668Z" fill="white" stroke="white" stroke-width="4" stroke-linecap="round" stroke-linejoin="round"/>
</svg>
