<svg width="43" height="43" viewBox="0 0 43 43" fill="none" xmlns="http://www.w3.org/2000/svg">
<circle cx="21.7827" cy="21.5" r="21" fill="#00b14f"/>
<path d="M26.4228 31.5H17.1428C16.132 31.4633 15.1904 30.977 14.5752 30.1742C13.9599 29.3713 13.7354 28.3356 13.9628 27.35L14.2028 26.21C14.4788 24.6668 15.8054 23.5327 17.3728 23.5H26.1928C27.7602 23.5327 29.0868 24.6668 29.3628 26.21L29.6028 27.35C29.8302 28.3356 29.6057 29.3713 28.9905 30.1742C28.3752 30.977 27.4336 31.4633 26.4228 31.5Z" fill="white"/>
<path d="M22.2828 21.5H21.2828C19.0737 21.5 17.2828 19.7092 17.2828 17.5V14.86C17.2801 13.9681 17.6333 13.1119 18.264 12.4812C18.8947 11.8505 19.7509 11.4973 20.6428 11.5H22.9228C23.8148 11.4973 24.6709 11.8505 25.3016 12.4812C25.9323 13.1119 26.2855 13.9681 26.2828 14.86V17.5C26.2828 18.5609 25.8614 19.5783 25.1112 20.3284C24.3611 21.0786 23.3437 21.5 22.2828 21.5Z" fill="white"/>
</svg>
