<svg width="21" height="21" viewBox="0 0 21 21" fill="none" xmlns="http://www.w3.org/2000/svg">
<path fill-rule="evenodd" clip-rule="evenodd" d="M7.82031 2C7.24015 2 6.68375 2.23047 6.27352 2.6407C5.86328 3.05094 5.63281 3.60734 5.63281 4.1875V5.75H4.07031C3.40727 5.75 2.77139 6.01339 2.30255 6.48223C1.8337 6.95107 1.57031 7.58696 1.57031 8.25V17C1.57031 17.663 1.8337 18.2989 2.30255 18.7678C2.77139 19.2366 3.40727 19.5 4.07031 19.5H16.5703C17.2334 19.5 17.8692 19.2366 18.3381 18.7678C18.8069 18.2989 19.0703 17.663 19.0703 17V8.25C19.0703 7.58696 18.8069 6.95107 18.3381 6.48223C17.8692 6.01339 17.2334 5.75 16.5703 5.75H15.0078V4.1875C15.0078 3.60734 14.7773 3.05094 14.3671 2.6407C13.9569 2.23047 13.4005 2 12.8203 2H7.82031ZM13.1328 5.75V4.1875C13.1328 4.10462 13.0999 4.02513 13.0413 3.96653C12.9827 3.90792 12.9032 3.875 12.8203 3.875H7.82031C7.73743 3.875 7.65795 3.90792 7.59934 3.96653C7.54074 4.02513 7.50781 4.10462 7.50781 4.1875V5.75H13.1328ZM4.07031 7.625H16.5703C16.7361 7.625 16.895 7.69085 17.0123 7.80806C17.1295 7.92527 17.1953 8.08424 17.1953 8.25V9.5H3.44531V8.25C3.44531 8.08424 3.51116 7.92527 3.62837 7.80806C3.74558 7.69085 3.90455 7.625 4.07031 7.625ZM3.44531 11.375V17C3.44531 17.1658 3.51116 17.3247 3.62837 17.4419C3.74558 17.5592 3.90455 17.625 4.07031 17.625H16.5703C16.7361 17.625 16.895 17.5592 17.0123 17.4419C17.1295 17.3247 17.1953 17.1658 17.1953 17V11.375H11.5703V13.25H9.07031V11.375H3.44531Z" fill="#4F4F4F"/>
</svg>
