<svg width="33" height="32" viewBox="0 0 33 32" fill="none" xmlns="http://www.w3.org/2000/svg">
<path d="M6.07422 29.3335V10.6668H10.0742V8.00016C10.0742 6.15572 10.7244 4.58372 12.0249 3.28416C13.3253 1.98461 14.8973 1.33439 16.7409 1.3335C18.5844 1.33261 20.1569 1.98283 21.4582 3.28416C22.7596 4.5855 23.4093 6.1575 23.4076 8.00016V10.6668H27.4076V29.3335H6.07422ZM16.7409 22.6668C17.4742 22.6668 18.1022 22.4059 18.6249 21.8842C19.1476 21.3624 19.4084 20.7344 19.4076 20.0002C19.4067 19.2659 19.1458 18.6384 18.6249 18.1175C18.104 17.5966 17.476 17.3353 16.7409 17.3335C16.0058 17.3317 15.3782 17.5931 14.8582 18.1175C14.3382 18.6419 14.0769 19.2695 14.0742 20.0002C14.0716 20.7308 14.3329 21.3588 14.8582 21.8842C15.3836 22.4095 16.0111 22.6704 16.7409 22.6668ZM12.7409 10.6668H20.7409V8.00016C20.7409 6.88905 20.352 5.94461 19.5742 5.16683C18.7964 4.38905 17.852 4.00016 16.7409 4.00016C15.6298 4.00016 14.6853 4.38905 13.9076 5.16683C13.1298 5.94461 12.7409 6.88905 12.7409 8.00016V10.6668Z" fill="#A5ABC7"/>
</svg>
