<svg width="69" height="89" viewBox="0 0 69 89" fill="none" xmlns="http://www.w3.org/2000/svg">
<path d="M17.2195 56.9703C16.5698 56.9703 15.9466 56.7122 15.4871 56.2527C15.0277 55.7933 14.7695 55.1701 14.7695 54.5203C14.7695 53.8705 15.0277 53.2474 15.4871 52.7879C15.9466 52.3284 16.5698 52.0703 17.2195 52.0703H51.5195C52.1693 52.0703 52.7925 52.3284 53.2519 52.7879C53.7114 53.2474 53.9695 53.8705 53.9695 54.5203C53.9695 55.1701 53.7114 55.7933 53.2519 56.2527C52.7925 56.7122 52.1693 56.9703 51.5195 56.9703H17.2195ZM17.2195 69.2203C16.5698 69.2203 15.9466 68.9622 15.4871 68.5027C15.0277 68.0433 14.7695 67.4201 14.7695 66.7703C14.7695 66.1205 15.0277 65.4974 15.4871 65.0379C15.9466 64.5784 16.5698 64.3203 17.2195 64.3203H51.5195C52.1693 64.3203 52.7925 64.5784 53.2519 65.0379C53.7114 65.4974 53.9695 66.1205 53.9695 66.7703C53.9695 67.4201 53.7114 68.0433 53.2519 68.5027C52.7925 68.9622 52.1693 69.2203 51.5195 69.2203H17.2195Z" fill="#00b14f"/>
<path fill-rule="evenodd" clip-rule="evenodd" d="M40.1768 0.621094H7.42031C5.47097 0.621094 3.60147 1.39547 2.22308 2.77386C0.844686 4.15225 0.0703125 6.02175 0.0703125 7.97109V81.4711C0.0703125 83.4204 0.844686 85.2899 2.22308 86.6683C3.60147 88.0467 5.47097 88.8211 7.42031 88.8211H61.3203C63.2697 88.8211 65.1392 88.0467 66.5175 86.6683C67.8959 85.2899 68.6703 83.4204 68.6703 81.4711V31.0109C68.6698 29.1708 67.9792 27.3978 66.7348 26.0423L45.5962 3.00249C44.9073 2.25155 44.0698 1.65206 43.1369 1.24209C42.2039 0.832131 41.1959 0.620655 40.1768 0.621094ZM4.97031 7.97109C4.97031 7.32131 5.22844 6.69815 5.6879 6.23868C6.14737 5.77922 6.77053 5.52109 7.42031 5.52109H40.1768C40.5168 5.52072 40.8531 5.5911 41.1644 5.72776C41.4757 5.86443 41.7551 6.06437 41.9849 6.31489L63.1235 29.3547C63.5389 29.8063 63.7697 30.3973 63.7703 31.0109V81.4711C63.7703 82.1209 63.5122 82.744 63.0527 83.2035C62.5933 83.663 61.9701 83.9211 61.3203 83.9211H7.42031C6.77053 83.9211 6.14737 83.663 5.6879 83.2035C5.22844 82.744 4.97031 82.1209 4.97031 81.4711V7.97109Z" fill="#00b14f"/>
<path d="M41.7207 6.01172V29.0417H64.7507" stroke="#00b14f" stroke-linecap="round" stroke-linejoin="round"/>
<path d="M25.2265 25.7725C25.9262 25.7939 26.6231 25.6746 27.2759 25.4216C27.9286 25.1687 28.5239 24.7872 29.0264 24.2998C29.529 23.8124 29.9285 23.2291 30.2014 22.5844C30.4742 21.9397 30.6148 21.2467 30.6148 20.5467C30.6148 19.8466 30.4742 19.1537 30.2014 18.509C29.9285 17.8643 29.529 17.2809 29.0264 16.7935C28.5239 16.3062 27.9286 15.9247 27.2759 15.6717C26.6231 15.4187 25.9262 15.2994 25.2265 15.3208C23.8682 15.3624 22.5795 15.9312 21.6334 16.9067C20.6873 17.8822 20.1582 19.1877 20.1582 20.5467C20.1582 21.9056 20.6873 23.2111 21.6334 24.1866C22.5795 25.1621 23.8682 25.7309 25.2265 25.7725Z" fill="#00b14f"/>
<path fill-rule="evenodd" clip-rule="evenodd" d="M35.6729 37.0971C35.6729 31.5405 30.9934 27.5176 25.2212 27.5176C19.449 27.5176 14.7695 31.5356 14.7695 37.0971V39.7137C14.7708 40.1755 14.9552 40.6179 15.2822 40.944C15.6092 41.2701 16.0521 41.4532 16.5139 41.4532H33.9334C34.3944 41.4519 34.8361 41.2682 35.162 40.9423C35.488 40.6163 35.6716 40.1746 35.6729 39.7137V37.0971Z" fill="#00b14f"/>
</svg>
