<svg width="17" height="17" viewBox="0 0 17 17" fill="none" xmlns="http://www.w3.org/2000/svg">
<path fill-rule="evenodd" clip-rule="evenodd" d="M13.7699 11.295L13.9299 12.055C14.0815 12.712 13.9318 13.4025 13.5216 13.9377C13.1115 14.473 12.4838 14.7971 11.8099 14.8216H5.6232C4.94932 14.7971 4.32158 14.473 3.91143 13.9377C3.50128 13.4025 3.35158 12.712 3.5032 12.055L3.6632 11.295C3.84722 10.2662 4.73162 9.51009 5.77653 9.4883H11.6565C12.7015 9.51009 13.5858 10.2662 13.7699 11.295ZM11.8099 13.815C12.1484 13.811 12.467 13.6542 12.6765 13.3883V13.395C12.9337 13.0724 13.0338 12.6522 12.9499 12.2483L12.7899 11.4883C12.7011 10.9251 12.2263 10.5033 11.6565 10.4816H5.77654C5.20678 10.5033 4.73198 10.9251 4.6432 11.4883L4.4832 12.2483C4.40131 12.65 4.50138 13.0674 4.75654 13.3883C4.96609 13.6542 5.28468 13.811 5.6232 13.815H11.8099Z" fill="#2D3E5D"/>
<path fill-rule="evenodd" clip-rule="evenodd" d="M9.04986 8.15496H8.38319C6.91043 8.15496 5.71652 6.96105 5.71652 5.48829V3.72829C5.71475 3.13366 5.95018 2.56288 6.37064 2.14241C6.79111 1.72194 7.3619 1.48651 7.95652 1.48829H9.47652C10.0712 1.48651 10.6419 1.72194 11.0624 2.14241C11.4829 2.56288 11.7183 3.13366 11.7165 3.72829V5.48829C11.7165 6.96105 10.5226 8.15496 9.04986 8.15496ZM7.95652 2.48829C7.27169 2.48829 6.71652 3.04346 6.71652 3.72829V5.48829C6.71652 6.40877 7.46272 7.15496 8.38319 7.15496H9.04986C9.97033 7.15496 10.7165 6.40877 10.7165 5.48829V3.72829C10.7165 3.39942 10.5859 3.08402 10.3533 2.85148C10.1208 2.61893 9.80539 2.48829 9.47652 2.48829H7.95652Z" fill="#2D3E5D"/>
</svg>
