<svg width="15" height="14" viewBox="0 0 15 14" fill="none" xmlns="http://www.w3.org/2000/svg">
<path d="M7.57959 0.875C6.30368 0.876447 5.08044 1.38394 4.17824 2.28615C3.27603 3.18835 2.76854 4.41159 2.76709 5.6875C2.76709 9.80547 7.14209 12.9155 7.32857 13.0457C7.40214 13.0972 7.48977 13.1249 7.57959 13.1249C7.6694 13.1249 7.75704 13.0972 7.83061 13.0457C8.01709 12.9155 12.3921 9.80547 12.3921 5.6875C12.3906 4.41159 11.8831 3.18835 10.9809 2.28615C10.0787 1.38394 8.8555 0.876447 7.57959 0.875ZM7.57959 3.9375C7.92571 3.9375 8.26405 4.04014 8.55184 4.23243C8.83962 4.42472 9.06393 4.69803 9.19638 5.0178C9.32883 5.33757 9.36349 5.68944 9.29596 6.02891C9.22844 6.36837 9.06177 6.68019 8.81703 6.92494C8.57228 7.16968 8.26046 7.33635 7.921 7.40387C7.58153 7.4714 7.22966 7.43674 6.90989 7.30429C6.59012 7.17184 6.31681 6.94753 6.12452 6.65975C5.93223 6.37196 5.82959 6.03362 5.82959 5.6875C5.82959 5.22337 6.01396 4.77825 6.34215 4.45006C6.67034 4.12187 7.11546 3.9375 7.57959 3.9375Z" fill="#7F878F"/>
</svg>
