<svg width="24" height="25" viewBox="0 0 24 25" fill="none" xmlns="http://www.w3.org/2000/svg">
<rect y="0.5" width="24" height="24" rx="12" fill="white" fill-opacity="0.39"/>
<path d="M18.6463 16.7197C18.6463 16.9597 18.593 17.2063 18.4797 17.4463C18.3663 17.6863 18.2197 17.913 18.0263 18.1263C17.6997 18.4863 17.3397 18.7463 16.933 18.913C16.533 19.0797 16.0997 19.1663 15.633 19.1663C14.953 19.1663 14.2263 19.0063 13.4597 18.6797C12.693 18.353 11.9263 17.913 11.1663 17.3597C10.3997 16.7997 9.67301 16.1797 8.97967 15.493C8.29301 14.7997 7.67301 14.073 7.11967 13.313C6.57301 12.553 6.13301 11.793 5.81301 11.0397C5.49301 10.2797 5.33301 9.55301 5.33301 8.85967C5.33301 8.40634 5.41301 7.97301 5.57301 7.57301C5.73301 7.16634 5.98634 6.79301 6.33967 6.45967C6.76634 6.03967 7.23301 5.83301 7.72634 5.83301C7.91301 5.83301 8.09967 5.87301 8.26634 5.95301C8.43967 6.03301 8.59301 6.15301 8.71301 6.32634L10.2597 8.50634C10.3797 8.67301 10.4663 8.82634 10.5263 8.97301C10.5863 9.11301 10.6197 9.25301 10.6197 9.37967C10.6197 9.53967 10.573 9.69967 10.4797 9.85301C10.393 10.0063 10.2663 10.1663 10.1063 10.3263L9.59967 10.853C9.52634 10.9263 9.49301 11.013 9.49301 11.1197C9.49301 11.173 9.49967 11.2197 9.51301 11.273C9.53301 11.3263 9.55301 11.3663 9.56634 11.4063C9.68634 11.6263 9.89301 11.913 10.1863 12.2597C10.4863 12.6063 10.8063 12.9597 11.153 13.313C11.513 13.6663 11.8597 13.993 12.213 14.293C12.5597 14.5863 12.8463 14.7863 13.073 14.9063C13.1063 14.9197 13.1463 14.9397 13.193 14.9597C13.2463 14.9797 13.2997 14.9863 13.3597 14.9863C13.473 14.9863 13.5597 14.9463 13.633 14.873L14.1397 14.373C14.3063 14.2063 14.4663 14.0797 14.6197 13.9997C14.773 13.9063 14.9263 13.8597 15.093 13.8597C15.2197 13.8597 15.353 13.8863 15.4997 13.9463C15.6463 14.0063 15.7997 14.093 15.9663 14.2063L18.173 15.773C18.3463 15.893 18.4663 16.033 18.5397 16.1997C18.6063 16.3663 18.6463 16.533 18.6463 16.7197Z" stroke="white" stroke-width="1.5" stroke-miterlimit="10"/>
<path d="M16.3333 10.4993C16.3333 10.0993 16.02 9.48602 15.5533 8.98602C15.1267 8.52602 14.56 8.16602 14 8.16602" stroke="white" stroke-width="1.5" stroke-linecap="round" stroke-linejoin="round"/>
<path d="M18.6667 10.4997C18.6667 7.91967 16.58 5.83301 14 5.83301" stroke="white" stroke-width="1.5" stroke-linecap="round" stroke-linejoin="round"/>
</svg>
