<?xml version="1.0" encoding="UTF-8"?>
<svg version="1.1" viewBox="0 0 1267 1280" width="1280" height="1280" xmlns="http://www.w3.org/2000/svg">
<path transform="translate(619)" d="m0 0h28l17 2 18 4 17 6 17 9 13 10 16 16 11 15 8 14 8 18 5 18 3 16 2 27v337h346l24 3 23 6 16 7 15 8 13 10 13 12 10 12 8 13 7 15 5 15 4 21 1 11v29l-2 18-5 21-6 16-7 14-10 14-12 13-13 11-13 8-16 8-18 6-19 4-17 2h-347v336l-2 27-3 17-6 20-7 16-9 16-8 10-9 10-8 8-11 8-14 8-11 5-15 5-21 4-11 1h-28l-17-2-18-4-15-5-21-11-14-11-14-14-11-16-10-19-8-24-4-21-2-28v-336h-346l-21-3-19-5-16-6-15-8-14-10-12-11-8-8-11-15-10-18-7-19-5-23-1-11v-27l2-18 5-21 6-16 8-15 9-12 11-12 15-12 15-9 16-7 15-5 19-4 18-2h346v-337l2-27 5-25 7-20 11-21 9-12 12-14 11-9 10-7 17-9 18-6 21-4z" fill="#007F00"/>
</svg>
