<svg width="60" height="60" viewBox="0 0 60 60" fill="none" xmlns="http://www.w3.org/2000/svg">
<path fill-rule="evenodd" clip-rule="evenodd" d="M44.268 15.732C44.7367 16.2008 45 16.8366 45 17.4995C45 18.1624 44.7367 18.7981 44.268 19.267L33.5355 29.9995L44.268 40.732C44.5068 40.9626 44.6973 41.2384 44.8283 41.5435C44.9593 41.8485 45.0283 42.1765 45.0312 42.5085C45.034 42.8404 44.9708 43.1696 44.8451 43.4768C44.7194 43.7841 44.5337 44.0632 44.299 44.298C44.0643 44.5327 43.7852 44.7183 43.4779 44.844C43.1707 44.9697 42.8415 45.033 42.5095 45.0301C42.1776 45.0272 41.8495 44.9582 41.5445 44.8272C41.2395 44.6962 40.9636 44.5057 40.733 44.267L28.233 31.767C27.7644 31.2981 27.5011 30.6624 27.5011 29.9995C27.5011 29.3366 27.7644 28.7008 28.233 28.232L40.733 15.732C41.2018 15.2633 41.8376 15 42.5005 15C43.1634 15 43.7992 15.2633 44.268 15.732ZM29.268 15.732C29.7367 16.2008 30 16.8366 30 17.4995C30 18.1624 29.7367 18.7981 29.268 19.267L18.5355 29.9995L29.268 40.732C29.7234 41.2035 29.9754 41.835 29.9697 42.4905C29.964 43.146 29.7011 43.773 29.2376 44.2365C28.7741 44.7 28.147 44.963 27.4915 44.9687C26.836 44.9743 26.2045 44.7224 25.733 44.267L13.233 31.767C12.7644 31.2981 12.5011 30.6624 12.5011 29.9995C12.5011 29.3366 12.7644 28.7008 13.233 28.232L25.733 15.732C26.2018 15.2633 26.8376 15 27.5005 15C28.1634 15 28.7992 15.2633 29.268 15.732Z" fill="#EE1C51"/>
</svg>
