<?xml version="1.0" encoding="UTF-8"?>
<svg version="1.1" viewBox="0 0 2048 2048" width="25" height="25" xmlns="http://www.w3.org/2000/svg">
<path transform="translate(98)" d="m0 0h1501l3 2 21 7 16 8 11 8 10 8v2h2l9 11 9 13 8 16 5 15 2 10 1 10 1 37v62l-1 351-3 11-4 7-6 7-11 7-11 3h-11l-10-3-10-6-7-8-5-9-2-9-1-9-1-436-4-13-6-9-8-6-9-4-13-2h-1452l-14 2-10 5-7 6-6 10-3 12-1 15v1793l2 14 4 10 6 8 9 6 9 3 5 1h1464l12-3 9-6 8-9 4-11 1-6 1-297 3-15 6-11 10-9 8-4 8-2h12l10 3 11 7 8 10 4 10 1 5 1 43v94l-1 172-2 16-6 20-8 16-10 14-9 10-7 7-14 10-16 8-16 6-14 4h-1492l-23-7-16-7-14-9-11-9-9-9-11-15-10-19-6-20v-3l-2-1v-1850h2l1-8 5-16 8-16 7-11 13-15 13-11 15-9 16-7 17-5z" fill="#020202"/>
<path transform="translate(1862,499)" d="m0 0h37l17 3 19 5 20 9 13 7 17 12 10 9 13 13 8 10 14 23 6 14 7 20 3 14 2 1v55l-2 2-5 20-6 16-12 25-12 21-15 26-14 24-9 15-6 11-45 78-9 15-6 11-30 52-11 19-14 24-16 28-15 26-12 21-13 22-13 23-14 24-16 28-10 17-45 78-9 15-6 11-30 52-11 19-14 24-16 28-15 26-12 21-13 22-13 23-14 24-16 28-8 12-9 10-13 10-18 13-16 12-18 13-13 10-18 13-38 28-12 9-11 8-38 28-11 8-19 14-16 12-19 13-11 5-5 1h-12l-13-4-9-7-7-9-4-9-1-4v-16l31-279 4-33 5-16 11-20 28-48 16-28 14-24 16-28 14-24 12-21 15-26 28-48 16-28 30-52 14-24 16-28 15-26 14-24 16-28 15-26 14-24 15-26 12-21 30-52 10-17 16-28 14-24 16-28 10-17 16-28 14-24 16-28 14-24 16-28 13-18 7-9 4-5 8-7 9-9 10-7 18-11 8-4 21-8 18-4zm12 80-18 3-15 6-13 8-10 9-8 9-11 17-13 23-15 26-6 9v2l29 17 26 15 28 16 24 14 26 15 15 9 4 1 14-24 15-26 10-17 7-16 4-18v-20l-4-18-7-16-7-11-7-8-10-8-13-8-12-5-13-3-8-1zm-150 182-13 23-14 24-9 15-6 11-30 52-11 19-14 24-16 28-15 26-12 21-13 22-13 23-14 24-16 28-10 17-30 52-11 19-14 24-16 28-15 26-12 21-13 22-13 23-14 24-16 28-10 17-15 26-12 21-5 8 1 4 24 14 26 15 24 14 28 16 26 15 21 12 3-3 12-21 14-24 16-28 15-26 10-17 16-28 14-24 16-28 14-24 16-28 11-19 15-26 14-24 16-28 14-24 16-28 14-24 16-28 14-24 11-19 14-24 16-28 15-26 11-19 14-24 13-23 14-24 13-23 7-12-10-7-28-16-78-45-24-14-10-6zm-425 780-4 33-6 54-8 71v4l5-2 19-14 20-15 18-13 16-12 38-28 15-11v-3l-18-10-24-14-52-30-15-9z"/>
<path transform="translate(842,215)" d="m0 0 33 1 27 3 31 6 29 8 29 11 24 11 18 10 21 13 19 14 13 11 10 8v2l4 2 18 18v2h2l7 8 13 16 14 19 12 20 9 16 11 22 10 26 8 26 6 26 5 33 1 16v41l-2 25-5 30-7 28-8 24-8 20-12 25-10 18-10 15-11 16-14 17-7 8-14 15-12 12-11 9-13 11-23 16-15 9-22 12-26 12-36 12-24 6-23 4-23 3-16 1h-33l-27-2-31-5-28-7-35-12-28-13-24-13-21-14-11-8-16-13-10-9-8-7-16-17-11-12-20-26-12-19-9-15-13-26-12-31-7-23-6-26-5-32-2-31v-14l2-32 5-32 6-25 5-17 9-25 8-18 8-16 10-18 12-19 13-17 7-9 9-10 7-8 11-12 8-7 10-9 14-11 20-15 25-15 23-12 18-8 28-10 30-8 27-5 14-2zm-17 82-26 3-26 6-20 6-20 8-21 10-20 12-14 10-14 11-14 13-8 7-9 10-11 13-14 19-14 24-12 25-9 25-6 23-4 22-2 21v32l3 32 7 31 6 20 15 35 10 17 13 20h3l11-14 13-16 20-20 2-1v-2l4-2 13-10 20-14 25-13 6-4-1-4-11-19-7-15-6-22-2-12-1-12v-31l3-28 8-26 8-16 8-13 11-13 7-8 14-11 10-7 19-10 26-8 27-3 16 1 21 3 23 8 21 11 9 7 13 11 7 7 11 14 8 13 8 17 7 24 2 18v48l-2 16-6 22-11 23-9 13v2l26 14 16 10 19 14 10 9h2l1 3 8 7 12 12 22 28 5-5 11-18 9-15 13-30 6-18 8-32 3-29 1-13v-25l-2-22-4-24-7-25-9-25-12-25-13-22-13-18-11-13-16-17-14-13-13-10-17-12-24-14-24-11-22-8-28-7-26-4-11-1zm12 182-13 4-12 6-12 11-7 10-5 11-3 14-1 11v21l3 19 5 12 6 9 8 9 14 9 10 4 9 2h17l12-3 9-4 10-6 9-8 7-10 5-11 3-14v-40l-3-14-8-16-9-10-9-7-12-6-11-3zm-7 234-22 3-23 6-20 8-21 11-16 11-14 12-10 9-9 11-7 8-11 17-1 5 15 10 19 12 14 7 28 12 25 7 20 5 22 3 11 1h36l26-3 22-5 27-7 30-13 16-8 16-10 11-7 6-4-1-5-12-18-11-13-9-10-8-7-11-9-18-12-23-12-27-9-24-5-11-1z"/>
<path transform="translate(499,1079)" d="m0 0h560l16 2 9 4 9 7 6 8 4 9 1 5v13l-4 11-7 10-9 7-11 4-7 1h-574l-12-3-10-6-7-8-6-12-1-4v-14l4-12 7-9 7-6 11-5z" fill="#020202"/>
<path transform="translate(499,1303)" d="m0 0h559l17 2 9 4 9 7 6 8 4 9 1 5v12l-3 10-7 11-7 6-10 5-11 2h-574l-12-3-10-6-7-8-6-12-1-4v-14l4-12 7-9 7-6 11-5z" fill="#020202"/>
<path transform="translate(499,1527)" d="m0 0h557l19 2 9 4 9 7 6 8 4 9 1 5v12l-3 10-7 11-7 6-10 5-11 2h-574l-12-3-10-6-7-8-6-12-1-4v-14l4-12 7-9 7-6 11-5z" fill="#020202"/>
<path transform="translate(851,1751)" d="m0 0h205l19 2 9 4 9 7 6 8 4 10 1 4v12l-3 10-7 11-7 6-8 4-14 3h-221l-12-3-10-6-7-8-6-12-1-4v-14l4-12 7-9 7-6 11-5z" fill="#020202"/>
<path transform="translate(318,1080)" d="m0 0h14l12 4 9 7 6 7 4 8 2 7v14l-4 11-6 9-8 7-12 5-14 1-12-3-10-6-7-8-6-12-1-4v-13l3-10 6-10 9-8 10-5z"/>
<path transform="translate(319,1304)" d="m0 0h13l12 4 9 7 6 7 4 8 2 7v14l-4 11-6 9-8 7-12 5-14 1-12-3-10-6-7-8-6-12-1-4v-13l3-10 6-10 9-8 10-5z"/>
<path transform="translate(319,1528)" d="m0 0h13l12 4 9 7 6 7 4 8 2 7v14l-4 11-6 9-7 6-10 5-10 2-13-1-10-4-9-7-6-8-5-13v-13l3-10 6-10 9-8 10-5z"/>
<path transform="translate(95,2047)" d="m0 0h5v1h-5z"/>
<path transform="translate(1601)" d="m0 0 2 1z"/>
<path transform="translate(95)" d="m0 0"/>
</svg>
