<svg width="60" height="60" viewBox="0 0 60 60" fill="none" xmlns="http://www.w3.org/2000/svg">
<path fill-rule="evenodd" clip-rule="evenodd" d="M15.732 44.268C15.2633 43.7992 15 43.1634 15 42.5005C15 41.8376 15.2633 41.2019 15.732 40.733L26.4645 30.0005L15.732 19.268C15.4932 19.0374 15.3027 18.7616 15.1717 18.4565C15.0407 18.1515 14.9717 17.8235 14.9688 17.4915C14.966 17.1596 15.0292 16.8304 15.1549 16.5232C15.2806 16.2159 15.4662 15.9368 15.701 15.702C15.9357 15.4673 16.2148 15.2817 16.5221 15.156C16.8293 15.0303 17.1585 14.967 17.4905 14.9699C17.8224 14.9728 18.1505 15.0418 18.4555 15.1728C18.7605 15.3038 19.0364 15.4943 19.267 15.733L31.767 28.233C32.2356 28.7019 32.4989 29.3376 32.4989 30.0005C32.4989 30.6634 32.2356 31.2992 31.767 31.768L19.267 44.268C18.7982 44.7367 18.1624 45 17.4995 45C16.8366 45 16.2008 44.7367 15.732 44.268ZM30.732 44.268C30.2633 43.7992 30 43.1634 30 42.5005C30 41.8376 30.2633 41.2019 30.732 40.733L41.4645 30.0005L30.732 19.268C30.2766 18.7965 30.0246 18.165 30.0303 17.5095C30.036 16.854 30.2989 16.227 30.7624 15.7635C31.2259 15.3 31.853 15.037 32.5085 15.0313C33.164 15.0257 33.7955 15.2776 34.267 15.733L46.767 28.233C47.2356 28.7019 47.4989 29.3376 47.4989 30.0005C47.4989 30.6634 47.2356 31.2992 46.767 31.768L34.267 44.268C33.7982 44.7367 33.1624 45 32.4995 45C31.8366 45 31.2008 44.7367 30.732 44.268Z" fill="#EE1C51"/>
</svg>
