<svg width="19" height="24" viewBox="0 0 19 24" fill="none" xmlns="http://www.w3.org/2000/svg">
<path d="M17.377 3.78571H12.877V2.55357C12.877 2.00893 12.6794 1.4866 12.3278 1.10148C11.9761 0.716358 11.4992 0.5 11.002 0.5H7.25195C6.75467 0.5 6.27776 0.716358 5.92613 1.10148C5.5745 1.4866 5.37695 2.00893 5.37695 2.55357V3.78571H0.876953C0.678041 3.78571 0.487275 3.87226 0.346623 4.02631C0.205971 4.18035 0.126953 4.38929 0.126953 4.60714C0.126953 4.825 0.205971 5.03393 0.346623 5.18798C0.487275 5.34203 0.678041 5.42857 0.876953 5.42857H1.67383L2.56445 21.0829C2.63102 22.4614 3.5957 23.5 4.81445 23.5H13.4395C14.6643 23.5 15.6098 22.4845 15.6895 21.0871L16.5801 5.42857H17.377C17.5759 5.42857 17.7666 5.34203 17.9073 5.18798C18.0479 5.03393 18.127 4.825 18.127 4.60714C18.127 4.38929 18.0479 4.18035 17.9073 4.02631C17.7666 3.87226 17.5759 3.78571 17.377 3.78571ZM6.15367 20.2143H6.12695C5.93258 20.2144 5.74576 20.1319 5.60585 19.9841C5.46594 19.8364 5.38388 19.6349 5.37695 19.4221L5.00195 7.92212C4.99487 7.70426 5.06709 7.49225 5.20273 7.33271C5.33837 7.17318 5.52632 7.07919 5.72523 7.07143C5.92415 7.06367 6.11773 7.14277 6.26339 7.29133C6.40905 7.43989 6.49487 7.64574 6.50195 7.86359L6.87695 19.3636C6.88053 19.4715 6.86464 19.5791 6.83022 19.6802C6.79579 19.7814 6.74349 19.8741 6.67632 19.9531C6.60915 20.0322 6.52841 20.0959 6.43873 20.1407C6.34905 20.1855 6.25218 20.2105 6.15367 20.2143ZM9.87695 19.3929C9.87695 19.6107 9.79794 19.8196 9.65728 19.9737C9.51663 20.1277 9.32587 20.2143 9.12695 20.2143C8.92804 20.2143 8.73728 20.1277 8.59662 19.9737C8.45597 19.8196 8.37695 19.6107 8.37695 19.3929V7.89286C8.37695 7.675 8.45597 7.46607 8.59662 7.31202C8.73728 7.15797 8.92804 7.07143 9.12695 7.07143C9.32587 7.07143 9.51663 7.15797 9.65728 7.31202C9.79794 7.46607 9.87695 7.675 9.87695 7.89286V19.3929ZM11.377 3.78571H6.87695V2.55357C6.87639 2.49946 6.8857 2.44578 6.90435 2.39567C6.92299 2.34556 6.95059 2.30004 6.98553 2.26177C7.02046 2.22351 7.06203 2.19328 7.10778 2.17286C7.15353 2.15244 7.20255 2.14224 7.25195 2.14286H11.002C11.0514 2.14224 11.1004 2.15244 11.1461 2.17286C11.1919 2.19328 11.2334 2.22351 11.2684 2.26177C11.3033 2.30004 11.3309 2.34556 11.3496 2.39567C11.3682 2.44578 11.3775 2.49946 11.377 2.55357V3.78571ZM12.877 19.4221C12.87 19.6349 12.788 19.8364 12.6481 19.9841C12.5081 20.1319 12.3213 20.2144 12.127 20.2143H12.0998C12.0013 20.2104 11.9045 20.1854 11.8149 20.1406C11.7252 20.0957 11.6445 20.032 11.5774 19.953C11.5103 19.874 11.458 19.7813 11.4236 19.6801C11.3892 19.579 11.3734 19.4714 11.377 19.3636L11.752 7.86359C11.7555 7.75572 11.7783 7.64966 11.8193 7.55147C11.8602 7.45328 11.9184 7.36489 11.9905 7.29133C12.0626 7.21777 12.1473 7.16049 12.2396 7.12276C12.332 7.08503 12.4302 7.06759 12.5287 7.07143C12.6272 7.07527 12.724 7.10032 12.8137 7.14515C12.9033 7.18999 12.984 7.25372 13.0512 7.33271C13.1183 7.41171 13.1706 7.50442 13.2051 7.60555C13.2395 7.70668 13.2555 7.81425 13.252 7.92212L12.877 19.4221Z" fill="#FF0707"/>
</svg>
