<svg width="25" height="25" viewBox="0 0 25 25" fill="none" xmlns="http://www.w3.org/2000/svg">
<path fill-rule="evenodd" clip-rule="evenodd" d="M7.99515 16.1449L8.72515 12.7349C8.83143 12.2611 9.07082 11.8274 9.41515 11.4849L16.0852 4.87493C16.7615 4.1859 17.6799 3.78771 18.6452 3.76493C19.3732 3.7545 20.0752 4.0353 20.5952 4.54493C21.7313 5.88739 21.5847 7.89215 20.2652 9.05493L13.5952 15.7249C13.2527 16.0693 12.819 16.3087 12.3452 16.4149L8.93515 17.1449H8.74515C8.49586 17.1545 8.25776 17.0411 8.10808 16.8415C7.95839 16.6419 7.91619 16.3816 7.99515 16.1449ZM10.4752 12.5549C10.335 12.6907 10.2377 12.8645 10.1952 13.0549L9.70515 15.3849L12.0352 14.8849C12.2256 14.8424 12.3994 14.745 12.5352 14.6049L19.2052 7.93493C19.9358 7.34995 20.0808 6.29541 19.5352 5.53493C19.2962 5.30664 18.9754 5.1841 18.6452 5.19493C18.0757 5.21779 17.5376 5.46173 17.1452 5.87493L10.4752 12.5549Z" fill="#00b14f"/>
<path d="M20.1152 11.8049C19.7032 11.8103 19.3705 12.143 19.3652 12.5549V18.2449C19.3786 19.0492 19.0684 19.8252 18.5044 20.3986C17.9403 20.9721 17.1695 21.295 16.3652 21.2949H6.83516C5.17252 21.2623 3.84027 19.9079 3.83516 18.2449V8.75493C3.86245 7.09002 5.22002 5.75471 6.88516 5.75493H12.5752C12.9894 5.75493 13.3252 5.41914 13.3252 5.00493C13.3252 4.59072 12.9894 4.25493 12.5752 4.25493H6.83516C4.34166 4.25478 2.31256 6.26158 2.28516 8.75493V18.2449C2.28516 20.7578 4.32226 22.7949 6.83516 22.7949H16.3252C18.8341 22.7894 20.8652 20.7539 20.8652 18.2449V12.5549C20.8598 12.143 20.5271 11.8103 20.1152 11.8049Z" fill="#00b14f"/>
</svg>
