<svg width="25" height="25" viewBox="0 0 25 25" fill="none" xmlns="http://www.w3.org/2000/svg">
<path fill-rule="evenodd" clip-rule="evenodd" d="M5.49875 14.145H9.49875C10.7597 14.1226 11.8014 15.1241 11.8287 16.385V20.385C11.8233 21.6474 10.8012 22.6695 9.53875 22.675H5.53875C4.27782 22.6917 3.24067 21.6858 3.21875 20.425V16.425C3.21875 15.1658 4.23954 14.145 5.49875 14.145ZM9.49875 21.175C9.93506 21.175 10.2888 20.8213 10.2888 20.385V16.385C10.2888 16.1763 10.2052 15.9764 10.0568 15.8299C9.90832 15.6833 9.70735 15.6023 9.49875 15.605H5.49875C5.29188 15.605 5.09349 15.6871 4.94721 15.8334C4.80093 15.9797 4.71875 16.1781 4.71875 16.385V20.385C4.71872 20.8174 5.06636 21.1695 5.49875 21.175H9.49875Z" fill="#FF6B00"/>
<path d="M8.26875 17.655V17.085C8.26875 16.6707 7.93296 16.335 7.51875 16.335C7.10454 16.335 6.76875 16.6707 6.76875 17.085V17.655H6.20875C5.79454 17.655 5.45875 17.9907 5.45875 18.405C5.45875 18.8192 5.79454 19.155 6.20875 19.155H6.77875V19.735C6.77875 20.1492 7.11454 20.485 7.52875 20.485C7.94296 20.485 8.27875 20.1492 8.27875 19.735V19.155H8.85875C9.27296 19.155 9.60875 18.8192 9.60875 18.405C9.60875 17.9907 9.27296 17.655 8.85875 17.655H8.26875Z" fill="#FF6B00"/>
<path fill-rule="evenodd" clip-rule="evenodd" d="M13.2587 3.30496L20.2587 10.305C20.4076 10.4565 20.4872 10.6628 20.4788 10.875V17.875C20.4788 20.4983 18.3521 22.625 15.7288 22.625H12.8587C12.4445 22.625 12.1087 22.2892 12.1087 21.875C12.1087 21.4607 12.4445 21.125 12.8587 21.125H15.7288C17.5237 21.125 18.9788 19.6699 18.9788 17.875V11.625H14.7288C13.21 11.625 11.9788 10.3937 11.9788 8.87496V4.61496H9.72875C7.93221 4.62047 6.47874 6.07841 6.47875 7.87496V12.875C6.47875 13.2892 6.14296 13.625 5.72875 13.625C5.31454 13.625 4.97875 13.2892 4.97875 12.875V7.87496C4.96808 6.60827 5.46381 5.38978 6.35577 4.49032C7.24773 3.59085 8.46201 3.08492 9.72875 3.08496H12.7288C12.9276 3.08514 13.1182 3.16427 13.2587 3.30496ZM13.4788 5.64496V8.87496C13.4842 9.56141 14.0423 10.115 14.7288 10.115H17.9488L13.4788 5.64496Z" fill="#FF6B00"/>
</svg>
