<svg width="19" height="23" viewBox="0 0 19 23" fill="none" xmlns="http://www.w3.org/2000/svg">
<path d="M17.9424 3.28571H13.4424V2.05357C13.4424 1.50893 13.2448 0.986597 12.8932 0.601477C12.5416 0.216358 12.0647 0 11.5674 0H7.81738C7.3201 0 6.84319 0.216358 6.49156 0.601477C6.13993 0.986597 5.94238 1.50893 5.94238 2.05357V3.28571H1.44238C1.24347 3.28571 1.05271 3.37226 0.912053 3.52631C0.771401 3.68035 0.692383 3.88929 0.692383 4.10714C0.692383 4.325 0.771401 4.53393 0.912053 4.68798C1.05271 4.84203 1.24347 4.92857 1.44238 4.92857H2.23926L3.12988 20.5829C3.19645 21.9614 4.16113 23 5.37988 23H14.0049C15.2297 23 16.1752 21.9845 16.2549 20.5871L17.1455 4.92857H17.9424C18.1413 4.92857 18.3321 4.84203 18.4727 4.68798C18.6134 4.53393 18.6924 4.325 18.6924 4.10714C18.6924 3.88929 18.6134 3.68035 18.4727 3.52631C18.3321 3.37226 18.1413 3.28571 17.9424 3.28571ZM6.7191 19.7143H6.69238C6.49801 19.7144 6.31119 19.6319 6.17128 19.4841C6.03137 19.3364 5.94931 19.1349 5.94238 18.9221L5.56738 7.42212C5.5603 7.20426 5.63252 6.99225 5.76816 6.83271C5.9038 6.67318 6.09175 6.57919 6.29066 6.57143C6.48958 6.56367 6.68316 6.64277 6.82882 6.79133C6.97448 6.93989 7.0603 7.14574 7.06738 7.36359L7.44238 18.8636C7.44595 18.9715 7.43007 19.0791 7.39565 19.1802C7.36122 19.2814 7.30892 19.3741 7.24175 19.4531C7.17458 19.5322 7.09384 19.5959 7.00416 19.6407C6.91448 19.6855 6.81761 19.7105 6.7191 19.7143ZM10.4424 18.8929C10.4424 19.1107 10.3634 19.3196 10.2227 19.4737C10.0821 19.6277 9.8913 19.7143 9.69238 19.7143C9.49347 19.7143 9.3027 19.6277 9.16205 19.4737C9.0214 19.3196 8.94238 19.1107 8.94238 18.8929V7.39286C8.94238 7.175 9.0214 6.96607 9.16205 6.81202C9.3027 6.65797 9.49347 6.57143 9.69238 6.57143C9.8913 6.57143 10.0821 6.65797 10.2227 6.81202C10.3634 6.96607 10.4424 7.175 10.4424 7.39286V18.8929ZM11.9424 3.28571H7.44238V2.05357C7.44182 1.99946 7.45113 1.94578 7.46978 1.89567C7.48842 1.84556 7.51602 1.80004 7.55096 1.76177C7.58589 1.72351 7.62746 1.69328 7.67321 1.67286C7.71896 1.65244 7.76798 1.64224 7.81738 1.64286H11.5674C11.6168 1.64224 11.6658 1.65244 11.7116 1.67286C11.7573 1.69328 11.7989 1.72351 11.8338 1.76177C11.8687 1.80004 11.8963 1.84556 11.915 1.89567C11.9336 1.94578 11.9429 1.99946 11.9424 2.05357V3.28571ZM13.4424 18.9221C13.4355 19.1349 13.3534 19.3364 13.2135 19.4841C13.0736 19.6319 12.8868 19.7144 12.6924 19.7143H12.6652C12.5667 19.7104 12.4699 19.6854 12.3803 19.6406C12.2907 19.5957 12.21 19.532 12.1428 19.453C12.0757 19.374 12.0235 19.2813 11.9891 19.1801C11.9547 19.079 11.9388 18.9714 11.9424 18.8636L12.3174 7.36359C12.3209 7.25572 12.3438 7.14966 12.3847 7.05147C12.4256 6.95328 12.4838 6.86489 12.5559 6.79133C12.6281 6.71777 12.7127 6.66049 12.8051 6.62276C12.8974 6.58503 12.9956 6.56759 13.0941 6.57143C13.1926 6.57527 13.2894 6.60032 13.3791 6.64515C13.4687 6.68999 13.5494 6.75372 13.6166 6.83271C13.6838 6.91171 13.7361 7.00442 13.7705 7.10555C13.805 7.20668 13.8209 7.31425 13.8174 7.42212L13.4424 18.9221Z" fill="#777777"/>
</svg>
