<svg width="20" height="20" viewBox="0 0 20 20" fill="none" xmlns="http://www.w3.org/2000/svg">
<path d="M16.3305 5.50016C16.5323 5.50039 16.7264 5.57765 16.8731 5.71617C17.0198 5.85468 17.1081 6.044 17.1199 6.24543C17.1318 6.44687 17.0662 6.64521 16.9367 6.79995C16.8072 6.95468 16.6235 7.05412 16.4231 7.07795L16.3305 7.0835H16.2664L15.5388 15.7918C15.5389 16.3976 15.3074 16.9805 14.8918 17.4213C14.4762 17.862 13.9079 18.1273 13.3032 18.1629L13.1638 18.1668H6.8305C5.56542 18.1668 4.5315 17.178 4.46184 15.9897L4.45788 15.8575L3.72717 7.0835H3.66384C3.46206 7.08327 3.26798 7.00601 3.12125 6.86749C2.97453 6.72897 2.88623 6.53966 2.87441 6.33823C2.86258 6.13679 2.92812 5.93845 3.05763 5.78371C3.18714 5.62898 3.37084 5.52954 3.57121 5.5057L3.66384 5.50016H16.3305ZM11.5805 2.3335C12.0004 2.3335 12.4032 2.50031 12.7001 2.79724C12.997 3.09418 13.1638 3.4969 13.1638 3.91683C13.1636 4.11861 13.0863 4.31269 12.9478 4.45941C12.8093 4.60614 12.62 4.69443 12.4186 4.70626C12.2171 4.71808 12.0188 4.65255 11.8641 4.52304C11.7093 4.39353 11.6099 4.20982 11.586 4.00945L11.5805 3.91683H8.41384L8.4083 4.00945C8.38446 4.20982 8.28502 4.39353 8.13029 4.52304C7.97555 4.65255 7.77721 4.71808 7.57577 4.70626C7.37434 4.69443 7.18503 4.60614 7.04651 4.45941C6.90799 4.31269 6.83073 4.11861 6.8305 3.91683C6.83038 3.51737 6.98124 3.13263 7.25286 2.83973C7.52447 2.54683 7.89676 2.36741 8.29509 2.33745L8.41384 2.3335H11.5805Z" fill="#FF1414"/>
</svg>
