<svg width="24" height="24" viewBox="0 0 24 24" fill="red" xmlns="http://www.w3.org/2000/svg">
<path d="M11.2882 18.98L11.2874 18.9793C8.80989 16.7327 6.7937 14.9011 5.39104 13.1851C3.99388 11.4757 3.25781 9.94221 3.25781 8.30013C3.25781 5.61562 5.35253 3.5293 8.02865 3.5293C9.54499 3.5293 11.0086 4.23778 11.9617 5.34827L12.3411 5.79035L12.7206 5.34827C13.6737 4.23778 15.1373 3.5293 16.6536 3.5293C19.3298 3.5293 21.4245 5.61562 21.4245 8.30013C21.4245 9.94221 20.6884 11.4757 19.2913 13.1851C17.8886 14.9011 15.8724 16.7327 13.3949 18.9793L13.3941 18.98L12.3411 19.9386L11.2882 18.98Z" stroke="red"/>
</svg>
