<svg width="20" height="26" viewBox="0 0 20 26" fill="none" xmlns="http://www.w3.org/2000/svg">
<path d="M11.064 20.3615L11.0624 20.3602C10.3059 19.785 9.25875 19.785 8.50226 20.3601C8.50221 20.3601 8.50217 20.3602 8.50212 20.3602L2.36809 25.0209L2.36798 25.0208L2.35733 25.0294C2.05485 25.2725 1.64247 25.3278 1.2866 25.173C0.935778 25.0204 0.696928 24.6884 0.663086 24.3082V4.422C0.714596 3.3914 1.17334 2.42326 1.9387 1.73068C2.70687 1.03556 3.7205 0.675411 4.75506 0.730027L4.76823 0.730722H4.78142H14.6981H14.7095L14.7209 0.730201C15.7617 0.682641 16.7781 1.0544 17.5426 1.76226C18.3052 2.4684 18.7536 3.45018 18.7881 4.48875V24.3009C18.7438 24.6646 18.5119 24.9792 18.1762 25.1286C17.835 25.2805 17.4388 25.2385 17.1371 25.0189L11.064 20.3615Z" stroke="#00b14f"/>
</svg>
