<svg width="25" height="31" viewBox="0 0 25 31" fill="none" xmlns="http://www.w3.org/2000/svg">
<path d="M19.0221 25.4244L15.5368 21.9259C15.3995 21.795 15.3309 21.6277 15.3309 21.424C15.3309 21.2202 15.3995 21.049 15.5368 20.9102C15.674 20.7725 15.8382 20.6987 16.0294 20.6888C16.2196 20.679 16.3838 20.7434 16.5221 20.8822L19.1176 23.4891V17.0131C19.1176 16.8035 19.1882 16.6283 19.3294 16.4876C19.4706 16.3459 19.6456 16.275 19.8544 16.275C20.0632 16.275 20.2377 16.3459 20.3779 16.4876C20.5181 16.6283 20.5882 16.8035 20.5882 17.0131V23.4891L23.1838 20.8822C23.3152 20.7444 23.4824 20.6755 23.6853 20.6755C23.8882 20.6755 24.0588 20.7444 24.1971 20.8822C24.3353 21.02 24.4039 21.1912 24.4029 21.3959C24.4029 21.5996 24.3343 21.7669 24.1971 21.8978L20.6838 25.4259C20.4466 25.6631 20.1696 25.7817 19.8529 25.7817C19.5363 25.7817 19.2593 25.6626 19.0221 25.4244ZM15.4412 31C15.2324 31 15.0578 30.9291 14.9176 30.7874C14.7775 30.6457 14.7069 30.4705 14.7059 30.2619C14.7059 30.0533 14.7765 29.8781 14.9176 29.7364C15.0588 29.5956 15.2333 29.5253 15.4412 29.5253H24.2647C24.4735 29.5253 24.648 29.5961 24.7882 29.7379C24.9284 29.8796 24.999 30.0543 25 30.2619C25 30.4705 24.9294 30.6457 24.7882 30.7874C24.648 30.9282 24.4735 30.9985 24.2647 30.9985L15.4412 31ZM2.375 25.0952C1.73578 25.0952 1.18039 24.8581 0.708823 24.3837C0.236274 23.9103 0 23.3528 0 22.7112V2.38405C0 1.7424 0.236274 1.18489 0.708823 0.711524C1.18039 0.237175 1.73578 0 2.375 0H11.5132C11.8377 0 12.1475 0.0639684 12.4426 0.191905C12.7368 0.32181 12.9907 0.49354 13.2044 0.707095L19.8824 7.41048C20.0951 7.62403 20.2657 7.87892 20.3941 8.17514C20.5225 8.47038 20.5868 8.78137 20.5868 9.1081V11.5615C20.5868 11.8991 20.473 12.182 20.2456 12.4103C20.0181 12.6386 19.7358 12.7528 19.3985 12.7528H13.5735C12.9196 12.7528 12.3603 12.9865 11.8956 13.454C11.4299 13.9205 11.1971 14.4814 11.1971 15.1369V23.901C11.1971 24.2395 11.0833 24.523 10.8559 24.7513C10.6284 24.9796 10.3466 25.0938 10.0103 25.0938L2.375 25.0952ZM13.5471 8.85714H19.1176L11.7647 1.47619V7.068C11.7647 7.56498 11.9377 7.98767 12.2838 8.33605C12.6309 8.68344 13.052 8.85714 13.5471 8.85714Z" fill="#333333"/>
</svg>
