<svg width="24" height="25" viewBox="0 0 24 25" fill="none" xmlns="http://www.w3.org/2000/svg">
<path fill-rule="evenodd" clip-rule="evenodd" d="M4.06176 8.01308C5.48796 4.58844 8.82961 2.35379 12.5393 2.34388C16.5375 2.32282 20.0926 4.88381 21.339 8.68285C22.5853 12.4819 21.2381 16.6511 18.0044 19.0026C14.7707 21.354 10.3893 21.3505 7.15934 18.9939L4.27934 21.8739C3.98652 22.1663 3.51216 22.1663 3.21934 21.8739C2.92689 21.5811 2.92689 21.1067 3.21934 20.8139L6.00934 18.0239C3.40324 15.3837 2.63556 11.4377 4.06176 8.01308ZM5.39891 14.5128C6.59638 17.3985 9.41508 19.2779 12.5393 19.2739V19.2339C16.7796 19.2285 20.2219 15.8041 20.2493 11.5639C20.2534 8.43961 18.374 5.62092 15.4883 4.42345C12.6026 3.22598 9.27967 3.88583 7.07048 6.09502C4.86129 8.30421 4.20144 11.6271 5.39891 14.5128Z" fill="black"/>
</svg>
