<svg width="32" height="32" viewBox="0 0 32 32" fill="none" xmlns="http://www.w3.org/2000/svg">
<path d="M31.032 29.36L23.6366 21.9661C25.78 19.3927 26.8489 16.092 26.6208 12.7506C26.3926 9.40918 24.8851 6.28438 22.4117 4.0262C19.9384 1.76801 16.6896 0.550314 13.3413 0.62641C9.99303 0.702506 6.80297 2.06654 4.43475 4.43475C2.06654 6.80297 0.702506 9.99303 0.62641 13.3413C0.550314 16.6896 1.76801 19.9384 4.0262 22.4117C6.28438 24.8851 9.40918 26.3926 12.7506 26.6208C16.092 26.8489 19.3927 25.78 21.9661 23.6366L29.36 31.032C29.4698 31.1417 29.6001 31.2288 29.7435 31.2882C29.887 31.3477 30.0407 31.3782 30.196 31.3782C30.3512 31.3782 30.505 31.3477 30.6484 31.2882C30.7918 31.2288 30.9222 31.1417 31.032 31.032C31.1417 30.9222 31.2288 30.7918 31.2882 30.6484C31.3477 30.505 31.3782 30.3512 31.3782 30.196C31.3782 30.0407 31.3477 29.887 31.2882 29.7435C31.2288 29.6001 31.1417 29.4698 31.032 29.36ZM3.01892 13.6534C3.01892 11.5501 3.64262 9.49404 4.81115 7.7452C5.97969 5.99637 7.64057 4.63332 9.58377 3.82842C11.527 3.02352 13.6652 2.81292 15.7281 3.22325C17.791 3.63359 19.6859 4.64643 21.1731 6.13369C22.6604 7.62095 23.6732 9.51584 24.0836 11.5787C24.4939 13.6416 24.2833 15.7799 23.4784 17.7231C22.6735 19.6663 21.3105 21.3271 19.5616 22.4957C17.8128 23.6642 15.7567 24.2879 13.6534 24.2879C10.8339 24.2848 8.13082 23.1634 6.13714 21.1697C4.14347 19.176 3.02204 16.4729 3.01892 13.6534Z" fill="white"/>
</svg>
