<svg width="24" height="25" viewBox="0 0 24 25" fill="none" xmlns="http://www.w3.org/2000/svg">
<path d="M9.87868 11.4651C10.4413 12.0277 11.2043 12.3438 12 12.3438C12.394 12.3438 12.7841 12.2662 13.1481 12.1154C13.512 11.9646 13.8427 11.7436 14.1213 11.4651C14.3999 11.1865 14.6209 10.8558 14.7716 10.4918C14.9224 10.1278 15 9.73772 15 9.34375C15 8.5481 14.6839 7.78504 14.1213 7.22243C13.5587 6.65982 12.7956 6.34375 12 6.34375C11.2043 6.34375 10.4413 6.65982 9.87868 7.22243C9.31607 7.78504 9 8.5481 9 9.34375C9 10.1394 9.31607 10.9025 9.87868 11.4651ZM12 21.5832C11.8179 21.3704 11.5768 21.0835 11.2945 20.7357C10.6447 19.935 9.77908 18.8143 8.91448 17.5328C8.04892 16.25 7.19053 14.8151 6.55005 13.3854C5.90664 11.9492 5.5 10.5551 5.5 9.34375C5.5 7.61984 6.18482 5.96654 7.40381 4.74756C8.62279 3.52857 10.2761 2.84375 12 2.84375C13.7239 2.84375 15.3772 3.52857 16.5962 4.74756C17.8152 5.96654 18.5 7.61984 18.5 9.34375C18.5 10.5551 18.0934 11.9492 17.4499 13.3854C16.8095 14.8151 15.9511 16.25 15.0855 17.5328C14.2209 18.8143 13.3553 19.935 12.7055 20.7357C12.4232 21.0835 12.1821 21.3704 12 21.5832Z" stroke="black"/>
</svg>
