<?xml version="1.0" encoding="UTF-8"?>
<svg version="1.1" viewBox="0 0 900 900" width="30" height="30" xmlns="http://www.w3.org/2000/svg">
<path transform="translate(0)" d="m0 0h900v900h-900z" fill="#fff"/>
<path transform="translate(442,252)" d="m0 0h17l33 2 35 5 30 7 29 9 28 11 29 14 23 13 24 16 12 9 16 13 8 7 10 9 23 23 9 11 13 16 14 20 7 11-1 5-9 14-13 18-13 16-12 13-7 8-14 14-8 7-15 13-16 12-24 16-22 13-15 8-22 10-29 11-31 9-27 6-37 5-13 1h-47l-31-3-30-5-32-8-30-10-26-11-17-8-23-13-16-10-17-12-18-14-14-12-13-12-13-13v-2h-2l-7-8-11-13-15-20-14-21 1-6 15-22 10-13 8-10 11-12 7-8 19-19 8-7 14-12 16-12 16-11 21-13 27-14 17-8 26-10 22-7 32-8 31-5 21-2z" fill="#00b14f"/>
<path transform="translate(439,336)" d="m0 0h22l17 3 15 5 14 7 13 9 10 9 9 9 10 15 8 17 5 19 2 14v14l-3 19-6 19-8 15-8 11-9 10-10 9-15 10-16 7-17 5-14 2h-16l-19-3-18-6-15-8-16-12-12-12-11-16-7-14-5-15-3-18v-21l4-20 6-16 8-15 9-12 14-14 14-10 16-8 15-5z" fill="#00b14f"/>
<path transform="translate(438,298)" d="m0 0h23l20 3 21 6 18 8 18 11 13 11 9 8 9 11 9 12 12 23 7 21 4 20 1 7v21l-4 25-8 24-8 16-7 11-10 13-9 10-11 9-10 8-16 9-15 7-20 6-16 3-12 1h-14l-17-2-13-3-16-5-18-8-16-10-11-9-12-11-9-11-10-14-8-15-6-15-5-18-3-18v-26l4-23 8-24 11-21 9-12 11-13 8-8 17-13 16-9 16-7 21-6zm1 38-17 3-15 5-16 8-11 8-10 9-9 9-10 15-8 17-5 17-2 12v21l3 18 6 17 7 14 12 16 12 12 16 11 16 8 15 5 19 3h16l18-3 21-7 16-9 13-10 11-11 10-14 8-15 6-19 3-19v-14l-3-19-5-16-8-17-11-15-14-14-10-7-11-7-14-6-14-4-13-2z" fill="#fff"/>
</svg>
