<svg width="20" height="20" viewBox="0 0 20 20" fill="none" xmlns="http://www.w3.org/2000/svg">
<path d="M16.125 6.5L15.125 7.5C17.25 8.625 18.25 10.375 18.625 11.25C17.75 12.375 15.125 15.125 9.875 15.125C9 15.125 8.375 15 7.625 14.875L6.625 15.875C7.625 16.25 8.75 16.375 9.875 16.375C17 16.375 20 11.375 20 11.375C20 11.375 19.25 8.375 16.125 6.5Z" fill="#777777"/>
<path d="M15 8.875C15 8.5 15 8.125 14.875 7.875L8.875 13.75C9.25 13.75 9.625 13.875 10 13.875C12.75 13.875 15 11.625 15 8.875ZM19.125 0L13.625 5.5C12.625 5.25 11.375 5 10 5C1.625 5 0 11.375 0 11.375C0 11.375 1.25 13.625 4.125 15.125L0 19.125V20H0.875L20 0.875V0H19.125ZM5 14.125C3 13.25 1.875 11.875 1.375 11.25C1.75 10.375 2.75 8.5 5.25 7.25C5.125 7.75 5 8.25 5 8.875C5 10.25 5.625 11.625 6.625 12.5L5 14.125ZM7.75 9.875L6.5 10.125C6.5 10.125 6.125 9.5 6.125 8.625C6.125 7.625 6.625 6.75 6.625 6.75C7.25 6.375 8.25 6.375 8.25 6.375C8.25 6.375 7.625 7.5 7.625 8.5C7.5 9.375 7.75 9.875 7.75 9.875Z" fill="#777777"/>
</svg>
