<svg width="18" height="19" viewBox="0 0 18 19" fill="none" xmlns="http://www.w3.org/2000/svg">
<path d="M9.5308 10.5506C9.39015 10.6912 9.19942 10.7701 9.00055 10.7701C8.80168 10.7701 8.61095 10.6912 8.4703 10.5506L5.0308 7.11181C4.88935 6.97519 4.6999 6.89959 4.50325 6.9013C4.3066 6.90301 4.11849 6.98189 3.97944 7.12094C3.84038 7.26 3.7615 7.44811 3.75979 7.64476C3.75808 7.8414 3.83368 8.03086 3.9703 8.17231L7.4098 11.6088C7.83174 12.0306 8.40393 12.2676 9.00055 12.2676C9.59717 12.2676 10.1694 12.0306 10.5913 11.6088L14.0308 8.16931C14.1674 8.02786 14.243 7.8384 14.2413 7.64176C14.2396 7.44511 14.1607 7.257 14.0217 7.11794C13.8826 6.97889 13.6945 6.90001 13.4979 6.8983C13.3012 6.89659 13.1118 6.97219 12.9703 7.10881L9.5308 10.5506Z" fill="white"/>
</svg>
