<svg width="24" height="22" viewBox="0 0 24 22" fill="none" xmlns="http://www.w3.org/2000/svg">
<path d="M1.28639 10.2933L10.6197 0.959994C10.877 0.709909 11.2481 0.616051 11.5933 0.713777C11.9385 0.811502 12.2053 1.08596 12.2933 1.43378C12.3812 1.78159 12.277 2.14991 12.0197 2.39999L4.40639 9.99999H22.0464C22.5987 9.99999 23.0464 10.4477 23.0464 11C23.0464 11.5523 22.5987 12 22.0464 12H4.41972L12.0197 19.6C12.2103 19.7857 12.3178 20.0405 12.3178 20.3067C12.3178 20.5728 12.2103 20.8276 12.0197 21.0133C11.8359 21.2062 11.5794 21.3127 11.3131 21.3067C11.0476 21.3079 10.7929 21.2022 10.6064 21.0133L1.27305 11.68C0.883114 11.2896 0.883114 10.6571 1.27305 10.2667L1.28639 10.2933Z" fill="white"/>
</svg>
