<svg width="20" height="21" viewBox="0 0 20 21" fill="none" xmlns="http://www.w3.org/2000/svg">
<path d="M9.99935 19.0827C14.6017 19.0827 18.3327 15.3517 18.3327 10.7493C18.3327 6.14698 14.6017 2.41602 9.99935 2.41602C5.39698 2.41602 1.66602 6.14698 1.66602 10.7493C1.66602 15.3517 5.39698 19.0827 9.99935 19.0827Z" stroke="#00b14f"/>
<path d="M10 5.75V15.75M12.5 8.66667C12.5 7.51667 11.3808 6.58333 10 6.58333C8.61917 6.58333 7.5 7.51667 7.5 8.66667C7.5 9.81667 8.61917 10.75 10 10.75C11.3808 10.75 12.5 11.6833 12.5 12.8333C12.5 13.9833 11.3808 14.9167 10 14.9167C8.61917 14.9167 7.5 13.9833 7.5 12.8333" stroke="#00b14f" stroke-linecap="round"/>
</svg>
