<svg width="19" height="14" viewBox="0 0 19 14" fill="none" xmlns="http://www.w3.org/2000/svg">
<path d="M9.51969 4.5C8.85665 4.5 8.22077 4.76339 7.75193 5.23223C7.28309 5.70107 7.01969 6.33696 7.01969 7C7.01969 7.66304 7.28309 8.29893 7.75193 8.76777C8.22077 9.23661 8.85665 9.5 9.51969 9.5C10.1827 9.5 10.8186 9.23661 11.2875 8.76777C11.7563 8.29893 12.0197 7.66304 12.0197 7C12.0197 6.33696 11.7563 5.70107 11.2875 5.23223C10.8186 4.76339 10.1827 4.5 9.51969 4.5ZM9.51969 11.1667C8.41462 11.1667 7.35482 10.7277 6.57342 9.94628C5.79201 9.16488 5.35303 8.10507 5.35303 7C5.35303 5.89493 5.79201 4.83512 6.57342 4.05372C7.35482 3.27232 8.41462 2.83333 9.51969 2.83333C10.6248 2.83333 11.6846 3.27232 12.466 4.05372C13.2474 4.83512 13.6864 5.89493 13.6864 7C13.6864 8.10507 13.2474 9.16488 12.466 9.94628C11.6846 10.7277 10.6248 11.1667 9.51969 11.1667ZM9.51969 0.75C5.35303 0.75 1.79469 3.34167 0.353027 7C1.79469 10.6583 5.35303 13.25 9.51969 13.25C13.6864 13.25 17.2447 10.6583 18.6864 7C17.2447 3.34167 13.6864 0.75 9.51969 0.75Z" fill="#00b14f"/>
</svg>
