<svg width="21" height="20" viewBox="0 0 21 20" fill="none" xmlns="http://www.w3.org/2000/svg">
<path d="M12.7195 1.66669H9.47453C8.00453 1.66669 6.83953 1.66669 5.9287 1.79002C4.99036 1.91669 4.2312 2.18335 3.63286 2.78419C3.0337 3.38502 2.76786 4.14752 2.64203 5.08919C2.51953 6.00419 2.51953 7.17335 2.51953 8.64919V13.5142C2.51953 14.7709 3.2862 15.8475 4.37536 16.2992C4.31953 15.5409 4.31953 14.4784 4.31953 13.5934V9.41835C4.31953 8.35085 4.31953 7.43002 4.41786 6.69335C4.5237 5.90335 4.76203 5.14669 5.3737 4.53252C5.98536 3.91835 6.73953 3.67919 7.5262 3.57252C8.25953 3.47419 9.1762 3.47419 10.2404 3.47419H12.7987C13.862 3.47419 14.777 3.47419 15.5112 3.57252C15.2912 3.01116 14.9072 2.5291 14.4092 2.18915C13.9113 1.8492 13.3225 1.66714 12.7195 1.66669Z" fill="#00b14f"/>
<path d="M5.51953 9.49751C5.51953 7.22585 5.51953 6.09001 6.22286 5.38418C6.92536 4.67834 8.0562 4.67834 10.3195 4.67834H12.7195C14.982 4.67834 16.1137 4.67834 16.817 5.38418C17.5195 6.09001 17.5195 7.22585 17.5195 9.49751V13.5142C17.5195 15.7858 17.5195 16.9217 16.817 17.6275C16.1137 18.3333 14.982 18.3333 12.7195 18.3333H10.3195C8.05703 18.3333 6.92536 18.3333 6.22286 17.6275C5.51953 16.9217 5.51953 15.7858 5.51953 13.5142V9.49751Z" fill="#00b14f"/>
</svg>
