<svg width="21" height="21" viewBox="0 0 21 21" fill="none" xmlns="http://www.w3.org/2000/svg">
<g clip-path="url(#clip0_7508_5649)">
<path d="M19.7854 10.5006C19.7854 12.9633 18.8071 15.3251 17.0657 17.0666C15.3243 18.808 12.9624 19.7863 10.4997 19.7863C8.03698 19.7863 5.67512 18.808 3.93371 17.0666C2.1923 15.3251 1.21399 12.9633 1.21399 10.5006M19.7854 10.5006C19.7854 8.03783 18.8071 5.67598 17.0657 3.93457C15.3243 2.19316 12.9624 1.21484 10.4997 1.21484C8.03698 1.21484 5.67512 2.19316 3.93371 3.93457C2.1923 5.67598 1.21399 8.03783 1.21399 10.5006M19.7854 10.5006H1.21399" stroke="white" stroke-linecap="round" stroke-linejoin="round"/>
<path d="M14.0708 10.5006C13.8954 13.8963 12.6447 17.1482 10.4994 19.7863C8.35415 17.1482 7.1034 13.8963 6.92798 10.5006C7.1034 7.10486 8.35415 3.85292 10.4994 1.21484C12.6447 3.85292 13.8954 7.10486 14.0708 10.5006Z" stroke="white" stroke-linecap="round" stroke-linejoin="round"/>
</g>
<defs>
<clipPath id="clip0_7508_5649">
<rect width="20" height="20" fill="white" transform="translate(0.5 0.5)"/>
</clipPath>
</defs>
</svg>
