<svg width="24" height="24" viewBox="0 0 24 24" fill="none" xmlns="http://www.w3.org/2000/svg">
<g clip-path="url(#clip0_7607_50101)">
<path d="M21.2 5.03984H20.05V22.2898H21.2C22.465 22.2898 23.5 21.2548 23.5 19.9898V7.33984C23.5 6.07484 22.465 5.03984 21.2 5.03984ZM0.5 7.33984V19.9898C0.5 21.2548 1.53385 22.2898 2.8 22.2898H3.95V5.03984H2.8C1.53385 5.03984 0.5 6.07484 0.5 7.33984ZM16.025 2.63174C15.2418 2.26834 13.8526 1.58984 11.9781 1.58984C10.1002 1.58984 8.75815 2.26834 7.975 2.63174V5.03984H5.1V22.2898H18.9V5.03984H16.025V2.63174ZM14.3 5.03984H9.7V3.50344C10.3141 3.23894 10.9397 2.96869 11.9781 2.96869C13.0154 2.96869 13.687 3.23779 14.3 3.50344V5.03984Z" fill="#00b14f"/>
</g>
<defs>
<clipPath id="clip0_7607_50101">
<rect width="23" height="23" fill="white" transform="translate(0.5 0.439453)"/>
</clipPath>
</defs>
</svg>
