<svg width="43" height="43" viewBox="0 0 43 43" fill="none" xmlns="http://www.w3.org/2000/svg">
<circle cx="21.7827" cy="21.75" r="21" fill="#00b14f"/>
<path fill-rule="evenodd" clip-rule="evenodd" d="M18.7827 11.25C18.0865 11.25 17.4188 11.5266 16.9266 12.0188C16.4343 12.5111 16.1577 13.1788 16.1577 13.875V15.75H14.2827C13.4871 15.75 12.724 16.0661 12.1614 16.6287C11.5988 17.1913 11.2827 17.9544 11.2827 18.75V29.25C11.2827 30.0456 11.5988 30.8087 12.1614 31.3713C12.724 31.9339 13.4871 32.25 14.2827 32.25H29.2827C30.0784 32.25 30.8414 31.9339 31.404 31.3713C31.9666 30.8087 32.2827 30.0456 32.2827 29.25V18.75C32.2827 17.9544 31.9666 17.1913 31.404 16.6287C30.8414 16.0661 30.0784 15.75 29.2827 15.75H27.4077V13.875C27.4077 13.1788 27.1312 12.5111 26.6389 12.0188C26.1466 11.5266 25.4789 11.25 24.7827 11.25H18.7827ZM25.1577 15.75V13.875C25.1577 13.7755 25.1182 13.6802 25.0479 13.6098C24.9776 13.5395 24.8822 13.5 24.7827 13.5H18.7827C18.6833 13.5 18.5879 13.5395 18.5175 13.6098C18.4472 13.6802 18.4077 13.7755 18.4077 13.875V15.75H25.1577ZM14.2827 18H29.2827C29.4816 18 29.6724 18.079 29.813 18.2197C29.9537 18.3603 30.0327 18.5511 30.0327 18.75V20.25H13.5327V18.75C13.5327 18.5511 13.6117 18.3603 13.7524 18.2197C13.893 18.079 14.0838 18 14.2827 18ZM13.5327 22.5V29.25C13.5327 29.4489 13.6117 29.6397 13.7524 29.7803C13.893 29.921 14.0838 30 14.2827 30H29.2827C29.4816 30 29.6724 29.921 29.813 29.7803C29.9537 29.6397 30.0327 29.4489 30.0327 29.25V22.5H23.2827V24.75H20.2827V22.5H13.5327Z" fill="white"/>
</svg>
