<svg width="19" height="16" viewBox="0 0 19 16" fill="none" xmlns="http://www.w3.org/2000/svg">
<path d="M10.6933 5.05357C10.6933 3.46428 10.4885 2.40179 10.0789 1.86607C9.68299 1.3125 8.9321 1.03571 7.82624 1.03571H7.21187V14.9643H8.6454V15.5H2.70652V14.9643H4.14004V1.03571H3.52567C2.43347 1.03571 1.68257 1.3125 1.273 1.86607C0.877072 2.40179 0.679109 3.46428 0.679109 5.05357H0.269531V0.5H11.1029V5.05357H10.6933Z" fill="black"/>
<path d="M15.2695 1.28931L14.9019 0.950369L15.2695 0.551708L15.6371 0.950369L15.2695 1.28931ZM15.7695 9.49106C15.7695 9.7672 15.5457 9.99106 15.2695 9.99106C14.9934 9.99106 14.7695 9.7672 14.7695 9.49106L15.7695 9.49106ZM12.4019 3.66169L14.9019 0.950369L15.6371 1.62824L13.1371 4.33957L12.4019 3.66169ZM15.6371 0.950369L18.1371 3.66169L17.4019 4.33957L14.9019 1.62824L15.6371 0.950369ZM15.7695 1.28931L15.7695 9.49106L14.7695 9.49106L14.7695 1.28931L15.7695 1.28931Z" fill="#222222"/>
<path d="M15.2695 14.7109L14.905 15.0532L15.2695 15.4414L15.6341 15.0532L15.2695 14.7109ZM15.7695 6.88199C15.7695 6.60585 15.5457 6.38199 15.2695 6.38199C14.9934 6.38199 14.7695 6.60585 14.7695 6.88199L15.7695 6.88199ZM12.405 12.3903L14.905 15.0532L15.6341 14.3687L13.1341 11.7058L12.405 12.3903ZM15.6341 15.0532L18.1341 12.3903L17.405 11.7058L14.905 14.3687L15.6341 15.0532ZM15.7695 14.7109L15.7695 6.88199L14.7695 6.88199L14.7695 14.7109L15.7695 14.7109Z" fill="#222222"/>
</svg>
