<?xml version="1.0" encoding="UTF-8"?>
<svg version="1.1" viewBox="0 0 1440 1440" width="1280" height="1280" xmlns="http://www.w3.org/2000/svg">
<path transform="translate(0)" d="m0 0h1440v1440h-1440z" fill="#cccccc"/>
<path transform="translate(578,448)" d="m0 0h12l12 4 13 7 9 7 1 1 1 10 1 44v250l-1 163-10 7-19 13-17 12-19 13-14 10-5 3h-2v-35l2-447 1-29 4-11 9-10 8-6 11-5z" fill="#00b14f"/>
<path transform="translate(892,781)" d="m0 0 5 1 34 24 14 10 12 8 11 7v3l-16 10-16 12-12 8-18 13-19 13-17 12-12 8-20 14-16 11-23 16-19 13-15 11-23 16-19 13-17 12-20 14-25 17-17 12-16 11-12 9-14 10-8 4-4 1h-16l-12-5-9-7-6-7-5-10-2-9-1-29 2-4 44-29 17-12 33-22 17-12 19-13 11-8 17-12 25-17 23-16 19-13 18-13 16-11 17-12 19-13 20-14 16-11z" fill="#00b14f"/>
<path transform="translate(655,489)" d="m0 0 4 1 20 13 19 13 23 16 28 19 16 11 20 13 18 13 13 9 19 13 32 22 21 14 34 23 14 10 16 11 39 26 18 13 10 10 5 10 3 12v18l-4 10-7 9-9 9-10 7-6 4-6-1-11-8-21-14-23-16-18-12-16-11-24-16-19-13-10-7-19-13-16-11-15-10-16-11-14-10-16-11-24-16-20-14-19-13-12-8-5-4-8-5-1-4-2-46-1-32z" fill="#00b14f"/>
<path transform="translate(899,658)" d="m0 0 7 4 7 3 5 1 15 11 12 8 10 7 15 10 28 19 12 9 9 9 5 10 3 12v18l-4 10-7 9-9 9-10 7-6 4-6-1-11-8-21-14-23-16-18-12-16-11-24-16-19-13-2-3 4-1 5-1 10-1 4-5 2-2 3-5 10-7 3-3 7-5 9-3 7-1 5-2-1-6-6-7v-2l-4-2-5-3v-2h-2l-1-3-2-1z" fill="#00b14f"/>
<path transform="translate(624,823)" d="m0 0h1v112l-18 12-17 12-20 14-22 15-6 4h-2v-35l1-23 1-52 2-2 2 2 3 15 3 6h4v-2l7-3 18-12 5-2 2-4 9-4 10-5 6-2 3-9 3-17 1-7 3-12z" fill="#00b14f"/>
<path transform="translate(901,656)" d="m0 0 5 2 9 6-3 2-8-4-3-4z" fill="#FDA82A"/>
</svg>
