<svg width="12" height="3" viewBox="0 0 12 3" fill="none" xmlns="http://www.w3.org/2000/svg">
<path d="M9.64844 1.37891C9.64844 1.08054 9.76696 0.79439 9.97794 0.583411C10.1889 0.372433 10.4751 0.253906 10.7734 0.253906C11.0718 0.253906 11.358 0.372433 11.5689 0.583411C11.7799 0.79439 11.8984 1.08054 11.8984 1.37891C11.8984 1.67727 11.7799 1.96342 11.5689 2.1744C11.358 2.38538 11.0718 2.50391 10.7734 2.50391C10.4751 2.50391 10.1889 2.38538 9.97794 2.1744C9.76696 1.96342 9.64844 1.67727 9.64844 1.37891ZM5.14844 1.37891C5.14844 1.08054 5.26696 0.79439 5.47794 0.583411C5.68892 0.372433 5.97507 0.253906 6.27344 0.253906C6.57181 0.253906 6.85795 0.372433 7.06893 0.583411C7.27991 0.79439 7.39844 1.08054 7.39844 1.37891C7.39844 1.67727 7.27991 1.96342 7.06893 2.1744C6.85795 2.38538 6.57181 2.50391 6.27344 2.50391C5.97507 2.50391 5.68892 2.38538 5.47794 2.1744C5.26696 1.96342 5.14844 1.67727 5.14844 1.37891ZM0.648438 1.37891C0.648438 1.08054 0.766964 0.79439 0.977942 0.583411C1.18892 0.372433 1.47507 0.253906 1.77344 0.253906C2.07181 0.253906 2.35795 0.372433 2.56893 0.583411C2.77991 0.79439 2.89844 1.08054 2.89844 1.37891C2.89844 1.67727 2.77991 1.96342 2.56893 2.1744C2.35795 2.38538 2.07181 2.50391 1.77344 2.50391C1.47507 2.50391 1.18892 2.38538 0.977942 2.1744C0.766964 1.96342 0.648438 1.67727 0.648438 1.37891Z" fill="black"/>
</svg>
