<svg width="23" height="21" viewBox="0 0 23 21" fill="none" xmlns="http://www.w3.org/2000/svg">
<path d="M11.4267 19.9729C15.9739 19.9729 19.6601 16.3288 19.6601 11.8337C19.6601 7.3386 15.9739 3.69458 11.4267 3.69458C6.87956 3.69458 3.19336 7.3386 3.19336 11.8337C3.19336 16.3288 6.87956 19.9729 11.4267 19.9729Z" stroke="#00b14f" stroke-width="2"/>
<path d="M4.32745 1.52734C3.52953 1.7386 2.80193 2.15382 2.21783 2.73124C1.63372 3.30865 1.2137 4.02792 1 4.81672M18.5241 1.52734C19.322 1.7386 20.0496 2.15382 20.6337 2.73124C21.2178 3.30865 21.6379 4.02792 21.8516 4.81672M11.4258 7.18288V11.5431C11.4258 11.7036 11.5575 11.8338 11.7198 11.8338H14.9544" stroke="#00b14f" stroke-width="2" stroke-linecap="round"/>
</svg>
