<svg width="18" height="19" viewBox="0 0 18 19" fill="none" xmlns="http://www.w3.org/2000/svg">
<path d="M0.57959 4.5H16.5796M6.57959 8.5V14.5M10.5796 8.5V14.5M1.57959 4.5L2.57959 16.5C2.57959 17.0304 2.7903 17.5391 3.16538 17.9142C3.54045 18.2893 4.04916 18.5 4.57959 18.5H12.5796C13.11 18.5 13.6187 18.2893 13.9938 17.9142C14.3689 17.5391 14.5796 17.0304 14.5796 16.5L15.5796 4.5M5.57959 4.5V1.5C5.57959 1.23478 5.68495 0.98043 5.87248 0.792893C6.06002 0.605357 6.31437 0.5 6.57959 0.5H10.5796C10.8448 0.5 11.0992 0.605357 11.2867 0.792893C11.4742 0.98043 11.5796 1.23478 11.5796 1.5V4.5" stroke="#E65252" stroke-linecap="round" stroke-linejoin="round"/>
</svg>
