<svg width="44" height="44" viewBox="0 0 44 44" fill="none" xmlns="http://www.w3.org/2000/svg">
<g filter="url(#filter0_d_103_11016)">
<path d="M22.2969 37.5C31.9619 37.5 39.7969 29.665 39.7969 20C39.7969 10.335 31.9619 2.5 22.2969 2.5C12.6319 2.5 4.79688 10.335 4.79688 20C4.79688 29.665 12.6319 37.5 22.2969 37.5Z" fill="white" fill-opacity="0.28"/>
<path d="M28.6609 15.6553C28.1927 15.8631 27.6899 16.0035 27.1613 16.0666C27.7008 15.7435 28.1141 15.2316 28.3093 14.6222C27.7968 14.9266 27.2359 15.1409 26.6509 15.2558C26.1749 14.7484 25.4961 14.4316 24.7451 14.4316C23.3037 14.4316 22.1346 15.6002 22.1346 17.0425C22.1346 17.2469 22.1576 17.4462 22.2019 17.6377C20.0319 17.5286 18.1082 16.4892 16.8205 14.9098C16.5956 15.2955 16.4669 15.744 16.4669 16.2225C16.4669 17.1282 16.9279 17.9273 17.6284 18.3954C17.2137 18.3826 16.8081 18.2706 16.4456 18.069V18.102C16.4456 19.3671 17.3454 20.422 18.5399 20.6619C18.3205 20.722 18.0902 20.7534 17.852 20.7534C17.6835 20.7534 17.5201 20.7375 17.3605 20.7075C17.6927 21.7444 18.657 22.4992 19.7991 22.5205C18.9056 23.221 17.7796 23.6385 16.5567 23.6385C16.3461 23.6385 16.138 23.6259 15.9336 23.6013C17.0892 24.3423 18.4613 24.7749 19.9358 24.7749C24.738 24.7749 27.3644 20.7965 27.3644 17.3464C27.3644 17.2331 27.3619 17.1207 27.3564 17.0087C27.8681 16.6386 28.3098 16.1803 28.6609 15.6553Z" fill="white"/>
</g>
<defs>
<filter id="filter0_d_103_11016" x="0.796875" y="0.5" width="43" height="43" filterUnits="userSpaceOnUse" color-interpolation-filters="sRGB">
<feFlood flood-opacity="0" result="BackgroundImageFix"/>
<feColorMatrix in="SourceAlpha" type="matrix" values="0 0 0 0 0 0 0 0 0 0 0 0 0 0 0 0 0 0 127 0" result="hardAlpha"/>
<feOffset dy="2"/>
<feGaussianBlur stdDeviation="2"/>
<feComposite in2="hardAlpha" operator="out"/>
<feColorMatrix type="matrix" values="0 0 0 0 0 0 0 0 0 0 0 0 0 0 0 0 0 0 0.15 0"/>
<feBlend mode="normal" in2="BackgroundImageFix" result="effect1_dropShadow_103_11016"/>
<feBlend mode="normal" in="SourceGraphic" in2="effect1_dropShadow_103_11016" result="shape"/>
</filter>
</defs>
</svg>
