<svg width="15" height="15" viewBox="0 0 15 15" fill="none" xmlns="http://www.w3.org/2000/svg">
<path d="M5.98612 7.50026H6.03279C7.32145 7.50026 8.36612 6.45559 8.36612 5.16693V4.25109C8.36459 3.72769 8.15439 3.2265 7.7821 2.85859C7.40981 2.49069 6.90618 2.28643 6.38279 2.29109H5.61279C4.53164 2.2943 3.65599 3.16995 3.65279 4.25109V5.16693C3.65279 6.45559 4.69746 7.50026 5.98612 7.50026Z" fill="#7F878F"/>
<path d="M10.9911 7.06276C11.9576 7.06276 12.7411 6.27926 12.7411 5.31276V4.64193C12.7411 3.8346 12.0901 3.17833 11.2828 3.17193H10.6995C9.89216 3.17833 9.2411 3.8346 9.24112 4.64193V5.31276C9.24112 6.27926 10.0246 7.06276 10.9911 7.06276Z" fill="#7F878F"/>
<path d="M13.8436 9.49526L13.7503 9.03443C13.64 8.4018 13.0916 7.93953 12.4495 7.93776H8.89112C8.45627 7.93869 8.05092 8.1578 7.81195 8.52109H3.69945C3.28685 8.52139 2.89011 8.68009 2.59112 8.96443C2.33424 9.19981 2.15347 9.50651 2.07195 9.84526C2.07195 9.87443 2.07195 9.90359 2.07195 9.92693V10.0786L1.94945 10.5453C1.82469 11.0558 1.93599 11.5954 2.2526 12.0149C2.56921 12.4344 3.05759 12.6894 3.58279 12.7094H8.41279C8.53674 12.709 8.66017 12.6933 8.78029 12.6628H8.85612C8.94378 12.6378 9.02956 12.6066 9.11279 12.5694L9.20612 12.5169C9.27574 12.4776 9.34207 12.4328 9.40445 12.3828L9.49779 12.3069C9.55516 12.2534 9.60968 12.197 9.66112 12.1378C9.66112 12.1086 9.71362 12.0853 9.73695 12.0503C9.80215 11.9646 9.85881 11.8728 9.90612 11.7761C9.93101 11.7231 9.95244 11.6685 9.97029 11.6128C9.99322 11.5596 10.0127 11.5051 10.0286 11.4494C10.0286 11.3911 10.0578 11.3328 10.0695 11.2744V11.1869H12.5661C12.978 11.1747 13.3622 10.9763 13.6105 10.6474C13.8589 10.3186 13.9446 9.8948 13.8436 9.49526Z" fill="#7F878F"/>
</svg>
