<svg width="32" height="32" viewBox="0 0 32 32" fill="none" xmlns="http://www.w3.org/2000/svg">
<path d="M27.9997 14.813V9.33301C28.0002 8.62881 27.7222 7.95298 27.2263 7.45301C26.9845 7.19517 26.6907 6.99169 26.3643 6.85606C26.0379 6.72043 25.6863 6.65576 25.333 6.66634H19.9997V3.99967C20.0094 3.64767 19.9457 3.29749 19.8126 2.9715C19.6794 2.6455 19.4798 2.35085 19.2263 2.10634C18.9818 1.85293 18.6872 1.65327 18.3612 1.52012C18.0352 1.38697 17.685 1.32324 17.333 1.33301H11.9997C11.6477 1.32324 11.2975 1.38697 10.9715 1.52012C10.6455 1.65327 10.3509 1.85293 10.1063 2.10634C9.85293 2.35085 9.65328 2.6455 9.52012 2.9715C9.38697 3.29749 9.32324 3.64767 9.33301 3.99967V6.66634H3.99968C3.64636 6.65576 3.29483 6.72043 2.96841 6.85606C2.64199 6.99169 2.34814 7.19517 2.10634 7.45301C1.61045 7.95298 1.33245 8.62881 1.33301 9.33301V23.9997C1.33245 24.7039 1.61045 25.3797 2.10634 25.8797C2.34814 26.1375 2.64199 26.341 2.96841 26.4766C3.29483 26.6122 3.64636 26.6769 3.99968 26.6663H13.6797C14.4125 27.7367 15.3605 28.6425 16.463 29.326C17.5656 30.0095 18.7985 30.4557 20.0831 30.6361C21.3677 30.8164 22.6758 30.727 23.9239 30.3736C25.1721 30.0201 26.3328 29.4103 27.3321 28.5832C28.3314 27.756 29.1473 26.7296 29.7277 25.5695C30.3081 24.4094 30.6404 23.141 30.7032 21.8453C30.766 20.5496 30.558 19.2551 30.0925 18.0443C29.627 16.8334 28.9143 15.7329 27.9997 14.813ZM11.9997 3.99967H17.333V6.66634H11.9997M3.99968 23.9997V9.33301H25.333V12.9063C24.0858 12.3043 22.7179 11.9943 21.333 11.9997C18.8577 11.9997 16.4837 12.983 14.7333 14.7333C12.983 16.4837 11.9997 18.8577 11.9997 21.333C11.9989 22.2359 12.1291 23.1342 12.3863 23.9997M25.333 26.6663C24.179 27.5318 22.7755 27.9997 21.333 27.9997C19.8905 27.9997 18.487 27.5318 17.333 26.6663C16.5004 26.0497 15.8249 25.2454 15.3616 24.3187C14.8982 23.392 14.66 22.3691 14.6663 21.333C14.6663 19.5649 15.3687 17.8692 16.619 16.619C17.8692 15.3687 19.5649 14.6663 21.333 14.6663C22.7764 14.6605 24.1818 15.1289 25.333 15.9997C26.161 16.6207 26.833 17.4259 27.2959 18.3516C27.7587 19.2773 27.9997 20.298 27.9997 21.333C27.9997 22.368 27.7587 23.3887 27.2959 24.3144C26.833 25.2401 26.161 26.0454 25.333 26.6663ZM19.9997 17.333H21.9997V21.093L25.253 22.973L24.253 24.7063L19.9997 22.253V17.333Z" fill="#F8F8F8"/>
</svg>
