<svg width="82" height="82" viewBox="0 0 82 82" fill="none" xmlns="http://www.w3.org/2000/svg">
<path fill-rule="evenodd" clip-rule="evenodd" d="M41.3984 5.17285C41.7639 5.17262 42.1251 5.25154 42.4572 5.40418C42.7893 5.55682 43.0844 5.77957 43.3222 6.0571L53.4472 17.8696C53.884 18.3798 54.1002 19.0426 54.0483 19.7123C53.9964 20.3819 53.6807 21.0035 53.1704 21.4404C52.6602 21.8772 51.9974 22.0934 51.3278 22.0415C50.6581 21.9896 50.0365 21.6738 49.5997 21.1636L43.9297 14.5486V51.5791C43.9297 52.2504 43.663 52.8943 43.1883 53.369C42.7136 53.8437 42.0698 54.1104 41.3984 54.1104C40.7271 54.1104 40.0833 53.8437 39.6086 53.369C39.1339 52.8943 38.8672 52.2504 38.8672 51.5791V14.5452L33.1972 21.1636C32.9809 21.4162 32.717 21.6238 32.4205 21.7744C32.124 21.925 31.8007 22.0158 31.4691 22.0415C31.1376 22.0672 30.8042 22.0273 30.488 21.9242C30.1718 21.821 29.8791 21.6566 29.6264 21.4404C29.3738 21.2241 29.1663 20.9601 29.0156 20.6636C28.865 20.3671 28.7742 20.0439 28.7485 19.7123C28.7228 19.3807 28.7627 19.0473 28.8658 18.7312C28.969 18.415 29.1334 18.1222 29.3497 17.8696L39.4747 6.0571C39.7125 5.77957 40.0076 5.55682 40.3397 5.40418C40.6718 5.25154 41.033 5.17262 41.3984 5.17285ZM24.5099 28.8046C25.1813 28.801 25.8265 29.0643 26.3038 29.5364C26.781 30.0086 27.0511 30.651 27.0547 31.3224C27.0583 31.9937 26.795 32.6389 26.3228 33.1162C25.8507 33.5934 25.2083 33.8635 24.5369 33.8671C20.8481 33.8874 18.2324 33.9819 16.2446 34.3464C14.3343 34.7007 13.2239 35.2644 12.4038 36.0845C11.4689 37.0194 10.8614 38.3322 10.5273 40.8095C10.1864 43.3576 10.1797 46.736 10.1797 51.5791V54.9541C10.1797 59.8006 10.1864 63.179 10.5273 65.7271C10.8614 68.2043 11.4723 69.5138 12.4038 70.4521C13.3387 71.3836 14.6482 71.9911 17.1288 72.3252C19.6736 72.6695 23.0553 72.6729 27.8984 72.6729H54.8984C59.7416 72.6729 63.1199 72.6695 65.6714 72.3252C68.1487 71.9911 69.4582 71.3836 70.3931 70.4487C71.3279 69.5138 71.9354 68.2043 72.2696 65.7271C72.6104 63.179 72.6172 59.8006 72.6172 54.9541V51.5791C72.6172 46.736 72.6104 43.3576 72.2696 40.8061C71.9354 38.3322 71.3246 37.0194 70.3931 36.0845C69.5696 35.2644 68.4626 34.7007 66.5523 34.3464C64.5644 33.9819 61.9488 33.8874 58.2599 33.8671C57.9275 33.8653 57.5987 33.7981 57.2923 33.6693C56.9859 33.5404 56.7078 33.3525 56.474 33.1162C56.2402 32.8799 56.0553 32.5998 55.9297 32.292C55.8041 31.9843 55.7404 31.6548 55.7422 31.3224C55.744 30.9899 55.8112 30.6611 55.94 30.3547C56.0689 30.0483 56.2568 29.7702 56.4931 29.5364C56.7294 29.3026 57.0095 29.1177 57.3172 28.9921C57.625 28.8665 57.9545 28.8028 58.2869 28.8046C61.9387 28.8249 64.9796 28.9126 67.4669 29.3682C70.0252 29.8407 72.2021 30.7351 73.9739 32.507C76.0057 34.5354 76.8764 37.097 77.2882 40.1345C77.6797 43.0572 77.6797 46.7799 77.6797 51.3935V55.1397C77.6797 59.7567 77.6797 63.476 77.2882 66.4021C76.8764 69.4396 76.0057 71.9979 73.9739 74.0296C71.9422 76.0614 69.3839 76.9321 66.3464 77.3439C63.4203 77.7354 59.6977 77.7354 55.0841 77.7354H27.7128C23.0992 77.7354 19.3766 77.7354 16.4504 77.3439C13.4129 76.9355 10.8547 76.0614 8.82294 74.0296C6.79119 71.9979 5.92044 69.4396 5.51206 66.4021C5.11719 63.476 5.11719 59.7534 5.11719 55.1397V51.3935C5.11719 46.7799 5.11719 43.0572 5.51206 40.1311C5.91706 37.0936 6.79456 34.5354 8.82294 32.5036C10.5948 30.7351 12.7717 29.8374 15.3299 29.3682C17.8173 28.9126 20.8582 28.8249 24.5099 28.8046Z" fill="#00b14f"/>
</svg>
