<svg width="139" height="139" viewBox="0 0 139 139" fill="none" xmlns="http://www.w3.org/2000/svg">
<rect x="0.5" y="0.5" width="138" height="138" rx="3.5" fill="#F7F7F7" stroke="#C4C4C4"/>
<path d="M88.6111 69.3056C88.6111 68.7935 88.4077 68.3025 88.0457 67.9404C87.6836 67.5784 87.1926 67.375 86.6806 67.375C86.1685 67.375 85.6775 67.5784 85.3154 67.9404C84.9534 68.3025 84.75 68.7935 84.75 69.3056H88.6111ZM69.3056 53.8611C69.8176 53.8611 70.3086 53.6577 70.6707 53.2957C71.0327 52.9336 71.2361 52.4426 71.2361 51.9306C71.2361 51.4185 71.0327 50.9275 70.6707 50.5654C70.3086 50.2034 69.8176 50 69.3056 50V53.8611ZM83.7847 84.75H54.8264V88.6111H83.7847V84.75ZM53.8611 83.7847V54.8264H50V83.7847H53.8611ZM84.75 69.3056V83.7847H88.6111V69.3056H84.75ZM54.8264 53.8611H69.3056V50H54.8264V53.8611ZM54.8264 84.75C54.5704 84.75 54.3249 84.6483 54.1438 84.4673C53.9628 84.2863 53.8611 84.0407 53.8611 83.7847H50C50 85.0648 50.5085 86.2924 51.4136 87.1975C52.3187 88.1026 53.5464 88.6111 54.8264 88.6111V84.75ZM83.7847 88.6111C85.0648 88.6111 86.2924 88.1026 87.1975 87.1975C88.1026 86.2924 88.6111 85.0648 88.6111 83.7847H84.75C84.75 84.0407 84.6483 84.2863 84.4673 84.4673C84.2863 84.6483 84.0407 84.75 83.7847 84.75V88.6111ZM53.8611 54.8264C53.8611 54.5704 53.9628 54.3249 54.1438 54.1438C54.3249 53.9628 54.5704 53.8611 54.8264 53.8611V50C53.5464 50 52.3187 50.5085 51.4136 51.4136C50.5085 52.3187 50 53.5464 50 54.8264H53.8611Z" fill="#9E9E9E"/>
<path d="M51.9375 79.9227L62.2592 70.4611C62.6071 70.1422 63.0598 69.9619 63.5316 69.954C64.0034 69.9462 64.4618 70.1115 64.8201 70.4186L77.0347 80.888M73.1736 76.0616L77.7809 71.4544C78.1095 71.1255 78.5457 70.9263 79.0095 70.8933C79.4732 70.8604 79.9332 70.9958 80.3051 71.2748L86.6875 76.0616M75.1042 57.7214H86.6875M80.8958 51.9297V63.513" stroke="#9E9E9E" stroke-width="2.91667" stroke-linecap="round" stroke-linejoin="round"/>
</svg>
