<svg width="33" height="32" viewBox="0 0 33 32" fill="none" xmlns="http://www.w3.org/2000/svg">
<path d="M22.9283 29.3332H10.555C9.20723 29.2842 7.95175 28.6359 7.13146 27.5654C6.31116 26.4949 6.01175 25.114 6.315 23.7999L6.635 22.2799C7.00304 20.2222 8.77183 18.7101 10.8617 18.6665H22.6217C24.7115 18.7101 26.4803 20.2222 26.8483 22.2799L27.1683 23.7999C27.4716 25.114 27.1722 26.4949 26.3519 27.5654C25.5316 28.6359 24.2761 29.2842 22.9283 29.3332Z" fill="#A5ABC7"/>
<path d="M17.4083 15.9999H16.075C13.1295 15.9999 10.7417 13.612 10.7417 10.6665V7.14652C10.7381 5.95727 11.209 4.8157 12.0499 3.97476C12.8908 3.13383 14.0324 2.66297 15.2217 2.66652H18.2617C19.4509 2.66297 20.5925 3.13383 21.4334 3.97476C22.2744 4.8157 22.7452 5.95727 22.7417 7.14652V10.6665C22.7417 12.081 22.1798 13.4376 21.1796 14.4378C20.1794 15.438 18.8228 15.9999 17.4083 15.9999Z" fill="#A5ABC7"/>
</svg>
