<svg width="63" height="64" viewBox="0 0 63 64" fill="none" xmlns="http://www.w3.org/2000/svg">
<path d="M43.2447 58.3272H19.2713C16.6601 58.2307 14.2276 56.9544 12.6382 54.8468C11.0489 52.7392 10.4688 50.0206 11.0563 47.4334L11.6763 44.4409C12.3894 40.39 15.8165 37.413 19.8655 37.3272H42.6505C46.6996 37.413 50.1266 40.39 50.8397 44.4409L51.4597 47.4334C52.0472 50.0206 51.4671 52.7392 49.8778 54.8468C48.2885 56.9544 45.856 58.2307 43.2447 58.3272Z" fill="white"/>
<path d="M32.5497 32.0772H29.9663C24.2594 32.0772 19.633 27.3762 19.633 21.5772V14.6472C19.6261 12.3058 20.5384 10.0584 22.1677 8.40278C23.797 6.74719 26.0088 5.82019 28.313 5.82719H34.203C36.5072 5.82019 38.719 6.74719 40.3483 8.40278C41.9776 10.0584 42.8899 12.3058 42.883 14.6472V21.5772C42.883 24.362 41.7943 27.0327 39.8565 29.0018C37.9186 30.9709 35.2903 32.0772 32.5497 32.0772Z" fill="white"/>
</svg>
