<svg width="24" height="24" viewBox="0 0 24 24" fill="none" xmlns="http://www.w3.org/2000/svg">
<g clip-path="url(#clip0_7607_50122)">
<path d="M22.1919 18.8251C22.3745 18.6828 22.5201 18.4986 22.6163 18.288C22.7125 18.0774 22.7563 17.8467 22.7442 17.6155C22.7321 17.3843 22.6643 17.1595 22.5466 16.9601C22.4289 16.7608 22.2648 16.5928 22.0682 16.4705L22.0625 8.10133L20.625 9.06445V16.4676C20.4307 16.5898 20.2685 16.7568 20.1519 16.9546C20.0353 17.1523 19.9677 17.3751 19.9547 17.6043C19.9418 17.8335 19.9839 18.0625 20.0775 18.2721C20.1711 18.4817 20.3135 18.6659 20.4928 18.8093L19.9494 19.5309C19.4661 20.1457 19.1984 20.9023 19.1875 21.6843V23.4409H20.3591C20.6405 23.4409 20.9139 23.347 21.136 23.1741C21.3581 23.0012 21.5162 22.7592 21.5853 22.4864L22.0611 20.5659V23.4409H23.4986V21.7015C23.4876 20.9156 23.2178 20.1552 22.7309 19.5381L22.1919 18.8251ZM12 0.439453L0.5 6.18945L12 13.377L23.5 6.18945L12 0.439453Z" fill="#00b14f"/>
<path d="M12 14.8142L4.8125 10.0273V12.4855C4.8125 13.7936 9.03875 17.6892 12 17.6892C14.9613 17.6892 19.1875 13.7936 19.1875 12.4855V10.0273L12 14.8142Z" fill="#00b14f"/>
</g>
<defs>
<clipPath id="clip0_7607_50122">
<rect width="23" height="23" fill="white" transform="translate(0.5 0.439453)"/>
</clipPath>
</defs>
</svg>
