<svg width="41" height="33" viewBox="0 0 41 33" fill="none" xmlns="http://www.w3.org/2000/svg">
<path d="M35.5751 0H4.46398C3.28524 0 2.15477 0.534888 1.32128 1.487C0.487784 2.4391 0.0195313 3.73044 0.0195312 5.07692L0.0195313 27.9231C0.0195313 29.2696 0.487784 30.5609 1.32128 31.513C2.15477 32.4651 3.28524 33 4.46398 33H35.5751C36.7538 33 37.8843 32.4651 38.7178 31.513C39.5513 30.5609 40.0195 29.2696 40.0195 27.9231V5.07692C40.0195 3.73044 39.5513 2.4391 38.7178 1.487C37.8843 0.534888 36.7538 0 35.5751 0Z" fill="#DA251D"/>
<path d="M21.9673 14.0099L20.0195 7.16235L18.0718 14.0099H11.7695L16.8684 18.2402L14.9206 25.0877L20.0195 20.8561L25.1184 25.0877L23.1706 18.2402L28.2695 14.0099H21.9673Z" fill="#FFFF00"/>
</svg>
