<svg width="19" height="20" viewBox="0 0 19 20" fill="none" xmlns="http://www.w3.org/2000/svg">
<path fill-rule="evenodd" clip-rule="evenodd" d="M17.8123 5.66933C16.3861 2.24469 13.0444 0.0100374 9.33468 0.000128852C5.33649 -0.0209255 1.78139 2.54006 0.53507 6.3391C-0.711248 10.1381 0.635925 14.3074 3.86961 16.6588C7.10329 19.0103 11.4848 19.0068 14.7147 16.6501L17.5947 19.5301C17.8875 19.8226 18.3619 19.8226 18.6547 19.5301C18.9471 19.2373 18.9471 18.7629 18.6547 18.4701L15.8647 15.6801C18.4708 13.04 19.2385 9.09396 17.8123 5.66933ZM16.4751 12.1691C15.2776 15.0547 12.4589 16.9342 9.33468 16.9301V16.8901C5.0944 16.8847 1.65214 13.4603 1.62468 9.22013C1.62064 6.09586 3.50007 3.27717 6.38575 2.0797C9.27142 0.882226 12.5944 1.54208 14.8035 3.75127C17.0127 5.96046 17.6726 9.2834 16.4751 12.1691Z" fill="white"/>
</svg>
