<svg width="44" height="44" viewBox="0 0 44 44" fill="none" xmlns="http://www.w3.org/2000/svg">
<g filter="url(#filter0_d_103_11019)">
<path d="M22.2969 37.5C31.9619 37.5 39.7969 29.665 39.7969 20C39.7969 10.335 31.9619 2.5 22.2969 2.5C12.6319 2.5 4.79688 10.335 4.79688 20C4.79688 29.665 12.6319 37.5 22.2969 37.5Z" fill="white" fill-opacity="0.28"/>
<path fill-rule="evenodd" clip-rule="evenodd" d="M27.2815 16.2954C27.8265 16.4396 28.2557 16.8624 28.402 17.3982C28.6735 18.3761 28.6608 20.4149 28.6608 20.4149C28.6608 20.4149 28.6589 22.4426 28.3956 23.4199C28.2474 23.955 27.8163 24.3772 27.2719 24.5208C26.2761 24.7768 22.2921 24.7725 22.2921 24.7725C22.2921 24.7725 18.3189 24.7681 17.3129 24.4996C16.7673 24.3553 16.338 23.9326 16.1918 23.3974C15.9311 22.4295 15.9336 20.3912 15.9336 20.3912C15.9336 20.3912 15.9361 18.363 16.1988 17.385C16.3463 16.8499 16.7876 16.4178 17.3218 16.2747C18.3183 16.0181 22.3016 16.0225 22.3016 16.0225C22.3016 16.0225 26.2856 16.0268 27.2815 16.2954ZM21.0305 18.5234L21.0273 22.2702L24.3417 20.4L21.0305 18.5234Z" fill="white"/>
</g>
<defs>
<filter id="filter0_d_103_11019" x="0.796875" y="0.5" width="43" height="43" filterUnits="userSpaceOnUse" color-interpolation-filters="sRGB">
<feFlood flood-opacity="0" result="BackgroundImageFix"/>
<feColorMatrix in="SourceAlpha" type="matrix" values="0 0 0 0 0 0 0 0 0 0 0 0 0 0 0 0 0 0 127 0" result="hardAlpha"/>
<feOffset dy="2"/>
<feGaussianBlur stdDeviation="2"/>
<feComposite in2="hardAlpha" operator="out"/>
<feColorMatrix type="matrix" values="0 0 0 0 0 0 0 0 0 0 0 0 0 0 0 0 0 0 0.15 0"/>
<feBlend mode="normal" in2="BackgroundImageFix" result="effect1_dropShadow_103_11019"/>
<feBlend mode="normal" in="SourceGraphic" in2="effect1_dropShadow_103_11019" result="shape"/>
</filter>
</defs>
</svg>
