<svg version="1.2" xmlns="http://www.w3.org/2000/svg" viewBox="0 0 790 321" width="790" height="321"><defs><clipPath clipPathUnits="userSpaceOnUse" id="cp1"><path d="m0 0h790v1120h-790z"/></clipPath></defs><style>.a{opacity:.1;fill:#093c5c}</style><g clip-path="url(#cp1)"><path class="a" d="m126.9-94.8l8.9 6-212.1 311.5-8.9-6zm65.7 31.5l8.8 6-212.1 311.5-8.8-6zm64.7 18.3l8.9 6.1-212.1 311.5-8.9-6zm85.6-4l8.9 6-212.1 311.5-8.9-6zm87.9 5.2l8.9 6-212.1 311.5-8.9-6zm64.8 18.4l8.8 6-212.1 311.5-8.8-6zm95.4-18.3l8.8 6-212.1 311.6-8.8-6zm84.6-2.6l8.9 6-212.1 311.6-8.8-6zm79.7 1.3l8.8 6-212.1 311.6-8.8-6.1zm85.6-4l8.8 6-212 311.6-8.9-6.1zm52 52l8.9 6.1-212.1 311.5-8.9-6z"/></g></svg>