<svg width="15" height="16" viewBox="0 0 15 16" fill="none" xmlns="http://www.w3.org/2000/svg">
<path d="M7.44 15.4401C11.549 15.4401 14.88 12.1091 14.88 8.00006C14.88 3.89106 11.549 0.560059 7.44 0.560059C3.331 0.560059 0 3.89106 0 8.00006C0 12.1091 3.331 15.4401 7.44 15.4401Z" fill="#CED5EF"/>
<path d="M12.21 7.52007C12.13 7.85007 11.82 8.11006 11.48 8.17006C11.37 8.19006 11.25 8.19007 11.12 8.20007V11.0101C11.12 11.2401 11.08 11.4401 10.95 11.6301C10.83 11.8001 10.68 11.9301 10.5 12.0101C10.39 12.0501 10.27 12.0801 10.15 12.1201H8.30997C8.12997 12.0501 8.04997 11.9301 8.04997 11.7301C8.05997 11.0401 8.03997 10.3401 8.05997 9.65007C8.06997 9.31007 7.83997 9.11007 7.55997 9.11007C7.22997 9.10007 6.90997 9.10007 6.58997 9.11007C6.30997 9.11007 6.06997 9.31007 6.07997 9.66007C6.09997 10.3501 6.07997 11.0601 6.08997 11.7601C6.08997 11.9501 6.03997 12.0501 5.82997 12.1301H3.98997C3.85997 12.0901 3.72997 12.0501 3.59997 12.0001C3.31997 11.8701 3.12997 11.6401 3.04997 11.3301C3.01997 11.2401 3.01997 11.1301 3.01997 11.0301V8.20007C2.92997 8.20007 2.85997 8.21007 2.78997 8.20007C2.45997 8.17007 2.17997 8.02007 2.00997 7.70007C1.97997 7.62007 1.94997 7.53007 1.90997 7.45007V7.19007C1.91997 7.16007 1.92997 7.13007 1.92997 7.11007C1.98997 6.98007 2.04997 6.84006 2.13997 6.74006C2.31997 6.55006 2.50997 6.38007 2.70997 6.20007C2.83997 6.08007 2.96997 5.96007 3.08997 5.84007C3.34997 5.60007 3.59997 5.36007 3.85997 5.12007C3.97997 5.01007 4.08997 4.90007 4.20997 4.79007C4.44997 4.57007 4.69997 4.36007 4.93997 4.13007C5.12997 3.95007 5.30997 3.77007 5.50997 3.59007C5.79997 3.32007 6.09997 3.05006 6.38997 2.78006C6.56997 2.60006 6.78997 2.52006 7.02997 2.50006C7.34997 2.48006 7.60997 2.61007 7.83997 2.83007C7.96997 2.96007 8.09997 3.09006 8.23997 3.21006C8.49997 3.44006 8.73997 3.67007 8.99997 3.90007C9.11997 4.02007 9.24997 4.13006 9.36997 4.25006C9.60997 4.48006 9.84997 4.69006 10.09 4.92006C10.28 5.10006 10.46 5.27006 10.66 5.46006C10.92 5.70006 11.19 5.95007 11.44 6.19007C11.58 6.31007 11.71 6.42007 11.83 6.54007C11.95 6.66007 12.07 6.78006 12.16 6.92006C12.25 7.11006 12.25 7.32007 12.21 7.52007Z" fill="#2634B1"/>
</svg>
