<svg version="1.2" xmlns="http://www.w3.org/2000/svg" viewBox="0 0 315 133" width="315" height="133"><defs><clipPath clipPathUnits="userSpaceOnUse" id="cp1"><path d="m-22-379h790v1120h-790z"/></clipPath></defs><style>.a{opacity:.1;fill:#093c5c}</style><g clip-path="url(#cp1)"><path class="a" d="m68.1 0.1l2.8 1.9-67.5 99.1-2.8-1.9zm20.9 10l2.8 2-67.5 99.1-2.8-1.9zm20.6 5.8l2.8 1.9-67.5 99.2-2.8-2zm27.2-1.2l2.8 1.9-67.5 99.1-2.8-1.9zm28 1.7l2.8 1.9-67.5 99.1-2.8-1.9zm20.6 5.8l2.8 1.9-67.5 99.2-2.8-1.9zm30.4-5.9l2.8 2-67.5 99.1-2.8-1.9zm26.9-0.8l2.8 1.9-67.4 99.1-2.9-1.9zm25.4 0.4l2.8 1.9-67.5 99.2-2.8-1.9zm27.3-1.3l2.8 1.9-67.5 99.1-2.8-1.9zm16.5 16.6l2.8 1.9-67.5 99.1-2.8-1.9z"/></g></svg>