<svg width="15" height="11" viewBox="0 0 15 11" fill="none" xmlns="http://www.w3.org/2000/svg">
<path d="M14.14 0.449835C13.99 0.599835 13.84 0.749835 13.68 0.909835C13.23 1.34983 12.79 1.79983 12.34 2.23983C12.14 2.43983 11.94 2.63983 11.74 2.83983C11.31 3.26983 10.88 3.70983 10.45 4.13983C10.18 4.40983 9.90003 4.67984 9.63003 4.94984C9.15003 5.42984 8.67003 5.89983 8.19003 6.37983C8.06003 6.50983 7.93003 6.62983 7.80003 6.74983C7.62003 6.89983 7.31003 6.86984 7.14003 6.69984C6.75003 6.28984 6.35003 5.88983 5.95003 5.47984C5.67003 5.19983 5.39003 4.91983 5.11003 4.62983C4.74003 4.25983 4.36003 3.86983 3.98003 3.48984C3.71003 3.21984 3.44003 2.93983 3.17003 2.66983C2.79003 2.27983 2.41003 1.88983 2.02003 1.49983C1.68003 1.14983 1.33003 0.799835 0.990034 0.459835C0.970034 0.439835 0.960034 0.419835 0.910034 0.369835C1.08003 0.339835 1.23003 0.299835 1.38003 0.279835C1.43003 0.269835 1.48003 0.279835 1.53003 0.279835C5.53003 0.299835 9.53004 0.319835 13.53 0.339835C13.73 0.339835 13.93 0.399835 14.13 0.419835C14.13 0.429835 14.13 0.439835 14.14 0.449835Z" fill="#557B9C"/>
<path d="M14.09 10.5791V10.6391C13.89 10.6691 13.68 10.7191 13.48 10.7091C10.12 10.6991 6.76002 10.6791 3.40002 10.6691C2.75002 10.6691 2.09002 10.6691 1.44002 10.6591C1.26002 10.6591 1.08002 10.6091 0.900024 10.5791C0.900024 10.5591 0.900024 10.5391 0.900024 10.5291C1.05002 10.3791 1.20002 10.2191 1.34002 10.0691C1.46002 9.93914 1.60002 9.82914 1.72002 9.69914C2.06002 9.35914 2.40002 9.01914 2.74002 8.66914C3.11002 8.28914 3.49002 7.90914 3.87002 7.53914C4.15002 7.25914 4.44002 6.97914 4.72002 6.69914C4.90002 6.51914 5.09002 6.33914 5.27002 6.15914C5.32002 6.10914 5.35002 6.10914 5.40002 6.16914C5.63002 6.40914 5.85002 6.64914 6.09002 6.87914C6.33002 7.10914 6.55002 7.36914 6.82002 7.53914C7.33002 7.85914 7.86002 7.81914 8.35002 7.43914C8.50002 7.31914 8.64002 7.17914 8.78002 7.03914C9.08002 6.73914 9.38002 6.42914 9.69002 6.11914C9.86002 6.28914 10.02 6.43914 10.18 6.59914C10.52 6.94914 10.85 7.29914 11.18 7.63914C11.55 8.01914 11.93 8.39914 12.3 8.76914C12.68 9.14914 13.05 9.52914 13.43 9.90914C13.64 10.1291 13.86 10.3591 14.09 10.5791Z" fill="#557B9C"/>
<path d="M4.71 5.4807C4.55 5.6407 4.4 5.8007 4.25 5.9507C4.12 6.0807 3.99 6.1907 3.87 6.3207C3.53 6.6607 3.2 7.0007 2.86 7.3507C2.48 7.7307 2.09 8.1107 1.71 8.4907C1.43 8.7607 1.16 9.0407 0.879995 9.3107C0.699995 9.4907 0.509995 9.6707 0.329995 9.8507C0.259995 9.9307 0.219995 9.9007 0.199995 9.8107C0.169995 9.6607 0.119995 9.5207 0.119995 9.3707C0.119995 6.7507 0.129995 4.1407 0.159995 1.5207C0.159995 1.3507 0.219995 1.1707 0.259995 0.970703C0.319995 1.0207 0.339995 1.0407 0.369995 1.0607C0.609995 1.3107 0.839995 1.5607 1.08 1.7907C1.48 2.2007 1.89 2.6107 2.3 3.0207C2.53 3.2507 2.74999 3.4907 2.99 3.7307C3.29999 4.0507 3.63 4.3707 3.95 4.6907C4.2 4.9507 4.45 5.2107 4.71 5.4807Z" fill="#557B9C"/>
<path d="M14.8899 1.66055L14.8599 9.38055C14.8599 9.59055 14.8199 9.79055 14.7299 9.99055C14.5599 9.82055 14.3999 9.66055 14.2399 9.50055C13.8199 9.07055 13.3999 8.64055 12.9699 8.21055C12.6899 7.92055 12.4099 7.64055 12.1299 7.36055C11.7499 6.98055 11.3699 6.59055 10.9999 6.21055C10.7899 6.00055 10.5699 5.78055 10.3499 5.57055C10.3299 5.56055 10.3199 5.53055 10.3099 5.51055C10.4299 5.38055 10.5399 5.26055 10.6599 5.14055C10.8899 4.91055 11.1199 4.69055 11.3499 4.47055C11.7799 4.05055 12.1999 3.61055 12.6199 3.19055C12.8799 2.92055 13.1499 2.66055 13.4099 2.40055C13.8499 1.96055 14.2999 1.52055 14.7599 1.06055C14.8499 1.26055 14.8899 1.46055 14.8899 1.66055Z" fill="#557B9C"/>
</svg>
