<svg width="15" height="16" viewBox="0 0 15 16" fill="none" xmlns="http://www.w3.org/2000/svg">
<path d="M5.34996 2.31953C5.16996 3.25953 4.37996 3.91953 3.42996 3.90953C2.49996 3.90953 1.69996 3.24953 1.51996 2.33953C1.30996 1.26953 2.03996 0.219531 3.10996 0.0395312C3.14996 0.0395312 3.17996 0.0295312 3.20996 0.0195312H3.67996C3.83996 0.0595312 4.00996 0.0995314 4.15996 0.159531C5.02996 0.509531 5.52996 1.41953 5.34996 2.31953Z" fill="#B53B33"/>
<path d="M12.3698 2.31953C12.1798 3.25953 11.3898 3.91953 10.4498 3.90953C9.50985 3.90953 8.71985 3.24953 8.53985 2.33953C8.32985 1.26953 9.04985 0.219531 10.1298 0.0395312C10.1598 0.0395312 10.1898 0.0295312 10.2198 0.0195312H10.6898C10.8498 0.0595312 11.0198 0.0995314 11.1798 0.159531C12.0398 0.509531 12.5398 1.41953 12.3698 2.31953Z" fill="#B53B33"/>
<path d="M14.2298 10.1491C14.3598 10.7591 13.8898 11.3391 13.2598 11.3591H12.3998V14.0291C12.3998 14.6691 12.0498 15.0091 11.4198 15.0091H9.42982C8.86982 15.0091 8.49982 14.6391 8.49982 14.0791V11.3591H7.70982C6.98982 11.3491 6.50981 10.7591 6.68981 10.0691C7.00981 8.74914 7.35981 7.42914 7.68981 6.10914C7.72981 5.95914 7.75982 5.79914 7.79982 5.64914C8.01982 4.89914 8.68981 4.37914 9.47981 4.37914C10.1098 4.36914 10.7498 4.36914 11.3898 4.36914C12.2198 4.37914 12.8998 4.89914 13.1098 5.70914C13.3998 6.82914 13.6798 7.94914 13.9598 9.06914C14.0498 9.42914 14.1598 9.78914 14.2298 10.1491Z" fill="#B53B33"/>
<path d="M6.10994 6.04859C6.12994 7.13859 6.11994 8.23859 6.10994 9.32859C6.10994 9.71859 5.87994 10.0186 5.51994 10.1386C5.40994 10.1686 5.37994 10.2186 5.38994 10.3286C5.38994 11.5586 5.38994 12.7986 5.37994 14.0286C5.37994 14.1686 5.36994 14.3086 5.32994 14.4386C5.20994 14.7786 4.89994 15.0086 4.54994 15.0086C3.80994 15.0186 3.06994 15.0186 2.32994 15.0086C1.85994 14.9986 1.48994 14.6086 1.48994 14.1286C1.47994 13.4986 1.48994 12.8686 1.48994 12.2286V10.3186C1.48994 10.2286 1.47994 10.1786 1.36994 10.1486C0.999941 10.0286 0.759941 9.69859 0.759941 9.30859C0.749941 8.24859 0.749941 7.17859 0.759941 6.10859C0.769941 5.15859 1.53994 4.38859 2.48994 4.37859C3.11994 4.36859 3.74994 4.36859 4.37994 4.37859C5.31994 4.38859 6.07994 5.10859 6.10994 6.04859Z" fill="#B53B33"/>
</svg>
