<svg width="15" height="11" viewBox="0 0 15 11" fill="none" xmlns="http://www.w3.org/2000/svg">
<path d="M14.1402 0.449835C13.9902 0.599835 13.8402 0.749835 13.6802 0.909835C13.2302 1.34983 12.7902 1.79983 12.3402 2.23983C12.1402 2.43983 11.9402 2.63983 11.7402 2.83983C11.3102 3.26983 10.8802 3.70983 10.4502 4.13983C10.1802 4.40983 9.90016 4.67984 9.63016 4.94984C9.15016 5.42984 8.67016 5.89983 8.19016 6.37983C8.06016 6.50983 7.93016 6.62983 7.80016 6.74983C7.62016 6.89983 7.31016 6.86984 7.14016 6.69984C6.75016 6.28984 6.35016 5.88983 5.95016 5.47984C5.67016 5.19983 5.39016 4.91983 5.11016 4.62983C4.74016 4.25983 4.36016 3.86983 3.98016 3.48984C3.71016 3.21984 3.44016 2.93983 3.17016 2.66983C2.79016 2.27983 2.41016 1.88983 2.02016 1.49983C1.68016 1.14983 1.33016 0.799835 0.990156 0.459835C0.970156 0.439835 0.960156 0.419835 0.910156 0.369835C1.08016 0.339835 1.23016 0.299835 1.38016 0.279835C1.43016 0.269835 1.48016 0.279835 1.53016 0.279835C5.53016 0.299835 9.53016 0.319835 13.5302 0.339835C13.7302 0.339835 13.9302 0.399835 14.1302 0.419835C14.1302 0.429835 14.1302 0.439835 14.1402 0.449835Z" fill="#3A46B3"/>
<path d="M14.0899 10.5791V10.6391C13.8899 10.6691 13.6799 10.7191 13.4799 10.7091C10.1199 10.6991 6.7599 10.6791 3.3999 10.6691C2.7499 10.6691 2.0899 10.6691 1.4399 10.6591C1.2599 10.6591 1.0799 10.6091 0.899902 10.5791C0.899902 10.5591 0.899902 10.5391 0.899902 10.5291C1.0499 10.3791 1.1999 10.2191 1.3399 10.0691C1.4599 9.93914 1.5999 9.82914 1.7199 9.69914C2.0599 9.35914 2.3999 9.01914 2.7399 8.66914C3.1099 8.28914 3.4899 7.90914 3.8699 7.53914C4.1499 7.25914 4.4399 6.97914 4.7199 6.69914C4.8999 6.51914 5.0899 6.33914 5.2699 6.15914C5.3199 6.10914 5.3499 6.10914 5.3999 6.16914C5.6299 6.40914 5.8499 6.64914 6.0899 6.87914C6.3299 7.10914 6.5499 7.36914 6.8199 7.53914C7.3299 7.85914 7.8599 7.81914 8.3499 7.43914C8.4999 7.31914 8.6399 7.17914 8.7799 7.03914C9.0799 6.73914 9.3799 6.42914 9.6899 6.11914C9.8599 6.28914 10.0199 6.43914 10.1799 6.59914C10.5199 6.94914 10.8499 7.29914 11.1799 7.63914C11.5499 8.01914 11.9299 8.39914 12.2999 8.76914C12.6799 9.14914 13.0499 9.52914 13.4299 9.90914C13.6399 10.1291 13.8599 10.3591 14.0899 10.5791Z" fill="#3A46B3"/>
<path d="M4.71012 5.4807C4.55012 5.6407 4.40012 5.8007 4.25012 5.9507C4.12012 6.0807 3.99012 6.1907 3.87012 6.3207C3.53012 6.6607 3.20012 7.0007 2.86012 7.3507C2.48012 7.7307 2.09012 8.1107 1.71012 8.4907C1.43012 8.7607 1.16012 9.0407 0.880117 9.3107C0.700117 9.4907 0.510117 9.6707 0.330117 9.8507C0.260117 9.9307 0.220117 9.9007 0.200117 9.8107C0.170117 9.6607 0.120117 9.5207 0.120117 9.3707C0.120117 6.7507 0.130117 4.1407 0.160117 1.5207C0.160117 1.3507 0.220118 1.1707 0.260118 0.970703C0.320118 1.0207 0.340117 1.0407 0.370117 1.0607C0.610117 1.3107 0.840117 1.5607 1.08012 1.7907C1.48012 2.2007 1.89012 2.6107 2.30012 3.0207C2.53012 3.2507 2.75012 3.4907 2.99012 3.7307C3.30012 4.0507 3.63012 4.3707 3.95012 4.6907C4.20012 4.9507 4.45012 5.2107 4.71012 5.4807Z" fill="#3A46B3"/>
<path d="M14.8901 1.66055L14.8601 9.38055C14.8601 9.59055 14.8201 9.79055 14.7301 9.99055C14.5601 9.82055 14.4001 9.66055 14.2401 9.50055C13.8201 9.07055 13.4001 8.64055 12.9701 8.21055C12.6901 7.92055 12.4101 7.64055 12.1301 7.36055C11.7501 6.98055 11.3701 6.59055 11.0001 6.21055C10.7901 6.00055 10.5701 5.78055 10.3501 5.57055C10.3301 5.56055 10.3201 5.53055 10.3101 5.51055C10.4301 5.38055 10.5401 5.26055 10.6601 5.14055C10.8901 4.91055 11.1201 4.69055 11.3501 4.47055C11.7801 4.05055 12.2001 3.61055 12.6201 3.19055C12.8801 2.92055 13.1501 2.66055 13.4101 2.40055C13.8501 1.96055 14.3001 1.52055 14.7601 1.06055C14.8501 1.26055 14.8901 1.46055 14.8901 1.66055Z" fill="#3A46B3"/>
</svg>
