<svg width="15" height="13" viewBox="0 0 15 13" fill="none" xmlns="http://www.w3.org/2000/svg">
<path d="M14.22 6.80972C14.12 7.23972 13.71 7.58972 13.27 7.65972C13.12 7.67972 12.97 7.67972 12.8 7.69972V11.3697C12.8 11.6697 12.75 11.9397 12.58 12.1797C12.42 12.3997 12.23 12.5697 11.99 12.6697C11.84 12.7197 11.69 12.7597 11.53 12.8097H9.12C8.88 12.7197 8.79 12.5597 8.79 12.2997C8.8 11.3897 8.78 10.4797 8.8 9.57972C8.81 9.12972 8.52 8.87972 8.14 8.86972C7.71 8.85972 7.3 8.85972 6.87 8.86972C6.51 8.86972 6.19 9.12972 6.2 9.58972C6.22 10.4997 6.2 11.4197 6.21 12.3297C6.21 12.5797 6.15 12.7097 5.88 12.8097H3.47C3.3 12.7597 3.13 12.7097 2.96 12.6397C2.6 12.4597 2.35 12.1697 2.24 11.7697C2.2 11.6497 2.2 11.5097 2.2 11.3797V7.67972C2.09 7.67972 1.99 7.68972 1.9 7.67972C1.46 7.63972 1.1 7.44972 0.88 7.02972C0.84 6.91972 0.8 6.80972 0.75 6.69972V6.35972C0.76 6.32972 0.77 6.27972 0.78 6.25972C0.86 6.09972 0.94 5.90972 1.05 5.77972C1.29 5.52972 1.55 5.30972 1.8 5.07972C1.96 4.92972 2.13 4.75972 2.3 4.60972C2.63 4.28972 2.97 3.98972 3.31 3.66972C3.46 3.52972 3.61 3.38972 3.77 3.22972C4.08 2.94972 4.4 2.65972 4.71 2.36972C4.96 2.13972 5.2 1.89972 5.45 1.66972C5.83 1.31972 6.22 0.969721 6.6 0.609721C6.84 0.379721 7.12 0.26972 7.43 0.24972C7.85 0.22972 8.19 0.38972 8.49 0.689721C8.66 0.859721 8.83 1.02972 9.01 1.18972C9.34 1.49972 9.67 1.78972 10 2.09972C10.16 2.24972 10.32 2.40972 10.49 2.55972C10.8 2.85972 11.12 3.13972 11.43 3.42972C11.68 3.65972 11.92 3.88972 12.17 4.12972C12.51 4.44972 12.86 4.75972 13.19 5.07972C13.37 5.22972 13.54 5.37972 13.7 5.53972C13.86 5.68972 14.01 5.85972 14.13 6.03972C14.27 6.26972 14.28 6.54972 14.22 6.80972Z" fill="#B53B33"/>
</svg>
