<svg width="15" height="13" viewBox="0 0 15 13" fill="none" xmlns="http://www.w3.org/2000/svg">
<path d="M0.519941 3.82031C0.519941 3.86031 0.509942 3.89031 0.509942 3.92031C0.489942 6.42031 0.459941 8.93031 0.439941 11.4303C0.439941 11.5903 0.469942 11.7503 0.509942 11.9103C0.649942 12.4003 1.07994 12.6703 1.66994 12.6803L12.9399 12.7903C12.9599 12.7903 12.9899 12.7903 13.0099 12.7903C13.8699 12.7803 14.4899 12.2003 14.4999 11.4203L14.5699 3.96031L0.519941 3.82031ZM6.44994 5.76031C6.44994 5.74031 6.44994 5.71031 6.45994 5.69031C6.47994 5.62031 6.50994 5.56031 6.55994 5.52031C6.56994 5.51031 6.57994 5.50031 6.59994 5.49031C6.61994 5.48031 6.62994 5.47031 6.64994 5.47031C6.65994 5.47031 6.66994 5.46031 6.67994 5.46031C6.71994 5.45031 6.76994 5.44031 6.81994 5.44031C7.17994 5.44031 7.53994 5.44031 7.88994 5.45031C7.99994 5.45031 8.07994 5.48031 8.14994 5.54031C8.15994 5.55031 8.17994 5.57031 8.18994 5.58031C8.18994 5.58031 8.18994 5.58031 8.18994 5.59031C8.19994 5.61031 8.20994 5.62031 8.21994 5.64031C8.22994 5.66031 8.23994 5.68031 8.23994 5.70031C8.23994 5.72031 8.24994 5.75031 8.24994 5.77031C8.25994 6.03031 8.24994 6.30031 8.24994 6.56031C8.24994 6.65031 8.23994 6.75031 8.23994 6.84031C8.23994 6.94031 8.20994 7.01031 8.14994 7.06031C8.08994 7.11031 8.01994 7.13031 7.90994 7.13031C7.52994 7.14031 7.15994 7.13031 6.77994 7.12031C6.66994 7.12031 6.58994 7.08031 6.53994 7.02031C6.50994 6.99031 6.48994 6.95031 6.46994 6.91031C6.45994 6.87031 6.44994 6.82031 6.44994 6.78031V6.27031C6.44994 6.16031 6.44994 6.05031 6.44994 5.95031C6.44994 5.88031 6.44994 5.82031 6.44994 5.76031ZM2.98994 5.73031C2.99994 5.52031 3.12994 5.40031 3.35994 5.40031C3.70994 5.40031 4.06994 5.40031 4.41994 5.41031C4.44994 5.41031 4.47994 5.41031 4.49994 5.42031C4.54994 5.43031 4.58994 5.44031 4.62994 5.46031C4.64994 5.47031 4.65994 5.48031 4.66994 5.49031L4.67994 5.50031C4.69994 5.51031 4.70994 5.53031 4.71994 5.54031C4.73994 5.56031 4.74994 5.58031 4.75994 5.60031C4.76994 5.62031 4.77994 5.64031 4.77994 5.67031C4.78994 5.69031 4.78994 5.71031 4.78994 5.74031C4.79994 6.08031 4.78994 6.41031 4.77994 6.75031C4.77994 6.80031 4.76994 6.85031 4.74994 6.89031C4.71994 6.93031 4.69994 6.97031 4.65994 7.00031C4.62994 7.03031 4.58994 7.06031 4.53994 7.07031C4.48994 7.09031 4.43994 7.10031 4.37994 7.10031C4.02994 7.11031 3.67994 7.10031 3.33994 7.09031C3.21994 7.09031 3.12994 7.05031 3.06994 6.99031C3.05994 6.97031 3.03994 6.96031 3.02994 6.94031C3.01994 6.92031 3.00994 6.90031 2.99994 6.88031C2.99994 6.86031 2.98994 6.84031 2.98994 6.82031C2.97994 6.79031 2.97994 6.76031 2.97994 6.73031C2.97994 6.57031 2.97994 6.41031 2.97994 6.25031C2.97994 6.16031 2.97994 6.08031 2.97994 5.99031C2.98994 5.90031 2.98994 5.82031 2.98994 5.73031ZM4.73994 10.4803C4.72994 10.7003 4.52994 10.8603 4.28994 10.8603C3.96994 10.8603 3.65994 10.8603 3.34994 10.8503C3.22994 10.8503 3.12994 10.8103 3.05994 10.7503C3.03994 10.7303 3.02994 10.7103 3.00994 10.7003C2.99994 10.6703 2.97994 10.6403 2.97994 10.6203C2.96994 10.6003 2.95994 10.5703 2.95994 10.5503C2.95994 10.5203 2.94994 10.5003 2.94994 10.4703C2.94994 10.3103 2.94994 10.1403 2.94994 9.97031C2.94994 9.80031 2.94994 9.64031 2.94994 9.47031C2.94994 9.42031 2.95994 9.37031 2.97994 9.33031C2.99994 9.29031 3.01994 9.25031 3.04994 9.22031C3.10994 9.16031 3.18994 9.13031 3.29994 9.13031C3.66994 9.12031 4.02994 9.13031 4.39994 9.14031C4.44994 9.14031 4.49994 9.15031 4.54994 9.17031C4.56994 9.18031 4.58994 9.18031 4.59994 9.19031C4.61994 9.20031 4.62994 9.21031 4.64994 9.23031L4.65994 9.24031C4.66994 9.25031 4.67994 9.26031 4.68994 9.28031C4.69994 9.30031 4.70994 9.31031 4.71994 9.33031C4.72994 9.35031 4.73994 9.38031 4.73994 9.40031C4.74994 9.42031 4.74994 9.44031 4.74994 9.46031C4.74994 9.81031 4.74994 10.1403 4.73994 10.4803ZM8.18994 10.5703C8.18994 10.6203 8.17994 10.6703 8.15994 10.7103C8.14994 10.7303 8.13994 10.7503 8.12994 10.7603C8.11994 10.7703 8.10994 10.7903 8.08994 10.8003L8.07994 10.8103C8.05994 10.8203 8.04994 10.8303 8.02994 10.8403C7.99994 10.8603 7.95994 10.8703 7.90994 10.8803C7.89994 10.8803 7.88994 10.8803 7.87994 10.8803C7.85994 10.8803 7.82994 10.8803 7.80994 10.8803C7.46994 10.8803 7.11994 10.8803 6.77994 10.8703C6.67994 10.8703 6.57994 10.8303 6.51994 10.7703C6.50994 10.7603 6.50994 10.7603 6.49994 10.7503C6.48994 10.7403 6.48994 10.7403 6.48994 10.7303C6.47994 10.7203 6.47994 10.7103 6.46994 10.7003C6.44994 10.6703 6.42994 10.6403 6.42994 10.6103C6.42994 10.6003 6.41994 10.5903 6.41994 10.5803C6.41994 10.5703 6.40994 10.5603 6.41994 10.5503V10.5403V10.5303C6.41994 10.4703 6.41994 10.4103 6.41994 10.3603C6.41994 10.2403 6.41994 10.1303 6.42994 10.0103C6.42994 9.92031 6.42994 9.84031 6.42994 9.75031C6.42994 9.66031 6.42994 9.58031 6.42994 9.49031C6.42994 9.47031 6.42994 9.44031 6.43994 9.42031C6.43994 9.40031 6.44994 9.39031 6.44994 9.37031C6.44994 9.36031 6.44994 9.36031 6.45994 9.35031C6.46994 9.33031 6.47994 9.32031 6.48994 9.30031C6.49994 9.28031 6.50994 9.27031 6.52994 9.25031C6.58994 9.19031 6.66994 9.16031 6.77994 9.16031C7.14994 9.15031 7.50994 9.16031 7.87994 9.17031C7.92994 9.17031 7.97994 9.18031 8.01994 9.19031C8.05994 9.20031 8.09994 9.23031 8.12994 9.25031C8.15994 9.28031 8.17994 9.31031 8.19994 9.35031C8.21994 9.39031 8.22994 9.43031 8.22994 9.48031C8.20994 9.85031 8.20994 10.2103 8.18994 10.5703ZM11.6999 10.3203C11.6999 10.4103 11.6999 10.4903 11.6999 10.5803C11.6999 10.6103 11.6999 10.6303 11.6899 10.6603C11.6799 10.7103 11.6599 10.7503 11.6299 10.7903C11.6199 10.8003 11.6099 10.8103 11.5999 10.8203C11.5899 10.8303 11.5899 10.8303 11.5799 10.8403C11.5699 10.8503 11.5599 10.8603 11.5399 10.8603C11.5299 10.8703 11.5299 10.8703 11.5199 10.8703C11.4999 10.8803 11.4799 10.8903 11.4699 10.8903C11.4499 10.9003 11.4399 10.9003 11.4199 10.9003C11.4099 10.9003 11.4099 10.9003 11.3999 10.9103C11.3999 10.9103 11.3899 10.9103 11.3799 10.9103C11.3599 10.9103 11.3299 10.9103 11.3099 10.9103C10.9699 10.9103 10.6299 10.9103 10.2899 10.9003C10.1699 10.9003 10.0599 10.8503 9.98994 10.7703C9.95994 10.7303 9.92994 10.6903 9.91994 10.6403C9.90994 10.6203 9.90994 10.5903 9.90994 10.5703C9.89994 10.2103 9.89994 9.84031 9.91994 9.48031C9.91994 9.46031 9.91994 9.44031 9.92994 9.42031C9.92994 9.40031 9.93994 9.38031 9.94994 9.37031V9.36031C9.95994 9.34031 9.96994 9.33031 9.97994 9.31031C9.98994 9.29031 10.0099 9.28031 10.0199 9.27031C10.0799 9.22031 10.1599 9.19031 10.2599 9.19031C10.6299 9.19031 10.9999 9.19031 11.3599 9.20031C11.4699 9.20031 11.5499 9.24031 11.6099 9.30031C11.6699 9.36031 11.6999 9.44031 11.6999 9.55031V10.3203ZM11.7399 6.32031V6.58031C11.7399 6.67031 11.7399 6.75031 11.7399 6.84031C11.7399 6.87031 11.7399 6.89031 11.7299 6.91031C11.7299 6.93031 11.7199 6.96031 11.7099 6.97031C11.6999 7.00031 11.6899 7.02031 11.6699 7.04031C11.6699 7.05031 11.6599 7.06031 11.6499 7.07031C11.5999 7.12031 11.5199 7.15031 11.4099 7.16031C11.0299 7.17031 10.6599 7.16031 10.2799 7.15031C10.0699 7.14031 9.94994 7.02031 9.94994 6.83031C9.94994 6.49031 9.94994 6.14031 9.95994 5.80031C9.95994 5.72031 9.97994 5.66031 10.0199 5.60031C10.0299 5.58031 10.0499 5.57031 10.0599 5.55031C10.1199 5.49031 10.2199 5.47031 10.3299 5.47031C10.6799 5.47031 11.0199 5.47031 11.3699 5.48031C11.4899 5.48031 11.5799 5.51031 11.6499 5.57031C11.7099 5.63031 11.7499 5.72031 11.7499 5.83031C11.7499 5.99031 11.7399 6.16031 11.7399 6.32031Z" fill="#B53B33"/>
<path d="M14.5298 3.06094L0.509766 2.93094C0.569766 2.27094 0.439765 1.62094 0.619765 0.980939C0.729765 0.560939 1.14977 0.230939 1.61977 0.220939C2.05977 0.210939 2.49977 0.220939 2.93977 0.230939C2.94977 0.230939 2.96977 0.240939 2.99977 0.250939L2.98977 1.36094C2.98977 1.69094 3.14977 1.88094 3.42977 1.88094C3.70977 1.88094 3.86977 1.70094 3.86977 1.36094L3.87977 0.250939L10.8698 0.320939C10.8698 0.370939 10.8798 0.410939 10.8798 0.460939C10.8798 0.820939 10.8698 1.18094 10.8698 1.54094C10.8698 1.74094 10.9998 1.89094 11.1898 1.95094C11.3598 2.00094 11.5698 1.94094 11.6598 1.80094C11.7098 1.72094 11.7398 1.61094 11.7498 1.51094C11.7598 1.17094 11.7598 0.830939 11.7598 0.490939V0.330939C11.9498 0.330939 12.1198 0.330939 12.2998 0.340939C12.6298 0.350939 12.9598 0.340939 13.2898 0.370939C13.6798 0.410939 13.9998 0.600939 14.2598 0.870939C14.4298 1.05094 14.5398 1.27094 14.5498 1.50094C14.5498 2.01094 14.5298 2.53094 14.5298 3.06094Z" fill="#B53B33"/>
<path d="M9.90989 10.59C9.89989 10.23 9.89989 9.86 9.91989 9.5C9.90989 9.86 9.89989 10.22 9.90989 10.59Z" fill="#B53B33"/>
<path d="M9.91992 10.6602C9.92992 10.7102 9.95992 10.7502 9.98992 10.7902C9.95992 10.7502 9.92992 10.7002 9.91992 10.6602Z" fill="#B53B33"/>
<path d="M2.94976 9.9707C2.94976 10.1407 2.94976 10.3007 2.94976 10.4707C2.93976 10.3007 2.94976 10.1307 2.94976 9.9707Z" fill="#B53B33"/>
<path d="M9.94994 5.79102C9.93994 6.13102 9.93994 6.48102 9.93994 6.82102C9.93994 6.48102 9.93994 6.14102 9.94994 5.79102Z" fill="#B53B33"/>
<path d="M6.46973 6.91016C6.47973 6.95016 6.50973 6.99016 6.53973 7.02016C6.49973 6.99016 6.47973 6.96016 6.46973 6.91016Z" fill="#B53B33"/>
</svg>
