<svg width="15" height="16" viewBox="0 0 15 16" fill="none" xmlns="http://www.w3.org/2000/svg">
<path d="M7.44 15.4401C11.549 15.4401 14.88 12.1091 14.88 8.00006C14.88 3.89106 11.549 0.560059 7.44 0.560059C3.331 0.560059 0 3.89106 0 8.00006C0 12.1091 3.331 15.4401 7.44 15.4401Z" fill="#EFD4CE"/>
<path d="M11.8499 4.62011C11.7499 4.72011 11.6499 4.82011 11.5499 4.93011C11.2499 5.23011 10.9599 5.52011 10.6599 5.82011C10.5299 5.95011 10.3899 6.08011 10.2599 6.22011C9.96992 6.51011 9.68992 6.80011 9.39992 7.09011C9.21992 7.27011 9.03992 7.45011 8.85992 7.64011C8.53992 7.96011 8.22992 8.28011 7.90992 8.60011C7.82992 8.68011 7.73992 8.77011 7.64992 8.85011C7.52992 8.95011 7.31992 8.93011 7.20992 8.82011C6.93992 8.54011 6.66992 8.27011 6.40992 8.01011C6.21992 7.82011 6.02992 7.64011 5.84992 7.45011C5.59992 7.20011 5.33992 6.94011 5.08992 6.69011C4.90992 6.51011 4.72992 6.33011 4.54992 6.14011C4.29992 5.89011 4.03992 5.63011 3.77992 5.37011C3.54992 5.14011 3.31992 4.91011 3.08992 4.68011C3.07992 4.67011 3.06992 4.65011 3.03992 4.62011C3.14992 4.60011 3.24992 4.57011 3.34992 4.56011C3.37992 4.55011 3.41992 4.56011 3.44992 4.56011C6.11992 4.56011 8.77992 4.56011 11.4499 4.56011C11.5799 4.56011 11.7199 4.60011 11.8499 4.61011C11.8499 4.60011 11.8499 4.61011 11.8499 4.62011Z" fill="#B14426"/>
<path d="M11.8499 11.3702V11.4102C11.7199 11.4302 11.5799 11.4602 11.4399 11.4602C9.19993 11.4602 6.95993 11.4602 4.71993 11.4602C4.27993 11.4602 3.84993 11.4602 3.40993 11.4602C3.28993 11.4602 3.16993 11.4302 3.04993 11.4102C3.04993 11.4002 3.04993 11.3802 3.04993 11.3702C3.14993 11.2702 3.24993 11.1602 3.34993 11.0602C3.42993 10.9802 3.51993 10.9002 3.59993 10.8102C3.81993 10.5802 4.04993 10.3502 4.27993 10.1202C4.52993 9.87016 4.77993 9.61015 5.02993 9.36015C5.21993 9.17015 5.40993 8.98016 5.58993 8.80016C5.70993 8.68016 5.82993 8.56016 5.94993 8.44016C5.98993 8.40016 6.00993 8.41016 6.03993 8.44016C6.18993 8.60016 6.33993 8.76016 6.49993 8.91016C6.65993 9.06016 6.80993 9.24016 6.98993 9.35016C7.32993 9.56016 7.68993 9.53016 8.00993 9.28016C8.10993 9.20016 8.19993 9.11016 8.28993 9.02016C8.48993 8.82016 8.68993 8.61016 8.88993 8.41016C8.99993 8.52016 9.10993 8.62016 9.21993 8.73016C9.43993 8.96016 9.66993 9.19016 9.88993 9.42016C10.1399 9.67016 10.3899 9.92016 10.6399 10.1702C10.8899 10.4202 11.1399 10.6802 11.3899 10.9302C11.5499 11.0702 11.6899 11.2202 11.8499 11.3702Z" fill="#B14426"/>
<path d="M5.57997 8.00001C5.46997 8.11001 5.37997 8.21001 5.27997 8.32001C5.19997 8.40001 5.10997 8.48001 5.02997 8.57001C4.80997 8.80001 4.57997 9.03001 4.35997 9.26001C4.10997 9.51001 3.84997 9.77001 3.59997 10.02C3.41997 10.2 3.22997 10.39 3.04997 10.57C2.92997 10.69 2.79997 10.81 2.67997 10.93C2.62997 10.98 2.59997 10.96 2.58997 10.9C2.56997 10.8 2.53997 10.71 2.53997 10.61C2.52997 8.86 2.52997 7.12001 2.53997 5.38001C2.53997 5.26001 2.57997 5.15001 2.59997 5.01001C2.63997 5.04001 2.65997 5.05001 2.66997 5.06001C2.82997 5.22001 2.98997 5.39001 3.13997 5.55001C3.40997 5.82001 3.68997 6.09001 3.95997 6.37001C4.10997 6.52001 4.25997 6.68001 4.41997 6.84001C4.62997 7.06001 4.84997 7.27001 5.06997 7.48001C5.23997 7.65001 5.40997 7.82001 5.57997 8.00001Z" fill="#B14426"/>
<path d="M12.3499 5.42003V10.56C12.3499 10.7 12.3299 10.83 12.2699 10.97C12.1599 10.86 12.0499 10.75 11.9399 10.65C11.6599 10.37 11.3799 10.08 11.0899 9.79003C10.8999 9.60003 10.7199 9.41003 10.5299 9.23003C10.2799 8.98003 10.0199 8.72003 9.76994 8.47003C9.62994 8.33003 9.47994 8.19003 9.33994 8.05003C9.32994 8.04003 9.31994 8.02003 9.30994 8.01003C9.38994 7.93003 9.45994 7.84003 9.53994 7.76003C9.68994 7.61003 9.84994 7.46003 9.99994 7.31003C10.2799 7.03003 10.5599 6.74003 10.8399 6.45003C11.0199 6.27003 11.1899 6.10003 11.3699 5.92003C11.6699 5.63003 11.9599 5.33003 12.2599 5.03003C12.3299 5.16003 12.3499 5.29003 12.3499 5.42003Z" fill="#B14426"/>
</svg>
