<svg width="15" height="16" viewBox="0 0 15 16" fill="none" xmlns="http://www.w3.org/2000/svg">
<path d="M7.44 15.4401C11.549 15.4401 14.88 12.1091 14.88 8.00006C14.88 3.89106 11.549 0.560059 7.44 0.560059C3.331 0.560059 0 3.89106 0 8.00006C0 12.1091 3.331 15.4401 7.44 15.4401Z" fill="#EFD4CE"/>
<path d="M12.21 7.52007C12.13 7.85007 11.82 8.11006 11.48 8.17006C11.37 8.19006 11.25 8.19007 11.12 8.20007V11.0101C11.12 11.2401 11.08 11.4401 10.95 11.6301C10.83 11.8001 10.68 11.9301 10.5 12.0101C10.39 12.0501 10.27 12.0801 10.15 12.1201H8.31003C8.13003 12.0501 8.05003 11.9301 8.05003 11.7301C8.06003 11.0401 8.04003 10.3401 8.06003 9.65007C8.07003 9.31007 7.84003 9.11007 7.56003 9.11007C7.23003 9.10007 6.91003 9.10007 6.59003 9.11007C6.31003 9.11007 6.07003 9.31007 6.08003 9.66007C6.10003 10.3501 6.08003 11.0601 6.09003 11.7601C6.09003 11.9501 6.04003 12.0501 5.83003 12.1301H3.99003C3.86003 12.0901 3.73003 12.0501 3.60003 12.0001C3.32003 11.8701 3.13003 11.6401 3.05003 11.3301C3.02003 11.2401 3.02003 11.1301 3.02003 11.0301V8.20007C2.93003 8.20007 2.86003 8.21007 2.79003 8.20007C2.46003 8.17007 2.18003 8.02007 2.01003 7.70007C1.98003 7.62007 1.95003 7.53007 1.91003 7.45007V7.19007C1.92003 7.16007 1.93003 7.13007 1.93003 7.11007C1.99003 6.98007 2.05003 6.84006 2.14003 6.74006C2.32003 6.55006 2.51003 6.38007 2.71003 6.20007C2.84003 6.08007 2.97003 5.96007 3.09003 5.84007C3.35003 5.60007 3.60003 5.36007 3.86003 5.12007C3.98003 5.01007 4.09003 4.90007 4.21003 4.79007C4.45003 4.57007 4.70003 4.36007 4.94003 4.13007C5.13003 3.95007 5.31003 3.77007 5.51003 3.59007C5.80003 3.32007 6.10003 3.05006 6.39003 2.78006C6.57003 2.60006 6.79003 2.52006 7.03003 2.50006C7.35003 2.48006 7.61003 2.61007 7.84003 2.83007C7.97003 2.96007 8.10003 3.09006 8.24003 3.21006C8.50003 3.44006 8.74003 3.67007 9.00003 3.90007C9.12003 4.02007 9.25003 4.13006 9.37003 4.25006C9.61003 4.48006 9.85003 4.69006 10.09 4.92006C10.28 5.10006 10.46 5.27006 10.66 5.46006C10.92 5.70006 11.19 5.95007 11.44 6.19007C11.58 6.31007 11.71 6.42007 11.83 6.54007C11.95 6.66007 12.07 6.78006 12.16 6.92006C12.25 7.11006 12.25 7.32007 12.21 7.52007Z" fill="#B14426"/>
</svg>
