<svg width="15" height="16" viewBox="0 0 15 16" fill="none" xmlns="http://www.w3.org/2000/svg">
<path d="M14.5101 13.2405C14.0601 13.6905 13.6101 14.1405 13.1601 14.5905C12.8401 14.9105 12.4401 15.0705 12.0001 15.1305C11.9601 15.1405 11.9301 15.1505 11.8901 15.1605H11.2801C10.9101 15.0805 10.5401 15.0205 10.1801 14.9205C9.44007 14.7205 8.75007 14.3805 8.09007 14.0005C6.21007 12.9105 4.60007 11.5005 3.18007 9.87055C2.25007 8.82055 1.44007 7.68055 0.820067 6.42055C0.440067 5.64055 0.140067 4.84055 0.030067 3.97055C-0.0299329 3.43055 -0.00993316 2.89055 0.250067 2.39055C0.340067 2.23055 0.450067 2.08055 0.570067 1.96055C1.00007 1.51055 1.45007 1.08055 1.89007 0.630548C2.49007 0.0105482 3.43007 0.0805482 4.00007 0.630548C4.69007 1.30055 5.35007 1.97055 6.02007 2.65055C6.61007 3.24055 6.61007 4.14055 6.03007 4.68055C5.91007 4.80055 5.75007 4.89055 5.59007 4.95055C5.18007 5.11055 4.86007 5.36055 4.68007 5.77055C4.56007 6.04055 4.55007 6.32055 4.62007 6.61055C4.84007 7.42055 5.30007 8.09055 5.86007 8.70055C6.43007 9.34055 7.09007 9.88055 7.87007 10.2605C8.21007 10.4305 8.56007 10.5805 8.96007 10.5305C9.49007 10.4605 9.90007 10.2005 10.1101 9.69055C10.2401 9.37055 10.4001 9.08055 10.7001 8.89055C11.2701 8.54055 11.9601 8.60055 12.4601 9.09055C13.1601 9.77055 13.8601 10.4605 14.5401 11.1705C15.1001 11.7405 15.0801 12.6605 14.5101 13.2405Z" fill="#B53B33"/>
</svg>
