<svg width="24" height="20" viewBox="0 0 24 20" fill="none" xmlns="http://www.w3.org/2000/svg">
<g filter="url(#filter0_d_258_10041)">
<path d="M19.1125 0.549251C18.9512 0.710542 18.7899 0.871834 18.6286 1.04925C18.1448 1.53312 17.677 2.00087 17.1932 2.48474C16.9835 2.69441 16.7577 2.90409 16.548 3.1299C16.0803 3.59764 15.6286 4.06538 15.1609 4.53312C14.8706 4.82345 14.5803 5.11377 14.2899 5.42022C13.7738 5.93635 13.2738 6.45248 12.7577 6.96861C12.6286 7.09764 12.4835 7.24281 12.3383 7.37184C12.1448 7.53313 11.8061 7.50087 11.6286 7.32345C11.1932 6.87183 10.7577 6.43635 10.3383 6.017C10.0319 5.71055 9.72541 5.42022 9.43509 5.11377C9.03186 4.71055 8.61251 4.29119 8.20928 3.88796C7.91896 3.59764 7.62864 3.30732 7.33832 3.00087C6.93509 2.59764 6.51574 2.17828 6.09638 1.75893C5.72541 1.38796 5.35444 1.017 4.98348 0.646028C4.96735 0.629899 4.95122 0.597638 4.90283 0.549251C5.08025 0.516993 5.24154 0.46861 5.40283 0.452481C5.45122 0.436352 5.51574 0.452481 5.56412 0.452481C9.87057 0.452481 14.1609 0.452481 18.4674 0.452481C18.677 0.452481 18.9028 0.516996 19.1125 0.533125C19.1125 0.516996 19.1125 0.533122 19.1125 0.549251Z" fill="white"/>
<path d="M19.1125 11.4343V11.4989C18.9028 11.5311 18.677 11.5795 18.4512 11.5795C14.8383 11.5795 11.2254 11.5795 7.61249 11.5795C6.90282 11.5795 6.20927 11.5795 5.49959 11.5795C5.30604 11.5795 5.11249 11.5311 4.91895 11.4989C4.91895 11.4827 4.91895 11.4505 4.91895 11.4343C5.08024 11.2731 5.24153 11.0956 5.40282 10.9344C5.53185 10.8053 5.67701 10.6763 5.80604 10.5311C6.16088 10.1602 6.53185 9.78919 6.90282 9.41822C7.30604 9.01499 7.70927 8.59564 8.11249 8.19241C8.41895 7.88596 8.7254 7.57951 9.01572 7.28919C9.20927 7.09564 9.40282 6.90209 9.59636 6.70854C9.66088 6.64403 9.69314 6.66015 9.74153 6.70854C9.98346 6.96661 10.2254 7.22467 10.4835 7.46661C10.7415 7.70854 10.9835 7.99887 11.2738 8.17629C11.8222 8.515 12.4028 8.46661 12.9189 8.06339C13.0802 7.93435 13.2254 7.78919 13.3706 7.64403C13.6931 7.32145 14.0157 6.98274 14.3383 6.66016C14.5157 6.83758 14.6931 6.99887 14.8706 7.17628C15.2254 7.54725 15.5964 7.91822 15.9512 8.28919C16.3544 8.69242 16.7577 9.09564 17.1609 9.49887C17.5641 9.9021 17.9673 10.3215 18.3706 10.7247C18.6286 10.9505 18.8544 11.1924 19.1125 11.4343Z" fill="white"/>
<path d="M8.9998 6.00227C8.82238 6.17968 8.67721 6.34097 8.51592 6.51839C8.38689 6.64743 8.24173 6.77646 8.1127 6.92162C7.75786 7.29259 7.38689 7.66356 7.03205 8.03453C6.62883 8.43775 6.20947 8.85711 5.80625 9.26033C5.51592 9.55065 5.20947 9.85711 4.91915 10.1474C4.7256 10.341 4.51592 10.5345 4.32238 10.7281C4.24173 10.8087 4.19334 10.7765 4.17721 10.6797C4.14496 10.5184 4.09657 10.3732 4.09657 10.2119C4.08044 7.38936 4.08044 4.58291 4.09657 1.77646C4.09657 1.58291 4.16109 1.40549 4.19334 1.17969C4.25786 1.22807 4.29012 1.2442 4.30625 1.26033C4.56431 1.5184 4.82238 1.79259 5.06431 2.05065C5.4998 2.48613 5.95141 2.92162 6.38689 3.37323C6.62883 3.61517 6.87076 3.87323 7.12883 4.1313C7.46754 4.48614 7.82238 4.82485 8.17721 5.16355C8.45141 5.43775 8.7256 5.71194 8.9998 6.00227Z" fill="white"/>
<path d="M19.9193 1.83997V10.1303C19.9193 10.3561 19.8871 10.5658 19.7903 10.7916C19.6129 10.6142 19.4355 10.4367 19.258 10.2755C18.8064 9.82384 18.3548 9.3561 17.8871 8.88836C17.5806 8.5819 17.2903 8.27546 16.9839 7.98513C16.5806 7.58191 16.1613 7.16256 15.758 6.75933C15.5322 6.53352 15.2903 6.30771 15.0645 6.08191C15.0484 6.06578 15.0322 6.03352 15.0161 6.0174C15.1451 5.88836 15.258 5.7432 15.3871 5.61417C15.629 5.37223 15.8871 5.1303 16.129 4.88836C16.5806 4.43675 17.0322 3.96901 17.4839 3.50126C17.7742 3.21094 18.0484 2.93675 18.3387 2.64643C18.8226 2.17868 19.2903 1.69481 19.7742 1.21094C19.8871 1.42061 19.9193 1.6303 19.9193 1.83997Z" fill="white"/>
</g>
<defs>
<filter id="filter0_d_258_10041" x="0.0844727" y="0.445312" width="23.835" height="19.1348" filterUnits="userSpaceOnUse" color-interpolation-filters="sRGB">
<feFlood flood-opacity="0" result="BackgroundImageFix"/>
<feColorMatrix in="SourceAlpha" type="matrix" values="0 0 0 0 0 0 0 0 0 0 0 0 0 0 0 0 0 0 127 0" result="hardAlpha"/>
<feOffset dy="4"/>
<feGaussianBlur stdDeviation="2"/>
<feComposite in2="hardAlpha" operator="out"/>
<feColorMatrix type="matrix" values="0 0 0 0 0 0 0 0 0 0 0 0 0 0 0 0 0 0 0.25 0"/>
<feBlend mode="normal" in2="BackgroundImageFix" result="effect1_dropShadow_258_10041"/>
<feBlend mode="normal" in="SourceGraphic" in2="effect1_dropShadow_258_10041" result="shape"/>
</filter>
</defs>
</svg>
