<svg width="12" height="16" viewBox="0 0 12 16" fill="none" xmlns="http://www.w3.org/2000/svg">
<path d="M10.5001 14.0185C9.4033 14.712 8.19363 15.1314 6.88718 15.2604C6.51621 15.2927 6.16137 15.3088 5.80653 15.3249C4.25814 15.2604 2.83879 14.8411 1.51621 14.0507C0.0645949 13.1636 -0.209599 11.1959 0.951692 9.93784C2.06459 8.74429 3.43556 8.00236 5.04847 7.79268C7.41943 7.50236 9.43556 8.22816 11.0646 9.9701C12.1936 11.1798 11.9194 13.1475 10.5001 14.0185Z" fill="white"/>
<path d="M9.3552 3.38659C9.3552 5.2253 7.83907 6.74143 6.01649 6.74143C4.12939 6.74143 2.64552 5.24143 2.62939 3.33821C2.62939 1.53175 4.16165 0.015625 5.98423 0.015625C7.8552 0.015625 9.3552 1.51562 9.3552 3.38659Z" fill="white"/>
</svg>
