<svg width="15" height="16" viewBox="0 0 15 16" fill="none" xmlns="http://www.w3.org/2000/svg">
<path d="M14.5101 13.2396C14.0601 13.6896 13.6101 14.1396 13.1601 14.5896C12.8401 14.9096 12.4401 15.0696 12.0001 15.1296C11.9601 15.1396 11.9301 15.1496 11.8901 15.1596H11.2801C10.9101 15.0796 10.5401 15.0196 10.1801 14.9196C9.44007 14.7196 8.75007 14.3796 8.09007 13.9996C6.21007 12.9096 4.60007 11.4996 3.18007 9.86957C2.25007 8.81957 1.44007 7.67957 0.820067 6.41957C0.440067 5.63957 0.140067 4.83957 0.030067 3.96957C-0.0299329 3.42957 -0.00993316 2.88957 0.250067 2.38957C0.340067 2.22957 0.450067 2.07957 0.570067 1.95957C1.00007 1.50957 1.45007 1.07957 1.89007 0.629572C2.49007 0.00957161 3.43007 0.0795716 4.00007 0.629572C4.69007 1.29957 5.35007 1.96957 6.02007 2.64957C6.61007 3.23957 6.61007 4.13957 6.03007 4.67957C5.91007 4.79957 5.75007 4.88957 5.59007 4.94957C5.18007 5.10957 4.86007 5.35957 4.68007 5.76957C4.56007 6.03957 4.55007 6.31957 4.62007 6.60957C4.84007 7.41957 5.30007 8.08957 5.86007 8.69957C6.43007 9.33957 7.09007 9.87957 7.87007 10.2596C8.21007 10.4296 8.56007 10.5796 8.96007 10.5296C9.49007 10.4596 9.90007 10.1996 10.1101 9.68957C10.2401 9.36957 10.4001 9.07957 10.7001 8.88957C11.2701 8.53957 11.9601 8.59957 12.4601 9.08957C13.1601 9.76957 13.8601 10.4596 14.5401 11.1696C15.1001 11.7396 15.0801 12.6596 14.5101 13.2396Z" fill="white"/>
</svg>
