<svg width="17" height="18" viewBox="0 0 17 18" fill="none" xmlns="http://www.w3.org/2000/svg">
<path d="M8.12 17.1199C12.6046 17.1199 16.24 13.4844 16.24 8.99988C16.24 4.51533 12.6046 0.879883 8.12 0.879883C3.63545 0.879883 0 4.51533 0 8.99988C0 13.4844 3.63545 17.1199 8.12 17.1199Z" fill="#CED5EF"/>
<path d="M13.22 12.0599V12.1099C13.22 12.1399 13.21 12.1699 13.2 12.1999C13.18 12.4499 13.08 12.6699 12.91 12.8499C12.62 13.1599 12.31 13.4499 12.01 13.7599C11.88 13.8799 11.73 13.9999 11.55 14.0599C11.43 14.0999 11.28 14.1299 11.15 14.1699H10.69C10.48 14.1199 10.28 14.0899 10.07 14.0399C9.53 13.8999 9.01 13.6599 8.52 13.3699C7.23 12.6099 6.12 11.6399 5.15 10.4999C4.53 9.78989 4 9.02989 3.58 8.17989C3.31 7.64989 3.1 7.0999 3.04 6.5099C2.98 6.0799 2.97 5.62989 3.26 5.28989C3.64 4.84989 4.06 4.44989 4.49 4.05989C4.62 3.94989 4.8 3.88989 4.98 3.88989C5.2 3.88989 5.42 3.95989 5.59 4.07989C5.67 4.12989 5.74 4.18989 5.81 4.25989C6.25 4.69989 6.68 5.13989 7.12 5.5799C7.49 5.94989 7.53 6.49989 7.23 6.87989C7.13 7.00989 6.99 7.11989 6.83 7.17989C6.54 7.28989 6.33 7.45989 6.2 7.73989C6.12 7.91989 6.11 8.09989 6.16 8.28989C6.29 8.81989 6.59 9.2699 6.94 9.6699C7.35 10.1399 7.81 10.5399 8.38 10.8199C8.62 10.9299 8.86 11.0299 9.13 10.9899C9.48 10.9399 9.74 10.7699 9.89 10.4499C9.97 10.3099 10.02 10.1399 10.12 10.0299C10.46 9.64989 11.04 9.60989 11.44 9.93989C11.48 9.96989 11.52 10.0199 11.56 10.0499L12.87 11.3699C13.05 11.5499 13.18 11.7599 13.19 12.0399C13.21 12.0299 13.22 12.0499 13.22 12.0599Z" fill="#2634B1"/>
</svg>
