<svg width="15" height="16" viewBox="0 0 15 16" fill="none" xmlns="http://www.w3.org/2000/svg">
<path d="M7.44 15.4401C11.549 15.4401 14.88 12.1091 14.88 8.00006C14.88 3.89106 11.549 0.560059 7.44 0.560059C3.331 0.560059 0 3.89106 0 8.00006C0 12.1091 3.331 15.4401 7.44 15.4401Z" fill="#CED5EF"/>
<path d="M11.85 4.62011C11.75 4.72011 11.65 4.82011 11.55 4.93011C11.25 5.23011 10.96 5.52011 10.66 5.82011C10.53 5.95011 10.39 6.08011 10.26 6.22011C9.96998 6.51011 9.68998 6.80011 9.39998 7.09011C9.21998 7.27011 9.03998 7.45011 8.85998 7.64011C8.53998 7.96011 8.22998 8.28011 7.90998 8.60011C7.82998 8.68011 7.73998 8.77011 7.64998 8.85011C7.52998 8.95011 7.31998 8.93011 7.20998 8.82011C6.93998 8.54011 6.66998 8.27011 6.40998 8.01011C6.21998 7.82011 6.02998 7.64011 5.84998 7.45011C5.59998 7.20011 5.33998 6.94011 5.08998 6.69011C4.90998 6.51011 4.72998 6.33011 4.54998 6.14011C4.29998 5.89011 4.03998 5.63011 3.77998 5.37011C3.54998 5.14011 3.31998 4.91011 3.08998 4.68011C3.07998 4.67011 3.06998 4.65011 3.03998 4.62011C3.14998 4.60011 3.24998 4.57011 3.34998 4.56011C3.37998 4.55011 3.41998 4.56011 3.44998 4.56011C6.11998 4.56011 8.77998 4.56011 11.45 4.56011C11.58 4.56011 11.72 4.60011 11.85 4.61011C11.85 4.60011 11.85 4.61011 11.85 4.62011Z" fill="#2634B1"/>
<path d="M11.85 11.3702V11.4102C11.72 11.4302 11.58 11.4602 11.44 11.4602C9.19999 11.4602 6.95999 11.4602 4.71999 11.4602C4.27999 11.4602 3.84999 11.4602 3.40999 11.4602C3.28999 11.4602 3.16999 11.4302 3.04999 11.4102C3.04999 11.4002 3.04999 11.3802 3.04999 11.3702C3.14999 11.2702 3.24999 11.1602 3.34999 11.0602C3.42999 10.9802 3.51999 10.9002 3.59999 10.8102C3.81999 10.5802 4.04999 10.3502 4.27999 10.1202C4.52999 9.87016 4.77999 9.61015 5.02999 9.36015C5.21999 9.17015 5.40999 8.98016 5.58999 8.80016C5.70999 8.68016 5.82999 8.56016 5.94999 8.44016C5.98999 8.40016 6.00999 8.41016 6.03999 8.44016C6.18999 8.60016 6.33999 8.76016 6.49999 8.91016C6.65999 9.06016 6.80999 9.24016 6.98999 9.35016C7.32999 9.56016 7.68999 9.53016 8.00999 9.28016C8.10999 9.20016 8.19999 9.11016 8.28999 9.02016C8.48999 8.82016 8.68999 8.61016 8.88999 8.41016C8.99999 8.52016 9.10999 8.62016 9.21999 8.73016C9.43999 8.96016 9.66999 9.19016 9.88999 9.42016C10.14 9.67016 10.39 9.92016 10.64 10.1702C10.89 10.4202 11.14 10.6802 11.39 10.9302C11.55 11.0702 11.69 11.2202 11.85 11.3702Z" fill="#2634B1"/>
<path d="M5.57997 8.00001C5.46997 8.11001 5.37997 8.21001 5.27997 8.32001C5.19997 8.40001 5.10997 8.48001 5.02997 8.57001C4.80997 8.80001 4.57997 9.03001 4.35997 9.26001C4.10997 9.51001 3.84997 9.77001 3.59997 10.02C3.41997 10.2 3.22997 10.39 3.04997 10.57C2.92997 10.69 2.79997 10.81 2.67997 10.93C2.62997 10.98 2.59997 10.96 2.58997 10.9C2.56997 10.8 2.53997 10.71 2.53997 10.61C2.52997 8.86 2.52997 7.12001 2.53997 5.38001C2.53997 5.26001 2.57997 5.15001 2.59997 5.01001C2.63997 5.04001 2.65997 5.05001 2.66997 5.06001C2.82997 5.22001 2.98997 5.39001 3.13997 5.55001C3.40997 5.82001 3.68997 6.09001 3.95997 6.37001C4.10997 6.52001 4.25997 6.68001 4.41997 6.84001C4.62997 7.06001 4.84997 7.27001 5.06997 7.48001C5.23997 7.65001 5.40997 7.82001 5.57997 8.00001Z" fill="#2634B1"/>
<path d="M12.35 5.42003V10.56C12.35 10.7 12.33 10.83 12.27 10.97C12.16 10.86 12.05 10.75 11.94 10.65C11.66 10.37 11.38 10.08 11.09 9.79003C10.9 9.60003 10.72 9.41003 10.53 9.23003C10.28 8.98003 10.02 8.72003 9.77 8.47003C9.63 8.33003 9.48 8.19003 9.34 8.05003C9.33 8.04003 9.32 8.02003 9.31 8.01003C9.39 7.93003 9.46 7.84003 9.54 7.76003C9.69 7.61003 9.85 7.46003 10 7.31003C10.28 7.03003 10.56 6.74003 10.84 6.45003C11.02 6.27003 11.19 6.10003 11.37 5.92003C11.67 5.63003 11.96 5.33003 12.26 5.03003C12.33 5.16003 12.35 5.29003 12.35 5.42003Z" fill="#2634B1"/>
</svg>
