<svg width="17" height="18" viewBox="0 0 17 18" fill="none" xmlns="http://www.w3.org/2000/svg">
<path d="M8.12 17.1199C12.6046 17.1199 16.24 13.4844 16.24 8.99988C16.24 4.51533 12.6046 0.879883 8.12 0.879883C3.63545 0.879883 0 4.51533 0 8.99988C0 13.4844 3.63545 17.1199 8.12 17.1199Z" fill="#EFD4CE"/>
<path d="M13.2199 12.0599V12.1099C13.2199 12.1399 13.2099 12.1699 13.1999 12.1999C13.1799 12.4499 13.0799 12.6699 12.9099 12.8499C12.6199 13.1599 12.3099 13.4499 12.0099 13.7599C11.8799 13.8799 11.7299 13.9999 11.5499 14.0599C11.4299 14.0999 11.2799 14.1299 11.1499 14.1699H10.6899C10.4799 14.1199 10.2799 14.0899 10.0699 14.0399C9.52994 13.8999 9.00994 13.6599 8.51994 13.3699C7.22994 12.6099 6.11994 11.6399 5.14994 10.4999C4.52994 9.78989 3.99994 9.02989 3.57994 8.17989C3.30994 7.64989 3.09994 7.0999 3.03994 6.5099C2.97994 6.0799 2.96994 5.62989 3.25994 5.28989C3.63994 4.84989 4.05994 4.44989 4.48994 4.05989C4.61994 3.94989 4.79994 3.88989 4.97994 3.88989C5.19994 3.88989 5.41994 3.95989 5.58994 4.07989C5.66994 4.12989 5.73994 4.18989 5.80994 4.25989C6.24994 4.69989 6.67994 5.13989 7.11994 5.5799C7.48994 5.94989 7.52994 6.49989 7.22994 6.87989C7.12994 7.00989 6.98994 7.11989 6.82994 7.17989C6.53994 7.28989 6.32994 7.45989 6.19994 7.73989C6.11994 7.91989 6.10994 8.09989 6.15994 8.28989C6.28994 8.81989 6.58994 9.2699 6.93994 9.6699C7.34994 10.1399 7.80994 10.5399 8.37994 10.8199C8.61994 10.9299 8.85994 11.0299 9.12994 10.9899C9.47994 10.9399 9.73994 10.7699 9.88994 10.4499C9.96994 10.3099 10.0199 10.1399 10.1199 10.0299C10.4599 9.64989 11.0399 9.60989 11.4399 9.93989C11.4799 9.96989 11.5199 10.0199 11.5599 10.0499L12.8699 11.3699C13.0499 11.5499 13.1799 11.7599 13.1899 12.0399C13.2099 12.0299 13.2199 12.0499 13.2199 12.0599Z" fill="#B14426"/>
</svg>
