<?xml version="1.0" encoding="UTF-8"?>
<svg version="1.1" viewBox="0 0 980 980" width="400" height="400" xmlns="http://www.w3.org/2000/svg">
<path transform="translate(0)" d="m0 0h980v980h-980z" fill="#FEFEFE"/>
<path transform="translate(248,153)" d="m0 0h373l13 4 12 7 11 11 6 10 4 12 1 7v319l5 1 9 6 6 7 9 13 13 18 14 20 13 18 14 20 12 17 10 14 4 9 1 4v11l-4 11-7 9-14 7h-187l-10-4-7-5-7-11-2-8v-10l4-11 8-12 13-18 1-2-314-1-12-3-14-7-11-10-7-11-5-13-1-6v-374l4-15 7-12 7-8 10-7 10-5z" fill="#020202"/>
<path transform="translate(255,300)" d="m0 0h360l1 1v257l-10 14-1 1h-349l-1-2z" fill="#FEFEFE"/>
<path transform="translate(255,170)" d="m0 0h361l10 3 9 5 5 5 6 8 4 11v46h-430v-46l4-11 6-8 8-7 8-4z" fill="#FEFEFE"/>
<path transform="translate(430,336)" d="m0 0h10l16 4 10 6 10 9 7 11 4 12 1 6v29l6 1 6 4 5 6 3 7v95l-4 10-9 8-6 2h-108l-9-4-7-7-3-8v-96l4-9 9-8 6-2 1-28 4-16 5-9 9-10 10-7 10-4z" fill="#020202"/>
<path transform="translate(220,265)" d="m0 0h430v258l-12 6-5 4-1-245-4-4h-386l-4 4v286l5 10 8 5 3 1 338 1-4 7-7 10h-329l-12-4-10-8-7-10-3-10z" fill="#FEFEFE"/>
<path transform="translate(655,539)" d="m0 0h8l6 3 8 10 11 16 12 17 13 18 14 20 10 14 12 17 9 13 2 4v9l-4 6-5 4-4 1h-176l-8-4-4-5-1-2v-9l5-9 9-12 14-20 13-18 14-20 12-17 13-18 10-14z" fill="#FEFEFE"/>
<path transform="translate(383,430)" d="m0 0h104l3 3 1 5v83l-2 5-2 2h-104l-3-3v-92z" fill="#FEFEFE"/>
<path transform="translate(430,354)" d="m0 0h10l10 3 10 7 6 8 4 11v29h-70v-28l3-10 6-9 9-7 7-3z" fill="#FEFEFE"/>
<path transform="translate(429,442)" d="m0 0h12l9 4 6 5 4 7 1 4v12l-3 8-5 6-6 4h-3v18l-2 4-3 2h-8l-4-4-1-2-1-17-9-6-6-9-2-11 3-11 6-8 6-4z" fill="#020202"/>
<path transform="translate(490,200)" d="m0 0h124l5 4 1 2v6l-4 5-2 1h-124l-6-5v-7l4-5z" fill="#020202"/>
<path transform="translate(340,183)" d="m0 0h12l8 3 7 6 5 10v14l-5 10-9 7-6 2h-12l-7-3-6-4-6-10-1-3v-11l4-10 7-7z" fill="#020202"/>
<path transform="translate(410,183)" d="m0 0h12l8 3 7 6 5 10 1 8-2 9-6 9-9 6-4 1h-11l-10-4-7-7-4-10v-10l4-10 7-7z" fill="#020202"/>
<path transform="translate(270,183)" d="m0 0h12l9 4 7 7 4 9v13l-4 8-4 5-6 4-6 2h-12l-9-4-5-5-4-5-2-6v-12l4-9 5-5 7-5z" fill="#020202"/>
<path transform="translate(277,322)" d="m0 0h103l5 4 1 7-3 5-4 2h-102l-5-4-1-2v-6l4-5z" fill="#020202"/>
<path transform="translate(658,568)" d="m0 0h6l5 4 1 2v62l-2 4-4 2h-6l-5-4-1-3v-60l4-6z" fill="#020202"/>
<path transform="translate(564,782)" d="m0 0h10l6 4 3 6 1 7v11l-2 9-6 7-8 2-8-2-5-6-2-7v-15l2-8 3-5z" fill="#020202"/>
<path transform="translate(277,352)" d="m0 0h57l6 5v8l-4 4-2 1h-56l-5-3-2-3v-6l4-5z" fill="#020202"/>
<path transform="translate(455,793)" d="m0 0 9 1 6 5 2 4v14l-4 7-5 3h-13l-5-3-3-6-1-9 3-10 5-4z" fill="#020202"/>
<path transform="translate(536,782)" d="m0 0 6 1 1 28 6 1-1 5-5 1-1 9h-5l-1-1v-9h-18l-1-1v-6l13-22 3-5z" fill="#020202"/>
<path transform="translate(565,787)" d="m0 0h7l4 5 1 3v19l-3 6-5 3-6-2-3-5-1-6v-12l3-8z" fill="#FEFEFE"/>
<path transform="translate(598,782)" d="m0 0h10l5 3 2 4v8l-2 4-3 2 6 5 1 2v9l-3 5-6 3h-13l-5-2-1-5 3-1 5 2h9l4-4-1-7-3-2-11-1-1-5 10-2 3-2v-8l-2-2h-7l-7 3-1-3 5-5z" fill="#020202"/>
<path transform="translate(363,783)" d="m0 0h24v4h-18v14h15l1 5h-16v16h18l1 3-1 2h-23l-1-1z" fill="#020202"/>
<path transform="translate(456,798)" d="m0 0 7 2 3 5v11l-3 5-7 2-6-3-2-3v-12l3-5z" fill="#FEFEFE"/>
<path transform="translate(433,793)" d="m0 0 6 2-1 5h-6l-5 6-1 21h-5l-1-1v-31l1-1h5l1 3 3-3z" fill="#020202"/>
<path transform="translate(493,793)" d="m0 0 6 2-1 5h-6l-4 4-1 2-1 21h-5l-1-1v-31l5-1 2 3 3-3z" fill="#020202"/>
<path transform="translate(408,793)" d="m0 0 6 1v6h-6l-5 5-1 22h-6v-32l5-1v4z" fill="#020202"/>
<path transform="translate(434,459)" d="m0 0 6 2 3 3 1 5-3 6-4 2-6-1-4-4-1-5 3-5z" fill="#FEFEFE"/>
<path transform="translate(660,654)" d="m0 0 7 2 3 5-1 7-4 3h-8l-4-4v-8l4-4z" fill="#020202"/>
<path transform="translate(413,201)" d="m0 0h7l4 4 1 6-3 5-6 2-5-2-3-4v-6z" fill="#FEFEFE"/>
<path transform="translate(342,201)" d="m0 0h8l4 4 1 5-3 6-7 2-5-3-2-2v-7z" fill="#FEFEFE"/>
<path transform="translate(272,201)" d="m0 0h8l4 4v8l-4 4-5 1-5-3-2-2v-8z" fill="#FEFEFE"/>
<path transform="translate(535,790)" d="m0 0h1v21l-1 1h-11l-1-2z" fill="#FEFEFE"/>
</svg>
