<svg width="338" height="324" viewBox="0 0 338 324" fill="none" xmlns="http://www.w3.org/2000/svg">
<path d="M70.5765 264.283C63.0225 258.999 56.1362 252.82 50.0681 245.88C19.6936 210.803 24.1565 161.324 49.7696 124.926C79.8605 82.1558 127.221 45.4825 179.037 27.3549C198.03 20.7053 219.471 18.2574 238.674 24.3697C255.189 29.5938 268.876 40.7883 279.16 53.8262C303.714 84.8798 314.117 132.464 316.401 171.242C318.229 201.616 311.923 233.566 292.982 257.35C249.995 311.241 163.058 305.285 105.436 282.672C93.1234 277.957 81.42 271.784 70.5765 264.283Z" fill="#00b14f" fill-opacity="0.29"/>
<path opacity="0.7" d="M81.8588 125.21H15.3633C15.5349 123.218 16.6245 120.8 18.3485 119.71C19.2 119.174 20.1613 118.835 21.1611 118.72C22.1609 118.605 23.1738 118.717 24.1249 119.046C23.3966 115.383 24.0819 111.581 26.0429 108.403C26.9911 106.81 28.2907 105.453 29.8428 104.438C31.3948 103.423 33.1582 102.775 34.9985 102.545C36.8355 102.354 38.6903 102.658 40.3702 103.425C42.05 104.193 43.4937 105.397 44.5512 106.911C44.7329 106.055 45.1694 105.273 45.8035 104.67C46.4376 104.067 47.2394 103.669 48.1035 103.53C48.978 103.394 49.8733 103.525 50.6723 103.905C51.4712 104.286 52.1366 104.899 52.5814 105.665C53.2207 104.366 54.1388 103.224 55.2702 102.321C56.4015 101.418 57.7183 100.776 59.1264 100.44C60.5457 100.07 62.0367 100.074 63.4543 100.45C64.8719 100.827 66.1679 101.564 67.2163 102.59C69.7463 105.202 70.112 109.157 70.3284 112.784C71.2314 111.605 73.0076 111.448 74.4256 111.896C75.1266 112.141 75.7662 112.535 76.3008 113.05C76.8354 113.565 77.2523 114.19 77.5228 114.881C78.0562 116.276 78.2157 117.787 77.9855 119.262C78.5927 119.327 79.1798 119.518 79.7092 119.823C80.2386 120.127 80.6987 120.539 81.0602 121.031C81.8002 122.29 82.0823 123.767 81.8588 125.21Z" fill="white"/>
<path opacity="0.7" d="M287.675 53.0353H230.762C230.143 46.9604 233.65 40.4825 239.15 37.848C241.936 36.5708 245.04 36.1576 248.062 36.6618C251.085 37.166 253.887 38.5644 256.106 40.6765C256.759 39.5514 257.76 38.6699 258.959 38.1661C260.158 37.6623 261.489 37.5638 262.749 37.8854C264.054 38.2188 265.221 38.9562 266.083 39.9921C266.945 41.0281 267.457 42.3098 267.547 43.6543C267.805 43.1877 268.201 42.8125 268.681 42.58C269.161 42.3475 269.701 42.2691 270.227 42.3557C270.718 42.4537 271.162 42.7136 271.488 43.0938C271.814 43.4739 272.003 43.9525 272.025 44.4528C272.377 43.4205 272.951 42.4779 273.707 41.6914C274.462 40.9049 275.381 40.2935 276.398 39.9004C277.379 39.5286 278.432 39.3845 279.476 39.4789C280.521 39.5733 281.53 39.9037 282.429 40.4452C284.191 41.6272 285.476 43.3965 286.056 45.4379C286.69 47.4455 287.638 50.9382 287.675 53.0353Z" fill="white"/>
<path opacity="0.7" d="M152.11 253.559H99.0256C98.7801 250.687 99.3922 247.807 100.784 245.282C102.177 242.758 104.287 240.704 106.847 239.379C109.443 238.187 112.336 237.799 115.154 238.264C117.972 238.73 120.587 240.028 122.661 241.991C123.268 240.94 124.204 240.117 125.324 239.647C126.444 239.178 127.687 239.089 128.863 239.394C130.081 239.706 131.169 240.393 131.973 241.36C132.777 242.326 133.256 243.521 133.341 244.775C133.582 244.341 133.952 243.991 134.399 243.773C134.846 243.556 135.35 243.481 135.841 243.559C136.298 243.654 136.711 243.898 137.015 244.253C137.319 244.609 137.497 245.055 137.52 245.521C137.848 244.559 138.383 243.681 139.087 242.947C139.791 242.213 140.647 241.643 141.595 241.275C142.51 240.927 143.492 240.792 144.467 240.88C145.442 240.968 146.384 241.276 147.222 241.782C148.868 242.882 150.067 244.534 150.603 246.439C151.379 248.746 151.885 251.136 152.11 253.559Z" fill="white"/>
<path opacity="0.7" d="M236.334 82.5067H206.602C206.636 81.3471 206.999 80.2212 207.649 79.2604C208.299 78.2997 209.21 77.5438 210.273 77.0811C211.328 76.6466 212.487 76.5267 213.608 76.7359C214.73 76.9451 215.767 77.4746 216.595 78.2603C216.609 77.7874 216.772 77.3312 217.062 76.9571C217.352 76.5831 217.752 76.3103 218.207 76.1781C218.672 76.0366 219.169 76.0369 219.634 76.1792C220.1 76.3214 220.512 76.599 220.819 76.9766C221.491 74.6327 223.013 72.6237 225.087 71.342C226.129 70.7158 227.311 70.3593 228.526 70.3045C229.74 70.2498 230.949 70.4987 232.043 71.0286C233.901 72.1106 235.268 73.8708 235.857 75.9393C236.498 77.9692 236.372 80.3798 236.334 82.5067Z" fill="white"/>
<path opacity="0.7" d="M323.543 286.904H286.684C286.726 285.468 287.176 284.075 287.98 282.885C288.785 281.696 289.912 280.76 291.229 280.187C292.541 279.653 293.979 279.509 295.371 279.774C296.763 280.039 298.048 280.701 299.072 281.68C299.096 281.096 299.301 280.534 299.658 280.071C300.014 279.609 300.506 279.269 301.065 279.098C301.642 278.922 302.259 278.922 302.836 279.099C303.413 279.276 303.924 279.621 304.304 280.09C305.134 277.183 307.021 274.691 309.595 273.105C310.888 272.329 312.353 271.886 313.859 271.817C315.365 271.748 316.864 272.054 318.222 272.709C320.53 274.05 322.225 276.237 322.946 278.806C323.745 281.277 323.588 284.269 323.543 286.904Z" fill="white"/>
<path d="M96.9415 279.12C96.4863 282.471 94.0832 285.262 91.2995 286.889C88.5158 288.516 85.3963 289.128 82.3439 289.755C79.2915 290.382 76.3287 290.956 73.3286 290.643C70.3284 290.329 67.2835 289.008 65.5969 286.352C64.0222 283.956 63.7013 280.844 63.4251 277.881L57.8055 216.722C57.6114 214.669 57.4323 212.602 57.2383 210.55C66.373 208.102 76.0302 205.273 85.1724 207.012C84.6737 211.384 84.5464 215.791 84.7917 220.184C84.9959 223.195 85.7232 226.148 86.9411 228.909C89.0158 233.431 92.7697 237.312 92.9115 242.409C93.0832 248.066 88.6651 253.201 88.9636 258.828C89.1725 262.612 91.4413 265.769 93.4862 268.784C95.531 271.799 97.4714 275.351 96.9415 279.12Z" fill="white"/>
<path d="M84.7566 220.184C75.801 218.762 66.8055 217.607 57.7703 216.722C57.5763 214.669 57.3972 212.602 57.2031 210.55C66.3379 208.102 75.995 205.273 85.1372 207.012C84.6386 211.384 84.5113 215.791 84.7566 220.184Z" fill="#E5E5E5"/>
<path d="M87.1345 204.124L85.9628 210.222L56.1704 211.102L51.9837 210.296C51.0135 210.117 50.0885 209.748 49.2621 209.209C48.4357 208.67 47.7243 207.973 47.1691 207.157C46.6139 206.342 46.2259 205.424 46.0275 204.458C45.8291 203.491 45.8243 202.495 46.0133 201.527L46.9984 196.407L87.1345 204.124Z" fill="#19437F"/>
<path d="M79.8538 201.325L35.5906 192.81C31.0811 183.711 29.6765 173.384 31.5917 163.411C33.5069 153.437 38.6364 144.366 46.1956 137.584L90.4588 146.107L79.8538 201.325Z" fill="#19437F"/>
<path d="M92.6946 206.997L43.4984 197.527C38.4877 187.41 36.93 175.931 39.0636 164.845C41.1972 153.759 46.9046 143.677 55.3123 136.143L104.516 145.614L92.6946 206.997Z" fill="#D33C39"/>
<path d="M111.73 179.322C115.01 162.406 111.663 147.528 104.255 146.092C96.8472 144.655 88.183 157.205 84.9033 174.121C81.6236 191.038 84.9702 205.916 92.3783 207.352C99.7863 208.788 108.45 196.239 111.73 179.322Z" fill="#E5E5E5"/>
<path d="M227.545 201.124L211.432 241.894L195.051 283.307C195.051 283.307 165.758 221.095 97.2552 203.93C95.7372 203.544 94.3518 202.755 93.2456 201.646C92.1395 200.537 91.3536 199.15 90.9713 197.631C90.5385 195.937 90.1802 194.265 89.9116 192.594C87.5732 178.548 90.7499 165.558 99.4419 153.622C101.315 151.054 104.442 150.069 107.606 150.107C179.61 150.965 227.851 112.724 227.851 112.724L227.545 201.124Z" fill="white"/>
<path d="M309.867 217.499C320.242 163.621 300.945 114.608 266.765 108.026C232.585 101.444 196.466 139.785 186.091 193.664C175.716 247.542 195.013 296.555 229.193 303.137C263.373 309.719 299.492 271.378 309.867 217.499Z" fill="#E5E5E5"/>
<path d="M246.784 204.833L244.597 226.924L211.827 228.103L181.542 229.185C181.542 229.185 180.706 210.154 184.057 192.758C187.408 175.362 195.251 157.995 195.251 157.995L222.969 170.242L252.963 183.496L246.784 204.833Z" fill="#D33C39"/>
<path d="M206.521 197.086C202.304 218.99 211.827 228.103 211.827 228.103L181.542 229.185C181.542 229.185 180.706 210.154 184.057 192.758C187.408 175.362 195.251 157.995 195.251 157.995L222.969 170.242C222.969 170.242 210.745 175.168 206.521 197.086Z" fill="#AD1E0B"/>
<path d="M260.04 207.397C262.222 196.069 258.061 185.743 250.748 184.335C243.434 182.927 235.737 190.968 233.555 202.297C231.374 213.625 235.534 223.951 242.848 225.359C250.161 226.768 257.859 218.726 260.04 207.397Z" fill="white"/>
<path d="M242.569 226.744C234.494 225.185 229.822 214.095 232.121 202.012C234.419 189.929 242.912 181.369 250.98 182.922C259.047 184.474 263.734 195.571 261.428 207.654C259.122 219.737 250.681 228.297 242.569 226.744ZM250.465 185.698C243.935 184.437 236.979 191.989 234.949 202.519C232.919 213.05 236.584 222.67 243.106 223.908C249.629 225.147 256.599 217.617 258.622 207.079C260.644 196.542 256.995 186.981 250.465 185.728V185.698Z" fill="#D33C39"/>
<path d="M256.078 206.624C254.339 215.662 248.771 222.184 243.637 221.199C238.502 220.214 235.756 212.08 237.495 203.042C239.234 194.004 244.808 187.511 249.936 188.467C255.063 189.422 257.824 197.579 256.078 206.624Z" fill="#19437F"/>
<path d="M193.916 274.082C189.766 265.977 185.953 257.664 184.214 248.708C183.214 243.618 183.781 238.439 183.296 233.304C182.975 229.924 182.214 226.52 182.311 223.125C179.326 221.403 176.321 219.724 173.296 218.087C147.473 204.236 118.95 198.243 89.9336 192.631C90.2023 194.303 90.5605 195.974 90.9933 197.668C91.3756 199.187 92.1615 200.575 93.2677 201.683C94.3739 202.792 95.7592 203.581 97.2772 203.967C165.78 221.08 195.043 283.321 195.043 283.321L196.632 279.314C195.707 277.572 194.801 275.829 193.916 274.082Z" fill="#E5E5E5"/>
<path d="M311.379 217.266C309.353 228.009 306.17 238.501 301.887 248.559C297.653 258.698 292.1 268.233 285.371 276.918C278.565 285.538 270.445 293.404 260.564 298.852C255.606 301.635 250.253 303.649 244.69 304.822C233.233 307.201 221.3 305.062 211.382 298.852C206.522 295.774 202.158 291.974 198.442 287.583C194.751 283.273 191.573 278.55 188.971 273.508C186.377 268.521 184.239 263.311 182.583 257.94C179.322 247.266 177.52 236.2 177.224 225.043C176.556 202.782 180.817 180.648 189.702 160.226C194.109 149.977 199.883 140.372 206.867 131.673C210.406 127.305 214.33 123.263 218.592 119.598C222.879 115.881 227.582 112.673 232.607 110.038C237.697 107.361 243.162 105.469 248.817 104.425C260.333 102.346 272.207 104.781 281.975 111.224C286.703 114.381 290.925 118.236 294.498 122.658C301.655 131.382 306.275 141.696 309.424 152.226C312.444 162.789 314.058 173.705 314.223 184.69C314.454 195.62 313.5 206.542 311.379 217.266ZM307.648 216.52C309.641 206.058 310.496 195.411 310.2 184.765C309.919 174.157 308.204 163.636 305.103 153.487C303.558 148.463 301.56 143.59 299.133 138.927C296.748 134.303 293.833 129.972 290.446 126.023C287.122 122.13 283.23 118.762 278.9 116.03C270.302 110.662 259.963 108.822 250.041 110.896C245.102 111.953 240.351 113.752 235.951 116.232C226.995 121.15 219.443 128.449 213.047 136.576C206.662 144.832 201.392 153.893 197.374 163.525C189.199 182.909 185.18 203.792 185.575 224.826C185.728 235.26 187.253 245.628 190.113 255.664C193.038 265.582 197.367 275.179 203.83 283.06C206.994 286.994 210.736 290.426 214.927 293.24C223.367 298.863 233.656 301.003 243.638 299.21C248.671 298.284 253.535 296.601 258.064 294.218C262.675 291.811 266.99 288.876 270.922 285.471C274.911 282.041 278.582 278.259 281.893 274.172C288.538 265.898 294.036 256.766 298.237 247.021C302.468 237.234 305.626 227.017 307.655 216.55L307.648 216.52Z" fill="#D33C39"/>
<path d="M75.2356 192.213C73.027 178.623 75.6323 164.689 82.6016 152.816C83.5345 151.234 80.9672 149.98 80.0418 151.554C72.8268 163.885 70.1201 178.339 72.3848 192.444C72.6833 194.228 75.5342 194.034 75.2356 192.213Z" fill="#19437F"/>
<path d="M65.0171 190.25C62.8072 176.661 65.4125 162.726 72.3831 150.853C73.3234 149.263 70.7562 148.01 69.8233 149.584C62.6068 161.922 59.9027 176.385 62.1737 190.497C62.4647 192.273 65.3156 192.071 65.0171 190.25Z" fill="#19437F"/>
<path d="M54.8059 188.258C52.5973 174.668 55.2026 160.734 62.1719 148.86C63.1048 147.278 60.5375 146.024 59.6121 147.599C52.3971 159.929 49.6904 174.384 51.9551 188.489C52.2536 190.31 55.097 190.101 54.8059 188.258Z" fill="#19437F"/>
<path d="M103.136 213.027C97.7254 218.639 87.0384 218.96 88.1056 224.573C101.994 223.677 108.301 219.222 108.301 219.222L108.644 221.02L113.301 219.602C113.301 219.602 114.353 214.699 112.443 211.191L103.136 213.027Z" fill="black"/>
<path d="M103.137 213.027C104.712 213.577 106.404 213.696 108.04 213.373C109.676 213.051 111.196 212.297 112.444 211.191L111.556 204.027L101.98 205.893L103.137 213.027Z" fill="#EFAD9C"/>
<path d="M104.93 155.144C151.327 145.913 175.134 133.569 175.134 133.569L156.305 118.516C156.305 118.516 130.684 126.494 94.8993 141.651C92.5435 142.647 90.6128 144.44 89.445 146.716C88.2772 148.991 87.9466 151.605 88.5109 154.1C92.332 170.996 97.5113 192.609 101.944 208.58C105.385 209.923 110.855 209.095 113.631 206.565C113.594 206.542 110.743 182.287 104.93 155.144Z" fill="#19437F"/>
<path d="M147.451 228.401C143.622 235.192 133.368 238.193 135.809 243.327C149.033 238.969 154.011 233.066 154.011 233.066L154.794 234.722L158.944 232.177C158.944 232.177 158.727 227.162 155.959 224.252L147.451 228.401Z" fill="black"/>
<path d="M147.45 228.401C149.112 228.537 150.78 228.226 152.282 227.502C153.784 226.778 155.066 225.666 155.995 224.282L153.338 217.565L144.539 221.782L147.45 228.401Z" fill="#EFAD9C"/>
<path d="M136.206 171.705C148.206 165.906 167.617 156.406 177.879 149.532C183.902 145.51 186.588 136.278 186.126 129.069L185.379 116.971C185.379 116.971 153.893 137.815 122.69 160.936C120.634 162.453 119.177 164.645 118.576 167.129C117.974 169.612 118.265 172.228 119.399 174.518C127.078 190.041 136.564 210.52 144.579 225.021C148.236 225.521 153.438 222.737 155.535 219.625C150.626 203.075 144.154 187.029 136.206 171.705Z" fill="#19437F"/>
<path d="M125.177 89.6039C115.057 83.1036 107.833 75.566 97.8698 66.6103C97.8698 66.6103 96.7727 61.7519 102.139 60.1324C110.505 69.4314 121.401 71.6329 129.005 78.6631C133.483 74.3569 138.901 69.7448 142.222 64.9088L163.626 57.1995C163.626 57.1995 154.357 72.1255 133.543 89.1486C132.376 90.1003 130.938 90.6571 129.434 90.7389C127.931 90.8207 126.44 90.4233 125.177 89.6039Z" fill="#EFAD9C"/>
<path d="M103.376 71.8346L99.7188 68.8493C99.7188 68.8493 102.704 64.6029 105.629 62.4312L109.361 66.1179L103.376 71.8346Z" fill="white"/>
<path d="M169.066 53.7291C169.066 53.7291 137.288 90.7307 130.519 91.492C123.75 92.2532 102.734 71.9239 102.734 71.9239L109.063 65.2072C111.037 67.1896 113.334 68.8223 115.854 70.0358C120.265 71.9015 126.661 75.7002 128.989 78.6033C128.989 78.6033 148.975 55.9904 150.945 55.1545L152.087 54.6023C157.132 52.3857 166.222 53.7515 169.066 53.7291Z" fill="#19437F"/>
<path d="M88.0455 56.0427C88.0178 56.2708 88.0803 56.5007 88.2197 56.6834C88.3591 56.8661 88.5645 56.987 88.7918 57.0204C90.1949 57.3562 91.6128 57.6323 93.0383 57.8338C92.8375 59.5305 93.0368 61.2507 93.6204 62.8564C93.8896 63.6473 94.3264 64.3708 94.9008 64.9774C95.4753 65.584 96.1739 66.0596 96.9489 66.3715C98.6131 66.9014 100.621 66.0282 101.889 64.9685C102.961 63.9932 103.882 62.8639 104.621 61.6176C104.785 61.3638 104.957 61.1101 105.136 60.8713C105.233 60.7519 105.322 60.6399 105.427 60.528L105.554 60.3936L105.599 60.3489C105.718 60.2444 105.845 60.1548 105.972 60.0578L106.173 59.9682L106.345 59.9085H106.487C106.67 59.8674 106.843 59.7886 106.994 59.6772C107.199 59.5214 107.348 59.3031 107.418 59.0554C107.488 58.8077 107.475 58.544 107.382 58.304C107.211 57.9255 106.897 57.6302 106.509 57.4831C105.778 57.2368 104.983 57.2634 104.27 57.5577C103.361 57.9261 102.571 58.5381 101.986 59.3264C101.934 59.0727 101.874 58.8264 101.815 58.5801C101.002 54.8942 99.9068 51.2764 98.5385 47.7587C98.4569 47.5692 98.3102 47.4151 98.1249 47.3242C97.9397 47.2332 97.728 47.2115 97.5282 47.2628C97.3283 47.3141 97.1533 47.4351 97.0348 47.6041C96.9163 47.773 96.862 47.9787 96.8817 48.1841L97.6952 52.4828C97.7847 52.953 97.8668 53.4157 97.9489 53.8859C96.5061 52.2341 95.0607 50.5872 93.6129 48.9454C93.3219 48.617 93.0383 48.4304 92.6502 48.6468C92.2621 48.8633 92.2845 49.3931 92.4412 49.7962C93.1694 51.5028 94.1151 53.1082 95.2548 54.5725C93.807 53.8262 91.9263 53.0127 90.5232 52.2067C90.3322 52.1207 90.1162 52.1081 89.9165 52.1715C89.7169 52.2348 89.5476 52.3696 89.4411 52.55C89.2023 52.9455 89.5456 53.2963 89.8516 53.6321C90.7247 54.5128 92.3367 55.2068 93.3293 55.9531C92.1576 55.7666 90.0978 55.677 88.9411 55.4009C88.7405 55.3872 88.5414 55.4438 88.378 55.5609C88.2146 55.678 88.097 55.8484 88.0455 56.0427Z" fill="#EFAD9C"/>
<path d="M100.758 50.0722L103.064 53.1321L105.37 56.1919L117.774 45.2586C118.167 42.8207 117.137 41.4549 114.684 41.1614L100.758 50.0722Z" fill="#D33C39"/>
<path d="M84.8438 58.207L89.0081 63.7222L93.165 69.2448L107.501 55.58C107.345 51.8485 105.494 49.3708 101.927 48.1917L84.8438 58.207Z" fill="#AD1E0B"/>
<path d="M61.7383 69.9611L68.6192 79.0884L75.4926 88.253L95.9264 68.1028C96.4239 61.3563 93.3566 57.2815 86.7245 55.8784L61.7383 69.9611Z" fill="#D33C39"/>
<path d="M75.8672 73.6257C79.6659 78.6707 79.5017 85.2008 75.494 88.2159C71.4864 91.2309 65.1727 89.5891 61.374 84.5515C57.5753 79.514 57.7395 72.9764 61.7397 69.9613C65.7399 66.9463 72.0685 68.5881 75.8672 73.6257Z" fill="#19437F"/>
<path d="M73.3616 85.3897C75.8106 83.5442 75.6725 79.2303 73.0531 75.7542C70.4337 72.2781 66.3249 70.9562 63.8758 72.8017C61.4268 74.6472 61.5649 78.9612 64.1843 82.4373C66.8037 85.9134 70.9125 87.2352 73.3616 85.3897Z" fill="white"/>
<path d="M161.93 51.759L152.086 54.6248C152.086 54.6248 149.041 91.2533 143.086 122.762C159.848 134.785 186.177 129.725 186.177 129.725C185.573 91.7608 181.073 55.5577 181.073 55.5577C178.215 53.6286 174.927 52.4318 171.498 52.0725L161.93 51.759Z" fill="#F7A60C"/>
<path d="M171.513 51.5576C171.513 51.5576 168.879 123.807 169.073 131.696C169.073 131.696 183.252 132.233 187.611 130.785C187.611 130.785 186.23 66.3195 184.626 56.5429C182.909 54.1547 175.304 51.7591 171.513 51.5576Z" fill="#19437F"/>
<path d="M161.929 51.759C161.929 51.759 155.511 118.852 154.623 129.3C154.623 129.3 143.973 126.673 141.234 121.158C141.234 121.158 149.645 61.5804 150.936 55.1846C154.37 53.4024 158.091 52.2427 161.929 51.759Z" fill="#19437F"/>
<path d="M168.284 84.865H112.662C108.907 84.865 105.863 87.9089 105.863 91.6638V129.815C105.863 133.57 108.907 136.614 112.662 136.614H168.284C172.039 136.614 175.083 133.57 175.083 129.815V91.6638C175.083 87.9089 172.039 84.865 168.284 84.865Z" fill="white"/>
<path d="M114.841 105.516C114.99 105.62 115.304 105.769 115.782 105.963C116.274 106.143 116.849 106.232 117.505 106.232C118.028 106.232 118.453 106.143 118.782 105.963C119.125 105.784 119.379 105.516 119.543 105.157C119.722 104.784 119.841 104.307 119.901 103.724C119.961 103.127 119.991 102.411 119.991 101.575V93.3584H123.662V101.441C123.662 102.635 123.595 103.724 123.461 104.71C123.327 105.695 123.05 106.553 122.633 107.284C122.23 108.001 121.618 108.553 120.797 108.941C119.976 109.314 118.879 109.501 117.505 109.501C116.804 109.501 116.17 109.419 115.602 109.255C115.035 109.09 114.513 108.844 114.035 108.516L114.841 105.516Z" fill="#19437F"/>
<path d="M133.494 109.389C132.3 109.389 131.218 109.165 130.248 108.717C129.293 108.255 128.464 107.643 127.763 106.881C127.076 106.105 126.546 105.239 126.173 104.284C125.8 103.314 125.613 102.314 125.613 101.284C125.613 100.224 125.807 99.2168 126.196 98.2616C126.599 97.3063 127.151 96.4555 127.852 95.7092C128.569 94.948 129.412 94.3509 130.382 93.9181C131.353 93.4852 132.412 93.2688 133.562 93.2688C134.741 93.2688 135.808 93.5002 136.763 93.9629C137.733 94.4106 138.562 95.0226 139.248 95.7988C139.95 96.5749 140.487 97.4481 140.86 98.4183C141.234 99.3735 141.42 100.351 141.42 101.351C141.42 102.411 141.226 103.419 140.838 104.374C140.45 105.329 139.898 106.187 139.181 106.949C138.465 107.695 137.621 108.292 136.651 108.74C135.696 109.172 134.644 109.389 133.494 109.389ZM129.352 101.329C129.352 101.941 129.442 102.538 129.621 103.12C129.8 103.687 130.061 104.195 130.405 104.642C130.763 105.09 131.203 105.448 131.726 105.717C132.248 105.986 132.845 106.12 133.517 106.12C134.218 106.12 134.83 105.986 135.353 105.717C135.875 105.434 136.308 105.06 136.651 104.598C136.995 104.135 137.248 103.62 137.412 103.053C137.592 102.471 137.681 101.881 137.681 101.284C137.681 100.672 137.592 100.083 137.412 99.5153C137.233 98.9482 136.965 98.4407 136.606 97.9929C136.248 97.5302 135.808 97.172 135.286 96.9182C134.763 96.6645 134.174 96.5376 133.517 96.5376C132.815 96.5376 132.203 96.6719 131.681 96.9406C131.173 97.2093 130.741 97.575 130.382 98.0377C130.039 98.4855 129.778 99.0004 129.599 99.5825C129.435 100.15 129.352 100.732 129.352 101.329Z" fill="#19437F"/>
<path d="M143.542 109.255V93.3584H147.214V109.255H143.542Z" fill="#19437F"/>
<path d="M153.926 100.165V109.255H150.254V93.3584H153.165L160.531 102.717V93.3584H164.203V109.255H161.202L153.926 100.165Z" fill="#19437F"/>
<path d="M132.985 128.681C131.716 128.681 130.634 128.472 129.738 128.054C128.843 127.621 128.111 127.039 127.544 126.308C126.992 125.561 126.581 124.718 126.313 123.778C126.059 122.823 125.932 121.822 125.932 120.778V112.65H129.604V120.778C129.604 121.375 129.664 121.957 129.783 122.524C129.902 123.076 130.097 123.569 130.365 124.002C130.634 124.435 130.977 124.778 131.395 125.032C131.828 125.285 132.358 125.412 132.985 125.412C133.627 125.412 134.164 125.285 134.597 125.032C135.03 124.763 135.373 124.412 135.627 123.979C135.88 123.532 136.067 123.031 136.186 122.479C136.306 121.927 136.365 121.36 136.365 120.778V112.65H140.037V120.778C140.037 121.882 139.895 122.912 139.612 123.867C139.343 124.823 138.925 125.666 138.358 126.397C137.791 127.114 137.06 127.673 136.164 128.076C135.283 128.479 134.224 128.681 132.985 128.681Z" fill="#19437F"/>
<path d="M152.42 117.307C152.375 117.233 152.219 117.121 151.95 116.972C151.681 116.807 151.345 116.636 150.942 116.457C150.539 116.277 150.099 116.121 149.621 115.986C149.144 115.852 148.666 115.785 148.188 115.785C147.562 115.785 147.076 115.897 146.733 116.121C146.39 116.33 146.218 116.658 146.218 117.106C146.218 117.464 146.345 117.748 146.599 117.957C146.868 118.166 147.248 118.352 147.741 118.516C148.233 118.666 148.838 118.845 149.554 119.054C150.569 119.322 151.45 119.651 152.196 120.039C152.942 120.412 153.51 120.897 153.898 121.494C154.301 122.091 154.502 122.882 154.502 123.867C154.502 124.763 154.338 125.524 154.01 126.151C153.681 126.763 153.233 127.263 152.666 127.651C152.114 128.024 151.48 128.3 150.763 128.479C150.047 128.644 149.308 128.726 148.547 128.726C147.771 128.726 146.972 128.651 146.151 128.502C145.345 128.338 144.569 128.114 143.823 127.83C143.076 127.532 142.39 127.173 141.763 126.756L143.375 123.554C143.435 123.629 143.629 123.77 143.957 123.979C144.285 124.173 144.688 124.382 145.166 124.606C145.659 124.815 146.203 125.002 146.8 125.166C147.397 125.33 148.002 125.412 148.614 125.412C149.271 125.412 149.756 125.308 150.069 125.099C150.398 124.89 150.562 124.599 150.562 124.226C150.562 123.823 150.39 123.509 150.047 123.285C149.718 123.061 149.263 122.86 148.681 122.681C148.114 122.502 147.457 122.3 146.711 122.076C145.741 121.778 144.935 121.442 144.293 121.069C143.666 120.696 143.196 120.24 142.882 119.703C142.584 119.166 142.434 118.494 142.434 117.688C142.434 116.569 142.696 115.628 143.218 114.867C143.755 114.091 144.472 113.509 145.367 113.121C146.263 112.718 147.241 112.516 148.3 112.516C149.047 112.516 149.763 112.606 150.45 112.785C151.151 112.964 151.801 113.188 152.398 113.456C153.01 113.725 153.554 113.994 154.032 114.262L152.42 117.307Z" fill="#19437F"/>
<path d="M206.15 101.09C197.896 109.844 189.135 115.553 178.485 123.688C178.485 123.688 173.507 123.874 172.91 118.3C183.582 111.792 187.754 101.485 196.046 95.3209C192.65 90.0968 189.105 83.9547 184.963 79.7978L184.851 60.8716C184.851 60.8716 194.307 69.2003 207.188 92.7984C207.914 94.1125 208.205 95.6231 208.019 97.1129C207.832 98.6028 207.178 99.9952 206.15 101.09Z" fill="#EFAD9C"/>
<path d="M175.439 117.874C175.439 117.874 167.417 117.359 165.782 117.777C164.148 118.195 157.409 122.479 157.692 122.956C157.976 123.434 164.409 120.523 164.409 120.523C164.409 120.523 158.655 125.553 159.185 126.128C159.715 126.703 165.267 122.479 165.267 122.479C165.267 122.479 161.939 126.956 162.334 127.374C162.73 127.792 167.432 123.538 167.432 123.538C167.432 123.538 163.782 128.509 164.521 128.889C165.26 129.27 169.693 124.225 169.693 124.225C169.693 124.225 173.342 128.046 179.581 122.807L175.439 117.874Z" fill="#EFAD9C"/>
<path d="M184.643 119.247L181.068 122.292C181.068 122.292 177.441 118.561 175.844 115.299L180.15 112.314L184.643 119.247Z" fill="white"/>
<path d="M184.603 56.5427C184.603 56.5427 209.493 89.38 208.993 96.1863C208.493 102.993 184.641 119.896 184.641 119.896L179.223 112.433C181.526 110.858 183.545 108.902 185.193 106.649C187.842 102.657 192.746 97.0744 196.029 95.3131C196.029 95.3131 185.91 79.0885 180.111 76.1033C180.141 76.1108 183.603 62.1325 184.603 56.5427Z" fill="#19437F"/>
<path d="M166.384 55.0801L164.63 59.4086L161.57 55.2219L161.929 51.759C162.273 52.6823 162.877 53.4865 163.667 54.0755C164.457 54.6645 165.401 55.0133 166.384 55.0801Z" fill="#E89003"/>
<path d="M166.387 55.0801L168.148 59.4087L171.372 55.513L171.499 52.0725C170.596 54.1174 168.447 54.8935 166.387 55.0801Z" fill="#E89003"/>
<path d="M205.158 57.5503C200.538 59.5355 196.344 62.3938 191.844 64.6327C187.344 66.8716 182.291 68.506 177.321 67.7523C172.35 66.9985 167.559 63.3342 166.828 58.3638L167.305 57.3638L166.373 55.0801L165.402 57.4682L166.067 58.431C166.06 60.7414 166.602 63.0202 167.648 65.0805C168.694 67.1407 170.213 68.9234 172.082 70.2822C175.884 72.9615 180.507 74.2189 185.142 73.8346C189.749 73.4361 194.21 72.0188 198.202 69.6852C201.494 67.8568 204.65 65.5582 208.352 64.879C209.3 62.9536 210.27 61.0505 211.225 59.125C209.263 58.6549 207.15 58.0205 205.158 57.5503Z" fill="#D33C39"/>
<path d="M180.963 18.153C179.888 15.4813 177.037 13.5111 174.246 14.0111C171.261 8.84666 163.253 7.95856 158.126 9.9288C151.767 12.3617 148.372 19.7651 151.939 25.8549C155.506 31.9447 163.268 34.1762 166.798 40.3705C167.544 41.7287 168.537 43.2512 170.29 43.2736C171.902 43.2736 172.977 41.8855 173.843 40.7212C176.287 37.3999 178.259 33.7556 179.701 29.8924C181.097 26.228 182.507 21.9965 180.963 18.153Z" fill="black"/>
<path d="M173.813 19.1606C169.746 11.1005 154.454 13.317 153.074 19.5785C150.223 32.4522 151.902 37.833 155.402 41.0123C159.455 44.6841 162.194 44.3184 161.955 51.759C162.331 52.7025 162.974 53.5159 163.806 54.0995C164.637 54.683 165.621 55.0116 166.636 55.0448C167.651 55.0781 168.654 54.8146 169.522 54.2867C170.39 53.7588 171.085 52.9893 171.522 52.0725C171.629 46.1369 172.915 40.2818 175.306 34.8478C175.306 34.8478 175.463 22.4891 173.813 19.1606Z" fill="#EFAD9C"/>
<path d="M172.112 20.862C169.381 24.5488 164.157 23.5114 164.157 23.5114L167.269 20.9964C167.269 20.9964 159.634 25.198 151.932 23.4069C151.932 23.4069 150.887 20.5337 154.522 15.8991C156.843 12.9139 163.343 12.399 168.828 13.6005C174.314 14.8021 176.642 17.2723 176.695 21.2352C176.747 25.198 176.993 30.1908 176.993 30.1908L174.799 31.758C171.508 29.3773 172.112 20.862 172.112 20.862Z" fill="black"/>
<path d="M164.11 31.079C164.098 31.271 164.03 31.4551 163.914 31.6085C163.798 31.7619 163.639 31.8776 163.457 31.9412C163.276 32.0049 163.08 32.0136 162.893 31.9663C162.707 31.919 162.539 31.8178 162.41 31.6753C162.28 31.5328 162.196 31.3554 162.167 31.1653C162.138 30.9751 162.166 30.7807 162.247 30.6064C162.329 30.432 162.459 30.2854 162.623 30.185C162.787 30.0845 162.977 30.0347 163.169 30.0417C163.3 30.0464 163.428 30.0772 163.546 30.1322C163.665 30.1872 163.771 30.2654 163.858 30.3621C163.946 30.4587 164.013 30.572 164.056 30.6951C164.1 30.8182 164.118 30.9488 164.11 31.079Z" fill="black"/>
<path d="M163.145 30.7879C163.145 30.8869 163.105 30.9818 163.035 31.0518C162.965 31.1218 162.871 31.1611 162.772 31.1611C162.673 31.1611 162.578 31.1218 162.508 31.0518C162.438 30.9818 162.398 30.8869 162.398 30.7879C162.398 30.689 162.438 30.5941 162.508 30.5241C162.578 30.4541 162.673 30.4148 162.772 30.4148C162.871 30.4148 162.965 30.4541 163.035 30.5241C163.105 30.5941 163.145 30.689 163.145 30.7879Z" fill="white"/>
<path d="M156.571 30.8326C156.578 30.9676 156.557 31.1025 156.509 31.2289C156.461 31.3552 156.388 31.4703 156.293 31.5668C156.199 31.6634 156.085 31.7392 155.96 31.7897C155.834 31.8401 155.7 31.864 155.565 31.8599C155.43 31.8557 155.297 31.8236 155.175 31.7656C155.053 31.7076 154.944 31.6249 154.856 31.5228C154.767 31.4206 154.701 31.3013 154.661 31.1722C154.621 31.0432 154.608 30.9072 154.623 30.7729C154.651 30.529 154.769 30.3044 154.955 30.1437C155.14 29.983 155.379 29.898 155.625 29.9055C155.87 29.913 156.104 30.0125 156.279 30.1843C156.454 30.3561 156.559 30.5875 156.571 30.8326Z" fill="black"/>
<path d="M155.602 30.5342C155.602 30.5815 155.593 30.6284 155.574 30.672C155.556 30.7155 155.528 30.7549 155.494 30.7876C155.46 30.8204 155.42 30.8459 155.375 30.8626C155.331 30.8794 155.284 30.887 155.236 30.8849C155.137 30.8849 155.043 30.8456 154.973 30.7756C154.903 30.7057 154.863 30.6108 154.863 30.5118C154.863 30.4128 154.903 30.3179 154.973 30.2479C155.043 30.178 155.137 30.1386 155.236 30.1386C155.288 30.136 155.339 30.1447 155.387 30.1641C155.434 30.1835 155.477 30.2131 155.512 30.2508C155.547 30.2886 155.573 30.3335 155.588 30.3825C155.604 30.4314 155.609 30.4832 155.602 30.5342Z" fill="white"/>
<path d="M157.347 27.0564C156.775 26.6148 156.069 26.3808 155.347 26.393C154.624 26.4052 153.926 26.6629 153.369 27.1236C153.261 27.2231 153.191 27.3571 153.17 27.5028C153.15 27.6485 153.181 27.7967 153.257 27.9221C153.291 27.9803 153.337 28.0305 153.392 28.0691C153.446 28.1078 153.509 28.1341 153.575 28.1462C153.641 28.1583 153.709 28.1558 153.774 28.1391C153.839 28.1223 153.9 28.0915 153.952 28.049C154.185 27.8574 154.455 27.715 154.744 27.6304C155.034 27.5457 155.338 27.5206 155.638 27.5564C155.938 27.5872 156.23 27.6759 156.496 27.8176C156.735 27.9445 156.967 28.1609 157.243 28.0192C157.309 27.9811 157.366 27.9273 157.407 27.8624C157.492 27.7421 157.533 27.5958 157.522 27.4487C157.511 27.3016 157.449 27.1629 157.347 27.0564Z" fill="black"/>
<path d="M161.124 27.161C161.829 26.7598 162.639 26.5781 163.448 26.6393C164.258 26.7004 165.031 27.0016 165.668 27.5043C165.786 27.6033 165.86 27.745 165.873 27.8982C165.886 28.0515 165.838 28.2037 165.739 28.3215C165.64 28.4393 165.499 28.5129 165.345 28.5262C165.192 28.5395 165.04 28.4914 164.922 28.3924C164.393 27.9807 163.734 27.7716 163.064 27.8028C162.721 27.81 162.383 27.8782 162.064 28.0043C161.78 28.1088 161.504 28.3103 161.198 28.1461C161.126 28.1038 161.063 28.048 161.012 27.9819C160.965 27.9209 160.93 27.8511 160.91 27.7766C160.89 27.7021 160.886 27.6244 160.896 27.5481C160.906 27.4717 160.932 27.3982 160.971 27.3317C161.01 27.2653 161.062 27.2072 161.124 27.161Z" fill="black"/>
<path d="M158.801 36.4524C158.237 36.4372 157.686 36.2834 157.196 36.0047C157.138 35.9714 157.087 35.9271 157.047 35.8742C157.006 35.8212 156.976 35.7608 156.959 35.6964C156.941 35.6319 156.937 35.5646 156.946 35.4984C156.954 35.4322 156.976 35.3684 157.01 35.3106C157.042 35.2521 157.086 35.2006 157.139 35.1591C157.191 35.1177 157.252 35.087 157.316 35.069C157.381 35.051 157.448 35.0459 157.515 35.054C157.581 35.0622 157.645 35.0835 157.704 35.1166C158.211 35.3886 158.792 35.4891 159.362 35.403C159.931 35.3169 160.456 35.0488 160.86 34.6389C160.901 34.5859 160.951 34.5415 161.009 34.5082C161.066 34.4749 161.13 34.4534 161.196 34.4451C161.262 34.4368 161.329 34.4417 161.393 34.4596C161.457 34.4775 161.517 34.508 161.569 34.5494C161.627 34.5904 161.676 34.643 161.712 34.7038C161.748 34.7647 161.771 34.8324 161.78 34.9027C161.788 34.973 161.782 35.0443 161.761 35.1119C161.74 35.1796 161.705 35.2422 161.659 35.2957C161.297 35.6862 160.853 35.9923 160.359 36.1922C159.865 36.3921 159.333 36.481 158.801 36.4524Z" fill="#C16B5B"/>
<path d="M157.699 33.5194C157.671 33.5174 157.645 33.507 157.624 33.4897C157.602 33.4723 157.587 33.4488 157.579 33.4224C157.363 32.5791 157.654 32.3104 157.937 32.2283C158.112 32.1947 158.293 32.2001 158.466 32.2439C158.638 32.2878 158.8 32.3691 158.937 32.482C158.965 32.5017 158.984 32.531 158.991 32.5643C158.998 32.5975 158.992 32.6321 158.975 32.6612C158.95 32.6832 158.918 32.6954 158.885 32.6954C158.852 32.6954 158.82 32.6832 158.796 32.6612C158.686 32.572 158.559 32.5068 158.423 32.4695C158.287 32.4322 158.144 32.4238 158.005 32.4447C157.751 32.5194 157.691 32.8104 157.825 33.3254C157.83 33.3415 157.831 33.3584 157.829 33.3751C157.827 33.3918 157.822 33.4079 157.813 33.4224C157.805 33.437 157.794 33.4498 157.781 33.46C157.767 33.4703 157.752 33.4778 157.736 33.4821L157.699 33.5194Z" fill="#C16B5B"/>
<path d="M178.64 35.2659C177.289 36.7585 175.222 37.1391 174.02 36.0644C172.819 34.9897 172.946 32.8926 174.296 31.3776C175.647 29.8626 177.722 29.5119 178.916 30.5866C180.11 31.6612 179.998 33.7285 178.64 35.2659Z" fill="#EFAD9C"/>
<path d="M178.043 31.2881C177.735 31.1366 177.397 31.0579 177.054 31.0579C176.711 31.0579 176.373 31.1366 176.065 31.2881C175.771 31.4042 175.513 31.5975 175.319 31.8478C175.203 31.9896 175.125 32.1582 175.091 32.3381C175.057 32.518 175.069 32.7035 175.125 32.8777C175.235 33.141 175.415 33.3685 175.647 33.5344C175.785 33.6377 175.904 33.7639 175.998 33.9076C176.049 34.0138 176.067 34.133 176.049 34.2495C176.031 34.366 175.978 34.4743 175.897 34.56C175.816 34.6458 175.711 34.7049 175.596 34.7297C175.481 34.7545 175.361 34.7436 175.252 34.6987C175.222 34.6833 175.189 34.6739 175.156 34.6712C175.122 34.6685 175.089 34.6725 175.057 34.6829C175.025 34.6933 174.995 34.71 174.97 34.7319C174.944 34.7538 174.924 34.7806 174.909 34.8106C174.879 34.8712 174.875 34.9408 174.896 35.0047C174.917 35.0687 174.961 35.1221 175.021 35.1539C175.158 35.221 175.308 35.2566 175.461 35.2584C175.613 35.2655 175.764 35.2406 175.905 35.1853C176.047 35.13 176.175 35.0456 176.282 34.9375C176.439 34.7703 176.54 34.5587 176.572 34.3315C176.605 34.1044 176.566 33.8729 176.461 33.6688C176.336 33.4682 176.177 33.2913 175.991 33.1464C175.832 33.0323 175.704 32.8811 175.618 32.706C175.592 32.6123 175.59 32.5139 175.611 32.4191C175.631 32.3242 175.675 32.2358 175.737 32.1612C175.793 32.0857 175.861 32.0201 175.938 31.9672C176.075 31.9614 176.211 31.9829 176.339 32.0303C176.468 32.0777 176.585 32.1501 176.685 32.2433C176.772 32.3448 176.835 32.4645 176.87 32.5936C176.905 32.7228 176.911 32.8581 176.886 32.9896C176.88 33.0225 176.88 33.0563 176.886 33.0891C176.893 33.1219 176.906 33.1531 176.925 33.1808C176.944 33.2086 176.968 33.2324 176.996 33.2508C177.024 33.2692 177.055 33.2819 177.088 33.2882H177.125C177.186 33.2894 177.246 33.2692 177.294 33.231C177.341 33.1928 177.374 33.1391 177.386 33.0792C177.426 32.8705 177.418 32.6557 177.364 32.4504C177.31 32.2451 177.21 32.0545 177.073 31.8926C176.969 31.778 176.841 31.6865 176.7 31.6239C177.087 31.5162 177.5 31.5588 177.856 31.7433C178.068 31.8538 178.231 32.0381 178.315 32.261C178.399 32.484 178.398 32.7301 178.312 32.9523C178.283 33.0139 178.28 33.0841 178.302 33.1481C178.324 33.2122 178.371 33.2651 178.431 33.2956C178.491 33.3244 178.559 33.3288 178.622 33.3079C178.685 33.287 178.737 33.2424 178.767 33.1837C178.907 32.8346 178.911 32.4454 178.777 32.0939C178.642 31.7425 178.38 31.4546 178.043 31.2881Z" fill="#C16B5B"/>
<path d="M162.889 256.583L125.531 275.119L137.138 298.511L174.495 279.975L162.889 256.583Z" fill="white"/>
<path d="M125.535 275.112L150.014 277.545L162.888 256.582L125.535 275.112Z" fill="#E5E5E5"/>
<path d="M316.816 73.648C315.314 70.6185 313.087 68.0068 310.332 66.0451C307.578 64.0833 304.382 62.8322 301.028 62.4029C297.674 61.9737 294.266 62.3795 291.106 63.5843C287.947 64.7892 285.134 66.7557 282.917 69.3094C280.7 71.863 279.149 74.9245 278.4 78.2221C277.651 81.5196 277.729 84.951 278.626 88.2114C279.522 91.4719 281.21 94.4603 283.54 96.9114C285.869 99.3624 288.768 101.2 291.979 102.261C296.376 103.631 300.417 105.952 303.815 109.06L305.099 110.277L316.293 104.724L316.099 102.948C315.612 98.5118 316.161 94.023 317.704 89.8353C318.664 87.2186 319.081 84.4334 318.928 81.6502C318.776 78.8669 318.057 76.144 316.816 73.648Z" fill="#F7A60C"/>
<path d="M297.404 85.7255L295.793 86.5249L307.091 109.295L308.702 108.496L297.404 85.7255Z" fill="#E89003"/>
<path d="M303.076 82.9081L301.465 83.7075L312.763 106.478L314.374 105.678L303.076 82.9081Z" fill="#E89003"/>
<path d="M311.901 114.598L315.692 112.717L317.185 115.726C317.288 115.935 317.305 116.177 317.23 116.398C317.156 116.619 316.996 116.802 316.787 116.906L314.568 118.007C314.358 118.111 314.116 118.127 313.895 118.053C313.674 117.978 313.491 117.819 313.387 117.61L311.895 114.601L311.901 114.598Z" fill="#19437F"/>
<path d="M305.096 110.293L316.361 104.704L319.618 111.269C319.743 111.52 319.763 111.811 319.673 112.078C319.583 112.344 319.392 112.564 319.14 112.689L309.8 117.323C309.549 117.448 309.258 117.468 308.991 117.378C308.725 117.288 308.505 117.096 308.38 116.845L305.113 110.26L305.096 110.293Z" fill="white"/>
<path d="M71.8515 25.4219L80.0683 44.3556L34.7305 57.6994L71.8515 25.4219Z" fill="#E5E5E5"/>
<path d="M34.7305 57.6995L51.5447 19.9963L71.8515 25.422L34.7305 57.6995Z" fill="white"/>
<path d="M34.7305 57.6997L77.2622 26.9968L99.7931 30.4895L34.7305 57.6997Z" fill="white"/>
<path d="M56.0741 239.32L54.1445 243.933L54.9983 244.29L56.9279 239.677L56.0741 239.32Z" fill="#AD1E0B"/>
<path d="M37.4609 231.537L35.5312 236.15L36.385 236.508L38.3146 231.895L37.4609 231.537Z" fill="#AD1E0B"/>
<path d="M56.1419 240.312C55.9667 240.236 55.8185 240.108 55.7165 239.946C51.5446 233.297 45.7832 230.886 38.1187 232.588C37.8782 232.641 37.6263 232.597 37.4185 232.465C37.2106 232.333 37.0638 232.123 37.0104 231.883C36.957 231.642 37.0012 231.39 37.1335 231.182C37.2658 230.975 37.4752 230.828 37.7157 230.774C46.1265 228.916 52.7089 231.67 57.2912 238.984C57.394 239.151 57.4412 239.347 57.426 239.544C57.4108 239.74 57.334 239.926 57.2064 240.076C57.0789 240.226 56.9073 240.332 56.7161 240.378C56.5249 240.424 56.3239 240.409 56.1419 240.335V240.312Z" fill="#D33C39"/>
<path d="M68.9761 249.174L22.2344 229.622L9.35203 260.418L56.0938 279.97L68.9761 249.174Z" fill="#D33C39"/>
<path d="M68.9761 249.173L22.2344 229.62L15.3137 246.165L62.0554 265.717L68.9761 249.173Z" fill="#D33C39"/>
<path d="M62.0542 265.72L15.3125 246.168L14.2239 248.77L60.9656 268.323L62.0542 265.72Z" fill="#AD1E0B"/>
<path d="M23.6682 249.665L22.1328 249.023L20.2637 253.491L21.799 254.134L23.6682 249.665Z" fill="#F7A60C"/>
<path d="M51.8279 266.694L53.3633 267.336L55.2324 262.868L53.6971 262.225L51.8279 266.694Z" fill="#F7A60C"/>
</svg>
