<svg width="340" height="304" viewBox="0 0 340 304" fill="none" xmlns="http://www.w3.org/2000/svg">
<g clip-path="url(#clip0_7508_42478)">
<path d="M298.455 7.03564H48.7266V229.487H298.455V7.03564Z" fill="#D9D9D9"/>
<path d="M292.642 0.5H42.9141V222.952H292.642V0.5Z" fill="white"/>
<mask id="mask0_7508_42478" style="mask-type:luminance" maskUnits="userSpaceOnUse" x="57" y="15" width="62" height="61">
<path d="M90.3611 15.1454C73.5883 13.9436 59.0152 26.5588 57.8113 43.3222C56.6074 60.0856 69.2284 74.6493 86.0012 75.8511C102.774 77.0529 117.347 64.4377 118.551 47.6743C119.755 30.9108 107.134 16.3472 90.3611 15.1454Z" fill="white"/>
</mask>
<g mask="url(#mask0_7508_42478)">
<path d="M118.614 46.5944C119.216 29.7997 106.082 15.6975 89.277 15.0963C72.4723 14.495 58.361 27.6225 57.7586 44.4172C57.1563 61.2119 70.2909 75.314 87.0957 75.9153C103.9 76.5165 118.012 63.3891 118.614 46.5944Z" fill="#A7E1FF"/>
</g>
<mask id="mask1_7508_42478" style="mask-type:luminance" maskUnits="userSpaceOnUse" x="57" y="15" width="62" height="61">
<path d="M118.615 46.5952C119.217 29.8009 106.082 15.6987 89.2764 15.0971C72.4712 14.4955 58.3599 27.6223 57.758 44.4166C57.156 61.2109 70.2912 75.3131 87.0964 75.9147C103.902 76.5163 118.013 63.3895 118.615 46.5952Z" fill="white"/>
</mask>
<g mask="url(#mask1_7508_42478)">
<path d="M102.918 51.7176C104.109 49.8658 103.201 48.457 102.474 47.7889C101.748 47.1208 100.992 46.5254 101.806 44.6736C102.62 42.8218 101.065 42.1537 100.839 41.0354C100.614 39.9244 101.21 39.3289 101.435 38.0653C101.66 36.8018 101.072 35.4366 100.694 34.7249C100.178 33.7591 99.2843 33.0184 98.8119 32.1034C98.3469 31.1884 93.2385 24.3768 91.6835 24.1662C89.7215 23.8975 88.5589 24.7326 88.181 25.0667C87.8032 24.7326 86.6405 23.8975 84.6786 24.1662C83.1235 24.3768 78.0152 31.1884 77.5501 32.1034C77.0851 33.0184 76.1913 33.7591 75.6681 34.7249C75.2902 35.4293 74.7017 36.8018 74.9269 38.0653C75.1522 39.3289 75.7408 39.9171 75.5228 41.0354C75.2975 42.1465 73.7425 42.8146 74.5563 44.6736C75.3702 46.5254 74.6217 47.1208 73.8878 47.7889C73.1612 48.457 72.2528 49.8658 73.4446 51.7176C74.629 53.5766 72.9214 54.0196 73.5899 56.3143C74.2584 58.6163 78.1896 58.8342 80.1951 59.5023C82.2007 60.1704 85.4634 61.2306 88.1738 61.2306C90.8842 61.2306 94.1468 60.1704 96.1524 59.5023C98.158 58.8342 102.089 58.6091 102.758 56.3143C103.441 54.0196 101.733 53.5766 102.918 51.7176Z" fill="#B05512"/>
<path d="M72.6151 92.3039C73.32 88.5786 73.8795 84.4611 73.8795 84.4611C73.8795 84.4611 75.9941 68.6085 75.8851 64.3967C75.7688 60.1848 74.0321 56.2779 72.8985 55.6171C71.7722 54.9563 67.5141 58.9575 66.6639 62.5158C65.8137 66.0669 65.6102 69.7922 65.414 73.3578C65.2106 76.9161 65.1379 83.5606 65.1379 83.5606C65.1379 83.5606 63.8372 88.3389 63.0742 92.3111H72.6151V92.3039Z" fill="#BB8B40"/>
<path d="M103.743 92.304H113.284C112.521 88.3317 111.221 83.5535 111.221 83.5535C111.221 83.5535 111.148 76.9089 110.944 73.3506C110.741 69.785 110.537 66.067 109.695 62.5087C108.844 58.9576 104.586 54.9491 103.46 55.6099C102.334 56.2707 100.59 60.1776 100.473 64.3895C100.357 68.6013 102.479 84.4539 102.479 84.4539C102.479 84.4539 103.038 88.5786 103.743 92.304Z" fill="#BB8B40"/>
<path d="M72.6816 80.3728C72.8197 83.0814 72.7252 87.9396 72.2166 92.3039H104.146C103.637 87.9396 103.543 83.0814 103.681 80.3728C103.724 79.5231 104.327 71.4625 104.974 68.8773C105.621 66.2921 106.267 58.1806 104.647 56.0747C103.434 54.4988 91.1531 52.5454 87.5271 52.5454C83.9011 52.5454 72.9214 54.4916 71.7007 56.0747C70.0802 58.1806 70.727 66.2921 71.3809 68.8773C72.0349 71.4625 72.638 79.5231 72.6816 80.3728Z" fill="#4A68CA"/>
<path d="M97.3086 54.9129C97.1996 54.1359 92.956 52.473 92.956 52.473L91.5317 43.2432H84.8393L83.4151 52.473C83.4151 52.473 79.1714 54.1359 79.0624 54.9129C78.9534 55.6899 79.3967 57.2512 81.068 58.6963C82.7393 60.1414 86.2853 61.6301 88.1891 61.6301C90.093 61.6301 93.639 60.1414 95.3103 58.6963C96.9744 57.244 97.4176 55.6899 97.3086 54.9129Z" fill="#FFC39F"/>
<path d="M82.3314 54.4626C81.8882 56.692 83.6684 65.1158 88.1737 65.1158C92.6862 65.1158 94.4665 56.6848 94.0232 54.4626" stroke="#FFFFD9" stroke-width="0.8627" stroke-miterlimit="10"/>
<path d="M88.7401 66.1541C88.7401 66.4591 88.4931 66.7132 88.1806 66.7132C87.8754 66.7132 87.6211 66.4663 87.6211 66.1541C87.6211 65.8491 87.8246 65.043 88.1806 65.043C88.5367 65.0358 88.7401 65.8418 88.7401 66.1541Z" fill="#FFFFD9"/>
<path d="M83.4288 52.4729C83.4288 52.4729 80.0789 63.2567 80.1879 72.7189C80.2969 82.1811 80.1879 92.1951 80.1879 92.1951H63.0898C63.0898 92.1951 64.2598 75.7253 65.2625 68.9355C66.2653 62.1457 67.2681 57.2512 70.9449 55.915C74.6218 54.5788 78.0734 53.6856 79.6284 53.5767C81.1907 53.4605 83.4288 52.4729 83.4288 52.4729Z" fill="#271539"/>
<path d="M92.9336 52.4729C92.9336 52.4729 96.2835 63.2567 96.1745 72.7189C96.0655 82.1811 96.1745 92.1951 96.1745 92.1951H113.273C113.273 92.1951 112.103 75.7253 111.1 68.9355C110.097 62.1457 109.094 57.2512 105.417 55.915C101.741 54.5788 98.289 53.6856 96.734 53.5767C95.1717 53.4605 92.9336 52.4729 92.9336 52.4729Z" fill="#271539"/>
<path d="M71.0586 65.7112C71.2039 69.7633 72.1558 73.8444 72.4974 77.9038C72.8316 81.9486 72.7808 88.0341 72.4392 92.0789" stroke="#4A364F" stroke-width="0.8627" stroke-miterlimit="10"/>
<path d="M105.298 65.7112C104.565 73.8226 102.777 83.8803 103.918 92.0789" stroke="#4A364F" stroke-width="0.8627" stroke-miterlimit="10"/>
<path d="M100.36 36.7656C99.96 35.5892 98.6666 34.892 97.7437 35.2115C97.3804 32.4448 96.2977 25.0232 88.181 25.0232C80.0643 25.0232 78.9816 32.4448 78.611 35.2115C77.6882 34.8848 76.3947 35.5892 75.9951 36.7656C75.6317 37.8331 76.0096 38.9804 76.7581 39.772C77.3248 40.3674 78.1605 40.687 79.0179 40.8322C79.5411 42.6549 80.4131 44.5503 81.7792 46.0172C82.6439 46.9467 84.9692 48.4281 88.1737 48.4281C91.3783 48.4281 93.7036 46.9394 94.5683 46.0172C95.9344 44.5503 96.8136 42.6549 97.3295 40.8322C98.1943 40.687 99.0226 40.3674 99.5894 39.772C100.352 38.9804 100.723 37.8403 100.36 36.7656Z" fill="#FFC39F"/>
<path d="M96.8711 27.1C93.0925 21.5737 88.2239 23.3021 88.2239 23.3021C88.2239 23.3021 88.2094 23.2948 88.1731 23.2875C88.144 23.2948 88.1222 23.3021 88.1222 23.3021C88.1222 23.3021 83.2609 21.5737 79.4751 27.1C75.6965 32.6263 78 37.9855 78 37.9855C78 37.9855 79.3079 37.4118 80.0491 36.6929C80.7903 35.974 80.7176 34.8629 81.3208 34.311C81.9239 33.7591 82.8249 33.9189 83.428 33.5993C84.0312 33.2798 84.3291 32.0961 84.7069 31.7766C85.0848 31.4571 85.6225 31.6604 86.4364 31.4571C87.4101 31.2175 88.1658 30.3533 88.1658 30.3533C88.1658 30.3533 88.9215 31.2247 89.8952 31.4571C90.7163 31.6532 91.2468 31.4571 91.6247 31.7766C92.0025 32.0961 92.3004 33.2798 92.9036 33.5993C93.5067 33.9116 94.4077 33.7591 95.0109 34.311C95.614 34.8629 95.534 35.974 96.2825 36.6929C97.0237 37.4118 98.3389 37.9855 98.3389 37.9855C98.3389 37.9855 100.65 32.6335 96.8711 27.1Z" fill="#B05512"/>
<path d="M82.3159 36.7365C82.4903 36.6712 82.672 36.6131 82.8537 36.555C83.1734 36.4606 83.544 36.3226 83.8346 36.2863C84.1616 36.2427 84.4886 36.2935 84.8229 36.3589C84.9537 36.3807 85.0845 36.4243 85.208 36.4678C85.1063 36.4315 85.317 36.5114 85.3461 36.5187C85.4405 36.5477 85.5132 36.555 85.6149 36.5404C85.5568 36.5404 85.5059 36.5404 85.4478 36.5404C85.3751 36.5187 85.4551 36.5477 85.4696 36.555C85.5059 36.5695 85.5423 36.584 85.5786 36.5985C85.6149 36.6058 85.6513 36.6131 85.6876 36.6203C85.753 36.6276 85.8257 36.6494 85.8911 36.6203C85.9855 36.584 86.0582 36.446 85.9565 36.3662C85.9274 36.3444 85.971 36.3952 85.9565 36.3662C85.9492 36.3516 85.9347 36.3081 85.9492 36.3589C85.9347 36.3299 85.9274 36.2935 85.9129 36.2645C85.8983 36.2282 85.8911 36.1919 85.8693 36.1628C85.8693 36.1628 85.7821 36.0684 85.7821 36.0539C85.8402 36.1628 85.8475 36.1628 85.7966 36.0539C85.7748 36.0249 85.753 35.9958 85.7312 35.9668C85.7167 35.945 85.6949 35.9232 85.6731 35.9014C85.3533 35.5674 84.8737 35.4366 84.4305 35.4003C83.5803 35.3277 82.7519 35.6255 82.0253 36.0394C81.6547 36.2427 81.9017 36.8963 82.3159 36.7365Z" fill="#B05512"/>
<path d="M94.3405 36.0393C93.6139 35.6254 92.7855 35.3349 91.9353 35.4003C91.492 35.4366 91.0125 35.5673 90.6927 35.9014C90.6709 35.9232 90.6564 35.9449 90.6346 35.9667C90.6128 35.9958 90.591 36.0248 90.5692 36.0539C90.5183 36.1628 90.5256 36.1628 90.5837 36.0539C90.5837 36.0466 90.4529 36.2572 90.4529 36.2645C90.4384 36.2935 90.4311 36.3298 90.4166 36.3589C90.4384 36.3008 90.4239 36.3516 90.4093 36.3661C90.3948 36.3879 90.4384 36.3371 90.4093 36.3661C90.3149 36.446 90.3803 36.584 90.4747 36.6203C90.5401 36.6421 90.6128 36.6276 90.6782 36.6203C90.7073 36.613 90.7436 36.613 90.7799 36.6058C90.8163 36.5985 90.8526 36.584 90.8889 36.5695C90.9035 36.5622 90.9907 36.5332 90.918 36.5549C90.8599 36.5549 90.809 36.5549 90.7509 36.5549C90.8453 36.5695 90.918 36.5622 91.0052 36.5404C91.027 36.5332 91.0488 36.5259 91.0706 36.5186C91.0924 36.5114 91.245 36.446 91.1578 36.4823C91.2813 36.4315 91.4121 36.3952 91.5429 36.3734C91.8772 36.3153 92.2042 36.2572 92.5312 36.3008C92.8218 36.3371 93.1924 36.4751 93.5121 36.5695C93.6938 36.6203 93.8755 36.6856 94.0499 36.751C94.4568 36.8962 94.7111 36.2499 94.3405 36.0393Z" fill="#B05512"/>
<path d="M88.4217 36.8381C88.6106 37.3828 88.7051 37.9056 88.8068 38.3922C88.8504 38.61 88.9303 38.9078 88.9667 38.9223C88.9667 38.9078 88.9376 38.8714 88.9449 38.8787L89.0103 38.9368L89.1411 39.0603C89.2283 39.1474 89.3155 39.2345 89.4099 39.3435C89.5916 39.5395 89.8386 39.8736 89.8968 40.2802C89.9113 40.3819 89.9113 40.4545 89.9113 40.578C89.9113 40.7595 89.8604 40.883 89.8096 40.9846C89.7078 41.188 89.5916 41.2969 89.4753 41.4131C89.003 41.8052 88.5089 42.0231 87.9493 42.1465C88.2473 41.6745 88.5961 41.2606 88.7995 40.8612C88.8504 40.7668 88.8867 40.6724 88.8795 40.6288C88.8795 40.607 88.8649 40.5998 88.8504 40.6506C88.8359 40.6433 88.8213 40.5852 88.7995 40.5635C88.7341 40.4545 88.6397 40.3746 88.4725 40.1858C88.3926 40.0987 88.2981 39.997 88.2109 39.8881L88.0874 39.7138L88.022 39.6267C87.9857 39.5758 87.9348 39.4887 87.8985 39.4088C87.7459 38.9368 87.8186 38.6972 87.8476 38.3994C87.9421 37.8475 88.1165 37.3247 88.4217 36.8381Z" fill="#DC8C7A"/>
<path d="M85.0622 38.2033C85.0622 38.806 84.5754 39.2998 83.9722 39.2998C83.3691 39.2998 82.875 38.8133 82.875 38.2106C82.875 37.6078 83.3619 37.1213 83.965 37.114C84.5681 37.114 85.0622 37.6006 85.0622 38.2033Z" fill="#522C31"/>
<path d="M91.2969 38.2033C91.2969 38.806 91.7837 39.2998 92.3941 39.2998C92.9972 39.2998 93.4841 38.8133 93.4841 38.2106C93.4841 37.6078 92.9972 37.1213 92.3941 37.114C91.7837 37.114 91.2969 37.6006 91.2969 38.2033Z" fill="#522C31"/>
<path d="M91.0519 42.437C91.19 42.742 91.0883 43.1487 90.8921 43.4464C90.6886 43.7441 90.4197 43.9838 90.1218 44.1581C89.526 44.5212 88.8429 44.6664 88.1817 44.6737C87.5131 44.6664 86.8301 44.5284 86.2415 44.1581C85.9436 43.9838 85.6747 43.7441 85.4712 43.4464C85.2751 43.1487 85.1733 42.742 85.3187 42.437C85.6238 43.0107 86.1398 43.1196 86.6339 43.2576C87.1425 43.3665 87.6657 43.4101 88.1889 43.4174C88.7121 43.4174 89.2353 43.3738 89.744 43.2649C90.2308 43.1196 90.754 43.0107 91.0519 42.437Z" fill="#C35E64"/>
<path d="M84.1641 47.7454C85.2468 48.2246 86.6056 48.5805 88.1824 48.5805C89.7593 48.5805 91.1181 48.2174 92.2008 47.7454" stroke="#DC8C7A" stroke-width="0.9913" stroke-miterlimit="10"/>
</g>
<mask id="mask2_7508_42478" style="mask-type:luminance" maskUnits="userSpaceOnUse" x="57" y="152" width="62" height="61">
<path d="M118.624 182.547C118.624 199.351 104.992 212.974 88.1771 212.974C71.3624 212.974 57.7305 199.351 57.7305 182.547C57.7305 165.743 71.3624 152.12 88.1771 152.12C104.992 152.12 118.624 165.743 118.624 182.547Z" fill="white"/>
</mask>
<g mask="url(#mask2_7508_42478)">
<path d="M118.624 182.547C118.624 199.351 104.992 212.974 88.1771 212.974C71.3624 212.974 57.7305 199.351 57.7305 182.547C57.7305 165.743 71.3624 152.12 88.1771 152.12C104.992 152.12 118.624 165.743 118.624 182.547Z" fill="#A7E1FF"/>
</g>
<mask id="mask3_7508_42478" style="mask-type:luminance" maskUnits="userSpaceOnUse" x="57" y="152" width="62" height="61">
<path d="M118.624 182.547C118.624 199.351 104.992 212.974 88.1771 212.974C71.3624 212.974 57.7305 199.351 57.7305 182.547C57.7305 165.743 71.3624 152.12 88.1771 152.12C104.992 152.12 118.624 165.743 118.624 182.547Z" fill="white"/>
</mask>
<g mask="url(#mask3_7508_42478)">
<path d="M99.4622 183.164C98.1397 179.25 99.4622 176.723 98.4085 168.633C97.413 161.03 90.8223 159.345 88.1773 159.701C85.5323 159.345 78.9415 161.03 77.946 168.633C76.8924 176.716 78.2076 179.243 76.8924 183.164C75.5699 187.078 71.9148 194.406 74.9958 197.63C75.737 198.407 80.8672 200.251 88.1773 200.251C95.4874 200.251 100.618 198.407 101.359 197.63C104.44 194.398 100.777 187.078 99.4622 183.164Z" fill="#7C2729"/>
<path d="M65.293 229.35H72.683C73.4024 225.581 73.9764 221.369 73.9764 221.369C73.9764 221.369 75.8803 205.843 75.764 201.602C75.6477 197.361 75.2045 191.806 75.2045 191.806C75.2045 191.806 70.4159 193.585 68.1923 197.26C65.9688 200.934 65.4456 205.451 65.5182 210.723C65.5909 215.995 65.4601 220.505 65.4092 222.632C65.3148 226.162 65.293 229.35 65.293 229.35Z" fill="#FFC39F"/>
<path d="M111.066 229.35H103.676C102.957 225.581 102.383 221.369 102.383 221.369C102.383 221.369 100.479 205.843 100.595 201.602C100.711 197.361 101.154 191.806 101.154 191.806C101.154 191.806 105.943 193.585 108.167 197.26C110.397 200.934 110.913 205.451 110.841 210.723C110.768 215.995 110.899 220.505 110.95 222.632C111.037 226.162 111.066 229.35 111.066 229.35Z" fill="#FFC39F"/>
<path d="M109.002 197.659C106.931 194.573 103.043 192.583 103.043 192.583C103.043 192.583 101.641 191.588 99.7009 191.131C97.0995 190.513 90.9157 189.526 88.1762 189.526C85.4367 189.526 79.2529 190.513 76.6515 191.131C74.7186 191.588 73.3089 192.583 73.3089 192.583C73.3089 192.583 69.4141 194.573 67.3504 197.659C66.6019 198.777 64.3566 202.198 65.0251 204.863C65.6936 207.528 72.8947 209.263 72.8947 209.263C72.8947 209.263 73.4252 216.416 73.4252 220.2C73.4252 223.983 72.3061 229.35 72.3061 229.35H87.4495H104.046C104.046 229.35 102.927 223.99 102.927 220.2C102.927 216.416 103.458 209.263 103.458 209.263C103.458 209.263 110.666 207.528 111.327 204.863C111.996 202.198 109.758 198.777 109.002 197.659Z" fill="#2754C5"/>
<path d="M88.1766 202.016C95.9881 202.016 100.544 197.702 103.814 193.019C103.342 192.735 103.044 192.583 103.044 192.583C103.044 192.583 101.641 191.588 99.7013 191.131C97.0999 190.513 90.9161 189.526 88.1766 189.526C85.4371 189.526 79.2533 190.513 76.6519 191.131C74.719 191.588 73.3093 192.583 73.3093 192.583C73.3093 192.583 73.0114 192.735 72.5391 193.019C75.809 197.702 80.3651 202.016 88.1766 202.016Z" fill="#709CCC"/>
<path d="M98.1031 191.472C97.6525 190.825 94.3608 189.969 92.9947 189.794L91.5923 180.71H84.7618L83.3593 189.794C81.9932 189.976 78.7015 190.825 78.251 191.472C77.8004 192.125 79.4281 195.132 81.7026 196.599C83.0105 197.441 85.7137 198.741 88.177 198.741C90.6404 198.741 93.3435 197.448 94.6515 196.599C96.9186 195.132 98.5536 192.118 98.1031 191.472Z" fill="#FFC39F"/>
<path d="M88.1776 162.257C80.0609 162.257 78.2588 171.582 78.9055 176.425C79.5522 181.269 80.4097 181.784 81.7831 183.251C82.6478 184.174 84.973 185.662 88.1776 185.662C91.3821 185.662 93.7074 184.174 94.5721 183.251C95.9382 181.784 96.8029 181.269 97.4496 176.425C98.0964 171.589 96.2943 162.257 88.1776 162.257Z" fill="#FFC39F"/>
<path d="M92.2406 185.103C91.325 185.408 90.2641 185.633 89.0288 185.713C87.0014 185.837 85.3883 185.517 84.1094 185.023" stroke="#DC8C7A" stroke-width="0.9913" stroke-miterlimit="10"/>
<path d="M88.0549 173.789C88.3601 174.283 88.5345 174.798 88.6217 175.358C88.6508 175.655 88.7235 175.895 88.5709 176.367C88.5418 176.44 88.4837 176.534 88.4473 176.585L88.3819 176.672L88.2511 176.839C88.1639 176.948 88.0767 177.05 87.9895 177.137C87.8224 177.326 87.728 177.405 87.6626 177.514C87.6408 177.536 87.6262 177.594 87.6117 177.602C87.6044 177.551 87.5826 177.558 87.5826 177.58C87.5754 177.623 87.619 177.725 87.6626 177.812C87.866 178.212 88.2148 178.633 88.5127 179.097C87.9605 178.974 87.4591 178.756 86.9868 178.364C86.8705 178.255 86.7542 178.139 86.6525 177.936C86.6016 177.834 86.5508 177.71 86.5508 177.529C86.5508 177.405 86.5508 177.333 86.5653 177.231C86.6234 176.825 86.8705 176.483 87.0522 176.294C87.1466 176.185 87.2338 176.098 87.321 176.011L87.4518 175.888L87.5172 175.83C87.5172 175.83 87.4954 175.859 87.4954 175.88C87.5318 175.866 87.6117 175.568 87.6553 175.35C87.7788 174.857 87.866 174.326 88.0549 173.789Z" fill="#DC8C7A"/>
<path d="M91.2969 174.835C91.2969 175.438 91.7837 175.931 92.3869 175.931C92.99 175.931 93.4841 175.445 93.4841 174.842C93.4841 174.239 92.9972 173.753 92.3941 173.746C91.791 173.746 91.2969 174.232 91.2969 174.835Z" fill="#2C1D31"/>
<path d="M85.0617 174.835C85.0617 175.438 84.5748 175.931 83.9644 175.931C83.3613 175.931 82.8745 175.445 82.8672 174.842C82.8672 174.239 83.354 173.753 83.9572 173.746C84.5748 173.746 85.0617 174.232 85.0617 174.835Z" fill="#2C1D31"/>
<path d="M94.1019 172.279C93.6877 172.032 93.259 171.858 92.7939 171.749C92.4016 171.654 92.0237 171.625 91.624 171.691C91.2244 171.756 90.6794 172.09 90.5704 172.504C90.6067 172.438 90.6503 172.373 90.6867 172.308C90.5922 172.409 90.505 172.54 90.5268 172.693C90.5413 172.78 90.5195 172.562 90.5195 172.743C90.5195 172.867 90.6358 172.969 90.7303 173.027C90.7957 173.063 90.8683 173.085 90.941 173.085C90.9846 173.085 90.9773 173.085 90.9265 173.085C90.9919 173.092 91.0573 173.107 91.1227 173.107C91.2099 173.107 91.297 173.092 91.3842 173.078C91.4133 173.07 91.5296 173.034 91.5514 173.048C91.5223 173.048 91.5005 173.056 91.4714 173.056C91.5005 173.056 91.5296 173.048 91.5586 173.048C91.6676 173.034 91.7694 173.027 91.8711 173.005C91.9147 172.998 91.9728 172.976 92.0164 172.976C91.8348 172.969 92.031 172.983 92.0746 172.983C92.1545 172.983 92.2344 172.998 92.3216 172.998C92.1036 172.99 92.2853 172.998 92.3362 173.005C92.3725 173.012 92.4161 173.019 92.4524 173.027C92.6486 173.07 92.8376 173.128 93.0265 173.186C93.2299 173.252 93.4407 173.281 93.6514 173.339C93.9275 173.419 94.2182 173.266 94.3272 173.005C94.4507 172.729 94.349 172.424 94.1019 172.279Z" fill="#8B3B29"/>
<path d="M82.7003 173.324C82.9038 173.266 83.1218 173.237 83.3253 173.172C83.5142 173.114 83.7031 173.056 83.8993 173.012C83.9356 173.005 83.9792 172.998 84.0156 172.99C84.0664 172.983 84.2481 172.976 84.0301 172.983C84.11 172.976 84.19 172.968 84.2772 172.968C84.299 172.968 84.4806 172.976 84.3716 172.968C84.2699 172.961 84.4588 172.99 84.4806 172.99C84.5824 173.012 84.6914 173.027 84.7931 173.034C84.8149 173.034 84.8367 173.041 84.8585 173.041C84.9094 173.048 84.8876 173.041 84.8004 173.034C84.8294 173.019 84.9384 173.056 84.9675 173.063C85.0474 173.077 85.1274 173.092 85.2073 173.092C85.2799 173.092 85.3526 173.077 85.4253 173.07C85.3744 173.07 85.3671 173.07 85.4107 173.07C85.4907 173.07 85.5561 173.048 85.6287 173.012C85.7305 172.954 85.8395 172.852 85.8395 172.729C85.8395 172.547 85.8249 172.765 85.8322 172.678C85.854 172.526 85.7668 172.395 85.6723 172.293C85.7087 172.358 85.7523 172.424 85.7886 172.489C85.6869 172.068 85.1346 171.741 84.735 171.676C84.3353 171.611 83.9574 171.64 83.565 171.734C83.1 171.843 82.664 172.024 82.2571 172.264C82.01 172.409 81.9083 172.722 82.0245 172.983C82.1335 173.252 82.4242 173.404 82.7003 173.324Z" fill="#8B3B29"/>
<path d="M91.0482 178.981C91.1862 179.286 91.0845 179.693 90.8883 179.991C90.6848 180.288 90.416 180.528 90.118 180.702C89.5222 181.065 88.8391 181.211 88.1779 181.218C87.5094 181.211 86.8263 181.073 86.2305 180.702C85.9325 180.528 85.6637 180.288 85.4602 179.991C85.264 179.693 85.1695 179.286 85.3076 178.981C85.6128 179.555 86.1287 179.664 86.6228 179.802C87.1315 179.911 87.6547 179.954 88.1779 179.962C88.7011 179.962 89.2243 179.918 89.7329 179.809C90.227 179.664 90.7502 179.555 91.0482 178.981Z" fill="#C35E64"/>
<path d="M99.9636 170.282C99.4331 167.617 98.3286 164.233 95.9597 161.618C93.5908 159.004 89.1074 158.416 88.1773 159.868C87.2472 158.416 82.7637 159.004 80.3948 161.618C78.026 164.233 76.9287 167.617 76.391 170.282C75.8969 172.765 71.7041 196.824 73.8259 198.065C76.0931 199.402 82.4949 201.13 83.4322 196.199C84.3696 191.268 82.2333 185.001 80.4966 180.862C79.9516 179.562 80.3294 173.695 80.9326 171.879C82.5167 170.819 84.6385 169.759 86.2589 168.728C86.971 168.27 87.6178 167.747 88.1845 167.21C88.7513 167.747 89.3908 168.27 90.1102 168.728C91.7306 169.759 93.8524 170.819 95.4365 171.879C96.0396 173.695 96.4175 179.562 95.8652 180.862C94.1285 184.994 91.9995 191.261 92.9296 196.199C93.867 201.13 100.269 199.402 102.536 198.065C104.65 196.816 100.465 172.765 99.9636 170.282Z" fill="#8B3B29"/>
</g>
<mask id="mask4_7508_42478" style="mask-type:luminance" maskUnits="userSpaceOnUse" x="57" y="83" width="62" height="62">
<path d="M88.1771 144.459C104.992 144.459 118.624 130.836 118.624 114.032C118.624 97.2272 104.992 83.6045 88.1771 83.6045C71.3619 83.6045 57.7305 97.2272 57.7305 114.032C57.7305 130.836 71.3619 144.459 88.1771 144.459Z" fill="white"/>
</mask>
<g mask="url(#mask4_7508_42478)">
<path d="M88.1771 144.459C104.992 144.459 118.624 130.836 118.624 114.032C118.624 97.2272 104.992 83.6045 88.1771 83.6045C71.3619 83.6045 57.7305 97.2272 57.7305 114.032C57.7305 130.836 71.3619 144.459 88.1771 144.459Z" fill="#A7E1FF"/>
</g>
<mask id="mask5_7508_42478" style="mask-type:luminance" maskUnits="userSpaceOnUse" x="57" y="83" width="62" height="62">
<path d="M88.1771 144.459C104.992 144.459 118.624 130.836 118.624 114.032C118.624 97.2272 104.992 83.6045 88.1771 83.6045C71.3619 83.6045 57.7305 97.2272 57.7305 114.032C57.7305 130.836 71.3619 144.459 88.1771 144.459Z" fill="white"/>
</mask>
<g mask="url(#mask5_7508_42478)">
<path d="M106.861 160.827C107.101 147.051 109.971 129.928 107.74 125.019C106.89 123.145 96.2519 120.466 88.1788 120.466C80.1057 120.466 69.4676 123.145 68.6174 125.019C66.3866 129.92 69.2568 147.051 69.4966 160.827H106.861Z" fill="#8CB0ED"/>
<path d="M69.9457 123.988C69.9457 123.988 69.3281 134.488 69.6769 137.988C70.1201 142.44 69.9893 146.913 69.9893 146.913L69.6551 160.82H59.7435C59.7435 160.82 59.4093 143.13 61.4148 135.004C62.6138 130.131 64.8374 127.836 66.1453 126.413C67.2789 125.193 69.9457 123.988 69.9457 123.988Z" fill="#8CB0ED"/>
<path d="M69.8154 127.72C69.8154 127.72 69.0161 133.319 69.6846 136.652C70.3531 139.985 70.0334 144.103 69.9971 146.913C69.9535 149.724 69.6628 160.82 69.6628 160.82" stroke="#6888D4" stroke-width="0.8627" stroke-miterlimit="10"/>
<path d="M106.409 123.988C106.409 123.988 107.027 134.488 106.678 137.988C106.235 142.44 106.366 146.913 106.366 146.913L106.7 160.82H116.611C116.611 160.82 116.946 143.13 114.94 135.004C113.741 130.131 111.518 127.836 110.21 126.413C109.076 125.193 106.409 123.988 106.409 123.988Z" fill="#8CB0ED"/>
<path d="M106.54 127.72C106.54 127.72 107.339 133.319 106.671 136.652C106.002 139.985 106.322 144.103 106.358 146.913C106.402 149.724 106.692 160.82 106.692 160.82" stroke="#6888D4" stroke-width="0.8627" stroke-miterlimit="10"/>
<path d="M86.2461 129.223V160.827" stroke="#6888D4" stroke-width="0.8627" stroke-miterlimit="10"/>
<path d="M90.1133 129.223V160.827" stroke="#6888D4" stroke-width="0.8627" stroke-miterlimit="10"/>
<path d="M96.6661 121.185C95.9249 118.679 95.0093 118.498 93.1636 118.142C91.7539 117.866 89.276 118.534 88.1788 118.861C87.0816 118.527 84.6037 117.866 83.194 118.142C81.3483 118.498 80.4254 118.679 79.6915 121.185C78.9576 123.69 83.3829 132.462 83.3829 132.462L88.1788 127.343L92.9747 132.462C92.9747 132.462 97.4 123.69 96.6661 121.185Z" fill="#6888D4"/>
<path d="M81.8047 121.235L83.4179 114.533C83.4179 114.533 86.1573 115.353 88.1774 115.353C90.2048 115.353 92.9442 114.533 92.9442 114.533L94.5574 121.235C94.5574 121.235 91.5781 126.29 88.1847 126.29C84.784 126.29 81.8047 121.235 81.8047 121.235Z" fill="#FFC39F"/>
<path d="M89.0419 133.457C89.0419 133.936 88.6568 134.321 88.1772 134.321C87.6976 134.321 87.3125 133.936 87.3125 133.457C87.3125 132.978 87.6976 132.593 88.1772 132.593C88.6568 132.593 89.0419 132.978 89.0419 133.457Z" fill="#E1EBFF"/>
<path d="M89.0419 138.758C89.0419 139.237 88.6568 139.622 88.1772 139.622C87.6976 139.622 87.3125 139.237 87.3125 138.758C87.3125 138.279 87.6976 137.894 88.1772 137.894C88.6568 137.894 89.0419 138.279 89.0419 138.758Z" fill="#E1EBFF"/>
<path d="M89.0419 144.06C89.0419 144.539 88.6568 144.924 88.1772 144.924C87.6976 144.924 87.3125 144.539 87.3125 144.06C87.3125 143.58 87.6976 143.195 88.1772 143.195C88.6568 143.188 89.0419 143.58 89.0419 144.06Z" fill="#E1EBFF"/>
<path d="M78.4922 105.688C78.4922 112.151 82.1109 117.387 88.1784 117.387C94.246 117.387 97.8647 112.151 97.8647 105.688C97.8647 99.2248 95.336 93.989 88.1784 93.989C81.0209 93.989 78.4922 99.2248 78.4922 105.688Z" fill="#FFC39F"/>
<path d="M100.405 105.39C100.95 107.46 99.4241 110.103 97.3895 110.495C95.3549 110.887 95.7182 107.823 96.5466 106.211C97.3749 104.598 99.8601 103.32 100.405 105.39Z" fill="#FFC39F"/>
<path d="M77.3426 104.351C79.3772 104.743 80.8959 107.387 80.3582 109.456C79.8132 111.526 77.3353 110.248 76.4997 108.636C75.6713 107.016 75.308 103.959 77.3426 104.351Z" fill="#FFC39F"/>
<path d="M88.1389 105.942C88.3496 106.458 88.495 106.959 88.6548 107.438C88.7202 107.678 88.8074 107.91 88.8946 108.092C88.96 108.244 89.0835 108.353 89.2361 108.527C89.3161 108.614 89.4178 108.716 89.5341 108.905C89.6576 109.087 89.7303 109.392 89.7085 109.617C89.6794 109.856 89.6576 109.98 89.5413 110.212C89.4396 110.408 89.3088 110.553 89.178 110.655C88.6403 111.054 88.088 111.185 87.4922 111.12C87.8337 110.641 88.2116 110.27 88.4005 109.922C88.495 109.755 88.4732 109.697 88.4804 109.573C88.4732 109.537 88.4804 109.58 88.4659 109.544C88.4514 109.508 88.3787 109.421 88.2915 109.304C88.1171 109.087 87.9427 108.752 87.8628 108.411C87.8046 108.099 87.8046 107.823 87.8119 107.547C87.8482 106.988 87.9354 106.465 88.1389 105.942Z" fill="#DC8C7A"/>
<path d="M91.048 111.236C91.1861 111.541 91.0844 111.947 90.8882 112.245C90.6847 112.543 90.4158 112.783 90.1179 112.957C89.522 113.32 88.839 113.465 88.1777 113.472C87.5092 113.465 86.8262 113.327 86.2376 112.957C85.9397 112.783 85.6708 112.543 85.4673 112.245C85.2711 111.947 85.1694 111.541 85.3147 111.236C85.6199 111.81 86.1359 111.918 86.63 112.056C87.1386 112.165 87.6618 112.209 88.185 112.216C88.7082 112.216 89.2314 112.173 89.74 112.064C90.2269 111.918 90.7501 111.817 91.048 111.236Z" fill="#C35E64"/>
<path d="M90.9688 106.538C90.9688 107.14 91.4629 107.627 92.066 107.627C92.6691 107.627 93.156 107.133 93.156 106.53C93.156 105.928 92.6618 105.441 92.0587 105.441C91.4556 105.441 90.9688 105.928 90.9688 106.538Z" fill="#522C31"/>
<path d="M85.3864 106.552C85.3864 107.184 84.8996 107.692 84.2965 107.692C83.6933 107.692 83.1992 107.184 83.1992 106.559C83.1992 105.928 83.6861 105.419 84.2892 105.419C84.8923 105.412 85.3864 105.92 85.3864 106.552Z" fill="#522C31"/>
<path d="M90.6182 104.671C90.7344 104.613 90.5237 104.693 90.6618 104.657C90.7126 104.642 90.7635 104.628 90.8144 104.613C90.8434 104.606 90.8798 104.599 90.9088 104.599C91.0033 104.577 90.8725 104.599 90.8725 104.606C90.8798 104.591 91.0324 104.591 91.0614 104.591C91.3811 104.577 91.7009 104.548 92.0206 104.577C92.1078 104.584 92.1877 104.591 92.2749 104.599C92.2095 104.591 92.2023 104.584 92.2677 104.599C92.3185 104.606 92.3621 104.613 92.413 104.62C92.6383 104.664 92.8635 104.679 93.096 104.7C93.1324 104.7 93.1832 104.715 93.1178 104.7C93.1832 104.708 93.2486 104.722 93.3213 104.729C93.423 104.744 93.532 104.744 93.6338 104.744C93.75 104.744 93.859 104.766 93.9753 104.744C94.077 104.722 94.1206 104.729 94.2223 104.766C94.404 104.831 94.5566 104.562 94.4113 104.439C94.3168 104.359 94.2805 104.301 94.2223 104.192C94.1715 104.098 94.077 104.018 93.9971 103.945C93.8154 103.778 93.6338 103.655 93.4085 103.553C93.176 103.451 92.958 103.357 92.7109 103.321C92.4711 103.284 92.2313 103.255 91.9915 103.248C91.2794 103.226 90.5237 103.35 89.9787 103.851C89.7898 104.025 89.7825 104.345 89.9351 104.541C90.1022 104.744 90.3784 104.795 90.6182 104.671Z" fill="#972D05"/>
<path d="M86.3738 103.843C85.8289 103.342 85.0731 103.219 84.361 103.241C84.1285 103.248 83.896 103.277 83.6707 103.306C83.4164 103.342 83.2056 103.429 82.9731 103.531C82.7479 103.633 82.5589 103.749 82.3773 103.916C82.2973 103.989 82.2029 104.068 82.1447 104.163C82.1157 104.206 82.1084 104.265 82.0793 104.308C82.0503 104.359 81.9921 104.395 81.9485 104.432C81.8032 104.555 81.9558 104.824 82.1375 104.758C82.2392 104.722 82.2755 104.715 82.3845 104.737C82.4863 104.758 82.588 104.744 82.697 104.737C82.7842 104.737 82.8786 104.737 82.9658 104.729C83.0458 104.722 83.1257 104.708 83.2129 104.693C83.3146 104.678 83.1402 104.7 83.2347 104.693C83.4672 104.664 83.6925 104.657 83.9178 104.613C83.9686 104.606 84.0122 104.599 84.0631 104.584C84.0776 104.584 84.2011 104.562 84.1212 104.577C84.0268 104.591 84.1866 104.57 84.2011 104.57C84.2447 104.562 84.2956 104.562 84.3392 104.555C84.6517 104.533 84.9641 104.562 85.2766 104.57C85.342 104.57 85.4074 104.584 85.4655 104.584C85.5382 104.584 85.342 104.555 85.4437 104.584C85.4655 104.591 85.4946 104.591 85.5164 104.599C85.5745 104.613 85.6327 104.628 85.6908 104.642C85.7126 104.649 85.7344 104.657 85.7489 104.664C85.6399 104.642 85.6763 104.635 85.7344 104.657C85.9669 104.773 86.2503 104.737 86.4102 104.519C86.57 104.33 86.57 104.025 86.3738 103.843Z" fill="#972D05"/>
<path d="M95.8179 105.738L95.2656 105.136C95.3165 105.085 96.5954 103.843 97.7726 103.204C97.7726 103.204 97.9615 103.226 98.0269 103.712C98.0923 104.199 97.8961 104.199 97.8961 104.199C96.8134 104.78 95.8324 105.724 95.8179 105.738Z" fill="#556EC0"/>
<path d="M80.531 105.738L81.0832 105.136C81.0323 105.085 79.7534 103.843 78.5763 103.204C78.5763 103.204 78.3873 103.226 78.3219 103.712C78.2565 104.199 78.4527 104.199 78.4527 104.199C79.5354 104.78 80.5164 105.724 80.531 105.738Z" fill="#556EC0"/>
<path d="M89.49 105.717C88.6907 105.209 87.6588 105.209 86.8595 105.717L86.4453 105.071C87.4917 104.41 88.8505 104.41 89.8969 105.071L89.49 105.717Z" fill="#556EC0"/>
<path d="M83.7349 109.587C81.8747 109.587 80.3633 108.077 80.3633 106.218C80.3633 104.359 81.8747 102.848 83.7349 102.848C85.5952 102.848 87.1066 104.359 87.1066 106.218C87.1066 108.077 85.5952 109.587 83.7349 109.587ZM83.7349 103.64C82.3107 103.64 81.1481 104.802 81.1481 106.225C81.1481 107.648 82.3034 108.81 83.7349 108.81C85.1664 108.81 86.3218 107.648 86.3218 106.225C86.3218 104.802 85.1664 103.64 83.7349 103.64Z" fill="#556EC0"/>
<path d="M92.606 109.587C90.7458 109.587 89.2344 108.077 89.2344 106.218C89.2344 104.359 90.7458 102.848 92.606 102.848C94.4663 102.848 95.9777 104.359 95.9777 106.218C95.9777 108.077 94.4663 109.587 92.606 109.587ZM92.606 103.64C91.1818 103.64 90.0264 104.802 90.0264 106.225C90.0264 107.648 91.1818 108.81 92.606 108.81C94.0303 108.81 95.1929 107.648 95.1929 106.225C95.1929 104.802 94.0375 103.64 92.606 103.64Z" fill="#556EC0"/>
<path d="M98.0608 98.2081C97.5376 96.4508 95.4739 93.9019 94.1224 93.1031C89.2466 90.2346 88.1784 93.5678 88.1784 93.5678C88.1784 93.5678 87.1102 90.2346 82.2344 93.1031C80.8755 93.9019 78.8191 96.4435 78.2959 98.2081C77.3731 101.316 78.1869 105.02 78.1869 105.02C78.1869 105.02 78.9281 105.034 79.8001 104.504C80.6648 103.974 82.605 101.636 82.605 101.636C82.605 101.636 83.6731 102.907 85.9403 102.035C86.7178 101.737 87.5026 101.062 88.1856 100.3C88.876 101.062 89.6535 101.737 90.431 102.035C92.6981 102.899 93.7663 101.636 93.7663 101.636C93.7663 101.636 95.6992 103.967 96.5712 104.504C97.4359 105.034 98.1844 105.02 98.1844 105.02C98.1844 105.02 98.9837 101.316 98.0608 98.2081Z" fill="#972D05"/>
<path d="M93.3139 116.196C91.8388 117.082 90.0294 117.387 88.1765 117.387C86.3163 117.387 84.5142 117.082 83.0391 116.196" stroke="#DC8C7A" stroke-width="0.9913" stroke-miterlimit="10"/>
</g>
<path d="M197.889 28.0804C197.889 29.7434 196.254 31.1086 194.256 31.1086H137.301C135.303 31.1086 133.668 29.7434 133.668 28.0804C133.668 26.4175 135.303 25.0522 137.301 25.0522H194.256C196.254 25.0522 197.889 26.4175 197.889 28.0804Z" fill="#E8E8E8"/>
<path d="M277.821 39.6993C277.821 41.3623 276.186 42.7275 274.188 42.7275H137.301C135.303 42.7275 133.668 41.3623 133.668 39.6993C133.668 38.0364 135.303 36.6711 137.301 36.6711H274.188C276.186 36.6711 277.821 38.0364 277.821 39.6993Z" fill="#E8E8E8"/>
<path d="M277.821 51.3182C277.821 52.9812 276.186 54.3464 274.188 54.3464H137.301C135.303 54.3464 133.668 52.9812 133.668 51.3182C133.668 49.6553 135.303 48.29 137.301 48.29H274.188C276.186 48.29 277.821 49.6553 277.821 51.3182Z" fill="#E8E8E8"/>
<path d="M277.821 62.9371C277.821 64.6001 276.186 65.9653 274.188 65.9653H137.301C135.303 65.9653 133.668 64.6001 133.668 62.9371C133.668 61.2742 135.303 59.9089 137.301 59.9089H274.188C276.186 59.9089 277.821 61.2742 277.821 62.9371Z" fill="#E8E8E8"/>
<path d="M221.302 21.7988H211.129V31.9654H221.302V21.7988Z" stroke="#E8E8E8" stroke-width="3" stroke-miterlimit="10"/>
<path d="M242.919 21.7988H232.746V31.9654H242.919V21.7988Z" stroke="#E8E8E8" stroke-width="3" stroke-miterlimit="10"/>
<path d="M235.652 23.9775L238.922 28.6977L248.369 19.6204" stroke="#FFA968" stroke-width="3" stroke-miterlimit="10"/>
<path d="M264.536 21.7988H254.363V31.9654H264.536V21.7988Z" stroke="#E8E8E8" stroke-width="3" stroke-miterlimit="10"/>
<path d="M257.27 23.9775L260.539 28.6977L269.986 19.6204" stroke="#68A2B1" stroke-width="3" stroke-miterlimit="10"/>
<path d="M197.889 96.6031C197.889 98.2661 196.254 99.6313 194.256 99.6313H137.301C135.303 99.6313 133.668 98.2661 133.668 96.6031C133.668 94.9402 135.303 93.575 137.301 93.575H194.256C196.254 93.575 197.889 94.9329 197.889 96.6031Z" fill="#E8E8E8"/>
<path d="M277.821 108.222C277.821 109.885 276.186 111.25 274.188 111.25H137.301C135.303 111.25 133.668 109.885 133.668 108.222C133.668 106.559 135.303 105.194 137.301 105.194H274.188C276.186 105.194 277.821 106.552 277.821 108.222Z" fill="#E8E8E8"/>
<path d="M277.821 119.841C277.821 121.504 276.186 122.869 274.188 122.869H137.301C135.303 122.869 133.668 121.504 133.668 119.841C133.668 118.178 135.303 116.813 137.301 116.813H274.188C276.186 116.813 277.821 118.171 277.821 119.841Z" fill="#E8E8E8"/>
<path d="M277.821 131.46C277.821 133.123 276.186 134.488 274.188 134.488H137.301C135.303 134.488 133.668 133.123 133.668 131.46C133.668 129.797 135.303 128.432 137.301 128.432H274.188C276.186 128.432 277.821 129.79 277.821 131.46Z" fill="#E8E8E8"/>
<path d="M221.302 90.3215H211.129V100.488H221.302V90.3215Z" stroke="#E8E8E8" stroke-width="3" stroke-miterlimit="10"/>
<path d="M214.035 92.5002L217.305 97.2204L226.752 88.1431" stroke="#FF728C" stroke-width="3" stroke-miterlimit="10"/>
<path d="M242.919 90.3215H232.746V100.488H242.919V90.3215Z" stroke="#E8E8E8" stroke-width="3" stroke-miterlimit="10"/>
<path d="M264.536 90.3215H254.363V100.488H264.536V90.3215Z" stroke="#E8E8E8" stroke-width="3" stroke-miterlimit="10"/>
<path d="M257.27 92.5002L260.539 97.2204L269.986 88.1431" stroke="#68A2B1" stroke-width="3" stroke-miterlimit="10"/>
<path d="M197.889 165.119C197.889 166.781 196.254 168.147 194.256 168.147H137.301C135.303 168.147 133.668 166.781 133.668 165.119C133.668 163.456 135.303 162.09 137.301 162.09H194.256C196.254 162.098 197.889 163.456 197.889 165.119Z" fill="#E8E8E8"/>
<path d="M277.821 176.737C277.821 178.4 276.186 179.766 274.188 179.766H137.301C135.303 179.766 133.668 178.4 133.668 176.737C133.668 175.074 135.303 173.709 137.301 173.709H274.188C276.186 173.716 277.821 175.074 277.821 176.737Z" fill="#E8E8E8"/>
<path d="M277.821 188.356C277.821 190.019 276.186 191.384 274.188 191.384H137.301C135.303 191.384 133.668 190.019 133.668 188.356C133.668 186.693 135.303 185.328 137.301 185.328H274.188C276.186 185.335 277.821 186.693 277.821 188.356Z" fill="#E8E8E8"/>
<path d="M277.821 199.975C277.821 201.638 276.186 203.003 274.188 203.003H137.301C135.303 203.003 133.668 201.638 133.668 199.975C133.668 198.312 135.303 196.947 137.301 196.947H274.188C276.186 196.954 277.821 198.312 277.821 199.975Z" fill="#E8E8E8"/>
<path d="M221.302 158.844H211.129V169.011H221.302V158.844Z" stroke="#E8E8E8" stroke-width="3" stroke-miterlimit="10"/>
<path d="M214.035 161.023L217.305 165.743L226.752 156.666" stroke="#FF728C" stroke-width="3" stroke-miterlimit="10"/>
<path d="M242.919 158.844H232.746V169.011H242.919V158.844Z" stroke="#E8E8E8" stroke-width="3" stroke-miterlimit="10"/>
<path d="M235.652 161.023L238.922 165.743L248.369 156.666" stroke="#FFA968" stroke-width="3" stroke-miterlimit="10"/>
<path d="M264.536 158.844H254.363V169.011H264.536V158.844Z" stroke="#E8E8E8" stroke-width="3" stroke-miterlimit="10"/>
<path d="M257.27 161.023L260.539 165.743L269.986 156.666" stroke="#68A2B1" stroke-width="3" stroke-miterlimit="10"/>
<path d="M134.343 159.73C134.343 168.844 126.953 176.229 117.834 176.229C108.714 176.229 101.324 168.844 101.324 159.73C101.324 150.617 108.714 143.231 117.834 143.231C126.953 143.231 134.343 150.617 134.343 159.73Z" fill="#E87888"/>
<path d="M108.191 159.353L114.76 165.504L127.564 153.558" stroke="white" stroke-width="6" stroke-miterlimit="10"/>
<path d="M298.936 283.951C290.943 284.314 270.96 278.505 260.06 286.493C249.16 294.481 266.6 301.743 278.226 301.379C289.853 301.016 293.123 298.475 301.116 299.564C309.109 300.653 320.953 303.376 329.455 301.379C341.808 298.475 342.535 289.397 335.632 286.13C328.729 282.862 306.929 283.588 298.936 283.951Z" fill="#00b14f" fill-opacity="0.29"/>
<path d="M326.844 292.571C326.815 290.857 325.928 287.952 325.827 285.345C325.652 281.097 324.838 278.788 324.838 278.788C324.838 278.788 322.6 279.79 318.8 279.884C315.007 279.972 314.128 278.853 314.128 278.853C314.128 278.853 313.51 281.591 312.638 284.14C311.635 287.052 309.949 289.71 309.041 291.852C308.46 293.232 308.976 296.463 310.516 297.879C311.453 298.743 312.936 299.39 315.232 299.593C320.464 300.043 324.155 299.237 325.856 297.095C326.764 295.948 326.873 293.994 326.844 292.571Z" fill="#23378B"/>
<path d="M309.562 295.025C309.562 295.025 309.606 296.964 314.482 297.48C322.061 298.279 326.225 295.272 326.384 293.529" stroke="#5F79C5" stroke-miterlimit="10"/>
<path d="M315.172 283.029C315.172 283.029 319.539 282.092 322.562 283.276" stroke="#5F79C5" stroke-miterlimit="10"/>
<path d="M315.043 286.943C315.043 286.943 319.41 286.006 322.433 287.19" stroke="#5F79C5" stroke-miterlimit="10"/>
<path d="M269.265 287.015C270.464 286.246 273.138 284.575 274.192 283.443C276.742 280.69 279.417 278.178 280.289 277.357L291.762 277.495C291.762 277.495 293.019 284.387 292.649 286.95C292.387 288.736 291.123 289.034 288.558 290.494C286.952 291.416 283.595 294.045 281.088 295.207C278.414 296.434 271.591 296.311 268.88 295.076C263.205 292.498 265.879 289.187 269.265 287.015Z" fill="#23378B"/>
<path d="M283.847 281.758C283.847 281.758 281.035 280.306 277.961 280.502" stroke="#5F79C5" stroke-miterlimit="10"/>
<path d="M281.734 284.459C281.734 284.459 278.921 283.007 275.848 283.203" stroke="#5F79C5" stroke-miterlimit="10"/>
<path d="M269.867 294.808C269.867 294.808 274.779 295.526 278.747 294.51C282.14 293.638 284.662 289.819 287.895 288.686C291.129 287.546 292.248 285.534 292.248 285.534" stroke="#5F79C5" stroke-miterlimit="10"/>
<path d="M299.682 173.012C295.591 173.273 275.216 172.496 275.216 172.496C275.216 172.496 272.68 195.56 273.973 204.499C274.998 211.55 274.983 225.028 275.201 227.614C275.419 230.199 276.749 239.465 276.974 241.491C278.26 252.885 277.781 276.921 277.781 276.921C277.781 276.921 279.147 278.781 284.393 279.463C289.829 280.168 294.079 279.34 294.079 279.34L295.525 266.661C295.525 266.661 297.72 245.834 297.814 240.692C297.909 235.551 294.762 225.515 294.762 225.515L298.49 202.938C298.49 202.938 302.087 192.859 301.804 184.798C301.528 176.737 299.682 173.012 299.682 173.012Z" fill="#4A68CA"/>
<path d="M301.81 184.805C301.527 176.744 299.681 173.019 299.681 173.019C297.734 173.143 292.08 173.034 286.703 172.881C287.488 178.269 289.225 189.177 291.477 197.092C293.301 203.504 295.198 210.614 296.44 215.385L298.489 202.952C298.497 202.945 302.094 192.866 301.81 184.805Z" fill="#3955BC"/>
<path d="M315.722 173.208C311.733 174.174 291.539 176.919 291.539 176.919C291.539 176.919 294.438 200.04 295.666 206.976C296.902 213.911 299.598 228.572 300.266 231.085C300.927 233.597 303.841 242.493 304.415 244.447C307.649 255.448 312.118 279.332 312.118 279.332C312.118 279.332 313.789 280.93 319.065 280.69C324.536 280.451 327.385 279.035 327.385 279.035C327.385 279.035 325.844 246.574 325.052 241.498C324.26 236.422 320.809 225.392 320.809 225.392L319.733 202.887C319.733 202.887 321.528 192.336 319.857 184.442C318.185 176.556 315.722 173.208 315.722 173.208Z" fill="#4A68CA"/>
<path d="M245.263 87.1118C245.263 87.1118 251.156 94.0541 253.336 97.5035C255.516 100.953 259.694 107.489 259.694 107.489C259.694 107.489 266.597 108.396 269.141 108.578C271.684 108.759 278.238 107.837 281.494 108.215C284.742 108.592 286.762 111.846 286.762 111.846L275.681 131.997C275.681 131.997 265.326 128.911 261.329 127.095C257.333 125.28 250.974 121.983 248.794 119.834C246.615 117.684 244.238 113.857 242.073 109.122C238.927 102.238 235.896 94.0541 236.078 93.3279C236.26 92.6018 238.65 89.8277 240.532 88.9418C242.414 88.0559 245.263 87.1118 245.263 87.1118Z" fill="#AACCFF"/>
<path d="M243.652 86.2041C243.652 86.2041 245.251 86.618 245.432 88.3463C245.614 90.0747 244.219 92.5727 241.908 93.5749C238.936 94.8602 237.199 93.1028 237.199 93.1028L235.848 89.5591L243.652 86.2041Z" fill="#4A68CA"/>
<path d="M244.153 84.6936C243.652 82.3553 242.881 81.0191 241.944 79.131C241.007 77.243 240.244 76.161 238.979 74.2148C237.715 72.2686 236.015 69.3421 233.718 67.9115C232.788 67.3306 231.851 68.9717 232.447 69.9085C233.246 71.1576 233.471 71.8256 234.423 72.9512C235.244 73.9243 235.448 75.4783 235.869 76.6548C235.361 76.6039 234.263 76.5821 233.508 76.7927C232.723 77.0178 232.192 78.2741 232.192 78.2741C232.192 78.2741 231.371 78.1725 230.913 78.5646C230.463 78.9568 230.063 80.5544 230.063 80.5544C230.063 80.5544 229.424 80.6996 228.821 81.3822C228.218 82.0648 228.552 84.0909 229.039 85.0277C229.526 85.9644 230.376 88.3173 232.156 88.2664C232.752 88.2519 233.304 88.0849 233.835 87.8452C235.579 91.3745 238.136 93.0592 241.53 91.7521C244.931 90.445 244.778 87.5838 244.153 84.6936Z" fill="#FFC39F"/>
<path d="M240.455 81.2297C240.455 81.2297 239.038 79.9226 237.454 79.683C235.391 79.378 234.112 79.6684 234.504 80.8303C234.897 81.9922 236.677 82.7692 237.302 84.3233C237.934 85.8991 239.685 86.3348 239.685 86.3348" stroke="#DC8C7A" stroke-miterlimit="10"/>
<path d="M232.207 78.4849C232.207 78.4849 231.728 83.038 234.293 84.4977C235.95 85.4417 236.72 83.5972 236.72 83.5972" stroke="#DC8C7A" stroke-miterlimit="10"/>
<path d="M230.035 80.6924C230.035 80.6924 230.26 85.2673 233.022 86.313C234.802 86.9884 235.282 85.0495 235.282 85.0495" stroke="#DC8C7A" stroke-miterlimit="10"/>
<path d="M233.886 86.6833C233.886 86.6833 234.009 88.3608 232.156 88.2737" stroke="#DC8C7A" stroke-miterlimit="10"/>
<path d="M318.135 124.278C317.721 117.822 319.363 112.056 317.525 109.667C314.851 106.189 302.737 104.213 292.39 105.404C288.916 105.796 282.733 107.539 280.785 108.069C278.009 108.825 274.776 109.79 272.741 111.061C268.272 113.864 269.435 120.545 269.151 123.065C268.745 126.725 271.128 138.3 272.712 144.48C273.969 149.397 274.035 176.89 274.035 176.89C274.035 176.89 277.174 182.089 295.573 180.543C311.355 179.221 316.791 174.065 316.791 174.065C316.791 174.065 315.352 157.711 315.352 149.985C315.359 142.28 318.527 130.407 318.135 124.278Z" fill="#AACCFF"/>
<path d="M291.777 102.863C294.625 102.238 300.678 101.309 303.512 103.908C306.346 106.501 305.924 110.546 303.781 113.262C301.637 115.978 295.788 120.69 295.788 120.69L290.578 115.004L285.491 119.725C285.491 119.725 281.792 113.16 283.1 108.883C284.401 104.598 288.928 103.487 291.777 102.863Z" fill="#4A68CA"/>
<path d="M271.644 138.642C271.644 138.642 268.134 122.695 269.413 117.597" stroke="#85B1E6" stroke-miterlimit="10"/>
<path d="M286.684 99.653L300.403 93.9016L303.354 107.053L290.456 114.387L285.652 108.984L286.684 99.653Z" fill="#FFC39F"/>
<path d="M285.282 75.9068C285.282 75.9068 280.508 78.0709 280.028 84.2725C279.541 90.4813 282.136 91.1131 284.395 89.806C286.648 88.5061 293.856 81.4186 293.856 81.4186L291.807 74.1277L285.282 75.9068Z" fill="#50172A"/>
<path d="M283.166 79.8138C280.274 83.5464 280.826 86.531 280.943 90.9244C281.059 95.1871 281.786 99.1666 284.721 101.403C288.616 104.373 293.506 104.664 297.888 100.866C299.843 99.1666 302.546 95.6737 304.036 91.7596C305.867 86.9595 302.982 76.9382 297.99 74.6942C293.005 72.4576 286.058 76.0813 283.166 79.8138Z" fill="#FFC39F"/>
<path d="M307.116 81.0628C306.324 77.6861 303.076 76.8364 303.076 76.8364L298.288 79.1893C298.288 79.1893 296.972 81.9633 299.821 84.1781C300.78 84.9261 300.62 88.1431 300.032 90.7791C299.45 93.4079 300.751 93.633 301.579 92.1008C302.408 90.5613 304.609 90.859 305.758 90.4596C306.92 90.053 307.574 83.009 307.116 81.0628Z" fill="#50172A"/>
<path d="M286.691 102.747C286.691 102.747 289.983 104.511 293.406 103.553C296.828 102.594 299.757 98.5566 299.757 98.5566" stroke="#DC8C7A" stroke-miterlimit="10"/>
<path d="M305.22 78.5502C305.22 78.5502 305.351 74.5707 299.661 71.9056C293.971 69.2405 284.888 71.7822 283.072 73.7211C281.546 75.3477 283.559 76.5024 283.559 76.5024C283.559 76.5024 280.652 77.4682 280.049 79.1675C279.446 80.8595 281.502 82.9218 285.622 82.6749C289.742 82.4353 292.039 82.0722 292.039 82.0722C292.039 82.0722 291.188 83.7642 293.492 84.0111C295.795 84.258 301.18 80.8522 301.696 80.5981C302.72 80.097 305.22 78.5502 305.22 78.5502Z" fill="#50172A"/>
<path d="M302.497 89.9731C303.87 87.8164 308.215 87.9398 307.707 90.8881C307.205 93.8437 303.434 97.4601 301.109 95.9423C299.852 95.1145 301.123 92.1299 302.497 89.9731Z" fill="#FFC39F"/>
<path d="M285.681 90.0384C285.31 90.5903 284.562 90.7356 284.01 90.3725C283.457 90.0021 283.305 89.2614 283.675 88.7095C284.046 88.1576 284.787 88.0051 285.347 88.3755C285.899 88.7386 286.044 89.4865 285.681 90.0384Z" fill="#412500"/>
<path d="M294.64 90.0239C294.342 90.6194 293.623 90.8663 293.027 90.5686C292.431 90.2708 292.184 89.5519 292.482 88.9564C292.78 88.361 293.499 88.1213 294.095 88.4118C294.691 88.7095 294.938 89.4285 294.64 90.0239Z" fill="#412500"/>
<path d="M288.151 86.5745C288.274 87.4531 288.303 88.3246 288.274 89.196C288.26 89.639 288.224 90.0747 288.151 90.5322C288.115 90.7573 288.064 91.0042 287.94 91.2947C287.817 91.5851 287.62 91.8248 287.431 92.0063C286.589 92.7398 286.385 92.8559 286.552 93.1609C286.69 93.4224 286.966 93.7419 287.25 94.0396C287.533 94.3446 287.846 94.6424 288.158 94.9909C287.693 94.9764 287.25 94.8602 286.821 94.6932C286.392 94.5189 285.971 94.3156 285.579 93.9016C285.397 93.6911 285.172 93.4078 285.15 92.9358C285.135 92.58 285.237 92.2314 285.419 91.941C285.811 91.3818 286.24 91.1639 286.494 90.9533C286.763 90.7428 286.857 90.6556 286.995 90.2272C287.126 89.8495 287.243 89.4429 287.366 89.0362C287.591 88.2302 287.838 87.4023 288.151 86.5745Z" fill="#DC8C7A"/>
<path d="M286.472 86.8213C286.283 86.6761 286.102 86.5309 285.884 86.4292C285.535 86.2694 285.172 86.0952 284.794 86.008C284.372 85.9063 283.951 85.9935 283.544 86.1097C283.166 86.2113 282.796 86.3421 282.432 86.48C282.142 86.5962 281.945 86.8649 282.033 87.1844C282.105 87.4604 282.447 87.7 282.737 87.5838C283.079 87.4459 283.42 87.3224 283.769 87.2207C283.958 87.1699 284.147 87.1191 284.343 87.09C284.409 87.0828 284.467 87.0755 284.365 87.0828C284.394 87.0828 284.423 87.0755 284.452 87.0755C284.467 87.0755 284.518 87.09 284.532 87.0828C284.431 87.0682 284.416 87.0682 284.474 87.0755C284.489 87.0755 284.51 87.0828 284.525 87.0828C284.852 87.1481 285.164 87.2716 285.47 87.3878C285.659 87.4604 285.848 87.4967 286.036 87.5475C286.225 87.5911 286.429 87.5185 286.531 87.3442C286.632 87.1989 286.625 86.9448 286.472 86.8213Z" fill="#50172A"/>
<path d="M291.58 87.7727C291.806 87.6492 291.929 87.6129 292.205 87.5258C292.765 87.3515 293.295 87.1844 293.891 87.1917C294.429 87.199 294.908 87.366 295.381 87.5911C295.475 87.6347 295.577 87.6783 295.671 87.7291C295.744 87.7654 295.81 87.809 295.889 87.8308C296.035 87.8598 296.071 87.8598 296.006 87.8453C295.969 87.8307 295.977 87.838 296.028 87.8525C296.231 87.8961 296.391 87.9469 296.594 87.8525C296.536 87.8598 296.485 87.8671 296.427 87.8743C296.493 87.8961 296.456 87.9106 296.384 87.838C296.572 88.0123 296.856 87.7291 296.667 87.5548C296.783 87.6637 296.711 87.6129 296.674 87.5475C296.681 87.6056 296.689 87.6565 296.696 87.7146C296.732 87.5766 296.711 87.4531 296.645 87.3297C296.631 87.3006 296.493 87.0683 296.471 87.0755C296.551 87.2208 296.551 87.2135 296.478 87.0537C296.449 87.0174 296.42 86.9811 296.398 86.9448C296.34 86.8867 296.253 86.8359 296.187 86.785C296.078 86.7124 295.977 86.6398 295.86 86.589C295.25 86.2985 294.574 86.1315 293.898 86.1533C292.903 86.1823 291.878 86.4946 291.13 87.1699C290.788 87.4749 291.21 87.976 291.58 87.7727Z" fill="#50172A"/>
<path d="M288.805 96.8644C288.805 96.8644 289.648 96.4795 291.152 95.855C292.656 95.2305 292.969 96.0148 292.947 97.213C292.925 98.4112 290.716 99.6384 289.139 99.5585C286.836 99.4496 285.717 98.5128 286 97.0677C286.276 95.6154 288.805 96.8644 288.805 96.8644Z" fill="white"/>
<path d="M338.174 148.699C338.719 146.521 336.176 137.625 334.359 133.45C332.542 129.274 329.469 122.063 325.094 115.564C320.371 108.542 312.741 105.492 308.701 108.825C307.037 110.197 309.631 119.935 312.625 126.638C314.492 130.814 317.188 133.929 318.256 135.069C319.136 136.703 323.459 146.71 323.459 146.71C323.459 146.71 320.734 151.975 319.644 155.787C318.554 159.599 316.193 167.951 316.193 167.951L321.461 175.757C321.461 175.757 327.637 170.129 331.997 163.775C336.357 157.421 337.629 150.878 338.174 148.699Z" fill="#AACCFF"/>
<path d="M311.652 126.188C311.652 126.188 313.469 129.819 314.377 131.089C315.286 132.36 316.921 133.994 316.921 133.994" stroke="#85B1E6" stroke-miterlimit="10"/>
<path d="M317.066 177.093C317.066 177.093 315.867 176.912 315.489 176.258C314.85 175.14 315.846 174.363 316.296 173.789C314.661 173.55 314.109 171.465 315.293 170.216C314.232 169.476 314.08 167.711 315.308 166.723C315.308 166.723 317.626 165.859 318.476 165.685C319.326 165.503 320.678 166.142 320.743 167.072C320.809 168.001 320.133 168.357 320.133 168.357C320.133 168.357 321.542 168.895 321.63 170.245C321.681 171.139 320.62 171.611 320.62 171.611C320.62 171.611 321.608 171.262 322.182 172.257C322.996 173.666 321.717 174.348 321.579 174.566C322.226 174.748 322.705 175.249 322.669 176.331C322.64 177.115 322.051 177.754 321.368 178.219C320.685 178.691 320.772 178.553 319.791 178.989C318.803 179.424 317.43 180.659 316.601 179.758C315.78 178.865 317.066 177.093 317.066 177.093Z" fill="#FFC39F"/>
<path d="M320.783 171.298C319.584 172.635 316.184 174.007 316.184 174.007" stroke="#DC8C7A" stroke-miterlimit="10"/>
<path d="M317.223 177.333C317.223 177.333 320.776 176.454 322.048 174.138" stroke="#DC8C7A" stroke-miterlimit="10"/>
<path d="M315.168 170.267C315.168 170.267 318.83 169.49 320.334 168.437" stroke="#DC8C7A" stroke-miterlimit="10"/>
<path d="M276.519 44.0129H250.614C247.664 44.0129 245.266 46.4093 245.266 49.3576V62.9445C245.266 65.9001 247.664 68.2892 250.614 68.2892H265.772C265.808 69.5819 266.164 71.7023 267.923 73.0821C270.597 75.1807 273.852 75.3768 273.852 75.3768C273.852 75.3768 271.934 71.971 271.861 68.2965H276.526C279.484 68.2965 281.874 65.9001 281.874 62.9518V49.3576C281.867 46.4021 279.476 44.0129 276.519 44.0129Z" fill="#488EAC"/>
<path d="M257.169 55.8208C257.169 56.7648 256.406 57.5273 255.462 57.5273C254.517 57.5273 253.754 56.7648 253.754 55.8208C253.754 54.8767 254.517 54.1143 255.462 54.1143C256.406 54.1143 257.169 54.8767 257.169 55.8208Z" fill="white"/>
<path d="M265.271 55.8208C265.271 56.7648 264.508 57.5273 263.563 57.5273C262.618 57.5273 261.855 56.7648 261.855 55.8208C261.855 54.8767 262.618 54.1143 263.563 54.1143C264.508 54.1143 265.271 54.8767 265.271 55.8208Z" fill="white"/>
<path d="M273.372 55.8208C273.372 56.7648 272.609 57.5273 271.665 57.5273C270.72 57.5273 269.957 56.7648 269.957 55.8208C269.957 54.8767 270.72 54.1143 271.665 54.1143C272.609 54.1143 273.372 54.8767 273.372 55.8208Z" fill="white"/>
<path d="M36.4489 278.701C49.4777 278.243 65.4568 279.449 69.497 288.446C73.5371 297.444 49.3833 300.443 40.1185 299.317C30.8537 298.192 22.4899 304.19 14.4168 303.442C6.33647 302.694 -2.84114 295.57 0.828452 289.194C4.49804 282.818 11.4739 280.197 15.5141 279.071C19.5615 277.953 25.8034 279.071 36.4489 278.701Z" fill="#00b14f" fill-opacity="0.29"/>
<path d="M57.9733 138.533C57.9733 138.533 62.5221 155.576 64.3969 161.495C66.2717 167.406 64.208 171.378 58.3221 171.472C52.429 171.56 48.832 139.056 48.832 139.056L57.9733 138.533Z" fill="#FFC39F"/>
<path d="M59.8835 143.413C58.9752 140.138 57.8052 132.702 54.7242 128.461C51.6432 124.227 44.3767 121.7 42.8726 122.869C41.3684 124.045 43.4684 133.863 48.01 145.039C51.0692 142.933 53.7723 142.781 59.8835 143.413Z" fill="#AACCFF"/>
<path d="M25.3173 273.218C25.3173 273.218 26.2982 273.407 26.865 274.438C27.1194 274.896 27.272 277.779 27.272 278.628C27.2647 281.497 26.7415 280.734 26.4363 281.569C26.1892 282.237 26.1093 283.247 26.0439 283.704C25.8986 284.721 26.2692 288.432 25.6661 290.763C25.0629 293.101 22.1345 296.55 18.8355 296.957C16.0815 297.298 12.2593 296.5 11.9905 292.796C11.7216 289.092 14.0106 284.641 15.3767 281.838C16.7355 279.035 18.2687 274.482 20.6812 273.552C23.0719 272.623 25.3173 273.218 25.3173 273.218Z" fill="#23378B"/>
<path d="M15.1804 246.72C16.314 254.563 18.2469 264.235 18.2396 266.959C18.2323 269.682 17.5638 273.69 17.0624 276.094C16.5538 278.49 15.7835 279.507 14.8243 282.797C13.9378 285.839 14.5119 286.631 15.6309 287.793C16.75 288.955 19.424 288.962 20.9355 288.483C22.4469 287.996 24.6559 286.181 24.9248 284.474C25.1936 282.768 25.7968 279.26 26.2981 276.856C26.8068 274.453 26.0075 269.805 26.3417 266.596C26.6687 263.379 29.9677 250.409 30.9415 245.1C32.1768 238.362 29.7788 227.839 29.7788 227.839L15.5364 228.151C15.551 228.151 14.0541 238.877 15.1804 246.72Z" fill="#FFC39F"/>
<path d="M31.4277 197.862C31.4277 197.862 33.7311 206.99 33.4913 212.996C33.2007 220.417 31.3477 229.974 28.9352 233.198C26.53 236.423 18.5732 235.239 16.6912 234.004C14.8091 232.77 14.286 225.159 13.087 216.576C11.888 207.992 13.77 197.514 13.77 197.514L31.4277 197.862Z" fill="#FFC39F"/>
<path d="M31.4277 197.862L13.77 197.506C13.77 197.506 11.888 207.985 13.087 216.569C13.5302 219.728 13.879 222.741 14.2351 225.37C18.5514 226.605 24.5027 227.904 31.1079 228.217C32.4014 223.874 33.3024 217.963 33.4913 212.989C33.7311 206.99 31.4277 197.862 31.4277 197.862Z" fill="#F0AF8E"/>
<path d="M39.0309 272.281C40.288 271.192 44.2846 271.715 45.7233 274.765C47.1694 277.822 48.4265 282.499 48.4265 282.499C48.4265 282.499 51.0061 285.839 53.3169 286.798C55.6276 287.764 62.3055 294.938 55.4532 296.049C48.5936 297.161 43.6524 293.021 42.1192 289.165C40.5932 285.324 40.1281 283.886 38.4568 282.063C36.7783 280.24 36.4803 274.496 39.0309 272.281Z" fill="#23378B"/>
<path d="M37.332 278.875C37.332 278.875 37.8843 282.724 38.5455 285.055C39.2141 287.386 38.749 289.528 39.2795 290.153C39.8099 290.77 41.1397 290.814 41.1688 290.233C41.1978 289.652 40.5438 284.314 40.1078 282.07L37.332 278.875Z" fill="#23378B"/>
<path d="M36.5224 231.463C36.5224 231.463 35.3453 236.343 35.3089 243.125C35.2653 249.908 39.3709 263.277 40.0685 266.93C40.6644 270.009 38.6733 272.891 38.6515 275.361C38.6297 277.837 41.3619 280.262 42.3938 282.891C43.4329 285.527 44.5955 287.793 47.0952 288.73C49.5949 289.659 52.814 289.87 54.4199 288.933C56.0185 287.996 53.1555 285.876 51.7603 283.813C50.0236 281.235 48.5994 277.583 48.1779 275.658C46.87 269.587 49.5077 254.969 50.1036 248.136C50.6994 241.31 53.4534 231.412 50.9901 228.347C48.5267 225.276 37.329 231.129 36.5224 231.463Z" fill="#FFC39F"/>
<path d="M32.2344 204.797C32.2344 204.797 32.7358 213.925 33.5205 219.103C34.3053 224.281 36.9867 237.12 36.9867 237.12C36.9867 237.12 49.4487 241.005 51.0692 236.633C52.6896 232.261 54.092 211.972 53.4017 205.828C52.7114 199.685 50.4079 197.042 50.4079 197.042L34.0437 196.337L32.2344 204.797Z" fill="#FFC39F"/>
<path d="M53.3945 205.828C52.7041 199.685 50.4007 197.042 50.4007 197.042L34.0365 196.337L32.2344 204.797C32.2344 204.797 32.7358 213.925 33.5205 219.103C33.8548 221.303 34.5306 224.883 35.1918 228.275C40.9687 228.159 47.0581 227.171 52.8785 224.673C53.5034 217.513 53.7941 209.35 53.3945 205.828Z" fill="#F0AF8E"/>
<path d="M15.7025 172.664C15.7025 172.664 12.1782 179.911 10.7322 188.109C9.28617 196.308 9.50417 201.82 9.70036 209.307C9.86023 215.392 10.9139 221.979 10.9139 221.979C10.9139 221.979 23.9718 224.942 34.6463 224.883C45.3208 224.825 54.8908 222.502 54.8908 222.502C54.8908 222.502 55.7192 214.15 55.6683 209.009C55.6029 202.539 55.5956 195.386 55.0071 189.852C54.3022 183.251 51.0177 172.94 51.0177 172.94L15.7025 172.664Z" fill="#4A68CA"/>
<path d="M52.0558 175.997C52.0558 175.997 50.261 160.442 50.7478 157.363C51.2347 154.291 51.9614 149.578 53.3929 146.005C54.8171 142.432 54.7226 139.339 52.5063 136.209C50.2901 133.079 50.3918 127.219 48.3426 124.663C46.2935 122.099 38.8453 121.453 34.1293 120.77C29.4134 120.088 15.5852 122.68 13.8994 126.798C11.3416 133.036 14.3572 144.299 17.6489 154.625C19.6036 160.754 15.4544 173.833 15.4544 173.833C15.4544 173.833 22.7354 179.482 36.5418 179.511C42.8564 179.526 52.0558 175.997 52.0558 175.997Z" fill="#AACCFF"/>
<path d="M50.0195 127.96C50.0195 127.96 50.3465 132.288 51.4002 133.98C52.4465 135.672 54.3649 139.397 54.3504 141.554C54.3431 143.166 53.3403 145.817 52.5265 148.605" stroke="#85B1E6" stroke-miterlimit="10"/>
<path d="M26.1816 121.257C28.1799 119.18 32.1328 119.536 34.2837 119.885C36.4346 120.233 40.453 120.945 41.6156 124.111C42.7783 127.27 40.8527 134.328 40.8527 134.328L35.9841 128.512L32.111 134.88C32.111 134.88 28.8629 131.758 27.2352 129.506C25.6075 127.263 24.1833 123.334 26.1816 121.257Z" fill="#4A68CA"/>
<path d="M17.7302 101.026C17.3087 101.919 16.9236 107.104 17.9336 112.579C19.7939 122.673 30.4829 121.642 35.7366 122.012C40.9903 122.39 41.3609 126.638 44.9869 125.011C48.6128 123.385 46.1204 118.737 45.9896 115.891C45.8588 112.993 46.3021 109.936 46.5855 107.416C46.8689 104.896 47.2322 98.9923 45.0886 97.5762C41.4917 95.2016 18.1516 100.132 17.7302 101.026Z" fill="#50172A"/>
<path d="M33.1784 88.3101C33.1784 88.3101 46.2653 89.2614 46.7813 99.1157C46.9775 102.957 46.1927 106.457 44.7975 110.023C43.4023 113.581 41.513 115.934 33.8105 115.077C26.108 114.22 24.9091 103.393 26.2534 97.0097C27.5977 90.6266 33.1784 88.3101 33.1784 88.3101Z" fill="#50172A"/>
<path d="M38.9179 115.68L39.2303 123.269C39.2303 123.269 38.104 127.517 35.9822 127.894C33.8604 128.272 26.8555 122.775 26.8555 122.775L28.5195 113.814L38.9179 115.68Z" fill="#FFC39F"/>
<path d="M25.2569 94.6207C28.3234 90.5541 32.3854 89.4067 37.1304 91.0188C40.3495 92.1154 43.4523 96.8864 44.1644 100.597C44.753 103.604 46.09 114.845 37.7045 117.481C32.6833 119.057 31.4843 117.888 28.3379 116.094C20.6354 111.722 20.323 101.171 25.2569 94.6207Z" fill="#FFC39F"/>
<path d="M27.5186 103.081C26.5013 104.7 26.4504 105.521 24.0525 108.07C23.6601 108.491 25.4186 112.579 23.7763 113.305C22.1414 114.031 20.0195 111.461 18.5226 108.324C17.0257 105.187 17.2292 99.5514 18.2756 96.7193C19.5908 93.1755 23.6819 87.8526 30.6722 87.2862C37.5318 86.727 42.7056 90.0602 42.1315 94.5262C41.7464 97.5253 37.0304 99.762 34.7342 100.713C32.4453 101.665 28.5359 101.461 27.5186 103.081Z" fill="#50172A"/>
<path d="M33.4238 106.131C33.5401 106.85 33.0532 107.525 32.3338 107.634C31.6144 107.75 30.9459 107.263 30.8297 106.545C30.7134 105.826 31.2002 105.158 31.9196 105.041C32.6318 104.925 33.3075 105.412 33.4238 106.131Z" fill="#522C31"/>
<path d="M41.9472 105.572C42.0635 106.29 41.5694 106.959 40.8573 107.075C40.1379 107.191 39.4621 106.704 39.3531 105.985C39.2368 105.267 39.7237 104.591 40.4431 104.482C41.1552 104.366 41.831 104.853 41.9472 105.572Z" fill="#522C31"/>
<path d="M37.2485 103.996C37.4375 104.548 37.5247 105.07 37.6409 105.557C37.6918 105.797 37.7427 106.029 37.8081 106.225C37.8444 106.414 37.997 106.574 37.8953 106.443L38.1133 106.69C38.1423 106.748 38.2876 106.908 38.4184 107.067C38.5638 107.227 38.7164 107.409 38.869 107.605C39.0216 107.815 39.1742 108.033 39.2904 108.353C39.3486 108.512 39.3849 108.701 39.3776 108.912C39.3704 109.13 39.2832 109.355 39.1669 109.507C39.0361 109.682 38.9344 109.74 38.8326 109.827C38.7309 109.907 38.6219 109.987 38.5129 110.052C38.3022 110.19 38.0769 110.292 37.8444 110.379C37.3939 110.553 36.9215 110.64 36.4492 110.64C36.8489 110.401 37.2122 110.139 37.5392 109.856C37.6991 109.711 37.8517 109.565 37.9825 109.42C38.0551 109.348 38.106 109.268 38.1641 109.188C38.215 109.108 38.2804 109.014 38.2586 108.992C38.2295 108.934 38.2077 108.97 38.135 108.861C38.0624 108.767 37.9389 108.636 37.8008 108.498C37.6627 108.353 37.5029 108.207 37.343 108.04C37.1759 107.859 37.0087 107.692 36.8198 107.351L37.0378 107.597C36.7617 107.38 36.6599 107.14 36.5945 106.951C36.5292 106.755 36.5074 106.588 36.4928 106.428C36.4783 106.109 36.5074 105.818 36.5655 105.535C36.6236 105.259 36.7108 104.99 36.8198 104.729C36.9361 104.482 37.0669 104.228 37.2485 103.996Z" fill="#DC816B"/>
<path d="M30.0968 102.914C30.0896 102.921 30.075 102.921 30.0678 102.928C30.1768 102.914 30.2858 102.899 30.3948 102.885C30.2058 102.834 30.0314 102.877 29.8861 103.008C29.7408 103.139 29.7117 103.378 29.7844 103.553C29.8643 103.734 30.0387 103.85 30.2349 103.858C30.3948 103.865 30.5619 103.829 30.7072 103.756C30.7218 103.749 30.7436 103.741 30.7581 103.727C30.8308 103.683 30.6636 103.749 30.7072 103.749C30.7436 103.749 30.7944 103.72 30.838 103.712C30.8889 103.698 30.9325 103.691 30.9834 103.683C30.9979 103.683 31.0924 103.669 31.0052 103.676C30.918 103.691 31.0124 103.676 31.027 103.676C31.1432 103.662 31.2595 103.654 31.3757 103.654C31.4775 103.647 31.5792 103.647 31.6809 103.632C31.7318 103.625 31.7827 103.625 31.8335 103.618C31.8844 103.611 31.9425 103.603 31.9934 103.596C31.9716 103.596 31.9498 103.603 31.9353 103.603C31.9571 103.589 32.0079 103.596 32.0297 103.596C32.1533 103.589 32.2768 103.596 32.4003 103.596C32.4803 103.596 32.2841 103.574 32.364 103.589C32.3931 103.596 32.4149 103.596 32.4439 103.603C32.5457 103.618 32.6329 103.625 32.7273 103.625C32.9526 103.611 33.1415 103.495 33.236 103.284C33.3159 103.102 33.2941 102.812 33.1197 102.681C32.9598 102.558 32.8218 102.471 32.6183 102.442C32.4585 102.42 32.2986 102.398 32.1387 102.405C31.9643 102.412 31.7827 102.434 31.6083 102.463C31.5574 102.471 31.4993 102.471 31.4484 102.485C31.4775 102.478 31.5719 102.471 31.492 102.478C31.4557 102.485 31.4266 102.485 31.3903 102.492C31.1214 102.529 30.8453 102.55 30.5837 102.63C30.511 102.652 30.4456 102.681 30.3802 102.71C30.155 102.805 30.5474 102.638 30.3294 102.732C30.3003 102.747 30.264 102.761 30.2349 102.776C30.1695 102.812 30.1041 102.863 30.046 102.914C29.9806 102.972 30.1259 102.87 30.0678 102.899C30.0387 102.914 30.0096 102.928 29.9806 102.943C30.2204 103.131 30.4674 103.313 30.7072 103.502C30.7581 103.378 30.7145 103.197 30.6418 103.088C30.6564 103.197 30.6709 103.306 30.6854 103.415C30.6854 103.4 30.6854 103.393 30.6927 103.378C30.7145 103.211 30.6927 103.059 30.5474 102.957C30.4093 102.841 30.2422 102.834 30.0968 102.914Z" fill="#50172A"/>
<path d="M39.1874 101.991C39.1728 101.999 39.1656 101.999 39.151 102.006C39.26 101.991 39.369 101.977 39.478 101.962C39.2818 101.911 39.1147 101.955 38.9621 102.086C38.8095 102.216 38.7877 102.456 38.8604 102.63C38.9403 102.812 39.1147 102.928 39.3109 102.935C39.4708 102.943 39.6379 102.906 39.7832 102.834C39.7977 102.826 39.8195 102.819 39.8341 102.805C39.9067 102.761 39.7469 102.826 39.7832 102.826C39.8195 102.826 39.8704 102.797 39.914 102.79C39.9649 102.776 40.0085 102.768 40.0593 102.761C40.0739 102.761 40.1683 102.747 40.0811 102.754C39.9939 102.768 40.0884 102.754 40.1029 102.754C40.2192 102.739 40.3355 102.732 40.4517 102.725C40.5535 102.718 40.6552 102.718 40.7569 102.703C40.8078 102.696 40.8587 102.696 40.9095 102.689C40.9604 102.681 41.0185 102.674 41.0694 102.667C41.0476 102.667 41.0258 102.674 41.0113 102.674C41.0331 102.659 41.0839 102.667 41.1057 102.667C41.2293 102.659 41.3528 102.667 41.4763 102.667C41.5562 102.667 41.36 102.645 41.44 102.659C41.469 102.667 41.4908 102.667 41.5199 102.674C41.6216 102.689 41.7088 102.696 41.8033 102.696C42.0286 102.681 42.2175 102.565 42.312 102.354C42.3919 102.173 42.3701 101.882 42.1957 101.752C42.0358 101.628 41.8978 101.541 41.6943 101.512C41.5344 101.49 41.3746 101.469 41.2147 101.476C41.0403 101.483 40.8587 101.505 40.6843 101.534C40.6334 101.541 40.5825 101.548 40.5244 101.563C40.4299 101.577 40.568 101.556 40.568 101.556C40.568 101.556 40.4735 101.57 40.4663 101.57C40.1974 101.606 39.9213 101.628 39.6597 101.708C39.587 101.73 39.5216 101.759 39.4562 101.788C39.231 101.882 39.6234 101.715 39.4054 101.81C39.3763 101.824 39.34 101.839 39.3109 101.853C39.2455 101.89 39.1801 101.941 39.122 101.991C39.0566 102.049 39.2019 101.948 39.1438 101.977C39.1147 101.991 39.0856 102.006 39.0566 102.02C39.2818 102.246 39.5071 102.471 39.7323 102.696C39.8123 102.514 39.8268 102.34 39.7178 102.166C39.7323 102.275 39.7469 102.384 39.7614 102.492C39.7614 102.478 39.7687 102.471 39.7687 102.456C39.7905 102.289 39.7687 102.137 39.6234 102.035C39.4926 101.919 39.3327 101.919 39.1874 101.991Z" fill="#50172A"/>
<path d="M33.1695 110.989C33.3875 111.592 33.7727 111.976 34.2014 112.209C34.6374 112.434 35.146 112.543 35.6838 112.594C36.2215 112.652 36.7374 112.644 37.2315 112.543C37.7111 112.412 38.198 112.165 38.6122 111.671C38.6485 112.332 38.1834 112.986 37.5658 113.327C36.9409 113.676 36.2215 113.756 35.5675 113.683C34.9135 113.61 34.2159 113.392 33.6855 112.884C33.1477 112.39 32.9152 111.599 33.1695 110.989Z" fill="#DC7769"/>
<path d="M38.252 117.575C34.5606 118.766 32.2935 118.004 29.9609 116.784" stroke="#DC8C7A" stroke-width="0.9913" stroke-miterlimit="10"/>
<path d="M22.3014 143.994C22.3014 143.994 22.8537 152.127 23.4786 157.755C24.1035 163.376 24.8956 168.808 21.5385 170.347C18.1813 171.894 13.3709 166.593 12.0411 163.586C10.7041 160.58 9.78125 147.719 9.78125 147.719L22.3014 143.994Z" fill="#FFC39F"/>
<path d="M8.48872 136.18C7.44961 142.128 9.23717 149.585 9.23717 149.585C9.23717 149.585 11.6787 148.046 15.1376 147.581C18.5964 147.116 23.0799 147.719 23.0799 147.719C23.0799 147.719 24.3951 142.062 23.4359 135.766C22.4768 129.47 20.4712 124.539 16.7435 124.423C13.0158 124.322 9.52783 130.233 8.48872 136.18Z" fill="#AACCFF"/>
<path d="M36.4925 143.006C36.4925 143.006 30.5412 146.666 25.6581 151.081C20.7823 155.496 15.9501 161.139 15.6739 164.414C15.3906 167.689 18.5224 172.896 24.2484 170.877C29.9672 168.858 34.5378 159.745 36.8413 155.976C39.1448 152.214 41.2957 147.53 41.2957 147.53L36.4925 143.006Z" fill="#FFC39F"/>
<path d="M22.5512 153.921C22.5512 153.921 18.4602 156.557 16.8906 160.159" stroke="#DC8C7A" stroke-width="0.9913" stroke-miterlimit="10"/>
<path d="M22.0391 131.627C22.0391 131.627 23.565 135.505 23.645 138.976C23.7249 142.447 22.8529 147.167 22.8529 147.167" stroke="#85B1E6" stroke-miterlimit="10"/>
<path d="M41.0969 136.463C41.6927 130.719 45.0281 121.78 45.0281 121.78L65.5632 125.854C65.5632 125.854 63.6376 132.89 62.0389 138.395C60.1715 144.814 60.4694 152.381 60.4694 152.381C60.4694 152.381 50.6523 152.33 46.7647 151.771C42.8772 151.205 39.2148 151.611 39.2148 151.611C39.2148 151.611 40.3339 143.827 41.0969 136.463Z" fill="#F0F0F0"/>
<path d="M40.023 132.702C40.023 132.702 39.9431 131.837 40.2265 131.162C40.5825 130.312 41.5054 129.76 43.8961 131.583C45.3203 132.672 45.5964 133.878 45.313 134.502C45.0369 135.12 43.7943 135.004 43.7943 135.004C43.7943 135.004 45.5601 137.001 45.066 138.329C44.5718 139.658 43.213 138.634 43.213 138.634C43.213 138.634 43.7507 139.709 43.6345 140.435C43.5182 141.162 43.1403 141.605 42.5953 141.684C42.0431 141.757 41.3818 141.133 41.3818 141.133C41.3818 141.133 41.6943 142.382 41.7161 143.754C41.7379 144.872 41.5708 146.071 40.895 146.746C39.3908 148.249 37.7486 146.848 36.7676 144.248C35.7866 141.648 36.9347 138.78 36.9347 138.78C36.9347 138.78 36.6368 138.126 36.7894 137.407C37.0001 136.405 38.0247 135.802 38.0247 135.802C38.0247 135.802 37.9157 134.59 38.0756 134.023C38.3735 132.927 40.023 132.702 40.023 132.702Z" fill="#FFC39F"/>
<path d="M43.3057 134.786C43.3057 134.786 41.9614 133.087 40.3555 132.84" stroke="#DC8C7A" stroke-width="0.9913" stroke-miterlimit="10"/>
<path d="M43.2058 138.627C43.2058 138.627 41.0185 134.975 38.25 135.715" stroke="#DC8C7A" stroke-width="0.9913" stroke-miterlimit="10"/>
<path d="M41.9117 141.605C41.9117 141.605 40.7346 138.547 38.6055 138.816" stroke="#DC8C7A" stroke-width="0.9913" stroke-miterlimit="10"/>
<path d="M40.274 139.506C40.274 139.506 39.6273 139.854 39.2422 140.479" stroke="#DC8C7A" stroke-width="0.9913" stroke-miterlimit="10"/>
<path d="M40.3559 139.782C40.3559 139.782 43.2116 144.974 40.5594 146.811C38.7427 148.068 36.7227 145.417 36.7227 145.417" stroke="#DC8C7A" stroke-width="0.9913" stroke-miterlimit="10"/>
<path d="M72.9504 146.674L64.7392 177.29L40.2656 175.075L46.9435 144.321L72.9504 146.674Z" fill="#8B563B"/>
<path d="M66.4923 145.969L65.7075 149.048L52.6133 147.639L53.2237 144.342L56.2756 144.125C56.2756 144.125 56.4137 142.491 60.3158 142.679C63.8982 142.854 64.1016 145.207 64.1016 145.207L66.4923 145.969Z" fill="#B3C2CF"/>
<path d="M69.6383 159.251L69.0497 160.391C69.0497 160.391 66.1431 160.856 65.2276 160.849C63.7452 160.834 63.7815 162.192 64.2902 162.555C64.2902 162.555 62.2992 162.315 61.7106 163.18C61.1147 164.044 61.8777 164.523 61.8777 164.523C61.8777 164.523 61.0275 165.002 61.042 165.547C61.0566 166.092 61.449 166.869 61.449 166.869C61.449 166.869 60.5043 167.123 60.8822 167.951C61.26 168.778 64.5518 171.218 66.9788 169.788C69.4058 168.365 69.8418 166.288 69.7982 164.937C69.7764 164.334 70.3868 162.468 70.4376 161.626C70.5103 160.58 70.1979 159.607 69.6383 159.251Z" fill="#FFC39F"/>
<path d="M68.514 162.875C68.514 162.875 66.1814 163.347 64.8008 162.78" stroke="#DC8C7A" stroke-width="0.9913" stroke-miterlimit="10"/>
<path d="M68.5841 165.315C68.5841 165.315 64.9 166.172 62.6328 165.002" stroke="#DC8C7A" stroke-width="0.9913" stroke-miterlimit="10"/>
<path d="M68.0405 167.805C68.0405 167.805 63.6079 168.59 61.457 166.869" stroke="#DC8C7A" stroke-width="0.9913" stroke-miterlimit="10"/>
<path d="M38.1055 104.889C38.1055 106.951 39.7259 108.629 41.7315 108.629C43.737 108.629 45.3574 106.951 45.3574 104.889C45.3574 102.819 43.737 101.149 41.7315 101.149C39.7332 101.149 38.1055 102.826 38.1055 104.889Z" stroke="#5674C5" stroke-width="1.5" stroke-miterlimit="10"/>
<path d="M28.8242 105.455C28.8242 107.518 30.4447 109.195 32.4502 109.195C34.4558 109.195 36.0762 107.518 36.0762 105.455C36.0762 103.393 34.4558 101.715 32.4502 101.715C30.4447 101.715 28.8242 103.386 28.8242 105.455Z" stroke="#5674C5" stroke-width="1.5" stroke-miterlimit="10"/>
<path d="M38.1052 104.889C38.1052 104.889 37.0443 103.741 35.918 104.867" stroke="#5674C5" stroke-width="1.5" stroke-miterlimit="10"/>
<path d="M28.6066 105.15C28.6066 105.15 25.7 104.119 24.2031 104.961" stroke="#5674C5" stroke-width="1.5" stroke-miterlimit="10"/>
<path d="M20.9065 105.448C21.3135 104.279 22.4252 103.298 23.5297 103.792C24.6706 104.301 26.073 105.542 26.4581 107.808C26.7633 109.558 25.4626 110.967 24.3363 110.822C23.2027 110.684 22.5706 110.408 22.0183 109.834C20.8048 108.571 20.2889 107.234 20.9065 105.448Z" fill="#FFC39F"/>
<path d="M42.3364 56.7139H68.2415C71.1917 56.7139 73.5897 59.1103 73.5897 62.0586V75.6455C73.5897 78.601 71.1917 80.9902 68.2415 80.9902H53.0909C53.0545 82.2828 52.6985 84.4032 50.94 85.783C48.2659 87.8817 45.0105 88.0777 45.0105 88.0777C45.0105 88.0777 46.9361 84.6719 47.0015 80.9974H42.3364C39.3862 80.9974 36.9883 78.601 36.9883 75.6527V62.0586C36.9883 59.103 39.3862 56.7139 42.3364 56.7139Z" fill="#488EAC"/>
<path d="M61.6836 68.5217C61.6836 69.4658 62.4466 70.2282 63.3912 70.2282C64.3359 70.2282 65.0989 69.4658 65.0989 68.5217C65.0989 67.5777 64.3359 66.8152 63.3912 66.8152C62.4466 66.8152 61.6836 67.5777 61.6836 68.5217Z" fill="white"/>
<path d="M53.582 68.5217C53.582 69.4658 54.345 70.2282 55.2897 70.2282C56.2343 70.2282 56.9973 69.4658 56.9973 68.5217C56.9973 67.5777 56.2343 66.8152 55.2897 66.8152C54.3523 66.8152 53.582 67.5777 53.582 68.5217Z" fill="white"/>
<path d="M45.4883 68.5217C45.4883 69.4658 46.2513 70.2282 47.1959 70.2282C48.1406 70.2282 48.9035 69.4658 48.9035 68.5217C48.9035 67.5777 48.1406 66.8152 47.1959 66.8152C46.2513 66.8152 45.4883 67.5777 45.4883 68.5217Z" fill="white"/>
<path d="M136.802 233.073L133.492 236.379L142.652 245.536L145.962 242.229L136.802 233.073Z" fill="#B6BFC5"/>
<path d="M183.465 275.237C184.838 276.609 184.838 278.839 183.465 280.218L180.66 283.022C179.286 284.394 177.056 284.394 175.675 283.022L140.382 247.751C139.008 246.378 139.008 244.142 140.382 242.769L143.186 239.966C144.56 238.594 146.791 238.594 148.171 239.966L183.465 275.237Z" fill="#8B563B"/>
<path opacity="0.5" d="M132.949 232.53C123.394 242.079 107.902 242.079 98.3463 232.53C88.7908 222.981 88.7908 207.499 98.3463 197.949C107.902 188.4 123.394 188.4 132.949 197.949C142.505 207.499 142.505 222.981 132.949 232.53Z" fill="white"/>
<g opacity="0.6">
<mask id="mask6_7508_42478" style="mask-type:luminance" maskUnits="userSpaceOnUse" x="91" y="190" width="50" height="50">
<path d="M132.949 232.53C123.394 242.079 107.902 242.079 98.3463 232.53C88.7908 222.981 88.7908 207.499 98.3463 197.949C107.902 188.4 123.394 188.4 132.949 197.949C142.505 207.499 142.505 222.981 132.949 232.53Z" fill="white"/>
</mask>
<g mask="url(#mask6_7508_42478)">
<path d="M144.89 191.463L90.4844 245.825L95.9873 251.325L150.393 196.963L144.89 191.463Z" fill="white"/>
<path d="M152.831 199.407L98.4336 253.77L100.499 255.834L154.897 201.471L152.831 199.407Z" fill="white"/>
<path d="M130.808 177.387L76.4258 231.765L78.4919 233.828L132.874 179.45L130.808 177.387Z" fill="white"/>
</g>
</g>
<path d="M93.6575 193.265C81.5152 205.4 81.5152 225.072 93.6575 237.207C105.8 249.341 125.485 249.341 137.627 237.207C149.77 225.072 149.77 205.4 137.627 193.265C125.485 181.138 105.8 181.138 93.6575 193.265ZM132.773 232.356C123.312 241.811 107.973 241.811 98.5116 232.356C89.0506 222.901 89.0506 207.571 98.5116 198.116C107.973 188.661 123.312 188.661 132.773 198.116C142.234 207.571 142.234 222.901 132.773 232.356Z" fill="#384772"/>
</g>
<defs>
<clipPath id="clip0_7508_42478">
<rect width="340" height="303" fill="white" transform="translate(0 0.5)"/>
</clipPath>
</defs>
</svg>
