<svg width="337" height="323" viewBox="0 0 337 323" fill="none" xmlns="http://www.w3.org/2000/svg">
<path d="M69.8304 263.463C62.2764 258.178 55.3901 251.999 49.322 245.059C18.9475 209.983 23.4104 160.503 49.0235 124.106C79.1144 81.335 126.475 44.6617 178.29 26.5341C197.284 19.8845 218.725 17.4366 237.927 23.5489C254.443 28.773 268.13 39.9675 278.414 53.0054C302.968 84.059 313.371 131.643 315.655 170.421C317.483 200.796 311.177 232.745 292.236 256.529C249.249 310.42 162.312 304.464 104.69 281.851C92.3773 277.137 80.6739 270.963 69.8304 263.463Z" fill="#00b14f" fill-opacity="0.29"/>
<path opacity="0.7" d="M81.1127 124.389H14.6172C14.7888 122.397 15.8784 119.978 17.6024 118.889C18.454 118.352 19.4152 118.014 20.415 117.899C21.4148 117.784 22.4277 117.896 23.3788 118.225C22.6505 114.562 23.3358 110.76 25.2968 107.582C26.245 105.989 27.5446 104.632 29.0967 103.617C30.6487 102.602 32.4121 101.954 34.2524 101.724C36.0894 101.533 37.9442 101.836 39.6241 102.604C41.3039 103.372 42.7476 104.576 43.8051 106.09C43.9868 105.234 44.4234 104.452 45.0574 103.849C45.6915 103.246 46.4933 102.848 47.3575 102.709C48.232 102.573 49.1273 102.703 49.9262 103.084C50.7252 103.465 51.3905 104.078 51.8353 104.843C52.4746 103.545 53.3927 102.403 54.5241 101.5C55.6554 100.597 56.9722 99.9549 58.3803 99.6194C59.7996 99.2492 61.2906 99.2526 62.7082 99.6292C64.1258 100.006 65.4218 100.743 66.4702 101.769C69.0002 104.381 69.3659 108.336 69.5823 111.963C70.4853 110.784 72.2616 110.627 73.6795 111.075C74.3805 111.32 75.0202 111.714 75.5547 112.229C76.0893 112.744 76.5062 113.369 76.7767 114.06C77.3101 115.455 77.4696 116.965 77.2394 118.441C77.8467 118.506 78.4337 118.697 78.9631 119.002C79.4925 119.306 79.9526 119.718 80.3141 120.21C81.0541 121.469 81.3362 122.946 81.1127 124.389Z" fill="white"/>
<path opacity="0.7" d="M286.929 52.2142H230.016C229.397 46.1393 232.904 39.6614 238.404 37.027C241.19 35.7498 244.294 35.3366 247.316 35.8408C250.339 36.3449 253.141 37.7433 255.36 39.8555C256.012 38.7304 257.014 37.8489 258.213 37.3451C259.412 36.8413 260.742 36.7427 262.002 37.0643C263.308 37.3978 264.475 38.1351 265.337 39.1711C266.199 40.207 266.711 41.4887 266.801 42.8332C267.059 42.3667 267.455 41.9914 267.935 41.7589C268.415 41.5264 268.954 41.4481 269.48 41.5347C269.972 41.6327 270.416 41.8925 270.742 42.2727C271.068 42.6529 271.257 43.1314 271.279 43.6318C271.631 42.5995 272.205 41.6569 272.961 40.8704C273.716 40.0838 274.635 39.4725 275.652 39.0793C276.633 38.7076 277.685 38.5635 278.73 38.6579C279.775 38.7522 280.784 39.0826 281.682 39.6241C283.445 40.8061 284.73 42.5755 285.309 44.6169C285.944 46.6244 286.892 50.1171 286.929 52.2142Z" fill="white"/>
<path opacity="0.7" d="M151.364 252.738H98.2795C98.034 249.866 98.6461 246.985 100.038 244.461C101.431 241.937 103.54 239.883 106.101 238.558C108.696 237.366 111.589 236.978 114.408 237.443C117.226 237.909 119.84 239.207 121.915 241.17C122.522 240.119 123.458 239.295 124.578 238.826C125.698 238.357 126.941 238.268 128.117 238.573C129.334 238.885 130.423 239.572 131.227 240.539C132.031 241.505 132.51 242.7 132.594 243.954C132.836 243.519 133.206 243.17 133.653 242.952C134.1 242.734 134.603 242.66 135.095 242.738C135.552 242.833 135.965 243.077 136.269 243.432C136.573 243.788 136.751 244.234 136.774 244.7C137.102 243.738 137.637 242.86 138.341 242.126C139.045 241.392 139.901 240.822 140.849 240.454C141.764 240.106 142.746 239.971 143.721 240.059C144.696 240.146 145.638 240.455 146.476 240.961C148.122 242.061 149.32 243.713 149.856 245.618C150.633 247.925 151.139 250.314 151.364 252.738Z" fill="white"/>
<path opacity="0.7" d="M235.588 81.6857H205.855C205.89 80.5261 206.253 79.4001 206.903 78.4394C207.553 77.4786 208.463 76.7227 209.527 76.2601C210.582 75.8255 211.741 75.7056 212.862 75.9149C213.984 76.1241 215.021 76.6535 215.848 77.4392C215.863 76.9664 216.026 76.5102 216.316 76.1361C216.606 75.762 217.006 75.4893 217.46 75.357C217.926 75.2155 218.423 75.2159 218.888 75.3581C219.353 75.5003 219.766 75.778 220.073 76.1556C220.745 73.8117 222.267 71.8026 224.341 70.521C225.383 69.8948 226.565 69.5382 227.779 69.4835C228.994 69.4288 230.203 69.6776 231.297 70.2076C233.155 71.2896 234.522 73.0497 235.111 75.1182C235.752 77.1482 235.625 79.5587 235.588 81.6857Z" fill="white"/>
<path opacity="0.7" d="M322.797 286.083H285.938C285.98 284.648 286.429 283.254 287.234 282.065C288.039 280.875 289.166 279.939 290.482 279.367C291.795 278.832 293.233 278.689 294.625 278.954C296.017 279.219 297.302 279.88 298.326 280.859C298.35 280.275 298.554 279.713 298.911 279.251C299.268 278.788 299.76 278.448 300.319 278.277C300.896 278.101 301.513 278.101 302.09 278.278C302.667 278.455 303.178 278.8 303.558 279.27C304.388 276.362 306.275 273.871 308.849 272.284C310.141 271.508 311.607 271.065 313.113 270.996C314.619 270.927 316.118 271.234 317.476 271.889C319.784 273.229 321.478 275.416 322.2 277.986C322.999 280.456 322.842 283.449 322.797 286.083Z" fill="white"/>
<path d="M96.1955 278.299C95.7402 281.65 93.3371 284.441 90.5534 286.068C87.7697 287.695 84.6502 288.307 81.5978 288.934C78.5454 289.561 75.5826 290.135 72.5825 289.822C69.5823 289.508 66.5374 288.187 64.8508 285.531C63.2761 283.135 62.9552 280.023 62.679 277.06L57.0594 215.901C56.8653 213.848 56.6862 211.781 56.4922 209.729C65.6269 207.281 75.2841 204.452 84.4263 206.191C83.9276 210.563 83.8003 214.97 84.0457 219.363C84.2498 222.374 84.9771 225.327 86.195 228.088C88.2697 232.61 92.0236 236.491 92.1654 241.588C92.3371 247.245 87.919 252.38 88.2175 258.007C88.4264 261.791 90.6952 264.948 92.7401 267.963C94.7849 270.978 96.7253 274.53 96.1955 278.299Z" fill="white"/>
<path d="M84.0105 219.363C75.0549 217.94 66.0595 216.786 57.0242 215.901C56.8302 213.848 56.6511 211.781 56.457 209.729C65.5918 207.281 75.2489 204.452 84.3911 206.191C83.8925 210.563 83.7652 214.97 84.0105 219.363Z" fill="#E5E5E5"/>
<path d="M86.3884 203.303L85.2167 209.4L55.4243 210.281L51.2376 209.475C50.2674 209.296 49.3424 208.926 48.516 208.388C47.6896 207.849 46.9782 207.152 46.423 206.336C45.8678 205.521 45.4798 204.603 45.2814 203.637C45.083 202.67 45.0782 201.674 45.2672 200.706L46.2523 195.586L86.3884 203.303Z" fill="#19437F"/>
<path d="M79.1077 200.505L34.8445 191.99C30.335 182.89 28.9304 172.564 30.8456 162.59C32.7608 152.617 37.8903 143.545 45.4495 136.763L89.7127 145.286L79.1077 200.505Z" fill="#19437F"/>
<path d="M91.9485 206.177L42.7523 196.706C37.7416 186.59 36.1839 175.11 38.3175 164.024C40.4511 152.938 46.1585 142.857 54.5662 135.323L103.77 144.793L91.9485 206.177Z" fill="#D33C39"/>
<path d="M110.984 178.502C114.264 161.585 110.917 146.707 103.509 145.271C96.1011 143.835 87.437 156.384 84.1572 173.301C80.8775 190.217 84.2241 205.095 91.6322 206.531C99.0402 207.967 107.704 195.418 110.984 178.502Z" fill="#E5E5E5"/>
<path d="M226.798 200.303L210.686 241.074L194.304 282.486C194.304 282.486 165.012 220.274 96.5091 203.109C94.9911 202.723 93.6057 201.934 92.4996 200.826C91.3934 199.717 90.6075 198.329 90.2252 196.811C89.7924 195.116 89.4342 193.445 89.1655 191.773C86.8271 177.728 90.0038 164.737 98.6958 152.801C100.569 150.234 103.696 149.249 106.86 149.286C178.864 150.144 227.104 111.904 227.104 111.904L226.798 200.303Z" fill="white"/>
<path d="M309.121 216.678C319.496 162.8 300.199 113.787 266.019 107.205C231.839 100.623 195.72 138.964 185.345 192.843C174.969 246.721 194.267 295.734 228.447 302.316C262.627 308.898 298.746 270.557 309.121 216.678Z" fill="#E5E5E5"/>
<path d="M246.037 204.012L243.851 226.103L211.081 227.282L180.796 228.364C180.796 228.364 179.96 209.333 183.311 191.937C186.662 174.541 194.505 157.174 194.505 157.174L222.223 169.421L252.217 182.675L246.037 204.012Z" fill="#D33C39"/>
<path d="M205.774 196.266C201.558 218.17 211.081 227.282 211.081 227.282L180.796 228.364C180.796 228.364 179.96 209.333 183.311 191.937C186.662 174.541 194.505 157.174 194.505 157.174L222.223 169.421C222.223 169.421 209.999 174.347 205.774 196.266Z" fill="#AD1E0B"/>
<path d="M259.294 206.576C261.476 195.248 257.315 184.922 250.002 183.514C242.688 182.106 234.991 190.148 232.809 201.476C230.628 212.805 234.788 223.13 242.102 224.538C249.415 225.947 257.113 217.905 259.294 206.576Z" fill="white"/>
<path d="M241.823 225.924C233.748 224.364 229.076 213.274 231.375 201.191C233.673 189.109 242.166 180.548 250.234 182.101C258.301 183.653 262.988 194.751 260.682 206.833C258.376 218.916 249.935 227.476 241.823 225.924ZM249.719 184.877C243.189 183.616 236.233 191.168 234.203 201.699C232.173 212.229 235.838 221.849 242.36 223.088C248.883 224.327 255.853 216.796 257.876 206.259C259.898 195.721 256.249 186.161 249.719 184.907V184.877Z" fill="#D33C39"/>
<path d="M255.332 205.803C253.593 214.841 248.025 221.364 242.891 220.379C237.756 219.394 235.01 211.259 236.749 202.221C238.487 193.184 244.062 186.691 249.189 187.646C254.317 188.601 257.078 196.758 255.332 205.803Z" fill="#19437F"/>
<path d="M193.17 273.261C189.02 265.157 185.207 256.843 183.468 247.887C182.468 242.797 183.035 237.618 182.55 232.484C182.229 229.103 181.468 225.7 181.565 222.304C178.58 220.582 175.574 218.903 172.549 217.266C146.727 203.415 118.204 197.422 89.1875 191.81C89.4562 193.482 89.8144 195.153 90.2472 196.848C90.6295 198.366 91.4154 199.754 92.5216 200.863C93.6278 201.971 95.0131 202.76 96.5311 203.146C165.034 220.259 194.297 282.501 194.297 282.501L195.886 278.493C194.961 276.752 194.055 275.008 193.17 273.261Z" fill="#E5E5E5"/>
<path d="M310.633 216.446C308.607 227.188 305.424 237.68 301.14 247.738C296.907 257.877 291.354 267.412 284.625 276.097C277.818 284.717 269.699 292.583 259.818 298.031C254.86 300.815 249.507 302.828 243.944 304.002C232.487 306.38 220.554 304.241 210.636 298.031C205.776 294.953 201.412 291.154 197.696 286.762C194.005 282.452 190.827 277.729 188.225 272.687C185.631 267.701 183.493 262.49 181.837 257.119C178.576 246.445 176.774 235.379 176.478 224.222C175.81 201.961 180.071 179.828 188.956 159.406C193.363 149.157 199.137 139.551 206.121 130.852C209.66 126.484 213.584 122.443 217.846 118.777C222.133 115.06 226.836 111.852 231.861 109.217C236.951 106.54 242.416 104.648 248.071 103.605C259.587 101.525 271.461 103.96 281.229 110.403C285.957 113.56 290.179 117.415 293.752 121.837C300.909 130.561 305.529 140.875 308.678 151.405C311.698 161.969 313.312 172.884 313.477 183.869C313.707 194.799 312.754 205.721 310.633 216.446ZM306.902 215.699C308.895 205.237 309.75 194.59 309.454 183.944C309.173 173.336 307.458 162.815 304.357 152.667C302.812 147.642 300.813 142.769 298.387 138.106C296.002 133.482 293.087 129.152 289.7 125.203C286.376 121.31 282.484 117.941 278.154 115.21C269.556 109.841 259.217 108.002 249.295 110.075C244.356 111.133 239.605 112.932 235.205 115.411C226.249 120.329 218.696 127.628 212.301 135.755C205.916 144.011 200.646 153.072 196.628 162.704C188.453 182.089 184.433 202.972 184.829 224.006C184.982 234.439 186.507 244.807 189.367 254.843C192.292 264.761 196.621 274.359 203.084 282.24C206.248 286.173 209.99 289.605 214.181 292.419C222.621 298.042 232.91 300.182 242.892 298.39C247.925 297.464 252.789 295.78 257.318 293.397C261.929 290.991 266.244 288.055 270.176 284.65C274.165 281.22 277.836 277.439 281.147 273.351C287.792 265.078 293.289 255.945 297.491 246.201C301.722 236.413 304.88 226.197 306.909 215.729L306.902 215.699Z" fill="#D33C39"/>
<path d="M74.4895 191.392C72.2809 177.803 74.8862 163.868 81.8555 151.995C82.7884 150.413 80.2211 149.159 79.2957 150.734C72.0807 163.064 69.374 177.518 71.6387 191.624C71.9372 193.407 74.7881 193.213 74.4895 191.392Z" fill="#19437F"/>
<path d="M64.271 189.43C62.0611 175.84 64.6664 161.906 71.637 150.032C72.5773 148.443 70.0101 147.189 69.0772 148.764C61.8607 161.102 59.1566 175.564 61.4276 189.676C61.7187 191.452 64.5695 191.251 64.271 189.43Z" fill="#19437F"/>
<path d="M54.0598 187.437C51.8512 173.847 54.4565 159.913 61.4259 148.039C62.3587 146.457 59.7914 145.203 58.866 146.778C51.651 159.108 48.9443 173.563 51.209 187.668C51.5075 189.489 54.3509 189.28 54.0598 187.437Z" fill="#19437F"/>
<path d="M102.39 212.207C96.9793 217.819 86.2923 218.14 87.3595 223.752C101.248 222.856 107.554 218.401 107.554 218.401L107.898 220.199L112.555 218.781C112.555 218.781 113.607 213.878 111.696 210.371L102.39 212.207Z" fill="black"/>
<path d="M102.391 212.206C103.965 212.756 105.658 212.875 107.294 212.553C108.93 212.23 110.45 211.477 111.698 210.371L110.809 203.206L101.234 205.072L102.391 212.206Z" fill="#EFAD9C"/>
<path d="M104.183 154.323C150.581 145.092 174.388 132.748 174.388 132.748L155.559 117.695C155.559 117.695 129.938 125.673 94.1532 140.83C91.7974 141.826 89.8667 143.619 88.6989 145.895C87.5311 148.17 87.2005 150.784 87.7648 153.278C91.5859 170.175 96.7652 191.788 101.198 207.759C104.639 209.102 110.109 208.273 112.885 205.744C112.848 205.721 109.997 181.466 104.183 154.323Z" fill="#19437F"/>
<path d="M146.705 227.581C142.876 234.372 132.622 237.372 135.062 242.507C148.287 238.148 153.265 232.245 153.265 232.245L154.048 233.902L158.198 231.357C158.198 231.357 157.981 226.342 155.213 223.431L146.705 227.581Z" fill="black"/>
<path d="M146.704 227.58C148.366 227.716 150.034 227.406 151.536 226.681C153.038 225.957 154.32 224.846 155.249 223.461L152.592 216.744L143.793 220.961L146.704 227.58Z" fill="#EFAD9C"/>
<path d="M135.46 170.884C147.46 165.085 166.871 155.585 177.133 148.711C183.156 144.688 185.842 135.457 185.38 128.247L184.633 116.15C184.633 116.15 153.147 136.994 121.944 160.115C119.888 161.632 118.431 163.824 117.829 166.308C117.228 168.791 117.519 171.407 118.653 173.697C126.332 189.22 135.818 209.699 143.833 224.2C147.49 224.7 152.692 221.916 154.789 218.804C149.88 202.254 143.407 186.208 135.46 170.884Z" fill="#19437F"/>
<path d="M124.431 88.7833C114.311 82.283 107.087 74.7454 97.1237 65.7898C97.1237 65.7898 96.0266 60.9313 101.393 59.3119C109.759 68.6108 120.655 70.8124 128.259 77.8425C132.737 73.5364 138.155 68.9242 141.476 64.0882L162.88 56.3789C162.88 56.3789 153.611 71.3049 132.797 88.3281C131.63 89.2797 130.191 89.8366 128.688 89.9184C127.185 90.0002 125.694 89.6028 124.431 88.7833Z" fill="#EFAD9C"/>
<path d="M102.63 71.0138L98.9727 68.0285C98.9727 68.0285 101.958 63.7821 104.883 61.6104L108.615 65.2971L102.63 71.0138Z" fill="white"/>
<path d="M168.32 52.9085C168.32 52.9085 136.542 89.9102 129.773 90.6714C123.004 91.4326 101.988 71.1034 101.988 71.1034L108.317 64.3867C110.291 66.369 112.587 68.0018 115.108 69.2152C119.519 71.081 125.915 74.8797 128.243 77.7828C128.243 77.7828 148.229 55.1698 150.199 54.334L151.341 53.7817C156.386 51.5652 165.476 52.9309 168.32 52.9085Z" fill="#19437F"/>
<path d="M87.2994 55.2221C87.2717 55.4503 87.3342 55.6802 87.4736 55.8628C87.613 56.0455 87.8184 56.1664 88.0457 56.1998C89.4488 56.5356 90.8667 56.8118 92.2922 57.0133C92.0914 58.71 92.2907 60.4301 92.8743 62.0359C93.1435 62.8268 93.5803 63.5502 94.1547 64.1569C94.7292 64.7635 95.4278 65.239 96.2028 65.551C97.867 66.0808 99.8746 65.2077 101.143 64.1479C102.215 63.1726 103.136 62.0433 103.875 60.797C104.039 60.5433 104.211 60.2895 104.39 60.0507C104.487 59.9313 104.576 59.8194 104.681 59.7074L104.808 59.5731L104.852 59.5283C104.972 59.4238 105.099 59.3343 105.226 59.2372L105.427 59.1477L105.599 59.088H105.741C105.924 59.0468 106.097 58.968 106.248 58.8566C106.453 58.7008 106.602 58.4826 106.672 58.2349C106.742 57.9872 106.729 57.7234 106.636 57.4834C106.465 57.1049 106.151 56.8097 105.763 56.6625C105.032 56.4163 104.237 56.4428 103.524 56.7371C102.615 57.1055 101.824 57.7175 101.24 58.5059C101.188 58.2521 101.128 58.0058 101.069 57.7596C100.256 54.0737 99.1607 50.4559 97.7924 46.9382C97.7108 46.7487 97.5641 46.5946 97.3788 46.5036C97.1936 46.4127 96.982 46.3909 96.7821 46.4422C96.5822 46.4936 96.4072 46.6146 96.2887 46.7835C96.1702 46.9525 96.1159 47.1582 96.1356 47.3636L96.9491 51.6623C97.0387 52.1325 97.1208 52.5952 97.2028 53.0653C95.76 51.4135 94.3146 49.7667 92.8668 48.1248C92.5758 47.7964 92.2922 47.6099 91.9041 47.8263C91.516 48.0427 91.5384 48.5726 91.6951 48.9756C92.4233 50.6823 93.369 52.2877 94.5087 53.7519C93.0609 53.0056 91.1802 52.1922 89.7771 51.3861C89.5861 51.3001 89.3701 51.2876 89.1704 51.3509C88.9708 51.4143 88.8015 51.549 88.695 51.7295C88.4562 52.125 88.7995 52.4758 89.1055 52.8116C89.9786 53.6922 91.5907 54.3863 92.5832 55.1326C91.4115 54.946 89.3517 54.8565 88.195 54.5803C87.9944 54.5667 87.7953 54.6233 87.6319 54.7404C87.4685 54.8575 87.3509 55.0278 87.2994 55.2221Z" fill="#EFAD9C"/>
<path d="M100.012 49.2517L102.318 52.3115L104.624 55.3713L117.027 44.438C117.42 42.0001 116.391 40.6344 113.938 40.3408L100.012 49.2517Z" fill="#D33C39"/>
<path d="M84.0977 57.3865L88.262 62.9016L92.4189 68.4243L106.755 54.7595C106.599 51.028 104.748 48.5503 101.181 47.3711L84.0977 57.3865Z" fill="#AD1E0B"/>
<path d="M60.9922 69.1403L67.8731 78.2676L74.7465 87.4322L95.1803 67.282C95.6778 60.5355 92.6105 56.4607 85.9784 55.0576L60.9922 69.1403Z" fill="#D33C39"/>
<path d="M75.1211 72.8051C78.9198 77.8501 78.7556 84.3803 74.7479 87.3953C70.7403 90.4104 64.4266 88.7685 60.6279 83.731C56.8292 78.6934 56.9934 72.1558 60.9936 69.1408C64.9938 66.1257 71.3224 67.7676 75.1211 72.8051Z" fill="#19437F"/>
<path d="M72.6155 84.5692C75.0645 82.7237 74.9264 78.4097 72.307 74.9336C69.6876 71.4575 65.5788 70.1357 63.1297 71.9812C60.6807 73.8267 60.8188 78.1407 63.4382 81.6168C66.0576 85.0928 70.1664 86.4147 72.6155 84.5692Z" fill="white"/>
<path d="M161.184 50.938L151.34 53.8038C151.34 53.8038 148.295 90.4323 142.34 121.941C159.102 133.964 185.431 128.904 185.431 128.904C184.827 90.9398 180.327 54.7367 180.327 54.7367C177.469 52.8076 174.181 51.6107 170.752 51.2514L161.184 50.938Z" fill="#F7A60C"/>
<path d="M170.767 50.7368C170.767 50.7368 168.133 122.986 168.327 130.875C168.327 130.875 182.506 131.412 186.865 129.964C186.865 129.964 185.484 65.4987 183.88 55.7221C182.163 53.3339 174.558 50.9383 170.767 50.7368Z" fill="#19437F"/>
<path d="M161.183 50.938C161.183 50.938 154.765 118.031 153.877 128.479C153.877 128.479 143.227 125.852 140.488 120.337C140.488 120.337 148.899 60.7593 150.19 54.3635C153.623 52.5814 157.345 51.4216 161.183 50.938Z" fill="#19437F"/>
<path d="M167.538 84.0439H111.916C108.161 84.0439 105.117 87.0879 105.117 90.8428V128.994C105.117 132.749 108.161 135.793 111.916 135.793H167.538C171.293 135.793 174.337 132.749 174.337 128.994V90.8428C174.337 87.0879 171.293 84.0439 167.538 84.0439Z" fill="white"/>
<path d="M114.095 104.695C114.244 104.8 114.558 104.949 115.035 105.143C115.528 105.322 116.103 105.412 116.759 105.412C117.282 105.412 117.707 105.322 118.036 105.143C118.379 104.964 118.633 104.695 118.797 104.337C118.976 103.964 119.095 103.486 119.155 102.904C119.215 102.307 119.245 101.59 119.245 100.755V92.5378H122.916V100.62C122.916 101.814 122.849 102.904 122.715 103.889C122.581 104.874 122.304 105.732 121.886 106.464C121.483 107.18 120.871 107.733 120.051 108.121C119.23 108.494 118.133 108.68 116.759 108.68C116.058 108.68 115.423 108.598 114.856 108.434C114.289 108.27 113.767 108.024 113.289 107.695L114.095 104.695Z" fill="#19437F"/>
<path d="M132.748 108.568C131.554 108.568 130.472 108.344 129.502 107.897C128.547 107.434 127.718 106.822 127.017 106.061C126.33 105.285 125.8 104.419 125.427 103.464C125.054 102.493 124.867 101.493 124.867 100.464C124.867 99.4038 125.061 98.3963 125.449 97.441C125.852 96.4857 126.405 95.635 127.106 94.8887C127.823 94.1274 128.666 93.5304 129.636 93.0975C130.606 92.6647 131.666 92.4482 132.815 92.4482C133.995 92.4482 135.062 92.6796 136.017 93.1423C136.987 93.5901 137.816 94.2021 138.502 94.9782C139.204 95.7544 139.741 96.6275 140.114 97.5977C140.487 98.553 140.674 99.5306 140.674 100.531C140.674 101.59 140.48 102.598 140.092 103.553C139.704 104.508 139.152 105.367 138.435 106.128C137.719 106.874 136.875 107.471 135.905 107.919C134.95 108.352 133.898 108.568 132.748 108.568ZM128.606 100.508C128.606 101.12 128.696 101.717 128.875 102.299C129.054 102.867 129.315 103.374 129.659 103.822C130.017 104.27 130.457 104.628 130.98 104.897C131.502 105.165 132.099 105.3 132.771 105.3C133.472 105.3 134.084 105.165 134.607 104.897C135.129 104.613 135.562 104.24 135.905 103.777C136.248 103.314 136.502 102.799 136.666 102.232C136.846 101.65 136.935 101.061 136.935 100.464C136.935 99.8516 136.846 99.262 136.666 98.6948C136.487 98.1276 136.219 97.6201 135.86 97.1723C135.502 96.7096 135.062 96.3514 134.539 96.0977C134.017 95.8439 133.427 95.717 132.771 95.717C132.069 95.717 131.457 95.8514 130.935 96.12C130.427 96.3887 129.994 96.7544 129.636 97.2171C129.293 97.6649 129.032 98.1798 128.853 98.762C128.688 99.3291 128.606 99.9113 128.606 100.508Z" fill="#19437F"/>
<path d="M142.796 108.434V92.5378H146.468V108.434H142.796Z" fill="#19437F"/>
<path d="M153.18 99.3441V108.434H149.508V92.5378H152.419L159.785 101.896V92.5378H163.456V108.434H160.456L153.18 99.3441Z" fill="#19437F"/>
<path d="M132.239 127.86C130.97 127.86 129.888 127.651 128.992 127.234C128.097 126.801 127.365 126.219 126.798 125.487C126.246 124.741 125.835 123.898 125.567 122.957C125.313 122.002 125.186 121.002 125.186 119.957V111.83H128.858V119.957C128.858 120.554 128.918 121.136 129.037 121.703C129.156 122.256 129.35 122.748 129.619 123.181C129.888 123.614 130.231 123.957 130.649 124.211C131.082 124.465 131.612 124.592 132.239 124.592C132.88 124.592 133.418 124.465 133.851 124.211C134.283 123.942 134.627 123.592 134.881 123.159C135.134 122.711 135.321 122.211 135.44 121.659C135.56 121.106 135.619 120.539 135.619 119.957V111.83H139.291V119.957C139.291 121.062 139.149 122.092 138.866 123.047C138.597 124.002 138.179 124.845 137.612 125.577C137.045 126.293 136.313 126.853 135.418 127.256C134.537 127.659 133.477 127.86 132.239 127.86Z" fill="#19437F"/>
<path d="M151.674 116.487C151.629 116.412 151.472 116.3 151.204 116.151C150.935 115.987 150.599 115.815 150.196 115.636C149.793 115.457 149.353 115.3 148.875 115.166C148.398 115.032 147.92 114.964 147.442 114.964C146.815 114.964 146.33 115.076 145.987 115.3C145.644 115.509 145.472 115.838 145.472 116.285C145.472 116.644 145.599 116.927 145.853 117.136C146.121 117.345 146.502 117.532 146.995 117.696C147.487 117.845 148.092 118.024 148.808 118.233C149.823 118.502 150.704 118.83 151.45 119.218C152.196 119.591 152.764 120.077 153.152 120.674C153.555 121.271 153.756 122.062 153.756 123.047C153.756 123.942 153.592 124.704 153.264 125.33C152.935 125.942 152.487 126.442 151.92 126.831C151.368 127.204 150.734 127.48 150.017 127.659C149.301 127.823 148.562 127.905 147.801 127.905C147.024 127.905 146.226 127.831 145.405 127.681C144.599 127.517 143.823 127.293 143.077 127.01C142.33 126.711 141.644 126.353 141.017 125.935L142.629 122.733C142.688 122.808 142.882 122.95 143.211 123.159C143.539 123.353 143.942 123.562 144.42 123.786C144.912 123.995 145.457 124.181 146.054 124.345C146.651 124.51 147.256 124.592 147.868 124.592C148.525 124.592 149.01 124.487 149.323 124.278C149.651 124.069 149.816 123.778 149.816 123.405C149.816 123.002 149.644 122.689 149.301 122.465C148.972 122.241 148.517 122.039 147.935 121.86C147.368 121.681 146.711 121.48 145.965 121.256C144.995 120.957 144.189 120.621 143.547 120.248C142.92 119.875 142.45 119.42 142.136 118.882C141.838 118.345 141.688 117.673 141.688 116.867C141.688 115.748 141.95 114.808 142.472 114.046C143.009 113.27 143.726 112.688 144.621 112.3C145.517 111.897 146.495 111.696 147.554 111.696C148.301 111.696 149.017 111.785 149.704 111.964C150.405 112.143 151.054 112.367 151.652 112.636C152.263 112.905 152.808 113.173 153.286 113.442L151.674 116.487Z" fill="#19437F"/>
<path d="M205.404 100.269C197.15 109.023 188.389 114.732 177.739 122.867C177.739 122.867 172.761 123.054 172.164 117.479C182.836 110.971 187.008 100.665 195.299 94.5001C191.904 89.276 188.359 83.1339 184.217 78.977L184.105 60.0508C184.105 60.0508 193.561 68.3795 206.442 91.9776C207.168 93.2917 207.459 94.8023 207.273 96.2921C207.086 97.782 206.432 99.1744 205.404 100.269Z" fill="#EFAD9C"/>
<path d="M174.693 117.053C174.693 117.053 166.671 116.538 165.036 116.956C163.402 117.374 156.663 121.658 156.946 122.135C157.23 122.613 163.663 119.702 163.663 119.702C163.663 119.702 157.909 124.732 158.439 125.307C158.969 125.882 164.521 121.658 164.521 121.658C164.521 121.658 161.193 126.136 161.588 126.553C161.984 126.971 166.685 122.717 166.685 122.717C166.685 122.717 163.036 127.688 163.775 128.068C164.514 128.449 168.947 123.404 168.947 123.404C168.947 123.404 172.596 127.225 178.835 121.986L174.693 117.053Z" fill="#EFAD9C"/>
<path d="M183.897 118.426L180.322 121.471C180.322 121.471 176.695 117.74 175.098 114.478L179.404 111.493L183.897 118.426Z" fill="white"/>
<path d="M183.857 55.7222C183.857 55.7222 208.747 88.5595 208.247 95.3657C207.747 102.172 183.895 119.076 183.895 119.076L178.477 111.613C180.78 110.037 182.799 108.081 184.447 105.829C187.096 101.836 192 96.2538 195.283 94.4926C195.283 94.4926 185.163 78.268 179.365 75.2827C179.395 75.2902 182.857 61.312 183.857 55.7222Z" fill="#19437F"/>
<path d="M165.638 54.259L163.884 58.5876L160.824 54.4008L161.182 50.938C161.527 51.8612 162.131 52.6655 162.921 53.2545C163.711 53.8435 164.655 54.1922 165.638 54.259Z" fill="#E89003"/>
<path d="M165.641 54.2596L167.402 58.5881L170.626 54.6924L170.753 51.252C169.85 53.2968 167.7 54.073 165.641 54.2596Z" fill="#E89003"/>
<path d="M204.412 56.7295C199.792 58.7147 195.598 61.573 191.098 63.8119C186.598 66.0508 181.545 67.6852 176.575 66.9315C171.604 66.1777 166.813 62.5134 166.082 57.543L166.559 56.543L165.626 54.2593L164.656 56.6474L165.32 57.6102C165.314 59.9206 165.856 62.1994 166.902 64.2597C167.948 66.3199 169.467 68.1026 171.336 69.4614C175.138 72.1407 179.761 73.3981 184.396 73.0138C189.003 72.6153 193.464 71.198 197.456 68.8644C200.747 67.036 203.904 64.7374 207.606 64.0582C208.554 62.1328 209.524 60.2297 210.479 58.3042C208.516 57.8341 206.404 57.1997 204.412 56.7295Z" fill="#D33C39"/>
<path d="M180.216 17.3322C179.142 14.6605 176.291 12.6903 173.5 13.1903C170.515 8.02586 162.507 7.13776 157.38 9.108C151.021 11.5409 147.625 18.9443 151.193 25.0341C154.76 31.1239 162.522 33.3554 166.052 39.5497C166.798 40.9079 167.791 42.4304 169.544 42.4528C171.156 42.4528 172.231 41.0647 173.097 39.9004C175.541 36.5791 177.513 32.9348 178.955 29.0716C180.351 25.4072 181.761 21.1757 180.216 17.3322Z" fill="black"/>
<path d="M173.067 18.3398C169 10.2797 153.708 12.4962 152.328 18.7577C149.477 31.6314 151.156 37.0122 154.656 40.1915C158.708 43.8633 161.447 43.4976 161.209 50.9382C161.585 51.8817 162.228 52.6951 163.06 53.2787C163.891 53.8622 164.875 54.1908 165.89 54.224C166.905 54.2573 167.908 53.9938 168.776 53.4659C169.644 52.938 170.339 52.1685 170.776 51.2517C170.883 45.3161 172.169 39.461 174.56 34.027C174.56 34.027 174.717 21.6683 173.067 18.3398Z" fill="#EFAD9C"/>
<path d="M171.366 20.0415C168.635 23.7282 163.411 22.6908 163.411 22.6908L166.523 20.1758C166.523 20.1758 158.888 24.3775 151.186 22.5864C151.186 22.5864 150.141 19.7131 153.776 15.0786C156.097 12.0934 162.597 11.5784 168.082 12.78C173.568 13.9815 175.896 16.4518 175.948 20.4146C176.001 24.3775 176.247 29.3702 176.247 29.3702L174.053 30.9375C170.762 28.5568 171.366 20.0415 171.366 20.0415Z" fill="black"/>
<path d="M163.364 30.2582C163.352 30.4502 163.284 30.6343 163.168 30.7877C163.051 30.941 162.893 31.0568 162.711 31.1204C162.53 31.1841 162.334 31.1928 162.147 31.1455C161.961 31.0982 161.793 30.997 161.663 30.8545C161.534 30.712 161.45 30.5346 161.421 30.3445C161.392 30.1543 161.42 29.9599 161.501 29.7856C161.582 29.6112 161.713 29.4646 161.877 29.3642C162.041 29.2637 162.231 29.2139 162.423 29.2209C162.554 29.2256 162.682 29.2564 162.8 29.3114C162.918 29.3664 163.025 29.4446 163.112 29.5413C163.2 29.6379 163.267 29.7512 163.31 29.8743C163.354 29.9974 163.372 30.128 163.364 30.2582Z" fill="black"/>
<path d="M162.399 29.9674C162.399 30.0664 162.359 30.1613 162.289 30.2312C162.219 30.3012 162.124 30.3405 162.025 30.3405C161.927 30.3405 161.832 30.3012 161.762 30.2312C161.692 30.1613 161.652 30.0664 161.652 29.9674C161.652 29.8684 161.692 29.7735 161.762 29.7035C161.832 29.6336 161.927 29.5942 162.025 29.5942C162.124 29.5942 162.219 29.6336 162.289 29.7035C162.359 29.7735 162.399 29.8684 162.399 29.9674Z" fill="white"/>
<path d="M155.825 30.0121C155.832 30.147 155.811 30.2819 155.763 30.4083C155.715 30.5347 155.642 30.6498 155.547 30.7463C155.453 30.8428 155.339 30.9187 155.214 30.9691C155.088 31.0196 154.954 31.0435 154.819 31.0393C154.684 31.0352 154.551 31.0031 154.429 30.9451C154.307 30.8871 154.198 30.8044 154.11 30.7022C154.021 30.6001 153.955 30.4807 153.915 30.3517C153.875 30.2226 153.862 30.0866 153.877 29.9524C153.905 29.7085 154.023 29.4839 154.209 29.3232C154.394 29.1624 154.633 29.0774 154.879 29.0849C155.124 29.0925 155.358 29.192 155.533 29.3637C155.708 29.5355 155.813 29.7669 155.825 30.0121Z" fill="black"/>
<path d="M154.856 29.7134C154.856 29.7607 154.847 29.8076 154.828 29.8512C154.809 29.8947 154.782 29.9341 154.748 29.9668C154.714 29.9996 154.673 30.0251 154.629 30.0418C154.585 30.0586 154.538 30.0662 154.49 30.0641C154.391 30.0641 154.296 30.0248 154.226 29.9548C154.156 29.8849 154.117 29.79 154.117 29.691C154.117 29.592 154.156 29.4971 154.226 29.4271C154.296 29.3572 154.391 29.3178 154.49 29.3178C154.542 29.3152 154.593 29.3239 154.641 29.3433C154.688 29.3627 154.731 29.3923 154.766 29.43C154.801 29.4678 154.827 29.5127 154.842 29.5617C154.858 29.6106 154.863 29.6624 154.856 29.7134Z" fill="white"/>
<path d="M156.601 26.2356C156.029 25.794 155.323 25.56 154.6 25.5722C153.878 25.5844 153.18 25.8421 152.623 26.3028C152.515 26.4023 152.445 26.5363 152.424 26.682C152.404 26.8277 152.435 26.9759 152.511 27.1013C152.545 27.1595 152.591 27.2097 152.646 27.2483C152.7 27.287 152.763 27.3133 152.829 27.3254C152.895 27.3375 152.963 27.335 153.028 27.3183C153.093 27.3015 153.153 27.2707 153.205 27.2282C153.439 27.0366 153.709 26.8942 153.998 26.8096C154.288 26.7249 154.592 26.6998 154.892 26.7356C155.192 26.7664 155.484 26.8551 155.75 26.9968C155.989 27.1237 156.22 27.3401 156.497 27.1984C156.563 27.1603 156.62 27.1065 156.661 27.0416C156.746 26.9213 156.787 26.775 156.776 26.6279C156.765 26.4808 156.703 26.3421 156.601 26.2356Z" fill="black"/>
<path d="M160.377 26.34C161.083 25.9387 161.893 25.7571 162.702 25.8182C163.512 25.8794 164.285 26.1806 164.922 26.6833C165.04 26.7822 165.114 26.9239 165.127 27.0772C165.14 27.2304 165.092 27.3827 164.993 27.5005C164.894 27.6182 164.753 27.6919 164.599 27.7052C164.446 27.7185 164.294 27.6703 164.176 27.5714C163.647 27.1596 162.988 26.9506 162.318 26.9818C161.975 26.9889 161.636 27.0572 161.318 27.1833C161.034 27.2878 160.758 27.4893 160.452 27.3251C160.38 27.2827 160.317 27.227 160.265 27.1609C160.218 27.0998 160.184 27.03 160.164 26.9556C160.144 26.8811 160.139 26.8034 160.15 26.727C160.16 26.6507 160.186 26.5771 160.225 26.5107C160.264 26.4442 160.316 26.3862 160.377 26.34Z" fill="black"/>
<path d="M158.055 35.6319C157.491 35.6166 156.94 35.4628 156.45 35.1841C156.392 35.1509 156.341 35.1065 156.301 35.0536C156.26 35.0007 156.23 34.9403 156.213 34.8758C156.195 34.8113 156.191 34.7441 156.2 34.6779C156.208 34.6117 156.23 34.5478 156.263 34.49C156.296 34.4315 156.34 34.3801 156.393 34.3386C156.445 34.2971 156.506 34.2665 156.57 34.2484C156.635 34.2304 156.702 34.2253 156.769 34.2335C156.835 34.2416 156.899 34.2629 156.958 34.296C157.465 34.568 158.046 34.6685 158.615 34.5824C159.184 34.4963 159.71 34.2283 160.114 33.8184C160.155 33.7654 160.205 33.7209 160.263 33.6876C160.32 33.6543 160.384 33.6329 160.45 33.6245C160.516 33.6162 160.583 33.6211 160.647 33.639C160.711 33.6569 160.771 33.6875 160.823 33.7288C160.881 33.7698 160.93 33.8224 160.966 33.8833C161.002 33.9441 161.025 34.0119 161.033 34.0821C161.042 34.1524 161.035 34.2237 161.015 34.2914C160.994 34.3591 160.959 34.4216 160.913 34.4751C160.55 34.8657 160.106 35.1718 159.613 35.3717C159.119 35.5716 158.587 35.6604 158.055 35.6319Z" fill="#C16B5B"/>
<path d="M156.952 32.6986C156.925 32.6966 156.899 32.6862 156.878 32.6689C156.856 32.6515 156.841 32.628 156.833 32.6016C156.617 31.7583 156.908 31.4896 157.191 31.4075C157.366 31.3739 157.547 31.3793 157.72 31.4231C157.892 31.467 158.053 31.5482 158.191 31.6612C158.219 31.6809 158.238 31.7102 158.245 31.7435C158.252 31.7767 158.246 31.8113 158.229 31.8404C158.204 31.8624 158.172 31.8746 158.139 31.8746C158.106 31.8746 158.074 31.8624 158.05 31.8404C157.94 31.7512 157.813 31.686 157.677 31.6487C157.541 31.6114 157.398 31.603 157.258 31.6239C157.005 31.6986 156.945 31.9896 157.079 32.5046C157.084 32.5207 157.085 32.5376 157.083 32.5543C157.081 32.571 157.076 32.5871 157.067 32.6016C157.059 32.6162 157.048 32.629 157.035 32.6392C157.021 32.6495 157.006 32.657 156.99 32.6613L156.952 32.6986Z" fill="#C16B5B"/>
<path d="M177.894 34.4448C176.543 35.9374 174.476 36.318 173.274 35.2434C172.073 34.1687 172.2 32.0716 173.55 30.5566C174.901 29.0416 176.976 28.6908 178.17 29.7655C179.364 30.8402 179.252 32.9074 177.894 34.4448Z" fill="#EFAD9C"/>
<path d="M177.297 30.467C176.989 30.3156 176.651 30.2368 176.308 30.2368C175.965 30.2368 175.627 30.3156 175.319 30.467C175.025 30.5831 174.767 30.7765 174.573 31.0268C174.457 31.1686 174.379 31.3371 174.345 31.517C174.311 31.6969 174.323 31.8824 174.379 32.0567C174.488 32.32 174.669 32.5474 174.901 32.7134C175.039 32.8166 175.158 32.9429 175.252 33.0865C175.303 33.1927 175.321 33.3119 175.303 33.4284C175.285 33.5449 175.232 33.6532 175.151 33.739C175.07 33.8247 174.965 33.8839 174.85 33.9086C174.735 33.9334 174.615 33.9226 174.506 33.8776C174.476 33.8622 174.443 33.8529 174.41 33.8502C174.376 33.8475 174.343 33.8515 174.311 33.8619C174.279 33.8723 174.249 33.8889 174.224 33.9109C174.198 33.9328 174.178 33.9595 174.162 33.9896C174.133 34.0502 174.129 34.1197 174.15 34.1837C174.17 34.2476 174.215 34.3011 174.274 34.3329C174.412 34.3999 174.562 34.4356 174.715 34.4373C174.866 34.4445 175.018 34.4196 175.159 34.3643C175.301 34.309 175.429 34.2245 175.536 34.1164C175.693 33.9493 175.794 33.7376 175.826 33.5105C175.858 33.2833 175.819 33.0519 175.715 32.8477C175.59 32.6471 175.431 32.4702 175.245 32.3253C175.086 32.2113 174.958 32.0601 174.871 31.885C174.846 31.7913 174.844 31.6928 174.865 31.598C174.885 31.5032 174.929 31.4147 174.991 31.3402C175.047 31.2647 175.115 31.1991 175.192 31.1462C175.329 31.1404 175.465 31.1618 175.593 31.2092C175.721 31.2566 175.839 31.3291 175.939 31.4223C176.026 31.5237 176.089 31.6434 176.124 31.7726C176.159 31.9017 176.164 32.037 176.14 32.1686C176.134 32.2014 176.134 32.2352 176.14 32.2681C176.147 32.3009 176.16 32.3321 176.179 32.3598C176.198 32.3876 176.222 32.4113 176.25 32.4297C176.277 32.4482 176.309 32.4609 176.342 32.4671H176.379C176.44 32.4683 176.5 32.4481 176.547 32.4099C176.595 32.3717 176.628 32.318 176.64 32.2581C176.68 32.0495 176.672 31.8347 176.618 31.6294C176.564 31.4241 176.464 31.2335 176.327 31.0715C176.222 30.957 176.095 30.8654 175.954 30.8029C176.34 30.6951 176.754 30.7378 177.11 30.9223C177.321 31.0327 177.485 31.217 177.568 31.44C177.652 31.663 177.651 31.909 177.566 32.1313C177.537 32.1928 177.534 32.263 177.556 32.3271C177.578 32.3912 177.624 32.4441 177.685 32.4746C177.745 32.5034 177.813 32.5078 177.876 32.4868C177.938 32.4659 177.991 32.4214 178.021 32.3626C178.161 32.0136 178.165 31.6244 178.031 31.2729C177.896 30.9214 177.634 30.6336 177.297 30.467Z" fill="#C16B5B"/>
<path d="M162.143 255.762L124.785 274.298L136.392 297.69L173.749 279.154L162.143 255.762Z" fill="white"/>
<path d="M124.789 274.291L149.268 276.724L162.141 255.761L124.789 274.291Z" fill="#E5E5E5"/>
<path d="M316.069 72.8272C314.567 69.7977 312.34 67.186 309.586 65.2243C306.832 63.2625 303.636 62.0114 300.282 61.5821C296.928 61.1529 293.519 61.5587 290.36 62.7635C287.2 63.9684 284.387 65.9349 282.171 68.4886C279.954 71.0422 278.403 74.1037 277.654 77.4013C276.905 80.6988 276.983 84.1302 277.879 87.3906C278.776 90.6511 280.464 93.6395 282.794 96.0906C285.123 98.5416 288.022 100.379 291.233 101.44C295.63 102.81 299.671 105.131 303.069 108.239L304.353 109.456L315.547 103.903L315.353 102.127C314.866 97.691 315.415 93.2022 316.958 89.0145C317.918 86.3978 318.335 83.6126 318.182 80.8293C318.03 78.0461 317.311 75.3232 316.069 72.8272Z" fill="#F7A60C"/>
<path d="M296.658 84.9047L295.047 85.7041L306.345 108.474L307.956 107.675L296.658 84.9047Z" fill="#E89003"/>
<path d="M302.33 82.0873L300.719 82.8867L312.017 105.657L313.628 104.857L302.33 82.0873Z" fill="#E89003"/>
<path d="M311.155 113.777L314.946 111.896L316.438 114.905C316.542 115.114 316.559 115.356 316.484 115.577C316.41 115.798 316.25 115.981 316.041 116.085L313.821 117.186C313.612 117.29 313.37 117.306 313.149 117.232C312.928 117.157 312.745 116.998 312.641 116.789L311.148 113.78L311.155 113.777Z" fill="#19437F"/>
<path d="M304.35 109.472L315.615 103.883L318.872 110.448C318.997 110.7 319.017 110.991 318.927 111.257C318.837 111.523 318.645 111.743 318.394 111.868L309.054 116.502C308.803 116.627 308.511 116.647 308.245 116.557C307.979 116.468 307.759 116.276 307.634 116.024L304.367 109.439L304.35 109.472Z" fill="white"/>
<path d="M71.1054 24.6011L79.3222 43.5348L33.9844 56.8786L71.1054 24.6011Z" fill="#E5E5E5"/>
<path d="M33.9844 56.879L50.7986 19.1758L71.1054 24.6014L33.9844 56.879Z" fill="white"/>
<path d="M33.9844 56.8786L76.5161 26.1758L99.047 29.6685L33.9844 56.8786Z" fill="white"/>
<path d="M55.3281 238.499L53.3984 243.112L54.2522 243.469L56.1818 238.856L55.3281 238.499Z" fill="#AD1E0B"/>
<path d="M36.7148 230.717L34.7852 235.33L35.6389 235.687L37.5685 231.074L36.7148 230.717Z" fill="#AD1E0B"/>
<path d="M55.3958 239.491C55.2206 239.415 55.0724 239.287 54.9704 239.126C50.7985 232.476 45.0371 230.066 37.3726 231.767C37.1321 231.821 36.8802 231.776 36.6724 231.644C36.4645 231.512 36.3178 231.302 36.2643 231.062C36.2109 230.821 36.2551 230.569 36.3874 230.362C36.5197 230.154 36.7291 230.007 36.9696 229.954C45.3804 228.095 51.9628 230.849 56.5451 238.163C56.6479 238.331 56.6951 238.527 56.6799 238.723C56.6647 238.919 56.5879 239.105 56.4604 239.255C56.3328 239.405 56.1612 239.511 55.97 239.557C55.7788 239.604 55.5778 239.588 55.3958 239.514V239.491Z" fill="#D33C39"/>
<path d="M68.23 248.353L21.4883 228.801L8.60594 259.597L55.3477 279.15L68.23 248.353Z" fill="#D33C39"/>
<path d="M68.23 248.352L21.4883 228.799L14.5676 245.344L61.3093 264.896L68.23 248.352Z" fill="#D33C39"/>
<path d="M61.3081 264.9L14.5664 245.347L13.4778 247.95L60.2195 267.502L61.3081 264.9Z" fill="#AD1E0B"/>
<path d="M22.9221 248.845L21.3867 248.203L19.5176 252.671L21.0529 253.313L22.9221 248.845Z" fill="#F7A60C"/>
<path d="M51.0819 265.873L52.6172 266.515L54.4863 262.047L52.951 261.405L51.0819 265.873Z" fill="#F7A60C"/>
</svg>
