<svg width="341" height="303" viewBox="0 0 341 303" fill="none" xmlns="http://www.w3.org/2000/svg">
<g clip-path="url(#clip0_7508_41969)">
<path d="M299.392 6.53564H49.6641V228.987H299.392V6.53564Z" fill="#D9D9D9"/>
<path d="M293.58 0H43.8516V222.452H293.58V0Z" fill="white"/>
<mask id="mask0_7508_41969" style="mask-type:luminance" maskUnits="userSpaceOnUse" x="58" y="14" width="62" height="62">
<path d="M91.2986 14.6456C74.5258 13.4439 59.9527 26.0591 58.7488 42.8225C57.5449 59.5859 70.1659 74.1496 86.9387 75.3513C103.712 76.5531 118.285 63.9379 119.489 47.1745C120.692 30.4111 108.071 15.8474 91.2986 14.6456Z" fill="white"/>
</mask>
<g mask="url(#mask0_7508_41969)">
<path d="M119.552 46.0949C120.154 29.3002 107.019 15.198 90.2145 14.5968C73.4098 13.9955 59.2985 27.1229 58.6961 43.9176C58.0938 60.7124 71.2284 74.8145 88.0332 75.4158C104.838 76.017 118.949 62.8896 119.552 46.0949Z" fill="#A7E1FF"/>
</g>
<mask id="mask1_7508_41969" style="mask-type:luminance" maskUnits="userSpaceOnUse" x="58" y="14" width="62" height="62">
<path d="M119.552 46.0954C120.154 29.3011 107.019 15.1989 90.2139 14.5973C73.4087 13.9957 59.2974 27.1225 58.6955 43.9169C58.0935 60.7112 71.2287 74.8134 88.0339 75.415C104.839 76.0166 118.95 62.8898 119.552 46.0954Z" fill="white"/>
</mask>
<g mask="url(#mask1_7508_41969)">
<path d="M103.855 51.2181C105.047 49.3663 104.138 47.9575 103.412 47.2894C102.685 46.6213 101.929 46.0259 102.743 44.1741C103.557 42.3223 102.002 41.6542 101.777 40.5359C101.552 39.4249 102.147 38.8294 102.373 37.5658C102.598 36.3023 102.009 34.937 101.631 34.2254C101.116 33.2596 100.222 32.5189 99.7494 31.6039C99.2844 30.6889 94.176 23.8773 92.621 23.6667C90.659 23.398 89.4964 24.2331 89.1185 24.5671C88.7407 24.2331 87.578 23.398 85.6161 23.6667C84.061 23.8773 78.9527 30.6889 78.4876 31.6039C78.0226 32.5189 77.1288 33.2596 76.6056 34.2254C76.2277 34.9298 75.6392 36.3023 75.8644 37.5658C76.0897 38.8294 76.6783 39.4176 76.4603 40.5359C76.235 41.647 74.68 42.3151 75.4938 44.1741C76.3077 46.0259 75.5592 46.6213 74.8253 47.2894C74.0987 47.9575 73.1903 49.3663 74.3821 51.2181C75.5665 53.0771 73.8589 53.5201 74.5274 55.8148C75.1959 58.1168 79.1271 58.3347 81.1326 59.0028C83.1382 59.6708 86.4009 60.7311 89.1113 60.7311C91.8217 60.7311 95.0843 59.6708 97.0899 59.0028C99.0955 58.3347 103.027 58.1096 103.695 55.8148C104.378 53.5201 102.671 53.0771 103.855 51.2181Z" fill="#B05512"/>
<path d="M73.5526 91.8044C74.2575 88.079 74.817 83.9616 74.817 83.9616C74.817 83.9616 76.9316 68.109 76.8226 63.8971C76.7063 59.6853 74.9696 55.7784 73.836 55.1176C72.7097 54.4568 68.4516 58.458 67.6014 62.0163C66.7512 65.5674 66.5477 69.2927 66.3515 72.8583C66.1481 76.4165 66.0754 83.0611 66.0754 83.0611C66.0754 83.0611 64.7747 87.8394 64.0117 91.8116H73.5526V91.8044Z" fill="#BB8B40"/>
<path d="M104.681 91.8042H114.222C113.459 87.832 112.158 83.0537 112.158 83.0537C112.158 83.0537 112.085 76.4091 111.882 72.8508C111.678 69.2853 111.475 65.5672 110.632 62.0089C109.782 58.4579 105.524 54.4493 104.397 55.1102C103.271 55.771 101.527 59.6779 101.411 63.8897C101.295 68.1016 103.416 83.9542 103.416 83.9542C103.416 83.9542 103.976 88.0789 104.681 91.8042Z" fill="#BB8B40"/>
<path d="M73.6191 79.8732C73.7572 82.5819 73.6627 87.4401 73.1541 91.8044H105.083C104.574 87.4401 104.48 82.5819 104.618 79.8732C104.662 79.0236 105.265 70.963 105.912 68.3778C106.558 65.7926 107.205 57.6811 105.585 55.5752C104.371 53.9993 92.0906 52.0459 88.4646 52.0459C84.8386 52.0459 73.8589 53.9921 72.6382 55.5752C71.0177 57.6811 71.6645 65.7926 72.3184 68.3778C72.9724 70.963 73.5755 79.0236 73.6191 79.8732Z" fill="#4A68CA"/>
<path d="M98.2461 54.4129C98.1371 53.6359 93.8935 51.973 93.8935 51.973L92.4692 42.7432H85.7768L84.3526 51.973C84.3526 51.973 80.1089 53.6359 79.9999 54.4129C79.8909 55.1899 80.3342 56.7512 82.0055 58.1963C83.6768 59.6414 87.2228 61.1301 89.1266 61.1301C91.0305 61.1301 94.5765 59.6414 96.2478 58.1963C97.9119 56.744 98.3551 55.1899 98.2461 54.4129Z" fill="#FFC39F"/>
<path d="M83.2689 53.9629C82.8257 56.1923 84.6059 64.616 89.1112 64.616C93.6237 64.616 95.404 56.185 94.9607 53.9629" stroke="#FFFFD9" stroke-width="0.8627" stroke-miterlimit="10"/>
<path d="M89.6776 65.6546C89.6776 65.9596 89.4306 66.2137 89.1181 66.2137C88.8129 66.2137 88.5586 65.9668 88.5586 65.6546C88.5586 65.3496 88.7621 64.5435 89.1181 64.5435C89.4742 64.5362 89.6776 65.3423 89.6776 65.6546Z" fill="#FFFFD9"/>
<path d="M84.3663 51.9731C84.3663 51.9731 81.0164 62.757 81.1254 72.2191C81.2344 81.6813 81.1254 91.6954 81.1254 91.6954H64.0273C64.0273 91.6954 65.1973 75.2255 66.2 68.4357C67.2028 61.6459 68.2056 56.7514 71.8824 55.4153C75.5593 54.0791 79.0109 53.1859 80.5659 53.0769C82.1282 52.9608 84.3663 51.9731 84.3663 51.9731Z" fill="#271539"/>
<path d="M93.8711 51.9731C93.8711 51.9731 97.221 62.757 97.112 72.2191C97.003 81.6813 97.112 91.6954 97.112 91.6954H114.21C114.21 91.6954 113.04 75.2255 112.037 68.4357C111.035 61.6459 110.032 56.7514 106.355 55.4153C102.678 54.0791 99.2265 53.1859 97.6715 53.0769C96.1092 52.9608 93.8711 51.9731 93.8711 51.9731Z" fill="#271539"/>
<path d="M71.9961 65.2114C72.1414 69.2635 73.0933 73.3447 73.4349 77.404C73.7691 81.4489 73.7183 87.5343 73.3767 91.5791" stroke="#4A364F" stroke-width="0.8627" stroke-miterlimit="10"/>
<path d="M106.236 65.2114C105.502 73.3229 103.714 83.3805 104.855 91.5791" stroke="#4A364F" stroke-width="0.8627" stroke-miterlimit="10"/>
<path d="M101.297 36.2658C100.898 35.0894 99.6041 34.3923 98.6812 34.7118C98.3179 31.945 97.2352 24.5234 89.1185 24.5234C81.0018 24.5234 79.9191 31.945 79.5485 34.7118C78.6257 34.385 77.3322 35.0894 76.9326 36.2658C76.5692 37.3333 76.9471 38.4807 77.6956 39.2722C78.2623 39.8677 79.098 40.1872 79.9554 40.3324C80.4786 42.1552 81.3506 44.0505 82.7167 45.5174C83.5814 46.4469 85.9067 47.9283 89.1112 47.9283C92.3158 47.9283 94.6411 46.4396 95.5058 45.5174C96.8719 44.0505 97.7511 42.1552 98.267 40.3324C99.1318 40.1872 99.9601 39.8677 100.527 39.2722C101.29 38.4807 101.661 37.3406 101.297 36.2658Z" fill="#FFC39F"/>
<path d="M97.8086 26.6002C94.03 21.074 89.1614 22.8023 89.1614 22.8023C89.1614 22.8023 89.1469 22.795 89.1106 22.7878C89.0815 22.795 89.0597 22.8023 89.0597 22.8023C89.0597 22.8023 84.1984 21.074 80.4126 26.6002C76.634 32.1265 78.9375 37.4857 78.9375 37.4857C78.9375 37.4857 80.2454 36.912 80.9866 36.1931C81.7278 35.4742 81.6551 34.3631 82.2583 33.8112C82.8614 33.2593 83.7624 33.4191 84.3655 33.0996C84.9687 32.7801 85.2666 31.5964 85.6444 31.2769C86.0223 30.9573 86.56 31.1607 87.3739 30.9573C88.3476 30.7177 89.1033 29.8535 89.1033 29.8535C89.1033 29.8535 89.859 30.725 90.8327 30.9573C91.6538 31.1534 92.1843 30.9573 92.5622 31.2769C92.94 31.5964 93.2379 32.7801 93.8411 33.0996C94.4442 33.4118 95.3452 33.2593 95.9484 33.8112C96.5515 34.3631 96.4715 35.4742 97.22 36.1931C97.9612 36.912 99.2764 37.4857 99.2764 37.4857C99.2764 37.4857 101.587 32.1338 97.8086 26.6002Z" fill="#B05512"/>
<path d="M83.2534 36.2368C83.4278 36.1714 83.6095 36.1133 83.7912 36.0552C84.1109 35.9608 84.4815 35.8228 84.7721 35.7865C85.0991 35.743 85.4261 35.7938 85.7604 35.8591C85.8912 35.8809 86.022 35.9245 86.1455 35.9681C86.0438 35.9318 86.2545 36.0116 86.2836 36.0189C86.378 36.0479 86.4507 36.0552 86.5524 36.0407C86.4943 36.0407 86.4434 36.0407 86.3853 36.0407C86.3126 36.0189 86.3926 36.0479 86.4071 36.0552C86.4434 36.0697 86.4798 36.0843 86.5161 36.0988C86.5524 36.106 86.5888 36.1133 86.6251 36.1206C86.6905 36.1278 86.7632 36.1496 86.8286 36.1206C86.923 36.0843 86.9957 35.9463 86.894 35.8664C86.8649 35.8446 86.9085 35.8954 86.894 35.8664C86.8867 35.8519 86.8722 35.8083 86.8867 35.8591C86.8722 35.8301 86.8649 35.7938 86.8504 35.7647C86.8358 35.7284 86.8286 35.6921 86.8068 35.6631C86.8068 35.6631 86.7196 35.5687 86.7196 35.5541C86.7777 35.6631 86.785 35.6631 86.7341 35.5541C86.7123 35.5251 86.6905 35.496 86.6687 35.467C86.6542 35.4452 86.6324 35.4234 86.6106 35.4016C86.2908 35.0676 85.8112 34.9369 85.368 34.9006C84.5178 34.828 83.6894 35.1257 82.9628 35.5396C82.5922 35.743 82.8392 36.3965 83.2534 36.2368Z" fill="#B05512"/>
<path d="M95.278 35.5398C94.5514 35.1259 93.723 34.8354 92.8728 34.9008C92.4295 34.9371 91.95 35.0678 91.6302 35.4019C91.6084 35.4236 91.5939 35.4454 91.5721 35.4672C91.5503 35.4963 91.5285 35.5253 91.5067 35.5544C91.4558 35.6633 91.4631 35.6633 91.5212 35.5544C91.5212 35.5471 91.3904 35.7577 91.3904 35.765C91.3759 35.794 91.3686 35.8303 91.3541 35.8594C91.3759 35.8013 91.3614 35.8521 91.3468 35.8666C91.3323 35.8884 91.3759 35.8376 91.3468 35.8666C91.2524 35.9465 91.3178 36.0845 91.4122 36.1208C91.4776 36.1426 91.5503 36.128 91.6157 36.1208C91.6448 36.1135 91.6811 36.1135 91.7174 36.1063C91.7538 36.099 91.7901 36.0845 91.8264 36.0699C91.841 36.0627 91.9282 36.0336 91.8555 36.0554C91.7974 36.0554 91.7465 36.0554 91.6884 36.0554C91.7828 36.0699 91.8555 36.0627 91.9427 36.0409C91.9645 36.0336 91.9863 36.0264 92.0081 36.0191C92.0299 36.0119 92.1825 35.9465 92.0953 35.9828C92.2188 35.932 92.3496 35.8957 92.4804 35.8739C92.8147 35.8158 93.1417 35.7577 93.4687 35.8013C93.7593 35.8376 94.1299 35.9755 94.4496 36.0699C94.6313 36.1208 94.813 36.1861 94.9874 36.2515C95.3943 36.3967 95.6486 35.7504 95.278 35.5398Z" fill="#B05512"/>
<path d="M89.3592 36.3384C89.5481 36.883 89.6426 37.4059 89.7443 37.8924C89.7879 38.1103 89.8678 38.408 89.9042 38.4225C89.9042 38.408 89.8751 38.3717 89.8824 38.379L89.9478 38.437L90.0786 38.5605C90.1658 38.6476 90.253 38.7348 90.3474 38.8437C90.5291 39.0398 90.7761 39.3738 90.8343 39.7805C90.8488 39.8822 90.8488 39.9548 90.8488 40.0782C90.8488 40.2598 90.7979 40.3832 90.7471 40.4849C90.6453 40.6882 90.5291 40.7971 90.4128 40.9133C89.9405 41.3055 89.4464 41.5233 88.8868 41.6468C89.1848 41.1748 89.5336 40.7608 89.737 40.3614C89.7879 40.267 89.8242 40.1726 89.817 40.1291C89.817 40.1073 89.8024 40.1 89.7879 40.1508C89.7734 40.1436 89.7588 40.0855 89.737 40.0637C89.6716 39.9548 89.5772 39.8749 89.41 39.6861C89.3301 39.5989 89.2356 39.4973 89.1484 39.3883L89.0249 39.2141L88.9595 39.1269C88.9232 39.0761 88.8723 38.9889 88.836 38.9091C88.6834 38.437 88.7561 38.1974 88.7851 37.8997C88.8796 37.3478 89.054 36.8249 89.3592 36.3384Z" fill="#DC8C7A"/>
<path d="M85.9997 37.7035C85.9997 38.3063 85.5129 38.8001 84.9097 38.8001C84.3066 38.8001 83.8125 38.3135 83.8125 37.7108C83.8125 37.1081 84.2994 36.6215 84.9025 36.6143C85.5056 36.6143 85.9997 37.1008 85.9997 37.7035Z" fill="#522C31"/>
<path d="M92.2344 37.7035C92.2344 38.3063 92.7212 38.8001 93.3316 38.8001C93.9347 38.8001 94.4216 38.3135 94.4216 37.7108C94.4216 37.1081 93.9347 36.6215 93.3316 36.6143C92.7212 36.6143 92.2344 37.1008 92.2344 37.7035Z" fill="#522C31"/>
<path d="M91.9894 41.9375C92.1275 42.2425 92.0258 42.6492 91.8296 42.9469C91.6261 43.2446 91.3572 43.4843 91.0593 43.6586C90.4635 44.0216 89.7804 44.1669 89.1192 44.1741C88.4506 44.1669 87.7676 44.0289 87.179 43.6586C86.8811 43.4843 86.6122 43.2446 86.4087 42.9469C86.2126 42.6492 86.1108 42.2425 86.2562 41.9375C86.5613 42.5112 87.0773 42.6201 87.5714 42.7581C88.08 42.867 88.6032 42.9106 89.1264 42.9178C89.6496 42.9178 90.1728 42.8743 90.6815 42.7653C91.1683 42.6201 91.6915 42.5112 91.9894 41.9375Z" fill="#C35E64"/>
<path d="M85.1016 47.2456C86.1843 47.7249 87.5431 48.0807 89.1199 48.0807C90.6968 48.0807 92.0556 47.7176 93.1383 47.2456" stroke="#DC8C7A" stroke-width="0.9913" stroke-miterlimit="10"/>
</g>
<mask id="mask2_7508_41969" style="mask-type:luminance" maskUnits="userSpaceOnUse" x="58" y="151" width="62" height="62">
<path d="M119.561 182.047C119.561 198.851 105.929 212.474 89.1146 212.474C72.2999 212.474 58.668 198.851 58.668 182.047C58.668 165.243 72.2999 151.62 89.1146 151.62C105.929 151.62 119.561 165.243 119.561 182.047Z" fill="white"/>
</mask>
<g mask="url(#mask2_7508_41969)">
<path d="M119.561 182.047C119.561 198.851 105.929 212.474 89.1146 212.474C72.2999 212.474 58.668 198.851 58.668 182.047C58.668 165.243 72.2999 151.62 89.1146 151.62C105.929 151.62 119.561 165.243 119.561 182.047Z" fill="#A7E1FF"/>
</g>
<mask id="mask3_7508_41969" style="mask-type:luminance" maskUnits="userSpaceOnUse" x="58" y="151" width="62" height="62">
<path d="M119.561 182.047C119.561 198.851 105.929 212.474 89.1146 212.474C72.2999 212.474 58.668 198.851 58.668 182.047C58.668 165.243 72.2999 151.62 89.1146 151.62C105.929 151.62 119.561 165.243 119.561 182.047Z" fill="white"/>
</mask>
<g mask="url(#mask3_7508_41969)">
<path d="M100.4 182.664C99.0772 178.75 100.4 176.223 99.346 168.133C98.3505 160.53 91.7598 158.845 89.1148 159.201C86.4698 158.845 79.879 160.53 78.8835 168.133C77.8299 176.215 79.1451 178.743 77.8299 182.664C76.5074 186.578 72.8523 193.905 75.9333 197.13C76.6745 197.907 81.8047 199.751 89.1148 199.751C96.4249 199.751 101.555 197.907 102.296 197.13C105.377 193.898 101.715 186.578 100.4 182.664Z" fill="#7C2729"/>
<path d="M66.2305 228.849H73.6205C74.3399 225.08 74.9139 220.869 74.9139 220.869C74.9139 220.869 76.8178 205.343 76.7015 201.102C76.5852 196.861 76.142 191.306 76.142 191.306C76.142 191.306 71.3534 193.085 69.1298 196.759C66.9063 200.434 66.3831 204.951 66.4557 210.223C66.5284 215.495 66.3976 220.004 66.3467 222.132C66.2523 225.661 66.2305 228.849 66.2305 228.849Z" fill="#FFC39F"/>
<path d="M112.004 228.849H104.613C103.894 225.08 103.32 220.869 103.32 220.869C103.32 220.869 101.416 205.343 101.532 201.102C101.649 196.861 102.092 191.306 102.092 191.306C102.092 191.306 106.881 193.085 109.104 196.759C111.335 200.434 111.851 204.951 111.778 210.223C111.706 215.495 111.836 220.004 111.887 222.132C111.974 225.661 112.004 228.849 112.004 228.849Z" fill="#FFC39F"/>
<path d="M109.94 197.159C107.869 194.072 103.981 192.083 103.981 192.083C103.981 192.083 102.579 191.088 100.638 190.63C98.037 190.013 91.8532 189.025 89.1137 189.025C86.3742 189.025 80.1904 190.013 77.589 190.63C75.6561 191.088 74.2464 192.083 74.2464 192.083C74.2464 192.083 70.3516 194.072 68.2879 197.159C67.5394 198.277 65.2941 201.697 65.9626 204.362C66.6311 207.027 73.8322 208.763 73.8322 208.763C73.8322 208.763 74.3627 215.916 74.3627 219.699C74.3627 223.483 73.2436 228.849 73.2436 228.849H88.387H104.984C104.984 228.849 103.865 223.49 103.865 219.699C103.865 215.916 104.395 208.763 104.395 208.763C104.395 208.763 111.604 207.027 112.265 204.362C112.933 201.697 110.695 198.277 109.94 197.159Z" fill="#2754C5"/>
<path d="M89.1141 201.516C96.9256 201.516 101.482 197.202 104.752 192.518C104.279 192.235 103.981 192.083 103.981 192.083C103.981 192.083 102.579 191.088 100.639 190.63C98.0374 190.013 91.8536 189.025 89.1141 189.025C86.3746 189.025 80.1908 190.013 77.5894 190.63C75.6565 191.088 74.2468 192.083 74.2468 192.083C74.2468 192.083 73.9489 192.235 73.4766 192.518C76.7465 197.202 81.3026 201.516 89.1141 201.516Z" fill="#709CCC"/>
<path d="M99.0406 190.972C98.59 190.325 95.2983 189.468 93.9322 189.294L92.5298 180.209H85.6993L84.2968 189.294C82.9307 189.476 79.639 190.325 79.1885 190.972C78.7379 191.625 80.3656 194.631 82.6401 196.098C83.948 196.941 86.6512 198.241 89.1145 198.241C91.5779 198.241 94.281 196.948 95.589 196.098C97.8561 194.631 99.4911 191.618 99.0406 190.972Z" fill="#FFC39F"/>
<path d="M89.1151 161.757C80.9984 161.757 79.1963 171.082 79.843 175.925C80.4897 180.769 81.3472 181.284 82.7206 182.751C83.5853 183.674 85.9105 185.162 89.1151 185.162C92.3196 185.162 94.6449 183.674 95.5096 182.751C96.8757 181.284 97.7404 180.769 98.3871 175.925C99.0339 171.089 97.2318 161.757 89.1151 161.757Z" fill="#FFC39F"/>
<path d="M93.1781 184.603C92.2625 184.908 91.2016 185.133 89.9663 185.213C87.9389 185.336 86.3258 185.017 85.0469 184.523" stroke="#DC8C7A" stroke-width="0.9913" stroke-miterlimit="10"/>
<path d="M88.9924 173.289C89.2976 173.783 89.472 174.298 89.5592 174.858C89.5883 175.155 89.661 175.395 89.5084 175.867C89.4793 175.94 89.4212 176.034 89.3848 176.085L89.3194 176.172L89.1886 176.339C89.1014 176.448 89.0142 176.55 88.927 176.637C88.7599 176.826 88.6655 176.905 88.6001 177.014C88.5783 177.036 88.5637 177.094 88.5492 177.102C88.5419 177.051 88.5201 177.058 88.5201 177.08C88.5129 177.123 88.5565 177.225 88.6001 177.312C88.8035 177.712 89.1523 178.133 89.4502 178.597C88.898 178.474 88.3966 178.256 87.9243 177.864C87.808 177.755 87.6917 177.639 87.59 177.436C87.5391 177.334 87.4883 177.21 87.4883 177.029C87.4883 176.905 87.4883 176.833 87.5028 176.731C87.5609 176.325 87.808 175.983 87.9897 175.794C88.0841 175.685 88.1713 175.598 88.2585 175.511L88.3893 175.388L88.4547 175.33C88.4547 175.33 88.4329 175.359 88.4329 175.38C88.4693 175.366 88.5492 175.068 88.5928 174.85C88.7163 174.357 88.8035 173.826 88.9924 173.289Z" fill="#DC8C7A"/>
<path d="M92.2344 174.335C92.2344 174.938 92.7212 175.431 93.3244 175.431C93.9275 175.431 94.4216 174.945 94.4216 174.342C94.4216 173.739 93.9347 173.253 93.3316 173.246C92.7285 173.246 92.2344 173.732 92.2344 174.335Z" fill="#2C1D31"/>
<path d="M85.9992 174.335C85.9992 174.938 85.5123 175.431 84.9019 175.431C84.2988 175.431 83.812 174.945 83.8047 174.342C83.8047 173.739 84.2915 173.253 84.8947 173.246C85.5123 173.246 85.9992 173.732 85.9992 174.335Z" fill="#2C1D31"/>
<path d="M95.0394 171.779C94.6252 171.532 94.1965 171.358 93.7314 171.249C93.3391 171.154 92.9612 171.125 92.5615 171.191C92.1619 171.256 91.6169 171.59 91.5079 172.004C91.5442 171.938 91.5878 171.873 91.6242 171.808C91.5297 171.909 91.4425 172.04 91.4643 172.193C91.4788 172.28 91.457 172.062 91.457 172.243C91.457 172.367 91.5733 172.469 91.6678 172.527C91.7332 172.563 91.8058 172.585 91.8785 172.585C91.9221 172.585 91.9148 172.585 91.864 172.585C91.9294 172.592 91.9948 172.607 92.0602 172.607C92.1474 172.607 92.2345 172.592 92.3217 172.578C92.3508 172.57 92.4671 172.534 92.4889 172.548C92.4598 172.548 92.438 172.556 92.4089 172.556C92.438 172.556 92.4671 172.548 92.4961 172.548C92.6051 172.534 92.7069 172.527 92.8086 172.505C92.8522 172.498 92.9103 172.476 92.9539 172.476C92.7723 172.469 92.9685 172.483 93.0121 172.483C93.092 172.483 93.1719 172.498 93.2591 172.498C93.0411 172.49 93.2228 172.498 93.2737 172.505C93.31 172.512 93.3536 172.519 93.3899 172.527C93.5861 172.57 93.7751 172.628 93.964 172.686C94.1674 172.752 94.3782 172.781 94.5889 172.839C94.865 172.919 95.1557 172.766 95.2647 172.505C95.3882 172.229 95.2865 171.924 95.0394 171.779Z" fill="#8B3B29"/>
<path d="M83.6378 172.824C83.8413 172.766 84.0593 172.737 84.2628 172.672C84.4517 172.614 84.6406 172.556 84.8368 172.512C84.8731 172.505 84.9167 172.498 84.9531 172.49C85.0039 172.483 85.1856 172.476 84.9676 172.483C85.0475 172.476 85.1275 172.468 85.2147 172.468C85.2365 172.468 85.4181 172.476 85.3091 172.468C85.2074 172.461 85.3963 172.49 85.4181 172.49C85.5199 172.512 85.6289 172.527 85.7306 172.534C85.7524 172.534 85.7742 172.541 85.796 172.541C85.8469 172.548 85.8251 172.541 85.7379 172.534C85.7669 172.519 85.8759 172.556 85.905 172.563C85.9849 172.577 86.0649 172.592 86.1448 172.592C86.2174 172.592 86.2901 172.577 86.3628 172.57C86.3119 172.57 86.3046 172.57 86.3482 172.57C86.4282 172.57 86.4936 172.548 86.5662 172.512C86.668 172.454 86.777 172.352 86.777 172.229C86.777 172.047 86.7624 172.265 86.7697 172.178C86.7915 172.026 86.7043 171.895 86.6098 171.793C86.6462 171.858 86.6898 171.924 86.7261 171.989C86.6244 171.568 86.0721 171.241 85.6725 171.176C85.2728 171.111 84.8949 171.14 84.5025 171.234C84.0375 171.343 83.6015 171.524 83.1946 171.764C82.9475 171.909 82.8458 172.222 82.962 172.483C83.071 172.752 83.3617 172.904 83.6378 172.824Z" fill="#8B3B29"/>
<path d="M91.9857 178.481C92.1237 178.786 92.022 179.193 91.8258 179.491C91.6223 179.789 91.3535 180.028 91.0555 180.202C90.4597 180.566 89.7766 180.711 89.1154 180.718C88.4469 180.711 87.7638 180.573 87.168 180.202C86.87 180.028 86.6012 179.789 86.3977 179.491C86.2015 179.193 86.107 178.786 86.2451 178.481C86.5503 179.055 87.0662 179.164 87.5603 179.302C88.069 179.411 88.5922 179.455 89.1154 179.462C89.6386 179.462 90.1618 179.418 90.6704 179.309C91.1645 179.164 91.6877 179.055 91.9857 178.481Z" fill="#C35E64"/>
<path d="M100.901 169.782C100.371 167.117 99.2661 163.733 96.8972 161.118C94.5283 158.504 90.0449 157.916 89.1148 159.368C88.1847 157.916 83.7012 158.504 81.3323 161.118C78.9635 163.733 77.8662 167.117 77.3285 169.782C76.8344 172.265 72.6416 196.324 74.7634 197.565C77.0306 198.902 83.4324 200.63 84.3697 195.699C85.3071 190.768 83.1708 184.501 81.4341 180.362C80.8891 179.062 81.2669 173.195 81.8701 171.379C83.4542 170.319 85.576 169.259 87.1964 168.228C87.9085 167.77 88.5553 167.247 89.122 166.71C89.6888 167.247 90.3283 167.77 91.0477 168.228C92.6681 169.259 94.7899 170.319 96.374 171.379C96.9771 173.195 97.355 179.062 96.8027 180.362C95.066 184.494 92.937 190.761 93.8671 195.699C94.8045 200.63 101.206 198.902 103.473 197.565C105.588 196.316 101.402 172.265 100.901 169.782Z" fill="#8B3B29"/>
</g>
<mask id="mask4_7508_41969" style="mask-type:luminance" maskUnits="userSpaceOnUse" x="58" y="83" width="62" height="61">
<path d="M89.1146 143.959C105.93 143.959 119.561 130.336 119.561 113.532C119.561 96.7272 105.93 83.1045 89.1146 83.1045C72.2994 83.1045 58.668 96.7272 58.668 113.532C58.668 130.336 72.2994 143.959 89.1146 143.959Z" fill="white"/>
</mask>
<g mask="url(#mask4_7508_41969)">
<path d="M89.1146 143.959C105.93 143.959 119.561 130.336 119.561 113.532C119.561 96.7272 105.93 83.1045 89.1146 83.1045C72.2994 83.1045 58.668 96.7272 58.668 113.532C58.668 130.336 72.2994 143.959 89.1146 143.959Z" fill="#A7E1FF"/>
</g>
<mask id="mask5_7508_41969" style="mask-type:luminance" maskUnits="userSpaceOnUse" x="58" y="83" width="62" height="61">
<path d="M89.1146 143.959C105.93 143.959 119.561 130.336 119.561 113.532C119.561 96.7272 105.93 83.1045 89.1146 83.1045C72.2994 83.1045 58.668 96.7272 58.668 113.532C58.668 130.336 72.2994 143.959 89.1146 143.959Z" fill="white"/>
</mask>
<g mask="url(#mask5_7508_41969)">
<path d="M107.799 160.327C108.038 146.551 110.909 129.428 108.678 124.519C107.828 122.645 97.1894 119.966 89.1163 119.966C81.0432 119.966 70.4051 122.645 69.5549 124.519C67.3241 129.421 70.1943 146.551 70.4341 160.327H107.799Z" fill="#8CB0ED"/>
<path d="M70.8832 123.488C70.8832 123.488 70.2656 133.988 70.6144 137.489C71.0576 141.94 70.9268 146.413 70.9268 146.413L70.5926 160.32H60.681C60.681 160.32 60.3468 142.63 62.3523 134.504C63.5513 129.631 65.7749 127.337 67.0828 125.913C68.2164 124.693 70.8832 123.488 70.8832 123.488Z" fill="#8CB0ED"/>
<path d="M70.7529 127.22C70.7529 127.22 69.9536 132.819 70.6221 136.152C71.2906 139.485 70.9709 143.603 70.9346 146.413C70.891 149.224 70.6003 160.32 70.6003 160.32" stroke="#6888D4" stroke-width="0.8627" stroke-miterlimit="10"/>
<path d="M107.347 123.488C107.347 123.488 107.964 133.988 107.616 137.489C107.172 141.94 107.303 146.413 107.303 146.413L107.637 160.32H117.549C117.549 160.32 117.883 142.63 115.878 134.504C114.679 129.631 112.455 127.337 111.147 125.913C110.014 124.693 107.347 123.488 107.347 123.488Z" fill="#8CB0ED"/>
<path d="M107.477 127.22C107.477 127.22 108.277 132.819 107.608 136.152C106.94 139.485 107.259 143.603 107.296 146.413C107.339 149.224 107.63 160.32 107.63 160.32" stroke="#6888D4" stroke-width="0.8627" stroke-miterlimit="10"/>
<path d="M87.1836 128.724V160.327" stroke="#6888D4" stroke-width="0.8627" stroke-miterlimit="10"/>
<path d="M91.0508 128.724V160.327" stroke="#6888D4" stroke-width="0.8627" stroke-miterlimit="10"/>
<path d="M97.6036 120.685C96.8624 118.179 95.9468 117.998 94.1011 117.642C92.6914 117.366 90.2135 118.034 89.1163 118.361C88.0191 118.027 85.5412 117.366 84.1315 117.642C82.2858 117.998 81.3629 118.179 80.629 120.685C79.8951 123.19 84.3204 131.962 84.3204 131.962L89.1163 126.843L93.9122 131.962C93.9122 131.962 98.3375 123.19 97.6036 120.685Z" fill="#6888D4"/>
<path d="M82.7422 120.735L84.3554 114.033C84.3554 114.033 87.0948 114.853 89.1149 114.853C91.1423 114.853 93.8817 114.033 93.8817 114.033L95.4949 120.735C95.4949 120.735 92.5156 125.79 89.1222 125.79C85.7215 125.79 82.7422 120.735 82.7422 120.735Z" fill="#FFC39F"/>
<path d="M89.9794 132.957C89.9794 133.436 89.5943 133.821 89.1147 133.821C88.6351 133.821 88.25 133.436 88.25 132.957C88.25 132.478 88.6351 132.093 89.1147 132.093C89.5943 132.093 89.9794 132.478 89.9794 132.957Z" fill="#E1EBFF"/>
<path d="M89.9794 138.258C89.9794 138.737 89.5943 139.122 89.1147 139.122C88.6351 139.122 88.25 138.737 88.25 138.258C88.25 137.779 88.6351 137.394 89.1147 137.394C89.5943 137.394 89.9794 137.779 89.9794 138.258Z" fill="#E1EBFF"/>
<path d="M89.9794 143.559C89.9794 144.038 89.5943 144.423 89.1147 144.423C88.6351 144.423 88.25 144.038 88.25 143.559C88.25 143.08 88.6351 142.695 89.1147 142.695C89.5943 142.688 89.9794 143.08 89.9794 143.559Z" fill="#E1EBFF"/>
<path d="M79.4297 105.188C79.4297 111.651 83.0484 116.887 89.1159 116.887C95.1835 116.887 98.8022 111.651 98.8022 105.188C98.8022 98.725 96.2735 93.4893 89.1159 93.4893C81.9584 93.4893 79.4297 98.725 79.4297 105.188Z" fill="#FFC39F"/>
<path d="M101.343 104.89C101.888 106.96 100.362 109.603 98.327 109.996C96.2924 110.388 96.6557 107.323 97.4841 105.711C98.3124 104.099 100.798 102.821 101.343 104.89Z" fill="#FFC39F"/>
<path d="M78.2801 103.852C80.3147 104.244 81.8334 106.887 81.2957 108.957C80.7507 111.026 78.2728 109.748 77.4372 108.136C76.6088 106.517 76.2455 103.46 78.2801 103.852Z" fill="#FFC39F"/>
<path d="M89.0764 105.442C89.2871 105.957 89.4325 106.459 89.5923 106.938C89.6577 107.177 89.7449 107.41 89.8321 107.591C89.8975 107.744 90.021 107.853 90.1736 108.027C90.2536 108.114 90.3553 108.216 90.4716 108.405C90.5951 108.586 90.6678 108.891 90.646 109.116C90.6169 109.356 90.5951 109.479 90.4788 109.712C90.3771 109.908 90.2463 110.053 90.1155 110.155C89.5778 110.554 89.0255 110.685 88.4297 110.62C88.7712 110.14 89.1491 109.77 89.338 109.421C89.4325 109.254 89.4107 109.196 89.4179 109.073C89.4107 109.037 89.4179 109.08 89.4034 109.044C89.3889 109.007 89.3162 108.92 89.229 108.804C89.0546 108.586 88.8802 108.252 88.8003 107.911C88.7421 107.599 88.7421 107.323 88.7494 107.047C88.7857 106.488 88.8729 105.965 89.0764 105.442Z" fill="#DC8C7A"/>
<path d="M91.9855 110.736C92.1236 111.041 92.0219 111.447 91.8257 111.745C91.6222 112.043 91.3533 112.283 91.0554 112.457C90.4595 112.82 89.7765 112.965 89.1152 112.972C88.4467 112.965 87.7637 112.827 87.1751 112.457C86.8772 112.283 86.6083 112.043 86.4048 111.745C86.2086 111.447 86.1069 111.041 86.2522 110.736C86.5574 111.31 87.0734 111.418 87.5675 111.556C88.0761 111.665 88.5993 111.709 89.1225 111.716C89.6457 111.716 90.1689 111.673 90.6775 111.564C91.1644 111.418 91.6876 111.317 91.9855 110.736Z" fill="#C35E64"/>
<path d="M91.9062 106.037C91.9062 106.64 92.4004 107.127 93.0035 107.127C93.6066 107.127 94.0935 106.633 94.0935 106.03C94.0935 105.427 93.5993 104.941 92.9962 104.941C92.3931 104.941 91.9062 105.427 91.9062 106.037Z" fill="#522C31"/>
<path d="M86.3239 106.052C86.3239 106.684 85.8371 107.192 85.234 107.192C84.6308 107.192 84.1367 106.684 84.1367 106.059C84.1367 105.427 84.6236 104.919 85.2267 104.919C85.8298 104.912 86.3239 105.42 86.3239 106.052Z" fill="#522C31"/>
<path d="M91.5557 104.171C91.6719 104.113 91.4612 104.193 91.5993 104.157C91.6501 104.142 91.701 104.128 91.7519 104.113C91.7809 104.106 91.8173 104.099 91.8463 104.099C91.9408 104.077 91.81 104.099 91.81 104.106C91.8173 104.091 91.9699 104.091 91.9989 104.091C92.3186 104.077 92.6384 104.048 92.9581 104.077C93.0453 104.084 93.1252 104.091 93.2124 104.099C93.147 104.091 93.1398 104.084 93.2052 104.099C93.256 104.106 93.2996 104.113 93.3505 104.12C93.5758 104.164 93.801 104.179 94.0335 104.2C94.0699 104.2 94.1207 104.215 94.0553 104.2C94.1207 104.208 94.1861 104.222 94.2588 104.229C94.3605 104.244 94.4695 104.244 94.5713 104.244C94.6875 104.244 94.7965 104.266 94.9128 104.244C95.0145 104.222 95.0581 104.229 95.1598 104.266C95.3415 104.331 95.4941 104.062 95.3488 103.939C95.2543 103.859 95.218 103.801 95.1598 103.692C95.109 103.598 95.0145 103.518 94.9346 103.445C94.7529 103.278 94.5713 103.155 94.346 103.053C94.1135 102.951 93.8955 102.857 93.6484 102.821C93.4086 102.784 93.1688 102.755 92.929 102.748C92.2169 102.726 91.4612 102.85 90.9162 103.351C90.7273 103.525 90.72 103.845 90.8726 104.041C91.0397 104.244 91.3159 104.295 91.5557 104.171Z" fill="#972D05"/>
<path d="M87.3113 103.343C86.7664 102.842 86.0106 102.719 85.2985 102.741C85.066 102.748 84.8335 102.777 84.6082 102.806C84.3539 102.842 84.1431 102.929 83.9106 103.031C83.6854 103.133 83.4964 103.249 83.3148 103.416C83.2348 103.489 83.1404 103.568 83.0822 103.663C83.0532 103.706 83.0459 103.765 83.0168 103.808C82.9878 103.859 82.9296 103.895 82.886 103.932C82.7407 104.055 82.8933 104.324 83.075 104.258C83.1767 104.222 83.213 104.215 83.322 104.237C83.4238 104.258 83.5255 104.244 83.6345 104.237C83.7217 104.237 83.8161 104.237 83.9033 104.229C83.9833 104.222 84.0632 104.208 84.1504 104.193C84.2521 104.178 84.0777 104.2 84.1722 104.193C84.4047 104.164 84.63 104.157 84.8553 104.113C84.9061 104.106 84.9497 104.099 85.0006 104.084C85.0151 104.084 85.1386 104.062 85.0587 104.077C84.9643 104.091 85.1241 104.07 85.1386 104.07C85.1822 104.062 85.2331 104.062 85.2767 104.055C85.5892 104.033 85.9016 104.062 86.2141 104.07C86.2795 104.07 86.3449 104.084 86.403 104.084C86.4757 104.084 86.2795 104.055 86.3812 104.084C86.403 104.091 86.4321 104.091 86.4539 104.099C86.512 104.113 86.5702 104.128 86.6283 104.142C86.6501 104.149 86.6719 104.157 86.6864 104.164C86.5774 104.142 86.6138 104.135 86.6719 104.157C86.9044 104.273 87.1878 104.237 87.3477 104.019C87.5075 103.83 87.5075 103.525 87.3113 103.343Z" fill="#972D05"/>
<path d="M96.7554 105.239L96.2031 104.636C96.254 104.585 97.5329 103.344 98.7101 102.705C98.7101 102.705 98.899 102.726 98.9644 103.213C99.0298 103.699 98.8336 103.699 98.8336 103.699C97.7509 104.28 96.7699 105.224 96.7554 105.239Z" fill="#556EC0"/>
<path d="M81.4685 105.239L82.0207 104.636C81.9698 104.585 80.6909 103.344 79.5138 102.705C79.5138 102.705 79.3248 102.726 79.2594 103.213C79.194 103.699 79.3902 103.699 79.3902 103.699C80.4729 104.28 81.4539 105.224 81.4685 105.239Z" fill="#556EC0"/>
<path d="M90.4275 105.217C89.6282 104.709 88.5963 104.709 87.797 105.217L87.3828 104.571C88.4292 103.91 89.788 103.91 90.8344 104.571L90.4275 105.217Z" fill="#556EC0"/>
<path d="M84.6724 109.088C82.8122 109.088 81.3008 107.577 81.3008 105.718C81.3008 103.859 82.8122 102.349 84.6724 102.349C86.5327 102.349 88.0441 103.859 88.0441 105.718C88.0441 107.577 86.5327 109.088 84.6724 109.088ZM84.6724 103.14C83.2482 103.14 82.0856 104.302 82.0856 105.725C82.0856 107.149 83.2409 108.311 84.6724 108.311C86.1039 108.311 87.2593 107.149 87.2593 105.725C87.2593 104.302 86.1039 103.14 84.6724 103.14Z" fill="#556EC0"/>
<path d="M93.5435 109.088C91.6833 109.088 90.1719 107.577 90.1719 105.718C90.1719 103.859 91.6833 102.349 93.5435 102.349C95.4038 102.349 96.9152 103.859 96.9152 105.718C96.9152 107.577 95.4038 109.088 93.5435 109.088ZM93.5435 103.14C92.1193 103.14 90.9639 104.302 90.9639 105.725C90.9639 107.149 92.1193 108.311 93.5435 108.311C94.9678 108.311 96.1304 107.149 96.1304 105.725C96.1304 104.302 94.975 103.14 93.5435 103.14Z" fill="#556EC0"/>
<path d="M98.9983 97.7081C98.4751 95.9508 96.4114 93.4019 95.0599 92.6031C90.1841 89.7346 89.1159 93.0678 89.1159 93.0678C89.1159 93.0678 88.0477 89.7346 83.1719 92.6031C81.813 93.4019 79.7566 95.9435 79.2334 97.7081C78.3106 100.816 79.1244 104.52 79.1244 104.52C79.1244 104.52 79.8656 104.534 80.7376 104.004C81.6023 103.474 83.5425 101.136 83.5425 101.136C83.5425 101.136 84.6106 102.407 86.8778 101.535C87.6553 101.237 88.4401 100.562 89.1231 99.7995C89.8135 100.562 90.591 101.237 91.3685 101.535C93.6356 102.399 94.7038 101.136 94.7038 101.136C94.7038 101.136 96.6367 103.467 97.5087 104.004C98.3734 104.534 99.1219 104.52 99.1219 104.52C99.1219 104.52 99.9212 100.816 98.9983 97.7081Z" fill="#972D05"/>
<path d="M94.2514 115.696C92.7763 116.582 90.9669 116.887 89.114 116.887C87.2538 116.887 85.4517 116.582 83.9766 115.696" stroke="#DC8C7A" stroke-width="0.9913" stroke-miterlimit="10"/>
</g>
<path d="M198.827 27.5804C198.827 29.2434 197.192 30.6086 195.194 30.6086H138.239C136.24 30.6086 134.605 29.2434 134.605 27.5804C134.605 25.9175 136.24 24.5522 138.239 24.5522H195.194C197.192 24.5522 198.827 25.9175 198.827 27.5804Z" fill="#E8E8E8"/>
<path d="M278.758 39.1996C278.758 40.8625 277.124 42.2278 275.125 42.2278H138.239C136.24 42.2278 134.605 40.8625 134.605 39.1996C134.605 37.5366 136.24 36.1714 138.239 36.1714H275.125C277.124 36.1714 278.758 37.5366 278.758 39.1996Z" fill="#E8E8E8"/>
<path d="M278.758 50.8182C278.758 52.4812 277.124 53.8464 275.125 53.8464H138.239C136.24 53.8464 134.605 52.4812 134.605 50.8182C134.605 49.1553 136.24 47.79 138.239 47.79H275.125C277.124 47.79 278.758 49.1553 278.758 50.8182Z" fill="#E8E8E8"/>
<path d="M278.758 62.4374C278.758 64.1003 277.124 65.4656 275.125 65.4656H138.239C136.24 65.4656 134.605 64.1003 134.605 62.4374C134.605 60.7744 136.24 59.4092 138.239 59.4092H275.125C277.124 59.4092 278.758 60.7744 278.758 62.4374Z" fill="#E8E8E8"/>
<path d="M222.24 21.2993H212.066V31.4659H222.24V21.2993Z" stroke="#E8E8E8" stroke-width="3" stroke-miterlimit="10"/>
<path d="M243.857 21.2993H233.684V31.4659H243.857V21.2993Z" stroke="#E8E8E8" stroke-width="3" stroke-miterlimit="10"/>
<path d="M236.59 23.4777L239.86 28.1979L249.306 19.1206" stroke="#FFA968" stroke-width="3" stroke-miterlimit="10"/>
<path d="M265.474 21.2993H255.301V31.4659H265.474V21.2993Z" stroke="#E8E8E8" stroke-width="3" stroke-miterlimit="10"/>
<path d="M258.207 23.4777L261.477 28.1979L270.923 19.1206" stroke="#68A2B1" stroke-width="3" stroke-miterlimit="10"/>
<path d="M198.827 96.1029C198.827 97.7659 197.192 99.1311 195.194 99.1311H138.239C136.24 99.1311 134.605 97.7659 134.605 96.1029C134.605 94.4399 136.24 93.0747 138.239 93.0747H195.194C197.192 93.0747 198.827 94.4327 198.827 96.1029Z" fill="#E8E8E8"/>
<path d="M278.758 107.722C278.758 109.385 277.124 110.75 275.125 110.75H138.239C136.24 110.75 134.605 109.385 134.605 107.722C134.605 106.059 136.24 104.694 138.239 104.694H275.125C277.124 104.694 278.758 106.052 278.758 107.722Z" fill="#E8E8E8"/>
<path d="M278.758 119.341C278.758 121.004 277.124 122.369 275.125 122.369H138.239C136.24 122.369 134.605 121.004 134.605 119.341C134.605 117.678 136.24 116.313 138.239 116.313H275.125C277.124 116.312 278.758 117.67 278.758 119.341Z" fill="#E8E8E8"/>
<path d="M278.758 130.96C278.758 132.623 277.124 133.988 275.125 133.988H138.239C136.24 133.988 134.605 132.623 134.605 130.96C134.605 129.297 136.24 127.932 138.239 127.932H275.125C277.124 127.932 278.758 129.29 278.758 130.96Z" fill="#E8E8E8"/>
<path d="M222.24 89.8218H212.066V99.9883H222.24V89.8218Z" stroke="#E8E8E8" stroke-width="3" stroke-miterlimit="10"/>
<path d="M214.973 92.0002L218.243 96.7204L227.689 87.6431" stroke="#FF728C" stroke-width="3" stroke-miterlimit="10"/>
<path d="M243.857 89.8218H233.684V99.9883H243.857V89.8218Z" stroke="#E8E8E8" stroke-width="3" stroke-miterlimit="10"/>
<path d="M265.474 89.8218H255.301V99.9883H265.474V89.8218Z" stroke="#E8E8E8" stroke-width="3" stroke-miterlimit="10"/>
<path d="M258.207 92.0002L261.477 96.7204L270.923 87.6431" stroke="#68A2B1" stroke-width="3" stroke-miterlimit="10"/>
<path d="M198.827 164.619C198.827 166.281 197.192 167.647 195.194 167.647H138.239C136.24 167.647 134.605 166.281 134.605 164.619C134.605 162.956 136.24 161.59 138.239 161.59H195.194C197.192 161.598 198.827 162.956 198.827 164.619Z" fill="#E8E8E8"/>
<path d="M278.758 176.238C278.758 177.901 277.124 179.266 275.125 179.266H138.239C136.24 179.266 134.605 177.901 134.605 176.238C134.605 174.575 136.24 173.209 138.239 173.209H275.125C277.124 173.217 278.758 174.575 278.758 176.238Z" fill="#E8E8E8"/>
<path d="M278.758 187.856C278.758 189.519 277.124 190.884 275.125 190.884H138.239C136.24 190.884 134.605 189.519 134.605 187.856C134.605 186.193 136.24 184.828 138.239 184.828H275.125C277.124 184.835 278.758 186.193 278.758 187.856Z" fill="#E8E8E8"/>
<path d="M278.758 199.475C278.758 201.138 277.124 202.504 275.125 202.504H138.239C136.24 202.504 134.605 201.138 134.605 199.475C134.605 197.813 136.24 196.447 138.239 196.447H275.125C277.124 196.455 278.758 197.813 278.758 199.475Z" fill="#E8E8E8"/>
<path d="M222.24 158.344H212.066V168.511H222.24V158.344Z" stroke="#E8E8E8" stroke-width="3" stroke-miterlimit="10"/>
<path d="M214.973 160.523L218.243 165.243L227.689 156.166" stroke="#FF728C" stroke-width="3" stroke-miterlimit="10"/>
<path d="M243.857 158.344H233.684V168.511H243.857V158.344Z" stroke="#E8E8E8" stroke-width="3" stroke-miterlimit="10"/>
<path d="M236.59 160.523L239.86 165.243L249.306 156.166" stroke="#FFA968" stroke-width="3" stroke-miterlimit="10"/>
<path d="M265.474 158.344H255.301V168.511H265.474V158.344Z" stroke="#E8E8E8" stroke-width="3" stroke-miterlimit="10"/>
<path d="M258.207 160.523L261.477 165.243L270.923 156.166" stroke="#68A2B1" stroke-width="3" stroke-miterlimit="10"/>
<path d="M135.281 159.23C135.281 168.344 127.891 175.729 118.771 175.729C109.652 175.729 102.262 168.344 102.262 159.23C102.262 150.117 109.652 142.731 118.771 142.731C127.891 142.731 135.281 150.117 135.281 159.23Z" fill="#E87888"/>
<path d="M109.129 158.853L115.698 165.003L128.501 153.058" stroke="white" stroke-width="6" stroke-miterlimit="10"/>
<path d="M299.873 283.451C291.88 283.814 271.897 278.005 260.998 285.993C250.098 293.981 267.537 301.243 279.164 300.879C290.79 300.516 294.06 297.975 302.053 299.064C310.047 300.153 321.891 302.876 330.393 300.879C342.746 297.975 343.472 288.897 336.569 285.63C329.666 282.362 307.867 283.088 299.873 283.451Z" fill="#00b14f" fill-opacity="0.29"/>
<path d="M327.781 292.071C327.752 290.357 326.866 287.453 326.764 284.846C326.59 280.597 325.776 278.288 325.776 278.288C325.776 278.288 323.538 279.29 319.737 279.385C315.944 279.472 315.065 278.353 315.065 278.353C315.065 278.353 314.447 281.091 313.575 283.64C312.573 286.552 310.887 289.21 309.978 291.352C309.397 292.732 309.913 295.963 311.454 297.379C312.391 298.244 313.873 298.89 316.17 299.093C321.401 299.543 325.093 298.737 326.793 296.595C327.701 295.448 327.81 293.494 327.781 292.071Z" fill="#23378B"/>
<path d="M310.5 294.526C310.5 294.526 310.544 296.465 315.419 296.98C322.998 297.779 327.162 294.773 327.322 293.03" stroke="#5F79C5" stroke-miterlimit="10"/>
<path d="M316.109 282.529C316.109 282.529 320.477 281.592 323.499 282.776" stroke="#5F79C5" stroke-miterlimit="10"/>
<path d="M315.98 286.443C315.98 286.443 320.348 285.506 323.371 286.69" stroke="#5F79C5" stroke-miterlimit="10"/>
<path d="M270.203 286.516C271.402 285.746 274.076 284.076 275.129 282.943C277.68 280.191 280.354 277.678 281.226 276.857L292.7 276.995C292.7 276.995 293.957 283.887 293.586 286.45C293.325 288.237 292.06 288.534 289.495 289.994C287.889 290.916 284.532 293.545 282.025 294.707C279.351 295.934 272.528 295.811 269.818 294.576C264.142 291.998 266.817 288.687 270.203 286.516Z" fill="#23378B"/>
<path d="M284.784 281.258C284.784 281.258 281.972 279.806 278.898 280.002" stroke="#5F79C5" stroke-miterlimit="10"/>
<path d="M282.671 283.959C282.671 283.959 279.859 282.507 276.785 282.703" stroke="#5F79C5" stroke-miterlimit="10"/>
<path d="M270.805 294.308C270.805 294.308 275.717 295.026 279.684 294.01C283.078 293.138 285.599 289.319 288.833 288.186C292.066 287.046 293.186 285.034 293.186 285.034" stroke="#5F79C5" stroke-miterlimit="10"/>
<path d="M300.619 172.512C296.528 172.774 276.153 171.997 276.153 171.997C276.153 171.997 273.617 195.06 274.911 203.999C275.935 211.051 275.921 224.529 276.139 227.114C276.357 229.699 277.686 238.965 277.912 240.991C279.198 252.385 278.718 276.422 278.718 276.422C278.718 276.422 280.084 278.281 285.331 278.963C290.766 279.668 295.017 278.84 295.017 278.84L296.463 266.161C296.463 266.161 298.657 245.334 298.752 240.192C298.846 235.051 295.7 225.015 295.7 225.015L299.428 202.438C299.428 202.438 303.025 192.359 302.741 184.298C302.465 176.237 300.619 172.512 300.619 172.512Z" fill="#4A68CA"/>
<path d="M302.748 184.305C302.464 176.245 300.619 172.519 300.619 172.519C298.671 172.643 293.018 172.534 287.641 172.381C288.425 177.77 290.162 188.677 292.415 196.592C294.239 203.004 296.135 210.114 297.378 214.885L299.427 202.453C299.434 202.445 303.031 192.366 302.748 184.305Z" fill="#3955BC"/>
<path d="M316.66 172.708C312.67 173.674 292.477 176.419 292.477 176.419C292.477 176.419 295.376 199.54 296.604 206.476C297.839 213.411 300.535 228.072 301.204 230.585C301.865 233.097 304.779 241.993 305.353 243.947C308.586 254.948 313.055 278.832 313.055 278.832C313.055 278.832 314.727 280.43 320.002 280.19C325.474 279.951 328.322 278.535 328.322 278.535C328.322 278.535 326.782 246.074 325.99 240.998C325.198 235.922 321.746 224.892 321.746 224.892L320.671 202.387C320.671 202.387 322.465 191.836 320.794 183.942C319.123 176.056 316.66 172.708 316.66 172.708Z" fill="#4A68CA"/>
<path d="M246.2 86.6118C246.2 86.6118 252.094 93.5541 254.274 97.0035C256.454 100.453 260.632 106.989 260.632 106.989C260.632 106.989 267.535 107.896 270.078 108.078C272.621 108.259 279.176 107.337 282.431 107.715C285.679 108.092 287.699 111.346 287.699 111.346L276.618 131.497C276.618 131.497 266.263 128.411 262.267 126.595C258.27 124.78 251.912 121.483 249.732 119.334C247.552 117.184 245.176 113.357 243.01 108.622C239.864 101.738 236.834 93.5541 237.016 92.8279C237.197 92.1018 239.588 89.3277 241.47 88.4418C243.352 87.5559 246.2 86.6118 246.2 86.6118Z" fill="#AACCFF"/>
<path d="M244.589 85.7041C244.589 85.7041 246.188 86.118 246.37 87.8463C246.551 89.5747 245.156 92.0727 242.845 93.0749C239.873 94.3602 238.137 92.6028 238.137 92.6028L236.785 89.0591L244.589 85.7041Z" fill="#4A68CA"/>
<path d="M245.09 84.1936C244.589 81.8553 243.819 80.5191 242.881 78.631C241.944 76.743 241.181 75.661 239.917 73.7148C238.652 71.7686 236.952 68.8421 234.656 67.4115C233.726 66.8306 232.788 68.4717 233.384 69.4085C234.183 70.6576 234.409 71.3256 235.361 72.4512C236.182 73.4243 236.385 74.9783 236.807 76.1548C236.298 76.1039 235.201 76.0821 234.445 76.2927C233.66 76.5178 233.13 77.7741 233.13 77.7741C233.13 77.7741 232.309 77.6725 231.851 78.0646C231.4 78.4568 231.001 80.0544 231.001 80.0544C231.001 80.0544 230.361 80.1996 229.758 80.8822C229.155 81.5648 229.489 83.5909 229.976 84.5277C230.463 85.4644 231.313 87.8173 233.093 87.7664C233.689 87.7519 234.242 87.5849 234.772 87.3452C236.516 90.8745 239.074 92.5592 242.467 91.2521C245.868 89.945 245.715 87.0838 245.09 84.1936Z" fill="#FFC39F"/>
<path d="M241.393 80.7295C241.393 80.7295 239.976 79.4224 238.392 79.1827C236.328 78.8777 235.049 79.1682 235.442 80.3301C235.834 81.492 237.614 82.269 238.239 83.823C238.871 85.3989 240.623 85.8346 240.623 85.8346" stroke="#DC8C7A" stroke-miterlimit="10"/>
<path d="M233.145 77.9849C233.145 77.9849 232.665 82.538 235.23 83.9977C236.887 84.9417 237.657 83.0972 237.657 83.0972" stroke="#DC8C7A" stroke-miterlimit="10"/>
<path d="M230.973 80.1924C230.973 80.1924 231.198 84.7673 233.959 85.813C235.739 86.4884 236.219 84.5495 236.219 84.5495" stroke="#DC8C7A" stroke-miterlimit="10"/>
<path d="M234.823 86.1836C234.823 86.1836 234.947 87.8611 233.094 87.7739" stroke="#DC8C7A" stroke-miterlimit="10"/>
<path d="M319.073 123.778C318.658 117.322 320.301 111.556 318.462 109.167C315.788 105.689 303.675 103.714 293.327 104.905C289.854 105.297 283.67 107.04 281.723 107.57C278.947 108.325 275.713 109.291 273.679 110.562C269.21 113.365 270.372 120.046 270.089 122.565C269.682 126.225 272.065 137.801 273.65 143.981C274.907 148.897 274.972 176.39 274.972 176.39C274.972 176.39 278.111 181.59 296.51 180.043C312.293 178.721 317.728 173.565 317.728 173.565C317.728 173.565 316.289 157.212 316.289 149.485C316.297 141.78 319.465 129.907 319.073 123.778Z" fill="#AACCFF"/>
<path d="M292.714 102.363C295.563 101.738 301.616 100.809 304.449 103.409C307.283 106.001 306.862 110.046 304.718 112.762C302.575 115.478 296.725 120.191 296.725 120.191L291.515 114.505L286.429 119.225C286.429 119.225 282.73 112.66 284.038 108.383C285.339 104.098 289.866 102.987 292.714 102.363Z" fill="#4A68CA"/>
<path d="M272.582 138.142C272.582 138.142 269.072 122.195 270.351 117.097" stroke="#85B1E6" stroke-miterlimit="10"/>
<path d="M287.622 99.1527L301.341 93.4014L304.291 106.553L291.393 113.887L286.59 108.484L287.622 99.1527Z" fill="#FFC39F"/>
<path d="M286.219 75.4066C286.219 75.4066 281.445 77.5706 280.966 83.7722C280.479 89.9811 283.073 90.6129 285.333 89.3057C287.586 88.0059 294.794 80.9183 294.794 80.9183L292.745 73.6274L286.219 75.4066Z" fill="#50172A"/>
<path d="M284.104 79.3136C281.212 83.0462 281.764 86.0308 281.88 90.4242C281.996 94.6869 282.723 98.6664 285.659 100.903C289.554 103.873 294.444 104.164 298.826 100.366C300.78 98.6664 303.483 95.1734 304.973 91.2593C306.804 86.4592 303.919 76.4379 298.927 74.194C293.943 71.9574 286.996 75.581 284.104 79.3136Z" fill="#FFC39F"/>
<path d="M308.054 80.5623C307.262 77.1856 304.014 76.3359 304.014 76.3359L299.225 78.6888C299.225 78.6888 297.91 81.4628 300.758 83.6777C301.717 84.4256 301.558 87.6426 300.969 90.2787C300.388 92.9074 301.688 93.1326 302.517 91.6003C303.345 90.0608 305.547 90.3585 306.695 89.9591C307.858 89.5525 308.512 82.5085 308.054 80.5623Z" fill="#50172A"/>
<path d="M287.629 102.246C287.629 102.246 290.921 104.011 294.343 103.052C297.766 102.094 300.694 98.0562 300.694 98.0562" stroke="#DC8C7A" stroke-miterlimit="10"/>
<path d="M306.157 78.05C306.157 78.05 306.288 74.0705 300.599 71.4054C294.909 68.7403 285.826 71.2819 284.009 73.2209C282.483 74.8475 284.496 76.0021 284.496 76.0021C284.496 76.0021 281.589 76.968 280.986 78.6672C280.383 80.3592 282.44 82.4216 286.56 82.1747C290.68 81.9351 292.976 81.572 292.976 81.572C292.976 81.572 292.126 83.264 294.429 83.5109C296.733 83.7578 302.117 80.352 302.633 80.0978C303.658 79.5967 306.157 78.05 306.157 78.05Z" fill="#50172A"/>
<path d="M303.434 89.4729C304.807 87.3161 309.153 87.4396 308.644 90.3879C308.143 93.3434 304.371 96.9598 302.046 95.4421C300.789 94.6142 302.061 91.6296 303.434 89.4729Z" fill="#FFC39F"/>
<path d="M286.618 89.5379C286.248 90.0898 285.499 90.2351 284.947 89.872C284.395 89.5016 284.242 88.7609 284.613 88.209C284.983 87.6571 285.725 87.5046 286.284 87.875C286.836 88.2381 286.982 88.986 286.618 89.5379Z" fill="#412500"/>
<path d="M295.578 89.5234C295.28 90.1189 294.56 90.3658 293.964 90.0681C293.369 89.7703 293.122 89.0514 293.419 88.4559C293.717 87.8605 294.437 87.6208 295.033 87.9113C295.628 88.209 295.876 88.928 295.578 89.5234Z" fill="#412500"/>
<path d="M289.088 86.0742C289.212 86.9529 289.241 87.8243 289.212 88.6957C289.197 89.1387 289.161 89.5744 289.088 90.0319C289.052 90.257 289.001 90.5039 288.878 90.7944C288.754 91.0849 288.558 91.3245 288.369 91.5061C287.526 92.2395 287.323 92.3557 287.49 92.6607C287.628 92.9221 287.904 93.2416 288.187 93.5394C288.471 93.8444 288.783 94.1421 289.096 94.4907C288.631 94.4762 288.187 94.36 287.759 94.193C287.33 94.0187 286.908 93.8153 286.516 93.4014C286.334 93.1908 286.109 92.9076 286.087 92.4356C286.073 92.0798 286.175 91.7312 286.356 91.4407C286.749 90.8816 287.177 90.6637 287.432 90.4531C287.7 90.2425 287.795 90.1554 287.933 89.7269C288.064 89.3493 288.18 88.9426 288.304 88.536C288.529 87.7299 288.776 86.9021 289.088 86.0742Z" fill="#DC8C7A"/>
<path d="M287.41 86.3211C287.221 86.1759 287.039 86.0306 286.821 85.929C286.473 85.7692 286.109 85.5949 285.731 85.5078C285.31 85.4061 284.888 85.4932 284.482 85.6094C284.104 85.7111 283.733 85.8418 283.37 85.9798C283.079 86.096 282.883 86.3647 282.97 86.6842C283.043 86.9601 283.384 87.1998 283.675 87.0836C284.016 86.9456 284.358 86.8222 284.707 86.7205C284.896 86.6697 285.085 86.6188 285.281 86.5898C285.346 86.5825 285.404 86.5753 285.303 86.5825C285.332 86.5825 285.361 86.5753 285.39 86.5753C285.404 86.5753 285.455 86.5898 285.47 86.5825C285.368 86.568 285.353 86.568 285.412 86.5753C285.426 86.5753 285.448 86.5825 285.462 86.5825C285.789 86.6479 286.102 86.7713 286.407 86.8875C286.596 86.9601 286.785 86.9964 286.974 87.0473C287.163 87.0908 287.366 87.0182 287.468 86.8439C287.57 86.6987 287.563 86.4445 287.41 86.3211Z" fill="#50172A"/>
<path d="M292.518 87.2722C292.743 87.1487 292.867 87.1124 293.143 87.0253C293.702 86.851 294.233 86.684 294.829 86.6912C295.366 86.6985 295.846 86.8655 296.318 87.0906C296.413 87.1342 296.514 87.1778 296.609 87.2286C296.682 87.2649 296.747 87.3085 296.827 87.3303C296.972 87.3593 297.009 87.3593 296.943 87.3448C296.907 87.3303 296.914 87.3375 296.965 87.352C297.168 87.3956 297.328 87.4465 297.532 87.352C297.474 87.3593 297.423 87.3666 297.365 87.3738C297.43 87.3956 297.394 87.4101 297.321 87.3375C297.51 87.5118 297.793 87.2286 297.604 87.0543C297.721 87.1632 297.648 87.1124 297.612 87.0471C297.619 87.1051 297.626 87.156 297.634 87.2141C297.67 87.0761 297.648 86.9526 297.583 86.8292C297.568 86.8001 297.43 86.5678 297.408 86.575C297.488 86.7203 297.488 86.713 297.416 86.5532C297.386 86.5169 297.357 86.4806 297.336 86.4443C297.277 86.3862 297.19 86.3354 297.125 86.2846C297.016 86.2119 296.914 86.1393 296.798 86.0885C296.187 85.798 295.512 85.631 294.836 85.6528C293.84 85.6818 292.816 85.9941 292.067 86.6694C291.726 86.9744 292.147 87.4755 292.518 87.2722Z" fill="#50172A"/>
<path d="M289.743 96.3641C289.743 96.3641 290.585 95.9793 292.09 95.3548C293.594 94.7302 293.906 95.5145 293.884 96.7127C293.863 97.9109 291.654 99.1382 290.077 99.0583C287.773 98.9494 286.654 98.0126 286.938 96.5675C287.214 95.1151 289.743 96.3641 289.743 96.3641Z" fill="white"/>
<path d="M339.111 148.199C339.656 146.021 337.113 137.125 335.296 132.949C333.48 128.774 330.406 121.563 326.032 115.063C321.308 108.041 313.679 104.991 309.638 108.324C307.974 109.697 310.568 119.435 313.562 126.138C315.43 130.313 318.126 133.429 319.194 134.569C320.073 136.203 324.397 146.209 324.397 146.209C324.397 146.209 321.672 151.474 320.582 155.287C319.492 159.099 317.13 167.45 317.13 167.45L322.398 175.257C322.398 175.257 328.575 169.629 332.935 163.275C337.295 156.921 338.566 150.378 339.111 148.199Z" fill="#AACCFF"/>
<path d="M312.59 125.688C312.59 125.688 314.406 129.318 315.315 130.589C316.223 131.86 317.858 133.494 317.858 133.494" stroke="#85B1E6" stroke-miterlimit="10"/>
<path d="M318.004 176.593C318.004 176.593 316.805 176.411 316.427 175.758C315.788 174.64 316.783 173.863 317.234 173.289C315.599 173.049 315.046 170.965 316.231 169.716C315.17 168.975 315.017 167.211 316.245 166.223C316.245 166.223 318.563 165.359 319.414 165.185C320.264 165.003 321.615 165.642 321.681 166.572C321.746 167.501 321.07 167.857 321.07 167.857C321.07 167.857 322.48 168.394 322.567 169.745C322.618 170.638 321.557 171.11 321.557 171.11C321.557 171.11 322.545 170.762 323.119 171.757C323.933 173.165 322.654 173.848 322.516 174.066C323.163 174.247 323.643 174.749 323.606 175.831C323.577 176.615 322.989 177.254 322.306 177.719C321.623 178.191 321.71 178.053 320.729 178.488C319.74 178.924 318.367 180.159 317.539 179.258C316.718 178.365 318.004 176.593 318.004 176.593Z" fill="#FFC39F"/>
<path d="M321.721 170.798C320.522 172.135 317.121 173.507 317.121 173.507" stroke="#DC8C7A" stroke-miterlimit="10"/>
<path d="M318.16 176.833C318.16 176.833 321.713 175.954 322.985 173.638" stroke="#DC8C7A" stroke-miterlimit="10"/>
<path d="M316.105 169.767C316.105 169.767 319.768 168.99 321.272 167.937" stroke="#DC8C7A" stroke-miterlimit="10"/>
<path d="M277.456 43.5127H251.551C248.601 43.5127 246.203 45.9091 246.203 48.8574V62.4443C246.203 65.3999 248.601 67.789 251.551 67.789H266.709C266.746 69.0816 267.102 71.2021 268.86 72.5818C271.534 74.6805 274.79 74.8766 274.79 74.8766C274.79 74.8766 272.871 71.4708 272.799 67.7963H277.464C280.421 67.7963 282.812 65.3999 282.812 62.4516V48.8574C282.805 45.9018 280.414 43.5127 277.456 43.5127Z" fill="#488EAC"/>
<path d="M258.107 55.3203C258.107 56.2643 257.344 57.0268 256.399 57.0268C255.454 57.0268 254.691 56.2643 254.691 55.3203C254.691 54.3763 255.454 53.6138 256.399 53.6138C257.344 53.6138 258.107 54.3763 258.107 55.3203Z" fill="white"/>
<path d="M266.208 55.3203C266.208 56.2643 265.445 57.0268 264.501 57.0268C263.556 57.0268 262.793 56.2643 262.793 55.3203C262.793 54.3763 263.556 53.6138 264.501 53.6138C265.445 53.6138 266.208 54.3763 266.208 55.3203Z" fill="white"/>
<path d="M274.31 55.3203C274.31 56.2643 273.547 57.0268 272.602 57.0268C271.657 57.0268 270.895 56.2643 270.895 55.3203C270.895 54.3763 271.657 53.6138 272.602 53.6138C273.547 53.6138 274.31 54.3763 274.31 55.3203Z" fill="white"/>
<path d="M37.3864 278.201C50.4152 277.744 66.3943 278.949 70.4345 287.947C74.4746 296.944 50.3208 299.943 41.056 298.818C31.7912 297.692 23.4274 303.69 15.3543 302.942C7.27397 302.194 -1.90364 295.071 1.76595 288.695C5.43554 282.319 12.4114 279.697 16.4516 278.572C20.499 277.453 26.7409 278.572 37.3864 278.201Z" fill="#00b14f" fill-opacity="0.29"/>
<path d="M58.9108 138.033C58.9108 138.033 63.4596 155.077 65.3344 160.995C67.2092 166.906 65.1455 170.878 59.2596 170.973C53.3665 171.06 49.7695 138.556 49.7695 138.556L58.9108 138.033Z" fill="#FFC39F"/>
<path d="M60.821 142.913C59.9127 139.638 58.7427 132.202 55.6617 127.961C52.5807 123.727 45.3142 121.2 43.8101 122.369C42.3059 123.546 44.4059 133.364 48.9475 144.54C52.0067 142.434 54.7098 142.281 60.821 142.913Z" fill="#AACCFF"/>
<path d="M26.2548 272.718C26.2548 272.718 27.2357 272.907 27.8025 273.938C28.0569 274.396 28.2095 277.279 28.2095 278.128C28.2022 280.997 27.679 280.234 27.3738 281.069C27.1267 281.737 27.0468 282.747 26.9814 283.204C26.8361 284.221 27.2067 287.932 26.6036 290.263C26.0004 292.601 23.072 296.05 19.773 296.457C17.019 296.798 13.1968 296 12.928 292.296C12.6591 288.592 14.9481 284.141 16.3142 281.338C17.673 278.535 19.2062 273.982 21.6187 273.052C24.0094 272.123 26.2548 272.718 26.2548 272.718Z" fill="#23378B"/>
<path d="M16.1179 246.22C17.2515 254.062 19.1844 263.735 19.1771 266.458C19.1698 269.182 18.5013 273.19 17.9999 275.594C17.4913 277.99 16.721 279.007 15.7618 282.296C14.8753 285.339 15.4494 286.131 16.5684 287.293C17.6875 288.454 20.3615 288.462 21.873 287.982C23.3844 287.496 25.5934 285.68 25.8623 283.974C26.1311 282.267 26.7343 278.76 27.2356 276.356C27.7443 273.953 26.945 269.305 27.2792 266.095C27.6062 262.878 30.9052 249.909 31.879 244.6C33.1143 237.861 30.7163 227.339 30.7163 227.339L16.4739 227.651C16.4885 227.651 14.9916 238.377 16.1179 246.22Z" fill="#FFC39F"/>
<path d="M32.3652 197.362C32.3652 197.362 34.6686 206.49 34.4288 212.496C34.1382 219.917 32.2852 229.474 29.8727 232.698C27.4675 235.923 19.5107 234.739 17.6287 233.504C15.7466 232.27 15.2235 224.659 14.0245 216.076C12.8255 207.492 14.7075 197.014 14.7075 197.014L32.3652 197.362Z" fill="#FFC39F"/>
<path d="M32.3652 197.362L14.7075 197.006C14.7075 197.006 12.8255 207.485 14.0245 216.069C14.4677 219.228 14.8165 222.241 15.1726 224.87C19.4889 226.105 25.4402 227.404 32.0454 227.717C33.3389 223.374 34.2399 217.463 34.4288 212.489C34.6686 206.49 32.3652 197.362 32.3652 197.362Z" fill="#F0AF8E"/>
<path d="M39.9684 271.782C41.2255 270.692 45.2221 271.215 46.6608 274.265C48.1069 277.323 49.364 281.999 49.364 281.999C49.364 281.999 51.9436 285.34 54.2544 286.298C56.5651 287.264 63.243 294.439 56.3907 295.55C49.5311 296.661 44.5899 292.522 43.0567 288.666C41.5307 284.824 41.0656 283.386 39.3943 281.563C37.7158 279.741 37.4178 273.997 39.9684 271.782Z" fill="#23378B"/>
<path d="M38.2695 278.375C38.2695 278.375 38.8218 282.224 39.483 284.555C40.1516 286.886 39.6865 289.029 40.217 289.653C40.7474 290.27 42.0772 290.314 42.1063 289.733C42.1353 289.152 41.4813 283.815 41.0453 281.571L38.2695 278.375Z" fill="#23378B"/>
<path d="M37.4599 230.963C37.4599 230.963 36.2828 235.843 36.2464 242.625C36.2028 249.408 40.3084 262.777 41.006 266.43C41.6019 269.509 39.6108 272.391 39.589 274.861C39.5672 277.337 42.2994 279.762 43.3313 282.391C44.3704 285.027 45.533 287.293 48.0327 288.23C50.5324 289.159 53.7515 289.37 55.3574 288.433C56.956 287.496 54.093 285.376 52.6978 283.313C50.9611 280.735 49.5369 277.083 49.1154 275.158C47.8075 269.087 50.4452 254.469 51.0411 247.636C51.6369 240.81 54.3909 230.912 51.9276 227.847C49.4642 224.776 38.2665 230.629 37.4599 230.963Z" fill="#FFC39F"/>
<path d="M33.1719 204.297C33.1719 204.297 33.6733 213.426 34.458 218.603C35.2428 223.781 37.9242 236.62 37.9242 236.62C37.9242 236.62 50.3862 240.505 52.0067 236.133C53.6271 231.762 55.0295 211.472 54.3392 205.329C53.6489 199.185 51.3454 196.542 51.3454 196.542L34.9812 195.837L33.1719 204.297Z" fill="#FFC39F"/>
<path d="M54.332 205.329C53.6416 199.185 51.3382 196.542 51.3382 196.542L34.974 195.837L33.1719 204.297C33.1719 204.297 33.6733 213.426 34.458 218.603C34.7923 220.804 35.4681 224.384 36.1293 227.775C41.9062 227.659 47.9956 226.671 53.816 224.173C54.4409 217.013 54.7316 208.851 54.332 205.329Z" fill="#F0AF8E"/>
<path d="M16.64 172.164C16.64 172.164 13.1157 179.411 11.6697 187.609C10.2237 195.808 10.4417 201.32 10.6379 208.807C10.7977 214.892 11.8514 221.479 11.8514 221.479C11.8514 221.479 24.9093 224.442 35.5838 224.383C46.2583 224.325 55.8283 222.002 55.8283 222.002C55.8283 222.002 56.6567 213.65 56.6058 208.509C56.5404 202.039 56.5331 194.886 55.9446 189.352C55.2397 182.751 51.9552 172.44 51.9552 172.44L16.64 172.164Z" fill="#4A68CA"/>
<path d="M52.9933 175.497C52.9933 175.497 51.1985 159.942 51.6853 156.863C52.1722 153.792 52.8989 149.079 54.3304 145.506C55.7546 141.933 55.6601 138.839 53.4438 135.71C51.2276 132.58 51.3293 126.719 49.2801 124.163C47.231 121.6 39.7828 120.953 35.0668 120.271C30.3509 119.588 16.5227 122.181 14.8369 126.298C12.2791 132.536 15.2947 143.799 18.5864 154.126C20.5411 160.255 16.3919 173.333 16.3919 173.333C16.3919 173.333 23.6729 178.983 37.4793 179.012C43.7939 179.026 52.9933 175.497 52.9933 175.497Z" fill="#AACCFF"/>
<path d="M50.957 127.46C50.957 127.46 51.284 131.788 52.3377 133.48C53.384 135.172 55.3024 138.897 55.2879 141.054C55.2806 142.666 54.2778 145.317 53.464 148.105" stroke="#85B1E6" stroke-miterlimit="10"/>
<path d="M27.1191 120.757C29.1174 118.68 33.0703 119.036 35.2212 119.385C37.3721 119.733 41.3905 120.445 42.5531 123.611C43.7158 126.77 41.7902 133.829 41.7902 133.829L36.9216 128.012L33.0485 134.38C33.0485 134.38 29.8004 131.258 28.1727 129.007C26.545 126.763 25.1208 122.834 27.1191 120.757Z" fill="#4A68CA"/>
<path d="M18.6677 100.526C18.2462 101.419 17.8611 106.604 18.8711 112.079C20.7314 122.173 31.4204 121.142 36.6741 121.512C41.9278 121.89 42.2984 126.138 45.9244 124.511C49.5503 122.885 47.0579 118.237 46.9271 115.391C46.7963 112.493 47.2396 109.436 47.523 106.916C47.8064 104.396 48.1697 98.4923 46.0261 97.0762C42.4292 94.7016 19.0891 99.6324 18.6677 100.526Z" fill="#50172A"/>
<path d="M34.1159 87.8105C34.1159 87.8105 47.2028 88.7619 47.7188 98.6162C47.915 102.458 47.1302 105.958 45.735 109.523C44.3398 113.082 42.4505 115.435 34.748 114.578C27.0455 113.721 25.8466 102.893 27.1909 96.5102C28.5352 90.1271 34.1159 87.8105 34.1159 87.8105Z" fill="#50172A"/>
<path d="M39.8554 115.18L40.1678 122.769C40.1678 122.769 39.0415 127.017 36.9197 127.395C34.7979 127.772 27.793 122.275 27.793 122.275L29.457 113.314L39.8554 115.18Z" fill="#FFC39F"/>
<path d="M26.1944 94.1207C29.2609 90.0541 33.3229 88.9067 38.0679 90.5188C41.287 91.6154 44.3898 96.3864 45.1019 100.097C45.6905 103.104 47.0275 114.345 38.642 116.981C33.6208 118.557 32.4218 117.388 29.2754 115.594C21.5729 111.222 21.2605 100.671 26.1944 94.1207Z" fill="#FFC39F"/>
<path d="M28.4561 102.581C27.4388 104.2 27.3879 105.021 24.99 107.57C24.5976 107.991 26.3561 112.079 24.7138 112.806C23.0789 113.532 20.957 110.961 19.4601 107.824C17.9632 104.687 18.1667 99.0516 19.2131 96.2195C20.5283 92.6758 24.6194 87.3528 31.6097 86.7864C38.4693 86.2272 43.6431 89.5604 43.069 94.0265C42.6839 97.0256 37.9679 99.2622 35.6717 100.214C33.3828 101.165 29.4734 100.962 28.4561 102.581Z" fill="#50172A"/>
<path d="M34.3613 105.631C34.4776 106.35 33.9907 107.025 33.2713 107.134C32.5519 107.25 31.8834 106.764 31.7672 106.045C31.6509 105.326 32.1377 104.658 32.8571 104.542C33.5693 104.425 34.245 104.912 34.3613 105.631Z" fill="#522C31"/>
<path d="M42.8847 105.072C43.001 105.791 42.5069 106.459 41.7948 106.575C41.0754 106.691 40.3996 106.205 40.2906 105.486C40.1743 104.767 40.6612 104.091 41.3806 103.982C42.0927 103.866 42.7685 104.353 42.8847 105.072Z" fill="#522C31"/>
<path d="M38.186 103.496C38.375 104.048 38.4622 104.571 38.5784 105.057C38.6293 105.297 38.6802 105.529 38.7456 105.725C38.7819 105.914 38.9345 106.074 38.8328 105.943L39.0508 106.19C39.0798 106.248 39.2251 106.408 39.3559 106.568C39.5013 106.728 39.6539 106.909 39.8065 107.105C39.9591 107.316 40.1117 107.534 40.2279 107.853C40.2861 108.013 40.3224 108.202 40.3151 108.412C40.3079 108.63 40.2207 108.855 40.1044 109.008C39.9736 109.182 39.8719 109.24 39.7701 109.327C39.6684 109.407 39.5594 109.487 39.4504 109.552C39.2397 109.69 39.0144 109.792 38.7819 109.879C38.3314 110.054 37.859 110.141 37.3867 110.141C37.7864 109.901 38.1497 109.64 38.4767 109.356C38.6366 109.211 38.7892 109.066 38.92 108.921C38.9926 108.848 39.0435 108.768 39.1016 108.688C39.1525 108.608 39.2179 108.514 39.1961 108.492C39.167 108.434 39.1452 108.47 39.0725 108.362C38.9999 108.267 38.8764 108.136 38.7383 107.998C38.6002 107.853 38.4404 107.708 38.2805 107.541C38.1134 107.359 37.9462 107.192 37.7573 106.851L37.9753 107.098C37.6992 106.88 37.5974 106.64 37.532 106.452C37.4667 106.256 37.4449 106.089 37.4303 105.929C37.4158 105.609 37.4449 105.319 37.503 105.036C37.5611 104.76 37.6483 104.491 37.7573 104.23C37.8736 103.983 38.0044 103.728 38.186 103.496Z" fill="#DC816B"/>
<path d="M31.0343 102.414C31.0271 102.421 31.0125 102.421 31.0053 102.429C31.1143 102.414 31.2233 102.4 31.3323 102.385C31.1433 102.334 30.9689 102.378 30.8236 102.508C30.6783 102.639 30.6492 102.879 30.7219 103.053C30.8018 103.235 30.9762 103.351 31.1724 103.358C31.3323 103.365 31.4994 103.329 31.6447 103.256C31.6593 103.249 31.6811 103.242 31.6956 103.227C31.7683 103.184 31.6011 103.249 31.6447 103.249C31.6811 103.249 31.7319 103.22 31.7755 103.213C31.8264 103.198 31.87 103.191 31.9209 103.184C31.9354 103.184 32.0299 103.169 31.9427 103.177C31.8555 103.191 31.9499 103.177 31.9645 103.177C32.0807 103.162 32.197 103.155 32.3132 103.155C32.415 103.147 32.5167 103.147 32.6184 103.133C32.6693 103.126 32.7202 103.126 32.771 103.118C32.8219 103.111 32.88 103.104 32.9309 103.097C32.9091 103.097 32.8873 103.104 32.8728 103.104C32.8946 103.089 32.9454 103.097 32.9672 103.097C33.0908 103.089 33.2143 103.097 33.3378 103.097C33.4178 103.097 33.2216 103.075 33.3015 103.089C33.3306 103.097 33.3524 103.097 33.3814 103.104C33.4832 103.118 33.5704 103.126 33.6648 103.126C33.8901 103.111 34.079 102.995 34.1735 102.784C34.2534 102.603 34.2316 102.312 34.0572 102.182C33.8973 102.058 33.7593 101.971 33.5558 101.942C33.396 101.92 33.2361 101.898 33.0762 101.906C32.9018 101.913 32.7202 101.935 32.5458 101.964C32.4949 101.971 32.4368 101.971 32.3859 101.986C32.415 101.978 32.5094 101.971 32.4295 101.978C32.3932 101.986 32.3641 101.986 32.3278 101.993C32.0589 102.029 31.7828 102.051 31.5212 102.131C31.4485 102.153 31.3831 102.182 31.3177 102.211C31.0925 102.305 31.4849 102.138 31.2669 102.233C31.2378 102.247 31.2015 102.262 31.1724 102.276C31.107 102.312 31.0416 102.363 30.9835 102.414C30.9181 102.472 31.0634 102.37 31.0053 102.4C30.9762 102.414 30.9471 102.429 30.9181 102.443C31.1579 102.632 31.4049 102.813 31.6447 103.002C31.6956 102.879 31.652 102.697 31.5793 102.588C31.5939 102.697 31.6084 102.806 31.6229 102.915C31.6229 102.901 31.6229 102.893 31.6302 102.879C31.652 102.712 31.6302 102.559 31.4849 102.458C31.3468 102.341 31.1797 102.334 31.0343 102.414Z" fill="#50172A"/>
<path d="M40.1249 101.492C40.1103 101.499 40.1031 101.499 40.0885 101.506C40.1975 101.492 40.3065 101.477 40.4155 101.463C40.2193 101.412 40.0522 101.455 39.8996 101.586C39.747 101.717 39.7252 101.956 39.7979 102.131C39.8778 102.312 40.0522 102.428 40.2484 102.436C40.4083 102.443 40.5754 102.407 40.7207 102.334C40.7352 102.327 40.757 102.319 40.7716 102.305C40.8442 102.261 40.6844 102.327 40.7207 102.327C40.757 102.327 40.8079 102.298 40.8515 102.29C40.9024 102.276 40.946 102.269 40.9968 102.261C41.0114 102.261 41.1058 102.247 41.0186 102.254C40.9314 102.269 41.0259 102.254 41.0404 102.254C41.1567 102.24 41.273 102.232 41.3892 102.225C41.491 102.218 41.5927 102.218 41.6944 102.203C41.7453 102.196 41.7962 102.196 41.847 102.189C41.8979 102.181 41.956 102.174 42.0069 102.167C41.9851 102.167 41.9633 102.174 41.9488 102.174C41.9706 102.16 42.0214 102.167 42.0432 102.167C42.1668 102.16 42.2903 102.167 42.4138 102.167C42.4937 102.167 42.2975 102.145 42.3775 102.16C42.4065 102.167 42.4283 102.167 42.4574 102.174C42.5591 102.189 42.6463 102.196 42.7408 102.196C42.9661 102.181 43.155 102.065 43.2495 101.855C43.3294 101.673 43.3076 101.383 43.1332 101.252C42.9733 101.129 42.8353 101.041 42.6318 101.012C42.4719 100.991 42.3121 100.969 42.1522 100.976C41.9778 100.983 41.7962 101.005 41.6218 101.034C41.5709 101.041 41.52 101.049 41.4619 101.063C41.3674 101.078 41.5055 101.056 41.5055 101.056C41.5055 101.056 41.411 101.07 41.4038 101.07C41.1349 101.107 40.8588 101.129 40.5972 101.208C40.5245 101.23 40.4591 101.259 40.3937 101.288C40.1685 101.383 40.5609 101.216 40.3429 101.31C40.3138 101.325 40.2775 101.339 40.2484 101.354C40.183 101.39 40.1176 101.441 40.0595 101.492C39.9941 101.55 40.1394 101.448 40.0813 101.477C40.0522 101.492 40.0231 101.506 39.9941 101.521C40.2193 101.746 40.4446 101.971 40.6698 102.196C40.7498 102.014 40.7643 101.84 40.6553 101.666C40.6698 101.775 40.6844 101.884 40.6989 101.993C40.6989 101.978 40.7062 101.971 40.7062 101.956C40.728 101.789 40.7062 101.637 40.5609 101.535C40.4301 101.419 40.2702 101.419 40.1249 101.492Z" fill="#50172A"/>
<path d="M34.107 110.489C34.325 111.092 34.7102 111.477 35.1389 111.709C35.5749 111.934 36.0835 112.043 36.6213 112.094C37.159 112.152 37.6749 112.145 38.169 112.043C38.6486 111.913 39.1355 111.666 39.5497 111.172C39.586 111.833 39.1209 112.486 38.5033 112.828C37.8784 113.176 37.159 113.256 36.505 113.183C35.851 113.111 35.1534 112.893 34.623 112.385C34.0852 111.891 33.8527 111.099 34.107 110.489Z" fill="#DC7769"/>
<path d="M39.1895 117.076C35.4981 118.267 33.231 117.504 30.8984 116.284" stroke="#DC8C7A" stroke-width="0.9913" stroke-miterlimit="10"/>
<path d="M23.2389 143.494C23.2389 143.494 23.7912 151.627 24.4161 157.255C25.041 162.876 25.8331 168.308 22.476 169.847C19.1188 171.394 14.3084 166.093 12.9786 163.087C11.6416 160.08 10.7188 147.219 10.7188 147.219L23.2389 143.494Z" fill="#FFC39F"/>
<path d="M9.42622 135.681C8.38711 141.628 10.1747 149.086 10.1747 149.086C10.1747 149.086 12.6162 147.546 16.0751 147.082C19.5339 146.617 24.0174 147.22 24.0174 147.22C24.0174 147.22 25.3326 141.563 24.3734 135.267C23.4143 128.971 21.4087 124.04 17.681 123.924C13.9533 123.822 10.4653 129.733 9.42622 135.681Z" fill="#AACCFF"/>
<path d="M37.43 142.507C37.43 142.507 31.4787 146.167 26.5956 150.582C21.7198 154.997 16.8876 160.64 16.6114 163.915C16.3281 167.19 19.4599 172.397 25.1859 170.378C30.9047 168.359 35.4753 159.245 37.7788 155.476C40.0823 151.715 42.2332 147.031 42.2332 147.031L37.43 142.507Z" fill="#FFC39F"/>
<path d="M23.4887 153.421C23.4887 153.421 19.3977 156.057 17.8281 159.659" stroke="#DC8C7A" stroke-width="0.9913" stroke-miterlimit="10"/>
<path d="M22.9766 131.127C22.9766 131.127 24.5025 135.005 24.5825 138.476C24.6624 141.948 23.7904 146.668 23.7904 146.668" stroke="#85B1E6" stroke-miterlimit="10"/>
<path d="M42.0344 135.964C42.6302 130.22 45.9656 121.28 45.9656 121.28L66.5007 125.354C66.5007 125.354 64.5751 132.391 62.9764 137.895C61.109 144.315 61.4069 151.882 61.4069 151.882C61.4069 151.882 51.5898 151.831 47.7022 151.272C43.8147 150.705 40.1523 151.112 40.1523 151.112C40.1523 151.112 41.2714 143.327 42.0344 135.964Z" fill="#F0F0F0"/>
<path d="M40.9605 132.202C40.9605 132.202 40.8806 131.338 41.164 130.663C41.52 129.813 42.4429 129.261 44.8336 131.084C46.2578 132.173 46.5339 133.379 46.2505 134.003C45.9744 134.62 44.7318 134.504 44.7318 134.504C44.7318 134.504 46.4976 136.501 46.0035 137.83C45.5093 139.159 44.1505 138.135 44.1505 138.135C44.1505 138.135 44.6882 139.21 44.572 139.936C44.4557 140.662 44.0778 141.105 43.5328 141.185C42.9806 141.258 42.3193 140.633 42.3193 140.633C42.3193 140.633 42.6318 141.882 42.6536 143.255C42.6754 144.373 42.5083 145.571 41.8325 146.247C40.3283 147.75 38.6861 146.348 37.7051 143.749C36.7241 141.149 37.8722 138.28 37.8722 138.28C37.8722 138.28 37.5743 137.627 37.7269 136.908C37.9376 135.906 38.9622 135.303 38.9622 135.303C38.9622 135.303 38.8532 134.09 39.0131 133.524C39.311 132.427 40.9605 132.202 40.9605 132.202Z" fill="#FFC39F"/>
<path d="M44.2432 134.286C44.2432 134.286 42.8989 132.587 41.293 132.34" stroke="#DC8C7A" stroke-width="0.9913" stroke-miterlimit="10"/>
<path d="M44.1433 138.128C44.1433 138.128 41.956 134.475 39.1875 135.216" stroke="#DC8C7A" stroke-width="0.9913" stroke-miterlimit="10"/>
<path d="M42.8492 141.106C42.8492 141.106 41.6721 138.048 39.543 138.317" stroke="#DC8C7A" stroke-width="0.9913" stroke-miterlimit="10"/>
<path d="M41.2115 139.007C41.2115 139.007 40.5648 139.355 40.1797 139.98" stroke="#DC8C7A" stroke-width="0.9913" stroke-miterlimit="10"/>
<path d="M41.2934 139.283C41.2934 139.283 44.1491 144.475 41.4969 146.312C39.6802 147.568 37.6602 144.918 37.6602 144.918" stroke="#DC8C7A" stroke-width="0.9913" stroke-miterlimit="10"/>
<path d="M73.8879 146.174L65.6767 176.79L41.2031 174.575L47.881 143.821L73.8879 146.174Z" fill="#8B563B"/>
<path d="M67.4298 145.469L66.645 148.548L53.5508 147.14L54.1612 143.843L57.2131 143.625C57.2131 143.625 57.3512 141.991 61.2533 142.18C64.8357 142.354 65.0391 144.707 65.0391 144.707L67.4298 145.469Z" fill="#B3C2CF"/>
<path d="M70.5758 158.751L69.9872 159.892C69.9872 159.892 67.0806 160.356 66.1651 160.349C64.6827 160.335 64.719 161.693 65.2277 162.056C65.2277 162.056 63.2367 161.816 62.6481 162.68C62.0522 163.544 62.8152 164.024 62.8152 164.024C62.8152 164.024 61.965 164.503 61.9795 165.047C61.9941 165.592 62.3865 166.369 62.3865 166.369C62.3865 166.369 61.4418 166.623 61.8197 167.451C62.1975 168.279 65.4893 170.719 67.9163 169.288C70.3433 167.865 70.7793 165.788 70.7357 164.437C70.7139 163.835 71.3243 161.968 71.3751 161.126C71.4478 160.08 71.1354 159.107 70.5758 158.751Z" fill="#FFC39F"/>
<path d="M69.4515 162.375C69.4515 162.375 67.1189 162.847 65.7383 162.281" stroke="#DC8C7A" stroke-width="0.9913" stroke-miterlimit="10"/>
<path d="M69.5216 164.815C69.5216 164.815 65.8375 165.672 63.5703 164.503" stroke="#DC8C7A" stroke-width="0.9913" stroke-miterlimit="10"/>
<path d="M68.978 167.306C68.978 167.306 64.5454 168.09 62.3945 166.369" stroke="#DC8C7A" stroke-width="0.9913" stroke-miterlimit="10"/>
<path d="M39.043 104.389C39.043 106.452 40.6634 108.129 42.669 108.129C44.6745 108.129 46.2949 106.452 46.2949 104.389C46.2949 102.32 44.6745 100.649 42.669 100.649C40.6707 100.649 39.043 102.327 39.043 104.389Z" stroke="#5674C5" stroke-width="1.5" stroke-miterlimit="10"/>
<path d="M29.7617 104.956C29.7617 107.018 31.3822 108.696 33.3877 108.696C35.3933 108.696 37.0137 107.018 37.0137 104.956C37.0137 102.893 35.3933 101.216 33.3877 101.216C31.3822 101.216 29.7617 102.886 29.7617 104.956Z" stroke="#5674C5" stroke-width="1.5" stroke-miterlimit="10"/>
<path d="M39.0427 104.389C39.0427 104.389 37.9818 103.242 36.8555 104.367" stroke="#5674C5" stroke-width="1.5" stroke-miterlimit="10"/>
<path d="M29.5441 104.651C29.5441 104.651 26.6375 103.619 25.1406 104.462" stroke="#5674C5" stroke-width="1.5" stroke-miterlimit="10"/>
<path d="M21.844 104.948C22.251 103.779 23.3627 102.799 24.4672 103.292C25.6081 103.801 27.0105 105.043 27.3956 107.308C27.7008 109.058 26.4001 110.467 25.2738 110.322C24.1402 110.184 23.5081 109.908 22.9558 109.334C21.7423 108.071 21.2264 106.735 21.844 104.948Z" fill="#FFC39F"/>
<path d="M43.2739 56.2139H69.179C72.1292 56.2139 74.5272 58.6103 74.5272 61.5586V75.1455C74.5272 78.101 72.1292 80.4902 69.179 80.4902H54.0284C53.992 81.7828 53.636 83.9032 51.8775 85.283C49.2034 87.3817 45.948 87.5777 45.948 87.5777C45.948 87.5777 47.8736 84.1719 47.939 80.4974H43.2739C40.3237 80.4974 37.9258 78.101 37.9258 75.1527V61.5586C37.9258 58.603 40.3237 56.2139 43.2739 56.2139Z" fill="#488EAC"/>
<path d="M62.6211 68.0215C62.6211 68.9655 63.3841 69.728 64.3287 69.728C65.2734 69.728 66.0364 68.9655 66.0364 68.0215C66.0364 67.0774 65.2734 66.3149 64.3287 66.3149C63.3841 66.3149 62.6211 67.0774 62.6211 68.0215Z" fill="white"/>
<path d="M54.5195 68.0215C54.5195 68.9655 55.2825 69.728 56.2272 69.728C57.1718 69.728 57.9348 68.9655 57.9348 68.0215C57.9348 67.0774 57.1718 66.3149 56.2272 66.3149C55.2898 66.3149 54.5195 67.0774 54.5195 68.0215Z" fill="white"/>
<path d="M46.4258 68.0215C46.4258 68.9655 47.1888 69.728 48.1334 69.728C49.0781 69.728 49.841 68.9655 49.841 68.0215C49.841 67.0774 49.0781 66.3149 48.1334 66.3149C47.1888 66.3149 46.4258 67.0774 46.4258 68.0215Z" fill="white"/>
<path d="M137.739 232.573L134.43 235.879L143.59 245.036L146.899 241.729L137.739 232.573Z" fill="#B6BFC5"/>
<path d="M184.402 274.737C185.776 276.11 185.776 278.339 184.402 279.719L181.597 282.522C180.224 283.894 177.993 283.894 176.613 282.522L141.319 247.251C139.946 245.879 139.946 243.642 141.319 242.269L144.124 239.466C145.497 238.094 147.728 238.094 149.109 239.466L184.402 274.737Z" fill="#8B563B"/>
<path opacity="0.5" d="M133.887 232.03C124.331 241.579 108.839 241.579 99.2838 232.03C89.7283 222.481 89.7283 206.998 99.2838 197.449C108.839 187.9 124.331 187.9 133.887 197.449C143.442 206.998 143.442 222.481 133.887 232.03Z" fill="white"/>
<g opacity="0.6">
<mask id="mask6_7508_41969" style="mask-type:luminance" maskUnits="userSpaceOnUse" x="92" y="190" width="50" height="50">
<path d="M133.887 232.03C124.331 241.579 108.839 241.579 99.2838 232.03C89.7283 222.481 89.7283 206.998 99.2838 197.449C108.839 187.9 124.331 187.9 133.887 197.449C143.442 206.998 143.442 222.481 133.887 232.03Z" fill="white"/>
</mask>
<g mask="url(#mask6_7508_41969)">
<path d="M145.827 190.962L91.4219 245.325L96.9248 250.825L151.33 196.462L145.827 190.962Z" fill="white"/>
<path d="M153.769 198.906L99.3711 253.269L101.437 255.333L155.834 200.971L153.769 198.906Z" fill="white"/>
<path d="M131.745 176.886L77.3633 231.264L79.4294 233.328L133.812 178.95L131.745 176.886Z" fill="white"/>
</g>
</g>
<path d="M94.595 192.765C82.4527 204.9 82.4527 224.572 94.595 236.707C106.737 248.841 126.422 248.841 138.565 236.707C150.707 224.572 150.707 204.9 138.565 192.765C126.422 180.638 106.737 180.638 94.595 192.765ZM133.711 231.856C124.25 241.311 108.91 241.311 99.4491 231.856C89.9881 222.401 89.9881 207.071 99.4491 197.616C108.91 188.161 124.25 188.161 133.711 197.616C143.172 207.071 143.172 222.401 133.711 231.856Z" fill="#384772"/>
</g>
<defs>
<clipPath id="clip0_7508_41969">
<rect width="340" height="303" fill="white" transform="translate(0.9375)"/>
</clipPath>
</defs>
</svg>
