<svg width="458" height="412" viewBox="0 0 458 412" fill="none" xmlns="http://www.w3.org/2000/svg">
<g clip-path="url(#clip0_118_16667)">
<rect width="458" height="411" transform="translate(0 0.5)" fill="#00b14f" fill-opacity="0.1"/>
<g clip-path="url(#clip1_118_16667)">
<path d="M357.457 61.0356H107.729V283.487H357.457V61.0356Z" fill="#D9D9D9"/>
<path d="M351.644 54.5H101.916V276.952H351.644V54.5Z" fill="white"/>
<mask id="mask0_118_16667" style="mask-type:luminance" maskUnits="userSpaceOnUse" x="116" y="69" width="62" height="61">
<path d="M149.365 69.1455C132.592 67.9437 118.019 80.5589 116.815 97.3224C115.611 114.086 128.232 128.649 145.005 129.851C161.778 131.053 176.351 118.438 177.555 101.674C178.759 84.911 166.138 70.3473 149.365 69.1455Z" fill="white"/>
</mask>
<g mask="url(#mask0_118_16667)">
<path d="M177.614 100.595C178.216 83.7998 165.082 69.6976 148.277 69.0964C131.472 68.4952 117.361 81.6226 116.759 98.4173C116.156 115.212 129.291 129.314 146.096 129.915C162.9 130.517 177.012 117.389 177.614 100.595Z" fill="#A7E1FF"/>
</g>
<mask id="mask1_118_16667" style="mask-type:luminance" maskUnits="userSpaceOnUse" x="116" y="69" width="62" height="61">
<path d="M177.615 100.595C178.217 83.8009 165.082 69.6987 148.276 69.0971C131.471 68.4955 117.36 81.6223 116.758 98.4166C116.156 115.211 129.291 129.313 146.096 129.915C162.902 130.516 177.013 117.39 177.615 100.595Z" fill="white"/>
</mask>
<g mask="url(#mask1_118_16667)">
<path d="M161.914 105.718C163.105 103.866 162.197 102.457 161.47 101.789C160.744 101.121 159.988 100.525 160.802 98.6737C161.616 96.822 160.061 96.1539 159.835 95.0355C159.61 93.9245 160.206 93.329 160.431 92.0655C160.656 90.8019 160.068 89.4367 159.69 88.725C159.174 87.7592 158.28 87.0185 157.808 86.1035C157.343 85.1885 152.235 78.3769 150.68 78.1663C148.718 77.8976 147.555 78.7327 147.177 79.0668C146.799 78.7327 145.637 77.8976 143.675 78.1663C142.12 78.3769 137.011 85.1885 136.546 86.1035C136.081 87.0185 135.187 87.7592 134.664 88.725C134.286 89.4294 133.698 90.8019 133.923 92.0655C134.148 93.329 134.737 93.9172 134.519 95.0355C134.294 96.1466 132.739 96.8147 133.552 98.6737C134.366 100.525 133.618 101.121 132.884 101.789C132.157 102.457 131.249 103.866 132.441 105.718C133.625 107.577 131.917 108.02 132.586 110.314C133.254 112.616 137.186 112.834 139.191 113.502C141.197 114.17 144.459 115.231 147.17 115.231C149.88 115.231 153.143 114.17 155.148 113.502C157.154 112.834 161.085 112.609 161.754 110.314C162.437 108.02 160.729 107.577 161.914 105.718Z" fill="#B05512"/>
<path d="M131.613 146.304C132.318 142.579 132.878 138.461 132.878 138.461C132.878 138.461 134.992 122.609 134.883 118.397C134.767 114.185 133.03 110.278 131.897 109.617C130.77 108.957 126.512 112.958 125.662 116.516C124.812 120.067 124.608 123.792 124.412 127.358C124.209 130.916 124.136 137.561 124.136 137.561C124.136 137.561 122.835 142.339 122.072 146.311H131.613V146.304Z" fill="#BB8B40"/>
<path d="M162.743 146.304H172.284C171.521 142.332 170.221 137.554 170.221 137.554C170.221 137.554 170.148 130.909 169.944 127.351C169.741 123.785 169.537 120.067 168.695 116.509C167.844 112.958 163.586 108.949 162.46 109.61C161.334 110.271 159.59 114.178 159.473 118.39C159.357 122.601 161.479 138.454 161.479 138.454C161.479 138.454 162.038 142.579 162.743 146.304Z" fill="#BB8B40"/>
<path d="M131.678 134.373C131.816 137.082 131.721 141.94 131.213 146.304H163.142C162.633 141.94 162.539 137.082 162.677 134.373C162.72 133.523 163.323 125.463 163.97 122.877C164.617 120.292 165.264 112.181 163.643 110.075C162.43 108.499 150.149 106.546 146.523 106.546C142.897 106.546 131.918 108.492 130.697 110.075C129.076 112.181 129.723 120.292 130.377 122.877C131.031 125.463 131.634 133.523 131.678 134.373Z" fill="#4A68CA"/>
<path d="M156.305 108.913C156.196 108.136 151.952 106.473 151.952 106.473L150.528 97.2432H143.835L142.411 106.473C142.411 106.473 138.168 108.136 138.059 108.913C137.95 109.69 138.393 111.251 140.064 112.696C141.735 114.141 145.281 115.63 147.185 115.63C149.089 115.63 152.635 114.141 154.306 112.696C155.97 111.244 156.414 109.69 156.305 108.913Z" fill="#FFC39F"/>
<path d="M141.329 108.463C140.886 110.692 142.666 119.116 147.172 119.116C151.684 119.116 153.465 110.685 153.021 108.463" stroke="#FFFFD9" stroke-width="0.8627" stroke-miterlimit="10"/>
<path d="M147.738 120.154C147.738 120.459 147.491 120.713 147.179 120.713C146.873 120.713 146.619 120.466 146.619 120.154C146.619 119.849 146.823 119.043 147.179 119.043C147.535 119.036 147.738 119.842 147.738 120.154Z" fill="#FFFFD9"/>
<path d="M142.425 106.473C142.425 106.473 139.075 117.257 139.184 126.719C139.293 136.181 139.184 146.195 139.184 146.195H122.086C122.086 146.195 123.256 129.725 124.259 122.936C125.261 116.146 126.264 111.251 129.941 109.915C133.618 108.579 137.069 107.686 138.625 107.577C140.187 107.461 142.425 106.473 142.425 106.473Z" fill="#271539"/>
<path d="M151.93 106.473C151.93 106.473 155.28 117.257 155.171 126.719C155.062 136.181 155.171 146.195 155.171 146.195H172.269C172.269 146.195 171.099 129.725 170.096 122.936C169.093 116.146 168.09 111.251 164.414 109.915C160.737 108.579 157.285 107.686 155.73 107.577C154.168 107.461 151.93 106.473 151.93 106.473Z" fill="#271539"/>
<path d="M130.059 119.711C130.204 123.763 131.156 127.845 131.497 131.904C131.832 135.949 131.781 142.034 131.439 146.079" stroke="#4A364F" stroke-width="0.8627" stroke-miterlimit="10"/>
<path d="M164.298 119.711C163.565 127.823 161.777 137.88 162.918 146.079" stroke="#4A364F" stroke-width="0.8627" stroke-miterlimit="10"/>
<path d="M159.356 90.7656C158.956 89.5892 157.663 88.892 156.74 89.2115C156.377 86.4448 155.294 79.0232 147.177 79.0232C139.06 79.0232 137.978 86.4448 137.607 89.2115C136.684 88.8848 135.391 89.5892 134.991 90.7656C134.628 91.8331 135.006 92.9804 135.754 93.772C136.321 94.3674 137.157 94.687 138.014 94.8322C138.537 96.6549 139.409 98.5503 140.775 100.017C141.64 100.947 143.965 102.428 147.17 102.428C150.374 102.428 152.7 100.939 153.564 100.017C154.93 98.5503 155.81 96.6549 156.326 94.8322C157.19 94.687 158.019 94.3674 158.586 93.772C159.349 92.9804 159.719 91.8403 159.356 90.7656Z" fill="#FFC39F"/>
<path d="M155.867 81.1001C152.089 75.5739 147.22 77.3022 147.22 77.3022C147.22 77.3022 147.205 77.2949 147.169 77.2877C147.14 77.2949 147.118 77.3022 147.118 77.3022C147.118 77.3022 142.257 75.5739 138.471 81.1001C134.693 86.6264 136.996 91.9856 136.996 91.9856C136.996 91.9856 138.304 91.4119 139.045 90.693C139.786 89.9741 139.714 88.863 140.317 88.3111C140.92 87.7592 141.821 87.919 142.424 87.5995C143.027 87.2799 143.325 86.0963 143.703 85.7767C144.081 85.4572 144.619 85.6606 145.432 85.4572C146.406 85.2176 147.162 84.3534 147.162 84.3534C147.162 84.3534 147.918 85.2248 148.891 85.4572C149.712 85.6533 150.243 85.4572 150.621 85.7767C150.999 86.0963 151.297 87.2799 151.9 87.5995C152.503 87.9117 153.404 87.7592 154.007 88.3111C154.61 88.863 154.53 89.9741 155.279 90.693C156.02 91.4119 157.335 91.9856 157.335 91.9856C157.335 91.9856 159.646 86.6336 155.867 81.1001Z" fill="#B05512"/>
<path d="M141.314 90.7365C141.488 90.6712 141.67 90.6131 141.852 90.555C142.171 90.4606 142.542 90.3226 142.833 90.2863C143.16 90.2427 143.487 90.2935 143.821 90.3589C143.952 90.3807 144.083 90.4243 144.206 90.4678C144.104 90.4315 144.315 90.5114 144.344 90.5187C144.439 90.5477 144.511 90.555 144.613 90.5404C144.555 90.5404 144.504 90.5404 144.446 90.5404C144.373 90.5187 144.453 90.5477 144.468 90.555C144.504 90.5695 144.54 90.584 144.577 90.5985C144.613 90.6058 144.649 90.6131 144.686 90.6203C144.751 90.6276 144.824 90.6494 144.889 90.6203C144.984 90.584 145.056 90.446 144.955 90.3662C144.925 90.3444 144.969 90.3952 144.955 90.3662C144.947 90.3516 144.933 90.3081 144.947 90.3589C144.933 90.3299 144.925 90.2935 144.911 90.2645C144.896 90.2282 144.889 90.1919 144.867 90.1628C144.867 90.1628 144.78 90.0684 144.78 90.0539C144.838 90.1628 144.846 90.1628 144.795 90.0539C144.773 90.0249 144.751 89.9958 144.729 89.9668C144.715 89.945 144.693 89.9232 144.671 89.9014C144.351 89.5674 143.872 89.4366 143.429 89.4003C142.578 89.3277 141.75 89.6255 141.023 90.0394C140.653 90.2427 140.9 90.8963 141.314 90.7365Z" fill="#B05512"/>
<path d="M153.341 90.0393C152.614 89.6254 151.785 89.3349 150.935 89.4003C150.492 89.4366 150.012 89.5673 149.693 89.9014C149.671 89.9232 149.656 89.9449 149.635 89.9667C149.613 89.9958 149.591 90.0248 149.569 90.0539C149.518 90.1628 149.526 90.1628 149.584 90.0539C149.584 90.0466 149.453 90.2572 149.453 90.2645C149.438 90.2935 149.431 90.3298 149.417 90.3589C149.438 90.3008 149.424 90.3516 149.409 90.3661C149.395 90.3879 149.438 90.3371 149.409 90.3661C149.315 90.446 149.38 90.584 149.475 90.6203C149.54 90.6421 149.613 90.6276 149.678 90.6203C149.707 90.613 149.744 90.613 149.78 90.6058C149.816 90.5985 149.853 90.584 149.889 90.5695C149.903 90.5622 149.991 90.5332 149.918 90.5549C149.86 90.5549 149.809 90.5549 149.751 90.5549C149.845 90.5695 149.918 90.5622 150.005 90.5404C150.027 90.5332 150.049 90.5259 150.071 90.5186C150.092 90.5114 150.245 90.446 150.158 90.4823C150.281 90.4315 150.412 90.3952 150.543 90.3734C150.877 90.3153 151.204 90.2572 151.531 90.3008C151.822 90.3371 152.192 90.4751 152.512 90.5695C152.694 90.6203 152.875 90.6856 153.05 90.751C153.457 90.8962 153.711 90.2499 153.341 90.0393Z" fill="#B05512"/>
<path d="M147.418 90.8381C147.607 91.3828 147.701 91.9056 147.803 92.3922C147.846 92.61 147.926 92.9078 147.963 92.9223C147.963 92.9078 147.934 92.8714 147.941 92.8787L148.006 92.9368L148.137 93.0603C148.224 93.1474 148.312 93.2345 148.406 93.3435C148.588 93.5395 148.835 93.8736 148.893 94.2802C148.907 94.3819 148.907 94.4545 148.907 94.578C148.907 94.7595 148.857 94.883 148.806 94.9846C148.704 95.188 148.588 95.2969 148.471 95.4131C147.999 95.8052 147.505 96.0231 146.945 96.1465C147.243 95.6745 147.592 95.2606 147.796 94.8612C147.846 94.7668 147.883 94.6724 147.876 94.6288C147.876 94.607 147.861 94.5998 147.846 94.6506C147.832 94.6433 147.817 94.5852 147.796 94.5635C147.73 94.4545 147.636 94.3746 147.469 94.1858C147.389 94.0987 147.294 93.997 147.207 93.8881L147.084 93.7138L147.018 93.6267C146.982 93.5758 146.931 93.4887 146.895 93.4088C146.742 92.9368 146.815 92.6972 146.844 92.3994C146.938 91.8475 147.113 91.3247 147.418 90.8381Z" fill="#DC8C7A"/>
<path d="M144.06 92.2034C144.06 92.8061 143.573 93.2999 142.97 93.2999C142.367 93.2999 141.873 92.8134 141.873 92.2107C141.873 91.6079 142.36 91.1214 142.963 91.1141C143.566 91.1141 144.06 91.6007 144.06 92.2034Z" fill="#522C31"/>
<path d="M150.295 92.2034C150.295 92.8061 150.782 93.2999 151.392 93.2999C151.995 93.2999 152.482 92.8134 152.482 92.2107C152.482 91.6079 151.995 91.1214 151.392 91.1141C150.782 91.1141 150.295 91.6007 150.295 92.2034Z" fill="#522C31"/>
<path d="M150.048 96.437C150.186 96.742 150.084 97.1487 149.888 97.4464C149.685 97.7441 149.416 97.9838 149.118 98.1581C148.522 98.5212 147.839 98.6664 147.178 98.6737C146.509 98.6664 145.826 98.5284 145.238 98.1581C144.94 97.9838 144.671 97.7441 144.467 97.4464C144.271 97.1487 144.169 96.742 144.315 96.437C144.62 97.0107 145.136 97.1196 145.63 97.2576C146.139 97.3665 146.662 97.4101 147.185 97.4174C147.708 97.4174 148.231 97.3738 148.74 97.2649C149.227 97.1196 149.75 97.0107 150.048 96.437Z" fill="#C35E64"/>
<path d="M143.158 101.745C144.241 102.225 145.6 102.581 147.177 102.581C148.753 102.581 150.112 102.218 151.195 101.745" stroke="#DC8C7A" stroke-width="0.9913" stroke-miterlimit="10"/>
</g>
<mask id="mask2_118_16667" style="mask-type:luminance" maskUnits="userSpaceOnUse" x="116" y="206" width="62" height="61">
<path d="M177.626 236.547C177.626 253.351 163.994 266.974 147.179 266.974C130.364 266.974 116.732 253.351 116.732 236.547C116.732 219.743 130.364 206.12 147.179 206.12C163.994 206.12 177.626 219.743 177.626 236.547Z" fill="white"/>
</mask>
<g mask="url(#mask2_118_16667)">
<path d="M177.626 236.547C177.626 253.351 163.994 266.974 147.179 266.974C130.364 266.974 116.732 253.351 116.732 236.547C116.732 219.743 130.364 206.12 147.179 206.12C163.994 206.12 177.626 219.743 177.626 236.547Z" fill="#A7E1FF"/>
</g>
<mask id="mask3_118_16667" style="mask-type:luminance" maskUnits="userSpaceOnUse" x="116" y="206" width="62" height="61">
<path d="M177.626 236.547C177.626 253.351 163.994 266.974 147.179 266.974C130.364 266.974 116.732 253.351 116.732 236.547C116.732 219.743 130.364 206.12 147.179 206.12C163.994 206.12 177.626 219.743 177.626 236.547Z" fill="white"/>
</mask>
<g mask="url(#mask3_118_16667)">
<path d="M158.462 237.164C157.14 233.25 158.462 230.723 157.409 222.633C156.413 215.03 149.822 213.345 147.177 213.701C144.532 213.345 137.942 215.03 136.946 222.633C135.892 230.716 137.208 233.243 135.892 237.164C134.57 241.078 130.915 248.405 133.996 251.63C134.737 252.407 139.867 254.251 147.177 254.251C154.487 254.251 159.618 252.407 160.359 251.63C163.44 248.398 159.777 241.078 158.462 237.164Z" fill="#7C2729"/>
<path d="M124.297 283.349H131.687C132.406 279.58 132.98 275.369 132.98 275.369C132.98 275.369 134.884 259.843 134.768 255.602C134.652 251.361 134.208 245.806 134.208 245.806C134.208 245.806 129.42 247.585 127.196 251.259C124.973 254.934 124.449 259.451 124.522 264.723C124.595 269.995 124.464 274.504 124.413 276.632C124.319 280.161 124.297 283.349 124.297 283.349Z" fill="#FFC39F"/>
<path d="M170.068 283.349H162.678C161.959 279.58 161.384 275.369 161.384 275.369C161.384 275.369 159.481 259.843 159.597 255.602C159.713 251.361 160.156 245.806 160.156 245.806C160.156 245.806 164.945 247.585 167.169 251.259C169.399 254.934 169.915 259.451 169.843 264.723C169.77 269.995 169.901 274.504 169.952 276.632C170.039 280.161 170.068 283.349 170.068 283.349Z" fill="#FFC39F"/>
<path d="M168.004 251.659C165.933 248.572 162.045 246.583 162.045 246.583C162.045 246.583 160.643 245.588 158.703 245.13C156.101 244.513 149.918 243.525 147.178 243.525C144.439 243.525 138.255 244.513 135.653 245.13C133.721 245.588 132.311 246.583 132.311 246.583C132.311 246.583 128.416 248.572 126.352 251.659C125.604 252.777 123.359 256.197 124.027 258.862C124.696 261.527 131.897 263.263 131.897 263.263C131.897 263.263 132.427 270.416 132.427 274.199C132.427 277.983 131.308 283.349 131.308 283.349H146.451H163.048C163.048 283.349 161.929 277.99 161.929 274.199C161.929 270.416 162.46 263.263 162.46 263.263C162.46 263.263 169.668 261.527 170.329 258.862C170.998 256.197 168.76 252.777 168.004 251.659Z" fill="#2754C5"/>
<path d="M147.179 256.016C154.99 256.016 159.546 251.702 162.816 247.018C162.344 246.735 162.046 246.583 162.046 246.583C162.046 246.583 160.643 245.588 158.703 245.13C156.102 244.513 149.918 243.525 147.179 243.525C144.439 243.525 138.255 244.513 135.654 245.13C133.721 245.588 132.311 246.583 132.311 246.583C132.311 246.583 132.013 246.735 131.541 247.018C134.811 251.702 139.367 256.016 147.179 256.016Z" fill="#709CCC"/>
<path d="M157.105 245.472C156.654 244.825 153.363 243.968 151.997 243.794L150.594 234.71H143.764L142.361 243.794C140.995 243.976 137.703 244.825 137.253 245.472C136.802 246.125 138.43 249.132 140.705 250.598C142.012 251.441 144.716 252.741 147.179 252.741C149.642 252.741 152.345 251.448 153.653 250.598C155.921 249.132 157.556 246.118 157.105 245.472Z" fill="#FFC39F"/>
<path d="M147.178 216.257C139.061 216.257 137.259 225.581 137.906 230.425C138.552 235.269 139.41 235.784 140.783 237.251C141.648 238.173 143.973 239.662 147.178 239.662C150.382 239.662 152.707 238.173 153.572 237.251C154.938 235.784 155.803 235.269 156.45 230.425C157.096 225.589 155.294 216.257 147.178 216.257Z" fill="#FFC39F"/>
<path d="M151.239 239.103C150.323 239.408 149.262 239.633 148.027 239.713C145.999 239.836 144.386 239.517 143.107 239.023" stroke="#DC8C7A" stroke-width="0.9913" stroke-miterlimit="10"/>
<path d="M147.053 227.789C147.358 228.283 147.533 228.798 147.62 229.357C147.649 229.655 147.722 229.895 147.569 230.367C147.54 230.44 147.482 230.534 147.445 230.585L147.38 230.672L147.249 230.839C147.162 230.948 147.075 231.05 146.988 231.137C146.82 231.325 146.726 231.405 146.661 231.514C146.639 231.536 146.624 231.594 146.61 231.601C146.602 231.551 146.581 231.558 146.581 231.58C146.573 231.623 146.617 231.725 146.661 231.812C146.864 232.211 147.213 232.633 147.511 233.097C146.959 232.974 146.457 232.756 145.985 232.364C145.869 232.255 145.752 232.139 145.651 231.935C145.6 231.834 145.549 231.71 145.549 231.529C145.549 231.405 145.549 231.333 145.563 231.231C145.621 230.824 145.869 230.483 146.05 230.294C146.145 230.185 146.232 230.098 146.319 230.011L146.45 229.888L146.515 229.83C146.515 229.83 146.493 229.859 146.493 229.88C146.53 229.866 146.61 229.568 146.653 229.35C146.777 228.856 146.864 228.326 147.053 227.789Z" fill="#DC8C7A"/>
<path d="M150.295 228.835C150.295 229.437 150.782 229.931 151.385 229.931C151.988 229.931 152.482 229.445 152.482 228.842C152.482 228.239 151.995 227.753 151.392 227.745C150.789 227.745 150.295 228.232 150.295 228.835Z" fill="#2C1D31"/>
<path d="M144.06 228.835C144.06 229.437 143.573 229.931 142.962 229.931C142.359 229.931 141.873 229.445 141.865 228.842C141.865 228.239 142.352 227.753 142.955 227.745C143.573 227.745 144.06 228.232 144.06 228.835Z" fill="#2C1D31"/>
<path d="M153.1 226.278C152.686 226.032 152.257 225.857 151.792 225.748C151.4 225.654 151.022 225.625 150.622 225.69C150.222 225.756 149.677 226.09 149.568 226.504C149.605 226.438 149.648 226.373 149.685 226.308C149.59 226.409 149.503 226.54 149.525 226.692C149.539 226.78 149.518 226.562 149.518 226.743C149.518 226.867 149.634 226.968 149.728 227.026C149.794 227.063 149.866 227.085 149.939 227.085C149.983 227.085 149.975 227.085 149.925 227.085C149.99 227.092 150.055 227.106 150.121 227.106C150.208 227.106 150.295 227.092 150.382 227.077C150.411 227.07 150.528 227.034 150.549 227.048C150.52 227.048 150.499 227.055 150.469 227.055C150.499 227.055 150.528 227.048 150.557 227.048C150.666 227.034 150.767 227.026 150.869 227.005C150.913 226.997 150.971 226.976 151.014 226.976C150.833 226.968 151.029 226.983 151.073 226.983C151.153 226.983 151.232 226.997 151.32 226.997C151.102 226.99 151.283 226.997 151.334 227.005C151.371 227.012 151.414 227.019 151.45 227.026C151.647 227.07 151.836 227.128 152.025 227.186C152.228 227.252 152.439 227.281 152.649 227.339C152.926 227.419 153.216 227.266 153.325 227.005C153.449 226.729 153.347 226.424 153.1 226.278Z" fill="#8B3B29"/>
<path d="M141.698 227.324C141.902 227.266 142.12 227.237 142.323 227.172C142.512 227.114 142.701 227.055 142.897 227.012C142.934 227.005 142.977 226.997 143.014 226.99C143.064 226.983 143.246 226.976 143.028 226.983C143.108 226.976 143.188 226.968 143.275 226.968C143.297 226.968 143.479 226.976 143.37 226.968C143.268 226.961 143.457 226.99 143.479 226.99C143.58 227.012 143.689 227.026 143.791 227.034C143.813 227.034 143.835 227.041 143.857 227.041C143.907 227.048 143.886 227.041 143.798 227.034C143.827 227.019 143.936 227.056 143.966 227.063C144.045 227.077 144.125 227.092 144.205 227.092C144.278 227.092 144.351 227.077 144.423 227.07C144.372 227.07 144.365 227.07 144.409 227.07C144.489 227.07 144.554 227.048 144.627 227.012C144.729 226.954 144.838 226.852 144.838 226.729C144.838 226.547 144.823 226.765 144.83 226.678C144.852 226.525 144.765 226.395 144.67 226.293C144.707 226.358 144.75 226.424 144.787 226.489C144.685 226.068 144.133 225.741 143.733 225.676C143.333 225.61 142.955 225.639 142.563 225.734C142.098 225.843 141.662 226.024 141.255 226.264C141.008 226.409 140.906 226.721 141.023 226.983C141.132 227.252 141.422 227.404 141.698 227.324Z" fill="#8B3B29"/>
<path d="M150.048 232.981C150.186 233.286 150.084 233.693 149.888 233.991C149.685 234.288 149.416 234.528 149.118 234.702C148.522 235.065 147.839 235.211 147.178 235.218C146.509 235.211 145.826 235.073 145.23 234.702C144.933 234.528 144.664 234.288 144.46 233.991C144.264 233.693 144.17 233.286 144.308 232.981C144.613 233.555 145.129 233.664 145.623 233.802C146.132 233.911 146.655 233.954 147.178 233.962C147.701 233.962 148.224 233.918 148.733 233.809C149.227 233.664 149.75 233.555 150.048 232.981Z" fill="#C35E64"/>
<path d="M158.964 224.282C158.433 221.616 157.329 218.232 154.96 215.618C152.591 213.004 148.107 212.416 147.177 213.868C146.247 212.416 141.764 213.004 139.395 215.618C137.026 218.232 135.929 221.616 135.391 224.282C134.897 226.765 130.704 250.824 132.826 252.065C135.093 253.402 141.495 255.13 142.432 250.199C143.37 245.268 141.233 239.001 139.497 234.862C138.952 233.562 139.329 227.695 139.933 225.879C141.517 224.819 143.638 223.759 145.259 222.728C145.971 222.27 146.618 221.747 147.185 221.21C147.751 221.747 148.391 222.27 149.11 222.728C150.731 223.759 152.852 224.819 154.437 225.879C155.04 227.695 155.417 233.562 154.865 234.862C153.129 238.994 150.999 245.261 151.93 250.199C152.867 255.13 159.269 253.402 161.536 252.065C163.65 250.816 159.465 226.765 158.964 224.282Z" fill="#8B3B29"/>
</g>
<mask id="mask4_118_16667" style="mask-type:luminance" maskUnits="userSpaceOnUse" x="116" y="137" width="62" height="62">
<path d="M147.179 198.459C163.994 198.459 177.626 184.836 177.626 168.031C177.626 151.227 163.994 137.604 147.179 137.604C130.364 137.604 116.732 151.227 116.732 168.031C116.732 184.836 130.364 198.459 147.179 198.459Z" fill="white"/>
</mask>
<g mask="url(#mask4_118_16667)">
<path d="M147.179 198.459C163.994 198.459 177.626 184.836 177.626 168.031C177.626 151.227 163.994 137.604 147.179 137.604C130.364 137.604 116.732 151.227 116.732 168.031C116.732 184.836 130.364 198.459 147.179 198.459Z" fill="#A7E1FF"/>
</g>
<mask id="mask5_118_16667" style="mask-type:luminance" maskUnits="userSpaceOnUse" x="116" y="137" width="62" height="62">
<path d="M147.179 198.459C163.994 198.459 177.626 184.836 177.626 168.031C177.626 151.227 163.994 137.604 147.179 137.604C130.364 137.604 116.732 151.227 116.732 168.031C116.732 184.836 130.364 198.459 147.179 198.459Z" fill="white"/>
</mask>
<g mask="url(#mask5_118_16667)">
<path d="M165.861 214.827C166.101 201.051 168.971 183.928 166.74 179.019C165.89 177.145 155.252 174.465 147.179 174.465C139.106 174.465 128.468 177.145 127.617 179.019C125.387 183.92 128.257 201.051 128.497 214.827H165.861Z" fill="#8CB0ED"/>
<path d="M128.948 177.987C128.948 177.987 128.33 188.488 128.679 191.988C129.122 196.44 128.991 200.913 128.991 200.913L128.657 214.819H118.746C118.746 214.819 118.411 197.13 120.417 189.004C121.616 184.131 123.839 181.836 125.147 180.413C126.281 179.193 128.948 177.987 128.948 177.987Z" fill="#8CB0ED"/>
<path d="M128.817 181.72C128.817 181.72 128.018 187.319 128.687 190.652C129.355 193.985 129.035 198.103 128.999 200.913C128.955 203.723 128.665 214.819 128.665 214.819" stroke="#6888D4" stroke-width="0.8627" stroke-miterlimit="10"/>
<path d="M165.411 177.987C165.411 177.987 166.029 188.488 165.68 191.988C165.237 196.44 165.368 200.913 165.368 200.913L165.702 214.819H175.613C175.613 214.819 175.948 197.13 173.942 189.004C172.743 184.131 170.52 181.836 169.212 180.413C168.078 179.193 165.411 177.987 165.411 177.987Z" fill="#8CB0ED"/>
<path d="M165.542 181.72C165.542 181.72 166.341 187.319 165.673 190.652C165.004 193.985 165.324 198.103 165.36 200.913C165.404 203.723 165.694 214.819 165.694 214.819" stroke="#6888D4" stroke-width="0.8627" stroke-miterlimit="10"/>
<path d="M145.246 183.223V214.827" stroke="#6888D4" stroke-width="0.8627" stroke-miterlimit="10"/>
<path d="M149.111 183.223V214.827" stroke="#6888D4" stroke-width="0.8627" stroke-miterlimit="10"/>
<path d="M155.666 175.184C154.925 172.679 154.009 172.498 152.164 172.142C150.754 171.866 148.276 172.534 147.179 172.861C146.082 172.527 143.604 171.866 142.194 172.142C140.348 172.498 139.425 172.679 138.692 175.184C137.958 177.69 142.383 186.462 142.383 186.462L147.179 181.342L151.975 186.462C151.975 186.462 156.4 177.69 155.666 175.184Z" fill="#6888D4"/>
<path d="M140.807 175.235L142.42 168.532C142.42 168.532 145.159 169.353 147.179 169.353C149.207 169.353 151.946 168.532 151.946 168.532L153.559 175.235C153.559 175.235 150.58 180.289 147.187 180.289C143.786 180.289 140.807 175.235 140.807 175.235Z" fill="#FFC39F"/>
<path d="M148.044 187.457C148.044 187.936 147.659 188.321 147.179 188.321C146.7 188.321 146.314 187.936 146.314 187.457C146.314 186.978 146.7 186.593 147.179 186.593C147.659 186.593 148.044 186.978 148.044 187.457Z" fill="#E1EBFF"/>
<path d="M148.044 192.758C148.044 193.237 147.659 193.622 147.179 193.622C146.7 193.622 146.314 193.237 146.314 192.758C146.314 192.279 146.7 191.894 147.179 191.894C147.659 191.894 148.044 192.279 148.044 192.758Z" fill="#E1EBFF"/>
<path d="M148.044 198.059C148.044 198.538 147.659 198.923 147.179 198.923C146.7 198.923 146.314 198.538 146.314 198.059C146.314 197.58 146.7 197.195 147.179 197.195C147.659 197.188 148.044 197.58 148.044 198.059Z" fill="#E1EBFF"/>
<path d="M137.492 159.688C137.492 166.151 141.111 171.386 147.178 171.386C153.246 171.386 156.865 166.151 156.865 159.688C156.865 153.225 154.336 147.989 147.178 147.989C140.021 147.989 137.492 153.225 137.492 159.688Z" fill="#FFC39F"/>
<path d="M159.409 159.39C159.954 161.459 158.428 164.103 156.393 164.495C154.359 164.887 154.722 161.823 155.55 160.21C156.379 158.598 158.864 157.32 159.409 159.39Z" fill="#FFC39F"/>
<path d="M136.345 158.351C138.379 158.743 139.898 161.387 139.36 163.456C138.815 165.526 136.337 164.248 135.502 162.636C134.673 161.016 134.31 157.959 136.345 158.351Z" fill="#FFC39F"/>
<path d="M147.143 159.942C147.354 160.457 147.499 160.958 147.659 161.438C147.724 161.677 147.811 161.91 147.899 162.091C147.964 162.244 148.087 162.353 148.24 162.527C148.32 162.614 148.422 162.716 148.538 162.905C148.662 163.086 148.734 163.391 148.712 163.616C148.683 163.856 148.662 163.979 148.545 164.212C148.444 164.408 148.313 164.553 148.182 164.655C147.644 165.054 147.092 165.185 146.496 165.119C146.838 164.64 147.215 164.27 147.404 163.921C147.499 163.754 147.477 163.696 147.484 163.573C147.477 163.536 147.484 163.58 147.47 163.544C147.455 163.507 147.383 163.42 147.295 163.304C147.121 163.086 146.947 162.752 146.867 162.411C146.809 162.099 146.809 161.823 146.816 161.547C146.852 160.987 146.939 160.465 147.143 159.942Z" fill="#DC8C7A"/>
<path d="M150.05 165.236C150.188 165.541 150.086 165.947 149.89 166.245C149.687 166.543 149.418 166.782 149.12 166.957C148.524 167.32 147.841 167.465 147.18 167.472C146.511 167.465 145.828 167.327 145.24 166.957C144.942 166.782 144.673 166.543 144.469 166.245C144.273 165.947 144.171 165.541 144.317 165.236C144.622 165.809 145.138 165.918 145.632 166.056C146.141 166.165 146.664 166.209 147.187 166.216C147.71 166.216 148.233 166.172 148.742 166.064C149.229 165.918 149.752 165.817 150.05 165.236Z" fill="#C35E64"/>
<path d="M149.971 160.537C149.971 161.14 150.465 161.626 151.068 161.626C151.671 161.626 152.158 161.133 152.158 160.53C152.158 159.927 151.664 159.441 151.061 159.441C150.458 159.441 149.971 159.927 149.971 160.537Z" fill="#522C31"/>
<path d="M144.39 160.552C144.39 161.184 143.903 161.692 143.3 161.692C142.697 161.692 142.203 161.184 142.203 160.559C142.203 159.927 142.69 159.419 143.293 159.419C143.896 159.412 144.39 159.92 144.39 160.552Z" fill="#522C31"/>
<path d="M149.622 158.671C149.738 158.613 149.528 158.693 149.666 158.657C149.717 158.642 149.767 158.627 149.818 158.613C149.847 158.606 149.884 158.598 149.913 158.598C150.007 158.577 149.876 158.598 149.876 158.606C149.884 158.591 150.036 158.591 150.065 158.591C150.385 158.577 150.705 158.548 151.025 158.577C151.112 158.584 151.192 158.591 151.279 158.598C151.213 158.591 151.206 158.584 151.272 158.598C151.322 158.606 151.366 158.613 151.417 158.62C151.642 158.664 151.867 158.678 152.1 158.7C152.136 158.7 152.187 158.715 152.122 158.7C152.187 158.707 152.253 158.722 152.325 158.729C152.427 158.744 152.536 158.744 152.638 158.744C152.754 158.744 152.863 158.765 152.979 158.744C153.081 158.722 153.125 158.729 153.226 158.765C153.408 158.831 153.561 158.562 153.415 158.439C153.321 158.359 153.284 158.301 153.226 158.192C153.175 158.097 153.081 158.017 153.001 157.945C152.819 157.778 152.638 157.654 152.412 157.553C152.18 157.451 151.962 157.357 151.715 157.32C151.475 157.284 151.235 157.255 150.995 157.248C150.283 157.226 149.528 157.349 148.983 157.85C148.794 158.025 148.786 158.344 148.939 158.54C149.106 158.744 149.382 158.794 149.622 158.671Z" fill="#972D05"/>
<path d="M145.378 157.843C144.833 157.342 144.077 157.219 143.365 157.24C143.132 157.248 142.9 157.277 142.675 157.306C142.42 157.342 142.21 157.429 141.977 157.531C141.752 157.633 141.563 157.749 141.381 157.916C141.301 157.988 141.207 158.068 141.149 158.163C141.12 158.206 141.112 158.264 141.083 158.308C141.054 158.359 140.996 158.395 140.952 158.431C140.807 158.555 140.96 158.823 141.141 158.758C141.243 158.722 141.279 158.715 141.388 158.736C141.49 158.758 141.592 158.744 141.701 158.736C141.788 158.736 141.883 158.736 141.97 158.729C142.05 158.722 142.13 158.707 142.217 158.693C142.319 158.678 142.144 158.7 142.239 158.693C142.471 158.664 142.696 158.656 142.922 158.613C142.973 158.606 143.016 158.598 143.067 158.584C143.082 158.584 143.205 158.562 143.125 158.577C143.031 158.591 143.191 158.569 143.205 158.569C143.249 158.562 143.3 158.562 143.343 158.555C143.656 158.533 143.968 158.562 144.281 158.569C144.346 158.569 144.411 158.584 144.469 158.584C144.542 158.584 144.346 158.555 144.448 158.584C144.469 158.591 144.498 158.591 144.52 158.598C144.578 158.613 144.637 158.627 144.695 158.642C144.716 158.649 144.738 158.656 144.753 158.664C144.644 158.642 144.68 158.635 144.738 158.656C144.971 158.773 145.254 158.736 145.414 158.518C145.574 158.33 145.574 158.025 145.378 157.843Z" fill="#972D05"/>
<path d="M154.824 159.738L154.271 159.136C154.322 159.085 155.601 157.843 156.778 157.204C156.778 157.204 156.967 157.226 157.033 157.712C157.098 158.199 156.902 158.199 156.902 158.199C155.819 158.78 154.838 159.724 154.824 159.738Z" fill="#556EC0"/>
<path d="M139.535 159.738L140.087 159.136C140.036 159.085 138.757 157.843 137.58 157.204C137.58 157.204 137.391 157.226 137.326 157.712C137.26 158.199 137.457 158.199 137.457 158.199C138.539 158.78 139.52 159.724 139.535 159.738Z" fill="#556EC0"/>
<path d="M148.494 159.717C147.695 159.208 146.663 159.208 145.863 159.717L145.449 159.07C146.496 158.41 147.854 158.41 148.901 159.07L148.494 159.717Z" fill="#556EC0"/>
<path d="M142.739 163.587C140.879 163.587 139.367 162.077 139.367 160.218C139.367 158.359 140.879 156.848 142.739 156.848C144.599 156.848 146.111 158.359 146.111 160.218C146.111 162.077 144.599 163.587 142.739 163.587ZM142.739 157.64C141.315 157.64 140.152 158.802 140.152 160.225C140.152 161.648 141.307 162.81 142.739 162.81C144.17 162.81 145.326 161.648 145.326 160.225C145.326 158.802 144.17 157.64 142.739 157.64Z" fill="#556EC0"/>
<path d="M151.612 163.587C149.752 163.587 148.24 162.077 148.24 160.218C148.24 158.359 149.752 156.848 151.612 156.848C153.472 156.848 154.984 158.359 154.984 160.218C154.984 162.077 153.472 163.587 151.612 163.587ZM151.612 157.64C150.188 157.64 149.032 158.802 149.032 160.225C149.032 161.648 150.188 162.81 151.612 162.81C153.036 162.81 154.199 161.648 154.199 160.225C154.199 158.802 153.043 157.64 151.612 157.64Z" fill="#556EC0"/>
<path d="M157.061 152.208C156.538 150.451 154.474 147.902 153.122 147.103C148.247 144.234 147.178 147.568 147.178 147.568C147.178 147.568 146.11 144.234 141.234 147.103C139.876 147.902 137.819 150.443 137.296 152.208C136.373 155.316 137.187 159.019 137.187 159.019C137.187 159.019 137.928 159.034 138.8 158.504C139.665 157.974 141.605 155.635 141.605 155.635C141.605 155.635 142.673 156.906 144.94 156.035C145.718 155.737 146.503 155.062 147.186 154.299C147.876 155.062 148.653 155.737 149.431 156.035C151.698 156.899 152.766 155.635 152.766 155.635C152.766 155.635 154.699 157.967 155.571 158.504C156.436 159.034 157.184 159.019 157.184 159.019C157.184 159.019 157.984 155.316 157.061 152.208Z" fill="#972D05"/>
<path d="M152.316 170.195C150.841 171.081 149.031 171.386 147.178 171.386C145.318 171.386 143.516 171.081 142.041 170.195" stroke="#DC8C7A" stroke-width="0.9913" stroke-miterlimit="10"/>
</g>
<path d="M256.889 82.0804C256.889 83.7434 255.254 85.1086 253.256 85.1086H196.301C194.303 85.1086 192.668 83.7434 192.668 82.0804C192.668 80.4175 194.303 79.0522 196.301 79.0522H253.256C255.254 79.0522 256.889 80.4175 256.889 82.0804Z" fill="#E8E8E8"/>
<path d="M336.821 93.6993C336.821 95.3623 335.186 96.7275 333.188 96.7275H196.301C194.303 96.7275 192.668 95.3623 192.668 93.6993C192.668 92.0364 194.303 90.6711 196.301 90.6711H333.188C335.186 90.6711 336.821 92.0364 336.821 93.6993Z" fill="#E8E8E8"/>
<path d="M336.821 105.318C336.821 106.981 335.186 108.347 333.188 108.347H196.301C194.303 108.347 192.668 106.981 192.668 105.318C192.668 103.655 194.303 102.29 196.301 102.29H333.188C335.186 102.29 336.821 103.655 336.821 105.318Z" fill="#E8E8E8"/>
<path d="M336.821 116.937C336.821 118.6 335.186 119.965 333.188 119.965H196.301C194.303 119.965 192.668 118.6 192.668 116.937C192.668 115.274 194.303 113.909 196.301 113.909H333.188C335.186 113.909 336.821 115.274 336.821 116.937Z" fill="#E8E8E8"/>
<path d="M280.302 75.799H270.129V85.9655H280.302V75.799Z" stroke="#E8E8E8" stroke-width="3" stroke-miterlimit="10"/>
<path d="M301.919 75.799H291.746V85.9655H301.919V75.799Z" stroke="#E8E8E8" stroke-width="3" stroke-miterlimit="10"/>
<path d="M294.652 77.9775L297.922 82.6977L307.369 73.6204" stroke="#FFA968" stroke-width="3" stroke-miterlimit="10"/>
<path d="M323.538 75.799H313.365V85.9655H323.538V75.799Z" stroke="#E8E8E8" stroke-width="3" stroke-miterlimit="10"/>
<path d="M316.271 77.9775L319.541 82.6977L328.988 73.6204" stroke="#68A2B1" stroke-width="3" stroke-miterlimit="10"/>
<path d="M256.889 150.603C256.889 152.266 255.254 153.631 253.256 153.631H196.301C194.303 153.631 192.668 152.266 192.668 150.603C192.668 148.94 194.303 147.575 196.301 147.575H253.256C255.254 147.575 256.889 148.933 256.889 150.603Z" fill="#E8E8E8"/>
<path d="M336.821 162.222C336.821 163.885 335.186 165.25 333.188 165.25H196.301C194.303 165.25 192.668 163.885 192.668 162.222C192.668 160.559 194.303 159.194 196.301 159.194H333.188C335.186 159.194 336.821 160.552 336.821 162.222Z" fill="#E8E8E8"/>
<path d="M336.821 173.841C336.821 175.504 335.186 176.869 333.188 176.869H196.301C194.303 176.869 192.668 175.504 192.668 173.841C192.668 172.178 194.303 170.813 196.301 170.813H333.188C335.186 170.813 336.821 172.171 336.821 173.841Z" fill="#E8E8E8"/>
<path d="M336.821 185.46C336.821 187.123 335.186 188.488 333.188 188.488H196.301C194.303 188.488 192.668 187.123 192.668 185.46C192.668 183.797 194.303 182.432 196.301 182.432H333.188C335.186 182.432 336.821 183.79 336.821 185.46Z" fill="#E8E8E8"/>
<path d="M280.302 144.322H270.129V154.488H280.302V144.322Z" stroke="#E8E8E8" stroke-width="3" stroke-miterlimit="10"/>
<path d="M273.035 146.5L276.305 151.22L285.752 142.143" stroke="#FF728C" stroke-width="3" stroke-miterlimit="10"/>
<path d="M301.919 144.322H291.746V154.488H301.919V144.322Z" stroke="#E8E8E8" stroke-width="3" stroke-miterlimit="10"/>
<path d="M323.538 144.322H313.365V154.488H323.538V144.322Z" stroke="#E8E8E8" stroke-width="3" stroke-miterlimit="10"/>
<path d="M316.271 146.5L319.541 151.22L328.988 142.143" stroke="#68A2B1" stroke-width="3" stroke-miterlimit="10"/>
<path d="M256.889 219.118C256.889 220.781 255.254 222.147 253.256 222.147H196.301C194.303 222.147 192.668 220.781 192.668 219.118C192.668 217.455 194.303 216.09 196.301 216.09H253.256C255.254 216.097 256.889 217.455 256.889 219.118Z" fill="#E8E8E8"/>
<path d="M336.821 230.737C336.821 232.4 335.186 233.765 333.188 233.765H196.301C194.303 233.765 192.668 232.4 192.668 230.737C192.668 229.074 194.303 227.709 196.301 227.709H333.188C335.186 227.716 336.821 229.074 336.821 230.737Z" fill="#E8E8E8"/>
<path d="M336.821 242.356C336.821 244.019 335.186 245.384 333.188 245.384H196.301C194.303 245.384 192.668 244.019 192.668 242.356C192.668 240.693 194.303 239.328 196.301 239.328H333.188C335.186 239.335 336.821 240.693 336.821 242.356Z" fill="#E8E8E8"/>
<path d="M336.821 253.975C336.821 255.638 335.186 257.003 333.188 257.003H196.301C194.303 257.003 192.668 255.638 192.668 253.975C192.668 252.312 194.303 250.947 196.301 250.947H333.188C335.186 250.954 336.821 252.312 336.821 253.975Z" fill="#E8E8E8"/>
<path d="M280.302 212.844H270.129V223.011H280.302V212.844Z" stroke="#E8E8E8" stroke-width="3" stroke-miterlimit="10"/>
<path d="M273.035 215.023L276.305 219.743L285.752 210.666" stroke="#FF728C" stroke-width="3" stroke-miterlimit="10"/>
<path d="M301.919 212.844H291.746V223.011H301.919V212.844Z" stroke="#E8E8E8" stroke-width="3" stroke-miterlimit="10"/>
<path d="M294.652 215.023L297.922 219.743L307.369 210.666" stroke="#FFA968" stroke-width="3" stroke-miterlimit="10"/>
<path d="M323.538 212.844H313.365V223.011H323.538V212.844Z" stroke="#E8E8E8" stroke-width="3" stroke-miterlimit="10"/>
<path d="M316.271 215.023L319.541 219.743L328.988 210.666" stroke="#68A2B1" stroke-width="3" stroke-miterlimit="10"/>
<path d="M193.343 213.73C193.343 222.844 185.953 230.229 176.834 230.229C167.714 230.229 160.324 222.844 160.324 213.73C160.324 204.617 167.714 197.231 176.834 197.231C185.953 197.231 193.343 204.617 193.343 213.73Z" fill="#E87888"/>
<path d="M167.191 213.353L173.76 219.503L186.564 207.558" stroke="white" stroke-width="6" stroke-miterlimit="10"/>
<path d="M357.938 337.951C349.945 338.314 329.962 332.505 319.062 340.493C308.162 348.481 325.602 355.743 337.228 355.38C348.855 355.016 352.125 352.475 360.118 353.564C368.111 354.653 379.955 357.377 388.457 355.38C400.81 352.475 401.537 343.398 394.634 340.13C387.731 336.862 365.931 337.588 357.938 337.951Z" fill="#00b14f" fill-opacity="0.29"/>
<path d="M385.848 346.571C385.819 344.857 384.932 341.953 384.83 339.346C384.656 335.097 383.842 332.788 383.842 332.788C383.842 332.788 381.604 333.79 377.804 333.885C374.011 333.972 373.131 332.853 373.131 332.853C373.131 332.853 372.514 335.591 371.642 338.14C370.639 341.052 368.953 343.71 368.045 345.852C367.464 347.232 367.979 350.463 369.52 351.879C370.457 352.744 371.94 353.39 374.236 353.593C379.468 354.043 383.159 353.237 384.86 351.095C385.768 349.948 385.877 347.994 385.848 346.571Z" fill="#23378B"/>
<path d="M368.568 349.025C368.568 349.025 368.612 350.964 373.488 351.48C381.067 352.279 385.23 349.272 385.39 347.53" stroke="#5F79C5" stroke-miterlimit="10"/>
<path d="M374.178 337.029C374.178 337.029 378.545 336.092 381.568 337.276" stroke="#5F79C5" stroke-miterlimit="10"/>
<path d="M374.047 340.943C374.047 340.943 378.414 340.006 381.437 341.19" stroke="#5F79C5" stroke-miterlimit="10"/>
<path d="M328.267 341.016C329.466 340.246 332.14 338.576 333.194 337.443C335.744 334.691 338.419 332.178 339.291 331.357L350.764 331.495C350.764 331.495 352.021 338.387 351.651 340.95C351.389 342.737 350.125 343.034 347.56 344.494C345.954 345.416 342.597 348.045 340.09 349.207C337.416 350.434 330.592 350.311 327.882 349.076C322.207 346.498 324.881 343.187 328.267 341.016Z" fill="#23378B"/>
<path d="M342.853 335.758C342.853 335.758 340.041 334.306 336.967 334.502" stroke="#5F79C5" stroke-miterlimit="10"/>
<path d="M340.737 338.46C340.737 338.46 337.925 337.007 334.852 337.203" stroke="#5F79C5" stroke-miterlimit="10"/>
<path d="M328.871 348.808C328.871 348.808 333.783 349.527 337.751 348.51C341.144 347.638 343.666 343.819 346.899 342.686C350.133 341.546 351.252 339.534 351.252 339.534" stroke="#5F79C5" stroke-miterlimit="10"/>
<path d="M358.684 227.012C354.593 227.274 334.218 226.497 334.218 226.497C334.218 226.497 331.682 249.56 332.975 258.499C334 265.551 333.985 279.029 334.203 281.614C334.421 284.199 335.751 293.465 335.976 295.491C337.262 306.885 336.783 330.922 336.783 330.922C336.783 330.922 338.149 332.781 343.395 333.463C348.83 334.168 353.081 333.34 353.081 333.34L354.527 320.661C354.527 320.661 356.722 299.834 356.816 294.692C356.911 289.551 353.764 279.515 353.764 279.515L357.492 256.938C357.492 256.938 361.089 246.859 360.806 238.798C360.53 230.737 358.684 227.012 358.684 227.012Z" fill="#4A68CA"/>
<path d="M360.814 238.805C360.531 230.745 358.685 227.019 358.685 227.019C356.738 227.143 351.084 227.034 345.707 226.881C346.492 232.27 348.229 243.177 350.481 251.092C352.305 257.505 354.202 264.614 355.444 269.385L357.493 256.953C357.501 256.945 361.098 246.866 360.814 238.805Z" fill="#3955BC"/>
<path d="M374.722 227.208C370.733 228.174 350.539 230.919 350.539 230.919C350.539 230.919 353.438 254.041 354.666 260.976C355.902 267.911 358.598 282.572 359.266 285.085C359.927 287.598 362.841 296.493 363.415 298.447C366.649 309.449 371.118 333.333 371.118 333.333C371.118 333.333 372.789 334.93 378.065 334.691C383.536 334.451 386.385 333.035 386.385 333.035C386.385 333.035 384.844 300.575 384.052 295.499C383.26 290.423 379.809 279.392 379.809 279.392L378.733 256.887C378.733 256.887 380.528 246.336 378.857 238.442C377.185 230.556 374.722 227.208 374.722 227.208Z" fill="#4A68CA"/>
<path d="M304.267 141.112C304.267 141.112 310.16 148.054 312.34 151.504C314.52 154.953 318.698 161.489 318.698 161.489C318.698 161.489 325.601 162.396 328.145 162.578C330.688 162.759 337.242 161.837 340.498 162.215C343.746 162.592 345.766 165.846 345.766 165.846L334.684 185.997C334.684 185.997 324.33 182.911 320.333 181.096C316.337 179.28 309.978 175.983 307.798 173.834C305.618 171.684 303.242 167.857 301.077 163.123C297.93 156.238 294.9 148.054 295.082 147.328C295.264 146.602 297.654 143.828 299.536 142.942C301.418 142.056 304.267 141.112 304.267 141.112Z" fill="#AACCFF"/>
<path d="M302.654 140.204C302.654 140.204 304.252 140.618 304.434 142.346C304.616 144.075 303.221 146.573 300.91 147.575C297.938 148.86 296.201 147.103 296.201 147.103L294.85 143.559L302.654 140.204Z" fill="#4A68CA"/>
<path d="M303.155 138.694C302.654 136.355 301.883 135.019 300.946 133.131C300.009 131.243 299.246 130.161 297.981 128.215C296.717 126.269 295.016 123.342 292.72 121.912C291.79 121.331 290.853 122.972 291.449 123.909C292.248 125.158 292.473 125.826 293.425 126.951C294.246 127.924 294.45 129.478 294.871 130.655C294.362 130.604 293.265 130.582 292.51 130.793C291.725 131.018 291.194 132.274 291.194 132.274C291.194 132.274 290.373 132.173 289.915 132.565C289.465 132.957 289.065 134.554 289.065 134.554C289.065 134.554 288.426 134.7 287.823 135.382C287.219 136.065 287.554 138.091 288.041 139.028C288.527 139.965 289.378 142.317 291.158 142.267C291.754 142.252 292.306 142.085 292.836 141.845C294.58 145.375 297.138 147.059 300.532 145.752C303.932 144.445 303.78 141.584 303.155 138.694Z" fill="#FFC39F"/>
<path d="M299.455 135.23C299.455 135.23 298.038 133.923 296.454 133.683C294.391 133.378 293.112 133.669 293.504 134.83C293.897 135.992 295.677 136.769 296.302 138.323C296.934 139.899 298.685 140.335 298.685 140.335" stroke="#DC8C7A" stroke-miterlimit="10"/>
<path d="M291.209 132.485C291.209 132.485 290.73 137.038 293.295 138.498C294.952 139.442 295.722 137.597 295.722 137.597" stroke="#DC8C7A" stroke-miterlimit="10"/>
<path d="M289.035 134.693C289.035 134.693 289.26 139.267 292.022 140.313C293.802 140.989 294.282 139.05 294.282 139.05" stroke="#DC8C7A" stroke-miterlimit="10"/>
<path d="M292.888 140.683C292.888 140.683 293.011 142.361 291.158 142.274" stroke="#DC8C7A" stroke-miterlimit="10"/>
<path d="M377.135 178.278C376.721 171.822 378.363 166.056 376.525 163.667C373.851 160.189 361.737 158.214 351.39 159.404C347.916 159.797 341.733 161.539 339.785 162.07C337.009 162.825 333.776 163.791 331.741 165.061C327.272 167.865 328.435 174.545 328.151 177.065C327.745 180.725 330.128 192.301 331.712 198.48C332.969 203.397 333.035 230.89 333.035 230.89C333.035 230.89 336.174 236.089 354.573 234.543C370.355 233.221 375.791 228.065 375.791 228.065C375.791 228.065 374.352 211.711 374.352 203.985C374.359 196.28 377.527 184.407 377.135 178.278Z" fill="#AACCFF"/>
<path d="M350.78 156.863C353.629 156.238 359.682 155.309 362.516 157.908C365.35 160.501 364.928 164.546 362.785 167.262C360.641 169.978 354.792 174.691 354.792 174.691L349.581 169.005L344.495 173.725C344.495 173.725 340.796 167.16 342.104 162.883C343.405 158.598 347.932 157.487 350.78 156.863Z" fill="#4A68CA"/>
<path d="M330.644 192.642C330.644 192.642 327.134 176.695 328.413 171.597" stroke="#85B1E6" stroke-miterlimit="10"/>
<path d="M345.684 153.653L359.403 147.902L362.354 161.053L349.456 168.387L344.652 162.985L345.684 153.653Z" fill="#FFC39F"/>
<path d="M344.282 129.907C344.282 129.907 339.508 132.071 339.028 138.273C338.541 144.481 341.136 145.113 343.395 143.806C345.648 142.506 352.856 135.419 352.856 135.419L350.807 128.128L344.282 129.907Z" fill="#50172A"/>
<path d="M342.168 133.814C339.276 137.546 339.828 140.531 339.945 144.924C340.061 149.187 340.787 153.167 343.723 155.403C347.618 158.373 352.508 158.664 356.89 154.866C358.845 153.167 361.548 149.674 363.038 145.759C364.869 140.959 361.984 130.938 356.992 128.694C352.007 126.457 345.06 130.081 342.168 133.814Z" fill="#FFC39F"/>
<path d="M366.118 135.063C365.326 131.686 362.078 130.836 362.078 130.836L357.289 133.189C357.289 133.189 355.974 135.963 358.823 138.178C359.782 138.926 359.622 142.143 359.033 144.779C358.452 147.408 359.753 147.633 360.581 146.101C361.41 144.561 363.611 144.859 364.759 144.46C365.922 144.053 366.576 137.009 366.118 135.063Z" fill="#50172A"/>
<path d="M345.691 156.747C345.691 156.747 348.983 158.511 352.406 157.553C355.828 156.594 358.757 152.557 358.757 152.557" stroke="#DC8C7A" stroke-miterlimit="10"/>
<path d="M364.222 132.55C364.222 132.55 364.353 128.571 358.663 125.906C352.973 123.241 343.89 125.782 342.074 127.721C340.548 129.348 342.56 130.502 342.56 130.502C342.56 130.502 339.654 131.468 339.051 133.167C338.448 134.859 340.504 136.922 344.624 136.675C348.744 136.435 351.04 136.072 351.04 136.072C351.04 136.072 350.19 137.764 352.494 138.011C354.797 138.258 360.182 134.852 360.698 134.598C361.722 134.097 364.222 132.55 364.222 132.55Z" fill="#50172A"/>
<path d="M361.497 143.973C362.87 141.816 367.215 141.94 366.707 144.888C366.205 147.844 362.434 151.46 360.109 149.942C358.852 149.114 360.123 146.13 361.497 143.973Z" fill="#FFC39F"/>
<path d="M344.683 144.038C344.312 144.59 343.564 144.736 343.012 144.372C342.459 144.002 342.307 143.261 342.677 142.71C343.048 142.158 343.789 142.005 344.349 142.375C344.901 142.739 345.046 143.487 344.683 144.038Z" fill="#412500"/>
<path d="M353.642 144.024C353.344 144.619 352.625 144.866 352.029 144.569C351.433 144.271 351.186 143.552 351.484 142.956C351.782 142.361 352.501 142.121 353.097 142.412C353.693 142.71 353.94 143.428 353.642 144.024Z" fill="#412500"/>
<path d="M347.153 140.575C347.276 141.453 347.305 142.325 347.276 143.196C347.262 143.639 347.225 144.075 347.153 144.532C347.116 144.757 347.066 145.004 346.942 145.295C346.819 145.585 346.622 145.825 346.433 146.006C345.591 146.74 345.387 146.856 345.554 147.161C345.692 147.422 345.968 147.742 346.252 148.04C346.535 148.345 346.848 148.642 347.16 148.991C346.695 148.977 346.252 148.86 345.823 148.693C345.394 148.519 344.973 148.316 344.58 147.902C344.399 147.691 344.174 147.408 344.152 146.936C344.137 146.58 344.239 146.232 344.421 145.941C344.813 145.382 345.242 145.164 345.496 144.953C345.765 144.743 345.859 144.656 345.997 144.227C346.128 143.85 346.245 143.443 346.368 143.036C346.593 142.23 346.84 141.402 347.153 140.575Z" fill="#DC8C7A"/>
<path d="M345.474 140.821C345.285 140.676 345.104 140.531 344.886 140.429C344.537 140.27 344.174 140.095 343.796 140.008C343.374 139.906 342.953 139.994 342.546 140.11C342.168 140.211 341.798 140.342 341.434 140.48C341.144 140.596 340.947 140.865 341.035 141.185C341.107 141.461 341.449 141.7 341.739 141.584C342.081 141.446 342.422 141.323 342.771 141.221C342.96 141.17 343.149 141.119 343.345 141.09C343.411 141.083 343.469 141.076 343.367 141.083C343.396 141.083 343.425 141.076 343.454 141.076C343.469 141.076 343.52 141.09 343.534 141.083C343.432 141.068 343.418 141.068 343.476 141.076C343.491 141.076 343.512 141.083 343.527 141.083C343.854 141.148 344.166 141.272 344.472 141.388C344.661 141.461 344.849 141.497 345.038 141.548C345.227 141.591 345.431 141.519 345.533 141.344C345.634 141.199 345.627 140.945 345.474 140.821Z" fill="#50172A"/>
<path d="M350.582 141.773C350.808 141.649 350.931 141.613 351.207 141.526C351.767 141.352 352.297 141.185 352.893 141.192C353.431 141.199 353.91 141.366 354.383 141.591C354.477 141.635 354.579 141.678 354.673 141.729C354.746 141.766 354.811 141.809 354.891 141.831C355.037 141.86 355.073 141.86 355.008 141.845C354.971 141.831 354.979 141.838 355.029 141.853C355.233 141.896 355.393 141.947 355.596 141.853C355.538 141.86 355.487 141.867 355.429 141.874C355.495 141.896 355.458 141.911 355.386 141.838C355.574 142.012 355.858 141.729 355.669 141.555C355.785 141.664 355.713 141.613 355.676 141.548C355.683 141.606 355.691 141.657 355.698 141.715C355.734 141.577 355.712 141.453 355.647 141.33C355.633 141.301 355.495 141.068 355.473 141.076C355.553 141.221 355.553 141.214 355.48 141.054C355.451 141.018 355.422 140.981 355.4 140.945C355.342 140.887 355.255 140.836 355.189 140.785C355.08 140.713 354.979 140.64 354.862 140.589C354.252 140.299 353.576 140.132 352.9 140.153C351.905 140.182 350.88 140.495 350.132 141.17C349.79 141.475 350.212 141.976 350.582 141.773Z" fill="#50172A"/>
<path d="M347.807 150.865C347.807 150.865 348.65 150.48 350.154 149.855C351.658 149.231 351.971 150.015 351.949 151.213C351.927 152.411 349.718 153.639 348.141 153.559C345.838 153.45 344.719 152.513 345.002 151.068C345.278 149.616 347.807 150.865 347.807 150.865Z" fill="white"/>
<path d="M397.176 202.7C397.721 200.521 395.178 191.625 393.361 187.45C391.544 183.274 388.471 176.063 384.096 169.564C379.373 162.542 371.743 159.492 367.703 162.825C366.039 164.197 368.633 173.935 371.627 180.638C373.494 184.814 376.19 187.929 377.258 189.069C378.138 190.703 382.461 200.71 382.461 200.71C382.461 200.71 379.736 205.975 378.646 209.787C377.556 213.6 375.195 221.951 375.195 221.951L380.463 229.757C380.463 229.757 386.639 224.129 390.999 217.775C395.359 211.421 396.631 204.878 397.176 202.7Z" fill="#AACCFF"/>
<path d="M370.652 180.188C370.652 180.188 372.469 183.819 373.377 185.09C374.286 186.36 375.921 187.994 375.921 187.994" stroke="#85B1E6" stroke-miterlimit="10"/>
<path d="M376.066 231.093C376.066 231.093 374.867 230.912 374.489 230.258C373.85 229.14 374.846 228.363 375.296 227.789C373.661 227.55 373.109 225.465 374.293 224.216C373.232 223.476 373.08 221.711 374.308 220.723C374.308 220.723 376.626 219.859 377.476 219.685C378.326 219.504 379.678 220.143 379.743 221.072C379.809 222.002 379.133 222.357 379.133 222.357C379.133 222.357 380.542 222.895 380.63 224.245C380.681 225.139 379.62 225.611 379.62 225.611C379.62 225.611 380.608 225.262 381.182 226.257C381.996 227.666 380.717 228.348 380.579 228.566C381.226 228.748 381.705 229.249 381.669 230.331C381.64 231.115 381.051 231.754 380.368 232.219C379.685 232.691 379.772 232.553 378.791 232.989C377.803 233.424 376.43 234.659 375.601 233.758C374.78 232.865 376.066 231.093 376.066 231.093Z" fill="#FFC39F"/>
<path d="M379.787 225.298C378.588 226.635 375.188 228.007 375.188 228.007" stroke="#DC8C7A" stroke-miterlimit="10"/>
<path d="M376.227 231.333C376.227 231.333 379.78 230.454 381.052 228.138" stroke="#DC8C7A" stroke-miterlimit="10"/>
<path d="M374.17 224.267C374.17 224.267 377.832 223.49 379.336 222.437" stroke="#DC8C7A" stroke-miterlimit="10"/>
<path d="M335.521 98.0129H309.616C306.666 98.0129 304.268 100.409 304.268 103.358V116.945C304.268 119.9 306.666 122.289 309.616 122.289H324.774C324.81 123.582 325.166 125.702 326.925 127.082C329.599 129.181 332.854 129.377 332.854 129.377C332.854 129.377 330.936 125.971 330.863 122.297H335.528C338.486 122.297 340.876 119.9 340.876 116.952V103.358C340.869 100.402 338.478 98.0129 335.521 98.0129Z" fill="#488EAC"/>
<path d="M316.169 109.821C316.169 110.765 315.406 111.527 314.462 111.527C313.517 111.527 312.754 110.765 312.754 109.821C312.754 108.877 313.517 108.114 314.462 108.114C315.406 108.114 316.169 108.877 316.169 109.821Z" fill="white"/>
<path d="M324.271 109.821C324.271 110.765 323.508 111.527 322.563 111.527C321.618 111.527 320.855 110.765 320.855 109.821C320.855 108.877 321.618 108.114 322.563 108.114C323.508 108.114 324.271 108.877 324.271 109.821Z" fill="white"/>
<path d="M332.374 109.821C332.374 110.765 331.611 111.527 330.667 111.527C329.722 111.527 328.959 110.765 328.959 109.821C328.959 108.877 329.722 108.114 330.667 108.114C331.611 108.114 332.374 108.877 332.374 109.821Z" fill="white"/>
<path d="M95.4489 332.701C108.478 332.243 124.457 333.449 128.497 342.446C132.537 351.444 108.383 354.443 99.1185 353.317C89.8537 352.192 81.4899 358.19 73.4168 357.442C65.3365 356.694 56.1589 349.57 59.8285 343.194C63.498 336.818 70.4739 334.197 74.5141 333.071C78.5615 331.953 84.8034 333.071 95.4489 332.701Z" fill="#00b14f" fill-opacity="0.29"/>
<path d="M116.973 192.533C116.973 192.533 121.522 209.576 123.397 215.495C125.272 221.406 123.208 225.378 117.322 225.473C111.429 225.56 107.832 193.056 107.832 193.056L116.973 192.533Z" fill="#FFC39F"/>
<path d="M118.883 197.413C117.975 194.138 116.805 186.702 113.724 182.461C110.643 178.227 103.377 175.7 101.873 176.869C100.368 178.046 102.468 187.864 107.01 199.04C110.069 196.934 112.772 196.781 118.883 197.413Z" fill="#AACCFF"/>
<path d="M84.3173 327.218C84.3173 327.218 85.2982 327.407 85.865 328.438C86.1194 328.896 86.272 331.779 86.272 332.628C86.2647 335.497 85.7415 334.734 85.4363 335.569C85.1892 336.237 85.1093 337.247 85.0439 337.704C84.8986 338.721 85.2692 342.432 84.6661 344.763C84.0629 347.101 81.1345 350.55 77.8355 350.957C75.0815 351.298 71.2593 350.5 70.9905 346.796C70.7216 343.092 73.0106 338.641 74.3767 335.838C75.7355 333.035 77.2687 328.482 79.6812 327.552C82.0719 326.623 84.3173 327.218 84.3173 327.218Z" fill="#23378B"/>
<path d="M74.1804 300.72C75.314 308.562 77.2469 318.235 77.2396 320.958C77.2323 323.682 76.5638 327.69 76.0624 330.094C75.5538 332.49 74.7835 333.507 73.8243 336.796C72.9378 339.839 73.5119 340.631 74.6309 341.793C75.75 342.954 78.424 342.962 79.9355 342.482C81.4469 341.996 83.6559 340.18 83.9248 338.474C84.1936 336.767 84.7968 333.26 85.2981 330.856C85.8068 328.453 85.0075 323.805 85.3417 320.595C85.6687 317.378 88.9677 304.409 89.9415 299.1C91.1768 292.361 88.7788 281.839 88.7788 281.839L74.5364 282.151C74.551 282.151 73.0541 292.877 74.1804 300.72Z" fill="#FFC39F"/>
<path d="M90.4277 251.862C90.4277 251.862 92.7311 260.99 92.4913 266.996C92.2007 274.417 90.3477 283.974 87.9352 287.198C85.53 290.422 77.5732 289.239 75.6912 288.004C73.8091 286.77 73.286 279.159 72.087 270.576C70.888 261.992 72.77 251.513 72.77 251.513L90.4277 251.862Z" fill="#FFC39F"/>
<path d="M90.4277 251.862L72.77 251.506C72.77 251.506 70.888 261.985 72.087 270.569C72.5302 273.727 72.879 276.741 73.2351 279.37C77.5514 280.604 83.5027 281.904 90.1079 282.217C91.4014 277.874 92.3024 271.963 92.4913 266.988C92.7311 260.99 90.4277 251.862 90.4277 251.862Z" fill="#F0AF8E"/>
<path d="M98.0289 326.281C99.286 325.192 103.283 325.715 104.721 328.765C106.167 331.822 107.425 336.499 107.425 336.499C107.425 336.499 110.004 339.839 112.315 340.798C114.626 341.764 121.304 348.938 114.451 350.049C107.592 351.16 102.65 347.021 101.117 343.165C99.5912 339.324 99.1262 337.886 97.4549 336.063C95.7763 334.24 95.4784 328.496 98.0289 326.281Z" fill="#23378B"/>
<path d="M96.3281 332.875C96.3281 332.875 96.8804 336.724 97.5416 339.055C98.2102 341.386 97.7451 343.528 98.2755 344.153C98.806 344.77 100.136 344.814 100.165 344.233C100.194 343.652 99.5399 338.314 99.1039 336.07L96.3281 332.875Z" fill="#23378B"/>
<path d="M95.5224 285.463C95.5224 285.463 94.3453 290.343 94.3089 297.125C94.2653 303.908 98.3709 317.277 99.0685 320.929C99.6644 324.008 97.6733 326.891 97.6515 329.36C97.6297 331.837 100.362 334.262 101.394 336.891C102.433 339.527 103.596 341.793 106.095 342.729C108.595 343.659 111.814 343.87 113.42 342.933C115.018 341.996 112.155 339.876 110.76 337.813C109.024 335.235 107.599 331.583 107.178 329.658C105.87 323.587 108.508 308.969 109.104 302.136C109.699 295.31 112.453 285.412 109.99 282.347C107.527 279.276 96.329 285.129 95.5224 285.463Z" fill="#FFC39F"/>
<path d="M91.2344 258.797C91.2344 258.797 91.7358 267.925 92.5205 273.103C93.3053 278.281 95.9867 291.12 95.9867 291.12C95.9867 291.12 108.449 295.005 110.069 290.633C111.69 286.261 113.092 265.972 112.402 259.828C111.711 253.685 109.408 251.042 109.408 251.042L93.0437 250.337L91.2344 258.797Z" fill="#FFC39F"/>
<path d="M112.394 259.828C111.704 253.685 109.401 251.042 109.401 251.042L93.0365 250.337L91.2344 258.797C91.2344 258.797 91.7358 267.925 92.5205 273.103C92.8548 275.303 93.5306 278.883 94.1918 282.275C99.9687 282.159 106.058 281.171 111.879 278.673C112.503 271.513 112.794 263.35 112.394 259.828Z" fill="#F0AF8E"/>
<path d="M74.7025 226.664C74.7025 226.664 71.1782 233.911 69.7322 242.109C68.2862 250.308 68.5042 255.82 68.7004 263.307C68.8602 269.392 69.9139 275.979 69.9139 275.979C69.9139 275.979 82.9718 278.942 93.6463 278.883C104.321 278.825 113.891 276.502 113.891 276.502C113.891 276.502 114.719 268.15 114.668 263.009C114.603 256.539 114.596 249.386 114.007 243.852C113.302 237.251 110.018 226.94 110.018 226.94L74.7025 226.664Z" fill="#4A68CA"/>
<path d="M111.058 229.997C111.058 229.997 109.263 214.442 109.75 211.363C110.237 208.291 110.963 203.578 112.395 200.005C113.819 196.433 113.725 193.339 111.508 190.209C109.292 187.079 109.394 181.219 107.345 178.663C105.295 176.099 97.8473 175.453 93.1313 174.771C88.4153 174.088 74.5872 176.68 72.9013 180.798C70.3435 187.036 73.3591 198.299 76.6508 208.625C78.6055 214.754 74.4564 227.833 74.4564 227.833C74.4564 227.833 81.7374 233.482 95.5438 233.511C101.858 233.526 111.058 229.997 111.058 229.997Z" fill="#AACCFF"/>
<path d="M109.023 181.96C109.023 181.96 109.35 186.288 110.404 187.98C111.45 189.672 113.369 193.397 113.354 195.554C113.347 197.166 112.344 199.817 111.53 202.605" stroke="#85B1E6" stroke-miterlimit="10"/>
<path d="M85.1816 175.257C87.1799 173.18 91.1328 173.536 93.2837 173.885C95.4346 174.233 99.453 174.945 100.616 178.111C101.778 181.27 99.8527 188.328 99.8527 188.328L94.9841 182.512L91.111 188.88C91.111 188.88 87.8629 185.758 86.2352 183.506C84.6075 181.263 83.1833 177.334 85.1816 175.257Z" fill="#4A68CA"/>
<path d="M76.7302 155.026C76.3087 155.919 75.9236 161.104 76.9336 166.579C78.7939 176.673 89.4829 175.642 94.7366 176.012C99.9903 176.39 100.361 180.638 103.987 179.011C107.613 177.385 105.12 172.737 104.99 169.891C104.859 166.993 105.302 163.936 105.585 161.416C105.869 158.896 106.232 152.992 104.089 151.576C100.492 149.202 77.1516 154.132 76.7302 155.026Z" fill="#50172A"/>
<path d="M92.1784 142.31C92.1784 142.31 105.265 143.261 105.781 153.116C105.977 156.957 105.193 160.457 103.798 164.023C102.402 167.581 100.513 169.934 92.8105 169.077C85.108 168.22 83.9091 157.393 85.2534 151.01C86.5977 144.627 92.1784 142.31 92.1784 142.31Z" fill="#50172A"/>
<path d="M97.9198 169.68L98.2323 177.269C98.2323 177.269 97.106 181.517 94.9842 181.894C92.8623 182.272 85.8574 176.775 85.8574 176.775L87.5215 167.814L97.9198 169.68Z" fill="#FFC39F"/>
<path d="M84.2589 148.621C87.3253 144.554 91.3873 143.407 96.1324 145.019C99.3514 146.115 102.454 150.886 103.166 154.597C103.755 157.603 105.092 168.845 96.7064 171.481C91.6852 173.057 90.4863 171.887 87.3399 170.094C79.6374 165.722 79.3249 155.171 84.2589 148.621Z" fill="#FFC39F"/>
<path d="M86.5186 157.081C85.5013 158.7 85.4504 159.521 83.0525 162.07C82.6601 162.491 84.4186 166.579 82.7763 167.305C81.1414 168.031 79.0195 165.461 77.5226 162.324C76.0257 159.187 76.2292 153.551 77.2756 150.719C78.5908 147.176 82.6819 141.853 89.6722 141.286C96.5318 140.727 101.706 144.06 101.132 148.526C100.746 151.525 96.0304 153.762 93.7342 154.713C91.4453 155.665 87.5359 155.461 86.5186 157.081Z" fill="#50172A"/>
<path d="M92.4277 160.131C92.544 160.85 92.0571 161.525 91.3377 161.634C90.6183 161.75 89.9498 161.263 89.8336 160.545C89.7173 159.826 90.2042 159.158 90.9235 159.041C91.6357 158.925 92.3114 159.412 92.4277 160.131Z" fill="#522C31"/>
<path d="M100.951 159.572C101.067 160.29 100.573 160.959 99.8612 161.075C99.1418 161.191 98.466 160.704 98.357 159.985C98.2407 159.267 98.7276 158.591 99.447 158.482C100.159 158.366 100.835 158.853 100.951 159.572Z" fill="#522C31"/>
<path d="M96.2485 157.996C96.4375 158.548 96.5247 159.07 96.6409 159.557C96.6918 159.797 96.7427 160.029 96.8081 160.225C96.8444 160.414 96.997 160.574 96.8953 160.443L97.1133 160.69C97.1423 160.748 97.2876 160.908 97.4184 161.067C97.5638 161.227 97.7164 161.409 97.869 161.605C98.0216 161.815 98.1742 162.033 98.2904 162.353C98.3486 162.512 98.3849 162.701 98.3776 162.912C98.3704 163.13 98.2832 163.355 98.1669 163.507C98.0361 163.682 97.9344 163.74 97.8326 163.827C97.7309 163.907 97.6219 163.987 97.5129 164.052C97.3022 164.19 97.0769 164.292 96.8444 164.379C96.3939 164.553 95.9215 164.64 95.4492 164.64C95.8489 164.401 96.2122 164.139 96.5392 163.856C96.6991 163.711 96.8517 163.565 96.9825 163.42C97.0551 163.348 97.106 163.268 97.1641 163.188C97.215 163.108 97.2804 163.014 97.2586 162.992C97.2295 162.934 97.2077 162.97 97.135 162.861C97.0624 162.767 96.9389 162.636 96.8008 162.498C96.6627 162.353 96.5029 162.207 96.343 162.04C96.1759 161.859 96.0087 161.692 95.8198 161.351L96.0378 161.597C95.7617 161.38 95.6599 161.14 95.5945 160.951C95.5292 160.755 95.5074 160.588 95.4928 160.428C95.4783 160.109 95.5074 159.818 95.5655 159.535C95.6236 159.259 95.7108 158.99 95.8198 158.729C95.9361 158.482 96.0669 158.228 96.2485 157.996Z" fill="#DC816B"/>
<path d="M89.0988 156.914C89.0915 156.921 89.077 156.921 89.0697 156.928C89.1787 156.914 89.2877 156.899 89.3967 156.885C89.2078 156.834 89.0334 156.877 88.8881 157.008C88.7427 157.139 88.7137 157.378 88.7863 157.553C88.8663 157.734 89.0407 157.85 89.2369 157.858C89.3967 157.865 89.5639 157.829 89.7092 157.756C89.7237 157.749 89.7455 157.742 89.76 157.727C89.8327 157.683 89.6656 157.749 89.7092 157.749C89.7455 157.749 89.7964 157.72 89.84 157.712C89.8908 157.698 89.9344 157.691 89.9853 157.683C89.9998 157.683 90.0943 157.669 90.0071 157.676C89.9199 157.691 90.0144 157.676 90.0289 157.676C90.1452 157.662 90.2614 157.654 90.3777 157.654C90.4794 157.647 90.5812 157.647 90.6829 157.633C90.7338 157.625 90.7846 157.625 90.8355 157.618C90.8864 157.611 90.9445 157.604 90.9954 157.596C90.9736 157.596 90.9518 157.604 90.9372 157.604C90.959 157.589 91.0099 157.596 91.0317 157.596C91.1552 157.589 91.2787 157.596 91.4023 157.596C91.4822 157.596 91.286 157.575 91.3659 157.589C91.395 157.596 91.4168 157.596 91.4459 157.604C91.5476 157.618 91.6348 157.625 91.7293 157.625C91.9545 157.611 92.1435 157.495 92.2379 157.284C92.3179 157.102 92.2961 156.812 92.1217 156.681C91.9618 156.558 91.8237 156.471 91.6203 156.442C91.4604 156.42 91.3005 156.398 91.1407 156.405C90.9663 156.413 90.7846 156.434 90.6102 156.463C90.5594 156.471 90.5012 156.471 90.4504 156.485C90.4794 156.478 90.5739 156.471 90.494 156.478C90.4576 156.485 90.4286 156.485 90.3922 156.492C90.1234 156.529 89.8472 156.551 89.5857 156.63C89.513 156.652 89.4476 156.681 89.3822 156.71C89.1569 156.805 89.5493 156.638 89.3313 156.732C89.3023 156.747 89.2659 156.761 89.2369 156.776C89.1715 156.812 89.1061 156.863 89.0479 156.914C88.9825 156.972 89.1279 156.87 89.0697 156.899C89.0407 156.914 89.0116 156.928 88.9825 156.943C89.2223 157.132 89.4694 157.313 89.7092 157.502C89.76 157.378 89.7164 157.197 89.6438 157.088C89.6583 157.197 89.6728 157.306 89.6874 157.415C89.6874 157.4 89.6874 157.393 89.6947 157.378C89.7165 157.211 89.6947 157.059 89.5493 156.957C89.4113 156.841 89.2441 156.834 89.0988 156.914Z" fill="#50172A"/>
<path d="M98.1893 155.991C98.1748 155.999 98.1675 155.999 98.153 156.006C98.262 155.991 98.371 155.977 98.48 155.962C98.2838 155.911 98.1166 155.955 97.9641 156.086C97.8115 156.216 97.7897 156.456 97.8623 156.63C97.9423 156.812 98.1166 156.928 98.3128 156.935C98.4727 156.943 98.6398 156.906 98.7852 156.834C98.7997 156.826 98.8215 156.819 98.836 156.805C98.9087 156.761 98.7488 156.826 98.7852 156.826C98.8215 156.826 98.8724 156.797 98.916 156.79C98.9668 156.776 99.0104 156.768 99.0613 156.761C99.0758 156.761 99.1703 156.747 99.0831 156.754C98.9959 156.768 99.0904 156.754 99.1049 156.754C99.2212 156.739 99.3374 156.732 99.4537 156.725C99.5554 156.718 99.6571 156.718 99.7589 156.703C99.8097 156.696 99.8606 156.696 99.9115 156.689C99.9623 156.681 100.02 156.674 100.071 156.667C100.05 156.667 100.028 156.674 100.013 156.674C100.035 156.659 100.086 156.667 100.108 156.667C100.231 156.659 100.355 156.667 100.478 156.667C100.558 156.667 100.362 156.645 100.442 156.659C100.471 156.667 100.493 156.667 100.522 156.674C100.624 156.689 100.711 156.696 100.805 156.696C101.031 156.681 101.219 156.565 101.314 156.354C101.394 156.173 101.372 155.882 101.198 155.752C101.038 155.628 100.9 155.541 100.696 155.512C100.536 155.49 100.377 155.469 100.217 155.476C100.042 155.483 99.8606 155.505 99.6862 155.534C99.6354 155.541 99.5845 155.548 99.5264 155.563C99.4319 155.577 99.57 155.556 99.57 155.556C99.57 155.556 99.4755 155.57 99.4682 155.57C99.1994 155.606 98.9232 155.628 98.6616 155.708C98.589 155.73 98.5236 155.759 98.4582 155.788C98.2329 155.882 98.6253 155.715 98.4073 155.81C98.3782 155.824 98.3419 155.839 98.3128 155.853C98.2474 155.89 98.182 155.941 98.1239 155.991C98.0585 156.049 98.2038 155.948 98.1457 155.977C98.1166 155.991 98.0876 156.006 98.0585 156.02C98.2838 156.246 98.509 156.471 98.7343 156.696C98.8142 156.514 98.8288 156.34 98.7198 156.166C98.7343 156.275 98.7488 156.384 98.7634 156.492C98.7634 156.478 98.7706 156.471 98.7706 156.456C98.7924 156.289 98.7706 156.137 98.6253 156.035C98.4945 155.919 98.3346 155.919 98.1893 155.991Z" fill="#50172A"/>
<path d="M92.1735 164.989C92.3915 165.592 92.7766 165.976 93.2053 166.209C93.6413 166.434 94.1499 166.543 94.6877 166.594C95.2254 166.652 95.7413 166.644 96.2354 166.543C96.715 166.412 97.2019 166.165 97.6161 165.671C97.6524 166.332 97.1873 166.986 96.5697 167.327C95.9448 167.676 95.2254 167.756 94.5714 167.683C93.9174 167.61 93.2198 167.392 92.6894 166.884C92.1517 166.39 91.9191 165.599 92.1735 164.989Z" fill="#DC7769"/>
<path d="M97.2501 171.575C93.5587 172.766 91.2915 172.004 88.959 170.784" stroke="#DC8C7A" stroke-width="0.9913" stroke-miterlimit="10"/>
<path d="M81.2995 197.994C81.2995 197.994 81.8518 206.127 82.4767 211.755C83.1016 217.376 83.8936 222.807 80.5365 224.347C77.1794 225.894 72.369 220.593 71.0392 217.586C69.7021 214.58 68.7793 201.719 68.7793 201.719L81.2995 197.994Z" fill="#FFC39F"/>
<path d="M67.4868 190.18C66.4477 196.128 68.2352 203.585 68.2352 203.585C68.2352 203.585 70.6768 202.046 74.1356 201.581C77.5945 201.116 82.0779 201.719 82.0779 201.719C82.0779 201.719 83.3932 196.062 82.434 189.766C81.4748 183.47 79.4692 178.539 75.7415 178.423C72.0138 178.322 68.5259 184.233 67.4868 190.18Z" fill="#AACCFF"/>
<path d="M95.4925 197.006C95.4925 197.006 89.5412 200.666 84.6581 205.081C79.7823 209.497 74.9501 215.139 74.6739 218.414C74.3906 221.689 77.5224 226.896 83.2484 224.877C88.9672 222.858 93.5378 213.745 95.8413 209.976C98.1448 206.214 100.296 201.53 100.296 201.53L95.4925 197.006Z" fill="#FFC39F"/>
<path d="M81.5473 207.921C81.5473 207.921 77.4563 210.557 75.8867 214.159" stroke="#DC8C7A" stroke-width="0.9913" stroke-miterlimit="10"/>
<path d="M81.0391 185.627C81.0391 185.627 82.565 189.505 82.645 192.976C82.7249 196.447 81.8529 201.167 81.8529 201.167" stroke="#85B1E6" stroke-miterlimit="10"/>
<path d="M100.101 190.463C100.697 184.719 104.032 175.78 104.032 175.78L124.567 179.854C124.567 179.854 122.641 186.891 121.043 192.395C119.175 198.814 119.473 206.381 119.473 206.381C119.473 206.381 109.656 206.33 105.769 205.771C101.881 205.205 98.2188 205.612 98.2188 205.612C98.2188 205.612 99.3378 197.827 100.101 190.463Z" fill="#F0F0F0"/>
<path d="M99.025 186.702C99.025 186.702 98.945 185.838 99.2284 185.162C99.5845 184.313 100.507 183.761 102.898 185.583C104.322 186.673 104.598 187.878 104.315 188.503C104.039 189.12 102.796 189.004 102.796 189.004C102.796 189.004 104.562 191.001 104.068 192.33C103.574 193.659 102.215 192.635 102.215 192.635C102.215 192.635 102.753 193.709 102.636 194.436C102.52 195.162 102.142 195.605 101.597 195.685C101.045 195.757 100.384 195.133 100.384 195.133C100.384 195.133 100.696 196.382 100.718 197.754C100.74 198.873 100.573 200.071 99.8969 200.746C98.3928 202.249 96.7505 200.848 95.7696 198.248C94.7886 195.648 95.9367 192.78 95.9367 192.78C95.9367 192.78 95.6388 192.126 95.7914 191.407C96.0021 190.405 97.0267 189.803 97.0267 189.803C97.0267 189.803 96.9177 188.59 97.0775 188.023C97.3755 186.927 99.025 186.702 99.025 186.702Z" fill="#FFC39F"/>
<path d="M102.31 188.786C102.31 188.786 100.965 187.087 99.3594 186.84" stroke="#DC8C7A" stroke-width="0.9913" stroke-miterlimit="10"/>
<path d="M102.208 192.627C102.208 192.627 100.02 188.975 97.252 189.715" stroke="#DC8C7A" stroke-width="0.9913" stroke-miterlimit="10"/>
<path d="M100.916 195.605C100.916 195.605 99.7385 192.547 97.6094 192.816" stroke="#DC8C7A" stroke-width="0.9913" stroke-miterlimit="10"/>
<path d="M99.2799 193.506C99.2799 193.506 98.6332 193.855 98.248 194.479" stroke="#DC8C7A" stroke-width="0.9913" stroke-miterlimit="10"/>
<path d="M99.3598 193.782C99.3598 193.782 102.216 198.974 99.5633 200.811C97.7467 202.068 95.7266 199.417 95.7266 199.417" stroke="#DC8C7A" stroke-width="0.9913" stroke-miterlimit="10"/>
<path d="M131.948 200.673L123.737 231.289L99.2637 229.074L105.942 198.321L131.948 200.673Z" fill="#8B563B"/>
<path d="M125.488 199.969L124.704 203.048L111.609 201.639L112.22 198.342L115.272 198.124C115.272 198.124 115.41 196.491 119.312 196.679C122.894 196.854 123.098 199.206 123.098 199.206L125.488 199.969Z" fill="#B3C2CF"/>
<path d="M128.634 213.251L128.046 214.391C128.046 214.391 125.139 214.856 124.224 214.848C122.741 214.834 122.778 216.192 123.286 216.555C123.286 216.555 121.295 216.315 120.707 217.18C120.111 218.044 120.874 218.523 120.874 218.523C120.874 218.523 120.024 219.002 120.038 219.547C120.053 220.091 120.445 220.869 120.445 220.869C120.445 220.869 119.5 221.123 119.878 221.951C120.256 222.778 123.548 225.218 125.975 223.788C128.402 222.364 128.838 220.288 128.794 218.937C128.772 218.334 129.383 216.468 129.434 215.625C129.506 214.58 129.194 213.607 128.634 213.251Z" fill="#FFC39F"/>
<path d="M127.508 216.875C127.508 216.875 125.176 217.347 123.795 216.78" stroke="#DC8C7A" stroke-width="0.9913" stroke-miterlimit="10"/>
<path d="M127.58 219.314C127.58 219.314 123.896 220.171 121.629 219.002" stroke="#DC8C7A" stroke-width="0.9913" stroke-miterlimit="10"/>
<path d="M127.037 221.805C127.037 221.805 122.604 222.59 120.453 220.869" stroke="#DC8C7A" stroke-width="0.9913" stroke-miterlimit="10"/>
<path d="M97.1055 158.889C97.1055 160.951 98.7259 162.629 100.731 162.629C102.737 162.629 104.357 160.951 104.357 158.889C104.357 156.819 102.737 155.149 100.731 155.149C98.7332 155.149 97.1055 156.827 97.1055 158.889Z" stroke="#5674C5" stroke-width="1.5" stroke-miterlimit="10"/>
<path d="M87.8262 159.455C87.8262 161.518 89.4466 163.195 91.4522 163.195C93.4577 163.195 95.0782 161.518 95.0782 159.455C95.0782 157.393 93.4577 155.715 91.4522 155.715C89.4466 155.715 87.8262 157.386 87.8262 159.455Z" stroke="#5674C5" stroke-width="1.5" stroke-miterlimit="10"/>
<path d="M97.1052 158.889C97.1052 158.889 96.0443 157.742 94.918 158.867" stroke="#5674C5" stroke-width="1.5" stroke-miterlimit="10"/>
<path d="M87.6086 159.15C87.6086 159.15 84.702 158.119 83.2051 158.962" stroke="#5674C5" stroke-width="1.5" stroke-miterlimit="10"/>
<path d="M79.9065 159.448C80.3135 158.279 81.4252 157.299 82.5297 157.792C83.6706 158.301 85.073 159.542 85.4581 161.808C85.7633 163.558 84.4626 164.967 83.3363 164.822C82.2027 164.684 81.5706 164.408 81.0183 163.834C79.8048 162.571 79.2889 161.234 79.9065 159.448Z" fill="#FFC39F"/>
<path d="M101.334 110.714H127.24C130.19 110.714 132.588 113.11 132.588 116.059V129.645C132.588 132.601 130.19 134.99 127.24 134.99H112.089C112.053 136.283 111.697 138.403 109.938 139.783C107.264 141.882 104.009 142.078 104.009 142.078C104.009 142.078 105.934 138.672 106 134.997H101.334C98.3843 134.997 95.9863 132.601 95.9863 129.653V116.059C95.9863 113.103 98.3843 110.714 101.334 110.714Z" fill="#488EAC"/>
<path d="M120.686 122.522C120.686 123.466 121.449 124.228 122.393 124.228C123.338 124.228 124.101 123.466 124.101 122.522C124.101 121.578 123.338 120.815 122.393 120.815C121.449 120.815 120.686 121.578 120.686 122.522Z" fill="white"/>
<path d="M112.584 122.522C112.584 123.466 113.347 124.228 114.292 124.228C115.236 124.228 115.999 123.466 115.999 122.522C115.999 121.578 115.236 120.815 114.292 120.815C113.354 120.815 112.584 121.578 112.584 122.522Z" fill="white"/>
<path d="M104.488 122.522C104.488 123.466 105.251 124.228 106.196 124.228C107.141 124.228 107.904 123.466 107.904 122.522C107.904 121.578 107.141 120.815 106.196 120.815C105.251 120.815 104.488 121.578 104.488 122.522Z" fill="white"/>
<path d="M195.802 287.073L192.492 290.379L201.652 299.536L204.962 296.229L195.802 287.073Z" fill="#B6BFC5"/>
<path d="M242.465 329.237C243.838 330.609 243.838 332.839 242.465 334.219L239.66 337.022C238.286 338.394 236.056 338.394 234.675 337.022L199.382 301.751C198.008 300.378 198.008 298.142 199.382 296.769L202.186 293.966C203.56 292.594 205.791 292.594 207.171 293.966L242.465 329.237Z" fill="#8B563B"/>
<path opacity="0.5" d="M191.947 286.53C182.392 296.079 166.9 296.079 157.344 286.53C147.789 276.981 147.789 261.499 157.344 251.949C166.9 242.4 182.392 242.4 191.947 251.949C201.503 261.499 201.503 276.981 191.947 286.53Z" fill="white"/>
<g opacity="0.6">
<mask id="mask6_118_16667" style="mask-type:luminance" maskUnits="userSpaceOnUse" x="150" y="244" width="50" height="50">
<path d="M191.947 286.53C182.392 296.079 166.9 296.079 157.344 286.53C147.789 276.981 147.789 261.499 157.344 251.949C166.9 242.4 182.392 242.4 191.947 251.949C201.503 261.499 201.503 276.981 191.947 286.53Z" fill="white"/>
</mask>
<g mask="url(#mask6_118_16667)">
<path d="M203.89 245.463L149.484 299.825L154.987 305.325L209.393 250.963L203.89 245.463Z" fill="white"/>
<path d="M211.827 253.407L157.43 307.769L159.495 309.834L213.893 255.471L211.827 253.407Z" fill="white"/>
<path d="M189.806 231.387L135.424 285.765L137.49 287.828L191.872 233.45L189.806 231.387Z" fill="white"/>
</g>
</g>
<path d="M152.658 247.265C140.515 259.4 140.515 279.072 152.658 291.207C164.8 303.341 184.485 303.341 196.627 291.207C208.77 279.072 208.77 259.4 196.627 247.265C184.485 235.138 164.8 235.138 152.658 247.265ZM191.773 286.356C182.312 295.811 166.973 295.811 157.512 286.356C148.051 276.901 148.051 261.571 157.512 252.116C166.973 242.661 182.312 242.661 191.773 252.116C201.234 261.571 201.234 276.901 191.773 286.356Z" fill="#384772"/>
</g>
</g>
<defs>
<clipPath id="clip0_118_16667">
<rect width="458" height="411" fill="white" transform="translate(0 0.5)"/>
</clipPath>
<clipPath id="clip1_118_16667">
<rect width="340" height="303" fill="white" transform="translate(59 54.5)"/>
</clipPath>
</defs>
</svg>
