<svg width="458" height="412" viewBox="0 0 458 412" fill="none" xmlns="http://www.w3.org/2000/svg">
<g clip-path="url(#clip0_3_3556)">
<rect width="458" height="411" transform="translate(0 0.5)" fill="#00b14f" fill-opacity="0.1"/>
<path d="M126.578 311.283C119.024 305.999 112.138 299.82 106.07 292.88C75.6955 257.803 80.1584 208.324 105.772 171.926C135.862 129.156 183.223 92.4825 235.038 74.3549C254.032 67.7053 275.473 65.2574 294.675 71.3697C311.191 76.5938 324.878 87.7883 335.162 100.826C359.716 131.88 370.119 179.464 372.403 218.242C374.231 248.616 367.925 280.566 348.984 304.35C305.997 358.241 219.06 352.285 161.438 329.672C149.125 324.957 137.422 318.784 126.578 311.283Z" fill="#00b14f" fill-opacity="0.29"/>
<path opacity="0.7" d="M137.863 172.21H71.3672C71.5388 170.218 72.6284 167.8 74.3524 166.71C75.204 166.174 76.1652 165.835 77.165 165.72C78.1648 165.605 79.1777 165.717 80.1288 166.046C79.4005 162.383 80.0858 158.581 82.0468 155.403C82.995 153.81 84.2946 152.453 85.8467 151.438C87.3987 150.423 89.1621 149.775 91.0024 149.545C92.8394 149.354 94.6942 149.658 96.3741 150.425C98.0539 151.193 99.4976 152.397 100.555 153.911C100.737 153.055 101.173 152.273 101.807 151.67C102.441 151.067 103.243 150.669 104.107 150.53C104.982 150.394 105.877 150.525 106.676 150.905C107.475 151.286 108.141 151.899 108.585 152.665C109.225 151.366 110.143 150.224 111.274 149.321C112.405 148.418 113.722 147.776 115.13 147.44C116.55 147.07 118.041 147.074 119.458 147.45C120.876 147.827 122.172 148.564 123.22 149.59C125.75 152.202 126.116 156.157 126.332 159.784C127.235 158.605 129.012 158.448 130.43 158.896C131.13 159.141 131.77 159.535 132.305 160.05C132.839 160.565 133.256 161.19 133.527 161.881C134.06 163.276 134.22 164.787 133.989 166.262C134.597 166.327 135.184 166.518 135.713 166.823C136.243 167.127 136.703 167.539 137.064 168.031C137.804 169.29 138.086 170.767 137.863 172.21Z" fill="white"/>
<path opacity="0.7" d="M343.679 100.035H286.766C286.147 93.9604 289.654 87.4825 295.154 84.848C297.94 83.5708 301.044 83.1576 304.066 83.6618C307.089 84.166 309.891 85.5644 312.11 87.6765C312.762 86.5514 313.764 85.6699 314.963 85.1661C316.162 84.6623 317.492 84.5638 318.752 84.8854C320.058 85.2188 321.225 85.9562 322.087 86.9921C322.949 88.0281 323.461 89.3098 323.551 90.6543C323.809 90.1877 324.205 89.8125 324.685 89.58C325.165 89.3475 325.704 89.2691 326.23 89.3557C326.722 89.4537 327.166 89.7136 327.492 90.0938C327.818 90.4739 328.007 90.9525 328.029 91.4528C328.381 90.4205 328.955 89.4779 329.711 88.6914C330.466 87.9049 331.385 87.2935 332.402 86.9004C333.383 86.5286 334.435 86.3845 335.48 86.4789C336.525 86.5733 337.534 86.9037 338.432 87.4452C340.195 88.6272 341.48 90.3965 342.059 92.4379C342.694 94.4455 343.642 97.9382 343.679 100.035Z" fill="white"/>
<path opacity="0.7" d="M208.114 300.559H155.03C154.784 297.687 155.396 294.806 156.788 292.282C158.181 289.758 160.29 287.704 162.851 286.379C165.446 285.187 168.339 284.799 171.158 285.264C173.976 285.73 176.59 287.028 178.665 288.991C179.272 287.94 180.208 287.116 181.328 286.647C182.448 286.178 183.691 286.089 184.867 286.394C186.084 286.706 187.173 287.393 187.977 288.359C188.781 289.326 189.26 290.521 189.344 291.775C189.586 291.34 189.956 290.991 190.403 290.773C190.85 290.555 191.353 290.481 191.845 290.559C192.302 290.654 192.715 290.898 193.019 291.253C193.323 291.608 193.501 292.054 193.524 292.521C193.852 291.559 194.387 290.68 195.091 289.947C195.795 289.213 196.651 288.643 197.599 288.275C198.514 287.927 199.496 287.792 200.471 287.879C201.446 287.967 202.388 288.276 203.226 288.782C204.872 289.882 206.07 291.534 206.606 293.439C207.383 295.746 207.889 298.135 208.114 300.559Z" fill="white"/>
<path opacity="0.7" d="M292.34 129.507H262.607C262.641 128.347 263.005 127.221 263.655 126.26C264.305 125.3 265.215 124.544 266.279 124.081C267.334 123.647 268.493 123.527 269.614 123.736C270.736 123.945 271.773 124.475 272.6 125.26C272.615 124.787 272.778 124.331 273.068 123.957C273.358 123.583 273.758 123.31 274.212 123.178C274.678 123.037 275.175 123.037 275.64 123.179C276.105 123.321 276.518 123.599 276.824 123.977C277.497 121.633 279.019 119.624 281.093 118.342C282.135 117.716 283.317 117.359 284.531 117.305C285.746 117.25 286.955 117.499 288.049 118.029C289.907 119.111 291.274 120.871 291.862 122.939C292.504 124.969 292.377 127.38 292.34 129.507Z" fill="white"/>
<path opacity="0.7" d="M379.547 333.904H342.688C342.73 332.468 343.179 331.075 343.984 329.885C344.789 328.696 345.916 327.76 347.232 327.187C348.545 326.653 349.983 326.509 351.375 326.774C352.767 327.039 354.052 327.701 355.076 328.68C355.1 328.096 355.304 327.534 355.661 327.071C356.018 326.609 356.51 326.269 357.069 326.098C357.646 325.922 358.263 325.922 358.84 326.099C359.417 326.276 359.928 326.621 360.308 327.09C361.138 324.183 363.025 321.691 365.599 320.105C366.891 319.329 368.357 318.886 369.863 318.817C371.369 318.748 372.868 319.054 374.226 319.709C376.534 321.05 378.228 323.237 378.95 325.806C379.749 328.277 379.592 331.269 379.547 333.904Z" fill="white"/>
<path d="M152.945 326.12C152.49 329.471 150.087 332.262 147.303 333.889C144.52 335.516 141.4 336.128 138.348 336.755C135.295 337.382 132.333 337.956 129.332 337.643C126.332 337.329 123.287 336.008 121.601 333.351C120.026 330.956 119.705 327.844 119.429 324.881L113.809 263.722C113.615 261.669 113.436 259.602 113.242 257.55C122.377 255.102 132.034 252.273 141.176 254.012C140.678 258.384 140.55 262.791 140.796 267.184C141 270.195 141.727 273.147 142.945 275.909C145.02 280.431 148.774 284.312 148.915 289.409C149.087 295.066 144.669 300.201 144.967 305.828C145.176 309.612 147.445 312.768 149.49 315.784C151.535 318.799 153.475 322.351 152.945 326.12Z" fill="white"/>
<path d="M140.759 267.184C131.803 265.761 122.807 264.607 113.772 263.722C113.578 261.669 113.399 259.602 113.205 257.55C122.34 255.102 131.997 252.273 141.139 254.012C140.641 258.384 140.513 262.791 140.759 267.184Z" fill="#E5E5E5"/>
<path d="M143.14 251.124L141.969 257.221L112.176 258.102L107.99 257.296C107.019 257.117 106.094 256.747 105.268 256.209C104.442 255.67 103.73 254.972 103.175 254.157C102.62 253.342 102.232 252.424 102.033 251.458C101.835 250.491 101.83 249.495 102.019 248.527L103.004 243.407L143.14 251.124Z" fill="#19437F"/>
<path d="M135.858 248.325L91.5945 239.81C87.085 230.711 85.6804 220.384 87.5956 210.411C89.5108 200.437 94.6403 191.366 102.199 184.584L146.463 193.107L135.858 248.325Z" fill="#19437F"/>
<path d="M148.7 253.997L99.5042 244.527C94.4936 234.41 92.9358 222.931 95.0694 211.845C97.2031 200.759 102.91 190.677 111.318 183.143L160.522 192.614L148.7 253.997Z" fill="#D33C39"/>
<path d="M167.736 226.322C171.016 209.406 167.669 194.528 160.261 193.092C152.853 191.655 144.189 204.205 140.909 221.121C137.629 238.038 140.976 252.916 148.384 254.352C155.792 255.788 164.456 243.239 167.736 226.322Z" fill="#E5E5E5"/>
<path d="M283.548 248.124L267.436 288.894L251.054 330.307C251.054 330.307 221.762 268.095 153.259 250.93C151.741 250.544 150.356 249.755 149.25 248.646C148.143 247.537 147.358 246.15 146.975 244.631C146.542 242.937 146.184 241.265 145.915 239.594C143.577 225.548 146.754 212.558 155.446 200.622C157.319 198.055 160.446 197.069 163.61 197.107C235.614 197.965 283.854 159.724 283.854 159.724L283.548 248.124Z" fill="white"/>
<path d="M365.871 264.499C376.246 210.621 356.949 161.608 322.769 155.026C288.589 148.444 252.47 186.785 242.095 240.664C231.719 294.542 251.017 343.555 285.197 350.137C319.377 356.719 355.496 318.378 365.871 264.499Z" fill="#E5E5E5"/>
<path d="M302.789 251.833L300.603 273.924L267.833 275.103L237.548 276.185C237.548 276.185 236.712 257.154 240.063 239.758C243.414 222.362 251.257 204.995 251.257 204.995L278.975 217.242L308.969 230.496L302.789 251.833Z" fill="#D33C39"/>
<path d="M262.526 244.086C258.31 265.99 267.833 275.103 267.833 275.103L237.548 276.185C237.548 276.185 236.712 257.154 240.063 239.758C243.414 222.362 251.257 204.995 251.257 204.995L278.975 217.242C278.975 217.242 266.75 222.168 262.526 244.086Z" fill="#AD1E0B"/>
<path d="M316.044 254.397C318.226 243.069 314.065 232.743 306.752 231.335C299.438 229.927 291.741 237.968 289.559 249.297C287.378 260.625 291.538 270.951 298.852 272.359C306.165 273.768 313.863 265.726 316.044 254.397Z" fill="white"/>
<path d="M298.573 273.744C290.498 272.185 285.826 261.095 288.125 249.012C290.423 236.929 298.916 228.369 306.984 229.922C315.051 231.474 319.738 242.571 317.432 254.654C315.126 266.737 306.685 275.297 298.573 273.744ZM306.469 232.698C299.939 231.437 292.983 238.989 290.953 249.519C288.923 260.05 292.588 269.67 299.11 270.908C305.633 272.147 312.603 264.617 314.626 254.079C316.648 243.542 312.999 233.981 306.469 232.728V232.698Z" fill="#D33C39"/>
<path d="M312.08 253.624C310.341 262.662 304.773 269.184 299.639 268.199C294.504 267.214 291.758 259.08 293.497 250.042C295.236 241.004 300.81 234.511 305.937 235.467C311.065 236.422 313.826 244.579 312.08 253.624Z" fill="#19437F"/>
<path d="M249.922 321.082C245.772 312.978 241.959 304.664 240.22 295.708C239.22 290.618 239.787 285.439 239.302 280.304C238.981 276.924 238.22 273.521 238.317 270.125C235.332 268.403 232.326 266.724 229.301 265.087C203.479 251.236 174.956 245.243 145.939 239.631C146.208 241.303 146.566 242.974 146.999 244.669C147.381 246.187 148.167 247.575 149.274 248.683C150.38 249.792 151.765 250.581 153.283 250.967C221.786 268.08 251.049 330.322 251.049 330.322L252.638 326.314C251.713 324.573 250.807 322.829 249.922 321.082Z" fill="#E5E5E5"/>
<path d="M367.383 264.266C365.357 275.009 362.174 285.501 357.89 295.559C353.657 305.698 348.104 315.233 341.375 323.918C334.568 332.538 326.449 340.404 316.568 345.852C311.61 348.635 306.257 350.649 300.694 351.822C289.237 354.201 277.304 352.062 267.386 345.852C262.526 342.774 258.162 338.974 254.446 334.583C250.755 330.273 247.577 325.55 244.975 320.508C242.381 315.521 240.243 310.311 238.587 304.94C235.326 294.266 233.524 283.2 233.228 272.043C232.56 249.782 236.821 227.648 245.706 207.226C250.113 196.977 255.887 187.372 262.871 178.673C266.41 174.305 270.334 170.263 274.596 166.598C278.883 162.881 283.586 159.673 288.611 157.038C293.701 154.361 299.166 152.469 304.821 151.425C316.337 149.346 328.211 151.781 337.979 158.224C342.707 161.381 346.929 165.236 350.502 169.658C357.659 178.382 362.279 188.696 365.428 199.226C368.448 209.789 370.062 220.705 370.227 231.69C370.457 242.62 369.504 253.542 367.383 264.266ZM363.652 263.52C365.645 253.058 366.5 242.411 366.204 231.765C365.923 221.157 364.208 210.636 361.107 200.487C359.562 195.463 357.563 190.59 355.137 185.927C352.752 181.303 349.837 176.972 346.45 173.023C343.126 169.13 339.234 165.762 334.904 163.03C326.306 157.662 315.967 155.822 306.045 157.896C301.106 158.953 296.355 160.752 291.955 163.232C282.999 168.15 275.446 175.449 269.051 183.576C262.666 191.832 257.396 200.893 253.378 210.525C245.203 229.909 241.183 250.792 241.579 271.826C241.732 282.26 243.257 292.628 246.117 302.664C249.042 312.582 253.371 322.179 259.834 330.06C262.998 333.994 266.74 337.426 270.931 340.24C279.371 345.863 289.66 348.003 299.642 346.21C304.675 345.284 309.539 343.601 314.068 341.218C318.679 338.811 322.994 335.876 326.926 332.471C330.915 329.041 334.586 325.259 337.897 321.172C344.542 312.898 350.039 303.766 354.241 294.021C358.472 284.234 361.63 274.017 363.659 263.55L363.652 263.52Z" fill="#D33C39"/>
<path d="M131.238 239.213C129.029 225.623 131.634 211.689 138.604 199.816C139.536 198.234 136.969 196.98 136.044 198.554C128.829 210.885 126.122 225.339 128.387 239.444C128.685 241.228 131.536 241.034 131.238 239.213Z" fill="#19437F"/>
<path d="M121.019 237.25C118.809 223.661 121.414 209.726 128.385 197.853C129.325 196.263 126.758 195.01 125.825 196.584C118.609 208.922 115.905 223.385 118.176 237.497C118.467 239.273 121.318 239.071 121.019 237.25Z" fill="#19437F"/>
<path d="M110.81 235.258C108.601 221.668 111.206 207.734 118.176 195.86C119.109 194.278 116.541 193.024 115.616 194.599C108.401 206.929 105.694 221.384 107.959 235.489C108.257 237.31 111.101 237.101 110.81 235.258Z" fill="#19437F"/>
<path d="M159.142 260.027C153.731 265.639 143.044 265.96 144.111 271.573C158 270.677 164.306 266.222 164.306 266.222L164.65 268.02L169.307 266.602C169.307 266.602 170.359 261.699 168.448 258.191L159.142 260.027Z" fill="black"/>
<path d="M159.141 260.027C160.715 260.577 162.408 260.696 164.044 260.374C165.68 260.051 167.2 259.298 168.448 258.191L167.559 251.027L157.984 252.893L159.141 260.027Z" fill="#EFAD9C"/>
<path d="M160.932 202.144C207.329 192.912 231.136 180.569 231.136 180.569L212.307 165.516C212.307 165.516 186.686 173.494 150.901 188.651C148.545 189.647 146.615 191.44 145.447 193.715C144.279 195.991 143.949 198.605 144.513 201.099C148.334 217.996 153.513 239.609 157.946 255.579C161.387 256.923 166.857 256.094 169.633 253.564C169.596 253.542 166.745 229.287 160.932 202.144Z" fill="#19437F"/>
<path d="M203.457 275.401C199.628 282.193 189.374 285.193 191.814 290.327C205.039 285.969 210.017 280.066 210.017 280.066L210.8 281.722L214.95 279.178C214.95 279.178 214.733 274.162 211.965 271.252L203.457 275.401Z" fill="black"/>
<path d="M203.455 275.401C205.118 275.537 206.786 275.226 208.288 274.502C209.79 273.778 211.072 272.666 212.001 271.282L209.344 264.565L200.545 268.782L203.455 275.401Z" fill="#EFAD9C"/>
<path d="M192.21 218.705C204.21 212.906 223.621 203.405 233.883 196.532C239.906 192.509 242.592 183.278 242.13 176.068L241.383 163.971C241.383 163.971 209.897 184.815 178.694 207.935C176.638 209.453 175.181 211.645 174.579 214.129C173.978 216.612 174.269 219.228 175.403 221.518C183.082 237.041 192.568 257.52 200.583 272.02C204.24 272.52 209.442 269.737 211.539 266.625C206.63 250.075 200.157 234.029 192.21 218.705Z" fill="#19437F"/>
<path d="M181.179 136.604C171.059 130.104 163.835 122.566 153.872 113.61C153.872 113.61 152.775 108.752 158.141 107.132C166.507 116.431 177.403 118.633 185.007 125.663C189.485 121.357 194.903 116.745 198.224 111.909L219.628 104.199C219.628 104.199 210.359 119.126 189.545 136.149C188.378 137.1 186.939 137.657 185.436 137.739C183.933 137.821 182.442 137.423 181.179 136.604Z" fill="#EFAD9C"/>
<path d="M159.38 118.835L155.723 115.849C155.723 115.849 158.708 111.603 161.633 109.431L165.365 113.118L159.38 118.835Z" fill="white"/>
<path d="M225.07 100.729C225.07 100.729 193.292 137.731 186.523 138.492C179.754 139.253 158.738 118.924 158.738 118.924L165.067 112.207C167.041 114.19 169.337 115.822 171.858 117.036C176.269 118.902 182.665 122.7 184.993 125.603C184.993 125.603 204.979 102.991 206.949 102.155L208.091 101.602C213.136 99.3859 222.226 100.752 225.07 100.729Z" fill="#19437F"/>
<path d="M144.051 103.043C144.024 103.271 144.086 103.501 144.226 103.684C144.365 103.866 144.57 103.987 144.798 104.02C146.201 104.356 147.619 104.632 149.044 104.834C148.843 106.531 149.043 108.251 149.626 109.857C149.895 110.647 150.332 111.371 150.907 111.978C151.481 112.584 152.18 113.06 152.955 113.372C154.619 113.902 156.627 113.028 157.895 111.969C158.967 110.993 159.888 109.864 160.627 108.618C160.791 108.364 160.963 108.11 161.142 107.871C161.239 107.752 161.328 107.64 161.433 107.528L161.56 107.394L161.604 107.349C161.724 107.245 161.851 107.155 161.978 107.058L162.179 106.968L162.351 106.909H162.492C162.676 106.867 162.849 106.789 163 106.677C163.205 106.521 163.353 106.303 163.423 106.056C163.493 105.808 163.481 105.544 163.388 105.304C163.217 104.926 162.903 104.63 162.515 104.483C161.784 104.237 160.989 104.263 160.276 104.558C159.367 104.926 158.576 105.538 157.992 106.327C157.94 106.073 157.88 105.827 157.821 105.58C157.008 101.894 155.913 98.2765 154.544 94.7589C154.463 94.5693 154.316 94.4152 154.131 94.3243C153.946 94.2334 153.734 94.2116 153.534 94.2629C153.334 94.3142 153.159 94.4353 153.041 94.6042C152.922 94.7731 152.868 94.9788 152.888 95.1843L153.701 99.483C153.791 99.9531 153.873 100.416 153.955 100.886C152.512 99.2342 151.067 97.5874 149.619 95.9455C149.328 95.6171 149.044 95.4305 148.656 95.647C148.268 95.8634 148.29 96.3933 148.447 96.7963C149.175 98.5029 150.121 100.108 151.261 101.573C149.813 100.826 147.932 100.013 146.529 99.2068C146.338 99.1208 146.122 99.1082 145.922 99.1716C145.723 99.2349 145.553 99.3697 145.447 99.5501C145.208 99.9457 145.551 100.296 145.857 100.632C146.731 101.513 148.343 102.207 149.335 102.953C148.163 102.767 146.104 102.677 144.947 102.401C144.746 102.387 144.547 102.444 144.384 102.561C144.22 102.678 144.103 102.848 144.051 103.043Z" fill="#EFAD9C"/>
<path d="M156.76 97.0723L159.066 100.132L161.372 103.192L173.775 92.2587C174.169 89.8208 173.139 88.455 170.686 88.1615L156.76 97.0723Z" fill="#D33C39"/>
<path d="M140.85 105.207L145.014 110.722L149.171 116.245L163.507 102.58C163.351 98.8485 161.5 96.3708 157.932 95.1917L140.85 105.207Z" fill="#AD1E0B"/>
<path d="M117.744 116.961L124.625 126.089L131.498 135.253L151.932 115.103C152.43 108.356 149.362 104.282 142.73 102.879L117.744 116.961Z" fill="#D33C39"/>
<path d="M131.871 120.626C135.67 125.671 135.506 132.201 131.498 135.216C127.49 138.231 121.177 136.589 117.378 131.552C113.579 126.514 113.743 119.976 117.744 116.961C121.744 113.946 128.072 115.588 131.871 120.626Z" fill="#19437F"/>
<path d="M129.365 132.39C131.815 130.544 131.676 126.23 129.057 122.754C126.438 119.278 122.329 117.956 119.88 119.802C117.431 121.647 117.569 125.961 120.188 129.437C122.808 132.913 126.916 134.235 129.365 132.39Z" fill="white"/>
<path d="M217.932 98.759L208.088 101.625C208.088 101.625 205.043 138.253 199.088 169.762C215.85 181.785 242.179 176.725 242.179 176.725C241.575 138.761 237.075 102.558 237.075 102.558C234.217 100.629 230.929 99.4318 227.5 99.0725L217.932 98.759Z" fill="#F7A60C"/>
<path d="M227.517 98.5576C227.517 98.5576 224.883 170.807 225.077 178.696C225.077 178.696 239.256 179.233 243.615 177.785C243.615 177.785 242.234 113.319 240.63 103.543C238.913 101.155 231.308 98.7591 227.517 98.5576Z" fill="#19437F"/>
<path d="M217.935 98.759C217.935 98.759 211.517 165.852 210.629 176.3C210.629 176.3 199.979 173.673 197.24 168.158C197.24 168.158 205.651 108.58 206.942 102.185C210.375 100.402 214.097 99.2427 217.935 98.759Z" fill="#19437F"/>
<path d="M224.286 131.865H168.664C164.909 131.865 161.865 134.909 161.865 138.664V176.815C161.865 180.57 164.909 183.614 168.664 183.614H224.286C228.041 183.614 231.085 180.57 231.085 176.815V138.664C231.085 134.909 228.041 131.865 224.286 131.865Z" fill="white"/>
<path d="M170.845 152.516C170.994 152.62 171.308 152.769 171.785 152.964C172.278 153.143 172.853 153.232 173.509 153.232C174.032 153.232 174.457 153.143 174.786 152.964C175.129 152.784 175.383 152.516 175.547 152.158C175.726 151.784 175.845 151.307 175.905 150.725C175.965 150.128 175.995 149.411 175.995 148.575V140.358H179.666V148.441C179.666 149.635 179.599 150.725 179.465 151.71C179.331 152.695 179.054 153.553 178.636 154.284C178.233 155.001 177.621 155.553 176.801 155.941C175.98 156.314 174.883 156.501 173.509 156.501C172.808 156.501 172.173 156.419 171.606 156.255C171.039 156.091 170.517 155.844 170.039 155.516L170.845 152.516Z" fill="#19437F"/>
<path d="M189.498 156.389C188.304 156.389 187.222 156.165 186.252 155.717C185.297 155.255 184.468 154.643 183.767 153.881C183.08 153.105 182.55 152.24 182.177 151.284C181.804 150.314 181.617 149.314 181.617 148.284C181.617 147.224 181.811 146.217 182.199 145.262C182.602 144.306 183.155 143.456 183.856 142.709C184.573 141.948 185.416 141.351 186.386 140.918C187.356 140.485 188.416 140.269 189.565 140.269C190.745 140.269 191.812 140.5 192.767 140.963C193.737 141.411 194.566 142.023 195.252 142.799C195.954 143.575 196.491 144.448 196.864 145.418C197.237 146.374 197.424 147.351 197.424 148.351C197.424 149.411 197.23 150.419 196.842 151.374C196.454 152.329 195.902 153.187 195.185 153.949C194.469 154.695 193.625 155.292 192.655 155.74C191.7 156.173 190.648 156.389 189.498 156.389ZM185.356 148.329C185.356 148.941 185.446 149.538 185.625 150.12C185.804 150.687 186.065 151.195 186.409 151.643C186.767 152.09 187.207 152.449 187.73 152.717C188.252 152.986 188.849 153.12 189.521 153.12C190.222 153.12 190.834 152.986 191.357 152.717C191.879 152.434 192.312 152.06 192.655 151.598C192.998 151.135 193.252 150.62 193.416 150.053C193.596 149.471 193.685 148.881 193.685 148.284C193.685 147.672 193.596 147.083 193.416 146.515C193.237 145.948 192.969 145.441 192.61 144.993C192.252 144.53 191.812 144.172 191.289 143.918C190.767 143.665 190.177 143.538 189.521 143.538C188.819 143.538 188.207 143.672 187.685 143.941C187.177 144.209 186.744 144.575 186.386 145.038C186.043 145.486 185.782 146.001 185.603 146.583C185.438 147.15 185.356 147.732 185.356 148.329Z" fill="#19437F"/>
<path d="M199.546 156.255V140.358H203.218V156.255H199.546Z" fill="#19437F"/>
<path d="M209.93 147.165V156.255H206.258V140.358H209.169L216.535 149.717V140.358H220.206V156.255H217.206L209.93 147.165Z" fill="#19437F"/>
<path d="M188.989 175.681C187.72 175.681 186.638 175.472 185.742 175.054C184.847 174.621 184.115 174.039 183.548 173.308C182.996 172.562 182.585 171.718 182.317 170.778C182.063 169.823 181.936 168.823 181.936 167.778V159.651H185.608V167.778C185.608 168.375 185.668 168.957 185.787 169.524C185.906 170.076 186.1 170.569 186.369 171.002C186.638 171.435 186.981 171.778 187.399 172.032C187.832 172.285 188.362 172.412 188.989 172.412C189.63 172.412 190.168 172.285 190.601 172.032C191.033 171.763 191.377 171.412 191.631 170.979C191.884 170.532 192.071 170.032 192.19 169.479C192.31 168.927 192.369 168.36 192.369 167.778V159.651H196.041V167.778C196.041 168.882 195.899 169.912 195.616 170.867C195.347 171.823 194.929 172.666 194.362 173.397C193.795 174.114 193.063 174.674 192.168 175.077C191.287 175.48 190.227 175.681 188.989 175.681Z" fill="#19437F"/>
<path d="M208.424 164.307C208.379 164.233 208.222 164.121 207.954 163.972C207.685 163.807 207.349 163.636 206.946 163.457C206.543 163.278 206.103 163.121 205.625 162.987C205.148 162.852 204.67 162.785 204.192 162.785C203.565 162.785 203.08 162.897 202.737 163.121C202.394 163.33 202.222 163.658 202.222 164.106C202.222 164.464 202.349 164.748 202.603 164.957C202.871 165.166 203.252 165.352 203.745 165.516C204.237 165.666 204.842 165.845 205.558 166.054C206.573 166.322 207.454 166.651 208.2 167.039C208.946 167.412 209.514 167.897 209.902 168.494C210.305 169.091 210.506 169.882 210.506 170.867C210.506 171.763 210.342 172.524 210.014 173.151C209.685 173.763 209.237 174.263 208.67 174.651C208.118 175.024 207.484 175.301 206.767 175.48C206.051 175.644 205.312 175.726 204.551 175.726C203.774 175.726 202.976 175.651 202.155 175.502C201.349 175.338 200.573 175.114 199.827 174.83C199.08 174.532 198.394 174.174 197.767 173.756L199.379 170.554C199.438 170.629 199.632 170.77 199.961 170.979C200.289 171.173 200.692 171.382 201.17 171.606C201.662 171.815 202.207 172.002 202.804 172.166C203.401 172.33 204.006 172.412 204.618 172.412C205.275 172.412 205.76 172.308 206.073 172.099C206.401 171.89 206.566 171.599 206.566 171.226C206.566 170.823 206.394 170.509 206.051 170.285C205.722 170.061 205.267 169.86 204.685 169.681C204.118 169.502 203.461 169.3 202.715 169.076C201.745 168.778 200.939 168.442 200.297 168.069C199.67 167.696 199.2 167.24 198.886 166.703C198.588 166.166 198.438 165.494 198.438 164.688C198.438 163.569 198.7 162.628 199.222 161.867C199.759 161.091 200.476 160.509 201.371 160.121C202.267 159.718 203.245 159.516 204.304 159.516C205.051 159.516 205.767 159.606 206.454 159.785C207.155 159.964 207.804 160.188 208.402 160.457C209.013 160.725 209.558 160.994 210.036 161.263L208.424 164.307Z" fill="#19437F"/>
<path d="M262.152 148.09C253.898 156.844 245.137 162.553 234.487 170.688C234.487 170.688 229.509 170.874 228.912 165.299C239.584 158.792 243.756 148.485 252.047 142.321C248.652 137.097 245.107 130.955 240.965 126.798L240.853 107.871C240.853 107.871 250.309 116.2 263.19 139.798C263.916 141.112 264.207 142.623 264.021 144.113C263.834 145.603 263.18 146.995 262.152 148.09Z" fill="#EFAD9C"/>
<path d="M231.443 164.874C231.443 164.874 223.421 164.359 221.786 164.777C220.152 165.195 213.413 169.479 213.696 169.956C213.98 170.434 220.413 167.523 220.413 167.523C220.413 167.523 214.659 172.553 215.189 173.128C215.719 173.703 221.271 169.479 221.271 169.479C221.271 169.479 217.943 173.956 218.338 174.374C218.734 174.792 223.435 170.538 223.435 170.538C223.435 170.538 219.786 175.509 220.525 175.889C221.264 176.27 225.697 171.225 225.697 171.225C225.697 171.225 229.346 175.046 235.585 169.807L231.443 164.874Z" fill="#EFAD9C"/>
<path d="M240.645 166.247L237.07 169.292C237.07 169.292 233.443 165.561 231.846 162.299L236.152 159.314L240.645 166.247Z" fill="white"/>
<path d="M240.605 103.543C240.605 103.543 265.495 136.38 264.995 143.186C264.495 149.993 240.643 166.896 240.643 166.896L235.225 159.433C237.528 157.858 239.547 155.902 241.195 153.649C243.844 149.657 248.748 144.074 252.031 142.313C252.031 142.313 241.911 126.089 236.113 123.103C236.143 123.111 239.605 109.133 240.605 103.543Z" fill="#19437F"/>
<path d="M222.39 102.08L220.636 106.409L217.576 102.222L217.934 98.759C218.279 99.6823 218.883 100.487 219.673 101.076C220.463 101.665 221.407 102.013 222.39 102.08Z" fill="#E89003"/>
<path d="M222.391 102.08L224.152 106.409L227.376 102.513L227.503 99.0725C226.6 101.117 224.45 101.894 222.391 102.08Z" fill="#E89003"/>
<path d="M261.162 104.55C256.542 106.535 252.348 109.394 247.848 111.633C243.348 113.872 238.295 115.506 233.325 114.752C228.354 113.999 223.563 110.334 222.832 105.364L223.309 104.364L222.376 102.08L221.406 104.468L222.07 105.431C222.064 107.741 222.606 110.02 223.652 112.08C224.698 114.141 226.217 115.923 228.086 117.282C231.888 119.961 236.511 121.219 241.146 120.835C245.753 120.436 250.214 119.019 254.206 116.685C257.497 114.857 260.654 112.558 264.356 111.879C265.304 109.954 266.274 108.05 267.229 106.125C265.266 105.655 263.154 105.021 261.162 104.55Z" fill="#D33C39"/>
<path d="M236.966 65.153C235.892 62.4813 233.041 60.5111 230.25 61.0111C227.265 55.8467 219.257 54.9586 214.13 56.9288C207.771 59.3617 204.375 66.7651 207.943 72.8549C211.51 78.9447 219.272 81.1762 222.802 87.3705C223.548 88.7287 224.541 90.2512 226.294 90.2736C227.906 90.2736 228.981 88.8855 229.847 87.7212C232.291 84.3999 234.263 80.7556 235.705 76.8924C237.101 73.228 238.511 68.9965 236.966 65.153Z" fill="black"/>
<path d="M229.817 66.1606C225.75 58.1005 210.458 60.317 209.078 66.5785C206.227 79.4522 207.906 84.833 211.406 88.0123C215.458 91.6841 218.197 91.3184 217.959 98.759C218.335 99.7025 218.978 100.516 219.81 101.099C220.641 101.683 221.625 102.012 222.64 102.045C223.655 102.078 224.658 101.815 225.526 101.287C226.394 100.759 227.089 99.9893 227.526 99.0725C227.633 93.1369 228.919 87.2818 231.31 81.8478C231.31 81.8478 231.467 69.4891 229.817 66.1606Z" fill="#EFAD9C"/>
<path d="M228.114 67.8621C225.383 71.5489 220.159 70.5115 220.159 70.5115L223.271 67.9965C223.271 67.9965 215.636 72.1982 207.934 70.407C207.934 70.407 206.889 67.5338 210.524 62.8992C212.845 59.914 219.345 59.3991 224.83 60.6006C230.316 61.8022 232.644 64.2724 232.696 68.2353C232.749 72.1982 232.995 77.1909 232.995 77.1909L230.801 78.7582C227.51 76.3775 228.114 67.8621 228.114 67.8621Z" fill="black"/>
<path d="M220.114 78.079C220.102 78.271 220.034 78.4551 219.918 78.6085C219.801 78.7619 219.643 78.8776 219.461 78.9412C219.28 79.0049 219.084 79.0136 218.897 78.9663C218.711 78.919 218.543 78.8178 218.413 78.6753C218.284 78.5328 218.2 78.3554 218.171 78.1653C218.142 77.9751 218.17 77.7807 218.251 77.6064C218.332 77.432 218.463 77.2854 218.627 77.185C218.791 77.0845 218.981 77.0347 219.173 77.0417C219.304 77.0464 219.432 77.0772 219.55 77.1322C219.668 77.1872 219.775 77.2654 219.862 77.3621C219.95 77.4587 220.017 77.572 220.06 77.6951C220.104 77.8182 220.122 77.9488 220.114 78.079Z" fill="black"/>
<path d="M219.149 77.7881C219.149 77.887 219.109 77.9819 219.039 78.0519C218.969 78.1219 218.874 78.1612 218.775 78.1612C218.677 78.1612 218.582 78.1219 218.512 78.0519C218.442 77.9819 218.402 77.887 218.402 77.7881C218.402 77.6891 218.442 77.5942 218.512 77.5242C218.582 77.4542 218.677 77.4149 218.775 77.4149C218.874 77.4149 218.969 77.4542 219.039 77.5242C219.109 77.5942 219.149 77.6891 219.149 77.7881Z" fill="white"/>
<path d="M212.575 77.8327C212.582 77.9677 212.561 78.1026 212.513 78.229C212.465 78.3554 212.392 78.4704 212.297 78.567C212.203 78.6635 212.089 78.7394 211.964 78.7898C211.838 78.8402 211.704 78.8641 211.569 78.86C211.434 78.8559 211.301 78.8238 211.179 78.7658C211.057 78.7077 210.948 78.625 210.86 78.5229C210.771 78.4208 210.705 78.3014 210.665 78.1723C210.625 78.0433 210.612 77.9073 210.627 77.773C210.655 77.5291 210.773 77.3045 210.959 77.1438C211.144 76.9831 211.383 76.8981 211.629 76.9056C211.874 76.9131 212.108 77.0127 212.283 77.1844C212.458 77.3562 212.563 77.5876 212.575 77.8327Z" fill="black"/>
<path d="M211.606 77.5342C211.606 77.5815 211.597 77.6284 211.578 77.672C211.559 77.7155 211.532 77.7549 211.498 77.7876C211.464 77.8204 211.423 77.8459 211.379 77.8626C211.335 77.8794 211.288 77.887 211.24 77.8849C211.141 77.8849 211.046 77.8456 210.976 77.7756C210.906 77.7057 210.867 77.6108 210.867 77.5118C210.867 77.4128 210.906 77.3179 210.976 77.2479C211.046 77.178 211.141 77.1386 211.24 77.1386C211.292 77.136 211.343 77.1447 211.391 77.1641C211.438 77.1835 211.481 77.2131 211.516 77.2508C211.551 77.2886 211.577 77.3335 211.592 77.3825C211.608 77.4314 211.613 77.4832 211.606 77.5342Z" fill="white"/>
<path d="M213.353 74.0564C212.781 73.6148 212.075 73.3808 211.352 73.393C210.63 73.4052 209.932 73.6629 209.375 74.1236C209.267 74.2231 209.196 74.3571 209.176 74.5028C209.156 74.6485 209.186 74.7967 209.263 74.9221C209.297 74.9803 209.343 75.0305 209.397 75.0691C209.452 75.1078 209.515 75.1341 209.581 75.1462C209.647 75.1583 209.715 75.1558 209.78 75.1391C209.845 75.1223 209.905 75.0915 209.957 75.049C210.191 74.8574 210.46 74.715 210.75 74.6304C211.04 74.5457 211.344 74.5206 211.644 74.5564C211.944 74.5872 212.236 74.6759 212.502 74.8176C212.741 74.9445 212.972 75.1609 213.249 75.0192C213.315 74.9811 213.372 74.9273 213.413 74.8624C213.498 74.7421 213.539 74.5958 213.528 74.4487C213.517 74.3016 213.455 74.1629 213.353 74.0564Z" fill="black"/>
<path d="M217.127 74.1609C217.833 73.7597 218.643 73.578 219.452 73.6392C220.262 73.7003 221.035 74.0015 221.672 74.5042C221.79 74.6031 221.864 74.7448 221.877 74.8981C221.89 75.0514 221.842 75.2036 221.743 75.3214C221.644 75.4392 221.503 75.5128 221.349 75.5261C221.196 75.5394 221.044 75.4912 220.926 75.3923C220.397 74.9806 219.738 74.7715 219.068 74.8027C218.725 74.8098 218.386 74.8781 218.068 75.0042C217.784 75.1087 217.508 75.3102 217.202 75.146C217.13 75.1036 217.067 75.0479 217.015 74.9818C216.968 74.9207 216.934 74.851 216.914 74.7765C216.894 74.702 216.889 74.6243 216.9 74.548C216.91 74.4716 216.936 74.398 216.975 74.3316C217.014 74.2651 217.066 74.2071 217.127 74.1609Z" fill="black"/>
<path d="M214.807 83.4524C214.243 83.4372 213.692 83.2834 213.202 83.0047C213.144 82.9714 213.093 82.9271 213.053 82.8742C213.012 82.8212 212.982 82.7608 212.965 82.6964C212.947 82.6319 212.943 82.5646 212.952 82.4984C212.96 82.4322 212.982 82.3684 213.015 82.3106C213.048 82.2521 213.092 82.2006 213.145 82.1591C213.197 82.1177 213.257 82.087 213.322 82.069C213.387 82.051 213.454 82.0459 213.521 82.054C213.587 82.0622 213.651 82.0835 213.709 82.1166C214.217 82.3886 214.798 82.4891 215.367 82.403C215.936 82.3169 216.462 82.0488 216.866 81.6389C216.907 81.5859 216.957 81.5415 217.015 81.5082C217.072 81.4749 217.136 81.4534 217.202 81.4451C217.268 81.4368 217.335 81.4417 217.399 81.4596C217.463 81.4775 217.523 81.508 217.575 81.5494C217.633 81.5904 217.682 81.643 217.718 81.7038C217.754 81.7647 217.777 81.8324 217.785 81.9027C217.794 81.973 217.787 82.0443 217.767 82.1119C217.746 82.1796 217.711 82.2422 217.665 82.2957C217.302 82.6862 216.858 82.9923 216.364 83.1922C215.871 83.3921 215.339 83.481 214.807 83.4524Z" fill="#C16B5B"/>
<path d="M213.702 80.5194C213.675 80.5174 213.649 80.507 213.628 80.4897C213.606 80.4723 213.591 80.4488 213.583 80.4224C213.367 79.5791 213.658 79.3104 213.941 79.2283C214.116 79.1947 214.297 79.2001 214.47 79.2439C214.642 79.2878 214.803 79.3691 214.941 79.482C214.969 79.5017 214.988 79.531 214.995 79.5643C215.002 79.5975 214.996 79.6321 214.979 79.6612C214.954 79.6832 214.922 79.6954 214.889 79.6954C214.856 79.6954 214.824 79.6832 214.8 79.6612C214.69 79.572 214.563 79.5068 214.427 79.4695C214.291 79.4322 214.148 79.4238 214.008 79.4447C213.755 79.5194 213.695 79.8104 213.829 80.3254C213.834 80.3415 213.835 80.3584 213.833 80.3751C213.831 80.3918 213.826 80.4079 213.817 80.4224C213.809 80.437 213.798 80.4498 213.785 80.46C213.771 80.4703 213.756 80.4778 213.74 80.4821L213.702 80.5194Z" fill="#C16B5B"/>
<path d="M234.644 82.2657C233.293 83.7583 231.226 84.139 230.024 83.0643C228.823 81.9896 228.95 79.8925 230.3 78.3775C231.651 76.8625 233.726 76.5118 234.92 77.5864C236.114 78.6611 236.002 80.7284 234.644 82.2657Z" fill="#EFAD9C"/>
<path d="M234.045 78.2881C233.737 78.1366 233.399 78.0579 233.056 78.0579C232.713 78.0579 232.375 78.1366 232.067 78.2881C231.773 78.4042 231.515 78.5975 231.321 78.8478C231.205 78.9896 231.127 79.1582 231.093 79.3381C231.059 79.518 231.071 79.7035 231.127 79.8777C231.236 80.141 231.417 80.3685 231.649 80.5344C231.787 80.6377 231.906 80.7639 232 80.9076C232.051 81.0138 232.069 81.133 232.051 81.2495C232.033 81.366 231.98 81.4743 231.899 81.56C231.818 81.6458 231.713 81.7049 231.598 81.7297C231.483 81.7545 231.363 81.7436 231.254 81.6987C231.224 81.6833 231.191 81.6739 231.158 81.6712C231.124 81.6685 231.091 81.6725 231.059 81.6829C231.027 81.6933 230.997 81.71 230.972 81.7319C230.946 81.7538 230.926 81.7806 230.911 81.8106C230.881 81.8712 230.877 81.9408 230.898 82.0047C230.918 82.0687 230.963 82.1221 231.022 82.1539C231.16 82.221 231.31 82.2566 231.463 82.2584C231.614 82.2655 231.766 82.2406 231.907 82.1853C232.049 82.13 232.177 82.0456 232.284 81.9375C232.441 81.7703 232.542 81.5587 232.574 81.3315C232.606 81.1044 232.567 80.8729 232.463 80.6688C232.338 80.4682 232.179 80.2913 231.993 80.1464C231.834 80.0323 231.706 79.8811 231.62 79.706C231.594 79.6123 231.592 79.5139 231.613 79.4191C231.633 79.3242 231.677 79.2358 231.739 79.1612C231.795 79.0857 231.863 79.0201 231.94 78.9672C232.077 78.9614 232.213 78.9829 232.341 79.0303C232.469 79.0777 232.587 79.1501 232.687 79.2433C232.774 79.3448 232.837 79.4645 232.872 79.5936C232.907 79.7228 232.913 79.8581 232.888 79.9896C232.882 80.0225 232.882 80.0563 232.888 80.0891C232.895 80.1219 232.908 80.1531 232.927 80.1808C232.946 80.2086 232.97 80.2324 232.998 80.2508C233.026 80.2692 233.057 80.2819 233.09 80.2882H233.127C233.188 80.2894 233.248 80.2692 233.296 80.231C233.343 80.1928 233.376 80.1391 233.388 80.0792C233.428 79.8705 233.42 79.6557 233.366 79.4504C233.312 79.2451 233.212 79.0545 233.075 78.8926C232.971 78.778 232.843 78.6865 232.702 78.6239C233.088 78.5162 233.502 78.5588 233.858 78.7433C234.07 78.8538 234.233 79.0381 234.317 79.261C234.4 79.484 234.399 79.7301 234.314 79.9523C234.285 80.0139 234.282 80.0841 234.304 80.1481C234.326 80.2122 234.372 80.2651 234.433 80.2956C234.493 80.3244 234.561 80.3288 234.624 80.3079C234.686 80.287 234.739 80.2424 234.769 80.1837C234.909 79.8346 234.913 79.4454 234.779 79.0939C234.644 78.7425 234.382 78.4546 234.045 78.2881Z" fill="#C16B5B"/>
<path d="M218.893 303.583L181.535 322.119L193.142 345.511L230.499 326.975L218.893 303.583Z" fill="white"/>
<path d="M181.537 322.112L206.016 324.545L218.89 303.582L181.537 322.112Z" fill="#E5E5E5"/>
<path d="M372.821 120.648C371.319 117.618 369.092 115.007 366.338 113.045C363.584 111.083 360.388 109.832 357.034 109.403C353.68 108.974 350.271 109.379 347.112 110.584C343.952 111.789 341.139 113.756 338.923 116.309C336.706 118.863 335.155 121.925 334.406 125.222C333.657 128.52 333.735 131.951 334.631 135.211C335.528 138.472 337.216 141.46 339.546 143.911C341.875 146.362 344.774 148.2 347.985 149.261C352.382 150.631 356.423 152.952 359.821 156.06L361.105 157.277L372.299 151.724L372.105 149.948C371.617 145.512 372.167 141.023 373.71 136.835C374.67 134.219 375.087 131.433 374.934 128.65C374.781 125.867 374.063 123.144 372.821 120.648Z" fill="#F7A60C"/>
<path d="M353.406 132.725L351.795 133.525L363.093 156.295L364.704 155.495L353.406 132.725Z" fill="#E89003"/>
<path d="M359.082 129.908L357.471 130.708L368.769 153.478L370.38 152.678L359.082 129.908Z" fill="#E89003"/>
<path d="M367.905 161.598L371.696 159.717L373.188 162.726C373.292 162.935 373.309 163.177 373.234 163.398C373.16 163.619 373 163.802 372.791 163.906L370.571 165.007C370.362 165.111 370.12 165.127 369.899 165.053C369.678 164.978 369.495 164.819 369.391 164.61L367.898 161.601L367.905 161.598Z" fill="#19437F"/>
<path d="M361.098 157.293L372.363 151.703L375.62 158.268C375.745 158.52 375.765 158.811 375.675 159.078C375.585 159.344 375.394 159.564 375.142 159.689L365.802 164.323C365.551 164.448 365.26 164.468 364.993 164.378C364.727 164.288 364.507 164.096 364.382 163.845L361.115 157.26L361.098 157.293Z" fill="white"/>
<path d="M127.853 72.4219L136.07 91.3556L90.7324 104.699L127.853 72.4219Z" fill="#E5E5E5"/>
<path d="M90.7324 104.7L107.547 66.9965L127.853 72.4221L90.7324 104.7Z" fill="white"/>
<path d="M90.7324 104.7L133.264 73.9967L155.795 77.4894L90.7324 104.7Z" fill="white"/>
<path d="M112.078 286.32L110.148 290.933L111.002 291.29L112.932 286.677L112.078 286.32Z" fill="#AD1E0B"/>
<path d="M93.4648 278.537L91.5352 283.15L92.3889 283.507L94.3185 278.894L93.4648 278.537Z" fill="#AD1E0B"/>
<path d="M112.146 287.312C111.971 287.236 111.822 287.108 111.72 286.946C107.549 280.297 101.787 277.886 94.1226 279.588C93.8821 279.641 93.6302 279.597 93.4224 279.465C93.2145 279.333 93.0678 279.123 93.0143 278.883C92.9609 278.642 93.0051 278.39 93.1374 278.182C93.2697 277.975 93.4791 277.828 93.7196 277.774C102.13 275.916 108.713 278.67 113.295 285.984C113.398 286.151 113.445 286.347 113.43 286.544C113.415 286.74 113.338 286.926 113.21 287.076C113.083 287.226 112.911 287.332 112.72 287.378C112.529 287.424 112.328 287.409 112.146 287.335V287.312Z" fill="#D33C39"/>
<path d="M124.98 296.174L78.2383 276.622L65.3559 307.418L112.098 326.97L124.98 296.174Z" fill="#D33C39"/>
<path d="M124.98 296.173L78.2383 276.62L71.3176 293.165L118.059 312.717L124.98 296.173Z" fill="#D33C39"/>
<path d="M118.058 312.72L71.3164 293.168L70.2278 295.77L116.969 315.323L118.058 312.72Z" fill="#AD1E0B"/>
<path d="M79.6721 296.666L78.1367 296.023L76.2676 300.492L77.8029 301.134L79.6721 296.666Z" fill="#F7A60C"/>
<path d="M107.83 313.694L109.365 314.336L111.234 309.868L109.699 309.226L107.83 313.694Z" fill="#F7A60C"/>
</g>
<defs>
<clipPath id="clip0_3_3556">
<rect width="458" height="411" fill="white" transform="translate(0 0.5)"/>
</clipPath>
</defs>
</svg>
