<svg width="101" height="41" viewBox="0 0 101 41" fill="none" xmlns="http://www.w3.org/2000/svg">
<g clip-path="url(#clip0_7508_12800)">
<path d="M87.1508 19.0195H73.9225L73.1111 22.7549H80.2641L76.353 26.0517L75.6999 29.1031H77.9217C78.7583 29.1031 79.3718 29.2258 79.7639 29.4694C80.1561 29.7131 80.3522 30.0727 80.3522 30.5432C80.3522 31.1783 80.068 31.6707 79.5031 32.0202C78.9364 32.3697 78.1214 32.5444 77.0582 32.5444C76.2037 32.5444 75.3545 32.4218 74.509 32.1781C73.6634 31.9345 72.9096 31.5833 72.2476 31.1279L69.8423 34.5709C70.731 35.1893 71.7673 35.6581 72.9528 35.9757C74.1384 36.2932 75.3923 36.4512 76.7182 36.4512C78.4255 36.4512 79.951 36.1823 81.2931 35.6446C82.6352 35.1069 83.6858 34.3709 84.4432 33.435C85.2006 32.4991 85.5802 31.4371 85.5802 30.2491C85.5802 29.3216 85.3319 28.515 84.8354 27.8311C84.3389 27.1472 83.6337 26.623 82.718 26.2567C82.4463 26.1475 82.1549 26.0567 81.8508 25.9811L86.5211 22.0458L87.1508 19.0195Z" fill="#EE1C51"/>
<path d="M97.9019 28.859C97.3532 28.6153 96.765 28.4322 96.1371 28.3095C95.5092 28.1868 94.921 28.081 94.3723 27.9919C93.8235 27.9029 93.3702 27.7886 93.0122 27.6508C92.6542 27.513 92.4761 27.3215 92.4761 27.0778C92.4761 26.8006 92.6506 26.5653 92.9996 26.3704C93.3486 26.1755 93.9315 26.078 94.7518 26.078C95.3959 26.078 96.0849 26.1469 96.8171 26.2864C97.5493 26.4242 98.2636 26.6897 98.9616 27.0795L100.714 23.8315C100.016 23.4903 99.1972 23.2299 98.2564 23.0501C97.3155 22.8703 96.3386 22.7812 95.3275 22.7812C93.8973 22.7812 92.6128 22.961 91.4722 23.319C90.3298 23.6769 89.4285 24.2146 88.7665 24.9304C88.1044 25.6462 87.7734 26.5334 87.7734 27.592C87.7734 28.3414 87.9515 28.9396 88.3095 29.3866C88.6657 29.8352 89.1245 30.1797 89.6822 30.425C90.2399 30.6687 90.8282 30.8569 91.447 30.9863C92.0659 31.1173 92.6542 31.2232 93.2119 31.3038C93.7696 31.3862 94.2265 31.487 94.5845 31.6097C94.9407 31.7323 95.1206 31.9239 95.1206 32.1826C95.1206 32.475 94.9461 32.7069 94.5971 32.8783C94.2481 33.0497 93.6652 33.1354 92.8449 33.1354C92.0083 33.1354 91.1448 33.0295 90.2561 32.8178C89.3673 32.6061 88.592 32.3053 87.9299 31.9138L86.1255 35.1619C86.7354 35.5198 87.5971 35.8256 88.7143 36.0776C89.8297 36.3297 91.0153 36.4557 92.2692 36.4557C93.6814 36.4557 94.9533 36.2759 96.0867 35.918C97.2201 35.5601 98.1214 35.0224 98.7925 34.3066C99.4635 33.5908 99.7981 32.7119 99.7981 31.6701C99.7981 30.9224 99.62 30.3276 99.262 29.8873C98.904 29.4454 98.4507 29.1026 97.9019 28.859Z" fill="#EE1C51"/>
<path d="M13.5276 24.2091L7.50644 10.6855H0.715332L10.2044 31.4328H16.3922L25.912 10.6855H19.6923L13.5276 24.2091Z" fill="#00b14f"/>
<path d="M48.9831 6.5221L51.494 8.78241H55.1733L51.3774 4.27734H46.5887L42.7915 8.78241H46.4708L48.9831 6.5221Z" fill="#00b14f"/>
<path d="M46.3804 22.8918H56.25V18.5052H46.3804V15.0076H57.5836V10.4727H40.1606V31.2211H57.9961V26.6861H46.3804V22.8918Z" fill="#00b14f"/>
<path d="M48.9842 33.0586C48.286 33.0586 47.6928 33.2752 47.2073 33.7107C46.7205 34.1451 46.4771 34.7087 46.4771 35.4003C46.4771 36.0919 46.7205 36.6447 47.2073 37.0599C47.6941 37.4751 48.286 37.6821 48.9842 37.6821C49.6824 37.6821 50.2742 37.4751 50.761 37.0599C51.2479 36.6447 51.4913 36.0919 51.4913 35.4003C51.4913 34.7087 51.2479 34.1451 50.761 33.7107C50.2742 33.2752 49.6824 33.0586 48.9842 33.0586Z" fill="#00b14f"/>
<path d="M31.9967 40.4933C32.0967 40.3892 36.6894 35.5467 36.6894 32.6678C36.6894 30.9699 33.9543 15.3966 33.9543 15.3966C33.9543 15.3966 35.9208 11.899 35.7158 11.4204C35.5877 11.1224 34.8357 10.9358 34.0568 10.8209C32.8154 10.6378 31.5484 10.6378 30.307 10.8209C29.5293 10.9358 28.7761 11.1224 28.648 11.4204C28.443 11.899 30.4095 15.3966 30.4095 15.3966C30.4095 15.3966 27.6743 30.9711 27.6743 32.6678C27.6743 35.5443 31.893 40.3809 31.9916 40.4933V40.4981L31.9942 40.4957L31.9967 40.4981V40.4933Z" fill="#00b14f"/>
<path d="M32.1814 0.5C31.1834 0.5 30.3366 0.809911 29.641 1.43212C28.9453 2.05314 28.5981 2.85843 28.5981 3.84679C28.5981 4.83516 28.9453 5.62609 29.641 6.21958C30.3366 6.81308 31.1834 7.10983 32.1814 7.10983C33.1794 7.10983 34.0249 6.81308 34.7218 6.21958C35.4174 5.62609 35.7646 4.83635 35.7646 3.84679C35.7646 2.85843 35.4162 2.05314 34.7218 1.43212C34.0262 0.809911 33.1794 0.5 32.1814 0.5Z" fill="#00b14f"/>
<path d="M69.3065 27.2724C66.7584 26.3774 64.9443 24.0812 64.9443 21.3889C64.9443 17.9177 67.9575 15.1034 71.674 15.1034C73.9313 15.1034 75.9259 16.142 77.1468 17.7346L81.6973 17.7514C80.1369 14.0025 76.2385 11.3438 71.674 11.3438C65.7348 11.3438 60.9204 15.8404 60.9204 21.3877C60.9204 25.3986 63.4378 28.8579 67.0761 30.4685L69.3065 27.2724Z" fill="#00b14f"/>
</g>
<defs>
<clipPath id="clip0_7508_12800">
<rect width="100" height="40" fill="white" transform="translate(0.715332 0.5)"/>
</clipPath>
</defs>
</svg>
