<svg width="101" height="41" viewBox="0 0 101 41" fill="none" xmlns="http://www.w3.org/2000/svg">
<g clip-path="url(#clip0_7508_13469)">
<path d="M87.0829 19.4258H73.8546L73.0433 23.1611H80.1962L76.2851 26.4579L75.6321 29.5094H77.8539C78.6904 29.5094 79.3039 29.6321 79.6961 29.8757C80.0883 30.1193 80.2844 30.4789 80.2844 30.9494C80.2844 31.5846 80.0001 32.0769 79.4352 32.4264C78.8685 32.7759 78.0536 32.9507 76.9903 32.9507C76.1358 32.9507 75.2866 32.828 74.4411 32.5844C73.5956 32.3407 72.8418 31.9895 72.1797 31.5342L69.7744 34.9772C70.6631 35.5955 71.6994 36.0643 72.8849 36.3819C74.0705 36.6995 75.3244 36.8574 76.6503 36.8574C78.3576 36.8574 79.8832 36.5886 81.2253 36.0509C82.5673 35.5132 83.618 34.7772 84.3754 33.8413C85.1327 32.9053 85.5123 31.8434 85.5123 30.6554C85.5123 29.7278 85.2641 28.9213 84.7675 28.2374C84.271 27.5535 83.5658 27.0292 82.6501 26.6629C82.3784 26.5537 82.087 26.463 81.7829 26.3874L86.4532 22.452L87.0829 19.4258Z" fill="#EE1C51"/>
<path d="M97.8341 29.2652C97.2854 29.0216 96.6971 28.8384 96.0692 28.7158C95.4414 28.5931 94.8531 28.4872 94.3044 28.3982C93.7557 28.3091 93.3023 28.1949 92.9443 28.0571C92.5863 27.9193 92.4082 27.7277 92.4082 27.4841C92.4082 27.2068 92.5827 26.9716 92.9317 26.7767C93.2807 26.5817 93.8636 26.4843 94.684 26.4843C95.328 26.4843 96.0171 26.5532 96.7493 26.6926C97.4815 26.8304 98.1957 27.0959 98.8937 27.4858L100.646 24.2377C99.9479 23.8966 99.1294 23.6361 98.1885 23.4564C97.2476 23.2766 96.2707 23.1875 95.2597 23.1875C93.8294 23.1875 92.5449 23.3673 91.4043 23.7252C90.262 24.0831 89.3606 24.6208 88.6986 25.3366C88.0366 26.0524 87.7055 26.9397 87.7055 27.9983C87.7055 28.7477 87.8836 29.3459 88.2416 29.7928C88.5979 30.2415 89.0566 30.586 89.6143 30.8313C90.172 31.0749 90.7603 31.2631 91.3792 31.3925C91.998 31.5236 92.5863 31.6294 93.144 31.7101C93.7017 31.7924 94.1587 31.8932 94.5167 32.0159C94.8729 32.1386 95.0528 32.3301 95.0528 32.5889C95.0528 32.8813 94.8783 33.1132 94.5293 33.2846C94.1802 33.4559 93.5974 33.5416 92.777 33.5416C91.9405 33.5416 91.0769 33.4358 90.1882 33.2241C89.2995 33.0123 88.5241 32.7116 87.8621 32.32L86.0576 35.5681C86.6675 35.926 87.5292 36.2318 88.6464 36.4839C89.7618 36.7359 90.9474 36.862 92.2013 36.862C93.6136 36.862 94.8855 36.6822 96.0189 36.3243C97.1522 35.9663 98.0536 35.4286 98.7246 34.7128C99.3956 33.997 99.7303 33.1182 99.7303 32.0764C99.7303 31.3287 99.5522 30.7338 99.1941 30.2936C98.8361 29.8517 98.3828 29.5089 97.8341 29.2652Z" fill="#EE1C51"/>
<path d="M13.4597 24.6154L7.43857 11.0918H0.647461L10.1366 31.8391H16.3243L25.8441 11.0918H19.6244L13.4597 24.6154Z" fill="white"/>
<path d="M48.9152 6.92835L51.4261 9.18866H55.1055L51.3096 4.68359H46.5208L42.7236 9.18866H46.403L48.9152 6.92835Z" fill="white"/>
<path d="M46.3125 23.2981H56.1821V18.9115H46.3125V15.4139H57.5157V10.8789H40.0928V31.6274H57.9282V27.0924H46.3125V23.2981Z" fill="white"/>
<path d="M48.9163 33.4648C48.2181 33.4648 47.6249 33.6814 47.1394 34.117C46.6526 34.5513 46.4092 35.1149 46.4092 35.8065C46.4092 36.4981 46.6526 37.051 47.1394 37.4662C47.6262 37.8814 48.2181 38.0884 48.9163 38.0884C49.6145 38.0884 50.2064 37.8814 50.6932 37.4662C51.18 37.051 51.4234 36.4981 51.4234 35.8065C51.4234 35.1149 51.18 34.5513 50.6932 34.117C50.2064 33.6814 49.6145 33.4648 48.9163 33.4648Z" fill="white"/>
<path d="M31.9289 40.8996C32.0288 40.7955 36.6215 35.953 36.6215 33.074C36.6215 31.3761 33.8864 15.8028 33.8864 15.8028C33.8864 15.8028 35.8529 12.3053 35.6479 11.8266C35.5198 11.5287 34.7678 11.342 33.9889 11.2271C32.7475 11.0441 31.4805 11.0441 30.2391 11.2271C29.4615 11.342 28.7082 11.5287 28.5801 11.8266C28.3751 12.3053 30.3416 15.8028 30.3416 15.8028C30.3416 15.8028 27.6064 31.3773 27.6064 33.074C27.6064 35.9506 31.8251 40.7871 31.9238 40.8996V40.9044L31.9263 40.902L31.9289 40.9044V40.8996Z" fill="white"/>
<path d="M32.1135 0.90625C31.1155 0.90625 30.2687 1.21616 29.5731 1.83837C28.8775 2.45939 28.5303 3.26468 28.5303 4.25304C28.5303 5.24141 28.8775 6.03234 29.5731 6.62583C30.2687 7.21933 31.1155 7.51608 32.1135 7.51608C33.1115 7.51608 33.957 7.21933 34.6539 6.62583C35.3496 6.03234 35.6967 5.2426 35.6967 4.25304C35.6967 3.26468 35.3483 2.45939 34.6539 1.83837C33.9583 1.21616 33.1115 0.90625 32.1135 0.90625Z" fill="white"/>
<path d="M69.2386 27.6787C66.6905 26.7837 64.8765 24.4874 64.8765 21.7952C64.8765 18.3239 67.8896 15.5096 71.6061 15.5096C73.8634 15.5096 75.8581 16.5482 77.0789 18.1409L81.6294 18.1576C80.069 14.4088 76.1707 11.75 71.6061 11.75C65.6669 11.75 60.8525 16.2467 60.8525 21.794C60.8525 25.8049 63.3699 29.2641 67.0082 30.8747L69.2386 27.6787Z" fill="white"/>
</g>
<defs>
<clipPath id="clip0_7508_13469">
<rect width="100" height="40" fill="white" transform="translate(0.647461 0.90625)"/>
</clipPath>
</defs>
</svg>
