<svg width="15" height="16" viewBox="0 0 15 16" fill="none" xmlns="http://www.w3.org/2000/svg">
<path d="M14.5099 13.2405C14.0599 13.6905 13.6099 14.1405 13.1599 14.5905C12.8399 14.9105 12.4399 15.0705 11.9999 15.1305C11.9599 15.1405 11.9299 15.1505 11.8899 15.1605H11.2799C10.9099 15.0805 10.5399 15.0205 10.1799 14.9205C9.43995 14.7205 8.74994 14.3805 8.08994 14.0005C6.20994 12.9105 4.59994 11.5005 3.17994 9.87055C2.24994 8.82055 1.43994 7.68055 0.819945 6.42055C0.439945 5.64055 0.139945 4.84055 0.029945 3.97055C-0.030055 3.43055 -0.0100552 2.89055 0.249945 2.39055C0.339945 2.23055 0.449945 2.08055 0.569945 1.96055C0.999945 1.51055 1.44994 1.08055 1.88994 0.630548C2.48994 0.0105482 3.42994 0.0805482 3.99994 0.630548C4.68994 1.30055 5.34995 1.97055 6.01995 2.65055C6.60995 3.24055 6.60994 4.14055 6.02994 4.68055C5.90994 4.80055 5.74994 4.89055 5.58994 4.95055C5.17994 5.11055 4.85994 5.36055 4.67994 5.77055C4.55995 6.04055 4.54994 6.32055 4.61994 6.61055C4.83994 7.42055 5.29994 8.09055 5.85994 8.70055C6.42994 9.34055 7.08994 9.88055 7.86994 10.2605C8.20994 10.4305 8.55995 10.5805 8.95994 10.5305C9.48994 10.4605 9.89994 10.2005 10.1099 9.69055C10.2399 9.37055 10.3999 9.08055 10.6999 8.89055C11.2699 8.54055 11.9599 8.60055 12.4599 9.09055C13.1599 9.77055 13.8599 10.4605 14.5399 11.1705C15.0999 11.7405 15.0799 12.6605 14.5099 13.2405Z" fill="#557B9C"/>
</svg>
